%TF.GenerationSoftware,KiCad,Pcbnew,(5.1.5)-3*%
%TF.CreationDate,2020-05-07T11:23:43+02:00*%
%TF.ProjectId,loeti,6c6f6574-692e-46b6-9963-61645f706362,rev?*%
%TF.SameCoordinates,Original*%
%TF.FileFunction,Copper,L2,Bot*%
%TF.FilePolarity,Positive*%
%FSLAX46Y46*%
G04 Gerber Fmt 4.6, Leading zero omitted, Abs format (unit mm)*
G04 Created by KiCad (PCBNEW (5.1.5)-3) date 2020-05-07 11:23:43*
%MOMM*%
%LPD*%
G04 APERTURE LIST*
%TA.AperFunction,ComponentPad*%
%ADD10C,1.500000*%
%TD*%
%TA.AperFunction,ComponentPad*%
%ADD11R,1.500000X1.500000*%
%TD*%
%TA.AperFunction,ComponentPad*%
%ADD12O,1.000000X1.000000*%
%TD*%
%TA.AperFunction,ComponentPad*%
%ADD13R,1.000000X1.000000*%
%TD*%
%TA.AperFunction,SMDPad,CuDef*%
%ADD14C,0.100000*%
%TD*%
%TA.AperFunction,ComponentPad*%
%ADD15R,1.600000X1.600000*%
%TD*%
%TA.AperFunction,ComponentPad*%
%ADD16C,1.600000*%
%TD*%
%TA.AperFunction,ComponentPad*%
%ADD17R,2.000000X2.000000*%
%TD*%
%TA.AperFunction,ComponentPad*%
%ADD18R,4.000000X4.000000*%
%TD*%
%TA.AperFunction,ComponentPad*%
%ADD19O,1.000000X2.400000*%
%TD*%
%TA.AperFunction,ComponentPad*%
%ADD20O,1.000000X2.550000*%
%TD*%
%TA.AperFunction,ViaPad*%
%ADD21C,1.000000*%
%TD*%
%TA.AperFunction,ViaPad*%
%ADD22C,0.600000*%
%TD*%
%TA.AperFunction,Conductor*%
%ADD23C,0.150000*%
%TD*%
G04 APERTURE END LIST*
D10*
%TO.P,U4,2*%
%TO.N,N/C*%
X98880000Y-106700000D03*
%TO.P,U4,9*%
X81100000Y-106700000D03*
%TO.P,U4,10*%
X78560000Y-106700000D03*
%TO.P,U4,11*%
%TO.N,Net-(C10-Pad1)*%
X78560000Y-81300000D03*
%TO.P,U4,12*%
%TO.N,+3V3*%
X81100000Y-81300000D03*
%TO.P,U4,13*%
X83640000Y-81300000D03*
%TO.P,U4,14*%
%TO.N,HEATER-*%
X86180000Y-81300000D03*
%TO.P,U4,15*%
%TO.N,SPI1_MISO*%
X88720000Y-81300000D03*
%TO.P,U4,16*%
%TO.N,SPI1_MOSI*%
X91260000Y-81300000D03*
%TO.P,U4,17*%
%TO.N,SPI1_SCK*%
X93800000Y-81300000D03*
%TO.P,U4,18*%
%TO.N,SPI1_NSS2*%
X96340000Y-81300000D03*
%TO.P,U4,19*%
%TO.N,HEATER-*%
X98880000Y-81300000D03*
%TO.P,U4,20*%
%TO.N,LCD_NRST*%
X101420000Y-81300000D03*
D11*
%TO.P,U4,1*%
%TO.N,N/C*%
X101420000Y-106700000D03*
%TD*%
D12*
%TO.P,J2,14*%
%TO.N,N/C*%
X108330000Y-58270000D03*
%TO.P,J2,13*%
X109600000Y-58270000D03*
%TO.P,J2,12*%
%TO.N,NRST*%
X108330000Y-59540000D03*
%TO.P,J2,11*%
%TO.N,HEATER-*%
X109600000Y-59540000D03*
%TO.P,J2,10*%
%TO.N,N/C*%
X108330000Y-60810000D03*
%TO.P,J2,9*%
X109600000Y-60810000D03*
%TO.P,J2,8*%
X108330000Y-62080000D03*
%TO.P,J2,7*%
%TO.N,HEATER-*%
X109600000Y-62080000D03*
%TO.P,J2,6*%
%TO.N,SWCLK*%
X108330000Y-63350000D03*
%TO.P,J2,5*%
%TO.N,HEATER-*%
X109600000Y-63350000D03*
%TO.P,J2,4*%
%TO.N,SWDIO*%
X108330000Y-64620000D03*
%TO.P,J2,3*%
%TO.N,+3V3*%
X109600000Y-64620000D03*
%TO.P,J2,2*%
%TO.N,N/C*%
X108330000Y-65890000D03*
D13*
%TO.P,J2,1*%
X109600000Y-65890000D03*
%TD*%
%TA.AperFunction,SMDPad,CuDef*%
D14*
%TO.P,SW2,2*%
%TO.N,HEATER-*%
G36*
X93549009Y-117002408D02*
G01*
X93597545Y-117009607D01*
X93645142Y-117021530D01*
X93691342Y-117038060D01*
X93735698Y-117059039D01*
X93777785Y-117084265D01*
X93817197Y-117113495D01*
X93853553Y-117146447D01*
X93886505Y-117182803D01*
X93915735Y-117222215D01*
X93940961Y-117264302D01*
X93961940Y-117308658D01*
X93978470Y-117354858D01*
X93990393Y-117402455D01*
X93997592Y-117450991D01*
X94000000Y-117500000D01*
X94000000Y-118500000D01*
X93997592Y-118549009D01*
X93990393Y-118597545D01*
X93978470Y-118645142D01*
X93961940Y-118691342D01*
X93940961Y-118735698D01*
X93915735Y-118777785D01*
X93886505Y-118817197D01*
X93853553Y-118853553D01*
X93817197Y-118886505D01*
X93777785Y-118915735D01*
X93735698Y-118940961D01*
X93691342Y-118961940D01*
X93645142Y-118978470D01*
X93597545Y-118990393D01*
X93549009Y-118997592D01*
X93500000Y-119000000D01*
X91500000Y-119000000D01*
X91450991Y-118997592D01*
X91402455Y-118990393D01*
X91354858Y-118978470D01*
X91308658Y-118961940D01*
X91264302Y-118940961D01*
X91222215Y-118915735D01*
X91182803Y-118886505D01*
X91146447Y-118853553D01*
X91113495Y-118817197D01*
X91084265Y-118777785D01*
X91059039Y-118735698D01*
X91038060Y-118691342D01*
X91021530Y-118645142D01*
X91009607Y-118597545D01*
X91002408Y-118549009D01*
X91000000Y-118500000D01*
X91000000Y-117500000D01*
X91002408Y-117450991D01*
X91009607Y-117402455D01*
X91021530Y-117354858D01*
X91038060Y-117308658D01*
X91059039Y-117264302D01*
X91084265Y-117222215D01*
X91113495Y-117182803D01*
X91146447Y-117146447D01*
X91182803Y-117113495D01*
X91222215Y-117084265D01*
X91264302Y-117059039D01*
X91308658Y-117038060D01*
X91354858Y-117021530D01*
X91402455Y-117009607D01*
X91450991Y-117002408D01*
X91500000Y-117000000D01*
X93500000Y-117000000D01*
X93549009Y-117002408D01*
G37*
%TD.AperFunction*%
%TA.AperFunction,SMDPad,CuDef*%
%TO.P,SW2,1*%
%TO.N,Net-(SW2-Pad1)*%
G36*
X100549009Y-117002408D02*
G01*
X100597545Y-117009607D01*
X100645142Y-117021530D01*
X100691342Y-117038060D01*
X100735698Y-117059039D01*
X100777785Y-117084265D01*
X100817197Y-117113495D01*
X100853553Y-117146447D01*
X100886505Y-117182803D01*
X100915735Y-117222215D01*
X100940961Y-117264302D01*
X100961940Y-117308658D01*
X100978470Y-117354858D01*
X100990393Y-117402455D01*
X100997592Y-117450991D01*
X101000000Y-117500000D01*
X101000000Y-118500000D01*
X100997592Y-118549009D01*
X100990393Y-118597545D01*
X100978470Y-118645142D01*
X100961940Y-118691342D01*
X100940961Y-118735698D01*
X100915735Y-118777785D01*
X100886505Y-118817197D01*
X100853553Y-118853553D01*
X100817197Y-118886505D01*
X100777785Y-118915735D01*
X100735698Y-118940961D01*
X100691342Y-118961940D01*
X100645142Y-118978470D01*
X100597545Y-118990393D01*
X100549009Y-118997592D01*
X100500000Y-119000000D01*
X98500000Y-119000000D01*
X98450991Y-118997592D01*
X98402455Y-118990393D01*
X98354858Y-118978470D01*
X98308658Y-118961940D01*
X98264302Y-118940961D01*
X98222215Y-118915735D01*
X98182803Y-118886505D01*
X98146447Y-118853553D01*
X98113495Y-118817197D01*
X98084265Y-118777785D01*
X98059039Y-118735698D01*
X98038060Y-118691342D01*
X98021530Y-118645142D01*
X98009607Y-118597545D01*
X98002408Y-118549009D01*
X98000000Y-118500000D01*
X98000000Y-117500000D01*
X98002408Y-117450991D01*
X98009607Y-117402455D01*
X98021530Y-117354858D01*
X98038060Y-117308658D01*
X98059039Y-117264302D01*
X98084265Y-117222215D01*
X98113495Y-117182803D01*
X98146447Y-117146447D01*
X98182803Y-117113495D01*
X98222215Y-117084265D01*
X98264302Y-117059039D01*
X98308658Y-117038060D01*
X98354858Y-117021530D01*
X98402455Y-117009607D01*
X98450991Y-117002408D01*
X98500000Y-117000000D01*
X100500000Y-117000000D01*
X100549009Y-117002408D01*
G37*
%TD.AperFunction*%
%TD*%
%TA.AperFunction,SMDPad,CuDef*%
%TO.P,SW3,2*%
%TO.N,HEATER-*%
G36*
X88549009Y-117002408D02*
G01*
X88597545Y-117009607D01*
X88645142Y-117021530D01*
X88691342Y-117038060D01*
X88735698Y-117059039D01*
X88777785Y-117084265D01*
X88817197Y-117113495D01*
X88853553Y-117146447D01*
X88886505Y-117182803D01*
X88915735Y-117222215D01*
X88940961Y-117264302D01*
X88961940Y-117308658D01*
X88978470Y-117354858D01*
X88990393Y-117402455D01*
X88997592Y-117450991D01*
X89000000Y-117500000D01*
X89000000Y-118500000D01*
X88997592Y-118549009D01*
X88990393Y-118597545D01*
X88978470Y-118645142D01*
X88961940Y-118691342D01*
X88940961Y-118735698D01*
X88915735Y-118777785D01*
X88886505Y-118817197D01*
X88853553Y-118853553D01*
X88817197Y-118886505D01*
X88777785Y-118915735D01*
X88735698Y-118940961D01*
X88691342Y-118961940D01*
X88645142Y-118978470D01*
X88597545Y-118990393D01*
X88549009Y-118997592D01*
X88500000Y-119000000D01*
X86500000Y-119000000D01*
X86450991Y-118997592D01*
X86402455Y-118990393D01*
X86354858Y-118978470D01*
X86308658Y-118961940D01*
X86264302Y-118940961D01*
X86222215Y-118915735D01*
X86182803Y-118886505D01*
X86146447Y-118853553D01*
X86113495Y-118817197D01*
X86084265Y-118777785D01*
X86059039Y-118735698D01*
X86038060Y-118691342D01*
X86021530Y-118645142D01*
X86009607Y-118597545D01*
X86002408Y-118549009D01*
X86000000Y-118500000D01*
X86000000Y-117500000D01*
X86002408Y-117450991D01*
X86009607Y-117402455D01*
X86021530Y-117354858D01*
X86038060Y-117308658D01*
X86059039Y-117264302D01*
X86084265Y-117222215D01*
X86113495Y-117182803D01*
X86146447Y-117146447D01*
X86182803Y-117113495D01*
X86222215Y-117084265D01*
X86264302Y-117059039D01*
X86308658Y-117038060D01*
X86354858Y-117021530D01*
X86402455Y-117009607D01*
X86450991Y-117002408D01*
X86500000Y-117000000D01*
X88500000Y-117000000D01*
X88549009Y-117002408D01*
G37*
%TD.AperFunction*%
%TA.AperFunction,SMDPad,CuDef*%
%TO.P,SW3,1*%
%TO.N,Net-(SW3-Pad1)*%
G36*
X81549009Y-117002408D02*
G01*
X81597545Y-117009607D01*
X81645142Y-117021530D01*
X81691342Y-117038060D01*
X81735698Y-117059039D01*
X81777785Y-117084265D01*
X81817197Y-117113495D01*
X81853553Y-117146447D01*
X81886505Y-117182803D01*
X81915735Y-117222215D01*
X81940961Y-117264302D01*
X81961940Y-117308658D01*
X81978470Y-117354858D01*
X81990393Y-117402455D01*
X81997592Y-117450991D01*
X82000000Y-117500000D01*
X82000000Y-118500000D01*
X81997592Y-118549009D01*
X81990393Y-118597545D01*
X81978470Y-118645142D01*
X81961940Y-118691342D01*
X81940961Y-118735698D01*
X81915735Y-118777785D01*
X81886505Y-118817197D01*
X81853553Y-118853553D01*
X81817197Y-118886505D01*
X81777785Y-118915735D01*
X81735698Y-118940961D01*
X81691342Y-118961940D01*
X81645142Y-118978470D01*
X81597545Y-118990393D01*
X81549009Y-118997592D01*
X81500000Y-119000000D01*
X79500000Y-119000000D01*
X79450991Y-118997592D01*
X79402455Y-118990393D01*
X79354858Y-118978470D01*
X79308658Y-118961940D01*
X79264302Y-118940961D01*
X79222215Y-118915735D01*
X79182803Y-118886505D01*
X79146447Y-118853553D01*
X79113495Y-118817197D01*
X79084265Y-118777785D01*
X79059039Y-118735698D01*
X79038060Y-118691342D01*
X79021530Y-118645142D01*
X79009607Y-118597545D01*
X79002408Y-118549009D01*
X79000000Y-118500000D01*
X79000000Y-117500000D01*
X79002408Y-117450991D01*
X79009607Y-117402455D01*
X79021530Y-117354858D01*
X79038060Y-117308658D01*
X79059039Y-117264302D01*
X79084265Y-117222215D01*
X79113495Y-117182803D01*
X79146447Y-117146447D01*
X79182803Y-117113495D01*
X79222215Y-117084265D01*
X79264302Y-117059039D01*
X79308658Y-117038060D01*
X79354858Y-117021530D01*
X79402455Y-117009607D01*
X79450991Y-117002408D01*
X79500000Y-117000000D01*
X81500000Y-117000000D01*
X81549009Y-117002408D01*
G37*
%TD.AperFunction*%
%TD*%
D15*
%TO.P,C17,1*%
%TO.N,SHUNT+*%
X70250000Y-55250000D03*
D16*
%TO.P,C17,2*%
%TO.N,HEATER-*%
X66750000Y-55250000D03*
%TD*%
D17*
%TO.P,TP6,1*%
%TO.N,PA5*%
X114950000Y-68950000D03*
%TD*%
%TO.P,TP5,1*%
%TO.N,PA4*%
X114950000Y-73250000D03*
%TD*%
%TO.P,TP4,1*%
%TO.N,PA3*%
X115000000Y-77500000D03*
%TD*%
D18*
%TO.P,TP3,1*%
%TO.N,+3V3*%
X113300000Y-105000000D03*
%TD*%
%TO.P,TP2,1*%
%TO.N,HEATER-*%
X113300000Y-99500000D03*
%TD*%
D19*
%TO.P,J1,S1*%
%TO.N,HEATER-*%
X67000000Y-44120000D03*
D20*
X67000000Y-47350000D03*
X77800000Y-47350000D03*
D19*
X77800000Y-44120000D03*
%TD*%
D21*
%TO.N,+3V3*%
X104750000Y-72250000D03*
X104750000Y-67750000D03*
X92750000Y-75250000D03*
X98000000Y-75250000D03*
X88250000Y-75250000D03*
X97250000Y-65325000D03*
X98000000Y-76500000D03*
X92750000Y-76500000D03*
X88250000Y-76500000D03*
X104750000Y-76500000D03*
X74400000Y-67700000D03*
X74400000Y-68900000D03*
X76400000Y-72450000D03*
X74400000Y-64000000D03*
X74400000Y-66500000D03*
D22*
X84800000Y-58800000D03*
X76800000Y-67700000D03*
X84000000Y-47600000D03*
X83800000Y-51300000D03*
D21*
X104750000Y-69750000D03*
D22*
X100200000Y-67500000D03*
%TO.N,CC2*%
X76850000Y-64050000D03*
X71100000Y-50100000D03*
%TO.N,CC1*%
X76850000Y-62150000D03*
X73600000Y-50100000D03*
%TO.N,USB_P*%
X82900000Y-73400000D03*
X91300000Y-66400000D03*
%TO.N,USB_N*%
X82900000Y-71500000D03*
X92100000Y-66400000D03*
D21*
%TO.N,HEATER-*%
X104750000Y-42500000D03*
X106000000Y-42500000D03*
X107250000Y-42500000D03*
X107250000Y-43750000D03*
X106000000Y-43750000D03*
X104750000Y-43750000D03*
X104750000Y-45000000D03*
X106000000Y-45000000D03*
X107250000Y-45000000D03*
X89600000Y-43450000D03*
X89600000Y-48700000D03*
X90000000Y-118000000D03*
X65000000Y-47000000D03*
X65000000Y-44500000D03*
X78500000Y-58500000D03*
X78500000Y-59750000D03*
X78500000Y-61000000D03*
D22*
X82100000Y-62350000D03*
D21*
X65000000Y-48250000D03*
X65000000Y-45750000D03*
X65000000Y-43250000D03*
X97500000Y-57500000D03*
X98750000Y-57500000D03*
X97500000Y-56250000D03*
X98750000Y-56250000D03*
X100000000Y-56250000D03*
X100000000Y-57500000D03*
X97500000Y-55000000D03*
X98750000Y-55000000D03*
X100000000Y-55000000D03*
X92500000Y-62500000D03*
X90250000Y-61750000D03*
X89000000Y-61750000D03*
X93750000Y-62500000D03*
X76250000Y-49500000D03*
X77500000Y-49500000D03*
X78250000Y-50250000D03*
X78250000Y-51500000D03*
D22*
%TO.N,I2C1_SCL*%
X86400000Y-70300000D03*
X80800000Y-66900000D03*
%TO.N,I2C1_SDA*%
X86400000Y-71100000D03*
X80800000Y-67700000D03*
%TO.N,PD_ALERT_INT*%
X88200000Y-59000000D03*
X93700000Y-63500000D03*
%TO.N,SPI1_MOSI*%
X87200000Y-69100000D03*
X84800000Y-47600000D03*
X90200000Y-72300000D03*
%TO.N,SPI1_MISO*%
X85600000Y-47600000D03*
X91000000Y-71500000D03*
X86400000Y-68300000D03*
%TO.N,SPI1_SCK*%
X84800000Y-48400000D03*
X91800000Y-70700000D03*
X85600000Y-67500000D03*
%TO.N,SPI1_NSS1*%
X85600000Y-48400000D03*
X86400000Y-66700000D03*
%TO.N,LCD_NRST*%
X101400000Y-73300000D03*
%TO.N,NRST*%
X92600000Y-71099992D03*
X108900000Y-70600000D03*
X100900000Y-70100000D03*
%TO.N,SWCLK*%
X95400000Y-69500000D03*
%TO.N,SWDIO*%
X94600000Y-69500000D03*
%TO.N,SPI1_NSS2*%
X94000000Y-68900000D03*
%TO.N,ADC_IN2*%
X90400000Y-67900000D03*
X85600000Y-71100000D03*
%TO.N,PA3*%
X98000000Y-72300000D03*
%TO.N,PA4*%
X98000000Y-71500000D03*
%TO.N,PA5*%
X98000000Y-70700000D03*
%TO.N,PD_RST*%
X80400000Y-65300000D03*
X80800000Y-69300000D03*
X95400000Y-67500000D03*
%TO.N,Net-(J1-PadA7)*%
X72700000Y-49499998D03*
X71600000Y-49500000D03*
X78000000Y-71500000D03*
%TO.N,Net-(J1-PadA6)*%
X72150000Y-50100000D03*
X77400000Y-73400000D03*
%TO.N,Net-(SW2-Pad1)*%
X94600000Y-79600000D03*
X93700000Y-74800000D03*
X93000000Y-104700000D03*
%TO.N,Net-(SW3-Pad1)*%
X95600000Y-79600000D03*
X94500000Y-74800000D03*
X93000000Y-105500000D03*
%TO.N,SHUNT+*%
X80900000Y-60800000D03*
X78500000Y-56100000D03*
%TO.N,Net-(R19-Pad1)*%
X84200000Y-66700000D03*
X84000000Y-48400000D03*
%TO.N,ADC_IN7*%
X88200000Y-63900000D03*
X93700000Y-66600000D03*
%TD*%
D23*
%TO.N,CC2*%
X76700000Y-64200000D02*
X76850000Y-64050000D01*
X76250000Y-64050000D02*
X76850000Y-64050000D01*
X71100000Y-50100000D02*
X71650000Y-50650000D01*
X71650000Y-50650000D02*
X71650000Y-52850000D01*
X71650000Y-52850000D02*
X74650000Y-55850000D01*
X74650000Y-55850000D02*
X74650000Y-62450000D01*
X74650000Y-62450000D02*
X76250000Y-64050000D01*
%TO.N,CC1*%
X76450000Y-61750000D02*
X76850000Y-62150000D01*
X76450000Y-55250000D02*
X76450000Y-61750000D01*
X73250000Y-52050000D02*
X76450000Y-55250000D01*
X73600000Y-50100000D02*
X73250000Y-50450000D01*
X73250000Y-50450000D02*
X73250000Y-52050000D01*
%TO.N,USB_P*%
X82200000Y-72700000D02*
X82900000Y-73400000D01*
X82200000Y-71300000D02*
X82200000Y-72700000D01*
X82600000Y-70900000D02*
X82200000Y-71300000D01*
X83200000Y-70900000D02*
X82600000Y-70900000D01*
X91300000Y-67800000D02*
X86800000Y-72300000D01*
X86800000Y-72300000D02*
X84600000Y-72300000D01*
X91300000Y-66400000D02*
X91300000Y-67800000D01*
X84600000Y-72300000D02*
X83200000Y-70900000D01*
%TO.N,USB_N*%
X84300000Y-72900000D02*
X82900000Y-71500000D01*
X87000000Y-72900000D02*
X84300000Y-72900000D01*
X92100000Y-66400000D02*
X92100000Y-67800000D01*
X92100000Y-67800000D02*
X87000000Y-72900000D01*
%TO.N,HEATER-*%
X87500000Y-118000000D02*
X90000000Y-118000000D01*
X90000000Y-118000000D02*
X92500000Y-118000000D01*
%TO.N,I2C1_SCL*%
X86000000Y-69900000D02*
X86400000Y-70300000D01*
X84400000Y-69900000D02*
X86000000Y-69900000D01*
X81400000Y-66900000D02*
X84400000Y-69900000D01*
X80800000Y-66900000D02*
X81400000Y-66900000D01*
%TO.N,I2C1_SDA*%
X85800000Y-70500000D02*
X86400000Y-71100000D01*
X84200000Y-70500000D02*
X85800000Y-70500000D01*
X81400000Y-67700000D02*
X84200000Y-70500000D01*
X80800000Y-67700000D02*
X81400000Y-67700000D01*
%TO.N,PD_ALERT_INT*%
X88200000Y-62700000D02*
X88200000Y-59000000D01*
X93700000Y-63500000D02*
X89000000Y-63500000D01*
X89000000Y-63500000D02*
X88200000Y-62700000D01*
%TO.N,SPI1_MOSI*%
X85400000Y-47000000D02*
X84800000Y-47600000D01*
X85800000Y-47000000D02*
X85400000Y-47000000D01*
X87400000Y-48600000D02*
X85800000Y-47000000D01*
X91260000Y-79760000D02*
X91260000Y-81300000D01*
X90200000Y-72300000D02*
X90200000Y-78700000D01*
X90200000Y-78700000D02*
X91260000Y-79760000D01*
X87400000Y-68900000D02*
X87400000Y-48600000D01*
X87200000Y-69100000D02*
X87400000Y-68900000D01*
%TO.N,SPI1_MISO*%
X87000000Y-49000000D02*
X85600000Y-47600000D01*
X91900000Y-82700000D02*
X90120000Y-82700000D01*
X91000000Y-78600000D02*
X92600000Y-80200000D01*
X91000000Y-71500000D02*
X91000000Y-78600000D01*
X90120000Y-82700000D02*
X88720000Y-81300000D01*
X92600000Y-82000000D02*
X91900000Y-82700000D01*
X92600000Y-80200000D02*
X92600000Y-82000000D01*
X87000000Y-67700000D02*
X87000000Y-49000000D01*
X86400000Y-68300000D02*
X87000000Y-67700000D01*
%TO.N,SPI1_SCK*%
X93800000Y-80600000D02*
X93800000Y-81300000D01*
X91800000Y-70700000D02*
X91800000Y-78600000D01*
X91800000Y-78600000D02*
X93800000Y-80600000D01*
X86200000Y-49800000D02*
X84800000Y-48400000D01*
X86200000Y-66100000D02*
X86200000Y-49800000D01*
X85600000Y-67500000D02*
X85600000Y-66700000D01*
X85600000Y-66700000D02*
X86200000Y-66100000D01*
%TO.N,SPI1_NSS1*%
X86600000Y-49400000D02*
X85600000Y-48400000D01*
X86600000Y-66500000D02*
X86600000Y-49400000D01*
X86400000Y-66700000D02*
X86600000Y-66500000D01*
%TO.N,LCD_NRST*%
X101400000Y-73300000D02*
X101400000Y-80680000D01*
X101400000Y-80680000D02*
X101420000Y-80700000D01*
%TO.N,NRST*%
X101400000Y-70600000D02*
X108900000Y-70600000D01*
X101100000Y-70300000D02*
X101400000Y-70600000D01*
X97600000Y-70100000D02*
X96600008Y-71099992D01*
X96600008Y-71099992D02*
X92600000Y-71099992D01*
X101100000Y-70300000D02*
X100900000Y-70100000D01*
X100900000Y-70100000D02*
X97600000Y-70100000D01*
%TO.N,SWCLK*%
X108330000Y-63370000D02*
X108330000Y-63350000D01*
X106800000Y-64900000D02*
X108330000Y-63370000D01*
X96900000Y-69500000D02*
X97900000Y-68500000D01*
X95400000Y-69500000D02*
X96900000Y-69500000D01*
X97900000Y-68500000D02*
X105600000Y-68500000D01*
X106800000Y-67300000D02*
X106800000Y-64900000D01*
X105600000Y-68500000D02*
X106800000Y-67300000D01*
%TO.N,SWDIO*%
X107200000Y-65750000D02*
X108330000Y-64620000D01*
X107200000Y-67700000D02*
X107200000Y-65750000D01*
X95200000Y-70100000D02*
X97000000Y-70100000D01*
X94600000Y-69500000D02*
X95200000Y-70100000D01*
X97000000Y-70100000D02*
X98200000Y-68900000D01*
X98200000Y-68900000D02*
X106000000Y-68900000D01*
X106000000Y-68900000D02*
X107200000Y-67700000D01*
%TO.N,SPI1_NSS2*%
X88800000Y-83300000D02*
X94340000Y-83300000D01*
X92600000Y-68900000D02*
X89500000Y-72000000D01*
X94000000Y-68900000D02*
X92600000Y-68900000D01*
X94340000Y-83300000D02*
X96340000Y-81300000D01*
X89500000Y-72000000D02*
X89500000Y-77700000D01*
X89500000Y-77700000D02*
X87400000Y-79800000D01*
X87400000Y-81900000D02*
X88800000Y-83300000D01*
X87400000Y-79800000D02*
X87400000Y-81900000D01*
%TO.N,ADC_IN2*%
X86600000Y-71700000D02*
X90400000Y-67900000D01*
X85600000Y-71100000D02*
X86200000Y-71700000D01*
X86200000Y-71700000D02*
X86600000Y-71700000D01*
%TO.N,PA3*%
X98000000Y-72300000D02*
X98400000Y-72700000D01*
X98400000Y-72700000D02*
X102700000Y-72700000D01*
X103950000Y-73950000D02*
X104000000Y-74000000D01*
X102700000Y-72700000D02*
X103950000Y-73950000D01*
X103950000Y-73950000D02*
X105000000Y-75000000D01*
X112500000Y-75000000D02*
X115000000Y-77500000D01*
X105000000Y-75000000D02*
X112500000Y-75000000D01*
%TO.N,PA4*%
X105000000Y-74000000D02*
X114200000Y-74000000D01*
X114200000Y-74000000D02*
X114950000Y-73250000D01*
X98500000Y-72000000D02*
X103000000Y-72000000D01*
X98000000Y-71500000D02*
X98500000Y-72000000D01*
X103000000Y-72000000D02*
X105000000Y-74000000D01*
%TO.N,PA5*%
X112700000Y-71200000D02*
X114950000Y-68950000D01*
X98500000Y-71200000D02*
X112700000Y-71200000D01*
X98000000Y-70700000D02*
X98500000Y-71200000D01*
%TO.N,PD_RST*%
X80800000Y-73300000D02*
X80800000Y-69300000D01*
X81600000Y-74100000D02*
X80800000Y-73300000D01*
X86600000Y-74100000D02*
X81600000Y-74100000D01*
X95400000Y-67500000D02*
X94600000Y-68300000D01*
X94600000Y-68300000D02*
X92400000Y-68300000D01*
X92400000Y-68300000D02*
X86600000Y-74100000D01*
%TO.N,Net-(J1-PadA7)*%
X72700000Y-49499998D02*
X71600002Y-49499998D01*
X71600002Y-49499998D02*
X71600000Y-49500000D01*
X72700000Y-52300000D02*
X72700000Y-49499998D01*
X75850000Y-55450000D02*
X72700000Y-52300000D01*
X78000000Y-71500000D02*
X78000000Y-63500000D01*
X75850000Y-62050000D02*
X75850000Y-55450000D01*
X78000000Y-63500000D02*
X77400000Y-62900000D01*
X77400000Y-62900000D02*
X76700000Y-62900000D01*
X76700000Y-62900000D02*
X75850000Y-62050000D01*
%TO.N,Net-(J1-PadA6)*%
X77400000Y-63650000D02*
X77200000Y-63450000D01*
X75250000Y-55650000D02*
X72150000Y-52550000D01*
X77400000Y-73400000D02*
X77400000Y-63650000D01*
X77200000Y-63450000D02*
X76450000Y-63450000D01*
X76450000Y-63450000D02*
X75250000Y-62250000D01*
X72150000Y-52550000D02*
X72150000Y-50100000D01*
X75250000Y-62250000D02*
X75250000Y-55650000D01*
%TO.N,Net-(SW2-Pad1)*%
X93700000Y-74800000D02*
X93700000Y-78700000D01*
X93700000Y-78700000D02*
X94600000Y-79600000D01*
X99500000Y-111200000D02*
X99500000Y-118000000D01*
X93000000Y-104700000D02*
X99500000Y-111200000D01*
%TO.N,Net-(SW3-Pad1)*%
X81000000Y-118000000D02*
X80500000Y-118000000D01*
X94500000Y-78500000D02*
X95600000Y-79600000D01*
X94500000Y-74800000D02*
X94500000Y-78500000D01*
X93000000Y-105500000D02*
X80500000Y-118000000D01*
%TO.N,SHUNT+*%
X80900000Y-58500000D02*
X80900000Y-60800000D01*
X78500000Y-56100000D02*
X80900000Y-58500000D01*
%TO.N,Net-(R19-Pad1)*%
X85800000Y-50200000D02*
X84000000Y-48400000D01*
X85800000Y-65100000D02*
X85800000Y-50200000D01*
X84200000Y-66700000D02*
X85800000Y-65100000D01*
%TO.N,ADC_IN7*%
X93700000Y-64900000D02*
X92700000Y-63900000D01*
X92700000Y-63900000D02*
X88200000Y-63900000D01*
X93700000Y-66600000D02*
X93700000Y-64900000D01*
%TD*%
%TO.N,+3V3*%
G36*
X84334751Y-47351319D02*
G01*
X84295176Y-47446863D01*
X84275000Y-47548292D01*
X84275000Y-47651708D01*
X84295176Y-47753137D01*
X84334751Y-47848681D01*
X84392206Y-47934668D01*
X84457538Y-48000000D01*
X84400000Y-48057538D01*
X84334668Y-47992206D01*
X84248681Y-47934751D01*
X84153137Y-47895176D01*
X84051708Y-47875000D01*
X83948292Y-47875000D01*
X83846863Y-47895176D01*
X83751319Y-47934751D01*
X83665332Y-47992206D01*
X83592206Y-48065332D01*
X83534751Y-48151319D01*
X83495176Y-48246863D01*
X83475000Y-48348292D01*
X83475000Y-48451708D01*
X83495176Y-48553137D01*
X83534751Y-48648681D01*
X83592206Y-48734668D01*
X83665332Y-48807794D01*
X83751319Y-48865249D01*
X83846863Y-48904824D01*
X83948292Y-48925000D01*
X84051708Y-48925000D01*
X84092602Y-48916865D01*
X85275000Y-50099264D01*
X85275000Y-64000000D01*
X85279323Y-64043895D01*
X85292127Y-64086104D01*
X85312919Y-64125003D01*
X85340901Y-64159099D01*
X85374997Y-64187081D01*
X85413896Y-64207873D01*
X85456105Y-64220677D01*
X85500000Y-64225000D01*
X85500000Y-64975735D01*
X84292602Y-66183135D01*
X84251708Y-66175000D01*
X84148292Y-66175000D01*
X84046863Y-66195176D01*
X83951319Y-66234751D01*
X83865332Y-66292206D01*
X83792206Y-66365332D01*
X83734751Y-66451319D01*
X83695176Y-66546863D01*
X83675000Y-66648292D01*
X83675000Y-66751708D01*
X83695176Y-66853137D01*
X83734751Y-66948681D01*
X83792206Y-67034668D01*
X83865332Y-67107794D01*
X83951319Y-67165249D01*
X84046863Y-67204824D01*
X84148292Y-67225000D01*
X84251708Y-67225000D01*
X84353137Y-67204824D01*
X84448681Y-67165249D01*
X84534668Y-67107794D01*
X84607794Y-67034668D01*
X84665249Y-66948681D01*
X84704824Y-66853137D01*
X84725000Y-66751708D01*
X84725000Y-66648292D01*
X84716865Y-66607398D01*
X85900000Y-65424265D01*
X85900000Y-65975736D01*
X85398285Y-66477452D01*
X85386843Y-66486842D01*
X85377452Y-66498285D01*
X85377451Y-66498286D01*
X85349353Y-66532523D01*
X85321497Y-66584640D01*
X85304342Y-66641190D01*
X85298550Y-66700000D01*
X85300001Y-66714733D01*
X85300001Y-67069041D01*
X85265332Y-67092206D01*
X85192206Y-67165332D01*
X85134751Y-67251319D01*
X85095176Y-67346863D01*
X85075000Y-67448292D01*
X85075000Y-67551708D01*
X85095176Y-67653137D01*
X85134751Y-67748681D01*
X85192206Y-67834668D01*
X85265332Y-67907794D01*
X85351319Y-67965249D01*
X85446863Y-68004824D01*
X85548292Y-68025000D01*
X85651708Y-68025000D01*
X85753137Y-68004824D01*
X85848681Y-67965249D01*
X85934668Y-67907794D01*
X86007794Y-67834668D01*
X86065249Y-67748681D01*
X86104824Y-67653137D01*
X86125000Y-67551708D01*
X86125000Y-67448292D01*
X86104824Y-67346863D01*
X86065249Y-67251319D01*
X86007794Y-67165332D01*
X85934668Y-67092206D01*
X85900000Y-67069041D01*
X85900000Y-66864783D01*
X85934751Y-66948681D01*
X85992206Y-67034668D01*
X86065332Y-67107794D01*
X86151319Y-67165249D01*
X86246863Y-67204824D01*
X86348292Y-67225000D01*
X86451708Y-67225000D01*
X86553137Y-67204824D01*
X86648681Y-67165249D01*
X86700000Y-67130959D01*
X86700000Y-67575736D01*
X86492602Y-67783135D01*
X86451708Y-67775000D01*
X86348292Y-67775000D01*
X86246863Y-67795176D01*
X86151319Y-67834751D01*
X86065332Y-67892206D01*
X85992206Y-67965332D01*
X85934751Y-68051319D01*
X85895176Y-68146863D01*
X85875000Y-68248292D01*
X85875000Y-68351708D01*
X85895176Y-68453137D01*
X85934751Y-68548681D01*
X85992206Y-68634668D01*
X86065332Y-68707794D01*
X86151319Y-68765249D01*
X86246863Y-68804824D01*
X86348292Y-68825000D01*
X86451708Y-68825000D01*
X86553137Y-68804824D01*
X86648681Y-68765249D01*
X86734668Y-68707794D01*
X86807794Y-68634668D01*
X86865249Y-68548681D01*
X86904824Y-68453137D01*
X86925000Y-68351708D01*
X86925000Y-68248292D01*
X86916865Y-68207398D01*
X87100000Y-68024264D01*
X87100000Y-68584606D01*
X87046863Y-68595176D01*
X86951319Y-68634751D01*
X86865332Y-68692206D01*
X86792206Y-68765332D01*
X86734751Y-68851319D01*
X86695176Y-68946863D01*
X86675000Y-69048292D01*
X86675000Y-69151708D01*
X86695176Y-69253137D01*
X86734751Y-69348681D01*
X86792206Y-69434668D01*
X86865332Y-69507794D01*
X86951319Y-69565249D01*
X87046863Y-69604824D01*
X87148292Y-69625000D01*
X87251708Y-69625000D01*
X87353137Y-69604824D01*
X87448681Y-69565249D01*
X87534668Y-69507794D01*
X87607794Y-69434668D01*
X87665249Y-69348681D01*
X87704824Y-69253137D01*
X87725000Y-69151708D01*
X87725000Y-69048292D01*
X87704824Y-68946863D01*
X87698370Y-68931282D01*
X87700000Y-68914733D01*
X87700000Y-68914730D01*
X87701451Y-68900000D01*
X87700000Y-68885270D01*
X87700000Y-64225000D01*
X87785746Y-64225000D01*
X87792206Y-64234668D01*
X87865332Y-64307794D01*
X87951319Y-64365249D01*
X88046863Y-64404824D01*
X88148292Y-64425000D01*
X88251708Y-64425000D01*
X88353137Y-64404824D01*
X88448681Y-64365249D01*
X88534668Y-64307794D01*
X88607794Y-64234668D01*
X88614254Y-64225000D01*
X92600737Y-64225000D01*
X93400001Y-65024265D01*
X93400000Y-66169041D01*
X93365332Y-66192206D01*
X93292206Y-66265332D01*
X93234751Y-66351319D01*
X93195176Y-66446863D01*
X93175000Y-66548292D01*
X93175000Y-66651708D01*
X93195176Y-66753137D01*
X93234751Y-66848681D01*
X93292206Y-66934668D01*
X93365332Y-67007794D01*
X93451319Y-67065249D01*
X93546863Y-67104824D01*
X93648292Y-67125000D01*
X93751708Y-67125000D01*
X93853137Y-67104824D01*
X93948681Y-67065249D01*
X94034668Y-67007794D01*
X94107794Y-66934668D01*
X94165249Y-66848681D01*
X94204824Y-66753137D01*
X94225000Y-66651708D01*
X94225000Y-66548292D01*
X94204824Y-66446863D01*
X94165249Y-66351319D01*
X94107794Y-66265332D01*
X94034668Y-66192206D01*
X94000000Y-66169041D01*
X94000000Y-64914730D01*
X94001451Y-64900000D01*
X93999230Y-64877450D01*
X93995659Y-64841190D01*
X93978504Y-64784640D01*
X93952164Y-64735361D01*
X93950647Y-64732522D01*
X93922550Y-64698286D01*
X93922549Y-64698285D01*
X93913158Y-64686842D01*
X93901715Y-64677451D01*
X93449264Y-64225000D01*
X107050736Y-64225000D01*
X106598285Y-64677452D01*
X106586843Y-64686842D01*
X106577452Y-64698285D01*
X106577451Y-64698286D01*
X106549353Y-64732523D01*
X106521497Y-64784640D01*
X106504342Y-64841190D01*
X106498550Y-64900000D01*
X106500001Y-64914733D01*
X106500000Y-67175736D01*
X105475737Y-68200000D01*
X97914730Y-68200000D01*
X97900000Y-68198549D01*
X97885270Y-68200000D01*
X97885267Y-68200000D01*
X97841190Y-68204341D01*
X97784640Y-68221496D01*
X97732522Y-68249353D01*
X97698286Y-68277450D01*
X97686842Y-68286842D01*
X97677451Y-68298285D01*
X96775737Y-69200000D01*
X95830959Y-69200000D01*
X95807794Y-69165332D01*
X95734668Y-69092206D01*
X95648681Y-69034751D01*
X95553137Y-68995176D01*
X95451708Y-68975000D01*
X95348292Y-68975000D01*
X95246863Y-68995176D01*
X95151319Y-69034751D01*
X95065332Y-69092206D01*
X95000000Y-69157538D01*
X94934668Y-69092206D01*
X94848681Y-69034751D01*
X94753137Y-68995176D01*
X94651708Y-68975000D01*
X94548292Y-68975000D01*
X94519216Y-68980784D01*
X94525000Y-68951708D01*
X94525000Y-68848292D01*
X94504824Y-68746863D01*
X94465249Y-68651319D01*
X94430959Y-68600000D01*
X94585277Y-68600000D01*
X94600000Y-68601450D01*
X94614723Y-68600000D01*
X94614733Y-68600000D01*
X94658810Y-68595659D01*
X94715360Y-68578504D01*
X94767477Y-68550647D01*
X94813158Y-68513158D01*
X94822553Y-68501710D01*
X95307398Y-68016865D01*
X95348292Y-68025000D01*
X95451708Y-68025000D01*
X95553137Y-68004824D01*
X95648681Y-67965249D01*
X95734668Y-67907794D01*
X95807794Y-67834668D01*
X95865249Y-67748681D01*
X95904824Y-67653137D01*
X95925000Y-67551708D01*
X95925000Y-67448292D01*
X95904824Y-67346863D01*
X95865249Y-67251319D01*
X95807794Y-67165332D01*
X95734668Y-67092206D01*
X95648681Y-67034751D01*
X95553137Y-66995176D01*
X95451708Y-66975000D01*
X95348292Y-66975000D01*
X95246863Y-66995176D01*
X95151319Y-67034751D01*
X95065332Y-67092206D01*
X94992206Y-67165332D01*
X94934751Y-67251319D01*
X94895176Y-67346863D01*
X94875000Y-67448292D01*
X94875000Y-67551708D01*
X94883135Y-67592602D01*
X94475737Y-68000000D01*
X92414730Y-68000000D01*
X92400000Y-67998549D01*
X92385270Y-68000000D01*
X92385267Y-68000000D01*
X92341190Y-68004341D01*
X92313500Y-68012741D01*
X92327519Y-67995659D01*
X92350647Y-67967478D01*
X92378503Y-67915361D01*
X92378504Y-67915360D01*
X92395659Y-67858810D01*
X92400000Y-67814733D01*
X92400000Y-67814724D01*
X92401450Y-67800001D01*
X92400000Y-67785278D01*
X92400000Y-66830959D01*
X92434668Y-66807794D01*
X92507794Y-66734668D01*
X92565249Y-66648681D01*
X92604824Y-66553137D01*
X92625000Y-66451708D01*
X92625000Y-66348292D01*
X92604824Y-66246863D01*
X92565249Y-66151319D01*
X92507794Y-66065332D01*
X92434668Y-65992206D01*
X92348681Y-65934751D01*
X92253137Y-65895176D01*
X92151708Y-65875000D01*
X92048292Y-65875000D01*
X91946863Y-65895176D01*
X91851319Y-65934751D01*
X91765332Y-65992206D01*
X91700000Y-66057538D01*
X91634668Y-65992206D01*
X91548681Y-65934751D01*
X91453137Y-65895176D01*
X91351708Y-65875000D01*
X91248292Y-65875000D01*
X91146863Y-65895176D01*
X91051319Y-65934751D01*
X90965332Y-65992206D01*
X90892206Y-66065332D01*
X90834751Y-66151319D01*
X90795176Y-66246863D01*
X90775000Y-66348292D01*
X90775000Y-66451708D01*
X90795176Y-66553137D01*
X90834751Y-66648681D01*
X90892206Y-66734668D01*
X90965332Y-66807794D01*
X91000000Y-66830959D01*
X91000001Y-67675735D01*
X90908814Y-67766922D01*
X90904824Y-67746863D01*
X90865249Y-67651319D01*
X90807794Y-67565332D01*
X90734668Y-67492206D01*
X90648681Y-67434751D01*
X90553137Y-67395176D01*
X90451708Y-67375000D01*
X90348292Y-67375000D01*
X90246863Y-67395176D01*
X90151319Y-67434751D01*
X90065332Y-67492206D01*
X89992206Y-67565332D01*
X89934751Y-67651319D01*
X89895176Y-67746863D01*
X89875000Y-67848292D01*
X89875000Y-67951708D01*
X89883134Y-67992602D01*
X86908814Y-70966923D01*
X86904824Y-70946863D01*
X86865249Y-70851319D01*
X86807794Y-70765332D01*
X86742462Y-70700000D01*
X86807794Y-70634668D01*
X86865249Y-70548681D01*
X86904824Y-70453137D01*
X86925000Y-70351708D01*
X86925000Y-70248292D01*
X86904824Y-70146863D01*
X86865249Y-70051319D01*
X86807794Y-69965332D01*
X86734668Y-69892206D01*
X86648681Y-69834751D01*
X86553137Y-69795176D01*
X86451708Y-69775000D01*
X86348292Y-69775000D01*
X86307398Y-69783135D01*
X86222553Y-69698290D01*
X86213158Y-69686842D01*
X86167477Y-69649353D01*
X86115360Y-69621496D01*
X86058810Y-69604341D01*
X86014733Y-69600000D01*
X86014723Y-69600000D01*
X86000000Y-69598550D01*
X85985277Y-69600000D01*
X84524265Y-69600000D01*
X81622553Y-66698290D01*
X81613158Y-66686842D01*
X81567477Y-66649353D01*
X81515360Y-66621496D01*
X81458810Y-66604341D01*
X81414733Y-66600000D01*
X81414723Y-66600000D01*
X81400000Y-66598550D01*
X81385277Y-66600000D01*
X81230959Y-66600000D01*
X81207794Y-66565332D01*
X81134668Y-66492206D01*
X81048681Y-66434751D01*
X80953137Y-66395176D01*
X80851708Y-66375000D01*
X80748292Y-66375000D01*
X80646863Y-66395176D01*
X80551319Y-66434751D01*
X80465332Y-66492206D01*
X80392206Y-66565332D01*
X80334751Y-66651319D01*
X80295176Y-66746863D01*
X80275000Y-66848292D01*
X80275000Y-66951708D01*
X80295176Y-67053137D01*
X80334751Y-67148681D01*
X80392206Y-67234668D01*
X80457538Y-67300000D01*
X80392206Y-67365332D01*
X80334751Y-67451319D01*
X80295176Y-67546863D01*
X80275000Y-67648292D01*
X80275000Y-67751708D01*
X80295176Y-67853137D01*
X80334751Y-67948681D01*
X80392206Y-68034668D01*
X80465332Y-68107794D01*
X80551319Y-68165249D01*
X80646863Y-68204824D01*
X80748292Y-68225000D01*
X80851708Y-68225000D01*
X80953137Y-68204824D01*
X81048681Y-68165249D01*
X81134668Y-68107794D01*
X81207794Y-68034668D01*
X81230959Y-68000000D01*
X81275737Y-68000000D01*
X83977450Y-70701714D01*
X83986842Y-70713158D01*
X83998285Y-70722549D01*
X84032522Y-70750647D01*
X84037181Y-70753137D01*
X84084640Y-70778504D01*
X84141190Y-70795659D01*
X84185267Y-70800000D01*
X84185277Y-70800000D01*
X84200000Y-70801450D01*
X84214723Y-70800000D01*
X85169041Y-70800000D01*
X85134751Y-70851319D01*
X85095176Y-70946863D01*
X85075000Y-71048292D01*
X85075000Y-71151708D01*
X85095176Y-71253137D01*
X85134751Y-71348681D01*
X85192206Y-71434668D01*
X85265332Y-71507794D01*
X85351319Y-71565249D01*
X85446863Y-71604824D01*
X85548292Y-71625000D01*
X85651708Y-71625000D01*
X85692602Y-71616865D01*
X85977451Y-71901715D01*
X85986842Y-71913158D01*
X85998285Y-71922549D01*
X86032522Y-71950647D01*
X86059842Y-71965249D01*
X86084640Y-71978504D01*
X86141190Y-71995659D01*
X86185267Y-72000000D01*
X84724264Y-72000000D01*
X83422553Y-70698290D01*
X83413158Y-70686842D01*
X83367477Y-70649353D01*
X83315360Y-70621496D01*
X83258810Y-70604341D01*
X83214733Y-70600000D01*
X83214723Y-70600000D01*
X83200000Y-70598550D01*
X83185277Y-70600000D01*
X82614722Y-70600000D01*
X82599999Y-70598550D01*
X82585276Y-70600000D01*
X82585267Y-70600000D01*
X82541190Y-70604341D01*
X82484640Y-70621496D01*
X82460379Y-70634464D01*
X82432522Y-70649353D01*
X82398285Y-70677451D01*
X82386842Y-70686842D01*
X82377451Y-70698285D01*
X81998290Y-71077447D01*
X81986842Y-71086842D01*
X81972085Y-71104824D01*
X81949353Y-71132523D01*
X81944721Y-71141190D01*
X81921496Y-71184641D01*
X81904341Y-71241191D01*
X81900000Y-71285268D01*
X81900000Y-71285277D01*
X81898550Y-71300000D01*
X81900000Y-71314723D01*
X81900001Y-72685267D01*
X81898550Y-72700000D01*
X81904342Y-72758810D01*
X81921497Y-72815360D01*
X81949353Y-72867477D01*
X81977451Y-72901714D01*
X81986843Y-72913158D01*
X81998285Y-72922548D01*
X82383135Y-73307398D01*
X82375000Y-73348292D01*
X82375000Y-73451708D01*
X82395176Y-73553137D01*
X82434751Y-73648681D01*
X82492206Y-73734668D01*
X82557538Y-73800000D01*
X81724264Y-73800000D01*
X81100000Y-73175737D01*
X81100000Y-69730959D01*
X81134668Y-69707794D01*
X81207794Y-69634668D01*
X81265249Y-69548681D01*
X81304824Y-69453137D01*
X81325000Y-69351708D01*
X81325000Y-69248292D01*
X81304824Y-69146863D01*
X81265249Y-69051319D01*
X81207794Y-68965332D01*
X81134668Y-68892206D01*
X81048681Y-68834751D01*
X80953137Y-68795176D01*
X80851708Y-68775000D01*
X80748292Y-68775000D01*
X80646863Y-68795176D01*
X80551319Y-68834751D01*
X80465332Y-68892206D01*
X80392206Y-68965332D01*
X80334751Y-69051319D01*
X80295176Y-69146863D01*
X80275000Y-69248292D01*
X80275000Y-69351708D01*
X80295176Y-69453137D01*
X80334751Y-69548681D01*
X80392206Y-69634668D01*
X80465332Y-69707794D01*
X80500001Y-69730959D01*
X80500000Y-73285277D01*
X80498550Y-73300000D01*
X80500000Y-73314723D01*
X80500000Y-73314732D01*
X80504341Y-73358809D01*
X80521496Y-73415359D01*
X80521497Y-73415360D01*
X80549353Y-73467477D01*
X80566358Y-73488198D01*
X80586842Y-73513158D01*
X80598290Y-73522553D01*
X81377451Y-74301715D01*
X81386842Y-74313158D01*
X81398285Y-74322549D01*
X81432522Y-74350647D01*
X81484639Y-74378504D01*
X81497801Y-74382497D01*
X81541190Y-74395659D01*
X81585267Y-74400000D01*
X81585270Y-74400000D01*
X81600000Y-74401451D01*
X81614730Y-74400000D01*
X86585277Y-74400000D01*
X86600000Y-74401450D01*
X86614723Y-74400000D01*
X86614733Y-74400000D01*
X86658810Y-74395659D01*
X86715360Y-74378504D01*
X86767477Y-74350647D01*
X86813158Y-74313158D01*
X86822553Y-74301710D01*
X89213603Y-71910661D01*
X89204341Y-71941191D01*
X89200000Y-71985268D01*
X89200000Y-71985277D01*
X89198550Y-72000000D01*
X89200000Y-72014723D01*
X89200001Y-77575735D01*
X87198290Y-79577447D01*
X87186842Y-79586842D01*
X87176045Y-79599999D01*
X87149353Y-79632523D01*
X87142877Y-79644639D01*
X87121496Y-79684641D01*
X87104341Y-79741191D01*
X87100000Y-79785268D01*
X87100000Y-79785277D01*
X87098550Y-79800000D01*
X87100000Y-79814723D01*
X87100001Y-80973279D01*
X87044034Y-80838164D01*
X86937332Y-80678473D01*
X86801527Y-80542668D01*
X86641836Y-80435966D01*
X86464397Y-80362468D01*
X86276029Y-80325000D01*
X86083971Y-80325000D01*
X85895603Y-80362468D01*
X85718164Y-80435966D01*
X85558473Y-80542668D01*
X85422668Y-80678473D01*
X85315966Y-80838164D01*
X85242468Y-81015603D01*
X85205000Y-81203971D01*
X85205000Y-81396029D01*
X85242468Y-81584397D01*
X85315966Y-81761836D01*
X85422668Y-81921527D01*
X85558473Y-82057332D01*
X85718164Y-82164034D01*
X85895603Y-82237532D01*
X86083971Y-82275000D01*
X86276029Y-82275000D01*
X86464397Y-82237532D01*
X86641836Y-82164034D01*
X86801527Y-82057332D01*
X86937332Y-81921527D01*
X87044034Y-81761836D01*
X87100001Y-81626721D01*
X87100001Y-81885267D01*
X87098550Y-81900000D01*
X87104342Y-81958810D01*
X87121497Y-82015360D01*
X87149353Y-82067477D01*
X87177451Y-82101714D01*
X87186843Y-82113158D01*
X87198285Y-82122548D01*
X88577451Y-83501715D01*
X88586842Y-83513158D01*
X88598285Y-83522549D01*
X88632522Y-83550647D01*
X88660379Y-83565536D01*
X88684640Y-83578504D01*
X88741190Y-83595659D01*
X88785267Y-83600000D01*
X88785277Y-83600000D01*
X88800000Y-83601450D01*
X88814723Y-83600000D01*
X94325277Y-83600000D01*
X94340000Y-83601450D01*
X94354723Y-83600000D01*
X94354733Y-83600000D01*
X94398810Y-83595659D01*
X94455360Y-83578504D01*
X94507477Y-83550647D01*
X94553158Y-83513158D01*
X94562553Y-83501710D01*
X95893767Y-82170497D01*
X96055603Y-82237532D01*
X96243971Y-82275000D01*
X96436029Y-82275000D01*
X96624397Y-82237532D01*
X96801836Y-82164034D01*
X96961527Y-82057332D01*
X97097332Y-81921527D01*
X97204034Y-81761836D01*
X97277532Y-81584397D01*
X97315000Y-81396029D01*
X97315000Y-81203971D01*
X97905000Y-81203971D01*
X97905000Y-81396029D01*
X97942468Y-81584397D01*
X98015966Y-81761836D01*
X98122668Y-81921527D01*
X98258473Y-82057332D01*
X98418164Y-82164034D01*
X98595603Y-82237532D01*
X98783971Y-82275000D01*
X98976029Y-82275000D01*
X99164397Y-82237532D01*
X99341836Y-82164034D01*
X99501527Y-82057332D01*
X99637332Y-81921527D01*
X99744034Y-81761836D01*
X99817532Y-81584397D01*
X99855000Y-81396029D01*
X99855000Y-81203971D01*
X99817532Y-81015603D01*
X99744034Y-80838164D01*
X99637332Y-80678473D01*
X99501527Y-80542668D01*
X99341836Y-80435966D01*
X99164397Y-80362468D01*
X98976029Y-80325000D01*
X98783971Y-80325000D01*
X98595603Y-80362468D01*
X98418164Y-80435966D01*
X98258473Y-80542668D01*
X98122668Y-80678473D01*
X98015966Y-80838164D01*
X97942468Y-81015603D01*
X97905000Y-81203971D01*
X97315000Y-81203971D01*
X97277532Y-81015603D01*
X97204034Y-80838164D01*
X97097332Y-80678473D01*
X96961527Y-80542668D01*
X96801836Y-80435966D01*
X96624397Y-80362468D01*
X96436029Y-80325000D01*
X96243971Y-80325000D01*
X96055603Y-80362468D01*
X95878164Y-80435966D01*
X95718473Y-80542668D01*
X95582668Y-80678473D01*
X95475966Y-80838164D01*
X95402468Y-81015603D01*
X95365000Y-81203971D01*
X95365000Y-81396029D01*
X95402468Y-81584397D01*
X95469503Y-81746233D01*
X94215737Y-83000000D01*
X91914733Y-83000000D01*
X91958810Y-82995659D01*
X92015360Y-82978504D01*
X92067477Y-82950647D01*
X92113158Y-82913158D01*
X92122553Y-82901710D01*
X92801715Y-82222549D01*
X92813158Y-82213158D01*
X92827519Y-82195659D01*
X92850647Y-82167478D01*
X92878503Y-82115361D01*
X92878504Y-82115360D01*
X92895659Y-82058810D01*
X92900000Y-82014733D01*
X92900000Y-82014721D01*
X92901450Y-82000001D01*
X92900000Y-81985281D01*
X92900000Y-81675007D01*
X92935966Y-81761836D01*
X93042668Y-81921527D01*
X93178473Y-82057332D01*
X93338164Y-82164034D01*
X93515603Y-82237532D01*
X93703971Y-82275000D01*
X93896029Y-82275000D01*
X94084397Y-82237532D01*
X94261836Y-82164034D01*
X94421527Y-82057332D01*
X94557332Y-81921527D01*
X94664034Y-81761836D01*
X94737532Y-81584397D01*
X94775000Y-81396029D01*
X94775000Y-81203971D01*
X94737532Y-81015603D01*
X94664034Y-80838164D01*
X94557332Y-80678473D01*
X94421527Y-80542668D01*
X94261836Y-80435966D01*
X94084397Y-80362468D01*
X93962482Y-80338218D01*
X92100000Y-78475737D01*
X92100000Y-74748292D01*
X93175000Y-74748292D01*
X93175000Y-74851708D01*
X93195176Y-74953137D01*
X93234751Y-75048681D01*
X93292206Y-75134668D01*
X93365332Y-75207794D01*
X93400000Y-75230959D01*
X93400001Y-78685267D01*
X93398550Y-78700000D01*
X93404342Y-78758810D01*
X93421497Y-78815360D01*
X93449353Y-78867477D01*
X93477235Y-78901451D01*
X93486843Y-78913158D01*
X93498285Y-78922548D01*
X94083134Y-79507398D01*
X94075000Y-79548292D01*
X94075000Y-79651708D01*
X94095176Y-79753137D01*
X94134751Y-79848681D01*
X94192206Y-79934668D01*
X94265332Y-80007794D01*
X94351319Y-80065249D01*
X94446863Y-80104824D01*
X94548292Y-80125000D01*
X94651708Y-80125000D01*
X94753137Y-80104824D01*
X94848681Y-80065249D01*
X94934668Y-80007794D01*
X95007794Y-79934668D01*
X95065249Y-79848681D01*
X95100000Y-79764783D01*
X95134751Y-79848681D01*
X95192206Y-79934668D01*
X95265332Y-80007794D01*
X95351319Y-80065249D01*
X95446863Y-80104824D01*
X95548292Y-80125000D01*
X95651708Y-80125000D01*
X95753137Y-80104824D01*
X95848681Y-80065249D01*
X95934668Y-80007794D01*
X96007794Y-79934668D01*
X96065249Y-79848681D01*
X96104824Y-79753137D01*
X96125000Y-79651708D01*
X96125000Y-79548292D01*
X96104824Y-79446863D01*
X96065249Y-79351319D01*
X96007794Y-79265332D01*
X95934668Y-79192206D01*
X95848681Y-79134751D01*
X95753137Y-79095176D01*
X95651708Y-79075000D01*
X95548292Y-79075000D01*
X95507398Y-79083134D01*
X94800000Y-78375737D01*
X94800000Y-75230959D01*
X94834668Y-75207794D01*
X94907794Y-75134668D01*
X94965249Y-75048681D01*
X95004824Y-74953137D01*
X95025000Y-74851708D01*
X95025000Y-74748292D01*
X95004824Y-74646863D01*
X94965249Y-74551319D01*
X94907794Y-74465332D01*
X94834668Y-74392206D01*
X94748681Y-74334751D01*
X94653137Y-74295176D01*
X94551708Y-74275000D01*
X94448292Y-74275000D01*
X94346863Y-74295176D01*
X94251319Y-74334751D01*
X94165332Y-74392206D01*
X94100000Y-74457538D01*
X94034668Y-74392206D01*
X93948681Y-74334751D01*
X93853137Y-74295176D01*
X93751708Y-74275000D01*
X93648292Y-74275000D01*
X93546863Y-74295176D01*
X93451319Y-74334751D01*
X93365332Y-74392206D01*
X93292206Y-74465332D01*
X93234751Y-74551319D01*
X93195176Y-74646863D01*
X93175000Y-74748292D01*
X92100000Y-74748292D01*
X92100000Y-71264775D01*
X92134751Y-71348673D01*
X92192206Y-71434660D01*
X92265332Y-71507786D01*
X92351319Y-71565241D01*
X92446863Y-71604816D01*
X92548292Y-71624992D01*
X92651708Y-71624992D01*
X92753137Y-71604816D01*
X92848681Y-71565241D01*
X92934668Y-71507786D01*
X93007794Y-71434660D01*
X93030959Y-71399992D01*
X96585285Y-71399992D01*
X96600008Y-71401442D01*
X96614731Y-71399992D01*
X96614741Y-71399992D01*
X96658818Y-71395651D01*
X96715368Y-71378496D01*
X96767485Y-71350639D01*
X96813166Y-71313150D01*
X96822561Y-71301702D01*
X97475000Y-70649264D01*
X97475000Y-70751708D01*
X97495176Y-70853137D01*
X97534751Y-70948681D01*
X97592206Y-71034668D01*
X97657538Y-71100000D01*
X97592206Y-71165332D01*
X97534751Y-71251319D01*
X97495176Y-71346863D01*
X97475000Y-71448292D01*
X97475000Y-71551708D01*
X97495176Y-71653137D01*
X97534751Y-71748681D01*
X97592206Y-71834668D01*
X97657538Y-71900000D01*
X97592206Y-71965332D01*
X97534751Y-72051319D01*
X97495176Y-72146863D01*
X97475000Y-72248292D01*
X97475000Y-72351708D01*
X97495176Y-72453137D01*
X97534751Y-72548681D01*
X97592206Y-72634668D01*
X97665332Y-72707794D01*
X97751319Y-72765249D01*
X97846863Y-72804824D01*
X97948292Y-72825000D01*
X98051708Y-72825000D01*
X98092602Y-72816866D01*
X98177450Y-72901714D01*
X98186842Y-72913158D01*
X98198285Y-72922549D01*
X98232522Y-72950647D01*
X98247795Y-72958810D01*
X98284640Y-72978504D01*
X98341190Y-72995659D01*
X98385267Y-73000000D01*
X98385276Y-73000000D01*
X98399999Y-73001450D01*
X98414722Y-73000000D01*
X100969041Y-73000000D01*
X100934751Y-73051319D01*
X100895176Y-73146863D01*
X100875000Y-73248292D01*
X100875000Y-73351708D01*
X100895176Y-73453137D01*
X100934751Y-73548681D01*
X100992206Y-73634668D01*
X101065332Y-73707794D01*
X101100000Y-73730959D01*
X101100001Y-80377215D01*
X100958164Y-80435966D01*
X100798473Y-80542668D01*
X100662668Y-80678473D01*
X100555966Y-80838164D01*
X100482468Y-81015603D01*
X100445000Y-81203971D01*
X100445000Y-81396029D01*
X100482468Y-81584397D01*
X100555966Y-81761836D01*
X100662668Y-81921527D01*
X100798473Y-82057332D01*
X100958164Y-82164034D01*
X101135603Y-82237532D01*
X101323971Y-82275000D01*
X101516029Y-82275000D01*
X101704397Y-82237532D01*
X101881836Y-82164034D01*
X102041527Y-82057332D01*
X102177332Y-81921527D01*
X102284034Y-81761836D01*
X102357532Y-81584397D01*
X102395000Y-81396029D01*
X102395000Y-81203971D01*
X102357532Y-81015603D01*
X102284034Y-80838164D01*
X102177332Y-80678473D01*
X102041527Y-80542668D01*
X101881836Y-80435966D01*
X101704397Y-80362468D01*
X101700000Y-80361593D01*
X101700000Y-73730959D01*
X101734668Y-73707794D01*
X101807794Y-73634668D01*
X101865249Y-73548681D01*
X101904824Y-73453137D01*
X101925000Y-73351708D01*
X101925000Y-73248292D01*
X101904824Y-73146863D01*
X101865249Y-73051319D01*
X101830959Y-73000000D01*
X102575737Y-73000000D01*
X103748285Y-74172549D01*
X103748289Y-74172552D01*
X103798286Y-74222550D01*
X103798291Y-74222554D01*
X104777450Y-75201714D01*
X104786842Y-75213158D01*
X104798285Y-75222549D01*
X104832522Y-75250647D01*
X104859842Y-75265249D01*
X104884640Y-75278504D01*
X104941190Y-75295659D01*
X104985267Y-75300000D01*
X104985276Y-75300000D01*
X104999999Y-75301450D01*
X105014722Y-75300000D01*
X112375737Y-75300000D01*
X113773912Y-76698176D01*
X113773912Y-78500000D01*
X113778256Y-78544108D01*
X113791122Y-78586520D01*
X113812015Y-78625608D01*
X113840132Y-78659868D01*
X113874392Y-78687985D01*
X113913480Y-78708878D01*
X113955892Y-78721744D01*
X114000000Y-78726088D01*
X116000000Y-78726088D01*
X116044108Y-78721744D01*
X116086520Y-78708878D01*
X116125608Y-78687985D01*
X116159868Y-78659868D01*
X116187985Y-78625608D01*
X116208878Y-78586520D01*
X116221744Y-78544108D01*
X116226088Y-78500000D01*
X116226088Y-76500000D01*
X116221744Y-76455892D01*
X116208878Y-76413480D01*
X116187985Y-76374392D01*
X116159868Y-76340132D01*
X116125608Y-76312015D01*
X116086520Y-76291122D01*
X116044108Y-76278256D01*
X116000000Y-76273912D01*
X114198176Y-76273912D01*
X112722553Y-74798290D01*
X112713158Y-74786842D01*
X112667477Y-74749353D01*
X112615360Y-74721496D01*
X112558810Y-74704341D01*
X112514733Y-74700000D01*
X112514723Y-74700000D01*
X112500000Y-74698550D01*
X112485277Y-74700000D01*
X105124264Y-74700000D01*
X104222554Y-73798291D01*
X104222550Y-73798286D01*
X104172552Y-73748289D01*
X104172549Y-73748285D01*
X102922553Y-72498290D01*
X102913158Y-72486842D01*
X102867477Y-72449353D01*
X102815360Y-72421496D01*
X102758810Y-72404341D01*
X102714733Y-72400000D01*
X102714723Y-72400000D01*
X102700000Y-72398550D01*
X102685277Y-72400000D01*
X98524264Y-72400000D01*
X98516866Y-72392602D01*
X98525000Y-72351708D01*
X98525000Y-72300000D01*
X102875737Y-72300000D01*
X104777451Y-74201715D01*
X104786842Y-74213158D01*
X104798285Y-74222549D01*
X104832522Y-74250647D01*
X104860379Y-74265536D01*
X104884640Y-74278504D01*
X104941190Y-74295659D01*
X104985267Y-74300000D01*
X104985276Y-74300000D01*
X104999999Y-74301450D01*
X105014722Y-74300000D01*
X113730043Y-74300000D01*
X113741122Y-74336520D01*
X113762015Y-74375608D01*
X113790132Y-74409868D01*
X113824392Y-74437985D01*
X113863480Y-74458878D01*
X113905892Y-74471744D01*
X113950000Y-74476088D01*
X115950000Y-74476088D01*
X115994108Y-74471744D01*
X116036520Y-74458878D01*
X116075608Y-74437985D01*
X116109868Y-74409868D01*
X116137985Y-74375608D01*
X116158878Y-74336520D01*
X116171744Y-74294108D01*
X116176088Y-74250000D01*
X116176088Y-72250000D01*
X116171744Y-72205892D01*
X116158878Y-72163480D01*
X116137985Y-72124392D01*
X116109868Y-72090132D01*
X116075608Y-72062015D01*
X116036520Y-72041122D01*
X115994108Y-72028256D01*
X115950000Y-72023912D01*
X113950000Y-72023912D01*
X113905892Y-72028256D01*
X113863480Y-72041122D01*
X113824392Y-72062015D01*
X113790132Y-72090132D01*
X113762015Y-72124392D01*
X113741122Y-72163480D01*
X113728256Y-72205892D01*
X113723912Y-72250000D01*
X113723912Y-73700000D01*
X105124264Y-73700000D01*
X103222553Y-71798290D01*
X103213158Y-71786842D01*
X103167477Y-71749353D01*
X103115360Y-71721496D01*
X103058810Y-71704341D01*
X103014733Y-71700000D01*
X103014723Y-71700000D01*
X103000000Y-71698550D01*
X102985277Y-71700000D01*
X98624264Y-71700000D01*
X98516865Y-71592602D01*
X98525000Y-71551708D01*
X98525000Y-71500000D01*
X112685277Y-71500000D01*
X112700000Y-71501450D01*
X112714723Y-71500000D01*
X112714733Y-71500000D01*
X112758810Y-71495659D01*
X112815360Y-71478504D01*
X112867477Y-71450647D01*
X112913158Y-71413158D01*
X112922553Y-71401710D01*
X114148176Y-70176088D01*
X115950000Y-70176088D01*
X115994108Y-70171744D01*
X116036520Y-70158878D01*
X116075608Y-70137985D01*
X116109868Y-70109868D01*
X116137985Y-70075608D01*
X116158878Y-70036520D01*
X116171744Y-69994108D01*
X116176088Y-69950000D01*
X116176088Y-67950000D01*
X116171744Y-67905892D01*
X116158878Y-67863480D01*
X116137985Y-67824392D01*
X116109868Y-67790132D01*
X116075608Y-67762015D01*
X116036520Y-67741122D01*
X115994108Y-67728256D01*
X115950000Y-67723912D01*
X113950000Y-67723912D01*
X113905892Y-67728256D01*
X113863480Y-67741122D01*
X113824392Y-67762015D01*
X113790132Y-67790132D01*
X113762015Y-67824392D01*
X113741122Y-67863480D01*
X113728256Y-67905892D01*
X113723912Y-67950000D01*
X113723912Y-69751824D01*
X112575737Y-70900000D01*
X109330959Y-70900000D01*
X109365249Y-70848681D01*
X109404824Y-70753137D01*
X109425000Y-70651708D01*
X109425000Y-70548292D01*
X109404824Y-70446863D01*
X109365249Y-70351319D01*
X109307794Y-70265332D01*
X109234668Y-70192206D01*
X109148681Y-70134751D01*
X109053137Y-70095176D01*
X108951708Y-70075000D01*
X108848292Y-70075000D01*
X108746863Y-70095176D01*
X108651319Y-70134751D01*
X108565332Y-70192206D01*
X108492206Y-70265332D01*
X108469041Y-70300000D01*
X101524264Y-70300000D01*
X101416865Y-70192602D01*
X101425000Y-70151708D01*
X101425000Y-70048292D01*
X101404824Y-69946863D01*
X101365249Y-69851319D01*
X101307794Y-69765332D01*
X101234668Y-69692206D01*
X101148681Y-69634751D01*
X101053137Y-69595176D01*
X100951708Y-69575000D01*
X100848292Y-69575000D01*
X100746863Y-69595176D01*
X100651319Y-69634751D01*
X100565332Y-69692206D01*
X100492206Y-69765332D01*
X100469041Y-69800000D01*
X97724263Y-69800000D01*
X98324264Y-69200000D01*
X105985277Y-69200000D01*
X106000000Y-69201450D01*
X106014723Y-69200000D01*
X106014733Y-69200000D01*
X106058810Y-69195659D01*
X106115360Y-69178504D01*
X106167477Y-69150647D01*
X106213158Y-69113158D01*
X106222553Y-69101710D01*
X107401716Y-67922547D01*
X107413158Y-67913158D01*
X107430353Y-67892206D01*
X107450647Y-67867478D01*
X107478503Y-67815361D01*
X107478504Y-67815360D01*
X107495659Y-67758810D01*
X107500000Y-67714733D01*
X107500000Y-67714724D01*
X107501450Y-67700001D01*
X107500000Y-67685278D01*
X107500000Y-65874263D01*
X107617249Y-65757014D01*
X107605000Y-65818594D01*
X107605000Y-65961406D01*
X107632861Y-66101475D01*
X107687513Y-66233416D01*
X107766856Y-66352161D01*
X107867839Y-66453144D01*
X107986584Y-66532487D01*
X108118525Y-66587139D01*
X108258594Y-66615000D01*
X108401406Y-66615000D01*
X108541475Y-66587139D01*
X108673416Y-66532487D01*
X108792161Y-66453144D01*
X108873912Y-66371393D01*
X108873912Y-66390000D01*
X108878256Y-66434108D01*
X108891122Y-66476520D01*
X108912015Y-66515608D01*
X108940132Y-66549868D01*
X108974392Y-66577985D01*
X109013480Y-66598878D01*
X109055892Y-66611744D01*
X109100000Y-66616088D01*
X110100000Y-66616088D01*
X110144108Y-66611744D01*
X110186520Y-66598878D01*
X110225608Y-66577985D01*
X110259868Y-66549868D01*
X110287985Y-66515608D01*
X110308878Y-66476520D01*
X110321744Y-66434108D01*
X110326088Y-66390000D01*
X110326088Y-65390000D01*
X110321744Y-65345892D01*
X110308878Y-65303480D01*
X110287985Y-65264392D01*
X110259868Y-65230132D01*
X110225608Y-65202015D01*
X110186520Y-65181122D01*
X110144108Y-65168256D01*
X110100000Y-65163912D01*
X110074344Y-65163912D01*
X110116829Y-65128461D01*
X110206094Y-65017863D01*
X110267524Y-64902907D01*
X110245447Y-64795000D01*
X109775000Y-64795000D01*
X109775000Y-64815000D01*
X109425000Y-64815000D01*
X109425000Y-64795000D01*
X109405000Y-64795000D01*
X109405000Y-64445000D01*
X109425000Y-64445000D01*
X109425000Y-64425000D01*
X109775000Y-64425000D01*
X109775000Y-64445000D01*
X110245447Y-64445000D01*
X110267524Y-64337093D01*
X110207624Y-64225000D01*
X117925000Y-64225000D01*
X117925000Y-121225000D01*
X62075000Y-121225000D01*
X62075000Y-117500000D01*
X78773912Y-117500000D01*
X78773912Y-118500000D01*
X78787864Y-118641653D01*
X78829182Y-118777862D01*
X78896280Y-118903393D01*
X78986578Y-119013422D01*
X79096607Y-119103720D01*
X79222138Y-119170818D01*
X79358347Y-119212136D01*
X79500000Y-119226088D01*
X81500000Y-119226088D01*
X81641653Y-119212136D01*
X81777862Y-119170818D01*
X81903393Y-119103720D01*
X82013422Y-119013422D01*
X82103720Y-118903393D01*
X82170818Y-118777862D01*
X82212136Y-118641653D01*
X82226088Y-118500000D01*
X82226088Y-117500000D01*
X85773912Y-117500000D01*
X85773912Y-118500000D01*
X85787864Y-118641653D01*
X85829182Y-118777862D01*
X85896280Y-118903393D01*
X85986578Y-119013422D01*
X86096607Y-119103720D01*
X86222138Y-119170818D01*
X86358347Y-119212136D01*
X86500000Y-119226088D01*
X88500000Y-119226088D01*
X88641653Y-119212136D01*
X88777862Y-119170818D01*
X88903393Y-119103720D01*
X89013422Y-119013422D01*
X89103720Y-118903393D01*
X89170818Y-118777862D01*
X89212136Y-118641653D01*
X89226088Y-118500000D01*
X89226088Y-118300000D01*
X89339529Y-118300000D01*
X89357513Y-118343416D01*
X89436856Y-118462161D01*
X89537839Y-118563144D01*
X89656584Y-118642487D01*
X89788525Y-118697139D01*
X89928594Y-118725000D01*
X90071406Y-118725000D01*
X90211475Y-118697139D01*
X90343416Y-118642487D01*
X90462161Y-118563144D01*
X90563144Y-118462161D01*
X90642487Y-118343416D01*
X90660471Y-118300000D01*
X90773912Y-118300000D01*
X90773912Y-118500000D01*
X90787864Y-118641653D01*
X90829182Y-118777862D01*
X90896280Y-118903393D01*
X90986578Y-119013422D01*
X91096607Y-119103720D01*
X91222138Y-119170818D01*
X91358347Y-119212136D01*
X91500000Y-119226088D01*
X93500000Y-119226088D01*
X93641653Y-119212136D01*
X93777862Y-119170818D01*
X93903393Y-119103720D01*
X94013422Y-119013422D01*
X94103720Y-118903393D01*
X94170818Y-118777862D01*
X94212136Y-118641653D01*
X94226088Y-118500000D01*
X94226088Y-117500000D01*
X94212136Y-117358347D01*
X94170818Y-117222138D01*
X94103720Y-117096607D01*
X94013422Y-116986578D01*
X93903393Y-116896280D01*
X93777862Y-116829182D01*
X93641653Y-116787864D01*
X93500000Y-116773912D01*
X91500000Y-116773912D01*
X91358347Y-116787864D01*
X91222138Y-116829182D01*
X91096607Y-116896280D01*
X90986578Y-116986578D01*
X90896280Y-117096607D01*
X90829182Y-117222138D01*
X90787864Y-117358347D01*
X90773912Y-117500000D01*
X90773912Y-117700000D01*
X90660471Y-117700000D01*
X90642487Y-117656584D01*
X90563144Y-117537839D01*
X90462161Y-117436856D01*
X90343416Y-117357513D01*
X90211475Y-117302861D01*
X90071406Y-117275000D01*
X89928594Y-117275000D01*
X89788525Y-117302861D01*
X89656584Y-117357513D01*
X89537839Y-117436856D01*
X89436856Y-117537839D01*
X89357513Y-117656584D01*
X89339529Y-117700000D01*
X89226088Y-117700000D01*
X89226088Y-117500000D01*
X89212136Y-117358347D01*
X89170818Y-117222138D01*
X89103720Y-117096607D01*
X89013422Y-116986578D01*
X88903393Y-116896280D01*
X88777862Y-116829182D01*
X88641653Y-116787864D01*
X88500000Y-116773912D01*
X86500000Y-116773912D01*
X86358347Y-116787864D01*
X86222138Y-116829182D01*
X86096607Y-116896280D01*
X85986578Y-116986578D01*
X85896280Y-117096607D01*
X85829182Y-117222138D01*
X85787864Y-117358347D01*
X85773912Y-117500000D01*
X82226088Y-117500000D01*
X82212136Y-117358347D01*
X82170818Y-117222138D01*
X82103720Y-117096607D01*
X82013422Y-116986578D01*
X81971824Y-116952439D01*
X92907398Y-106016866D01*
X92948292Y-106025000D01*
X93051708Y-106025000D01*
X93153137Y-106004824D01*
X93248681Y-105965249D01*
X93334668Y-105907794D01*
X93407794Y-105834668D01*
X93465249Y-105748681D01*
X93504824Y-105653137D01*
X93508814Y-105633077D01*
X99200000Y-111324264D01*
X99200001Y-116773912D01*
X98500000Y-116773912D01*
X98358347Y-116787864D01*
X98222138Y-116829182D01*
X98096607Y-116896280D01*
X97986578Y-116986578D01*
X97896280Y-117096607D01*
X97829182Y-117222138D01*
X97787864Y-117358347D01*
X97773912Y-117500000D01*
X97773912Y-118500000D01*
X97787864Y-118641653D01*
X97829182Y-118777862D01*
X97896280Y-118903393D01*
X97986578Y-119013422D01*
X98096607Y-119103720D01*
X98222138Y-119170818D01*
X98358347Y-119212136D01*
X98500000Y-119226088D01*
X100500000Y-119226088D01*
X100641653Y-119212136D01*
X100777862Y-119170818D01*
X100903393Y-119103720D01*
X101013422Y-119013422D01*
X101103720Y-118903393D01*
X101170818Y-118777862D01*
X101212136Y-118641653D01*
X101226088Y-118500000D01*
X101226088Y-117500000D01*
X101212136Y-117358347D01*
X101170818Y-117222138D01*
X101103720Y-117096607D01*
X101013422Y-116986578D01*
X100903393Y-116896280D01*
X100777862Y-116829182D01*
X100641653Y-116787864D01*
X100500000Y-116773912D01*
X99800000Y-116773912D01*
X99800000Y-111214722D01*
X99801450Y-111199999D01*
X99800000Y-111185276D01*
X99800000Y-111185267D01*
X99795659Y-111141190D01*
X99778504Y-111084640D01*
X99750648Y-111032524D01*
X99750647Y-111032522D01*
X99722549Y-110998285D01*
X99713158Y-110986842D01*
X99701717Y-110977453D01*
X95328235Y-106603971D01*
X97905000Y-106603971D01*
X97905000Y-106796029D01*
X97942468Y-106984397D01*
X98015966Y-107161836D01*
X98122668Y-107321527D01*
X98258473Y-107457332D01*
X98418164Y-107564034D01*
X98595603Y-107637532D01*
X98783971Y-107675000D01*
X98976029Y-107675000D01*
X99164397Y-107637532D01*
X99341836Y-107564034D01*
X99501527Y-107457332D01*
X99637332Y-107321527D01*
X99744034Y-107161836D01*
X99817532Y-106984397D01*
X99855000Y-106796029D01*
X99855000Y-106603971D01*
X99817532Y-106415603D01*
X99744034Y-106238164D01*
X99637332Y-106078473D01*
X99508859Y-105950000D01*
X100443912Y-105950000D01*
X100443912Y-107450000D01*
X100448256Y-107494108D01*
X100461122Y-107536520D01*
X100482015Y-107575608D01*
X100510132Y-107609868D01*
X100544392Y-107637985D01*
X100583480Y-107658878D01*
X100625892Y-107671744D01*
X100670000Y-107676088D01*
X102170000Y-107676088D01*
X102214108Y-107671744D01*
X102256520Y-107658878D01*
X102295608Y-107637985D01*
X102329868Y-107609868D01*
X102357985Y-107575608D01*
X102378878Y-107536520D01*
X102391744Y-107494108D01*
X102396088Y-107450000D01*
X102396088Y-107000000D01*
X111073911Y-107000000D01*
X111078255Y-107044108D01*
X111091121Y-107086521D01*
X111112014Y-107125608D01*
X111140131Y-107159869D01*
X111174392Y-107187986D01*
X111213479Y-107208879D01*
X111255892Y-107221745D01*
X111300000Y-107226089D01*
X113068750Y-107225000D01*
X113125000Y-107168750D01*
X113125000Y-105175000D01*
X113475000Y-105175000D01*
X113475000Y-107168750D01*
X113531250Y-107225000D01*
X115300000Y-107226089D01*
X115344108Y-107221745D01*
X115386521Y-107208879D01*
X115425608Y-107187986D01*
X115459869Y-107159869D01*
X115487986Y-107125608D01*
X115508879Y-107086521D01*
X115521745Y-107044108D01*
X115526089Y-107000000D01*
X115525000Y-105231250D01*
X115468750Y-105175000D01*
X113475000Y-105175000D01*
X113125000Y-105175000D01*
X111131250Y-105175000D01*
X111075000Y-105231250D01*
X111073911Y-107000000D01*
X102396088Y-107000000D01*
X102396088Y-105950000D01*
X102391744Y-105905892D01*
X102378878Y-105863480D01*
X102357985Y-105824392D01*
X102329868Y-105790132D01*
X102295608Y-105762015D01*
X102256520Y-105741122D01*
X102214108Y-105728256D01*
X102170000Y-105723912D01*
X100670000Y-105723912D01*
X100625892Y-105728256D01*
X100583480Y-105741122D01*
X100544392Y-105762015D01*
X100510132Y-105790132D01*
X100482015Y-105824392D01*
X100461122Y-105863480D01*
X100448256Y-105905892D01*
X100443912Y-105950000D01*
X99508859Y-105950000D01*
X99501527Y-105942668D01*
X99341836Y-105835966D01*
X99164397Y-105762468D01*
X98976029Y-105725000D01*
X98783971Y-105725000D01*
X98595603Y-105762468D01*
X98418164Y-105835966D01*
X98258473Y-105942668D01*
X98122668Y-106078473D01*
X98015966Y-106238164D01*
X97942468Y-106415603D01*
X97905000Y-106603971D01*
X95328235Y-106603971D01*
X93516865Y-104792602D01*
X93525000Y-104751708D01*
X93525000Y-104648292D01*
X93504824Y-104546863D01*
X93465249Y-104451319D01*
X93407794Y-104365332D01*
X93334668Y-104292206D01*
X93248681Y-104234751D01*
X93153137Y-104195176D01*
X93051708Y-104175000D01*
X92948292Y-104175000D01*
X92846863Y-104195176D01*
X92751319Y-104234751D01*
X92665332Y-104292206D01*
X92592206Y-104365332D01*
X92534751Y-104451319D01*
X92495176Y-104546863D01*
X92475000Y-104648292D01*
X92475000Y-104751708D01*
X92495176Y-104853137D01*
X92534751Y-104948681D01*
X92592206Y-105034668D01*
X92657538Y-105100000D01*
X92592206Y-105165332D01*
X92534751Y-105251319D01*
X92495176Y-105346863D01*
X92475000Y-105448292D01*
X92475000Y-105551708D01*
X92483134Y-105592602D01*
X81301825Y-116773912D01*
X79500000Y-116773912D01*
X79358347Y-116787864D01*
X79222138Y-116829182D01*
X79096607Y-116896280D01*
X78986578Y-116986578D01*
X78896280Y-117096607D01*
X78829182Y-117222138D01*
X78787864Y-117358347D01*
X78773912Y-117500000D01*
X62075000Y-117500000D01*
X62075000Y-106603971D01*
X77585000Y-106603971D01*
X77585000Y-106796029D01*
X77622468Y-106984397D01*
X77695966Y-107161836D01*
X77802668Y-107321527D01*
X77938473Y-107457332D01*
X78098164Y-107564034D01*
X78275603Y-107637532D01*
X78463971Y-107675000D01*
X78656029Y-107675000D01*
X78844397Y-107637532D01*
X79021836Y-107564034D01*
X79181527Y-107457332D01*
X79317332Y-107321527D01*
X79424034Y-107161836D01*
X79497532Y-106984397D01*
X79535000Y-106796029D01*
X79535000Y-106603971D01*
X80125000Y-106603971D01*
X80125000Y-106796029D01*
X80162468Y-106984397D01*
X80235966Y-107161836D01*
X80342668Y-107321527D01*
X80478473Y-107457332D01*
X80638164Y-107564034D01*
X80815603Y-107637532D01*
X81003971Y-107675000D01*
X81196029Y-107675000D01*
X81384397Y-107637532D01*
X81561836Y-107564034D01*
X81721527Y-107457332D01*
X81857332Y-107321527D01*
X81964034Y-107161836D01*
X82037532Y-106984397D01*
X82075000Y-106796029D01*
X82075000Y-106603971D01*
X82037532Y-106415603D01*
X81964034Y-106238164D01*
X81857332Y-106078473D01*
X81721527Y-105942668D01*
X81561836Y-105835966D01*
X81384397Y-105762468D01*
X81196029Y-105725000D01*
X81003971Y-105725000D01*
X80815603Y-105762468D01*
X80638164Y-105835966D01*
X80478473Y-105942668D01*
X80342668Y-106078473D01*
X80235966Y-106238164D01*
X80162468Y-106415603D01*
X80125000Y-106603971D01*
X79535000Y-106603971D01*
X79497532Y-106415603D01*
X79424034Y-106238164D01*
X79317332Y-106078473D01*
X79181527Y-105942668D01*
X79021836Y-105835966D01*
X78844397Y-105762468D01*
X78656029Y-105725000D01*
X78463971Y-105725000D01*
X78275603Y-105762468D01*
X78098164Y-105835966D01*
X77938473Y-105942668D01*
X77802668Y-106078473D01*
X77695966Y-106238164D01*
X77622468Y-106415603D01*
X77585000Y-106603971D01*
X62075000Y-106603971D01*
X62075000Y-103000000D01*
X111073911Y-103000000D01*
X111075000Y-104768750D01*
X111131250Y-104825000D01*
X113125000Y-104825000D01*
X113125000Y-102831250D01*
X113475000Y-102831250D01*
X113475000Y-104825000D01*
X115468750Y-104825000D01*
X115525000Y-104768750D01*
X115526089Y-103000000D01*
X115521745Y-102955892D01*
X115508879Y-102913479D01*
X115487986Y-102874392D01*
X115459869Y-102840131D01*
X115425608Y-102812014D01*
X115386521Y-102791121D01*
X115344108Y-102778255D01*
X115300000Y-102773911D01*
X113531250Y-102775000D01*
X113475000Y-102831250D01*
X113125000Y-102831250D01*
X113068750Y-102775000D01*
X111300000Y-102773911D01*
X111255892Y-102778255D01*
X111213479Y-102791121D01*
X111174392Y-102812014D01*
X111140131Y-102840131D01*
X111112014Y-102874392D01*
X111091121Y-102913479D01*
X111078255Y-102955892D01*
X111073911Y-103000000D01*
X62075000Y-103000000D01*
X62075000Y-97500000D01*
X111073912Y-97500000D01*
X111073912Y-101500000D01*
X111078256Y-101544108D01*
X111091122Y-101586520D01*
X111112015Y-101625608D01*
X111140132Y-101659868D01*
X111174392Y-101687985D01*
X111213480Y-101708878D01*
X111255892Y-101721744D01*
X111300000Y-101726088D01*
X115300000Y-101726088D01*
X115344108Y-101721744D01*
X115386520Y-101708878D01*
X115425608Y-101687985D01*
X115459868Y-101659868D01*
X115487985Y-101625608D01*
X115508878Y-101586520D01*
X115521744Y-101544108D01*
X115526088Y-101500000D01*
X115526088Y-97500000D01*
X115521744Y-97455892D01*
X115508878Y-97413480D01*
X115487985Y-97374392D01*
X115459868Y-97340132D01*
X115425608Y-97312015D01*
X115386520Y-97291122D01*
X115344108Y-97278256D01*
X115300000Y-97273912D01*
X111300000Y-97273912D01*
X111255892Y-97278256D01*
X111213480Y-97291122D01*
X111174392Y-97312015D01*
X111140132Y-97340132D01*
X111112015Y-97374392D01*
X111091122Y-97413480D01*
X111078256Y-97455892D01*
X111073912Y-97500000D01*
X62075000Y-97500000D01*
X62075000Y-81203971D01*
X77585000Y-81203971D01*
X77585000Y-81396029D01*
X77622468Y-81584397D01*
X77695966Y-81761836D01*
X77802668Y-81921527D01*
X77938473Y-82057332D01*
X78098164Y-82164034D01*
X78275603Y-82237532D01*
X78463971Y-82275000D01*
X78656029Y-82275000D01*
X78844397Y-82237532D01*
X79021836Y-82164034D01*
X79170197Y-82064902D01*
X80582585Y-82064902D01*
X80674975Y-82182724D01*
X80855353Y-82248681D01*
X81045133Y-82278180D01*
X81237021Y-82270089D01*
X81423643Y-82224717D01*
X81525025Y-82182724D01*
X81617415Y-82064902D01*
X83122585Y-82064902D01*
X83214975Y-82182724D01*
X83395353Y-82248681D01*
X83585133Y-82278180D01*
X83777021Y-82270089D01*
X83963643Y-82224717D01*
X84065025Y-82182724D01*
X84157415Y-82064902D01*
X83640000Y-81547487D01*
X83122585Y-82064902D01*
X81617415Y-82064902D01*
X81100000Y-81547487D01*
X80582585Y-82064902D01*
X79170197Y-82064902D01*
X79181527Y-82057332D01*
X79317332Y-81921527D01*
X79424034Y-81761836D01*
X79497532Y-81584397D01*
X79535000Y-81396029D01*
X79535000Y-81245133D01*
X80121820Y-81245133D01*
X80129911Y-81437021D01*
X80175283Y-81623643D01*
X80217276Y-81725025D01*
X80335098Y-81817415D01*
X80852513Y-81300000D01*
X81347487Y-81300000D01*
X81864902Y-81817415D01*
X81982724Y-81725025D01*
X82048681Y-81544647D01*
X82078180Y-81354867D01*
X82073554Y-81245133D01*
X82661820Y-81245133D01*
X82669911Y-81437021D01*
X82715283Y-81623643D01*
X82757276Y-81725025D01*
X82875098Y-81817415D01*
X83392513Y-81300000D01*
X83887487Y-81300000D01*
X84404902Y-81817415D01*
X84522724Y-81725025D01*
X84588681Y-81544647D01*
X84618180Y-81354867D01*
X84610089Y-81162979D01*
X84564717Y-80976357D01*
X84522724Y-80874975D01*
X84404902Y-80782585D01*
X83887487Y-81300000D01*
X83392513Y-81300000D01*
X82875098Y-80782585D01*
X82757276Y-80874975D01*
X82691319Y-81055353D01*
X82661820Y-81245133D01*
X82073554Y-81245133D01*
X82070089Y-81162979D01*
X82024717Y-80976357D01*
X81982724Y-80874975D01*
X81864902Y-80782585D01*
X81347487Y-81300000D01*
X80852513Y-81300000D01*
X80335098Y-80782585D01*
X80217276Y-80874975D01*
X80151319Y-81055353D01*
X80121820Y-81245133D01*
X79535000Y-81245133D01*
X79535000Y-81203971D01*
X79497532Y-81015603D01*
X79424034Y-80838164D01*
X79317332Y-80678473D01*
X79181527Y-80542668D01*
X79170198Y-80535098D01*
X80582585Y-80535098D01*
X81100000Y-81052513D01*
X81617415Y-80535098D01*
X83122585Y-80535098D01*
X83640000Y-81052513D01*
X84157415Y-80535098D01*
X84065025Y-80417276D01*
X83884647Y-80351319D01*
X83694867Y-80321820D01*
X83502979Y-80329911D01*
X83316357Y-80375283D01*
X83214975Y-80417276D01*
X83122585Y-80535098D01*
X81617415Y-80535098D01*
X81525025Y-80417276D01*
X81344647Y-80351319D01*
X81154867Y-80321820D01*
X80962979Y-80329911D01*
X80776357Y-80375283D01*
X80674975Y-80417276D01*
X80582585Y-80535098D01*
X79170198Y-80535098D01*
X79021836Y-80435966D01*
X78844397Y-80362468D01*
X78656029Y-80325000D01*
X78463971Y-80325000D01*
X78275603Y-80362468D01*
X78098164Y-80435966D01*
X77938473Y-80542668D01*
X77802668Y-80678473D01*
X77695966Y-80838164D01*
X77622468Y-81015603D01*
X77585000Y-81203971D01*
X62075000Y-81203971D01*
X62075000Y-63474911D01*
X63450000Y-63473274D01*
X63450001Y-79185257D01*
X63448549Y-79200000D01*
X63454341Y-79258810D01*
X63471496Y-79315360D01*
X63499353Y-79367477D01*
X63536842Y-79413158D01*
X63582523Y-79450647D01*
X63634640Y-79478504D01*
X63691190Y-79495659D01*
X63735267Y-79500000D01*
X63750000Y-79501451D01*
X63764733Y-79500000D01*
X73235267Y-79500000D01*
X73250000Y-79501451D01*
X73264733Y-79500000D01*
X73308810Y-79495659D01*
X73365360Y-79478504D01*
X73417477Y-79450647D01*
X73463158Y-79413158D01*
X73500647Y-79367477D01*
X73528504Y-79315360D01*
X73545659Y-79258810D01*
X73551451Y-79200000D01*
X73550000Y-79185267D01*
X73550000Y-63461250D01*
X75234980Y-63459244D01*
X76027456Y-64251721D01*
X76036842Y-64263158D01*
X76048279Y-64272544D01*
X76048285Y-64272550D01*
X76082522Y-64300647D01*
X76134639Y-64328504D01*
X76147801Y-64332497D01*
X76191190Y-64345659D01*
X76235267Y-64350000D01*
X76235270Y-64350000D01*
X76250000Y-64351451D01*
X76264730Y-64350000D01*
X76419041Y-64350000D01*
X76442206Y-64384668D01*
X76515332Y-64457794D01*
X76601319Y-64515249D01*
X76696863Y-64554824D01*
X76798292Y-64575000D01*
X76901708Y-64575000D01*
X77003137Y-64554824D01*
X77098681Y-64515249D01*
X77100001Y-64514367D01*
X77100000Y-72969041D01*
X77065332Y-72992206D01*
X76992206Y-73065332D01*
X76934751Y-73151319D01*
X76895176Y-73246863D01*
X76875000Y-73348292D01*
X76875000Y-73451708D01*
X76895176Y-73553137D01*
X76934751Y-73648681D01*
X76992206Y-73734668D01*
X77065332Y-73807794D01*
X77151319Y-73865249D01*
X77246863Y-73904824D01*
X77348292Y-73925000D01*
X77451708Y-73925000D01*
X77553137Y-73904824D01*
X77648681Y-73865249D01*
X77734668Y-73807794D01*
X77807794Y-73734668D01*
X77865249Y-73648681D01*
X77904824Y-73553137D01*
X77925000Y-73451708D01*
X77925000Y-73348292D01*
X77904824Y-73246863D01*
X77865249Y-73151319D01*
X77807794Y-73065332D01*
X77734668Y-72992206D01*
X77700000Y-72969041D01*
X77700000Y-71930959D01*
X77751319Y-71965249D01*
X77846863Y-72004824D01*
X77948292Y-72025000D01*
X78051708Y-72025000D01*
X78153137Y-72004824D01*
X78248681Y-71965249D01*
X78334668Y-71907794D01*
X78407794Y-71834668D01*
X78465249Y-71748681D01*
X78504824Y-71653137D01*
X78525000Y-71551708D01*
X78525000Y-71448292D01*
X78504824Y-71346863D01*
X78465249Y-71251319D01*
X78407794Y-71165332D01*
X78334668Y-71092206D01*
X78300000Y-71069041D01*
X78300000Y-65248292D01*
X79875000Y-65248292D01*
X79875000Y-65351708D01*
X79895176Y-65453137D01*
X79934751Y-65548681D01*
X79992206Y-65634668D01*
X80065332Y-65707794D01*
X80151319Y-65765249D01*
X80246863Y-65804824D01*
X80348292Y-65825000D01*
X80451708Y-65825000D01*
X80553137Y-65804824D01*
X80648681Y-65765249D01*
X80734668Y-65707794D01*
X80807794Y-65634668D01*
X80865249Y-65548681D01*
X80904824Y-65453137D01*
X80925000Y-65351708D01*
X80925000Y-65248292D01*
X80904824Y-65146863D01*
X80865249Y-65051319D01*
X80807794Y-64965332D01*
X80734668Y-64892206D01*
X80648681Y-64834751D01*
X80553137Y-64795176D01*
X80451708Y-64775000D01*
X80348292Y-64775000D01*
X80246863Y-64795176D01*
X80151319Y-64834751D01*
X80065332Y-64892206D01*
X79992206Y-64965332D01*
X79934751Y-65051319D01*
X79895176Y-65146863D01*
X79875000Y-65248292D01*
X78300000Y-65248292D01*
X78300000Y-63514722D01*
X78301450Y-63499999D01*
X78300000Y-63485276D01*
X78300000Y-63485267D01*
X78297078Y-63455599D01*
X83000268Y-63450000D01*
X83043895Y-63445677D01*
X83086104Y-63432873D01*
X83125003Y-63412081D01*
X83159099Y-63384099D01*
X83187081Y-63350003D01*
X83207873Y-63311104D01*
X83220677Y-63268895D01*
X83225000Y-63225000D01*
X83225000Y-47325000D01*
X84352337Y-47325000D01*
X84334751Y-47351319D01*
G37*
X84334751Y-47351319D02*
X84295176Y-47446863D01*
X84275000Y-47548292D01*
X84275000Y-47651708D01*
X84295176Y-47753137D01*
X84334751Y-47848681D01*
X84392206Y-47934668D01*
X84457538Y-48000000D01*
X84400000Y-48057538D01*
X84334668Y-47992206D01*
X84248681Y-47934751D01*
X84153137Y-47895176D01*
X84051708Y-47875000D01*
X83948292Y-47875000D01*
X83846863Y-47895176D01*
X83751319Y-47934751D01*
X83665332Y-47992206D01*
X83592206Y-48065332D01*
X83534751Y-48151319D01*
X83495176Y-48246863D01*
X83475000Y-48348292D01*
X83475000Y-48451708D01*
X83495176Y-48553137D01*
X83534751Y-48648681D01*
X83592206Y-48734668D01*
X83665332Y-48807794D01*
X83751319Y-48865249D01*
X83846863Y-48904824D01*
X83948292Y-48925000D01*
X84051708Y-48925000D01*
X84092602Y-48916865D01*
X85275000Y-50099264D01*
X85275000Y-64000000D01*
X85279323Y-64043895D01*
X85292127Y-64086104D01*
X85312919Y-64125003D01*
X85340901Y-64159099D01*
X85374997Y-64187081D01*
X85413896Y-64207873D01*
X85456105Y-64220677D01*
X85500000Y-64225000D01*
X85500000Y-64975735D01*
X84292602Y-66183135D01*
X84251708Y-66175000D01*
X84148292Y-66175000D01*
X84046863Y-66195176D01*
X83951319Y-66234751D01*
X83865332Y-66292206D01*
X83792206Y-66365332D01*
X83734751Y-66451319D01*
X83695176Y-66546863D01*
X83675000Y-66648292D01*
X83675000Y-66751708D01*
X83695176Y-66853137D01*
X83734751Y-66948681D01*
X83792206Y-67034668D01*
X83865332Y-67107794D01*
X83951319Y-67165249D01*
X84046863Y-67204824D01*
X84148292Y-67225000D01*
X84251708Y-67225000D01*
X84353137Y-67204824D01*
X84448681Y-67165249D01*
X84534668Y-67107794D01*
X84607794Y-67034668D01*
X84665249Y-66948681D01*
X84704824Y-66853137D01*
X84725000Y-66751708D01*
X84725000Y-66648292D01*
X84716865Y-66607398D01*
X85900000Y-65424265D01*
X85900000Y-65975736D01*
X85398285Y-66477452D01*
X85386843Y-66486842D01*
X85377452Y-66498285D01*
X85377451Y-66498286D01*
X85349353Y-66532523D01*
X85321497Y-66584640D01*
X85304342Y-66641190D01*
X85298550Y-66700000D01*
X85300001Y-66714733D01*
X85300001Y-67069041D01*
X85265332Y-67092206D01*
X85192206Y-67165332D01*
X85134751Y-67251319D01*
X85095176Y-67346863D01*
X85075000Y-67448292D01*
X85075000Y-67551708D01*
X85095176Y-67653137D01*
X85134751Y-67748681D01*
X85192206Y-67834668D01*
X85265332Y-67907794D01*
X85351319Y-67965249D01*
X85446863Y-68004824D01*
X85548292Y-68025000D01*
X85651708Y-68025000D01*
X85753137Y-68004824D01*
X85848681Y-67965249D01*
X85934668Y-67907794D01*
X86007794Y-67834668D01*
X86065249Y-67748681D01*
X86104824Y-67653137D01*
X86125000Y-67551708D01*
X86125000Y-67448292D01*
X86104824Y-67346863D01*
X86065249Y-67251319D01*
X86007794Y-67165332D01*
X85934668Y-67092206D01*
X85900000Y-67069041D01*
X85900000Y-66864783D01*
X85934751Y-66948681D01*
X85992206Y-67034668D01*
X86065332Y-67107794D01*
X86151319Y-67165249D01*
X86246863Y-67204824D01*
X86348292Y-67225000D01*
X86451708Y-67225000D01*
X86553137Y-67204824D01*
X86648681Y-67165249D01*
X86700000Y-67130959D01*
X86700000Y-67575736D01*
X86492602Y-67783135D01*
X86451708Y-67775000D01*
X86348292Y-67775000D01*
X86246863Y-67795176D01*
X86151319Y-67834751D01*
X86065332Y-67892206D01*
X85992206Y-67965332D01*
X85934751Y-68051319D01*
X85895176Y-68146863D01*
X85875000Y-68248292D01*
X85875000Y-68351708D01*
X85895176Y-68453137D01*
X85934751Y-68548681D01*
X85992206Y-68634668D01*
X86065332Y-68707794D01*
X86151319Y-68765249D01*
X86246863Y-68804824D01*
X86348292Y-68825000D01*
X86451708Y-68825000D01*
X86553137Y-68804824D01*
X86648681Y-68765249D01*
X86734668Y-68707794D01*
X86807794Y-68634668D01*
X86865249Y-68548681D01*
X86904824Y-68453137D01*
X86925000Y-68351708D01*
X86925000Y-68248292D01*
X86916865Y-68207398D01*
X87100000Y-68024264D01*
X87100000Y-68584606D01*
X87046863Y-68595176D01*
X86951319Y-68634751D01*
X86865332Y-68692206D01*
X86792206Y-68765332D01*
X86734751Y-68851319D01*
X86695176Y-68946863D01*
X86675000Y-69048292D01*
X86675000Y-69151708D01*
X86695176Y-69253137D01*
X86734751Y-69348681D01*
X86792206Y-69434668D01*
X86865332Y-69507794D01*
X86951319Y-69565249D01*
X87046863Y-69604824D01*
X87148292Y-69625000D01*
X87251708Y-69625000D01*
X87353137Y-69604824D01*
X87448681Y-69565249D01*
X87534668Y-69507794D01*
X87607794Y-69434668D01*
X87665249Y-69348681D01*
X87704824Y-69253137D01*
X87725000Y-69151708D01*
X87725000Y-69048292D01*
X87704824Y-68946863D01*
X87698370Y-68931282D01*
X87700000Y-68914733D01*
X87700000Y-68914730D01*
X87701451Y-68900000D01*
X87700000Y-68885270D01*
X87700000Y-64225000D01*
X87785746Y-64225000D01*
X87792206Y-64234668D01*
X87865332Y-64307794D01*
X87951319Y-64365249D01*
X88046863Y-64404824D01*
X88148292Y-64425000D01*
X88251708Y-64425000D01*
X88353137Y-64404824D01*
X88448681Y-64365249D01*
X88534668Y-64307794D01*
X88607794Y-64234668D01*
X88614254Y-64225000D01*
X92600737Y-64225000D01*
X93400001Y-65024265D01*
X93400000Y-66169041D01*
X93365332Y-66192206D01*
X93292206Y-66265332D01*
X93234751Y-66351319D01*
X93195176Y-66446863D01*
X93175000Y-66548292D01*
X93175000Y-66651708D01*
X93195176Y-66753137D01*
X93234751Y-66848681D01*
X93292206Y-66934668D01*
X93365332Y-67007794D01*
X93451319Y-67065249D01*
X93546863Y-67104824D01*
X93648292Y-67125000D01*
X93751708Y-67125000D01*
X93853137Y-67104824D01*
X93948681Y-67065249D01*
X94034668Y-67007794D01*
X94107794Y-66934668D01*
X94165249Y-66848681D01*
X94204824Y-66753137D01*
X94225000Y-66651708D01*
X94225000Y-66548292D01*
X94204824Y-66446863D01*
X94165249Y-66351319D01*
X94107794Y-66265332D01*
X94034668Y-66192206D01*
X94000000Y-66169041D01*
X94000000Y-64914730D01*
X94001451Y-64900000D01*
X93999230Y-64877450D01*
X93995659Y-64841190D01*
X93978504Y-64784640D01*
X93952164Y-64735361D01*
X93950647Y-64732522D01*
X93922550Y-64698286D01*
X93922549Y-64698285D01*
X93913158Y-64686842D01*
X93901715Y-64677451D01*
X93449264Y-64225000D01*
X107050736Y-64225000D01*
X106598285Y-64677452D01*
X106586843Y-64686842D01*
X106577452Y-64698285D01*
X106577451Y-64698286D01*
X106549353Y-64732523D01*
X106521497Y-64784640D01*
X106504342Y-64841190D01*
X106498550Y-64900000D01*
X106500001Y-64914733D01*
X106500000Y-67175736D01*
X105475737Y-68200000D01*
X97914730Y-68200000D01*
X97900000Y-68198549D01*
X97885270Y-68200000D01*
X97885267Y-68200000D01*
X97841190Y-68204341D01*
X97784640Y-68221496D01*
X97732522Y-68249353D01*
X97698286Y-68277450D01*
X97686842Y-68286842D01*
X97677451Y-68298285D01*
X96775737Y-69200000D01*
X95830959Y-69200000D01*
X95807794Y-69165332D01*
X95734668Y-69092206D01*
X95648681Y-69034751D01*
X95553137Y-68995176D01*
X95451708Y-68975000D01*
X95348292Y-68975000D01*
X95246863Y-68995176D01*
X95151319Y-69034751D01*
X95065332Y-69092206D01*
X95000000Y-69157538D01*
X94934668Y-69092206D01*
X94848681Y-69034751D01*
X94753137Y-68995176D01*
X94651708Y-68975000D01*
X94548292Y-68975000D01*
X94519216Y-68980784D01*
X94525000Y-68951708D01*
X94525000Y-68848292D01*
X94504824Y-68746863D01*
X94465249Y-68651319D01*
X94430959Y-68600000D01*
X94585277Y-68600000D01*
X94600000Y-68601450D01*
X94614723Y-68600000D01*
X94614733Y-68600000D01*
X94658810Y-68595659D01*
X94715360Y-68578504D01*
X94767477Y-68550647D01*
X94813158Y-68513158D01*
X94822553Y-68501710D01*
X95307398Y-68016865D01*
X95348292Y-68025000D01*
X95451708Y-68025000D01*
X95553137Y-68004824D01*
X95648681Y-67965249D01*
X95734668Y-67907794D01*
X95807794Y-67834668D01*
X95865249Y-67748681D01*
X95904824Y-67653137D01*
X95925000Y-67551708D01*
X95925000Y-67448292D01*
X95904824Y-67346863D01*
X95865249Y-67251319D01*
X95807794Y-67165332D01*
X95734668Y-67092206D01*
X95648681Y-67034751D01*
X95553137Y-66995176D01*
X95451708Y-66975000D01*
X95348292Y-66975000D01*
X95246863Y-66995176D01*
X95151319Y-67034751D01*
X95065332Y-67092206D01*
X94992206Y-67165332D01*
X94934751Y-67251319D01*
X94895176Y-67346863D01*
X94875000Y-67448292D01*
X94875000Y-67551708D01*
X94883135Y-67592602D01*
X94475737Y-68000000D01*
X92414730Y-68000000D01*
X92400000Y-67998549D01*
X92385270Y-68000000D01*
X92385267Y-68000000D01*
X92341190Y-68004341D01*
X92313500Y-68012741D01*
X92327519Y-67995659D01*
X92350647Y-67967478D01*
X92378503Y-67915361D01*
X92378504Y-67915360D01*
X92395659Y-67858810D01*
X92400000Y-67814733D01*
X92400000Y-67814724D01*
X92401450Y-67800001D01*
X92400000Y-67785278D01*
X92400000Y-66830959D01*
X92434668Y-66807794D01*
X92507794Y-66734668D01*
X92565249Y-66648681D01*
X92604824Y-66553137D01*
X92625000Y-66451708D01*
X92625000Y-66348292D01*
X92604824Y-66246863D01*
X92565249Y-66151319D01*
X92507794Y-66065332D01*
X92434668Y-65992206D01*
X92348681Y-65934751D01*
X92253137Y-65895176D01*
X92151708Y-65875000D01*
X92048292Y-65875000D01*
X91946863Y-65895176D01*
X91851319Y-65934751D01*
X91765332Y-65992206D01*
X91700000Y-66057538D01*
X91634668Y-65992206D01*
X91548681Y-65934751D01*
X91453137Y-65895176D01*
X91351708Y-65875000D01*
X91248292Y-65875000D01*
X91146863Y-65895176D01*
X91051319Y-65934751D01*
X90965332Y-65992206D01*
X90892206Y-66065332D01*
X90834751Y-66151319D01*
X90795176Y-66246863D01*
X90775000Y-66348292D01*
X90775000Y-66451708D01*
X90795176Y-66553137D01*
X90834751Y-66648681D01*
X90892206Y-66734668D01*
X90965332Y-66807794D01*
X91000000Y-66830959D01*
X91000001Y-67675735D01*
X90908814Y-67766922D01*
X90904824Y-67746863D01*
X90865249Y-67651319D01*
X90807794Y-67565332D01*
X90734668Y-67492206D01*
X90648681Y-67434751D01*
X90553137Y-67395176D01*
X90451708Y-67375000D01*
X90348292Y-67375000D01*
X90246863Y-67395176D01*
X90151319Y-67434751D01*
X90065332Y-67492206D01*
X89992206Y-67565332D01*
X89934751Y-67651319D01*
X89895176Y-67746863D01*
X89875000Y-67848292D01*
X89875000Y-67951708D01*
X89883134Y-67992602D01*
X86908814Y-70966923D01*
X86904824Y-70946863D01*
X86865249Y-70851319D01*
X86807794Y-70765332D01*
X86742462Y-70700000D01*
X86807794Y-70634668D01*
X86865249Y-70548681D01*
X86904824Y-70453137D01*
X86925000Y-70351708D01*
X86925000Y-70248292D01*
X86904824Y-70146863D01*
X86865249Y-70051319D01*
X86807794Y-69965332D01*
X86734668Y-69892206D01*
X86648681Y-69834751D01*
X86553137Y-69795176D01*
X86451708Y-69775000D01*
X86348292Y-69775000D01*
X86307398Y-69783135D01*
X86222553Y-69698290D01*
X86213158Y-69686842D01*
X86167477Y-69649353D01*
X86115360Y-69621496D01*
X86058810Y-69604341D01*
X86014733Y-69600000D01*
X86014723Y-69600000D01*
X86000000Y-69598550D01*
X85985277Y-69600000D01*
X84524265Y-69600000D01*
X81622553Y-66698290D01*
X81613158Y-66686842D01*
X81567477Y-66649353D01*
X81515360Y-66621496D01*
X81458810Y-66604341D01*
X81414733Y-66600000D01*
X81414723Y-66600000D01*
X81400000Y-66598550D01*
X81385277Y-66600000D01*
X81230959Y-66600000D01*
X81207794Y-66565332D01*
X81134668Y-66492206D01*
X81048681Y-66434751D01*
X80953137Y-66395176D01*
X80851708Y-66375000D01*
X80748292Y-66375000D01*
X80646863Y-66395176D01*
X80551319Y-66434751D01*
X80465332Y-66492206D01*
X80392206Y-66565332D01*
X80334751Y-66651319D01*
X80295176Y-66746863D01*
X80275000Y-66848292D01*
X80275000Y-66951708D01*
X80295176Y-67053137D01*
X80334751Y-67148681D01*
X80392206Y-67234668D01*
X80457538Y-67300000D01*
X80392206Y-67365332D01*
X80334751Y-67451319D01*
X80295176Y-67546863D01*
X80275000Y-67648292D01*
X80275000Y-67751708D01*
X80295176Y-67853137D01*
X80334751Y-67948681D01*
X80392206Y-68034668D01*
X80465332Y-68107794D01*
X80551319Y-68165249D01*
X80646863Y-68204824D01*
X80748292Y-68225000D01*
X80851708Y-68225000D01*
X80953137Y-68204824D01*
X81048681Y-68165249D01*
X81134668Y-68107794D01*
X81207794Y-68034668D01*
X81230959Y-68000000D01*
X81275737Y-68000000D01*
X83977450Y-70701714D01*
X83986842Y-70713158D01*
X83998285Y-70722549D01*
X84032522Y-70750647D01*
X84037181Y-70753137D01*
X84084640Y-70778504D01*
X84141190Y-70795659D01*
X84185267Y-70800000D01*
X84185277Y-70800000D01*
X84200000Y-70801450D01*
X84214723Y-70800000D01*
X85169041Y-70800000D01*
X85134751Y-70851319D01*
X85095176Y-70946863D01*
X85075000Y-71048292D01*
X85075000Y-71151708D01*
X85095176Y-71253137D01*
X85134751Y-71348681D01*
X85192206Y-71434668D01*
X85265332Y-71507794D01*
X85351319Y-71565249D01*
X85446863Y-71604824D01*
X85548292Y-71625000D01*
X85651708Y-71625000D01*
X85692602Y-71616865D01*
X85977451Y-71901715D01*
X85986842Y-71913158D01*
X85998285Y-71922549D01*
X86032522Y-71950647D01*
X86059842Y-71965249D01*
X86084640Y-71978504D01*
X86141190Y-71995659D01*
X86185267Y-72000000D01*
X84724264Y-72000000D01*
X83422553Y-70698290D01*
X83413158Y-70686842D01*
X83367477Y-70649353D01*
X83315360Y-70621496D01*
X83258810Y-70604341D01*
X83214733Y-70600000D01*
X83214723Y-70600000D01*
X83200000Y-70598550D01*
X83185277Y-70600000D01*
X82614722Y-70600000D01*
X82599999Y-70598550D01*
X82585276Y-70600000D01*
X82585267Y-70600000D01*
X82541190Y-70604341D01*
X82484640Y-70621496D01*
X82460379Y-70634464D01*
X82432522Y-70649353D01*
X82398285Y-70677451D01*
X82386842Y-70686842D01*
X82377451Y-70698285D01*
X81998290Y-71077447D01*
X81986842Y-71086842D01*
X81972085Y-71104824D01*
X81949353Y-71132523D01*
X81944721Y-71141190D01*
X81921496Y-71184641D01*
X81904341Y-71241191D01*
X81900000Y-71285268D01*
X81900000Y-71285277D01*
X81898550Y-71300000D01*
X81900000Y-71314723D01*
X81900001Y-72685267D01*
X81898550Y-72700000D01*
X81904342Y-72758810D01*
X81921497Y-72815360D01*
X81949353Y-72867477D01*
X81977451Y-72901714D01*
X81986843Y-72913158D01*
X81998285Y-72922548D01*
X82383135Y-73307398D01*
X82375000Y-73348292D01*
X82375000Y-73451708D01*
X82395176Y-73553137D01*
X82434751Y-73648681D01*
X82492206Y-73734668D01*
X82557538Y-73800000D01*
X81724264Y-73800000D01*
X81100000Y-73175737D01*
X81100000Y-69730959D01*
X81134668Y-69707794D01*
X81207794Y-69634668D01*
X81265249Y-69548681D01*
X81304824Y-69453137D01*
X81325000Y-69351708D01*
X81325000Y-69248292D01*
X81304824Y-69146863D01*
X81265249Y-69051319D01*
X81207794Y-68965332D01*
X81134668Y-68892206D01*
X81048681Y-68834751D01*
X80953137Y-68795176D01*
X80851708Y-68775000D01*
X80748292Y-68775000D01*
X80646863Y-68795176D01*
X80551319Y-68834751D01*
X80465332Y-68892206D01*
X80392206Y-68965332D01*
X80334751Y-69051319D01*
X80295176Y-69146863D01*
X80275000Y-69248292D01*
X80275000Y-69351708D01*
X80295176Y-69453137D01*
X80334751Y-69548681D01*
X80392206Y-69634668D01*
X80465332Y-69707794D01*
X80500001Y-69730959D01*
X80500000Y-73285277D01*
X80498550Y-73300000D01*
X80500000Y-73314723D01*
X80500000Y-73314732D01*
X80504341Y-73358809D01*
X80521496Y-73415359D01*
X80521497Y-73415360D01*
X80549353Y-73467477D01*
X80566358Y-73488198D01*
X80586842Y-73513158D01*
X80598290Y-73522553D01*
X81377451Y-74301715D01*
X81386842Y-74313158D01*
X81398285Y-74322549D01*
X81432522Y-74350647D01*
X81484639Y-74378504D01*
X81497801Y-74382497D01*
X81541190Y-74395659D01*
X81585267Y-74400000D01*
X81585270Y-74400000D01*
X81600000Y-74401451D01*
X81614730Y-74400000D01*
X86585277Y-74400000D01*
X86600000Y-74401450D01*
X86614723Y-74400000D01*
X86614733Y-74400000D01*
X86658810Y-74395659D01*
X86715360Y-74378504D01*
X86767477Y-74350647D01*
X86813158Y-74313158D01*
X86822553Y-74301710D01*
X89213603Y-71910661D01*
X89204341Y-71941191D01*
X89200000Y-71985268D01*
X89200000Y-71985277D01*
X89198550Y-72000000D01*
X89200000Y-72014723D01*
X89200001Y-77575735D01*
X87198290Y-79577447D01*
X87186842Y-79586842D01*
X87176045Y-79599999D01*
X87149353Y-79632523D01*
X87142877Y-79644639D01*
X87121496Y-79684641D01*
X87104341Y-79741191D01*
X87100000Y-79785268D01*
X87100000Y-79785277D01*
X87098550Y-79800000D01*
X87100000Y-79814723D01*
X87100001Y-80973279D01*
X87044034Y-80838164D01*
X86937332Y-80678473D01*
X86801527Y-80542668D01*
X86641836Y-80435966D01*
X86464397Y-80362468D01*
X86276029Y-80325000D01*
X86083971Y-80325000D01*
X85895603Y-80362468D01*
X85718164Y-80435966D01*
X85558473Y-80542668D01*
X85422668Y-80678473D01*
X85315966Y-80838164D01*
X85242468Y-81015603D01*
X85205000Y-81203971D01*
X85205000Y-81396029D01*
X85242468Y-81584397D01*
X85315966Y-81761836D01*
X85422668Y-81921527D01*
X85558473Y-82057332D01*
X85718164Y-82164034D01*
X85895603Y-82237532D01*
X86083971Y-82275000D01*
X86276029Y-82275000D01*
X86464397Y-82237532D01*
X86641836Y-82164034D01*
X86801527Y-82057332D01*
X86937332Y-81921527D01*
X87044034Y-81761836D01*
X87100001Y-81626721D01*
X87100001Y-81885267D01*
X87098550Y-81900000D01*
X87104342Y-81958810D01*
X87121497Y-82015360D01*
X87149353Y-82067477D01*
X87177451Y-82101714D01*
X87186843Y-82113158D01*
X87198285Y-82122548D01*
X88577451Y-83501715D01*
X88586842Y-83513158D01*
X88598285Y-83522549D01*
X88632522Y-83550647D01*
X88660379Y-83565536D01*
X88684640Y-83578504D01*
X88741190Y-83595659D01*
X88785267Y-83600000D01*
X88785277Y-83600000D01*
X88800000Y-83601450D01*
X88814723Y-83600000D01*
X94325277Y-83600000D01*
X94340000Y-83601450D01*
X94354723Y-83600000D01*
X94354733Y-83600000D01*
X94398810Y-83595659D01*
X94455360Y-83578504D01*
X94507477Y-83550647D01*
X94553158Y-83513158D01*
X94562553Y-83501710D01*
X95893767Y-82170497D01*
X96055603Y-82237532D01*
X96243971Y-82275000D01*
X96436029Y-82275000D01*
X96624397Y-82237532D01*
X96801836Y-82164034D01*
X96961527Y-82057332D01*
X97097332Y-81921527D01*
X97204034Y-81761836D01*
X97277532Y-81584397D01*
X97315000Y-81396029D01*
X97315000Y-81203971D01*
X97905000Y-81203971D01*
X97905000Y-81396029D01*
X97942468Y-81584397D01*
X98015966Y-81761836D01*
X98122668Y-81921527D01*
X98258473Y-82057332D01*
X98418164Y-82164034D01*
X98595603Y-82237532D01*
X98783971Y-82275000D01*
X98976029Y-82275000D01*
X99164397Y-82237532D01*
X99341836Y-82164034D01*
X99501527Y-82057332D01*
X99637332Y-81921527D01*
X99744034Y-81761836D01*
X99817532Y-81584397D01*
X99855000Y-81396029D01*
X99855000Y-81203971D01*
X99817532Y-81015603D01*
X99744034Y-80838164D01*
X99637332Y-80678473D01*
X99501527Y-80542668D01*
X99341836Y-80435966D01*
X99164397Y-80362468D01*
X98976029Y-80325000D01*
X98783971Y-80325000D01*
X98595603Y-80362468D01*
X98418164Y-80435966D01*
X98258473Y-80542668D01*
X98122668Y-80678473D01*
X98015966Y-80838164D01*
X97942468Y-81015603D01*
X97905000Y-81203971D01*
X97315000Y-81203971D01*
X97277532Y-81015603D01*
X97204034Y-80838164D01*
X97097332Y-80678473D01*
X96961527Y-80542668D01*
X96801836Y-80435966D01*
X96624397Y-80362468D01*
X96436029Y-80325000D01*
X96243971Y-80325000D01*
X96055603Y-80362468D01*
X95878164Y-80435966D01*
X95718473Y-80542668D01*
X95582668Y-80678473D01*
X95475966Y-80838164D01*
X95402468Y-81015603D01*
X95365000Y-81203971D01*
X95365000Y-81396029D01*
X95402468Y-81584397D01*
X95469503Y-81746233D01*
X94215737Y-83000000D01*
X91914733Y-83000000D01*
X91958810Y-82995659D01*
X92015360Y-82978504D01*
X92067477Y-82950647D01*
X92113158Y-82913158D01*
X92122553Y-82901710D01*
X92801715Y-82222549D01*
X92813158Y-82213158D01*
X92827519Y-82195659D01*
X92850647Y-82167478D01*
X92878503Y-82115361D01*
X92878504Y-82115360D01*
X92895659Y-82058810D01*
X92900000Y-82014733D01*
X92900000Y-82014721D01*
X92901450Y-82000001D01*
X92900000Y-81985281D01*
X92900000Y-81675007D01*
X92935966Y-81761836D01*
X93042668Y-81921527D01*
X93178473Y-82057332D01*
X93338164Y-82164034D01*
X93515603Y-82237532D01*
X93703971Y-82275000D01*
X93896029Y-82275000D01*
X94084397Y-82237532D01*
X94261836Y-82164034D01*
X94421527Y-82057332D01*
X94557332Y-81921527D01*
X94664034Y-81761836D01*
X94737532Y-81584397D01*
X94775000Y-81396029D01*
X94775000Y-81203971D01*
X94737532Y-81015603D01*
X94664034Y-80838164D01*
X94557332Y-80678473D01*
X94421527Y-80542668D01*
X94261836Y-80435966D01*
X94084397Y-80362468D01*
X93962482Y-80338218D01*
X92100000Y-78475737D01*
X92100000Y-74748292D01*
X93175000Y-74748292D01*
X93175000Y-74851708D01*
X93195176Y-74953137D01*
X93234751Y-75048681D01*
X93292206Y-75134668D01*
X93365332Y-75207794D01*
X93400000Y-75230959D01*
X93400001Y-78685267D01*
X93398550Y-78700000D01*
X93404342Y-78758810D01*
X93421497Y-78815360D01*
X93449353Y-78867477D01*
X93477235Y-78901451D01*
X93486843Y-78913158D01*
X93498285Y-78922548D01*
X94083134Y-79507398D01*
X94075000Y-79548292D01*
X94075000Y-79651708D01*
X94095176Y-79753137D01*
X94134751Y-79848681D01*
X94192206Y-79934668D01*
X94265332Y-80007794D01*
X94351319Y-80065249D01*
X94446863Y-80104824D01*
X94548292Y-80125000D01*
X94651708Y-80125000D01*
X94753137Y-80104824D01*
X94848681Y-80065249D01*
X94934668Y-80007794D01*
X95007794Y-79934668D01*
X95065249Y-79848681D01*
X95100000Y-79764783D01*
X95134751Y-79848681D01*
X95192206Y-79934668D01*
X95265332Y-80007794D01*
X95351319Y-80065249D01*
X95446863Y-80104824D01*
X95548292Y-80125000D01*
X95651708Y-80125000D01*
X95753137Y-80104824D01*
X95848681Y-80065249D01*
X95934668Y-80007794D01*
X96007794Y-79934668D01*
X96065249Y-79848681D01*
X96104824Y-79753137D01*
X96125000Y-79651708D01*
X96125000Y-79548292D01*
X96104824Y-79446863D01*
X96065249Y-79351319D01*
X96007794Y-79265332D01*
X95934668Y-79192206D01*
X95848681Y-79134751D01*
X95753137Y-79095176D01*
X95651708Y-79075000D01*
X95548292Y-79075000D01*
X95507398Y-79083134D01*
X94800000Y-78375737D01*
X94800000Y-75230959D01*
X94834668Y-75207794D01*
X94907794Y-75134668D01*
X94965249Y-75048681D01*
X95004824Y-74953137D01*
X95025000Y-74851708D01*
X95025000Y-74748292D01*
X95004824Y-74646863D01*
X94965249Y-74551319D01*
X94907794Y-74465332D01*
X94834668Y-74392206D01*
X94748681Y-74334751D01*
X94653137Y-74295176D01*
X94551708Y-74275000D01*
X94448292Y-74275000D01*
X94346863Y-74295176D01*
X94251319Y-74334751D01*
X94165332Y-74392206D01*
X94100000Y-74457538D01*
X94034668Y-74392206D01*
X93948681Y-74334751D01*
X93853137Y-74295176D01*
X93751708Y-74275000D01*
X93648292Y-74275000D01*
X93546863Y-74295176D01*
X93451319Y-74334751D01*
X93365332Y-74392206D01*
X93292206Y-74465332D01*
X93234751Y-74551319D01*
X93195176Y-74646863D01*
X93175000Y-74748292D01*
X92100000Y-74748292D01*
X92100000Y-71264775D01*
X92134751Y-71348673D01*
X92192206Y-71434660D01*
X92265332Y-71507786D01*
X92351319Y-71565241D01*
X92446863Y-71604816D01*
X92548292Y-71624992D01*
X92651708Y-71624992D01*
X92753137Y-71604816D01*
X92848681Y-71565241D01*
X92934668Y-71507786D01*
X93007794Y-71434660D01*
X93030959Y-71399992D01*
X96585285Y-71399992D01*
X96600008Y-71401442D01*
X96614731Y-71399992D01*
X96614741Y-71399992D01*
X96658818Y-71395651D01*
X96715368Y-71378496D01*
X96767485Y-71350639D01*
X96813166Y-71313150D01*
X96822561Y-71301702D01*
X97475000Y-70649264D01*
X97475000Y-70751708D01*
X97495176Y-70853137D01*
X97534751Y-70948681D01*
X97592206Y-71034668D01*
X97657538Y-71100000D01*
X97592206Y-71165332D01*
X97534751Y-71251319D01*
X97495176Y-71346863D01*
X97475000Y-71448292D01*
X97475000Y-71551708D01*
X97495176Y-71653137D01*
X97534751Y-71748681D01*
X97592206Y-71834668D01*
X97657538Y-71900000D01*
X97592206Y-71965332D01*
X97534751Y-72051319D01*
X97495176Y-72146863D01*
X97475000Y-72248292D01*
X97475000Y-72351708D01*
X97495176Y-72453137D01*
X97534751Y-72548681D01*
X97592206Y-72634668D01*
X97665332Y-72707794D01*
X97751319Y-72765249D01*
X97846863Y-72804824D01*
X97948292Y-72825000D01*
X98051708Y-72825000D01*
X98092602Y-72816866D01*
X98177450Y-72901714D01*
X98186842Y-72913158D01*
X98198285Y-72922549D01*
X98232522Y-72950647D01*
X98247795Y-72958810D01*
X98284640Y-72978504D01*
X98341190Y-72995659D01*
X98385267Y-73000000D01*
X98385276Y-73000000D01*
X98399999Y-73001450D01*
X98414722Y-73000000D01*
X100969041Y-73000000D01*
X100934751Y-73051319D01*
X100895176Y-73146863D01*
X100875000Y-73248292D01*
X100875000Y-73351708D01*
X100895176Y-73453137D01*
X100934751Y-73548681D01*
X100992206Y-73634668D01*
X101065332Y-73707794D01*
X101100000Y-73730959D01*
X101100001Y-80377215D01*
X100958164Y-80435966D01*
X100798473Y-80542668D01*
X100662668Y-80678473D01*
X100555966Y-80838164D01*
X100482468Y-81015603D01*
X100445000Y-81203971D01*
X100445000Y-81396029D01*
X100482468Y-81584397D01*
X100555966Y-81761836D01*
X100662668Y-81921527D01*
X100798473Y-82057332D01*
X100958164Y-82164034D01*
X101135603Y-82237532D01*
X101323971Y-82275000D01*
X101516029Y-82275000D01*
X101704397Y-82237532D01*
X101881836Y-82164034D01*
X102041527Y-82057332D01*
X102177332Y-81921527D01*
X102284034Y-81761836D01*
X102357532Y-81584397D01*
X102395000Y-81396029D01*
X102395000Y-81203971D01*
X102357532Y-81015603D01*
X102284034Y-80838164D01*
X102177332Y-80678473D01*
X102041527Y-80542668D01*
X101881836Y-80435966D01*
X101704397Y-80362468D01*
X101700000Y-80361593D01*
X101700000Y-73730959D01*
X101734668Y-73707794D01*
X101807794Y-73634668D01*
X101865249Y-73548681D01*
X101904824Y-73453137D01*
X101925000Y-73351708D01*
X101925000Y-73248292D01*
X101904824Y-73146863D01*
X101865249Y-73051319D01*
X101830959Y-73000000D01*
X102575737Y-73000000D01*
X103748285Y-74172549D01*
X103748289Y-74172552D01*
X103798286Y-74222550D01*
X103798291Y-74222554D01*
X104777450Y-75201714D01*
X104786842Y-75213158D01*
X104798285Y-75222549D01*
X104832522Y-75250647D01*
X104859842Y-75265249D01*
X104884640Y-75278504D01*
X104941190Y-75295659D01*
X104985267Y-75300000D01*
X104985276Y-75300000D01*
X104999999Y-75301450D01*
X105014722Y-75300000D01*
X112375737Y-75300000D01*
X113773912Y-76698176D01*
X113773912Y-78500000D01*
X113778256Y-78544108D01*
X113791122Y-78586520D01*
X113812015Y-78625608D01*
X113840132Y-78659868D01*
X113874392Y-78687985D01*
X113913480Y-78708878D01*
X113955892Y-78721744D01*
X114000000Y-78726088D01*
X116000000Y-78726088D01*
X116044108Y-78721744D01*
X116086520Y-78708878D01*
X116125608Y-78687985D01*
X116159868Y-78659868D01*
X116187985Y-78625608D01*
X116208878Y-78586520D01*
X116221744Y-78544108D01*
X116226088Y-78500000D01*
X116226088Y-76500000D01*
X116221744Y-76455892D01*
X116208878Y-76413480D01*
X116187985Y-76374392D01*
X116159868Y-76340132D01*
X116125608Y-76312015D01*
X116086520Y-76291122D01*
X116044108Y-76278256D01*
X116000000Y-76273912D01*
X114198176Y-76273912D01*
X112722553Y-74798290D01*
X112713158Y-74786842D01*
X112667477Y-74749353D01*
X112615360Y-74721496D01*
X112558810Y-74704341D01*
X112514733Y-74700000D01*
X112514723Y-74700000D01*
X112500000Y-74698550D01*
X112485277Y-74700000D01*
X105124264Y-74700000D01*
X104222554Y-73798291D01*
X104222550Y-73798286D01*
X104172552Y-73748289D01*
X104172549Y-73748285D01*
X102922553Y-72498290D01*
X102913158Y-72486842D01*
X102867477Y-72449353D01*
X102815360Y-72421496D01*
X102758810Y-72404341D01*
X102714733Y-72400000D01*
X102714723Y-72400000D01*
X102700000Y-72398550D01*
X102685277Y-72400000D01*
X98524264Y-72400000D01*
X98516866Y-72392602D01*
X98525000Y-72351708D01*
X98525000Y-72300000D01*
X102875737Y-72300000D01*
X104777451Y-74201715D01*
X104786842Y-74213158D01*
X104798285Y-74222549D01*
X104832522Y-74250647D01*
X104860379Y-74265536D01*
X104884640Y-74278504D01*
X104941190Y-74295659D01*
X104985267Y-74300000D01*
X104985276Y-74300000D01*
X104999999Y-74301450D01*
X105014722Y-74300000D01*
X113730043Y-74300000D01*
X113741122Y-74336520D01*
X113762015Y-74375608D01*
X113790132Y-74409868D01*
X113824392Y-74437985D01*
X113863480Y-74458878D01*
X113905892Y-74471744D01*
X113950000Y-74476088D01*
X115950000Y-74476088D01*
X115994108Y-74471744D01*
X116036520Y-74458878D01*
X116075608Y-74437985D01*
X116109868Y-74409868D01*
X116137985Y-74375608D01*
X116158878Y-74336520D01*
X116171744Y-74294108D01*
X116176088Y-74250000D01*
X116176088Y-72250000D01*
X116171744Y-72205892D01*
X116158878Y-72163480D01*
X116137985Y-72124392D01*
X116109868Y-72090132D01*
X116075608Y-72062015D01*
X116036520Y-72041122D01*
X115994108Y-72028256D01*
X115950000Y-72023912D01*
X113950000Y-72023912D01*
X113905892Y-72028256D01*
X113863480Y-72041122D01*
X113824392Y-72062015D01*
X113790132Y-72090132D01*
X113762015Y-72124392D01*
X113741122Y-72163480D01*
X113728256Y-72205892D01*
X113723912Y-72250000D01*
X113723912Y-73700000D01*
X105124264Y-73700000D01*
X103222553Y-71798290D01*
X103213158Y-71786842D01*
X103167477Y-71749353D01*
X103115360Y-71721496D01*
X103058810Y-71704341D01*
X103014733Y-71700000D01*
X103014723Y-71700000D01*
X103000000Y-71698550D01*
X102985277Y-71700000D01*
X98624264Y-71700000D01*
X98516865Y-71592602D01*
X98525000Y-71551708D01*
X98525000Y-71500000D01*
X112685277Y-71500000D01*
X112700000Y-71501450D01*
X112714723Y-71500000D01*
X112714733Y-71500000D01*
X112758810Y-71495659D01*
X112815360Y-71478504D01*
X112867477Y-71450647D01*
X112913158Y-71413158D01*
X112922553Y-71401710D01*
X114148176Y-70176088D01*
X115950000Y-70176088D01*
X115994108Y-70171744D01*
X116036520Y-70158878D01*
X116075608Y-70137985D01*
X116109868Y-70109868D01*
X116137985Y-70075608D01*
X116158878Y-70036520D01*
X116171744Y-69994108D01*
X116176088Y-69950000D01*
X116176088Y-67950000D01*
X116171744Y-67905892D01*
X116158878Y-67863480D01*
X116137985Y-67824392D01*
X116109868Y-67790132D01*
X116075608Y-67762015D01*
X116036520Y-67741122D01*
X115994108Y-67728256D01*
X115950000Y-67723912D01*
X113950000Y-67723912D01*
X113905892Y-67728256D01*
X113863480Y-67741122D01*
X113824392Y-67762015D01*
X113790132Y-67790132D01*
X113762015Y-67824392D01*
X113741122Y-67863480D01*
X113728256Y-67905892D01*
X113723912Y-67950000D01*
X113723912Y-69751824D01*
X112575737Y-70900000D01*
X109330959Y-70900000D01*
X109365249Y-70848681D01*
X109404824Y-70753137D01*
X109425000Y-70651708D01*
X109425000Y-70548292D01*
X109404824Y-70446863D01*
X109365249Y-70351319D01*
X109307794Y-70265332D01*
X109234668Y-70192206D01*
X109148681Y-70134751D01*
X109053137Y-70095176D01*
X108951708Y-70075000D01*
X108848292Y-70075000D01*
X108746863Y-70095176D01*
X108651319Y-70134751D01*
X108565332Y-70192206D01*
X108492206Y-70265332D01*
X108469041Y-70300000D01*
X101524264Y-70300000D01*
X101416865Y-70192602D01*
X101425000Y-70151708D01*
X101425000Y-70048292D01*
X101404824Y-69946863D01*
X101365249Y-69851319D01*
X101307794Y-69765332D01*
X101234668Y-69692206D01*
X101148681Y-69634751D01*
X101053137Y-69595176D01*
X100951708Y-69575000D01*
X100848292Y-69575000D01*
X100746863Y-69595176D01*
X100651319Y-69634751D01*
X100565332Y-69692206D01*
X100492206Y-69765332D01*
X100469041Y-69800000D01*
X97724263Y-69800000D01*
X98324264Y-69200000D01*
X105985277Y-69200000D01*
X106000000Y-69201450D01*
X106014723Y-69200000D01*
X106014733Y-69200000D01*
X106058810Y-69195659D01*
X106115360Y-69178504D01*
X106167477Y-69150647D01*
X106213158Y-69113158D01*
X106222553Y-69101710D01*
X107401716Y-67922547D01*
X107413158Y-67913158D01*
X107430353Y-67892206D01*
X107450647Y-67867478D01*
X107478503Y-67815361D01*
X107478504Y-67815360D01*
X107495659Y-67758810D01*
X107500000Y-67714733D01*
X107500000Y-67714724D01*
X107501450Y-67700001D01*
X107500000Y-67685278D01*
X107500000Y-65874263D01*
X107617249Y-65757014D01*
X107605000Y-65818594D01*
X107605000Y-65961406D01*
X107632861Y-66101475D01*
X107687513Y-66233416D01*
X107766856Y-66352161D01*
X107867839Y-66453144D01*
X107986584Y-66532487D01*
X108118525Y-66587139D01*
X108258594Y-66615000D01*
X108401406Y-66615000D01*
X108541475Y-66587139D01*
X108673416Y-66532487D01*
X108792161Y-66453144D01*
X108873912Y-66371393D01*
X108873912Y-66390000D01*
X108878256Y-66434108D01*
X108891122Y-66476520D01*
X108912015Y-66515608D01*
X108940132Y-66549868D01*
X108974392Y-66577985D01*
X109013480Y-66598878D01*
X109055892Y-66611744D01*
X109100000Y-66616088D01*
X110100000Y-66616088D01*
X110144108Y-66611744D01*
X110186520Y-66598878D01*
X110225608Y-66577985D01*
X110259868Y-66549868D01*
X110287985Y-66515608D01*
X110308878Y-66476520D01*
X110321744Y-66434108D01*
X110326088Y-66390000D01*
X110326088Y-65390000D01*
X110321744Y-65345892D01*
X110308878Y-65303480D01*
X110287985Y-65264392D01*
X110259868Y-65230132D01*
X110225608Y-65202015D01*
X110186520Y-65181122D01*
X110144108Y-65168256D01*
X110100000Y-65163912D01*
X110074344Y-65163912D01*
X110116829Y-65128461D01*
X110206094Y-65017863D01*
X110267524Y-64902907D01*
X110245447Y-64795000D01*
X109775000Y-64795000D01*
X109775000Y-64815000D01*
X109425000Y-64815000D01*
X109425000Y-64795000D01*
X109405000Y-64795000D01*
X109405000Y-64445000D01*
X109425000Y-64445000D01*
X109425000Y-64425000D01*
X109775000Y-64425000D01*
X109775000Y-64445000D01*
X110245447Y-64445000D01*
X110267524Y-64337093D01*
X110207624Y-64225000D01*
X117925000Y-64225000D01*
X117925000Y-121225000D01*
X62075000Y-121225000D01*
X62075000Y-117500000D01*
X78773912Y-117500000D01*
X78773912Y-118500000D01*
X78787864Y-118641653D01*
X78829182Y-118777862D01*
X78896280Y-118903393D01*
X78986578Y-119013422D01*
X79096607Y-119103720D01*
X79222138Y-119170818D01*
X79358347Y-119212136D01*
X79500000Y-119226088D01*
X81500000Y-119226088D01*
X81641653Y-119212136D01*
X81777862Y-119170818D01*
X81903393Y-119103720D01*
X82013422Y-119013422D01*
X82103720Y-118903393D01*
X82170818Y-118777862D01*
X82212136Y-118641653D01*
X82226088Y-118500000D01*
X82226088Y-117500000D01*
X85773912Y-117500000D01*
X85773912Y-118500000D01*
X85787864Y-118641653D01*
X85829182Y-118777862D01*
X85896280Y-118903393D01*
X85986578Y-119013422D01*
X86096607Y-119103720D01*
X86222138Y-119170818D01*
X86358347Y-119212136D01*
X86500000Y-119226088D01*
X88500000Y-119226088D01*
X88641653Y-119212136D01*
X88777862Y-119170818D01*
X88903393Y-119103720D01*
X89013422Y-119013422D01*
X89103720Y-118903393D01*
X89170818Y-118777862D01*
X89212136Y-118641653D01*
X89226088Y-118500000D01*
X89226088Y-118300000D01*
X89339529Y-118300000D01*
X89357513Y-118343416D01*
X89436856Y-118462161D01*
X89537839Y-118563144D01*
X89656584Y-118642487D01*
X89788525Y-118697139D01*
X89928594Y-118725000D01*
X90071406Y-118725000D01*
X90211475Y-118697139D01*
X90343416Y-118642487D01*
X90462161Y-118563144D01*
X90563144Y-118462161D01*
X90642487Y-118343416D01*
X90660471Y-118300000D01*
X90773912Y-118300000D01*
X90773912Y-118500000D01*
X90787864Y-118641653D01*
X90829182Y-118777862D01*
X90896280Y-118903393D01*
X90986578Y-119013422D01*
X91096607Y-119103720D01*
X91222138Y-119170818D01*
X91358347Y-119212136D01*
X91500000Y-119226088D01*
X93500000Y-119226088D01*
X93641653Y-119212136D01*
X93777862Y-119170818D01*
X93903393Y-119103720D01*
X94013422Y-119013422D01*
X94103720Y-118903393D01*
X94170818Y-118777862D01*
X94212136Y-118641653D01*
X94226088Y-118500000D01*
X94226088Y-117500000D01*
X94212136Y-117358347D01*
X94170818Y-117222138D01*
X94103720Y-117096607D01*
X94013422Y-116986578D01*
X93903393Y-116896280D01*
X93777862Y-116829182D01*
X93641653Y-116787864D01*
X93500000Y-116773912D01*
X91500000Y-116773912D01*
X91358347Y-116787864D01*
X91222138Y-116829182D01*
X91096607Y-116896280D01*
X90986578Y-116986578D01*
X90896280Y-117096607D01*
X90829182Y-117222138D01*
X90787864Y-117358347D01*
X90773912Y-117500000D01*
X90773912Y-117700000D01*
X90660471Y-117700000D01*
X90642487Y-117656584D01*
X90563144Y-117537839D01*
X90462161Y-117436856D01*
X90343416Y-117357513D01*
X90211475Y-117302861D01*
X90071406Y-117275000D01*
X89928594Y-117275000D01*
X89788525Y-117302861D01*
X89656584Y-117357513D01*
X89537839Y-117436856D01*
X89436856Y-117537839D01*
X89357513Y-117656584D01*
X89339529Y-117700000D01*
X89226088Y-117700000D01*
X89226088Y-117500000D01*
X89212136Y-117358347D01*
X89170818Y-117222138D01*
X89103720Y-117096607D01*
X89013422Y-116986578D01*
X88903393Y-116896280D01*
X88777862Y-116829182D01*
X88641653Y-116787864D01*
X88500000Y-116773912D01*
X86500000Y-116773912D01*
X86358347Y-116787864D01*
X86222138Y-116829182D01*
X86096607Y-116896280D01*
X85986578Y-116986578D01*
X85896280Y-117096607D01*
X85829182Y-117222138D01*
X85787864Y-117358347D01*
X85773912Y-117500000D01*
X82226088Y-117500000D01*
X82212136Y-117358347D01*
X82170818Y-117222138D01*
X82103720Y-117096607D01*
X82013422Y-116986578D01*
X81971824Y-116952439D01*
X92907398Y-106016866D01*
X92948292Y-106025000D01*
X93051708Y-106025000D01*
X93153137Y-106004824D01*
X93248681Y-105965249D01*
X93334668Y-105907794D01*
X93407794Y-105834668D01*
X93465249Y-105748681D01*
X93504824Y-105653137D01*
X93508814Y-105633077D01*
X99200000Y-111324264D01*
X99200001Y-116773912D01*
X98500000Y-116773912D01*
X98358347Y-116787864D01*
X98222138Y-116829182D01*
X98096607Y-116896280D01*
X97986578Y-116986578D01*
X97896280Y-117096607D01*
X97829182Y-117222138D01*
X97787864Y-117358347D01*
X97773912Y-117500000D01*
X97773912Y-118500000D01*
X97787864Y-118641653D01*
X97829182Y-118777862D01*
X97896280Y-118903393D01*
X97986578Y-119013422D01*
X98096607Y-119103720D01*
X98222138Y-119170818D01*
X98358347Y-119212136D01*
X98500000Y-119226088D01*
X100500000Y-119226088D01*
X100641653Y-119212136D01*
X100777862Y-119170818D01*
X100903393Y-119103720D01*
X101013422Y-119013422D01*
X101103720Y-118903393D01*
X101170818Y-118777862D01*
X101212136Y-118641653D01*
X101226088Y-118500000D01*
X101226088Y-117500000D01*
X101212136Y-117358347D01*
X101170818Y-117222138D01*
X101103720Y-117096607D01*
X101013422Y-116986578D01*
X100903393Y-116896280D01*
X100777862Y-116829182D01*
X100641653Y-116787864D01*
X100500000Y-116773912D01*
X99800000Y-116773912D01*
X99800000Y-111214722D01*
X99801450Y-111199999D01*
X99800000Y-111185276D01*
X99800000Y-111185267D01*
X99795659Y-111141190D01*
X99778504Y-111084640D01*
X99750648Y-111032524D01*
X99750647Y-111032522D01*
X99722549Y-110998285D01*
X99713158Y-110986842D01*
X99701717Y-110977453D01*
X95328235Y-106603971D01*
X97905000Y-106603971D01*
X97905000Y-106796029D01*
X97942468Y-106984397D01*
X98015966Y-107161836D01*
X98122668Y-107321527D01*
X98258473Y-107457332D01*
X98418164Y-107564034D01*
X98595603Y-107637532D01*
X98783971Y-107675000D01*
X98976029Y-107675000D01*
X99164397Y-107637532D01*
X99341836Y-107564034D01*
X99501527Y-107457332D01*
X99637332Y-107321527D01*
X99744034Y-107161836D01*
X99817532Y-106984397D01*
X99855000Y-106796029D01*
X99855000Y-106603971D01*
X99817532Y-106415603D01*
X99744034Y-106238164D01*
X99637332Y-106078473D01*
X99508859Y-105950000D01*
X100443912Y-105950000D01*
X100443912Y-107450000D01*
X100448256Y-107494108D01*
X100461122Y-107536520D01*
X100482015Y-107575608D01*
X100510132Y-107609868D01*
X100544392Y-107637985D01*
X100583480Y-107658878D01*
X100625892Y-107671744D01*
X100670000Y-107676088D01*
X102170000Y-107676088D01*
X102214108Y-107671744D01*
X102256520Y-107658878D01*
X102295608Y-107637985D01*
X102329868Y-107609868D01*
X102357985Y-107575608D01*
X102378878Y-107536520D01*
X102391744Y-107494108D01*
X102396088Y-107450000D01*
X102396088Y-107000000D01*
X111073911Y-107000000D01*
X111078255Y-107044108D01*
X111091121Y-107086521D01*
X111112014Y-107125608D01*
X111140131Y-107159869D01*
X111174392Y-107187986D01*
X111213479Y-107208879D01*
X111255892Y-107221745D01*
X111300000Y-107226089D01*
X113068750Y-107225000D01*
X113125000Y-107168750D01*
X113125000Y-105175000D01*
X113475000Y-105175000D01*
X113475000Y-107168750D01*
X113531250Y-107225000D01*
X115300000Y-107226089D01*
X115344108Y-107221745D01*
X115386521Y-107208879D01*
X115425608Y-107187986D01*
X115459869Y-107159869D01*
X115487986Y-107125608D01*
X115508879Y-107086521D01*
X115521745Y-107044108D01*
X115526089Y-107000000D01*
X115525000Y-105231250D01*
X115468750Y-105175000D01*
X113475000Y-105175000D01*
X113125000Y-105175000D01*
X111131250Y-105175000D01*
X111075000Y-105231250D01*
X111073911Y-107000000D01*
X102396088Y-107000000D01*
X102396088Y-105950000D01*
X102391744Y-105905892D01*
X102378878Y-105863480D01*
X102357985Y-105824392D01*
X102329868Y-105790132D01*
X102295608Y-105762015D01*
X102256520Y-105741122D01*
X102214108Y-105728256D01*
X102170000Y-105723912D01*
X100670000Y-105723912D01*
X100625892Y-105728256D01*
X100583480Y-105741122D01*
X100544392Y-105762015D01*
X100510132Y-105790132D01*
X100482015Y-105824392D01*
X100461122Y-105863480D01*
X100448256Y-105905892D01*
X100443912Y-105950000D01*
X99508859Y-105950000D01*
X99501527Y-105942668D01*
X99341836Y-105835966D01*
X99164397Y-105762468D01*
X98976029Y-105725000D01*
X98783971Y-105725000D01*
X98595603Y-105762468D01*
X98418164Y-105835966D01*
X98258473Y-105942668D01*
X98122668Y-106078473D01*
X98015966Y-106238164D01*
X97942468Y-106415603D01*
X97905000Y-106603971D01*
X95328235Y-106603971D01*
X93516865Y-104792602D01*
X93525000Y-104751708D01*
X93525000Y-104648292D01*
X93504824Y-104546863D01*
X93465249Y-104451319D01*
X93407794Y-104365332D01*
X93334668Y-104292206D01*
X93248681Y-104234751D01*
X93153137Y-104195176D01*
X93051708Y-104175000D01*
X92948292Y-104175000D01*
X92846863Y-104195176D01*
X92751319Y-104234751D01*
X92665332Y-104292206D01*
X92592206Y-104365332D01*
X92534751Y-104451319D01*
X92495176Y-104546863D01*
X92475000Y-104648292D01*
X92475000Y-104751708D01*
X92495176Y-104853137D01*
X92534751Y-104948681D01*
X92592206Y-105034668D01*
X92657538Y-105100000D01*
X92592206Y-105165332D01*
X92534751Y-105251319D01*
X92495176Y-105346863D01*
X92475000Y-105448292D01*
X92475000Y-105551708D01*
X92483134Y-105592602D01*
X81301825Y-116773912D01*
X79500000Y-116773912D01*
X79358347Y-116787864D01*
X79222138Y-116829182D01*
X79096607Y-116896280D01*
X78986578Y-116986578D01*
X78896280Y-117096607D01*
X78829182Y-117222138D01*
X78787864Y-117358347D01*
X78773912Y-117500000D01*
X62075000Y-117500000D01*
X62075000Y-106603971D01*
X77585000Y-106603971D01*
X77585000Y-106796029D01*
X77622468Y-106984397D01*
X77695966Y-107161836D01*
X77802668Y-107321527D01*
X77938473Y-107457332D01*
X78098164Y-107564034D01*
X78275603Y-107637532D01*
X78463971Y-107675000D01*
X78656029Y-107675000D01*
X78844397Y-107637532D01*
X79021836Y-107564034D01*
X79181527Y-107457332D01*
X79317332Y-107321527D01*
X79424034Y-107161836D01*
X79497532Y-106984397D01*
X79535000Y-106796029D01*
X79535000Y-106603971D01*
X80125000Y-106603971D01*
X80125000Y-106796029D01*
X80162468Y-106984397D01*
X80235966Y-107161836D01*
X80342668Y-107321527D01*
X80478473Y-107457332D01*
X80638164Y-107564034D01*
X80815603Y-107637532D01*
X81003971Y-107675000D01*
X81196029Y-107675000D01*
X81384397Y-107637532D01*
X81561836Y-107564034D01*
X81721527Y-107457332D01*
X81857332Y-107321527D01*
X81964034Y-107161836D01*
X82037532Y-106984397D01*
X82075000Y-106796029D01*
X82075000Y-106603971D01*
X82037532Y-106415603D01*
X81964034Y-106238164D01*
X81857332Y-106078473D01*
X81721527Y-105942668D01*
X81561836Y-105835966D01*
X81384397Y-105762468D01*
X81196029Y-105725000D01*
X81003971Y-105725000D01*
X80815603Y-105762468D01*
X80638164Y-105835966D01*
X80478473Y-105942668D01*
X80342668Y-106078473D01*
X80235966Y-106238164D01*
X80162468Y-106415603D01*
X80125000Y-106603971D01*
X79535000Y-106603971D01*
X79497532Y-106415603D01*
X79424034Y-106238164D01*
X79317332Y-106078473D01*
X79181527Y-105942668D01*
X79021836Y-105835966D01*
X78844397Y-105762468D01*
X78656029Y-105725000D01*
X78463971Y-105725000D01*
X78275603Y-105762468D01*
X78098164Y-105835966D01*
X77938473Y-105942668D01*
X77802668Y-106078473D01*
X77695966Y-106238164D01*
X77622468Y-106415603D01*
X77585000Y-106603971D01*
X62075000Y-106603971D01*
X62075000Y-103000000D01*
X111073911Y-103000000D01*
X111075000Y-104768750D01*
X111131250Y-104825000D01*
X113125000Y-104825000D01*
X113125000Y-102831250D01*
X113475000Y-102831250D01*
X113475000Y-104825000D01*
X115468750Y-104825000D01*
X115525000Y-104768750D01*
X115526089Y-103000000D01*
X115521745Y-102955892D01*
X115508879Y-102913479D01*
X115487986Y-102874392D01*
X115459869Y-102840131D01*
X115425608Y-102812014D01*
X115386521Y-102791121D01*
X115344108Y-102778255D01*
X115300000Y-102773911D01*
X113531250Y-102775000D01*
X113475000Y-102831250D01*
X113125000Y-102831250D01*
X113068750Y-102775000D01*
X111300000Y-102773911D01*
X111255892Y-102778255D01*
X111213479Y-102791121D01*
X111174392Y-102812014D01*
X111140131Y-102840131D01*
X111112014Y-102874392D01*
X111091121Y-102913479D01*
X111078255Y-102955892D01*
X111073911Y-103000000D01*
X62075000Y-103000000D01*
X62075000Y-97500000D01*
X111073912Y-97500000D01*
X111073912Y-101500000D01*
X111078256Y-101544108D01*
X111091122Y-101586520D01*
X111112015Y-101625608D01*
X111140132Y-101659868D01*
X111174392Y-101687985D01*
X111213480Y-101708878D01*
X111255892Y-101721744D01*
X111300000Y-101726088D01*
X115300000Y-101726088D01*
X115344108Y-101721744D01*
X115386520Y-101708878D01*
X115425608Y-101687985D01*
X115459868Y-101659868D01*
X115487985Y-101625608D01*
X115508878Y-101586520D01*
X115521744Y-101544108D01*
X115526088Y-101500000D01*
X115526088Y-97500000D01*
X115521744Y-97455892D01*
X115508878Y-97413480D01*
X115487985Y-97374392D01*
X115459868Y-97340132D01*
X115425608Y-97312015D01*
X115386520Y-97291122D01*
X115344108Y-97278256D01*
X115300000Y-97273912D01*
X111300000Y-97273912D01*
X111255892Y-97278256D01*
X111213480Y-97291122D01*
X111174392Y-97312015D01*
X111140132Y-97340132D01*
X111112015Y-97374392D01*
X111091122Y-97413480D01*
X111078256Y-97455892D01*
X111073912Y-97500000D01*
X62075000Y-97500000D01*
X62075000Y-81203971D01*
X77585000Y-81203971D01*
X77585000Y-81396029D01*
X77622468Y-81584397D01*
X77695966Y-81761836D01*
X77802668Y-81921527D01*
X77938473Y-82057332D01*
X78098164Y-82164034D01*
X78275603Y-82237532D01*
X78463971Y-82275000D01*
X78656029Y-82275000D01*
X78844397Y-82237532D01*
X79021836Y-82164034D01*
X79170197Y-82064902D01*
X80582585Y-82064902D01*
X80674975Y-82182724D01*
X80855353Y-82248681D01*
X81045133Y-82278180D01*
X81237021Y-82270089D01*
X81423643Y-82224717D01*
X81525025Y-82182724D01*
X81617415Y-82064902D01*
X83122585Y-82064902D01*
X83214975Y-82182724D01*
X83395353Y-82248681D01*
X83585133Y-82278180D01*
X83777021Y-82270089D01*
X83963643Y-82224717D01*
X84065025Y-82182724D01*
X84157415Y-82064902D01*
X83640000Y-81547487D01*
X83122585Y-82064902D01*
X81617415Y-82064902D01*
X81100000Y-81547487D01*
X80582585Y-82064902D01*
X79170197Y-82064902D01*
X79181527Y-82057332D01*
X79317332Y-81921527D01*
X79424034Y-81761836D01*
X79497532Y-81584397D01*
X79535000Y-81396029D01*
X79535000Y-81245133D01*
X80121820Y-81245133D01*
X80129911Y-81437021D01*
X80175283Y-81623643D01*
X80217276Y-81725025D01*
X80335098Y-81817415D01*
X80852513Y-81300000D01*
X81347487Y-81300000D01*
X81864902Y-81817415D01*
X81982724Y-81725025D01*
X82048681Y-81544647D01*
X82078180Y-81354867D01*
X82073554Y-81245133D01*
X82661820Y-81245133D01*
X82669911Y-81437021D01*
X82715283Y-81623643D01*
X82757276Y-81725025D01*
X82875098Y-81817415D01*
X83392513Y-81300000D01*
X83887487Y-81300000D01*
X84404902Y-81817415D01*
X84522724Y-81725025D01*
X84588681Y-81544647D01*
X84618180Y-81354867D01*
X84610089Y-81162979D01*
X84564717Y-80976357D01*
X84522724Y-80874975D01*
X84404902Y-80782585D01*
X83887487Y-81300000D01*
X83392513Y-81300000D01*
X82875098Y-80782585D01*
X82757276Y-80874975D01*
X82691319Y-81055353D01*
X82661820Y-81245133D01*
X82073554Y-81245133D01*
X82070089Y-81162979D01*
X82024717Y-80976357D01*
X81982724Y-80874975D01*
X81864902Y-80782585D01*
X81347487Y-81300000D01*
X80852513Y-81300000D01*
X80335098Y-80782585D01*
X80217276Y-80874975D01*
X80151319Y-81055353D01*
X80121820Y-81245133D01*
X79535000Y-81245133D01*
X79535000Y-81203971D01*
X79497532Y-81015603D01*
X79424034Y-80838164D01*
X79317332Y-80678473D01*
X79181527Y-80542668D01*
X79170198Y-80535098D01*
X80582585Y-80535098D01*
X81100000Y-81052513D01*
X81617415Y-80535098D01*
X83122585Y-80535098D01*
X83640000Y-81052513D01*
X84157415Y-80535098D01*
X84065025Y-80417276D01*
X83884647Y-80351319D01*
X83694867Y-80321820D01*
X83502979Y-80329911D01*
X83316357Y-80375283D01*
X83214975Y-80417276D01*
X83122585Y-80535098D01*
X81617415Y-80535098D01*
X81525025Y-80417276D01*
X81344647Y-80351319D01*
X81154867Y-80321820D01*
X80962979Y-80329911D01*
X80776357Y-80375283D01*
X80674975Y-80417276D01*
X80582585Y-80535098D01*
X79170198Y-80535098D01*
X79021836Y-80435966D01*
X78844397Y-80362468D01*
X78656029Y-80325000D01*
X78463971Y-80325000D01*
X78275603Y-80362468D01*
X78098164Y-80435966D01*
X77938473Y-80542668D01*
X77802668Y-80678473D01*
X77695966Y-80838164D01*
X77622468Y-81015603D01*
X77585000Y-81203971D01*
X62075000Y-81203971D01*
X62075000Y-63474911D01*
X63450000Y-63473274D01*
X63450001Y-79185257D01*
X63448549Y-79200000D01*
X63454341Y-79258810D01*
X63471496Y-79315360D01*
X63499353Y-79367477D01*
X63536842Y-79413158D01*
X63582523Y-79450647D01*
X63634640Y-79478504D01*
X63691190Y-79495659D01*
X63735267Y-79500000D01*
X63750000Y-79501451D01*
X63764733Y-79500000D01*
X73235267Y-79500000D01*
X73250000Y-79501451D01*
X73264733Y-79500000D01*
X73308810Y-79495659D01*
X73365360Y-79478504D01*
X73417477Y-79450647D01*
X73463158Y-79413158D01*
X73500647Y-79367477D01*
X73528504Y-79315360D01*
X73545659Y-79258810D01*
X73551451Y-79200000D01*
X73550000Y-79185267D01*
X73550000Y-63461250D01*
X75234980Y-63459244D01*
X76027456Y-64251721D01*
X76036842Y-64263158D01*
X76048279Y-64272544D01*
X76048285Y-64272550D01*
X76082522Y-64300647D01*
X76134639Y-64328504D01*
X76147801Y-64332497D01*
X76191190Y-64345659D01*
X76235267Y-64350000D01*
X76235270Y-64350000D01*
X76250000Y-64351451D01*
X76264730Y-64350000D01*
X76419041Y-64350000D01*
X76442206Y-64384668D01*
X76515332Y-64457794D01*
X76601319Y-64515249D01*
X76696863Y-64554824D01*
X76798292Y-64575000D01*
X76901708Y-64575000D01*
X77003137Y-64554824D01*
X77098681Y-64515249D01*
X77100001Y-64514367D01*
X77100000Y-72969041D01*
X77065332Y-72992206D01*
X76992206Y-73065332D01*
X76934751Y-73151319D01*
X76895176Y-73246863D01*
X76875000Y-73348292D01*
X76875000Y-73451708D01*
X76895176Y-73553137D01*
X76934751Y-73648681D01*
X76992206Y-73734668D01*
X77065332Y-73807794D01*
X77151319Y-73865249D01*
X77246863Y-73904824D01*
X77348292Y-73925000D01*
X77451708Y-73925000D01*
X77553137Y-73904824D01*
X77648681Y-73865249D01*
X77734668Y-73807794D01*
X77807794Y-73734668D01*
X77865249Y-73648681D01*
X77904824Y-73553137D01*
X77925000Y-73451708D01*
X77925000Y-73348292D01*
X77904824Y-73246863D01*
X77865249Y-73151319D01*
X77807794Y-73065332D01*
X77734668Y-72992206D01*
X77700000Y-72969041D01*
X77700000Y-71930959D01*
X77751319Y-71965249D01*
X77846863Y-72004824D01*
X77948292Y-72025000D01*
X78051708Y-72025000D01*
X78153137Y-72004824D01*
X78248681Y-71965249D01*
X78334668Y-71907794D01*
X78407794Y-71834668D01*
X78465249Y-71748681D01*
X78504824Y-71653137D01*
X78525000Y-71551708D01*
X78525000Y-71448292D01*
X78504824Y-71346863D01*
X78465249Y-71251319D01*
X78407794Y-71165332D01*
X78334668Y-71092206D01*
X78300000Y-71069041D01*
X78300000Y-65248292D01*
X79875000Y-65248292D01*
X79875000Y-65351708D01*
X79895176Y-65453137D01*
X79934751Y-65548681D01*
X79992206Y-65634668D01*
X80065332Y-65707794D01*
X80151319Y-65765249D01*
X80246863Y-65804824D01*
X80348292Y-65825000D01*
X80451708Y-65825000D01*
X80553137Y-65804824D01*
X80648681Y-65765249D01*
X80734668Y-65707794D01*
X80807794Y-65634668D01*
X80865249Y-65548681D01*
X80904824Y-65453137D01*
X80925000Y-65351708D01*
X80925000Y-65248292D01*
X80904824Y-65146863D01*
X80865249Y-65051319D01*
X80807794Y-64965332D01*
X80734668Y-64892206D01*
X80648681Y-64834751D01*
X80553137Y-64795176D01*
X80451708Y-64775000D01*
X80348292Y-64775000D01*
X80246863Y-64795176D01*
X80151319Y-64834751D01*
X80065332Y-64892206D01*
X79992206Y-64965332D01*
X79934751Y-65051319D01*
X79895176Y-65146863D01*
X79875000Y-65248292D01*
X78300000Y-65248292D01*
X78300000Y-63514722D01*
X78301450Y-63499999D01*
X78300000Y-63485276D01*
X78300000Y-63485267D01*
X78297078Y-63455599D01*
X83000268Y-63450000D01*
X83043895Y-63445677D01*
X83086104Y-63432873D01*
X83125003Y-63412081D01*
X83159099Y-63384099D01*
X83187081Y-63350003D01*
X83207873Y-63311104D01*
X83220677Y-63268895D01*
X83225000Y-63225000D01*
X83225000Y-47325000D01*
X84352337Y-47325000D01*
X84334751Y-47351319D01*
%TO.N,HEATER-*%
G36*
X95474951Y-48774950D02*
G01*
X95238953Y-48774950D01*
X95229134Y-48775917D01*
X95225414Y-48775891D01*
X95222287Y-48776198D01*
X95105829Y-48788438D01*
X95085859Y-48792537D01*
X95065812Y-48796361D01*
X95062812Y-48797268D01*
X95062805Y-48797269D01*
X95062799Y-48797272D01*
X94950942Y-48831897D01*
X94932160Y-48839792D01*
X94913227Y-48847441D01*
X94910453Y-48848916D01*
X94807446Y-48904612D01*
X94790539Y-48916015D01*
X94773466Y-48927188D01*
X94771031Y-48929173D01*
X94680805Y-49003816D01*
X94666430Y-49018292D01*
X94651860Y-49032560D01*
X94649857Y-49034981D01*
X94575846Y-49125726D01*
X94564564Y-49142708D01*
X94553034Y-49159546D01*
X94551540Y-49162310D01*
X94496565Y-49265703D01*
X94488797Y-49284549D01*
X94480756Y-49303310D01*
X94479828Y-49306308D01*
X94479828Y-49306310D01*
X94479827Y-49306312D01*
X94445982Y-49418413D01*
X94442013Y-49438459D01*
X94437780Y-49458373D01*
X94437451Y-49461498D01*
X94426024Y-49578039D01*
X94426024Y-49587881D01*
X94424962Y-49597664D01*
X94424951Y-49600806D01*
X94424966Y-49604995D01*
X94425960Y-49614767D01*
X94425891Y-49624586D01*
X94426198Y-49627713D01*
X94438438Y-49744170D01*
X94442536Y-49764133D01*
X94446361Y-49784188D01*
X94447268Y-49787188D01*
X94447269Y-49787195D01*
X94447272Y-49787201D01*
X94481897Y-49899058D01*
X94489792Y-49917840D01*
X94497441Y-49936773D01*
X94498915Y-49939543D01*
X94498917Y-49939548D01*
X94498918Y-49939549D01*
X94554612Y-50042554D01*
X94566015Y-50059461D01*
X94577188Y-50076534D01*
X94579174Y-50078969D01*
X94653816Y-50169195D01*
X94668288Y-50183567D01*
X94682559Y-50198140D01*
X94684980Y-50200143D01*
X94775726Y-50274154D01*
X94792741Y-50285459D01*
X94809547Y-50296966D01*
X94812305Y-50298457D01*
X94812309Y-50298460D01*
X94812313Y-50298462D01*
X94915704Y-50353435D01*
X94934535Y-50361197D01*
X94953310Y-50369244D01*
X94956308Y-50370172D01*
X94956314Y-50370174D01*
X95068413Y-50404018D01*
X95088459Y-50407987D01*
X95108373Y-50412220D01*
X95111498Y-50412549D01*
X95228039Y-50423976D01*
X95228048Y-50423976D01*
X95238953Y-50425050D01*
X95474951Y-50425050D01*
X95474950Y-53911046D01*
X95475910Y-53920790D01*
X95475888Y-53923888D01*
X95476195Y-53927015D01*
X95486395Y-54024063D01*
X95490495Y-54044040D01*
X95494318Y-54064080D01*
X95495224Y-54067078D01*
X95495226Y-54067088D01*
X95495230Y-54067097D01*
X95524083Y-54160307D01*
X95531992Y-54179122D01*
X95539629Y-54198024D01*
X95541104Y-54200798D01*
X95587516Y-54286636D01*
X95598920Y-54303543D01*
X95610091Y-54320614D01*
X95612077Y-54323049D01*
X95674279Y-54398237D01*
X95688752Y-54412609D01*
X95703022Y-54427182D01*
X95705443Y-54429185D01*
X95781064Y-54490861D01*
X95798074Y-54502163D01*
X95814887Y-54513674D01*
X95817651Y-54515169D01*
X95903811Y-54560981D01*
X95922698Y-54568765D01*
X95941416Y-54576788D01*
X95944415Y-54577716D01*
X95944419Y-54577718D01*
X95944423Y-54577719D01*
X96037835Y-54605922D01*
X96057813Y-54609878D01*
X96077798Y-54614126D01*
X96080919Y-54614454D01*
X96080923Y-54614454D01*
X96178040Y-54623976D01*
X96187868Y-54623976D01*
X96197632Y-54625037D01*
X96200774Y-54625049D01*
X96204265Y-54625037D01*
X96214052Y-54624043D01*
X96223888Y-54624112D01*
X96227015Y-54623805D01*
X96324063Y-54613605D01*
X96344040Y-54609505D01*
X96364080Y-54605682D01*
X96367078Y-54604776D01*
X96367088Y-54604774D01*
X96367097Y-54604770D01*
X96460307Y-54575917D01*
X96479122Y-54568008D01*
X96498024Y-54560371D01*
X96500793Y-54558899D01*
X96500797Y-54558897D01*
X96500800Y-54558895D01*
X96586636Y-54512484D01*
X96603543Y-54501080D01*
X96620614Y-54489909D01*
X96623049Y-54487923D01*
X96698237Y-54425721D01*
X96712609Y-54411248D01*
X96727182Y-54396978D01*
X96729185Y-54394557D01*
X96790861Y-54318936D01*
X96802163Y-54301926D01*
X96813674Y-54285113D01*
X96815169Y-54282349D01*
X96860981Y-54196189D01*
X96868765Y-54177302D01*
X96876788Y-54158584D01*
X96877717Y-54155583D01*
X96886936Y-54125050D01*
X100813169Y-54125050D01*
X100824083Y-54160307D01*
X100831992Y-54179122D01*
X100839629Y-54198024D01*
X100841104Y-54200798D01*
X100887516Y-54286636D01*
X100898920Y-54303543D01*
X100910091Y-54320614D01*
X100912077Y-54323049D01*
X100974279Y-54398237D01*
X100988752Y-54412609D01*
X101003022Y-54427182D01*
X101005443Y-54429185D01*
X101081064Y-54490861D01*
X101098074Y-54502163D01*
X101114887Y-54513674D01*
X101117651Y-54515169D01*
X101203811Y-54560981D01*
X101222698Y-54568765D01*
X101241416Y-54576788D01*
X101244415Y-54577716D01*
X101244419Y-54577718D01*
X101244423Y-54577719D01*
X101337835Y-54605922D01*
X101357813Y-54609878D01*
X101377798Y-54614126D01*
X101380919Y-54614454D01*
X101380923Y-54614454D01*
X101478040Y-54623976D01*
X101487868Y-54623976D01*
X101497632Y-54625037D01*
X101500774Y-54625049D01*
X101504265Y-54625037D01*
X101514052Y-54624043D01*
X101523888Y-54624112D01*
X101527015Y-54623805D01*
X101624063Y-54613605D01*
X101644040Y-54609505D01*
X101664080Y-54605682D01*
X101667078Y-54604776D01*
X101667088Y-54604774D01*
X101667097Y-54604770D01*
X101760307Y-54575917D01*
X101779122Y-54568008D01*
X101798024Y-54560371D01*
X101800793Y-54558899D01*
X101800797Y-54558897D01*
X101800800Y-54558895D01*
X101886636Y-54512484D01*
X101903543Y-54501080D01*
X101920614Y-54489909D01*
X101923049Y-54487923D01*
X101998237Y-54425721D01*
X102012609Y-54411248D01*
X102027182Y-54396978D01*
X102029185Y-54394557D01*
X102090861Y-54318936D01*
X102102163Y-54301926D01*
X102113674Y-54285113D01*
X102115169Y-54282349D01*
X102160981Y-54196189D01*
X102168765Y-54177302D01*
X102176788Y-54158584D01*
X102177717Y-54155583D01*
X102205922Y-54062165D01*
X102209878Y-54042187D01*
X102214126Y-54022202D01*
X102214454Y-54019077D01*
X102223976Y-53921960D01*
X102223976Y-53921952D01*
X102225050Y-53911047D01*
X102225050Y-50425050D01*
X102461047Y-50425050D01*
X102470866Y-50424083D01*
X102474586Y-50424109D01*
X102477713Y-50423802D01*
X102594170Y-50411562D01*
X102614133Y-50407464D01*
X102634188Y-50403639D01*
X102637188Y-50402732D01*
X102637195Y-50402731D01*
X102637201Y-50402728D01*
X102749058Y-50368103D01*
X102767840Y-50360208D01*
X102786773Y-50352559D01*
X102789543Y-50351085D01*
X102789548Y-50351083D01*
X102789552Y-50351080D01*
X102892554Y-50295388D01*
X102909461Y-50283985D01*
X102926534Y-50272812D01*
X102928969Y-50270826D01*
X103019195Y-50196184D01*
X103033567Y-50181712D01*
X103048140Y-50167441D01*
X103050143Y-50165020D01*
X103124154Y-50074274D01*
X103135459Y-50057259D01*
X103146966Y-50040453D01*
X103148457Y-50037695D01*
X103148460Y-50037691D01*
X103148462Y-50037687D01*
X103203435Y-49934296D01*
X103211197Y-49915465D01*
X103219244Y-49896690D01*
X103220173Y-49893688D01*
X103254018Y-49781587D01*
X103257987Y-49761541D01*
X103262220Y-49741627D01*
X103262549Y-49738502D01*
X103273976Y-49621961D01*
X103273976Y-49612119D01*
X103275038Y-49602336D01*
X103275049Y-49599194D01*
X103275034Y-49595005D01*
X103274040Y-49585233D01*
X103274109Y-49575414D01*
X103273802Y-49572287D01*
X103261562Y-49455829D01*
X103257463Y-49435859D01*
X103253639Y-49415812D01*
X103252732Y-49412812D01*
X103252731Y-49412805D01*
X103252728Y-49412799D01*
X103218103Y-49300942D01*
X103210208Y-49282160D01*
X103202559Y-49263227D01*
X103201084Y-49260453D01*
X103145388Y-49157446D01*
X103133985Y-49140539D01*
X103122812Y-49123466D01*
X103120827Y-49121031D01*
X103046184Y-49030805D01*
X103031708Y-49016430D01*
X103017440Y-49001860D01*
X103015019Y-48999857D01*
X102924274Y-48925846D01*
X102907292Y-48914564D01*
X102890454Y-48903034D01*
X102887690Y-48901540D01*
X102784297Y-48846565D01*
X102765451Y-48838797D01*
X102746690Y-48830756D01*
X102743692Y-48829828D01*
X102743686Y-48829826D01*
X102631587Y-48795982D01*
X102611541Y-48792013D01*
X102591627Y-48787780D01*
X102588502Y-48787451D01*
X102471961Y-48776024D01*
X102471952Y-48776024D01*
X102461047Y-48774950D01*
X102225050Y-48774950D01*
X102225050Y-41725050D01*
X108690740Y-41725050D01*
X108696479Y-41729760D01*
X108744253Y-41755296D01*
X108796091Y-41771020D01*
X108836497Y-41775000D01*
X117925000Y-41775000D01*
X117925000Y-63925000D01*
X110037087Y-63925000D01*
X110116829Y-63858461D01*
X110206094Y-63747863D01*
X110267524Y-63632907D01*
X110245447Y-63525000D01*
X109775000Y-63525000D01*
X109775000Y-63545000D01*
X109425000Y-63545000D01*
X109425000Y-63525000D01*
X109405000Y-63525000D01*
X109405000Y-63175000D01*
X109425000Y-63175000D01*
X109425000Y-62255000D01*
X109775000Y-62255000D01*
X109775000Y-63175000D01*
X110245447Y-63175000D01*
X110267524Y-63067093D01*
X110206094Y-62952137D01*
X110116829Y-62841539D01*
X110007703Y-62750481D01*
X109942606Y-62715000D01*
X110007703Y-62679519D01*
X110116829Y-62588461D01*
X110206094Y-62477863D01*
X110267524Y-62362907D01*
X110245447Y-62255000D01*
X109775000Y-62255000D01*
X109425000Y-62255000D01*
X109405000Y-62255000D01*
X109405000Y-61905000D01*
X109425000Y-61905000D01*
X109425000Y-61885000D01*
X109775000Y-61885000D01*
X109775000Y-61905000D01*
X110245447Y-61905000D01*
X110267524Y-61797093D01*
X110206094Y-61682137D01*
X110116829Y-61571539D01*
X110007703Y-61480481D01*
X109949223Y-61448607D01*
X110062161Y-61373144D01*
X110163144Y-61272161D01*
X110242487Y-61153416D01*
X110297139Y-61021475D01*
X110325000Y-60881406D01*
X110325000Y-60738594D01*
X110297139Y-60598525D01*
X110242487Y-60466584D01*
X110163144Y-60347839D01*
X110062161Y-60246856D01*
X109949223Y-60171393D01*
X110007703Y-60139519D01*
X110116829Y-60048461D01*
X110206094Y-59937863D01*
X110267524Y-59822907D01*
X110245447Y-59715000D01*
X109775000Y-59715000D01*
X109775000Y-59735000D01*
X109425000Y-59735000D01*
X109425000Y-59715000D01*
X109405000Y-59715000D01*
X109405000Y-59365000D01*
X109425000Y-59365000D01*
X109425000Y-59345000D01*
X109775000Y-59345000D01*
X109775000Y-59365000D01*
X110245447Y-59365000D01*
X110267524Y-59257093D01*
X110206094Y-59142137D01*
X110116829Y-59031539D01*
X110007703Y-58940481D01*
X109949223Y-58908607D01*
X110062161Y-58833144D01*
X110163144Y-58732161D01*
X110242487Y-58613416D01*
X110297139Y-58481475D01*
X110325000Y-58341406D01*
X110325000Y-58198594D01*
X110297139Y-58058525D01*
X110242487Y-57926584D01*
X110163144Y-57807839D01*
X110062161Y-57706856D01*
X109943416Y-57627513D01*
X109811475Y-57572861D01*
X109671406Y-57545000D01*
X109528594Y-57545000D01*
X109388525Y-57572861D01*
X109256584Y-57627513D01*
X109137839Y-57706856D01*
X109036856Y-57807839D01*
X108965000Y-57915379D01*
X108893144Y-57807839D01*
X108792161Y-57706856D01*
X108673416Y-57627513D01*
X108541475Y-57572861D01*
X108401406Y-57545000D01*
X108258594Y-57545000D01*
X108118525Y-57572861D01*
X107986584Y-57627513D01*
X107867839Y-57706856D01*
X107766856Y-57807839D01*
X107687513Y-57926584D01*
X107632861Y-58058525D01*
X107605000Y-58198594D01*
X107605000Y-58341406D01*
X107632861Y-58481475D01*
X107687513Y-58613416D01*
X107766856Y-58732161D01*
X107867839Y-58833144D01*
X107975379Y-58905000D01*
X107867839Y-58976856D01*
X107766856Y-59077839D01*
X107687513Y-59196584D01*
X107632861Y-59328525D01*
X107605000Y-59468594D01*
X107605000Y-59611406D01*
X107632861Y-59751475D01*
X107687513Y-59883416D01*
X107766856Y-60002161D01*
X107867839Y-60103144D01*
X107975379Y-60175000D01*
X107867839Y-60246856D01*
X107766856Y-60347839D01*
X107687513Y-60466584D01*
X107632861Y-60598525D01*
X107605000Y-60738594D01*
X107605000Y-60881406D01*
X107632861Y-61021475D01*
X107687513Y-61153416D01*
X107766856Y-61272161D01*
X107867839Y-61373144D01*
X107975379Y-61445000D01*
X107867839Y-61516856D01*
X107766856Y-61617839D01*
X107687513Y-61736584D01*
X107632861Y-61868525D01*
X107605000Y-62008594D01*
X107605000Y-62151406D01*
X107632861Y-62291475D01*
X107687513Y-62423416D01*
X107766856Y-62542161D01*
X107867839Y-62643144D01*
X107975379Y-62715000D01*
X107867839Y-62786856D01*
X107766856Y-62887839D01*
X107687513Y-63006584D01*
X107632861Y-63138525D01*
X107605000Y-63278594D01*
X107605000Y-63421406D01*
X107632861Y-63561475D01*
X107656702Y-63619033D01*
X107350736Y-63925000D01*
X94008918Y-63925000D01*
X94034668Y-63907794D01*
X94107794Y-63834668D01*
X94165249Y-63748681D01*
X94204824Y-63653137D01*
X94225000Y-63551708D01*
X94225000Y-63448292D01*
X94204824Y-63346863D01*
X94165249Y-63251319D01*
X94107794Y-63165332D01*
X94034668Y-63092206D01*
X93948681Y-63034751D01*
X93853137Y-62995176D01*
X93751708Y-62975000D01*
X93648292Y-62975000D01*
X93546863Y-62995176D01*
X93451319Y-63034751D01*
X93365332Y-63092206D01*
X93292206Y-63165332D01*
X93269041Y-63200000D01*
X89124264Y-63200000D01*
X88500000Y-62575737D01*
X88500000Y-59430959D01*
X88534668Y-59407794D01*
X88607794Y-59334668D01*
X88665249Y-59248681D01*
X88704824Y-59153137D01*
X88725000Y-59051708D01*
X88725000Y-58948292D01*
X88704824Y-58846863D01*
X88665249Y-58751319D01*
X88607794Y-58665332D01*
X88534668Y-58592206D01*
X88448681Y-58534751D01*
X88353137Y-58495176D01*
X88251708Y-58475000D01*
X88148292Y-58475000D01*
X88046863Y-58495176D01*
X87951319Y-58534751D01*
X87865332Y-58592206D01*
X87792206Y-58665332D01*
X87734751Y-58751319D01*
X87700000Y-58835217D01*
X87700000Y-48614730D01*
X87701451Y-48600000D01*
X87700000Y-48585267D01*
X87695659Y-48541190D01*
X87678504Y-48484640D01*
X87678504Y-48484639D01*
X87650647Y-48432522D01*
X87622550Y-48398285D01*
X87622544Y-48398279D01*
X87613158Y-48386842D01*
X87601721Y-48377456D01*
X86022553Y-46798290D01*
X86013158Y-46786842D01*
X85967477Y-46749353D01*
X85915360Y-46721496D01*
X85858810Y-46704341D01*
X85814733Y-46700000D01*
X85814723Y-46700000D01*
X85800000Y-46698550D01*
X85785277Y-46700000D01*
X85414722Y-46700000D01*
X85399999Y-46698550D01*
X85385276Y-46700000D01*
X85385267Y-46700000D01*
X85341190Y-46704341D01*
X85284640Y-46721496D01*
X85260379Y-46734464D01*
X85232522Y-46749353D01*
X85198285Y-46777451D01*
X85186842Y-46786842D01*
X85177451Y-46798285D01*
X84950737Y-47025000D01*
X83000000Y-47025000D01*
X82985368Y-47026441D01*
X82971299Y-47030709D01*
X82958332Y-47037640D01*
X82946967Y-47046967D01*
X82937640Y-47058332D01*
X82930709Y-47071299D01*
X82926441Y-47085368D01*
X82925000Y-47100000D01*
X82925000Y-63150089D01*
X78080121Y-63155857D01*
X77622553Y-62698290D01*
X77613158Y-62686842D01*
X77567477Y-62649353D01*
X77515360Y-62621496D01*
X77458810Y-62604341D01*
X77414733Y-62600000D01*
X77414723Y-62600000D01*
X77400000Y-62598550D01*
X77385277Y-62600000D01*
X77121503Y-62600000D01*
X77184668Y-62557794D01*
X77257794Y-62484668D01*
X77315249Y-62398681D01*
X77354824Y-62303137D01*
X77375000Y-62201708D01*
X77375000Y-62098292D01*
X77354824Y-61996863D01*
X77315249Y-61901319D01*
X77257794Y-61815332D01*
X77184668Y-61742206D01*
X77098681Y-61684751D01*
X77003137Y-61645176D01*
X76901708Y-61625000D01*
X76798292Y-61625000D01*
X76757398Y-61633135D01*
X76750000Y-61625737D01*
X76750000Y-56048292D01*
X77975000Y-56048292D01*
X77975000Y-56151708D01*
X77995176Y-56253137D01*
X78034751Y-56348681D01*
X78092206Y-56434668D01*
X78165332Y-56507794D01*
X78251319Y-56565249D01*
X78346863Y-56604824D01*
X78448292Y-56625000D01*
X78551708Y-56625000D01*
X78592602Y-56616865D01*
X80600000Y-58624264D01*
X80600001Y-60369041D01*
X80565332Y-60392206D01*
X80492206Y-60465332D01*
X80434751Y-60551319D01*
X80395176Y-60646863D01*
X80375000Y-60748292D01*
X80375000Y-60851708D01*
X80395176Y-60953137D01*
X80434751Y-61048681D01*
X80492206Y-61134668D01*
X80565332Y-61207794D01*
X80651319Y-61265249D01*
X80746863Y-61304824D01*
X80848292Y-61325000D01*
X80951708Y-61325000D01*
X81053137Y-61304824D01*
X81148681Y-61265249D01*
X81234668Y-61207794D01*
X81307794Y-61134668D01*
X81365249Y-61048681D01*
X81404824Y-60953137D01*
X81425000Y-60851708D01*
X81425000Y-60748292D01*
X81404824Y-60646863D01*
X81365249Y-60551319D01*
X81307794Y-60465332D01*
X81234668Y-60392206D01*
X81200000Y-60369041D01*
X81200000Y-58514730D01*
X81201451Y-58500000D01*
X81200000Y-58485267D01*
X81195659Y-58441190D01*
X81178504Y-58384640D01*
X81150648Y-58332524D01*
X81150647Y-58332522D01*
X81122550Y-58298286D01*
X81122549Y-58298285D01*
X81113158Y-58286842D01*
X81101717Y-58277453D01*
X79016865Y-56192602D01*
X79025000Y-56151708D01*
X79025000Y-56048292D01*
X79004824Y-55946863D01*
X78965249Y-55851319D01*
X78907794Y-55765332D01*
X78834668Y-55692206D01*
X78748681Y-55634751D01*
X78653137Y-55595176D01*
X78551708Y-55575000D01*
X78448292Y-55575000D01*
X78346863Y-55595176D01*
X78251319Y-55634751D01*
X78165332Y-55692206D01*
X78092206Y-55765332D01*
X78034751Y-55851319D01*
X77995176Y-55946863D01*
X77975000Y-56048292D01*
X76750000Y-56048292D01*
X76750000Y-55264722D01*
X76751450Y-55249999D01*
X76750000Y-55235276D01*
X76750000Y-55235267D01*
X76745659Y-55191190D01*
X76728504Y-55134640D01*
X76700648Y-55082524D01*
X76700647Y-55082522D01*
X76672549Y-55048285D01*
X76663158Y-55036842D01*
X76651717Y-55027453D01*
X73550000Y-51925737D01*
X73550000Y-50625000D01*
X73651708Y-50625000D01*
X73753137Y-50604824D01*
X73848681Y-50565249D01*
X73934668Y-50507794D01*
X74007794Y-50434668D01*
X74065249Y-50348681D01*
X74104824Y-50253137D01*
X74125000Y-50151708D01*
X74125000Y-50048292D01*
X74104824Y-49946863D01*
X74065249Y-49851319D01*
X74007794Y-49765332D01*
X73934668Y-49692206D01*
X73848681Y-49634751D01*
X73753137Y-49595176D01*
X73651708Y-49575000D01*
X73548292Y-49575000D01*
X73446863Y-49595176D01*
X73351319Y-49634751D01*
X73265332Y-49692206D01*
X73192206Y-49765332D01*
X73134751Y-49851319D01*
X73095176Y-49946863D01*
X73075000Y-50048292D01*
X73075000Y-50151708D01*
X73083135Y-50192602D01*
X73048290Y-50227447D01*
X73036842Y-50236842D01*
X73018845Y-50258772D01*
X73000000Y-50281735D01*
X73000000Y-49930957D01*
X73034668Y-49907792D01*
X73107794Y-49834666D01*
X73165249Y-49748679D01*
X73204824Y-49653135D01*
X73225000Y-49551706D01*
X73225000Y-49448290D01*
X73204824Y-49346861D01*
X73165249Y-49251317D01*
X73107794Y-49165330D01*
X73034668Y-49092204D01*
X72948681Y-49034749D01*
X72853137Y-48995174D01*
X72751708Y-48974998D01*
X72648292Y-48974998D01*
X72546863Y-48995174D01*
X72451319Y-49034749D01*
X72365332Y-49092204D01*
X72292206Y-49165330D01*
X72269041Y-49199998D01*
X72030957Y-49199998D01*
X72007794Y-49165332D01*
X71934668Y-49092206D01*
X71848681Y-49034751D01*
X71753137Y-48995176D01*
X71651708Y-48975000D01*
X71548292Y-48975000D01*
X71446863Y-48995176D01*
X71351319Y-49034751D01*
X71265332Y-49092206D01*
X71192206Y-49165332D01*
X71134751Y-49251319D01*
X71095176Y-49346863D01*
X71075000Y-49448292D01*
X71075000Y-49551708D01*
X71079633Y-49575000D01*
X71048292Y-49575000D01*
X70946863Y-49595176D01*
X70851319Y-49634751D01*
X70765332Y-49692206D01*
X70692206Y-49765332D01*
X70634751Y-49851319D01*
X70595176Y-49946863D01*
X70575000Y-50048292D01*
X70575000Y-50151708D01*
X70595176Y-50253137D01*
X70634751Y-50348681D01*
X70692206Y-50434668D01*
X70765332Y-50507794D01*
X70851319Y-50565249D01*
X70946863Y-50604824D01*
X71048292Y-50625000D01*
X71151708Y-50625000D01*
X71192602Y-50616865D01*
X71350000Y-50774264D01*
X71350001Y-52835267D01*
X71348550Y-52850000D01*
X71354342Y-52908810D01*
X71371497Y-52965360D01*
X71399353Y-53017477D01*
X71427451Y-53051714D01*
X71436843Y-53063158D01*
X71448285Y-53072548D01*
X74350000Y-55974265D01*
X74350001Y-62435267D01*
X74348550Y-62450000D01*
X74354342Y-62508810D01*
X74371497Y-62565360D01*
X74399353Y-62617477D01*
X74427451Y-62651714D01*
X74436843Y-62663158D01*
X74448285Y-62672548D01*
X74935337Y-63159601D01*
X73550000Y-63161250D01*
X73550000Y-56764733D01*
X73551451Y-56750000D01*
X73545659Y-56691190D01*
X73528504Y-56634640D01*
X73500647Y-56582523D01*
X73463158Y-56536842D01*
X73417477Y-56499353D01*
X73365360Y-56471496D01*
X73308810Y-56454341D01*
X73264733Y-56450000D01*
X73250000Y-56448549D01*
X73235267Y-56450000D01*
X63764733Y-56450000D01*
X63750000Y-56448549D01*
X63735267Y-56450000D01*
X63691190Y-56454341D01*
X63634640Y-56471496D01*
X63582523Y-56499353D01*
X63536842Y-56536842D01*
X63499353Y-56582523D01*
X63471496Y-56634640D01*
X63454341Y-56691190D01*
X63448549Y-56750000D01*
X63450000Y-56764733D01*
X63450000Y-63173274D01*
X62075000Y-63174911D01*
X62075000Y-56051049D01*
X66196438Y-56051049D01*
X66294985Y-56174002D01*
X66483992Y-56245017D01*
X66683222Y-56277793D01*
X66885017Y-56271073D01*
X67081624Y-56225112D01*
X67205015Y-56174002D01*
X67303562Y-56051049D01*
X66750000Y-55497487D01*
X66196438Y-56051049D01*
X62075000Y-56051049D01*
X62075000Y-55183222D01*
X65722207Y-55183222D01*
X65728927Y-55385017D01*
X65774888Y-55581624D01*
X65825998Y-55705015D01*
X65948951Y-55803562D01*
X66502513Y-55250000D01*
X66997487Y-55250000D01*
X67551049Y-55803562D01*
X67674002Y-55705015D01*
X67745017Y-55516008D01*
X67777793Y-55316778D01*
X67771073Y-55114983D01*
X67725112Y-54918376D01*
X67674002Y-54794985D01*
X67551049Y-54696438D01*
X66997487Y-55250000D01*
X66502513Y-55250000D01*
X65948951Y-54696438D01*
X65825998Y-54794985D01*
X65754983Y-54983992D01*
X65722207Y-55183222D01*
X62075000Y-55183222D01*
X62075000Y-54448951D01*
X66196438Y-54448951D01*
X66750000Y-55002513D01*
X67302513Y-54450000D01*
X69223912Y-54450000D01*
X69223912Y-56050000D01*
X69228256Y-56094108D01*
X69241122Y-56136520D01*
X69262015Y-56175608D01*
X69290132Y-56209868D01*
X69324392Y-56237985D01*
X69363480Y-56258878D01*
X69405892Y-56271744D01*
X69450000Y-56276088D01*
X71050000Y-56276088D01*
X71094108Y-56271744D01*
X71136520Y-56258878D01*
X71175608Y-56237985D01*
X71209868Y-56209868D01*
X71237985Y-56175608D01*
X71258878Y-56136520D01*
X71271744Y-56094108D01*
X71276088Y-56050000D01*
X71276088Y-54450000D01*
X71271744Y-54405892D01*
X71258878Y-54363480D01*
X71237985Y-54324392D01*
X71209868Y-54290132D01*
X71175608Y-54262015D01*
X71136520Y-54241122D01*
X71094108Y-54228256D01*
X71050000Y-54223912D01*
X69450000Y-54223912D01*
X69405892Y-54228256D01*
X69363480Y-54241122D01*
X69324392Y-54262015D01*
X69290132Y-54290132D01*
X69262015Y-54324392D01*
X69241122Y-54363480D01*
X69228256Y-54405892D01*
X69223912Y-54450000D01*
X67302513Y-54450000D01*
X67303562Y-54448951D01*
X67205015Y-54325998D01*
X67016008Y-54254983D01*
X66816778Y-54222207D01*
X66614983Y-54228927D01*
X66418376Y-54274888D01*
X66294985Y-54325998D01*
X66196438Y-54448951D01*
X62075000Y-54448951D01*
X62075000Y-47525000D01*
X66275000Y-47525000D01*
X66275000Y-48300000D01*
X66323071Y-48438078D01*
X66397156Y-48564125D01*
X66494409Y-48673296D01*
X66611091Y-48761397D01*
X66717093Y-48792524D01*
X66825000Y-48770447D01*
X66825000Y-47525000D01*
X66275000Y-47525000D01*
X62075000Y-47525000D01*
X62075000Y-46400000D01*
X66275000Y-46400000D01*
X66275000Y-47175000D01*
X66825000Y-47175000D01*
X66825000Y-45929553D01*
X66717093Y-45907476D01*
X66611091Y-45938603D01*
X66494409Y-46026704D01*
X66397156Y-46135875D01*
X66323071Y-46261922D01*
X66275000Y-46400000D01*
X62075000Y-46400000D01*
X62075000Y-44295000D01*
X66275000Y-44295000D01*
X66275000Y-44995000D01*
X66323071Y-45133078D01*
X66397156Y-45259125D01*
X66494409Y-45368296D01*
X66611091Y-45456397D01*
X66717093Y-45487524D01*
X66825000Y-45465447D01*
X66825000Y-44295000D01*
X66275000Y-44295000D01*
X62075000Y-44295000D01*
X62075000Y-43245000D01*
X66275000Y-43245000D01*
X66275000Y-43945000D01*
X66825000Y-43945000D01*
X66825000Y-42774553D01*
X66717093Y-42752476D01*
X66611091Y-42783603D01*
X66494409Y-42871704D01*
X66397156Y-42980875D01*
X66323071Y-43106922D01*
X66275000Y-43245000D01*
X62075000Y-43245000D01*
X62075000Y-41775000D01*
X65324762Y-41775000D01*
X65344130Y-41780875D01*
X65386010Y-41785000D01*
X67440001Y-41785000D01*
X67440001Y-42822180D01*
X67388909Y-42783603D01*
X67282907Y-42752476D01*
X67175000Y-42774553D01*
X67175000Y-43945000D01*
X67195000Y-43945000D01*
X67195000Y-44295000D01*
X67175000Y-44295000D01*
X67175000Y-45465447D01*
X67282907Y-45487524D01*
X67388909Y-45456397D01*
X67440000Y-45417820D01*
X67440000Y-45977180D01*
X67388909Y-45938603D01*
X67282907Y-45907476D01*
X67175000Y-45929553D01*
X67175000Y-47175000D01*
X67195000Y-47175000D01*
X67195000Y-47525000D01*
X67175000Y-47525000D01*
X67175000Y-48770447D01*
X67282907Y-48792524D01*
X67388909Y-48761397D01*
X67505591Y-48673296D01*
X67602844Y-48564125D01*
X67676929Y-48438078D01*
X67725000Y-48300000D01*
X67725000Y-47506378D01*
X67738990Y-47505000D01*
X77061010Y-47505000D01*
X77075000Y-47506378D01*
X77075000Y-48300000D01*
X77123071Y-48438078D01*
X77197156Y-48564125D01*
X77294409Y-48673296D01*
X77411091Y-48761397D01*
X77517093Y-48792524D01*
X77625000Y-48770447D01*
X77625000Y-47525000D01*
X77975000Y-47525000D01*
X77975000Y-48770447D01*
X78082907Y-48792524D01*
X78188909Y-48761397D01*
X78305591Y-48673296D01*
X78402844Y-48564125D01*
X78476929Y-48438078D01*
X78525000Y-48300000D01*
X78525000Y-47525000D01*
X77975000Y-47525000D01*
X77625000Y-47525000D01*
X77605000Y-47525000D01*
X77605000Y-47175000D01*
X77625000Y-47175000D01*
X77625000Y-45929553D01*
X77975000Y-45929553D01*
X77975000Y-47175000D01*
X78525000Y-47175000D01*
X78525000Y-46400000D01*
X78476929Y-46261922D01*
X78402844Y-46135875D01*
X78305591Y-46026704D01*
X78188909Y-45938603D01*
X78082907Y-45907476D01*
X77975000Y-45929553D01*
X77625000Y-45929553D01*
X77517093Y-45907476D01*
X77411091Y-45938603D01*
X77360000Y-45977179D01*
X77360000Y-45417821D01*
X77411091Y-45456397D01*
X77517093Y-45487524D01*
X77625000Y-45465447D01*
X77625000Y-44295000D01*
X77975000Y-44295000D01*
X77975000Y-45465447D01*
X78082907Y-45487524D01*
X78188909Y-45456397D01*
X78305591Y-45368296D01*
X78402844Y-45259125D01*
X78476929Y-45133078D01*
X78525000Y-44995000D01*
X78525000Y-44295000D01*
X77975000Y-44295000D01*
X77625000Y-44295000D01*
X77605000Y-44295000D01*
X77605000Y-43945000D01*
X77625000Y-43945000D01*
X77625000Y-42774553D01*
X77975000Y-42774553D01*
X77975000Y-43945000D01*
X78525000Y-43945000D01*
X78525000Y-43245000D01*
X78476929Y-43106922D01*
X78402844Y-42980875D01*
X78305591Y-42871704D01*
X78188909Y-42783603D01*
X78082907Y-42752476D01*
X77975000Y-42774553D01*
X77625000Y-42774553D01*
X77517093Y-42752476D01*
X77411091Y-42783603D01*
X77360000Y-42822179D01*
X77360000Y-41785000D01*
X79413990Y-41785000D01*
X79455870Y-41780875D01*
X79475238Y-41775000D01*
X88863503Y-41775000D01*
X88903909Y-41771020D01*
X88955747Y-41755296D01*
X89003521Y-41729760D01*
X89009260Y-41725050D01*
X95474950Y-41725050D01*
X95474951Y-48774950D01*
G37*
X95474951Y-48774950D02*
X95238953Y-48774950D01*
X95229134Y-48775917D01*
X95225414Y-48775891D01*
X95222287Y-48776198D01*
X95105829Y-48788438D01*
X95085859Y-48792537D01*
X95065812Y-48796361D01*
X95062812Y-48797268D01*
X95062805Y-48797269D01*
X95062799Y-48797272D01*
X94950942Y-48831897D01*
X94932160Y-48839792D01*
X94913227Y-48847441D01*
X94910453Y-48848916D01*
X94807446Y-48904612D01*
X94790539Y-48916015D01*
X94773466Y-48927188D01*
X94771031Y-48929173D01*
X94680805Y-49003816D01*
X94666430Y-49018292D01*
X94651860Y-49032560D01*
X94649857Y-49034981D01*
X94575846Y-49125726D01*
X94564564Y-49142708D01*
X94553034Y-49159546D01*
X94551540Y-49162310D01*
X94496565Y-49265703D01*
X94488797Y-49284549D01*
X94480756Y-49303310D01*
X94479828Y-49306308D01*
X94479828Y-49306310D01*
X94479827Y-49306312D01*
X94445982Y-49418413D01*
X94442013Y-49438459D01*
X94437780Y-49458373D01*
X94437451Y-49461498D01*
X94426024Y-49578039D01*
X94426024Y-49587881D01*
X94424962Y-49597664D01*
X94424951Y-49600806D01*
X94424966Y-49604995D01*
X94425960Y-49614767D01*
X94425891Y-49624586D01*
X94426198Y-49627713D01*
X94438438Y-49744170D01*
X94442536Y-49764133D01*
X94446361Y-49784188D01*
X94447268Y-49787188D01*
X94447269Y-49787195D01*
X94447272Y-49787201D01*
X94481897Y-49899058D01*
X94489792Y-49917840D01*
X94497441Y-49936773D01*
X94498915Y-49939543D01*
X94498917Y-49939548D01*
X94498918Y-49939549D01*
X94554612Y-50042554D01*
X94566015Y-50059461D01*
X94577188Y-50076534D01*
X94579174Y-50078969D01*
X94653816Y-50169195D01*
X94668288Y-50183567D01*
X94682559Y-50198140D01*
X94684980Y-50200143D01*
X94775726Y-50274154D01*
X94792741Y-50285459D01*
X94809547Y-50296966D01*
X94812305Y-50298457D01*
X94812309Y-50298460D01*
X94812313Y-50298462D01*
X94915704Y-50353435D01*
X94934535Y-50361197D01*
X94953310Y-50369244D01*
X94956308Y-50370172D01*
X94956314Y-50370174D01*
X95068413Y-50404018D01*
X95088459Y-50407987D01*
X95108373Y-50412220D01*
X95111498Y-50412549D01*
X95228039Y-50423976D01*
X95228048Y-50423976D01*
X95238953Y-50425050D01*
X95474951Y-50425050D01*
X95474950Y-53911046D01*
X95475910Y-53920790D01*
X95475888Y-53923888D01*
X95476195Y-53927015D01*
X95486395Y-54024063D01*
X95490495Y-54044040D01*
X95494318Y-54064080D01*
X95495224Y-54067078D01*
X95495226Y-54067088D01*
X95495230Y-54067097D01*
X95524083Y-54160307D01*
X95531992Y-54179122D01*
X95539629Y-54198024D01*
X95541104Y-54200798D01*
X95587516Y-54286636D01*
X95598920Y-54303543D01*
X95610091Y-54320614D01*
X95612077Y-54323049D01*
X95674279Y-54398237D01*
X95688752Y-54412609D01*
X95703022Y-54427182D01*
X95705443Y-54429185D01*
X95781064Y-54490861D01*
X95798074Y-54502163D01*
X95814887Y-54513674D01*
X95817651Y-54515169D01*
X95903811Y-54560981D01*
X95922698Y-54568765D01*
X95941416Y-54576788D01*
X95944415Y-54577716D01*
X95944419Y-54577718D01*
X95944423Y-54577719D01*
X96037835Y-54605922D01*
X96057813Y-54609878D01*
X96077798Y-54614126D01*
X96080919Y-54614454D01*
X96080923Y-54614454D01*
X96178040Y-54623976D01*
X96187868Y-54623976D01*
X96197632Y-54625037D01*
X96200774Y-54625049D01*
X96204265Y-54625037D01*
X96214052Y-54624043D01*
X96223888Y-54624112D01*
X96227015Y-54623805D01*
X96324063Y-54613605D01*
X96344040Y-54609505D01*
X96364080Y-54605682D01*
X96367078Y-54604776D01*
X96367088Y-54604774D01*
X96367097Y-54604770D01*
X96460307Y-54575917D01*
X96479122Y-54568008D01*
X96498024Y-54560371D01*
X96500793Y-54558899D01*
X96500797Y-54558897D01*
X96500800Y-54558895D01*
X96586636Y-54512484D01*
X96603543Y-54501080D01*
X96620614Y-54489909D01*
X96623049Y-54487923D01*
X96698237Y-54425721D01*
X96712609Y-54411248D01*
X96727182Y-54396978D01*
X96729185Y-54394557D01*
X96790861Y-54318936D01*
X96802163Y-54301926D01*
X96813674Y-54285113D01*
X96815169Y-54282349D01*
X96860981Y-54196189D01*
X96868765Y-54177302D01*
X96876788Y-54158584D01*
X96877717Y-54155583D01*
X96886936Y-54125050D01*
X100813169Y-54125050D01*
X100824083Y-54160307D01*
X100831992Y-54179122D01*
X100839629Y-54198024D01*
X100841104Y-54200798D01*
X100887516Y-54286636D01*
X100898920Y-54303543D01*
X100910091Y-54320614D01*
X100912077Y-54323049D01*
X100974279Y-54398237D01*
X100988752Y-54412609D01*
X101003022Y-54427182D01*
X101005443Y-54429185D01*
X101081064Y-54490861D01*
X101098074Y-54502163D01*
X101114887Y-54513674D01*
X101117651Y-54515169D01*
X101203811Y-54560981D01*
X101222698Y-54568765D01*
X101241416Y-54576788D01*
X101244415Y-54577716D01*
X101244419Y-54577718D01*
X101244423Y-54577719D01*
X101337835Y-54605922D01*
X101357813Y-54609878D01*
X101377798Y-54614126D01*
X101380919Y-54614454D01*
X101380923Y-54614454D01*
X101478040Y-54623976D01*
X101487868Y-54623976D01*
X101497632Y-54625037D01*
X101500774Y-54625049D01*
X101504265Y-54625037D01*
X101514052Y-54624043D01*
X101523888Y-54624112D01*
X101527015Y-54623805D01*
X101624063Y-54613605D01*
X101644040Y-54609505D01*
X101664080Y-54605682D01*
X101667078Y-54604776D01*
X101667088Y-54604774D01*
X101667097Y-54604770D01*
X101760307Y-54575917D01*
X101779122Y-54568008D01*
X101798024Y-54560371D01*
X101800793Y-54558899D01*
X101800797Y-54558897D01*
X101800800Y-54558895D01*
X101886636Y-54512484D01*
X101903543Y-54501080D01*
X101920614Y-54489909D01*
X101923049Y-54487923D01*
X101998237Y-54425721D01*
X102012609Y-54411248D01*
X102027182Y-54396978D01*
X102029185Y-54394557D01*
X102090861Y-54318936D01*
X102102163Y-54301926D01*
X102113674Y-54285113D01*
X102115169Y-54282349D01*
X102160981Y-54196189D01*
X102168765Y-54177302D01*
X102176788Y-54158584D01*
X102177717Y-54155583D01*
X102205922Y-54062165D01*
X102209878Y-54042187D01*
X102214126Y-54022202D01*
X102214454Y-54019077D01*
X102223976Y-53921960D01*
X102223976Y-53921952D01*
X102225050Y-53911047D01*
X102225050Y-50425050D01*
X102461047Y-50425050D01*
X102470866Y-50424083D01*
X102474586Y-50424109D01*
X102477713Y-50423802D01*
X102594170Y-50411562D01*
X102614133Y-50407464D01*
X102634188Y-50403639D01*
X102637188Y-50402732D01*
X102637195Y-50402731D01*
X102637201Y-50402728D01*
X102749058Y-50368103D01*
X102767840Y-50360208D01*
X102786773Y-50352559D01*
X102789543Y-50351085D01*
X102789548Y-50351083D01*
X102789552Y-50351080D01*
X102892554Y-50295388D01*
X102909461Y-50283985D01*
X102926534Y-50272812D01*
X102928969Y-50270826D01*
X103019195Y-50196184D01*
X103033567Y-50181712D01*
X103048140Y-50167441D01*
X103050143Y-50165020D01*
X103124154Y-50074274D01*
X103135459Y-50057259D01*
X103146966Y-50040453D01*
X103148457Y-50037695D01*
X103148460Y-50037691D01*
X103148462Y-50037687D01*
X103203435Y-49934296D01*
X103211197Y-49915465D01*
X103219244Y-49896690D01*
X103220173Y-49893688D01*
X103254018Y-49781587D01*
X103257987Y-49761541D01*
X103262220Y-49741627D01*
X103262549Y-49738502D01*
X103273976Y-49621961D01*
X103273976Y-49612119D01*
X103275038Y-49602336D01*
X103275049Y-49599194D01*
X103275034Y-49595005D01*
X103274040Y-49585233D01*
X103274109Y-49575414D01*
X103273802Y-49572287D01*
X103261562Y-49455829D01*
X103257463Y-49435859D01*
X103253639Y-49415812D01*
X103252732Y-49412812D01*
X103252731Y-49412805D01*
X103252728Y-49412799D01*
X103218103Y-49300942D01*
X103210208Y-49282160D01*
X103202559Y-49263227D01*
X103201084Y-49260453D01*
X103145388Y-49157446D01*
X103133985Y-49140539D01*
X103122812Y-49123466D01*
X103120827Y-49121031D01*
X103046184Y-49030805D01*
X103031708Y-49016430D01*
X103017440Y-49001860D01*
X103015019Y-48999857D01*
X102924274Y-48925846D01*
X102907292Y-48914564D01*
X102890454Y-48903034D01*
X102887690Y-48901540D01*
X102784297Y-48846565D01*
X102765451Y-48838797D01*
X102746690Y-48830756D01*
X102743692Y-48829828D01*
X102743686Y-48829826D01*
X102631587Y-48795982D01*
X102611541Y-48792013D01*
X102591627Y-48787780D01*
X102588502Y-48787451D01*
X102471961Y-48776024D01*
X102471952Y-48776024D01*
X102461047Y-48774950D01*
X102225050Y-48774950D01*
X102225050Y-41725050D01*
X108690740Y-41725050D01*
X108696479Y-41729760D01*
X108744253Y-41755296D01*
X108796091Y-41771020D01*
X108836497Y-41775000D01*
X117925000Y-41775000D01*
X117925000Y-63925000D01*
X110037087Y-63925000D01*
X110116829Y-63858461D01*
X110206094Y-63747863D01*
X110267524Y-63632907D01*
X110245447Y-63525000D01*
X109775000Y-63525000D01*
X109775000Y-63545000D01*
X109425000Y-63545000D01*
X109425000Y-63525000D01*
X109405000Y-63525000D01*
X109405000Y-63175000D01*
X109425000Y-63175000D01*
X109425000Y-62255000D01*
X109775000Y-62255000D01*
X109775000Y-63175000D01*
X110245447Y-63175000D01*
X110267524Y-63067093D01*
X110206094Y-62952137D01*
X110116829Y-62841539D01*
X110007703Y-62750481D01*
X109942606Y-62715000D01*
X110007703Y-62679519D01*
X110116829Y-62588461D01*
X110206094Y-62477863D01*
X110267524Y-62362907D01*
X110245447Y-62255000D01*
X109775000Y-62255000D01*
X109425000Y-62255000D01*
X109405000Y-62255000D01*
X109405000Y-61905000D01*
X109425000Y-61905000D01*
X109425000Y-61885000D01*
X109775000Y-61885000D01*
X109775000Y-61905000D01*
X110245447Y-61905000D01*
X110267524Y-61797093D01*
X110206094Y-61682137D01*
X110116829Y-61571539D01*
X110007703Y-61480481D01*
X109949223Y-61448607D01*
X110062161Y-61373144D01*
X110163144Y-61272161D01*
X110242487Y-61153416D01*
X110297139Y-61021475D01*
X110325000Y-60881406D01*
X110325000Y-60738594D01*
X110297139Y-60598525D01*
X110242487Y-60466584D01*
X110163144Y-60347839D01*
X110062161Y-60246856D01*
X109949223Y-60171393D01*
X110007703Y-60139519D01*
X110116829Y-60048461D01*
X110206094Y-59937863D01*
X110267524Y-59822907D01*
X110245447Y-59715000D01*
X109775000Y-59715000D01*
X109775000Y-59735000D01*
X109425000Y-59735000D01*
X109425000Y-59715000D01*
X109405000Y-59715000D01*
X109405000Y-59365000D01*
X109425000Y-59365000D01*
X109425000Y-59345000D01*
X109775000Y-59345000D01*
X109775000Y-59365000D01*
X110245447Y-59365000D01*
X110267524Y-59257093D01*
X110206094Y-59142137D01*
X110116829Y-59031539D01*
X110007703Y-58940481D01*
X109949223Y-58908607D01*
X110062161Y-58833144D01*
X110163144Y-58732161D01*
X110242487Y-58613416D01*
X110297139Y-58481475D01*
X110325000Y-58341406D01*
X110325000Y-58198594D01*
X110297139Y-58058525D01*
X110242487Y-57926584D01*
X110163144Y-57807839D01*
X110062161Y-57706856D01*
X109943416Y-57627513D01*
X109811475Y-57572861D01*
X109671406Y-57545000D01*
X109528594Y-57545000D01*
X109388525Y-57572861D01*
X109256584Y-57627513D01*
X109137839Y-57706856D01*
X109036856Y-57807839D01*
X108965000Y-57915379D01*
X108893144Y-57807839D01*
X108792161Y-57706856D01*
X108673416Y-57627513D01*
X108541475Y-57572861D01*
X108401406Y-57545000D01*
X108258594Y-57545000D01*
X108118525Y-57572861D01*
X107986584Y-57627513D01*
X107867839Y-57706856D01*
X107766856Y-57807839D01*
X107687513Y-57926584D01*
X107632861Y-58058525D01*
X107605000Y-58198594D01*
X107605000Y-58341406D01*
X107632861Y-58481475D01*
X107687513Y-58613416D01*
X107766856Y-58732161D01*
X107867839Y-58833144D01*
X107975379Y-58905000D01*
X107867839Y-58976856D01*
X107766856Y-59077839D01*
X107687513Y-59196584D01*
X107632861Y-59328525D01*
X107605000Y-59468594D01*
X107605000Y-59611406D01*
X107632861Y-59751475D01*
X107687513Y-59883416D01*
X107766856Y-60002161D01*
X107867839Y-60103144D01*
X107975379Y-60175000D01*
X107867839Y-60246856D01*
X107766856Y-60347839D01*
X107687513Y-60466584D01*
X107632861Y-60598525D01*
X107605000Y-60738594D01*
X107605000Y-60881406D01*
X107632861Y-61021475D01*
X107687513Y-61153416D01*
X107766856Y-61272161D01*
X107867839Y-61373144D01*
X107975379Y-61445000D01*
X107867839Y-61516856D01*
X107766856Y-61617839D01*
X107687513Y-61736584D01*
X107632861Y-61868525D01*
X107605000Y-62008594D01*
X107605000Y-62151406D01*
X107632861Y-62291475D01*
X107687513Y-62423416D01*
X107766856Y-62542161D01*
X107867839Y-62643144D01*
X107975379Y-62715000D01*
X107867839Y-62786856D01*
X107766856Y-62887839D01*
X107687513Y-63006584D01*
X107632861Y-63138525D01*
X107605000Y-63278594D01*
X107605000Y-63421406D01*
X107632861Y-63561475D01*
X107656702Y-63619033D01*
X107350736Y-63925000D01*
X94008918Y-63925000D01*
X94034668Y-63907794D01*
X94107794Y-63834668D01*
X94165249Y-63748681D01*
X94204824Y-63653137D01*
X94225000Y-63551708D01*
X94225000Y-63448292D01*
X94204824Y-63346863D01*
X94165249Y-63251319D01*
X94107794Y-63165332D01*
X94034668Y-63092206D01*
X93948681Y-63034751D01*
X93853137Y-62995176D01*
X93751708Y-62975000D01*
X93648292Y-62975000D01*
X93546863Y-62995176D01*
X93451319Y-63034751D01*
X93365332Y-63092206D01*
X93292206Y-63165332D01*
X93269041Y-63200000D01*
X89124264Y-63200000D01*
X88500000Y-62575737D01*
X88500000Y-59430959D01*
X88534668Y-59407794D01*
X88607794Y-59334668D01*
X88665249Y-59248681D01*
X88704824Y-59153137D01*
X88725000Y-59051708D01*
X88725000Y-58948292D01*
X88704824Y-58846863D01*
X88665249Y-58751319D01*
X88607794Y-58665332D01*
X88534668Y-58592206D01*
X88448681Y-58534751D01*
X88353137Y-58495176D01*
X88251708Y-58475000D01*
X88148292Y-58475000D01*
X88046863Y-58495176D01*
X87951319Y-58534751D01*
X87865332Y-58592206D01*
X87792206Y-58665332D01*
X87734751Y-58751319D01*
X87700000Y-58835217D01*
X87700000Y-48614730D01*
X87701451Y-48600000D01*
X87700000Y-48585267D01*
X87695659Y-48541190D01*
X87678504Y-48484640D01*
X87678504Y-48484639D01*
X87650647Y-48432522D01*
X87622550Y-48398285D01*
X87622544Y-48398279D01*
X87613158Y-48386842D01*
X87601721Y-48377456D01*
X86022553Y-46798290D01*
X86013158Y-46786842D01*
X85967477Y-46749353D01*
X85915360Y-46721496D01*
X85858810Y-46704341D01*
X85814733Y-46700000D01*
X85814723Y-46700000D01*
X85800000Y-46698550D01*
X85785277Y-46700000D01*
X85414722Y-46700000D01*
X85399999Y-46698550D01*
X85385276Y-46700000D01*
X85385267Y-46700000D01*
X85341190Y-46704341D01*
X85284640Y-46721496D01*
X85260379Y-46734464D01*
X85232522Y-46749353D01*
X85198285Y-46777451D01*
X85186842Y-46786842D01*
X85177451Y-46798285D01*
X84950737Y-47025000D01*
X83000000Y-47025000D01*
X82985368Y-47026441D01*
X82971299Y-47030709D01*
X82958332Y-47037640D01*
X82946967Y-47046967D01*
X82937640Y-47058332D01*
X82930709Y-47071299D01*
X82926441Y-47085368D01*
X82925000Y-47100000D01*
X82925000Y-63150089D01*
X78080121Y-63155857D01*
X77622553Y-62698290D01*
X77613158Y-62686842D01*
X77567477Y-62649353D01*
X77515360Y-62621496D01*
X77458810Y-62604341D01*
X77414733Y-62600000D01*
X77414723Y-62600000D01*
X77400000Y-62598550D01*
X77385277Y-62600000D01*
X77121503Y-62600000D01*
X77184668Y-62557794D01*
X77257794Y-62484668D01*
X77315249Y-62398681D01*
X77354824Y-62303137D01*
X77375000Y-62201708D01*
X77375000Y-62098292D01*
X77354824Y-61996863D01*
X77315249Y-61901319D01*
X77257794Y-61815332D01*
X77184668Y-61742206D01*
X77098681Y-61684751D01*
X77003137Y-61645176D01*
X76901708Y-61625000D01*
X76798292Y-61625000D01*
X76757398Y-61633135D01*
X76750000Y-61625737D01*
X76750000Y-56048292D01*
X77975000Y-56048292D01*
X77975000Y-56151708D01*
X77995176Y-56253137D01*
X78034751Y-56348681D01*
X78092206Y-56434668D01*
X78165332Y-56507794D01*
X78251319Y-56565249D01*
X78346863Y-56604824D01*
X78448292Y-56625000D01*
X78551708Y-56625000D01*
X78592602Y-56616865D01*
X80600000Y-58624264D01*
X80600001Y-60369041D01*
X80565332Y-60392206D01*
X80492206Y-60465332D01*
X80434751Y-60551319D01*
X80395176Y-60646863D01*
X80375000Y-60748292D01*
X80375000Y-60851708D01*
X80395176Y-60953137D01*
X80434751Y-61048681D01*
X80492206Y-61134668D01*
X80565332Y-61207794D01*
X80651319Y-61265249D01*
X80746863Y-61304824D01*
X80848292Y-61325000D01*
X80951708Y-61325000D01*
X81053137Y-61304824D01*
X81148681Y-61265249D01*
X81234668Y-61207794D01*
X81307794Y-61134668D01*
X81365249Y-61048681D01*
X81404824Y-60953137D01*
X81425000Y-60851708D01*
X81425000Y-60748292D01*
X81404824Y-60646863D01*
X81365249Y-60551319D01*
X81307794Y-60465332D01*
X81234668Y-60392206D01*
X81200000Y-60369041D01*
X81200000Y-58514730D01*
X81201451Y-58500000D01*
X81200000Y-58485267D01*
X81195659Y-58441190D01*
X81178504Y-58384640D01*
X81150648Y-58332524D01*
X81150647Y-58332522D01*
X81122550Y-58298286D01*
X81122549Y-58298285D01*
X81113158Y-58286842D01*
X81101717Y-58277453D01*
X79016865Y-56192602D01*
X79025000Y-56151708D01*
X79025000Y-56048292D01*
X79004824Y-55946863D01*
X78965249Y-55851319D01*
X78907794Y-55765332D01*
X78834668Y-55692206D01*
X78748681Y-55634751D01*
X78653137Y-55595176D01*
X78551708Y-55575000D01*
X78448292Y-55575000D01*
X78346863Y-55595176D01*
X78251319Y-55634751D01*
X78165332Y-55692206D01*
X78092206Y-55765332D01*
X78034751Y-55851319D01*
X77995176Y-55946863D01*
X77975000Y-56048292D01*
X76750000Y-56048292D01*
X76750000Y-55264722D01*
X76751450Y-55249999D01*
X76750000Y-55235276D01*
X76750000Y-55235267D01*
X76745659Y-55191190D01*
X76728504Y-55134640D01*
X76700648Y-55082524D01*
X76700647Y-55082522D01*
X76672549Y-55048285D01*
X76663158Y-55036842D01*
X76651717Y-55027453D01*
X73550000Y-51925737D01*
X73550000Y-50625000D01*
X73651708Y-50625000D01*
X73753137Y-50604824D01*
X73848681Y-50565249D01*
X73934668Y-50507794D01*
X74007794Y-50434668D01*
X74065249Y-50348681D01*
X74104824Y-50253137D01*
X74125000Y-50151708D01*
X74125000Y-50048292D01*
X74104824Y-49946863D01*
X74065249Y-49851319D01*
X74007794Y-49765332D01*
X73934668Y-49692206D01*
X73848681Y-49634751D01*
X73753137Y-49595176D01*
X73651708Y-49575000D01*
X73548292Y-49575000D01*
X73446863Y-49595176D01*
X73351319Y-49634751D01*
X73265332Y-49692206D01*
X73192206Y-49765332D01*
X73134751Y-49851319D01*
X73095176Y-49946863D01*
X73075000Y-50048292D01*
X73075000Y-50151708D01*
X73083135Y-50192602D01*
X73048290Y-50227447D01*
X73036842Y-50236842D01*
X73018845Y-50258772D01*
X73000000Y-50281735D01*
X73000000Y-49930957D01*
X73034668Y-49907792D01*
X73107794Y-49834666D01*
X73165249Y-49748679D01*
X73204824Y-49653135D01*
X73225000Y-49551706D01*
X73225000Y-49448290D01*
X73204824Y-49346861D01*
X73165249Y-49251317D01*
X73107794Y-49165330D01*
X73034668Y-49092204D01*
X72948681Y-49034749D01*
X72853137Y-48995174D01*
X72751708Y-48974998D01*
X72648292Y-48974998D01*
X72546863Y-48995174D01*
X72451319Y-49034749D01*
X72365332Y-49092204D01*
X72292206Y-49165330D01*
X72269041Y-49199998D01*
X72030957Y-49199998D01*
X72007794Y-49165332D01*
X71934668Y-49092206D01*
X71848681Y-49034751D01*
X71753137Y-48995176D01*
X71651708Y-48975000D01*
X71548292Y-48975000D01*
X71446863Y-48995176D01*
X71351319Y-49034751D01*
X71265332Y-49092206D01*
X71192206Y-49165332D01*
X71134751Y-49251319D01*
X71095176Y-49346863D01*
X71075000Y-49448292D01*
X71075000Y-49551708D01*
X71079633Y-49575000D01*
X71048292Y-49575000D01*
X70946863Y-49595176D01*
X70851319Y-49634751D01*
X70765332Y-49692206D01*
X70692206Y-49765332D01*
X70634751Y-49851319D01*
X70595176Y-49946863D01*
X70575000Y-50048292D01*
X70575000Y-50151708D01*
X70595176Y-50253137D01*
X70634751Y-50348681D01*
X70692206Y-50434668D01*
X70765332Y-50507794D01*
X70851319Y-50565249D01*
X70946863Y-50604824D01*
X71048292Y-50625000D01*
X71151708Y-50625000D01*
X71192602Y-50616865D01*
X71350000Y-50774264D01*
X71350001Y-52835267D01*
X71348550Y-52850000D01*
X71354342Y-52908810D01*
X71371497Y-52965360D01*
X71399353Y-53017477D01*
X71427451Y-53051714D01*
X71436843Y-53063158D01*
X71448285Y-53072548D01*
X74350000Y-55974265D01*
X74350001Y-62435267D01*
X74348550Y-62450000D01*
X74354342Y-62508810D01*
X74371497Y-62565360D01*
X74399353Y-62617477D01*
X74427451Y-62651714D01*
X74436843Y-62663158D01*
X74448285Y-62672548D01*
X74935337Y-63159601D01*
X73550000Y-63161250D01*
X73550000Y-56764733D01*
X73551451Y-56750000D01*
X73545659Y-56691190D01*
X73528504Y-56634640D01*
X73500647Y-56582523D01*
X73463158Y-56536842D01*
X73417477Y-56499353D01*
X73365360Y-56471496D01*
X73308810Y-56454341D01*
X73264733Y-56450000D01*
X73250000Y-56448549D01*
X73235267Y-56450000D01*
X63764733Y-56450000D01*
X63750000Y-56448549D01*
X63735267Y-56450000D01*
X63691190Y-56454341D01*
X63634640Y-56471496D01*
X63582523Y-56499353D01*
X63536842Y-56536842D01*
X63499353Y-56582523D01*
X63471496Y-56634640D01*
X63454341Y-56691190D01*
X63448549Y-56750000D01*
X63450000Y-56764733D01*
X63450000Y-63173274D01*
X62075000Y-63174911D01*
X62075000Y-56051049D01*
X66196438Y-56051049D01*
X66294985Y-56174002D01*
X66483992Y-56245017D01*
X66683222Y-56277793D01*
X66885017Y-56271073D01*
X67081624Y-56225112D01*
X67205015Y-56174002D01*
X67303562Y-56051049D01*
X66750000Y-55497487D01*
X66196438Y-56051049D01*
X62075000Y-56051049D01*
X62075000Y-55183222D01*
X65722207Y-55183222D01*
X65728927Y-55385017D01*
X65774888Y-55581624D01*
X65825998Y-55705015D01*
X65948951Y-55803562D01*
X66502513Y-55250000D01*
X66997487Y-55250000D01*
X67551049Y-55803562D01*
X67674002Y-55705015D01*
X67745017Y-55516008D01*
X67777793Y-55316778D01*
X67771073Y-55114983D01*
X67725112Y-54918376D01*
X67674002Y-54794985D01*
X67551049Y-54696438D01*
X66997487Y-55250000D01*
X66502513Y-55250000D01*
X65948951Y-54696438D01*
X65825998Y-54794985D01*
X65754983Y-54983992D01*
X65722207Y-55183222D01*
X62075000Y-55183222D01*
X62075000Y-54448951D01*
X66196438Y-54448951D01*
X66750000Y-55002513D01*
X67302513Y-54450000D01*
X69223912Y-54450000D01*
X69223912Y-56050000D01*
X69228256Y-56094108D01*
X69241122Y-56136520D01*
X69262015Y-56175608D01*
X69290132Y-56209868D01*
X69324392Y-56237985D01*
X69363480Y-56258878D01*
X69405892Y-56271744D01*
X69450000Y-56276088D01*
X71050000Y-56276088D01*
X71094108Y-56271744D01*
X71136520Y-56258878D01*
X71175608Y-56237985D01*
X71209868Y-56209868D01*
X71237985Y-56175608D01*
X71258878Y-56136520D01*
X71271744Y-56094108D01*
X71276088Y-56050000D01*
X71276088Y-54450000D01*
X71271744Y-54405892D01*
X71258878Y-54363480D01*
X71237985Y-54324392D01*
X71209868Y-54290132D01*
X71175608Y-54262015D01*
X71136520Y-54241122D01*
X71094108Y-54228256D01*
X71050000Y-54223912D01*
X69450000Y-54223912D01*
X69405892Y-54228256D01*
X69363480Y-54241122D01*
X69324392Y-54262015D01*
X69290132Y-54290132D01*
X69262015Y-54324392D01*
X69241122Y-54363480D01*
X69228256Y-54405892D01*
X69223912Y-54450000D01*
X67302513Y-54450000D01*
X67303562Y-54448951D01*
X67205015Y-54325998D01*
X67016008Y-54254983D01*
X66816778Y-54222207D01*
X66614983Y-54228927D01*
X66418376Y-54274888D01*
X66294985Y-54325998D01*
X66196438Y-54448951D01*
X62075000Y-54448951D01*
X62075000Y-47525000D01*
X66275000Y-47525000D01*
X66275000Y-48300000D01*
X66323071Y-48438078D01*
X66397156Y-48564125D01*
X66494409Y-48673296D01*
X66611091Y-48761397D01*
X66717093Y-48792524D01*
X66825000Y-48770447D01*
X66825000Y-47525000D01*
X66275000Y-47525000D01*
X62075000Y-47525000D01*
X62075000Y-46400000D01*
X66275000Y-46400000D01*
X66275000Y-47175000D01*
X66825000Y-47175000D01*
X66825000Y-45929553D01*
X66717093Y-45907476D01*
X66611091Y-45938603D01*
X66494409Y-46026704D01*
X66397156Y-46135875D01*
X66323071Y-46261922D01*
X66275000Y-46400000D01*
X62075000Y-46400000D01*
X62075000Y-44295000D01*
X66275000Y-44295000D01*
X66275000Y-44995000D01*
X66323071Y-45133078D01*
X66397156Y-45259125D01*
X66494409Y-45368296D01*
X66611091Y-45456397D01*
X66717093Y-45487524D01*
X66825000Y-45465447D01*
X66825000Y-44295000D01*
X66275000Y-44295000D01*
X62075000Y-44295000D01*
X62075000Y-43245000D01*
X66275000Y-43245000D01*
X66275000Y-43945000D01*
X66825000Y-43945000D01*
X66825000Y-42774553D01*
X66717093Y-42752476D01*
X66611091Y-42783603D01*
X66494409Y-42871704D01*
X66397156Y-42980875D01*
X66323071Y-43106922D01*
X66275000Y-43245000D01*
X62075000Y-43245000D01*
X62075000Y-41775000D01*
X65324762Y-41775000D01*
X65344130Y-41780875D01*
X65386010Y-41785000D01*
X67440001Y-41785000D01*
X67440001Y-42822180D01*
X67388909Y-42783603D01*
X67282907Y-42752476D01*
X67175000Y-42774553D01*
X67175000Y-43945000D01*
X67195000Y-43945000D01*
X67195000Y-44295000D01*
X67175000Y-44295000D01*
X67175000Y-45465447D01*
X67282907Y-45487524D01*
X67388909Y-45456397D01*
X67440000Y-45417820D01*
X67440000Y-45977180D01*
X67388909Y-45938603D01*
X67282907Y-45907476D01*
X67175000Y-45929553D01*
X67175000Y-47175000D01*
X67195000Y-47175000D01*
X67195000Y-47525000D01*
X67175000Y-47525000D01*
X67175000Y-48770447D01*
X67282907Y-48792524D01*
X67388909Y-48761397D01*
X67505591Y-48673296D01*
X67602844Y-48564125D01*
X67676929Y-48438078D01*
X67725000Y-48300000D01*
X67725000Y-47506378D01*
X67738990Y-47505000D01*
X77061010Y-47505000D01*
X77075000Y-47506378D01*
X77075000Y-48300000D01*
X77123071Y-48438078D01*
X77197156Y-48564125D01*
X77294409Y-48673296D01*
X77411091Y-48761397D01*
X77517093Y-48792524D01*
X77625000Y-48770447D01*
X77625000Y-47525000D01*
X77975000Y-47525000D01*
X77975000Y-48770447D01*
X78082907Y-48792524D01*
X78188909Y-48761397D01*
X78305591Y-48673296D01*
X78402844Y-48564125D01*
X78476929Y-48438078D01*
X78525000Y-48300000D01*
X78525000Y-47525000D01*
X77975000Y-47525000D01*
X77625000Y-47525000D01*
X77605000Y-47525000D01*
X77605000Y-47175000D01*
X77625000Y-47175000D01*
X77625000Y-45929553D01*
X77975000Y-45929553D01*
X77975000Y-47175000D01*
X78525000Y-47175000D01*
X78525000Y-46400000D01*
X78476929Y-46261922D01*
X78402844Y-46135875D01*
X78305591Y-46026704D01*
X78188909Y-45938603D01*
X78082907Y-45907476D01*
X77975000Y-45929553D01*
X77625000Y-45929553D01*
X77517093Y-45907476D01*
X77411091Y-45938603D01*
X77360000Y-45977179D01*
X77360000Y-45417821D01*
X77411091Y-45456397D01*
X77517093Y-45487524D01*
X77625000Y-45465447D01*
X77625000Y-44295000D01*
X77975000Y-44295000D01*
X77975000Y-45465447D01*
X78082907Y-45487524D01*
X78188909Y-45456397D01*
X78305591Y-45368296D01*
X78402844Y-45259125D01*
X78476929Y-45133078D01*
X78525000Y-44995000D01*
X78525000Y-44295000D01*
X77975000Y-44295000D01*
X77625000Y-44295000D01*
X77605000Y-44295000D01*
X77605000Y-43945000D01*
X77625000Y-43945000D01*
X77625000Y-42774553D01*
X77975000Y-42774553D01*
X77975000Y-43945000D01*
X78525000Y-43945000D01*
X78525000Y-43245000D01*
X78476929Y-43106922D01*
X78402844Y-42980875D01*
X78305591Y-42871704D01*
X78188909Y-42783603D01*
X78082907Y-42752476D01*
X77975000Y-42774553D01*
X77625000Y-42774553D01*
X77517093Y-42752476D01*
X77411091Y-42783603D01*
X77360000Y-42822179D01*
X77360000Y-41785000D01*
X79413990Y-41785000D01*
X79455870Y-41780875D01*
X79475238Y-41775000D01*
X88863503Y-41775000D01*
X88903909Y-41771020D01*
X88955747Y-41755296D01*
X89003521Y-41729760D01*
X89009260Y-41725050D01*
X95474950Y-41725050D01*
X95474951Y-48774950D01*
%TD*%
M02*
