%TF.GenerationSoftware,KiCad,Pcbnew,(5.1.5)-3*%
%TF.CreationDate,2020-04-21T20:59:25+02:00*%
%TF.ProjectId,loeti,6c6f6574-692e-46b6-9963-61645f706362,rev?*%
%TF.SameCoordinates,Original*%
%TF.FileFunction,Profile,NP*%
%FSLAX46Y46*%
G04 Gerber Fmt 4.6, Leading zero omitted, Abs format (unit mm)*
G04 Created by KiCad (PCBNEW (5.1.5)-3) date 2020-04-21 20:59:25*
%MOMM*%
%LPD*%
G04 APERTURE LIST*
%TA.AperFunction,Profile*%
%ADD10C,0.100000*%
%TD*%
%TA.AperFunction,Profile*%
%ADD11C,0.150000*%
%TD*%
%TA.AperFunction,Profile*%
%ADD12C,0.000100*%
%TD*%
%TA.AperFunction,Profile*%
%ADD13C,0.120000*%
%TD*%
G04 APERTURE END LIST*
D10*
X88850000Y-41500000D02*
X79400000Y-41500000D01*
D11*
X73250000Y-78250000D02*
X73250000Y-56750000D01*
X63750000Y-78250000D02*
X73250000Y-78250000D01*
X63750000Y-56750000D02*
X63750000Y-78250000D01*
X73250000Y-56750000D02*
X63750000Y-56750000D01*
D10*
X120000000Y-121500000D02*
X60000000Y-121500000D01*
X120000000Y-41500000D02*
X120000000Y-121500000D01*
X108850000Y-41500000D02*
X120000000Y-41500000D01*
X60000000Y-41500000D02*
X65400000Y-41500000D01*
X60000000Y-41500000D02*
X60000000Y-121500000D01*
D12*
%TO.C,J3*%
X102000000Y-41500000D02*
X102000000Y-49000000D01*
X102000000Y-50200000D02*
X102000000Y-53900000D01*
X101000000Y-53900000D02*
X96700000Y-53900000D01*
X95700000Y-53900000D02*
X95700000Y-50200000D01*
X95700000Y-41500000D02*
X95700000Y-49000000D01*
X102000000Y-41500000D02*
X108850000Y-41500000D01*
X95700000Y-41500000D02*
X88850000Y-41500000D01*
X102000000Y-53900000D02*
G75*
G02X101500000Y-54400000I-500000J0D01*
G01*
X101500000Y-54400000D02*
G75*
G02X101000000Y-53900000I0J500000D01*
G01*
X96700000Y-53900000D02*
G75*
G02X96200000Y-54400000I-500000J0D01*
G01*
X96200000Y-54400000D02*
G75*
G02X95700000Y-53900000I0J500000D01*
G01*
X102000000Y-49000000D02*
X102450000Y-49000000D01*
X102000000Y-50200000D02*
X102450000Y-50200000D01*
X102450000Y-49000000D02*
G75*
G02X103050000Y-49600000I0J-600000D01*
G01*
X103050000Y-49600000D02*
G75*
G02X102450000Y-50200000I-600000J0D01*
G01*
X95700000Y-49000000D02*
X95250000Y-49000000D01*
X95700000Y-50200000D02*
X95250000Y-50200000D01*
X95250000Y-50200000D02*
G75*
G02X94650000Y-49600000I0J600000D01*
G01*
X94650000Y-49600000D02*
G75*
G02X95250000Y-49000000I600000J0D01*
G01*
D13*
%TO.C,J1*%
X79400000Y-41500000D02*
X77075000Y-41500000D01*
X67725000Y-41500000D02*
X65400000Y-41500000D01*
X67725000Y-47220000D02*
X77075000Y-47220000D01*
X67725000Y-47220000D02*
X67725000Y-41500000D01*
X77075000Y-47220000D02*
X77075000Y-41500000D01*
%TD*%
M02*
