%TF.GenerationSoftware,KiCad,Pcbnew,(5.1.5)-3*%
%TF.CreationDate,2020-04-21T20:59:25+02:00*%
%TF.ProjectId,loeti,6c6f6574-692e-46b6-9963-61645f706362,rev?*%
%TF.SameCoordinates,Original*%
%TF.FileFunction,Legend,Top*%
%TF.FilePolarity,Positive*%
%FSLAX46Y46*%
G04 Gerber Fmt 4.6, Leading zero omitted, Abs format (unit mm)*
G04 Created by KiCad (PCBNEW (5.1.5)-3) date 2020-04-21 20:59:25*
%MOMM*%
%LPD*%
G04 APERTURE LIST*
%ADD10C,0.150000*%
%ADD11C,0.500000*%
%ADD12C,0.120000*%
%ADD13C,0.127000*%
%ADD14C,0.200000*%
G04 APERTURE END LIST*
D10*
X111350000Y-62100000D02*
G75*
G03X111350000Y-62100000I-600000J0D01*
G01*
D11*
X87166666Y-91761904D02*
X84785714Y-91761904D01*
X84785714Y-86761904D01*
X89547619Y-91761904D02*
X89071428Y-91523809D01*
X88833333Y-91285714D01*
X88595238Y-90809523D01*
X88595238Y-89380952D01*
X88833333Y-88904761D01*
X89071428Y-88666666D01*
X89547619Y-88428571D01*
X90261904Y-88428571D01*
X90738095Y-88666666D01*
X90976190Y-88904761D01*
X91214285Y-89380952D01*
X91214285Y-90809523D01*
X90976190Y-91285714D01*
X90738095Y-91523809D01*
X90261904Y-91761904D01*
X89547619Y-91761904D01*
X89071428Y-86761904D02*
X89309523Y-87000000D01*
X89071428Y-87238095D01*
X88833333Y-87000000D01*
X89071428Y-86761904D01*
X89071428Y-87238095D01*
X90976190Y-86761904D02*
X91214285Y-87000000D01*
X90976190Y-87238095D01*
X90738095Y-87000000D01*
X90976190Y-86761904D01*
X90976190Y-87238095D01*
X92642857Y-88428571D02*
X94547619Y-88428571D01*
X93357142Y-86761904D02*
X93357142Y-91047619D01*
X93595238Y-91523809D01*
X94071428Y-91761904D01*
X94547619Y-91761904D01*
X96214285Y-91761904D02*
X96214285Y-88428571D01*
X96214285Y-86761904D02*
X95976190Y-87000000D01*
X96214285Y-87238095D01*
X96452380Y-87000000D01*
X96214285Y-86761904D01*
X96214285Y-87238095D01*
D10*
X80250000Y-54350000D02*
X79750000Y-53850000D01*
X79750000Y-54850000D02*
X80250000Y-54350000D01*
X79750000Y-53850000D02*
X79750000Y-54850000D01*
X72440476Y-54802380D02*
X72440476Y-53802380D01*
X72821428Y-53802380D01*
X72916666Y-53850000D01*
X72964285Y-53897619D01*
X73011904Y-53992857D01*
X73011904Y-54135714D01*
X72964285Y-54230952D01*
X72916666Y-54278571D01*
X72821428Y-54326190D01*
X72440476Y-54326190D01*
X73630952Y-53802380D02*
X73821428Y-53802380D01*
X73916666Y-53850000D01*
X74011904Y-53945238D01*
X74059523Y-54135714D01*
X74059523Y-54469047D01*
X74011904Y-54659523D01*
X73916666Y-54754761D01*
X73821428Y-54802380D01*
X73630952Y-54802380D01*
X73535714Y-54754761D01*
X73440476Y-54659523D01*
X73392857Y-54469047D01*
X73392857Y-54135714D01*
X73440476Y-53945238D01*
X73535714Y-53850000D01*
X73630952Y-53802380D01*
X74392857Y-53802380D02*
X74630952Y-54802380D01*
X74821428Y-54088095D01*
X75011904Y-54802380D01*
X75250000Y-53802380D01*
X75630952Y-54278571D02*
X75964285Y-54278571D01*
X76107142Y-54802380D02*
X75630952Y-54802380D01*
X75630952Y-53802380D01*
X76107142Y-53802380D01*
X77107142Y-54802380D02*
X76773809Y-54326190D01*
X76535714Y-54802380D02*
X76535714Y-53802380D01*
X76916666Y-53802380D01*
X77011904Y-53850000D01*
X77059523Y-53897619D01*
X77107142Y-53992857D01*
X77107142Y-54135714D01*
X77059523Y-54230952D01*
X77011904Y-54278571D01*
X76916666Y-54326190D01*
X76535714Y-54326190D01*
X78107142Y-54802380D02*
X77773809Y-54326190D01*
X77535714Y-54802380D02*
X77535714Y-53802380D01*
X77916666Y-53802380D01*
X78011904Y-53850000D01*
X78059523Y-53897619D01*
X78107142Y-53992857D01*
X78107142Y-54135714D01*
X78059523Y-54230952D01*
X78011904Y-54278571D01*
X77916666Y-54326190D01*
X77535714Y-54326190D01*
X79107142Y-54802380D02*
X78773809Y-54326190D01*
X78535714Y-54802380D02*
X78535714Y-53802380D01*
X78916666Y-53802380D01*
X79011904Y-53850000D01*
X79059523Y-53897619D01*
X79107142Y-53992857D01*
X79107142Y-54135714D01*
X79059523Y-54230952D01*
X79011904Y-54278571D01*
X78916666Y-54326190D01*
X78535714Y-54326190D01*
X82750000Y-50000000D02*
X86850000Y-50000000D01*
X91650000Y-56750000D02*
X91650000Y-49500000D01*
X83850000Y-57050000D02*
X83850000Y-57250000D01*
X83650000Y-56850000D02*
X83850000Y-57050000D01*
X85385714Y-95229761D02*
X85385714Y-94182142D01*
X85290476Y-93991666D01*
X85100000Y-93896428D01*
X84719047Y-93896428D01*
X84528571Y-93991666D01*
X85385714Y-95134523D02*
X85195238Y-95229761D01*
X84719047Y-95229761D01*
X84528571Y-95134523D01*
X84433333Y-94944047D01*
X84433333Y-94753571D01*
X84528571Y-94563095D01*
X84719047Y-94467857D01*
X85195238Y-94467857D01*
X85385714Y-94372619D01*
X86052380Y-93896428D02*
X86814285Y-93896428D01*
X86338095Y-95229761D02*
X86338095Y-93515476D01*
X86433333Y-93325000D01*
X86623809Y-93229761D01*
X86814285Y-93229761D01*
X88909523Y-93420238D02*
X89004761Y-93325000D01*
X89195238Y-93229761D01*
X89671428Y-93229761D01*
X89861904Y-93325000D01*
X89957142Y-93420238D01*
X90052380Y-93610714D01*
X90052380Y-93801190D01*
X89957142Y-94086904D01*
X88814285Y-95229761D01*
X90052380Y-95229761D01*
X91290476Y-93229761D02*
X91480952Y-93229761D01*
X91671428Y-93325000D01*
X91766666Y-93420238D01*
X91861904Y-93610714D01*
X91957142Y-93991666D01*
X91957142Y-94467857D01*
X91861904Y-94848809D01*
X91766666Y-95039285D01*
X91671428Y-95134523D01*
X91480952Y-95229761D01*
X91290476Y-95229761D01*
X91100000Y-95134523D01*
X91004761Y-95039285D01*
X90909523Y-94848809D01*
X90814285Y-94467857D01*
X90814285Y-93991666D01*
X90909523Y-93610714D01*
X91004761Y-93420238D01*
X91100000Y-93325000D01*
X91290476Y-93229761D01*
X92719047Y-93420238D02*
X92814285Y-93325000D01*
X93004761Y-93229761D01*
X93480952Y-93229761D01*
X93671428Y-93325000D01*
X93766666Y-93420238D01*
X93861904Y-93610714D01*
X93861904Y-93801190D01*
X93766666Y-94086904D01*
X92623809Y-95229761D01*
X93861904Y-95229761D01*
X95100000Y-93229761D02*
X95290476Y-93229761D01*
X95480952Y-93325000D01*
X95576190Y-93420238D01*
X95671428Y-93610714D01*
X95766666Y-93991666D01*
X95766666Y-94467857D01*
X95671428Y-94848809D01*
X95576190Y-95039285D01*
X95480952Y-95134523D01*
X95290476Y-95229761D01*
X95100000Y-95229761D01*
X94909523Y-95134523D01*
X94814285Y-95039285D01*
X94719047Y-94848809D01*
X94623809Y-94467857D01*
X94623809Y-93991666D01*
X94719047Y-93610714D01*
X94814285Y-93420238D01*
X94909523Y-93325000D01*
X95100000Y-93229761D01*
X88671428Y-97046428D02*
X89147619Y-98379761D01*
X89623809Y-97046428D01*
X90290476Y-96570238D02*
X90385714Y-96475000D01*
X90576190Y-96379761D01*
X91052380Y-96379761D01*
X91242857Y-96475000D01*
X91338095Y-96570238D01*
X91433333Y-96760714D01*
X91433333Y-96951190D01*
X91338095Y-97236904D01*
X90195238Y-98379761D01*
X91433333Y-98379761D01*
D12*
%TO.C,J2*%
X110730000Y-66650000D02*
X109600000Y-66650000D01*
X110730000Y-65890000D02*
X110730000Y-66650000D01*
X108022470Y-66585000D02*
X107200000Y-66585000D01*
X108840000Y-66585000D02*
X108637530Y-66585000D01*
X108840000Y-66453471D02*
X108840000Y-66585000D01*
X108840000Y-65183471D02*
X108840000Y-65326529D01*
X109036529Y-65130000D02*
X108893471Y-65130000D01*
X110730000Y-65130000D02*
X110163471Y-65130000D01*
X107200000Y-66585000D02*
X107200000Y-57575000D01*
X110730000Y-65130000D02*
X110730000Y-57575000D01*
X109292470Y-57575000D02*
X108637530Y-57575000D01*
X108022470Y-57575000D02*
X107200000Y-57575000D01*
X110730000Y-57575000D02*
X109907530Y-57575000D01*
%TO.C,D2*%
X80535000Y-53360000D02*
X80535000Y-50900000D01*
X79065000Y-53360000D02*
X80535000Y-53360000D01*
X79065000Y-50900000D02*
X79065000Y-53360000D01*
%TO.C,Q4*%
X87500000Y-51490000D02*
X84050000Y-51490000D01*
X87500000Y-51490000D02*
X89450000Y-51490000D01*
X87500000Y-56610000D02*
X85550000Y-56610000D01*
X87500000Y-56610000D02*
X89450000Y-56610000D01*
%TO.C,Q1*%
X97240000Y-59070000D02*
X98700000Y-59070000D01*
X97240000Y-62230000D02*
X99400000Y-62230000D01*
X97240000Y-62230000D02*
X97240000Y-61300000D01*
X97240000Y-59070000D02*
X97240000Y-60000000D01*
%TO.C,C6*%
X79390000Y-58678733D02*
X79390000Y-59021267D01*
X80410000Y-58678733D02*
X80410000Y-59021267D01*
D13*
%TO.C,J3*%
X101850000Y-41500000D02*
X101350000Y-41500000D01*
X101350000Y-41500000D02*
X96350000Y-41500000D01*
X96350000Y-41500000D02*
X95700000Y-41500000D01*
X95700000Y-41500000D02*
X95700000Y-43250000D01*
X101350000Y-41500000D02*
X101350000Y-39600000D01*
X101350000Y-39600000D02*
X96350000Y-39600000D01*
X96350000Y-39600000D02*
X96350000Y-41500000D01*
X102000000Y-50600000D02*
X102000000Y-48550000D01*
X102000000Y-52750000D02*
X102000000Y-53900000D01*
X102000000Y-53900000D02*
X95700000Y-53900000D01*
X95700000Y-53900000D02*
X95700000Y-52800000D01*
X95700000Y-48650000D02*
X95700000Y-50550000D01*
X95700000Y-45550000D02*
X95700000Y-46400000D01*
X102000000Y-45700000D02*
X102000000Y-46400000D01*
D14*
X102950000Y-41000000D02*
G75*
G03X102950000Y-41000000I-100000J0D01*
G01*
D12*
%TO.C,C14*%
X89090000Y-45878733D02*
X89090000Y-46221267D01*
X90110000Y-45878733D02*
X90110000Y-46221267D01*
%TO.C,U6*%
X83600000Y-43740000D02*
X80675000Y-43740000D01*
X83600000Y-43740000D02*
X85100000Y-43740000D01*
X83600000Y-46960000D02*
X82100000Y-46960000D01*
X83600000Y-46960000D02*
X85100000Y-46960000D01*
%TO.C,C17*%
X72109698Y-55265000D02*
X71309698Y-55265000D01*
X71709698Y-55665000D02*
X71709698Y-54865000D01*
%TO.C,Q3*%
X89640000Y-59070000D02*
X91100000Y-59070000D01*
X89640000Y-62230000D02*
X91800000Y-62230000D01*
X89640000Y-62230000D02*
X89640000Y-61300000D01*
X89640000Y-59070000D02*
X89640000Y-60000000D01*
%TO.C,U5*%
X96110000Y-66190000D02*
X96110000Y-65890000D01*
X96110000Y-65890000D02*
X95810000Y-65890000D01*
X96110000Y-72810000D02*
X96110000Y-73110000D01*
X96110000Y-73110000D02*
X95810000Y-73110000D01*
X88890000Y-66190000D02*
X88890000Y-65890000D01*
X88890000Y-65890000D02*
X89190000Y-65890000D01*
X88890000Y-72810000D02*
X88890000Y-73110000D01*
X88890000Y-73110000D02*
X89190000Y-73110000D01*
X89190000Y-73110000D02*
X89190000Y-74425000D01*
%TO.C,R5*%
X78478733Y-65760000D02*
X78821267Y-65760000D01*
X78478733Y-64740000D02*
X78821267Y-64740000D01*
%TO.C,R3*%
X82440000Y-68478733D02*
X82440000Y-68821267D01*
X83460000Y-68478733D02*
X83460000Y-68821267D01*
%TO.C,C3*%
X83340000Y-58678733D02*
X83340000Y-59021267D01*
X84360000Y-58678733D02*
X84360000Y-59021267D01*
%TO.C,U1*%
X78450000Y-60296500D02*
X77250000Y-60296500D01*
X78450000Y-56296500D02*
X78450000Y-60296500D01*
X73650000Y-60296500D02*
X73650000Y-57596500D01*
X74850000Y-60296500D02*
X73650000Y-60296500D01*
%TO.C,R14*%
X90571267Y-57340000D02*
X90228733Y-57340000D01*
X90571267Y-58360000D02*
X90228733Y-58360000D01*
%TO.C,R13*%
X97171267Y-57390000D02*
X96828733Y-57390000D01*
X97171267Y-58410000D02*
X96828733Y-58410000D01*
%TO.C,R12*%
X95828733Y-63760000D02*
X96171267Y-63760000D01*
X95828733Y-62740000D02*
X96171267Y-62740000D01*
%TO.C,R11*%
X92271267Y-44690000D02*
X91928733Y-44690000D01*
X92271267Y-45710000D02*
X91928733Y-45710000D01*
%TO.C,R10*%
X92271267Y-46440000D02*
X91928733Y-46440000D01*
X92271267Y-47460000D02*
X91928733Y-47460000D01*
%TO.C,R9*%
X92271267Y-42940000D02*
X91928733Y-42940000D01*
X92271267Y-43960000D02*
X91928733Y-43960000D01*
%TO.C,R8*%
X92271267Y-48190000D02*
X91928733Y-48190000D01*
X92271267Y-49210000D02*
X91928733Y-49210000D01*
%TO.C,R7*%
X84628733Y-72610000D02*
X84971267Y-72610000D01*
X84628733Y-71590000D02*
X84971267Y-71590000D01*
%TO.C,R6*%
X100590000Y-68328733D02*
X100590000Y-68671267D01*
X101610000Y-68328733D02*
X101610000Y-68671267D01*
%TO.C,R4*%
X86160000Y-59021267D02*
X86160000Y-58678733D01*
X85140000Y-59021267D02*
X85140000Y-58678733D01*
%TO.C,R2*%
X80740000Y-68478733D02*
X80740000Y-68821267D01*
X81760000Y-68478733D02*
X81760000Y-68821267D01*
%TO.C,R1*%
X87910000Y-59021267D02*
X87910000Y-58678733D01*
X86890000Y-59021267D02*
X86890000Y-58678733D01*
%TO.C,Q2*%
X93240000Y-59070000D02*
X94700000Y-59070000D01*
X93240000Y-62230000D02*
X95400000Y-62230000D01*
X93240000Y-62230000D02*
X93240000Y-61300000D01*
X93240000Y-59070000D02*
X93240000Y-60000000D01*
%TO.C,D1*%
X77970000Y-64260000D02*
X79380000Y-64260000D01*
X79380000Y-61940000D02*
X77350000Y-61940000D01*
X79380000Y-61940000D02*
X79380000Y-62600000D01*
X79380000Y-63600000D02*
X79380000Y-64260000D01*
%TO.C,U3*%
X79950000Y-74060000D02*
X82400000Y-74060000D01*
X81750000Y-70840000D02*
X79950000Y-70840000D01*
%TO.C,SW1*%
X107300000Y-73400000D02*
X111700000Y-73400000D01*
X111700000Y-73400000D02*
X111700000Y-73280000D01*
X111700000Y-72270000D02*
X111700000Y-71130000D01*
X111700000Y-70120000D02*
X111700000Y-70000000D01*
X111700000Y-70000000D02*
X107300000Y-70000000D01*
X107300000Y-70000000D02*
X107300000Y-70120000D01*
X107300000Y-71130000D02*
X107300000Y-72270000D01*
X107300000Y-73280000D02*
X107300000Y-73400000D01*
%TO.C,C2*%
X68711252Y-52140000D02*
X68188748Y-52140000D01*
X68711252Y-53560000D02*
X68188748Y-53560000D01*
%TO.C,TP6*%
X116150000Y-67750000D02*
X116150000Y-70150000D01*
X113750000Y-67750000D02*
X116150000Y-67750000D01*
X113750000Y-70150000D02*
X113750000Y-67750000D01*
X116150000Y-70150000D02*
X113750000Y-70150000D01*
%TO.C,TP5*%
X116150000Y-72050000D02*
X116150000Y-74450000D01*
X113750000Y-72050000D02*
X116150000Y-72050000D01*
X113750000Y-74450000D02*
X113750000Y-72050000D01*
X116150000Y-74450000D02*
X113750000Y-74450000D01*
%TO.C,TP4*%
X116200000Y-76300000D02*
X116200000Y-78700000D01*
X113800000Y-76300000D02*
X116200000Y-76300000D01*
X113800000Y-78700000D02*
X113800000Y-76300000D01*
X116200000Y-78700000D02*
X113800000Y-78700000D01*
%TO.C,TP3*%
X111100000Y-102800000D02*
X115500000Y-102800000D01*
X111100000Y-107200000D02*
X111100000Y-102800000D01*
X115500000Y-107200000D02*
X111100000Y-107200000D01*
X115500000Y-102800000D02*
X115500000Y-107200000D01*
%TO.C,TP2*%
X111100000Y-97300000D02*
X115500000Y-97300000D01*
X111100000Y-101700000D02*
X111100000Y-97300000D01*
X115500000Y-101700000D02*
X111100000Y-101700000D01*
X115500000Y-97300000D02*
X115500000Y-101700000D01*
%TO.C,TP1*%
X111100000Y-91800000D02*
X115500000Y-91800000D01*
X111100000Y-96200000D02*
X111100000Y-91800000D01*
X115500000Y-96200000D02*
X111100000Y-96200000D01*
X115500000Y-91800000D02*
X115500000Y-96200000D01*
%TO.C,C16*%
X83971267Y-47590000D02*
X83628733Y-47590000D01*
X83971267Y-48610000D02*
X83628733Y-48610000D01*
%TO.C,C13*%
X88360000Y-48121267D02*
X88360000Y-47778733D01*
X87340000Y-48121267D02*
X87340000Y-47778733D01*
%TO.C,C15*%
X88360000Y-44371267D02*
X88360000Y-44028733D01*
X87340000Y-44371267D02*
X87340000Y-44028733D01*
%TO.C,U2*%
X84735000Y-61240000D02*
X85210000Y-61240000D01*
X85210000Y-61240000D02*
X85210000Y-61715000D01*
X81465000Y-65460000D02*
X80990000Y-65460000D01*
X80990000Y-65460000D02*
X80990000Y-64985000D01*
X84735000Y-65460000D02*
X85210000Y-65460000D01*
X85210000Y-65460000D02*
X85210000Y-64985000D01*
X81465000Y-61240000D02*
X80990000Y-61240000D01*
%TO.C,C12*%
X81610000Y-77871267D02*
X81610000Y-77528733D01*
X80590000Y-77871267D02*
X80590000Y-77528733D01*
%TO.C,C10*%
X79110000Y-77871267D02*
X79110000Y-77528733D01*
X78090000Y-77871267D02*
X78090000Y-77528733D01*
%TO.C,C11*%
X100078733Y-65760000D02*
X100421267Y-65760000D01*
X100078733Y-64740000D02*
X100421267Y-64740000D01*
%TO.C,C5*%
X75028733Y-65760000D02*
X75371267Y-65760000D01*
X75028733Y-64740000D02*
X75371267Y-64740000D01*
%TO.C,C1*%
X68621267Y-50540000D02*
X68278733Y-50540000D01*
X68621267Y-51560000D02*
X68278733Y-51560000D01*
%TO.C,C9*%
X84971267Y-76290000D02*
X84628733Y-76290000D01*
X84971267Y-77310000D02*
X84628733Y-77310000D01*
%TO.C,C4*%
X82360000Y-59021267D02*
X82360000Y-58678733D01*
X81340000Y-59021267D02*
X81340000Y-58678733D01*
%TO.C,C8*%
X84971267Y-74390000D02*
X84628733Y-74390000D01*
X84971267Y-75410000D02*
X84628733Y-75410000D01*
%TO.C,C7*%
X98128733Y-74410000D02*
X98471267Y-74410000D01*
X98128733Y-73390000D02*
X98471267Y-73390000D01*
%TO.C,J2*%
D10*
X108616666Y-67302380D02*
X108616666Y-68016666D01*
X108569047Y-68159523D01*
X108473809Y-68254761D01*
X108330952Y-68302380D01*
X108235714Y-68302380D01*
X109045238Y-67397619D02*
X109092857Y-67350000D01*
X109188095Y-67302380D01*
X109426190Y-67302380D01*
X109521428Y-67350000D01*
X109569047Y-67397619D01*
X109616666Y-67492857D01*
X109616666Y-67588095D01*
X109569047Y-67730952D01*
X108997619Y-68302380D01*
X109616666Y-68302380D01*
%TO.C,D2*%
X78822380Y-52438095D02*
X77822380Y-52438095D01*
X77822380Y-52200000D01*
X77870000Y-52057142D01*
X77965238Y-51961904D01*
X78060476Y-51914285D01*
X78250952Y-51866666D01*
X78393809Y-51866666D01*
X78584285Y-51914285D01*
X78679523Y-51961904D01*
X78774761Y-52057142D01*
X78822380Y-52200000D01*
X78822380Y-52438095D01*
X77917619Y-51485714D02*
X77870000Y-51438095D01*
X77822380Y-51342857D01*
X77822380Y-51104761D01*
X77870000Y-51009523D01*
X77917619Y-50961904D01*
X78012857Y-50914285D01*
X78108095Y-50914285D01*
X78250952Y-50961904D01*
X78822380Y-51533333D01*
X78822380Y-50914285D01*
%TO.C,Q4*%
X87447619Y-53995238D02*
X87400000Y-54090476D01*
X87304761Y-54185714D01*
X87161904Y-54328571D01*
X87114285Y-54423809D01*
X87114285Y-54519047D01*
X87352380Y-54471428D02*
X87304761Y-54566666D01*
X87209523Y-54661904D01*
X87019047Y-54709523D01*
X86685714Y-54709523D01*
X86495238Y-54661904D01*
X86400000Y-54566666D01*
X86352380Y-54471428D01*
X86352380Y-54280952D01*
X86400000Y-54185714D01*
X86495238Y-54090476D01*
X86685714Y-54042857D01*
X87019047Y-54042857D01*
X87209523Y-54090476D01*
X87304761Y-54185714D01*
X87352380Y-54280952D01*
X87352380Y-54471428D01*
X86685714Y-53185714D02*
X87352380Y-53185714D01*
X86304761Y-53423809D02*
X87019047Y-53661904D01*
X87019047Y-53042857D01*
%TO.C,Q1*%
X101147619Y-60595238D02*
X101100000Y-60690476D01*
X101004761Y-60785714D01*
X100861904Y-60928571D01*
X100814285Y-61023809D01*
X100814285Y-61119047D01*
X101052380Y-61071428D02*
X101004761Y-61166666D01*
X100909523Y-61261904D01*
X100719047Y-61309523D01*
X100385714Y-61309523D01*
X100195238Y-61261904D01*
X100100000Y-61166666D01*
X100052380Y-61071428D01*
X100052380Y-60880952D01*
X100100000Y-60785714D01*
X100195238Y-60690476D01*
X100385714Y-60642857D01*
X100719047Y-60642857D01*
X100909523Y-60690476D01*
X101004761Y-60785714D01*
X101052380Y-60880952D01*
X101052380Y-61071428D01*
X101052380Y-59690476D02*
X101052380Y-60261904D01*
X101052380Y-59976190D02*
X100052380Y-59976190D01*
X100195238Y-60071428D01*
X100290476Y-60166666D01*
X100338095Y-60261904D01*
%TO.C,C6*%
X80257142Y-56266666D02*
X80304761Y-56314285D01*
X80352380Y-56457142D01*
X80352380Y-56552380D01*
X80304761Y-56695238D01*
X80209523Y-56790476D01*
X80114285Y-56838095D01*
X79923809Y-56885714D01*
X79780952Y-56885714D01*
X79590476Y-56838095D01*
X79495238Y-56790476D01*
X79400000Y-56695238D01*
X79352380Y-56552380D01*
X79352380Y-56457142D01*
X79400000Y-56314285D01*
X79447619Y-56266666D01*
X79352380Y-55409523D02*
X79352380Y-55600000D01*
X79400000Y-55695238D01*
X79447619Y-55742857D01*
X79590476Y-55838095D01*
X79780952Y-55885714D01*
X80161904Y-55885714D01*
X80257142Y-55838095D01*
X80304761Y-55790476D01*
X80352380Y-55695238D01*
X80352380Y-55504761D01*
X80304761Y-55409523D01*
X80257142Y-55361904D01*
X80161904Y-55314285D01*
X79923809Y-55314285D01*
X79828571Y-55361904D01*
X79780952Y-55409523D01*
X79733333Y-55504761D01*
X79733333Y-55695238D01*
X79780952Y-55790476D01*
X79828571Y-55838095D01*
X79923809Y-55885714D01*
%TO.C,J3*%
X102502256Y-51633409D02*
X103216704Y-51633409D01*
X103359594Y-51681039D01*
X103454854Y-51776299D01*
X103502484Y-51919188D01*
X103502484Y-52014448D01*
X102502256Y-51252370D02*
X102502256Y-50633181D01*
X102883295Y-50966590D01*
X102883295Y-50823700D01*
X102930925Y-50728441D01*
X102978555Y-50680811D01*
X103073814Y-50633181D01*
X103311964Y-50633181D01*
X103407224Y-50680811D01*
X103454854Y-50728441D01*
X103502484Y-50823700D01*
X103502484Y-51109480D01*
X103454854Y-51204740D01*
X103407224Y-51252370D01*
%TO.C,C14*%
X83357142Y-52642857D02*
X83404761Y-52690476D01*
X83452380Y-52833333D01*
X83452380Y-52928571D01*
X83404761Y-53071428D01*
X83309523Y-53166666D01*
X83214285Y-53214285D01*
X83023809Y-53261904D01*
X82880952Y-53261904D01*
X82690476Y-53214285D01*
X82595238Y-53166666D01*
X82500000Y-53071428D01*
X82452380Y-52928571D01*
X82452380Y-52833333D01*
X82500000Y-52690476D01*
X82547619Y-52642857D01*
X83452380Y-51690476D02*
X83452380Y-52261904D01*
X83452380Y-51976190D02*
X82452380Y-51976190D01*
X82595238Y-52071428D01*
X82690476Y-52166666D01*
X82738095Y-52261904D01*
X82785714Y-50833333D02*
X83452380Y-50833333D01*
X82404761Y-51071428D02*
X83119047Y-51309523D01*
X83119047Y-50690476D01*
%TO.C,U6*%
X82638095Y-45552380D02*
X82638095Y-46361904D01*
X82685714Y-46457142D01*
X82733333Y-46504761D01*
X82828571Y-46552380D01*
X83019047Y-46552380D01*
X83114285Y-46504761D01*
X83161904Y-46457142D01*
X83209523Y-46361904D01*
X83209523Y-45552380D01*
X84114285Y-45552380D02*
X83923809Y-45552380D01*
X83828571Y-45600000D01*
X83780952Y-45647619D01*
X83685714Y-45790476D01*
X83638095Y-45980952D01*
X83638095Y-46361904D01*
X83685714Y-46457142D01*
X83733333Y-46504761D01*
X83828571Y-46552380D01*
X84019047Y-46552380D01*
X84114285Y-46504761D01*
X84161904Y-46457142D01*
X84209523Y-46361904D01*
X84209523Y-46123809D01*
X84161904Y-46028571D01*
X84114285Y-45980952D01*
X84019047Y-45933333D01*
X83828571Y-45933333D01*
X83733333Y-45980952D01*
X83685714Y-46028571D01*
X83638095Y-46123809D01*
%TO.C,C17*%
X63607142Y-55607142D02*
X63559523Y-55654761D01*
X63416666Y-55702380D01*
X63321428Y-55702380D01*
X63178571Y-55654761D01*
X63083333Y-55559523D01*
X63035714Y-55464285D01*
X62988095Y-55273809D01*
X62988095Y-55130952D01*
X63035714Y-54940476D01*
X63083333Y-54845238D01*
X63178571Y-54750000D01*
X63321428Y-54702380D01*
X63416666Y-54702380D01*
X63559523Y-54750000D01*
X63607142Y-54797619D01*
X64559523Y-55702380D02*
X63988095Y-55702380D01*
X64273809Y-55702380D02*
X64273809Y-54702380D01*
X64178571Y-54845238D01*
X64083333Y-54940476D01*
X63988095Y-54988095D01*
X64892857Y-54702380D02*
X65559523Y-54702380D01*
X65130952Y-55702380D01*
%TO.C,Q3*%
X90704761Y-63697619D02*
X90609523Y-63650000D01*
X90514285Y-63554761D01*
X90371428Y-63411904D01*
X90276190Y-63364285D01*
X90180952Y-63364285D01*
X90228571Y-63602380D02*
X90133333Y-63554761D01*
X90038095Y-63459523D01*
X89990476Y-63269047D01*
X89990476Y-62935714D01*
X90038095Y-62745238D01*
X90133333Y-62650000D01*
X90228571Y-62602380D01*
X90419047Y-62602380D01*
X90514285Y-62650000D01*
X90609523Y-62745238D01*
X90657142Y-62935714D01*
X90657142Y-63269047D01*
X90609523Y-63459523D01*
X90514285Y-63554761D01*
X90419047Y-63602380D01*
X90228571Y-63602380D01*
X90990476Y-62602380D02*
X91609523Y-62602380D01*
X91276190Y-62983333D01*
X91419047Y-62983333D01*
X91514285Y-63030952D01*
X91561904Y-63078571D01*
X91609523Y-63173809D01*
X91609523Y-63411904D01*
X91561904Y-63507142D01*
X91514285Y-63554761D01*
X91419047Y-63602380D01*
X91133333Y-63602380D01*
X91038095Y-63554761D01*
X90990476Y-63507142D01*
%TO.C,U5*%
X90038095Y-67752380D02*
X90038095Y-68561904D01*
X90085714Y-68657142D01*
X90133333Y-68704761D01*
X90228571Y-68752380D01*
X90419047Y-68752380D01*
X90514285Y-68704761D01*
X90561904Y-68657142D01*
X90609523Y-68561904D01*
X90609523Y-67752380D01*
X91561904Y-67752380D02*
X91085714Y-67752380D01*
X91038095Y-68228571D01*
X91085714Y-68180952D01*
X91180952Y-68133333D01*
X91419047Y-68133333D01*
X91514285Y-68180952D01*
X91561904Y-68228571D01*
X91609523Y-68323809D01*
X91609523Y-68561904D01*
X91561904Y-68657142D01*
X91514285Y-68704761D01*
X91419047Y-68752380D01*
X91180952Y-68752380D01*
X91085714Y-68704761D01*
X91038095Y-68657142D01*
%TO.C,R5*%
X78483333Y-67102380D02*
X78150000Y-66626190D01*
X77911904Y-67102380D02*
X77911904Y-66102380D01*
X78292857Y-66102380D01*
X78388095Y-66150000D01*
X78435714Y-66197619D01*
X78483333Y-66292857D01*
X78483333Y-66435714D01*
X78435714Y-66530952D01*
X78388095Y-66578571D01*
X78292857Y-66626190D01*
X77911904Y-66626190D01*
X79388095Y-66102380D02*
X78911904Y-66102380D01*
X78864285Y-66578571D01*
X78911904Y-66530952D01*
X79007142Y-66483333D01*
X79245238Y-66483333D01*
X79340476Y-66530952D01*
X79388095Y-66578571D01*
X79435714Y-66673809D01*
X79435714Y-66911904D01*
X79388095Y-67007142D01*
X79340476Y-67054761D01*
X79245238Y-67102380D01*
X79007142Y-67102380D01*
X78911904Y-67054761D01*
X78864285Y-67007142D01*
%TO.C,R3*%
X84832380Y-68816666D02*
X84356190Y-69150000D01*
X84832380Y-69388095D02*
X83832380Y-69388095D01*
X83832380Y-69007142D01*
X83880000Y-68911904D01*
X83927619Y-68864285D01*
X84022857Y-68816666D01*
X84165714Y-68816666D01*
X84260952Y-68864285D01*
X84308571Y-68911904D01*
X84356190Y-69007142D01*
X84356190Y-69388095D01*
X83832380Y-68483333D02*
X83832380Y-67864285D01*
X84213333Y-68197619D01*
X84213333Y-68054761D01*
X84260952Y-67959523D01*
X84308571Y-67911904D01*
X84403809Y-67864285D01*
X84641904Y-67864285D01*
X84737142Y-67911904D01*
X84784761Y-67959523D01*
X84832380Y-68054761D01*
X84832380Y-68340476D01*
X84784761Y-68435714D01*
X84737142Y-68483333D01*
%TO.C,C3*%
X83507142Y-56216666D02*
X83554761Y-56264285D01*
X83602380Y-56407142D01*
X83602380Y-56502380D01*
X83554761Y-56645238D01*
X83459523Y-56740476D01*
X83364285Y-56788095D01*
X83173809Y-56835714D01*
X83030952Y-56835714D01*
X82840476Y-56788095D01*
X82745238Y-56740476D01*
X82650000Y-56645238D01*
X82602380Y-56502380D01*
X82602380Y-56407142D01*
X82650000Y-56264285D01*
X82697619Y-56216666D01*
X82602380Y-55883333D02*
X82602380Y-55264285D01*
X82983333Y-55597619D01*
X82983333Y-55454761D01*
X83030952Y-55359523D01*
X83078571Y-55311904D01*
X83173809Y-55264285D01*
X83411904Y-55264285D01*
X83507142Y-55311904D01*
X83554761Y-55359523D01*
X83602380Y-55454761D01*
X83602380Y-55740476D01*
X83554761Y-55835714D01*
X83507142Y-55883333D01*
%TO.C,U1*%
X77488095Y-60502380D02*
X77488095Y-61311904D01*
X77535714Y-61407142D01*
X77583333Y-61454761D01*
X77678571Y-61502380D01*
X77869047Y-61502380D01*
X77964285Y-61454761D01*
X78011904Y-61407142D01*
X78059523Y-61311904D01*
X78059523Y-60502380D01*
X79059523Y-61502380D02*
X78488095Y-61502380D01*
X78773809Y-61502380D02*
X78773809Y-60502380D01*
X78678571Y-60645238D01*
X78583333Y-60740476D01*
X78488095Y-60788095D01*
%TO.C,R14*%
X92957142Y-58302380D02*
X92623809Y-57826190D01*
X92385714Y-58302380D02*
X92385714Y-57302380D01*
X92766666Y-57302380D01*
X92861904Y-57350000D01*
X92909523Y-57397619D01*
X92957142Y-57492857D01*
X92957142Y-57635714D01*
X92909523Y-57730952D01*
X92861904Y-57778571D01*
X92766666Y-57826190D01*
X92385714Y-57826190D01*
X93909523Y-58302380D02*
X93338095Y-58302380D01*
X93623809Y-58302380D02*
X93623809Y-57302380D01*
X93528571Y-57445238D01*
X93433333Y-57540476D01*
X93338095Y-57588095D01*
X94766666Y-57635714D02*
X94766666Y-58302380D01*
X94528571Y-57254761D02*
X94290476Y-57969047D01*
X94909523Y-57969047D01*
%TO.C,R13*%
X99557142Y-58352380D02*
X99223809Y-57876190D01*
X98985714Y-58352380D02*
X98985714Y-57352380D01*
X99366666Y-57352380D01*
X99461904Y-57400000D01*
X99509523Y-57447619D01*
X99557142Y-57542857D01*
X99557142Y-57685714D01*
X99509523Y-57780952D01*
X99461904Y-57828571D01*
X99366666Y-57876190D01*
X98985714Y-57876190D01*
X100509523Y-58352380D02*
X99938095Y-58352380D01*
X100223809Y-58352380D02*
X100223809Y-57352380D01*
X100128571Y-57495238D01*
X100033333Y-57590476D01*
X99938095Y-57638095D01*
X100842857Y-57352380D02*
X101461904Y-57352380D01*
X101128571Y-57733333D01*
X101271428Y-57733333D01*
X101366666Y-57780952D01*
X101414285Y-57828571D01*
X101461904Y-57923809D01*
X101461904Y-58161904D01*
X101414285Y-58257142D01*
X101366666Y-58304761D01*
X101271428Y-58352380D01*
X100985714Y-58352380D01*
X100890476Y-58304761D01*
X100842857Y-58257142D01*
%TO.C,R12*%
X98557142Y-63702380D02*
X98223809Y-63226190D01*
X97985714Y-63702380D02*
X97985714Y-62702380D01*
X98366666Y-62702380D01*
X98461904Y-62750000D01*
X98509523Y-62797619D01*
X98557142Y-62892857D01*
X98557142Y-63035714D01*
X98509523Y-63130952D01*
X98461904Y-63178571D01*
X98366666Y-63226190D01*
X97985714Y-63226190D01*
X99509523Y-63702380D02*
X98938095Y-63702380D01*
X99223809Y-63702380D02*
X99223809Y-62702380D01*
X99128571Y-62845238D01*
X99033333Y-62940476D01*
X98938095Y-62988095D01*
X99890476Y-62797619D02*
X99938095Y-62750000D01*
X100033333Y-62702380D01*
X100271428Y-62702380D01*
X100366666Y-62750000D01*
X100414285Y-62797619D01*
X100461904Y-62892857D01*
X100461904Y-62988095D01*
X100414285Y-63130952D01*
X99842857Y-63702380D01*
X100461904Y-63702380D01*
%TO.C,R11*%
X92507142Y-54202380D02*
X92173809Y-53726190D01*
X91935714Y-54202380D02*
X91935714Y-53202380D01*
X92316666Y-53202380D01*
X92411904Y-53250000D01*
X92459523Y-53297619D01*
X92507142Y-53392857D01*
X92507142Y-53535714D01*
X92459523Y-53630952D01*
X92411904Y-53678571D01*
X92316666Y-53726190D01*
X91935714Y-53726190D01*
X93459523Y-54202380D02*
X92888095Y-54202380D01*
X93173809Y-54202380D02*
X93173809Y-53202380D01*
X93078571Y-53345238D01*
X92983333Y-53440476D01*
X92888095Y-53488095D01*
X94411904Y-54202380D02*
X93840476Y-54202380D01*
X94126190Y-54202380D02*
X94126190Y-53202380D01*
X94030952Y-53345238D01*
X93935714Y-53440476D01*
X93840476Y-53488095D01*
%TO.C,R10*%
X92507142Y-55452380D02*
X92173809Y-54976190D01*
X91935714Y-55452380D02*
X91935714Y-54452380D01*
X92316666Y-54452380D01*
X92411904Y-54500000D01*
X92459523Y-54547619D01*
X92507142Y-54642857D01*
X92507142Y-54785714D01*
X92459523Y-54880952D01*
X92411904Y-54928571D01*
X92316666Y-54976190D01*
X91935714Y-54976190D01*
X93459523Y-55452380D02*
X92888095Y-55452380D01*
X93173809Y-55452380D02*
X93173809Y-54452380D01*
X93078571Y-54595238D01*
X92983333Y-54690476D01*
X92888095Y-54738095D01*
X94078571Y-54452380D02*
X94173809Y-54452380D01*
X94269047Y-54500000D01*
X94316666Y-54547619D01*
X94364285Y-54642857D01*
X94411904Y-54833333D01*
X94411904Y-55071428D01*
X94364285Y-55261904D01*
X94316666Y-55357142D01*
X94269047Y-55404761D01*
X94173809Y-55452380D01*
X94078571Y-55452380D01*
X93983333Y-55404761D01*
X93935714Y-55357142D01*
X93888095Y-55261904D01*
X93840476Y-55071428D01*
X93840476Y-54833333D01*
X93888095Y-54642857D01*
X93935714Y-54547619D01*
X93983333Y-54500000D01*
X94078571Y-54452380D01*
%TO.C,R9*%
X92483333Y-52952380D02*
X92150000Y-52476190D01*
X91911904Y-52952380D02*
X91911904Y-51952380D01*
X92292857Y-51952380D01*
X92388095Y-52000000D01*
X92435714Y-52047619D01*
X92483333Y-52142857D01*
X92483333Y-52285714D01*
X92435714Y-52380952D01*
X92388095Y-52428571D01*
X92292857Y-52476190D01*
X91911904Y-52476190D01*
X92959523Y-52952380D02*
X93150000Y-52952380D01*
X93245238Y-52904761D01*
X93292857Y-52857142D01*
X93388095Y-52714285D01*
X93435714Y-52523809D01*
X93435714Y-52142857D01*
X93388095Y-52047619D01*
X93340476Y-52000000D01*
X93245238Y-51952380D01*
X93054761Y-51952380D01*
X92959523Y-52000000D01*
X92911904Y-52047619D01*
X92864285Y-52142857D01*
X92864285Y-52380952D01*
X92911904Y-52476190D01*
X92959523Y-52523809D01*
X93054761Y-52571428D01*
X93245238Y-52571428D01*
X93340476Y-52523809D01*
X93388095Y-52476190D01*
X93435714Y-52380952D01*
%TO.C,R8*%
X92483333Y-56702380D02*
X92150000Y-56226190D01*
X91911904Y-56702380D02*
X91911904Y-55702380D01*
X92292857Y-55702380D01*
X92388095Y-55750000D01*
X92435714Y-55797619D01*
X92483333Y-55892857D01*
X92483333Y-56035714D01*
X92435714Y-56130952D01*
X92388095Y-56178571D01*
X92292857Y-56226190D01*
X91911904Y-56226190D01*
X93054761Y-56130952D02*
X92959523Y-56083333D01*
X92911904Y-56035714D01*
X92864285Y-55940476D01*
X92864285Y-55892857D01*
X92911904Y-55797619D01*
X92959523Y-55750000D01*
X93054761Y-55702380D01*
X93245238Y-55702380D01*
X93340476Y-55750000D01*
X93388095Y-55797619D01*
X93435714Y-55892857D01*
X93435714Y-55940476D01*
X93388095Y-56035714D01*
X93340476Y-56083333D01*
X93245238Y-56130952D01*
X93054761Y-56130952D01*
X92959523Y-56178571D01*
X92911904Y-56226190D01*
X92864285Y-56321428D01*
X92864285Y-56511904D01*
X92911904Y-56607142D01*
X92959523Y-56654761D01*
X93054761Y-56702380D01*
X93245238Y-56702380D01*
X93340476Y-56654761D01*
X93388095Y-56607142D01*
X93435714Y-56511904D01*
X93435714Y-56321428D01*
X93388095Y-56226190D01*
X93340476Y-56178571D01*
X93245238Y-56130952D01*
%TO.C,R7*%
X84633333Y-71122380D02*
X84300000Y-70646190D01*
X84061904Y-71122380D02*
X84061904Y-70122380D01*
X84442857Y-70122380D01*
X84538095Y-70170000D01*
X84585714Y-70217619D01*
X84633333Y-70312857D01*
X84633333Y-70455714D01*
X84585714Y-70550952D01*
X84538095Y-70598571D01*
X84442857Y-70646190D01*
X84061904Y-70646190D01*
X84966666Y-70122380D02*
X85633333Y-70122380D01*
X85204761Y-71122380D01*
%TO.C,R6*%
X102852380Y-68666666D02*
X102376190Y-69000000D01*
X102852380Y-69238095D02*
X101852380Y-69238095D01*
X101852380Y-68857142D01*
X101900000Y-68761904D01*
X101947619Y-68714285D01*
X102042857Y-68666666D01*
X102185714Y-68666666D01*
X102280952Y-68714285D01*
X102328571Y-68761904D01*
X102376190Y-68857142D01*
X102376190Y-69238095D01*
X101852380Y-67809523D02*
X101852380Y-68000000D01*
X101900000Y-68095238D01*
X101947619Y-68142857D01*
X102090476Y-68238095D01*
X102280952Y-68285714D01*
X102661904Y-68285714D01*
X102757142Y-68238095D01*
X102804761Y-68190476D01*
X102852380Y-68095238D01*
X102852380Y-67904761D01*
X102804761Y-67809523D01*
X102757142Y-67761904D01*
X102661904Y-67714285D01*
X102423809Y-67714285D01*
X102328571Y-67761904D01*
X102280952Y-67809523D01*
X102233333Y-67904761D01*
X102233333Y-68095238D01*
X102280952Y-68190476D01*
X102328571Y-68238095D01*
X102423809Y-68285714D01*
%TO.C,R4*%
X87052380Y-61666666D02*
X86576190Y-62000000D01*
X87052380Y-62238095D02*
X86052380Y-62238095D01*
X86052380Y-61857142D01*
X86100000Y-61761904D01*
X86147619Y-61714285D01*
X86242857Y-61666666D01*
X86385714Y-61666666D01*
X86480952Y-61714285D01*
X86528571Y-61761904D01*
X86576190Y-61857142D01*
X86576190Y-62238095D01*
X86385714Y-60809523D02*
X87052380Y-60809523D01*
X86004761Y-61047619D02*
X86719047Y-61285714D01*
X86719047Y-60666666D01*
%TO.C,R2*%
X80302380Y-68816666D02*
X79826190Y-69150000D01*
X80302380Y-69388095D02*
X79302380Y-69388095D01*
X79302380Y-69007142D01*
X79350000Y-68911904D01*
X79397619Y-68864285D01*
X79492857Y-68816666D01*
X79635714Y-68816666D01*
X79730952Y-68864285D01*
X79778571Y-68911904D01*
X79826190Y-69007142D01*
X79826190Y-69388095D01*
X79397619Y-68435714D02*
X79350000Y-68388095D01*
X79302380Y-68292857D01*
X79302380Y-68054761D01*
X79350000Y-67959523D01*
X79397619Y-67911904D01*
X79492857Y-67864285D01*
X79588095Y-67864285D01*
X79730952Y-67911904D01*
X80302380Y-68483333D01*
X80302380Y-67864285D01*
%TO.C,R1*%
X88452380Y-61666666D02*
X87976190Y-62000000D01*
X88452380Y-62238095D02*
X87452380Y-62238095D01*
X87452380Y-61857142D01*
X87500000Y-61761904D01*
X87547619Y-61714285D01*
X87642857Y-61666666D01*
X87785714Y-61666666D01*
X87880952Y-61714285D01*
X87928571Y-61761904D01*
X87976190Y-61857142D01*
X87976190Y-62238095D01*
X88452380Y-60714285D02*
X88452380Y-61285714D01*
X88452380Y-61000000D02*
X87452380Y-61000000D01*
X87595238Y-61095238D01*
X87690476Y-61190476D01*
X87738095Y-61285714D01*
%TO.C,Q2*%
X93104761Y-63697619D02*
X93009523Y-63650000D01*
X92914285Y-63554761D01*
X92771428Y-63411904D01*
X92676190Y-63364285D01*
X92580952Y-63364285D01*
X92628571Y-63602380D02*
X92533333Y-63554761D01*
X92438095Y-63459523D01*
X92390476Y-63269047D01*
X92390476Y-62935714D01*
X92438095Y-62745238D01*
X92533333Y-62650000D01*
X92628571Y-62602380D01*
X92819047Y-62602380D01*
X92914285Y-62650000D01*
X93009523Y-62745238D01*
X93057142Y-62935714D01*
X93057142Y-63269047D01*
X93009523Y-63459523D01*
X92914285Y-63554761D01*
X92819047Y-63602380D01*
X92628571Y-63602380D01*
X93438095Y-62697619D02*
X93485714Y-62650000D01*
X93580952Y-62602380D01*
X93819047Y-62602380D01*
X93914285Y-62650000D01*
X93961904Y-62697619D01*
X94009523Y-62792857D01*
X94009523Y-62888095D01*
X93961904Y-63030952D01*
X93390476Y-63602380D01*
X94009523Y-63602380D01*
%TO.C,D1*%
X75311904Y-63552380D02*
X75311904Y-62552380D01*
X75550000Y-62552380D01*
X75692857Y-62600000D01*
X75788095Y-62695238D01*
X75835714Y-62790476D01*
X75883333Y-62980952D01*
X75883333Y-63123809D01*
X75835714Y-63314285D01*
X75788095Y-63409523D01*
X75692857Y-63504761D01*
X75550000Y-63552380D01*
X75311904Y-63552380D01*
X76835714Y-63552380D02*
X76264285Y-63552380D01*
X76550000Y-63552380D02*
X76550000Y-62552380D01*
X76454761Y-62695238D01*
X76359523Y-62790476D01*
X76264285Y-62838095D01*
%TO.C,U3*%
X80088095Y-74502380D02*
X80088095Y-75311904D01*
X80135714Y-75407142D01*
X80183333Y-75454761D01*
X80278571Y-75502380D01*
X80469047Y-75502380D01*
X80564285Y-75454761D01*
X80611904Y-75407142D01*
X80659523Y-75311904D01*
X80659523Y-74502380D01*
X81040476Y-74502380D02*
X81659523Y-74502380D01*
X81326190Y-74883333D01*
X81469047Y-74883333D01*
X81564285Y-74930952D01*
X81611904Y-74978571D01*
X81659523Y-75073809D01*
X81659523Y-75311904D01*
X81611904Y-75407142D01*
X81564285Y-75454761D01*
X81469047Y-75502380D01*
X81183333Y-75502380D01*
X81088095Y-75454761D01*
X81040476Y-75407142D01*
%TO.C,SW1*%
X108166666Y-72104761D02*
X108309523Y-72152380D01*
X108547619Y-72152380D01*
X108642857Y-72104761D01*
X108690476Y-72057142D01*
X108738095Y-71961904D01*
X108738095Y-71866666D01*
X108690476Y-71771428D01*
X108642857Y-71723809D01*
X108547619Y-71676190D01*
X108357142Y-71628571D01*
X108261904Y-71580952D01*
X108214285Y-71533333D01*
X108166666Y-71438095D01*
X108166666Y-71342857D01*
X108214285Y-71247619D01*
X108261904Y-71200000D01*
X108357142Y-71152380D01*
X108595238Y-71152380D01*
X108738095Y-71200000D01*
X109071428Y-71152380D02*
X109309523Y-72152380D01*
X109500000Y-71438095D01*
X109690476Y-72152380D01*
X109928571Y-71152380D01*
X110833333Y-72152380D02*
X110261904Y-72152380D01*
X110547619Y-72152380D02*
X110547619Y-71152380D01*
X110452380Y-71295238D01*
X110357142Y-71390476D01*
X110261904Y-71438095D01*
%TO.C,C2*%
X65283333Y-53207142D02*
X65235714Y-53254761D01*
X65092857Y-53302380D01*
X64997619Y-53302380D01*
X64854761Y-53254761D01*
X64759523Y-53159523D01*
X64711904Y-53064285D01*
X64664285Y-52873809D01*
X64664285Y-52730952D01*
X64711904Y-52540476D01*
X64759523Y-52445238D01*
X64854761Y-52350000D01*
X64997619Y-52302380D01*
X65092857Y-52302380D01*
X65235714Y-52350000D01*
X65283333Y-52397619D01*
X65664285Y-52397619D02*
X65711904Y-52350000D01*
X65807142Y-52302380D01*
X66045238Y-52302380D01*
X66140476Y-52350000D01*
X66188095Y-52397619D01*
X66235714Y-52492857D01*
X66235714Y-52588095D01*
X66188095Y-52730952D01*
X65616666Y-53302380D01*
X66235714Y-53302380D01*
%TO.C,TP6*%
X113783333Y-67352380D02*
X113783333Y-66352380D01*
X114164285Y-66352380D01*
X114259523Y-66400000D01*
X114307142Y-66447619D01*
X114354761Y-66542857D01*
X114354761Y-66685714D01*
X114307142Y-66780952D01*
X114259523Y-66828571D01*
X114164285Y-66876190D01*
X113783333Y-66876190D01*
X114735714Y-67066666D02*
X115211904Y-67066666D01*
X114640476Y-67352380D02*
X114973809Y-66352380D01*
X115307142Y-67352380D01*
X116116666Y-66352380D02*
X115640476Y-66352380D01*
X115592857Y-66828571D01*
X115640476Y-66780952D01*
X115735714Y-66733333D01*
X115973809Y-66733333D01*
X116069047Y-66780952D01*
X116116666Y-66828571D01*
X116164285Y-66923809D01*
X116164285Y-67161904D01*
X116116666Y-67257142D01*
X116069047Y-67304761D01*
X115973809Y-67352380D01*
X115735714Y-67352380D01*
X115640476Y-67304761D01*
X115592857Y-67257142D01*
%TO.C,TP5*%
X113783333Y-71652380D02*
X113783333Y-70652380D01*
X114164285Y-70652380D01*
X114259523Y-70700000D01*
X114307142Y-70747619D01*
X114354761Y-70842857D01*
X114354761Y-70985714D01*
X114307142Y-71080952D01*
X114259523Y-71128571D01*
X114164285Y-71176190D01*
X113783333Y-71176190D01*
X114735714Y-71366666D02*
X115211904Y-71366666D01*
X114640476Y-71652380D02*
X114973809Y-70652380D01*
X115307142Y-71652380D01*
X116069047Y-70985714D02*
X116069047Y-71652380D01*
X115830952Y-70604761D02*
X115592857Y-71319047D01*
X116211904Y-71319047D01*
%TO.C,TP4*%
X113833333Y-75902380D02*
X113833333Y-74902380D01*
X114214285Y-74902380D01*
X114309523Y-74950000D01*
X114357142Y-74997619D01*
X114404761Y-75092857D01*
X114404761Y-75235714D01*
X114357142Y-75330952D01*
X114309523Y-75378571D01*
X114214285Y-75426190D01*
X113833333Y-75426190D01*
X114785714Y-75616666D02*
X115261904Y-75616666D01*
X114690476Y-75902380D02*
X115023809Y-74902380D01*
X115357142Y-75902380D01*
X115595238Y-74902380D02*
X116214285Y-74902380D01*
X115880952Y-75283333D01*
X116023809Y-75283333D01*
X116119047Y-75330952D01*
X116166666Y-75378571D01*
X116214285Y-75473809D01*
X116214285Y-75711904D01*
X116166666Y-75807142D01*
X116119047Y-75854761D01*
X116023809Y-75902380D01*
X115738095Y-75902380D01*
X115642857Y-75854761D01*
X115595238Y-75807142D01*
%TO.C,TP3*%
X109652380Y-106238095D02*
X109652380Y-105619047D01*
X110033333Y-105952380D01*
X110033333Y-105809523D01*
X110080952Y-105714285D01*
X110128571Y-105666666D01*
X110223809Y-105619047D01*
X110461904Y-105619047D01*
X110557142Y-105666666D01*
X110604761Y-105714285D01*
X110652380Y-105809523D01*
X110652380Y-106095238D01*
X110604761Y-106190476D01*
X110557142Y-106238095D01*
X109652380Y-105333333D02*
X110652380Y-105000000D01*
X109652380Y-104666666D01*
X109652380Y-104428571D02*
X109652380Y-103809523D01*
X110033333Y-104142857D01*
X110033333Y-104000000D01*
X110080952Y-103904761D01*
X110128571Y-103857142D01*
X110223809Y-103809523D01*
X110461904Y-103809523D01*
X110557142Y-103857142D01*
X110604761Y-103904761D01*
X110652380Y-104000000D01*
X110652380Y-104285714D01*
X110604761Y-104380952D01*
X110557142Y-104428571D01*
%TO.C,TP2*%
X109700000Y-100261904D02*
X109652380Y-100357142D01*
X109652380Y-100500000D01*
X109700000Y-100642857D01*
X109795238Y-100738095D01*
X109890476Y-100785714D01*
X110080952Y-100833333D01*
X110223809Y-100833333D01*
X110414285Y-100785714D01*
X110509523Y-100738095D01*
X110604761Y-100642857D01*
X110652380Y-100500000D01*
X110652380Y-100404761D01*
X110604761Y-100261904D01*
X110557142Y-100214285D01*
X110223809Y-100214285D01*
X110223809Y-100404761D01*
X110652380Y-99785714D02*
X109652380Y-99785714D01*
X110652380Y-99214285D01*
X109652380Y-99214285D01*
X110652380Y-98738095D02*
X109652380Y-98738095D01*
X109652380Y-98500000D01*
X109700000Y-98357142D01*
X109795238Y-98261904D01*
X109890476Y-98214285D01*
X110080952Y-98166666D01*
X110223809Y-98166666D01*
X110414285Y-98214285D01*
X110509523Y-98261904D01*
X110604761Y-98357142D01*
X110652380Y-98500000D01*
X110652380Y-98738095D01*
%TO.C,TP1*%
X109652380Y-95619047D02*
X110652380Y-95380952D01*
X109938095Y-95190476D01*
X110652380Y-95000000D01*
X109652380Y-94761904D01*
X110652380Y-94380952D02*
X109652380Y-94380952D01*
X110652380Y-93904761D02*
X109652380Y-93904761D01*
X109652380Y-93523809D01*
X109700000Y-93428571D01*
X109747619Y-93380952D01*
X109842857Y-93333333D01*
X109985714Y-93333333D01*
X110080952Y-93380952D01*
X110128571Y-93428571D01*
X110176190Y-93523809D01*
X110176190Y-93904761D01*
X110128571Y-92904761D02*
X110128571Y-92571428D01*
X110652380Y-92428571D02*
X110652380Y-92904761D01*
X109652380Y-92904761D01*
X109652380Y-92428571D01*
%TO.C,J1*%
X64766666Y-42152380D02*
X64766666Y-42866666D01*
X64719047Y-43009523D01*
X64623809Y-43104761D01*
X64480952Y-43152380D01*
X64385714Y-43152380D01*
X65766666Y-43152380D02*
X65195238Y-43152380D01*
X65480952Y-43152380D02*
X65480952Y-42152380D01*
X65385714Y-42295238D01*
X65290476Y-42390476D01*
X65195238Y-42438095D01*
%TO.C,C16*%
X86557142Y-49142857D02*
X86604761Y-49190476D01*
X86652380Y-49333333D01*
X86652380Y-49428571D01*
X86604761Y-49571428D01*
X86509523Y-49666666D01*
X86414285Y-49714285D01*
X86223809Y-49761904D01*
X86080952Y-49761904D01*
X85890476Y-49714285D01*
X85795238Y-49666666D01*
X85700000Y-49571428D01*
X85652380Y-49428571D01*
X85652380Y-49333333D01*
X85700000Y-49190476D01*
X85747619Y-49142857D01*
X86652380Y-48190476D02*
X86652380Y-48761904D01*
X86652380Y-48476190D02*
X85652380Y-48476190D01*
X85795238Y-48571428D01*
X85890476Y-48666666D01*
X85938095Y-48761904D01*
X85652380Y-47333333D02*
X85652380Y-47523809D01*
X85700000Y-47619047D01*
X85747619Y-47666666D01*
X85890476Y-47761904D01*
X86080952Y-47809523D01*
X86461904Y-47809523D01*
X86557142Y-47761904D01*
X86604761Y-47714285D01*
X86652380Y-47619047D01*
X86652380Y-47428571D01*
X86604761Y-47333333D01*
X86557142Y-47285714D01*
X86461904Y-47238095D01*
X86223809Y-47238095D01*
X86128571Y-47285714D01*
X86080952Y-47333333D01*
X86033333Y-47428571D01*
X86033333Y-47619047D01*
X86080952Y-47714285D01*
X86128571Y-47761904D01*
X86223809Y-47809523D01*
%TO.C,C13*%
X81857142Y-54142857D02*
X81904761Y-54190476D01*
X81952380Y-54333333D01*
X81952380Y-54428571D01*
X81904761Y-54571428D01*
X81809523Y-54666666D01*
X81714285Y-54714285D01*
X81523809Y-54761904D01*
X81380952Y-54761904D01*
X81190476Y-54714285D01*
X81095238Y-54666666D01*
X81000000Y-54571428D01*
X80952380Y-54428571D01*
X80952380Y-54333333D01*
X81000000Y-54190476D01*
X81047619Y-54142857D01*
X81952380Y-53190476D02*
X81952380Y-53761904D01*
X81952380Y-53476190D02*
X80952380Y-53476190D01*
X81095238Y-53571428D01*
X81190476Y-53666666D01*
X81238095Y-53761904D01*
X80952380Y-52857142D02*
X80952380Y-52238095D01*
X81333333Y-52571428D01*
X81333333Y-52428571D01*
X81380952Y-52333333D01*
X81428571Y-52285714D01*
X81523809Y-52238095D01*
X81761904Y-52238095D01*
X81857142Y-52285714D01*
X81904761Y-52333333D01*
X81952380Y-52428571D01*
X81952380Y-52714285D01*
X81904761Y-52809523D01*
X81857142Y-52857142D01*
%TO.C,C15*%
X81857142Y-50642857D02*
X81904761Y-50690476D01*
X81952380Y-50833333D01*
X81952380Y-50928571D01*
X81904761Y-51071428D01*
X81809523Y-51166666D01*
X81714285Y-51214285D01*
X81523809Y-51261904D01*
X81380952Y-51261904D01*
X81190476Y-51214285D01*
X81095238Y-51166666D01*
X81000000Y-51071428D01*
X80952380Y-50928571D01*
X80952380Y-50833333D01*
X81000000Y-50690476D01*
X81047619Y-50642857D01*
X81952380Y-49690476D02*
X81952380Y-50261904D01*
X81952380Y-49976190D02*
X80952380Y-49976190D01*
X81095238Y-50071428D01*
X81190476Y-50166666D01*
X81238095Y-50261904D01*
X80952380Y-48785714D02*
X80952380Y-49261904D01*
X81428571Y-49309523D01*
X81380952Y-49261904D01*
X81333333Y-49166666D01*
X81333333Y-48928571D01*
X81380952Y-48833333D01*
X81428571Y-48785714D01*
X81523809Y-48738095D01*
X81761904Y-48738095D01*
X81857142Y-48785714D01*
X81904761Y-48833333D01*
X81952380Y-48928571D01*
X81952380Y-49166666D01*
X81904761Y-49261904D01*
X81857142Y-49309523D01*
%TO.C,U2*%
X86038095Y-63152380D02*
X86038095Y-63961904D01*
X86085714Y-64057142D01*
X86133333Y-64104761D01*
X86228571Y-64152380D01*
X86419047Y-64152380D01*
X86514285Y-64104761D01*
X86561904Y-64057142D01*
X86609523Y-63961904D01*
X86609523Y-63152380D01*
X87038095Y-63247619D02*
X87085714Y-63200000D01*
X87180952Y-63152380D01*
X87419047Y-63152380D01*
X87514285Y-63200000D01*
X87561904Y-63247619D01*
X87609523Y-63342857D01*
X87609523Y-63438095D01*
X87561904Y-63580952D01*
X86990476Y-64152380D01*
X87609523Y-64152380D01*
%TO.C,C12*%
X82857142Y-78342857D02*
X82904761Y-78390476D01*
X82952380Y-78533333D01*
X82952380Y-78628571D01*
X82904761Y-78771428D01*
X82809523Y-78866666D01*
X82714285Y-78914285D01*
X82523809Y-78961904D01*
X82380952Y-78961904D01*
X82190476Y-78914285D01*
X82095238Y-78866666D01*
X82000000Y-78771428D01*
X81952380Y-78628571D01*
X81952380Y-78533333D01*
X82000000Y-78390476D01*
X82047619Y-78342857D01*
X82952380Y-77390476D02*
X82952380Y-77961904D01*
X82952380Y-77676190D02*
X81952380Y-77676190D01*
X82095238Y-77771428D01*
X82190476Y-77866666D01*
X82238095Y-77961904D01*
X82047619Y-77009523D02*
X82000000Y-76961904D01*
X81952380Y-76866666D01*
X81952380Y-76628571D01*
X82000000Y-76533333D01*
X82047619Y-76485714D01*
X82142857Y-76438095D01*
X82238095Y-76438095D01*
X82380952Y-76485714D01*
X82952380Y-77057142D01*
X82952380Y-76438095D01*
%TO.C,C10*%
X77607142Y-78292857D02*
X77654761Y-78340476D01*
X77702380Y-78483333D01*
X77702380Y-78578571D01*
X77654761Y-78721428D01*
X77559523Y-78816666D01*
X77464285Y-78864285D01*
X77273809Y-78911904D01*
X77130952Y-78911904D01*
X76940476Y-78864285D01*
X76845238Y-78816666D01*
X76750000Y-78721428D01*
X76702380Y-78578571D01*
X76702380Y-78483333D01*
X76750000Y-78340476D01*
X76797619Y-78292857D01*
X77702380Y-77340476D02*
X77702380Y-77911904D01*
X77702380Y-77626190D02*
X76702380Y-77626190D01*
X76845238Y-77721428D01*
X76940476Y-77816666D01*
X76988095Y-77911904D01*
X76702380Y-76721428D02*
X76702380Y-76626190D01*
X76750000Y-76530952D01*
X76797619Y-76483333D01*
X76892857Y-76435714D01*
X77083333Y-76388095D01*
X77321428Y-76388095D01*
X77511904Y-76435714D01*
X77607142Y-76483333D01*
X77654761Y-76530952D01*
X77702380Y-76626190D01*
X77702380Y-76721428D01*
X77654761Y-76816666D01*
X77607142Y-76864285D01*
X77511904Y-76911904D01*
X77321428Y-76959523D01*
X77083333Y-76959523D01*
X76892857Y-76911904D01*
X76797619Y-76864285D01*
X76750000Y-76816666D01*
X76702380Y-76721428D01*
%TO.C,C11*%
X102807142Y-65607142D02*
X102759523Y-65654761D01*
X102616666Y-65702380D01*
X102521428Y-65702380D01*
X102378571Y-65654761D01*
X102283333Y-65559523D01*
X102235714Y-65464285D01*
X102188095Y-65273809D01*
X102188095Y-65130952D01*
X102235714Y-64940476D01*
X102283333Y-64845238D01*
X102378571Y-64750000D01*
X102521428Y-64702380D01*
X102616666Y-64702380D01*
X102759523Y-64750000D01*
X102807142Y-64797619D01*
X103759523Y-65702380D02*
X103188095Y-65702380D01*
X103473809Y-65702380D02*
X103473809Y-64702380D01*
X103378571Y-64845238D01*
X103283333Y-64940476D01*
X103188095Y-64988095D01*
X104711904Y-65702380D02*
X104140476Y-65702380D01*
X104426190Y-65702380D02*
X104426190Y-64702380D01*
X104330952Y-64845238D01*
X104235714Y-64940476D01*
X104140476Y-64988095D01*
%TO.C,C5*%
X75633333Y-67057142D02*
X75585714Y-67104761D01*
X75442857Y-67152380D01*
X75347619Y-67152380D01*
X75204761Y-67104761D01*
X75109523Y-67009523D01*
X75061904Y-66914285D01*
X75014285Y-66723809D01*
X75014285Y-66580952D01*
X75061904Y-66390476D01*
X75109523Y-66295238D01*
X75204761Y-66200000D01*
X75347619Y-66152380D01*
X75442857Y-66152380D01*
X75585714Y-66200000D01*
X75633333Y-66247619D01*
X76538095Y-66152380D02*
X76061904Y-66152380D01*
X76014285Y-66628571D01*
X76061904Y-66580952D01*
X76157142Y-66533333D01*
X76395238Y-66533333D01*
X76490476Y-66580952D01*
X76538095Y-66628571D01*
X76585714Y-66723809D01*
X76585714Y-66961904D01*
X76538095Y-67057142D01*
X76490476Y-67104761D01*
X76395238Y-67152380D01*
X76157142Y-67152380D01*
X76061904Y-67104761D01*
X76014285Y-67057142D01*
%TO.C,C1*%
X65283333Y-51407142D02*
X65235714Y-51454761D01*
X65092857Y-51502380D01*
X64997619Y-51502380D01*
X64854761Y-51454761D01*
X64759523Y-51359523D01*
X64711904Y-51264285D01*
X64664285Y-51073809D01*
X64664285Y-50930952D01*
X64711904Y-50740476D01*
X64759523Y-50645238D01*
X64854761Y-50550000D01*
X64997619Y-50502380D01*
X65092857Y-50502380D01*
X65235714Y-50550000D01*
X65283333Y-50597619D01*
X66235714Y-51502380D02*
X65664285Y-51502380D01*
X65950000Y-51502380D02*
X65950000Y-50502380D01*
X65854761Y-50645238D01*
X65759523Y-50740476D01*
X65664285Y-50788095D01*
%TO.C,C9*%
X84633333Y-78587142D02*
X84585714Y-78634761D01*
X84442857Y-78682380D01*
X84347619Y-78682380D01*
X84204761Y-78634761D01*
X84109523Y-78539523D01*
X84061904Y-78444285D01*
X84014285Y-78253809D01*
X84014285Y-78110952D01*
X84061904Y-77920476D01*
X84109523Y-77825238D01*
X84204761Y-77730000D01*
X84347619Y-77682380D01*
X84442857Y-77682380D01*
X84585714Y-77730000D01*
X84633333Y-77777619D01*
X85109523Y-78682380D02*
X85300000Y-78682380D01*
X85395238Y-78634761D01*
X85442857Y-78587142D01*
X85538095Y-78444285D01*
X85585714Y-78253809D01*
X85585714Y-77872857D01*
X85538095Y-77777619D01*
X85490476Y-77730000D01*
X85395238Y-77682380D01*
X85204761Y-77682380D01*
X85109523Y-77730000D01*
X85061904Y-77777619D01*
X85014285Y-77872857D01*
X85014285Y-78110952D01*
X85061904Y-78206190D01*
X85109523Y-78253809D01*
X85204761Y-78301428D01*
X85395238Y-78301428D01*
X85490476Y-78253809D01*
X85538095Y-78206190D01*
X85585714Y-78110952D01*
%TO.C,C4*%
X82257142Y-56216666D02*
X82304761Y-56264285D01*
X82352380Y-56407142D01*
X82352380Y-56502380D01*
X82304761Y-56645238D01*
X82209523Y-56740476D01*
X82114285Y-56788095D01*
X81923809Y-56835714D01*
X81780952Y-56835714D01*
X81590476Y-56788095D01*
X81495238Y-56740476D01*
X81400000Y-56645238D01*
X81352380Y-56502380D01*
X81352380Y-56407142D01*
X81400000Y-56264285D01*
X81447619Y-56216666D01*
X81685714Y-55359523D02*
X82352380Y-55359523D01*
X81304761Y-55597619D02*
X82019047Y-55835714D01*
X82019047Y-55216666D01*
%TO.C,C8*%
X84633333Y-73957142D02*
X84585714Y-74004761D01*
X84442857Y-74052380D01*
X84347619Y-74052380D01*
X84204761Y-74004761D01*
X84109523Y-73909523D01*
X84061904Y-73814285D01*
X84014285Y-73623809D01*
X84014285Y-73480952D01*
X84061904Y-73290476D01*
X84109523Y-73195238D01*
X84204761Y-73100000D01*
X84347619Y-73052380D01*
X84442857Y-73052380D01*
X84585714Y-73100000D01*
X84633333Y-73147619D01*
X85204761Y-73480952D02*
X85109523Y-73433333D01*
X85061904Y-73385714D01*
X85014285Y-73290476D01*
X85014285Y-73242857D01*
X85061904Y-73147619D01*
X85109523Y-73100000D01*
X85204761Y-73052380D01*
X85395238Y-73052380D01*
X85490476Y-73100000D01*
X85538095Y-73147619D01*
X85585714Y-73242857D01*
X85585714Y-73290476D01*
X85538095Y-73385714D01*
X85490476Y-73433333D01*
X85395238Y-73480952D01*
X85204761Y-73480952D01*
X85109523Y-73528571D01*
X85061904Y-73576190D01*
X85014285Y-73671428D01*
X85014285Y-73861904D01*
X85061904Y-73957142D01*
X85109523Y-74004761D01*
X85204761Y-74052380D01*
X85395238Y-74052380D01*
X85490476Y-74004761D01*
X85538095Y-73957142D01*
X85585714Y-73861904D01*
X85585714Y-73671428D01*
X85538095Y-73576190D01*
X85490476Y-73528571D01*
X85395238Y-73480952D01*
%TO.C,C7*%
X100733333Y-74257142D02*
X100685714Y-74304761D01*
X100542857Y-74352380D01*
X100447619Y-74352380D01*
X100304761Y-74304761D01*
X100209523Y-74209523D01*
X100161904Y-74114285D01*
X100114285Y-73923809D01*
X100114285Y-73780952D01*
X100161904Y-73590476D01*
X100209523Y-73495238D01*
X100304761Y-73400000D01*
X100447619Y-73352380D01*
X100542857Y-73352380D01*
X100685714Y-73400000D01*
X100733333Y-73447619D01*
X101066666Y-73352380D02*
X101733333Y-73352380D01*
X101304761Y-74352380D01*
%TD*%
M02*
