%TF.GenerationSoftware,KiCad,Pcbnew,(5.1.5)-3*%
%TF.CreationDate,2020-04-21T20:59:24+02:00*%
%TF.ProjectId,loeti,6c6f6574-692e-46b6-9963-61645f706362,rev?*%
%TF.SameCoordinates,Original*%
%TF.FileFunction,Copper,L2,Bot*%
%TF.FilePolarity,Positive*%
%FSLAX46Y46*%
G04 Gerber Fmt 4.6, Leading zero omitted, Abs format (unit mm)*
G04 Created by KiCad (PCBNEW (5.1.5)-3) date 2020-04-21 20:59:24*
%MOMM*%
%LPD*%
G04 APERTURE LIST*
%TA.AperFunction,ComponentPad*%
%ADD10O,1.000000X1.000000*%
%TD*%
%TA.AperFunction,ComponentPad*%
%ADD11R,1.000000X1.000000*%
%TD*%
%TA.AperFunction,ComponentPad*%
%ADD12C,1.500000*%
%TD*%
%TA.AperFunction,ComponentPad*%
%ADD13R,1.500000X1.500000*%
%TD*%
%TA.AperFunction,SMDPad,CuDef*%
%ADD14C,0.100000*%
%TD*%
%TA.AperFunction,ComponentPad*%
%ADD15R,1.600000X1.600000*%
%TD*%
%TA.AperFunction,ComponentPad*%
%ADD16C,1.600000*%
%TD*%
%TA.AperFunction,ComponentPad*%
%ADD17R,2.000000X2.000000*%
%TD*%
%TA.AperFunction,ComponentPad*%
%ADD18R,4.000000X4.000000*%
%TD*%
%TA.AperFunction,ComponentPad*%
%ADD19O,1.000000X2.400000*%
%TD*%
%TA.AperFunction,ComponentPad*%
%ADD20O,1.000000X2.550000*%
%TD*%
%TA.AperFunction,ViaPad*%
%ADD21C,0.600000*%
%TD*%
%TA.AperFunction,ViaPad*%
%ADD22C,1.000000*%
%TD*%
%TA.AperFunction,Conductor*%
%ADD23C,0.600000*%
%TD*%
%TA.AperFunction,Conductor*%
%ADD24C,0.150000*%
%TD*%
G04 APERTURE END LIST*
D10*
%TO.P,J2,14*%
%TO.N,N/C*%
X108330000Y-58270000D03*
%TO.P,J2,13*%
X109600000Y-58270000D03*
%TO.P,J2,12*%
%TO.N,NRST*%
X108330000Y-59540000D03*
%TO.P,J2,11*%
%TO.N,HEATER-*%
X109600000Y-59540000D03*
%TO.P,J2,10*%
%TO.N,N/C*%
X108330000Y-60810000D03*
%TO.P,J2,9*%
X109600000Y-60810000D03*
%TO.P,J2,8*%
X108330000Y-62080000D03*
%TO.P,J2,7*%
%TO.N,HEATER-*%
X109600000Y-62080000D03*
%TO.P,J2,6*%
%TO.N,SWCLK*%
X108330000Y-63350000D03*
%TO.P,J2,5*%
%TO.N,HEATER-*%
X109600000Y-63350000D03*
%TO.P,J2,4*%
%TO.N,SWDIO*%
X108330000Y-64620000D03*
%TO.P,J2,3*%
%TO.N,+3V3*%
X109600000Y-64620000D03*
%TO.P,J2,2*%
%TO.N,N/C*%
X108330000Y-65890000D03*
D11*
%TO.P,J2,1*%
X109600000Y-65890000D03*
%TD*%
D12*
%TO.P,U4,2*%
%TO.N,N/C*%
X98880000Y-106100000D03*
%TO.P,U4,9*%
X81100000Y-106100000D03*
%TO.P,U4,10*%
X78560000Y-106100000D03*
%TO.P,U4,11*%
%TO.N,Net-(C10-Pad1)*%
X78560000Y-80700000D03*
%TO.P,U4,12*%
%TO.N,+3V3*%
X81100000Y-80700000D03*
%TO.P,U4,13*%
X83640000Y-80700000D03*
%TO.P,U4,14*%
%TO.N,HEATER-*%
X86180000Y-80700000D03*
%TO.P,U4,15*%
%TO.N,SPI1_MISO*%
X88720000Y-80700000D03*
%TO.P,U4,16*%
%TO.N,SPI1_MOSI*%
X91260000Y-80700000D03*
%TO.P,U4,17*%
%TO.N,SPI1_SCK*%
X93800000Y-80700000D03*
%TO.P,U4,18*%
%TO.N,SPI1_NSS2*%
X96340000Y-80700000D03*
%TO.P,U4,19*%
%TO.N,HEATER-*%
X98880000Y-80700000D03*
%TO.P,U4,20*%
%TO.N,LCD_NRST*%
X101420000Y-80700000D03*
D13*
%TO.P,U4,1*%
%TO.N,N/C*%
X101420000Y-106100000D03*
%TD*%
%TA.AperFunction,SMDPad,CuDef*%
D14*
%TO.P,SW2,2*%
%TO.N,HEATER-*%
G36*
X93549009Y-117002408D02*
G01*
X93597545Y-117009607D01*
X93645142Y-117021530D01*
X93691342Y-117038060D01*
X93735698Y-117059039D01*
X93777785Y-117084265D01*
X93817197Y-117113495D01*
X93853553Y-117146447D01*
X93886505Y-117182803D01*
X93915735Y-117222215D01*
X93940961Y-117264302D01*
X93961940Y-117308658D01*
X93978470Y-117354858D01*
X93990393Y-117402455D01*
X93997592Y-117450991D01*
X94000000Y-117500000D01*
X94000000Y-118500000D01*
X93997592Y-118549009D01*
X93990393Y-118597545D01*
X93978470Y-118645142D01*
X93961940Y-118691342D01*
X93940961Y-118735698D01*
X93915735Y-118777785D01*
X93886505Y-118817197D01*
X93853553Y-118853553D01*
X93817197Y-118886505D01*
X93777785Y-118915735D01*
X93735698Y-118940961D01*
X93691342Y-118961940D01*
X93645142Y-118978470D01*
X93597545Y-118990393D01*
X93549009Y-118997592D01*
X93500000Y-119000000D01*
X91500000Y-119000000D01*
X91450991Y-118997592D01*
X91402455Y-118990393D01*
X91354858Y-118978470D01*
X91308658Y-118961940D01*
X91264302Y-118940961D01*
X91222215Y-118915735D01*
X91182803Y-118886505D01*
X91146447Y-118853553D01*
X91113495Y-118817197D01*
X91084265Y-118777785D01*
X91059039Y-118735698D01*
X91038060Y-118691342D01*
X91021530Y-118645142D01*
X91009607Y-118597545D01*
X91002408Y-118549009D01*
X91000000Y-118500000D01*
X91000000Y-117500000D01*
X91002408Y-117450991D01*
X91009607Y-117402455D01*
X91021530Y-117354858D01*
X91038060Y-117308658D01*
X91059039Y-117264302D01*
X91084265Y-117222215D01*
X91113495Y-117182803D01*
X91146447Y-117146447D01*
X91182803Y-117113495D01*
X91222215Y-117084265D01*
X91264302Y-117059039D01*
X91308658Y-117038060D01*
X91354858Y-117021530D01*
X91402455Y-117009607D01*
X91450991Y-117002408D01*
X91500000Y-117000000D01*
X93500000Y-117000000D01*
X93549009Y-117002408D01*
G37*
%TD.AperFunction*%
%TA.AperFunction,SMDPad,CuDef*%
%TO.P,SW2,1*%
%TO.N,Net-(SW2-Pad1)*%
G36*
X100549009Y-117002408D02*
G01*
X100597545Y-117009607D01*
X100645142Y-117021530D01*
X100691342Y-117038060D01*
X100735698Y-117059039D01*
X100777785Y-117084265D01*
X100817197Y-117113495D01*
X100853553Y-117146447D01*
X100886505Y-117182803D01*
X100915735Y-117222215D01*
X100940961Y-117264302D01*
X100961940Y-117308658D01*
X100978470Y-117354858D01*
X100990393Y-117402455D01*
X100997592Y-117450991D01*
X101000000Y-117500000D01*
X101000000Y-118500000D01*
X100997592Y-118549009D01*
X100990393Y-118597545D01*
X100978470Y-118645142D01*
X100961940Y-118691342D01*
X100940961Y-118735698D01*
X100915735Y-118777785D01*
X100886505Y-118817197D01*
X100853553Y-118853553D01*
X100817197Y-118886505D01*
X100777785Y-118915735D01*
X100735698Y-118940961D01*
X100691342Y-118961940D01*
X100645142Y-118978470D01*
X100597545Y-118990393D01*
X100549009Y-118997592D01*
X100500000Y-119000000D01*
X98500000Y-119000000D01*
X98450991Y-118997592D01*
X98402455Y-118990393D01*
X98354858Y-118978470D01*
X98308658Y-118961940D01*
X98264302Y-118940961D01*
X98222215Y-118915735D01*
X98182803Y-118886505D01*
X98146447Y-118853553D01*
X98113495Y-118817197D01*
X98084265Y-118777785D01*
X98059039Y-118735698D01*
X98038060Y-118691342D01*
X98021530Y-118645142D01*
X98009607Y-118597545D01*
X98002408Y-118549009D01*
X98000000Y-118500000D01*
X98000000Y-117500000D01*
X98002408Y-117450991D01*
X98009607Y-117402455D01*
X98021530Y-117354858D01*
X98038060Y-117308658D01*
X98059039Y-117264302D01*
X98084265Y-117222215D01*
X98113495Y-117182803D01*
X98146447Y-117146447D01*
X98182803Y-117113495D01*
X98222215Y-117084265D01*
X98264302Y-117059039D01*
X98308658Y-117038060D01*
X98354858Y-117021530D01*
X98402455Y-117009607D01*
X98450991Y-117002408D01*
X98500000Y-117000000D01*
X100500000Y-117000000D01*
X100549009Y-117002408D01*
G37*
%TD.AperFunction*%
%TD*%
%TA.AperFunction,SMDPad,CuDef*%
%TO.P,SW3,2*%
%TO.N,HEATER-*%
G36*
X88549009Y-117002408D02*
G01*
X88597545Y-117009607D01*
X88645142Y-117021530D01*
X88691342Y-117038060D01*
X88735698Y-117059039D01*
X88777785Y-117084265D01*
X88817197Y-117113495D01*
X88853553Y-117146447D01*
X88886505Y-117182803D01*
X88915735Y-117222215D01*
X88940961Y-117264302D01*
X88961940Y-117308658D01*
X88978470Y-117354858D01*
X88990393Y-117402455D01*
X88997592Y-117450991D01*
X89000000Y-117500000D01*
X89000000Y-118500000D01*
X88997592Y-118549009D01*
X88990393Y-118597545D01*
X88978470Y-118645142D01*
X88961940Y-118691342D01*
X88940961Y-118735698D01*
X88915735Y-118777785D01*
X88886505Y-118817197D01*
X88853553Y-118853553D01*
X88817197Y-118886505D01*
X88777785Y-118915735D01*
X88735698Y-118940961D01*
X88691342Y-118961940D01*
X88645142Y-118978470D01*
X88597545Y-118990393D01*
X88549009Y-118997592D01*
X88500000Y-119000000D01*
X86500000Y-119000000D01*
X86450991Y-118997592D01*
X86402455Y-118990393D01*
X86354858Y-118978470D01*
X86308658Y-118961940D01*
X86264302Y-118940961D01*
X86222215Y-118915735D01*
X86182803Y-118886505D01*
X86146447Y-118853553D01*
X86113495Y-118817197D01*
X86084265Y-118777785D01*
X86059039Y-118735698D01*
X86038060Y-118691342D01*
X86021530Y-118645142D01*
X86009607Y-118597545D01*
X86002408Y-118549009D01*
X86000000Y-118500000D01*
X86000000Y-117500000D01*
X86002408Y-117450991D01*
X86009607Y-117402455D01*
X86021530Y-117354858D01*
X86038060Y-117308658D01*
X86059039Y-117264302D01*
X86084265Y-117222215D01*
X86113495Y-117182803D01*
X86146447Y-117146447D01*
X86182803Y-117113495D01*
X86222215Y-117084265D01*
X86264302Y-117059039D01*
X86308658Y-117038060D01*
X86354858Y-117021530D01*
X86402455Y-117009607D01*
X86450991Y-117002408D01*
X86500000Y-117000000D01*
X88500000Y-117000000D01*
X88549009Y-117002408D01*
G37*
%TD.AperFunction*%
%TA.AperFunction,SMDPad,CuDef*%
%TO.P,SW3,1*%
%TO.N,Net-(SW3-Pad1)*%
G36*
X81549009Y-117002408D02*
G01*
X81597545Y-117009607D01*
X81645142Y-117021530D01*
X81691342Y-117038060D01*
X81735698Y-117059039D01*
X81777785Y-117084265D01*
X81817197Y-117113495D01*
X81853553Y-117146447D01*
X81886505Y-117182803D01*
X81915735Y-117222215D01*
X81940961Y-117264302D01*
X81961940Y-117308658D01*
X81978470Y-117354858D01*
X81990393Y-117402455D01*
X81997592Y-117450991D01*
X82000000Y-117500000D01*
X82000000Y-118500000D01*
X81997592Y-118549009D01*
X81990393Y-118597545D01*
X81978470Y-118645142D01*
X81961940Y-118691342D01*
X81940961Y-118735698D01*
X81915735Y-118777785D01*
X81886505Y-118817197D01*
X81853553Y-118853553D01*
X81817197Y-118886505D01*
X81777785Y-118915735D01*
X81735698Y-118940961D01*
X81691342Y-118961940D01*
X81645142Y-118978470D01*
X81597545Y-118990393D01*
X81549009Y-118997592D01*
X81500000Y-119000000D01*
X79500000Y-119000000D01*
X79450991Y-118997592D01*
X79402455Y-118990393D01*
X79354858Y-118978470D01*
X79308658Y-118961940D01*
X79264302Y-118940961D01*
X79222215Y-118915735D01*
X79182803Y-118886505D01*
X79146447Y-118853553D01*
X79113495Y-118817197D01*
X79084265Y-118777785D01*
X79059039Y-118735698D01*
X79038060Y-118691342D01*
X79021530Y-118645142D01*
X79009607Y-118597545D01*
X79002408Y-118549009D01*
X79000000Y-118500000D01*
X79000000Y-117500000D01*
X79002408Y-117450991D01*
X79009607Y-117402455D01*
X79021530Y-117354858D01*
X79038060Y-117308658D01*
X79059039Y-117264302D01*
X79084265Y-117222215D01*
X79113495Y-117182803D01*
X79146447Y-117146447D01*
X79182803Y-117113495D01*
X79222215Y-117084265D01*
X79264302Y-117059039D01*
X79308658Y-117038060D01*
X79354858Y-117021530D01*
X79402455Y-117009607D01*
X79450991Y-117002408D01*
X79500000Y-117000000D01*
X81500000Y-117000000D01*
X81549009Y-117002408D01*
G37*
%TD.AperFunction*%
%TD*%
D15*
%TO.P,C17,1*%
%TO.N,VBUS*%
X70250000Y-55250000D03*
D16*
%TO.P,C17,2*%
%TO.N,HEATER-*%
X66750000Y-55250000D03*
%TD*%
D17*
%TO.P,TP6,1*%
%TO.N,PA5*%
X114950000Y-68950000D03*
%TD*%
%TO.P,TP5,1*%
%TO.N,PA4*%
X114950000Y-73250000D03*
%TD*%
%TO.P,TP4,1*%
%TO.N,PA3*%
X115000000Y-77500000D03*
%TD*%
D18*
%TO.P,TP3,1*%
%TO.N,+3V3*%
X113300000Y-105000000D03*
%TD*%
%TO.P,TP2,1*%
%TO.N,HEATER-*%
X113300000Y-99500000D03*
%TD*%
%TO.P,TP1,1*%
%TO.N,ADC_IN2*%
X113300000Y-94000000D03*
%TD*%
D19*
%TO.P,J1,S1*%
%TO.N,HEATER-*%
X67000000Y-44120000D03*
D20*
X67000000Y-47350000D03*
X77800000Y-47350000D03*
D19*
X77800000Y-44120000D03*
%TD*%
D21*
%TO.N,VBUS*%
X80800000Y-56100000D03*
X80800000Y-60700000D03*
D22*
%TO.N,+3V3*%
X104750000Y-72250000D03*
X104750000Y-67750000D03*
X92750000Y-75250000D03*
X98000000Y-75250000D03*
X88250000Y-75250000D03*
X97250000Y-65325000D03*
X98000000Y-76500000D03*
X92750000Y-76500000D03*
X88250000Y-76500000D03*
X104750000Y-76500000D03*
X74400000Y-67700000D03*
X74400000Y-68900000D03*
X82100000Y-69050000D03*
D21*
X84800000Y-50500000D03*
X100000000Y-67600000D03*
X84800000Y-58800000D03*
D22*
X76400000Y-72450000D03*
X74400000Y-64000000D03*
X74400000Y-66500000D03*
D21*
X104750000Y-69950000D03*
%TO.N,CC2*%
X76850000Y-64050000D03*
X71100000Y-50100000D03*
%TO.N,CC1*%
X76850000Y-62150000D03*
X73600000Y-50100000D03*
%TO.N,USB_P*%
X91300000Y-66799972D03*
X82900000Y-73400000D03*
%TO.N,USB_N*%
X92100000Y-66800024D03*
X82900000Y-71500000D03*
D22*
%TO.N,HEATER-*%
X104750000Y-42500000D03*
X106000000Y-42500000D03*
X107250000Y-42500000D03*
X107250000Y-43750000D03*
X106000000Y-43750000D03*
X104750000Y-43750000D03*
X104750000Y-45000000D03*
X106000000Y-45000000D03*
X107250000Y-45000000D03*
X89600000Y-43450000D03*
X89600000Y-48700000D03*
X96900000Y-55000000D03*
X96900000Y-56250000D03*
X98150000Y-56250000D03*
X98150000Y-55000000D03*
X99400000Y-55000000D03*
X99400000Y-56250000D03*
X100650000Y-56250000D03*
X100650000Y-55000000D03*
X98650000Y-63250000D03*
X90000000Y-118000000D03*
X65000000Y-49500000D03*
X65000000Y-47000000D03*
X65000000Y-44500000D03*
X77250000Y-49500000D03*
X79750000Y-49500000D03*
X79750000Y-47000000D03*
X79750000Y-44500000D03*
X81000000Y-43250000D03*
X83500000Y-43250000D03*
X86000000Y-43250000D03*
X92750000Y-58500000D03*
X94000000Y-58500000D03*
X78500000Y-58500000D03*
X78500000Y-59750000D03*
X78500000Y-61000000D03*
X88250000Y-52000000D03*
X88250000Y-53250000D03*
X88250000Y-54500000D03*
X90750000Y-62750000D03*
X89500000Y-62750000D03*
X67500000Y-49500000D03*
D21*
X82100000Y-62350000D03*
%TO.N,I2C1_SCL*%
X81650000Y-66450000D03*
X85000000Y-69300000D03*
%TO.N,I2C1_SDA*%
X82550000Y-66450000D03*
X84400000Y-68300000D03*
%TO.N,PD_ALERT_INT*%
X93400000Y-63750000D03*
X88600000Y-59500000D03*
%TO.N,SPI1_MOSI*%
X90200000Y-72000000D03*
X87200000Y-69100000D03*
X84000000Y-44900000D03*
%TO.N,SPI1_MISO*%
X91000000Y-71250000D03*
X86600000Y-68300000D03*
X84000000Y-45700000D03*
%TO.N,SPI1_SCK*%
X91800000Y-70400000D03*
X85400000Y-67500000D03*
X83200000Y-44900000D03*
%TO.N,SPI1_NSS1*%
X86000000Y-66700000D03*
X83200000Y-45700000D03*
%TO.N,LCD_NRST*%
X94200000Y-71200000D03*
%TO.N,NRST*%
X101100040Y-70600000D03*
X92600000Y-71099992D03*
X108900000Y-70600000D03*
%TO.N,SWCLK*%
X94600000Y-68800000D03*
%TO.N,SWDIO*%
X93400000Y-68800000D03*
%TO.N,SPI1_NSS2*%
X94000000Y-68000000D03*
%TO.N,ADC_IN2*%
X95300000Y-72500000D03*
%TO.N,PA3*%
X98000000Y-72300000D03*
%TO.N,PA4*%
X99000000Y-72000000D03*
%TO.N,PA5*%
X95300000Y-71200000D03*
%TO.N,PD_RST*%
X94750000Y-67250000D03*
X80200000Y-68700000D03*
%TO.N,Net-(J1-PadA7)*%
X72700000Y-49499998D03*
X71600000Y-49500000D03*
X78000000Y-71500000D03*
%TO.N,Net-(J1-PadA6)*%
X72150000Y-50100000D03*
X77400000Y-73400000D03*
%TO.N,Net-(SW2-Pad1)*%
X93400000Y-72100000D03*
X94000000Y-103100000D03*
X94600000Y-79600000D03*
%TO.N,Net-(SW3-Pad1)*%
X94200000Y-72100000D03*
X94000000Y-104500000D03*
X95600000Y-79600000D03*
%TD*%
D23*
%TO.N,VBUS*%
X80800000Y-56100000D02*
X80800000Y-60700000D01*
D24*
%TO.N,CC2*%
X76700000Y-64200000D02*
X76850000Y-64050000D01*
X76250000Y-64050000D02*
X76850000Y-64050000D01*
X71100000Y-50100000D02*
X71650000Y-50650000D01*
X71650000Y-50650000D02*
X71650000Y-52850000D01*
X71650000Y-52850000D02*
X74650000Y-55850000D01*
X74650000Y-55850000D02*
X74650000Y-62450000D01*
X74650000Y-62450000D02*
X76250000Y-64050000D01*
%TO.N,CC1*%
X76450000Y-61750000D02*
X76850000Y-62150000D01*
X76450000Y-55250000D02*
X76450000Y-61750000D01*
X73250000Y-52050000D02*
X76450000Y-55250000D01*
X73600000Y-50100000D02*
X73250000Y-50450000D01*
X73250000Y-50450000D02*
X73250000Y-52050000D01*
%TO.N,USB_P*%
X91300000Y-68200000D02*
X91300000Y-66799972D01*
X87200000Y-72300000D02*
X91300000Y-68200000D01*
X84600000Y-72300000D02*
X87200000Y-72300000D01*
X82200000Y-72700000D02*
X82200000Y-71300000D01*
X82900000Y-73400000D02*
X82200000Y-72700000D01*
X82200000Y-71300000D02*
X82600000Y-70900000D01*
X83200000Y-70900000D02*
X84600000Y-72300000D01*
X82600000Y-70900000D02*
X83200000Y-70900000D01*
%TO.N,USB_N*%
X92100000Y-68000000D02*
X92100000Y-66800024D01*
X82900000Y-71500000D02*
X84300000Y-72900000D01*
X84300000Y-72900000D02*
X87200000Y-72900000D01*
X87200000Y-72900000D02*
X92100000Y-68000000D01*
%TO.N,HEATER-*%
X87500000Y-118000000D02*
X90000000Y-118000000D01*
X90000000Y-118000000D02*
X92500000Y-118000000D01*
%TO.N,I2C1_SCL*%
X84500000Y-69300000D02*
X81650000Y-66450000D01*
X85000000Y-69300000D02*
X84500000Y-69300000D01*
%TO.N,I2C1_SDA*%
X84400000Y-68300000D02*
X82550000Y-66450000D01*
%TO.N,PD_ALERT_INT*%
X88600000Y-59500000D02*
X88600000Y-63100000D01*
X89250000Y-63750000D02*
X93400000Y-63750000D01*
X88600000Y-63100000D02*
X89250000Y-63750000D01*
%TO.N,SPI1_MOSI*%
X91260000Y-80060000D02*
X91260000Y-80700000D01*
X90200000Y-79000000D02*
X91260000Y-80060000D01*
X90200000Y-72000000D02*
X90200000Y-79000000D01*
X84600000Y-47000000D02*
X87250000Y-49650000D01*
X87250000Y-49650000D02*
X87200000Y-69100000D01*
X84000000Y-44900000D02*
X84600000Y-45500000D01*
X84600000Y-45500000D02*
X84600000Y-47000000D01*
%TO.N,SPI1_MISO*%
X92000000Y-82000000D02*
X90020000Y-82000000D01*
X92600000Y-81400000D02*
X92000000Y-82000000D01*
X92600000Y-80200000D02*
X92600000Y-81400000D01*
X91000000Y-78600000D02*
X92600000Y-80200000D01*
X89469999Y-81449999D02*
X88720000Y-80700000D01*
X90020000Y-82000000D02*
X89469999Y-81449999D01*
X91000000Y-71250000D02*
X91000000Y-78600000D01*
X84000000Y-45700000D02*
X83800000Y-45900000D01*
X86600000Y-49700000D02*
X86600000Y-68300000D01*
X83800000Y-45900000D02*
X83800000Y-46900000D01*
X83800000Y-46900000D02*
X86600000Y-49700000D01*
%TO.N,SPI1_SCK*%
X93050001Y-79950001D02*
X93800000Y-80700000D01*
X91800000Y-78700000D02*
X93050001Y-79950001D01*
X91800000Y-70400000D02*
X91800000Y-78700000D01*
X85400000Y-50100000D02*
X85400000Y-67500000D01*
X82600000Y-47300000D02*
X85400000Y-50100000D01*
X83200000Y-44900000D02*
X82600000Y-45500000D01*
X82600000Y-45500000D02*
X82600000Y-47300000D01*
%TO.N,SPI1_NSS1*%
X83200000Y-45700000D02*
X83400000Y-45900000D01*
X83400000Y-47300000D02*
X86000000Y-49900000D01*
X83400000Y-45900000D02*
X83400000Y-47300000D01*
X86000000Y-49900000D02*
X86000000Y-66700000D01*
%TO.N,LCD_NRST*%
X100359340Y-80700000D02*
X101420000Y-80700000D01*
X94200000Y-71200000D02*
X94900000Y-71900000D01*
X96500000Y-76840660D02*
X100359340Y-80700000D01*
X96500000Y-72922998D02*
X96500000Y-76840660D01*
X94900000Y-71900000D02*
X95477002Y-71900000D01*
X95477002Y-71900000D02*
X96500000Y-72922998D01*
%TO.N,NRST*%
X101100040Y-70600000D02*
X93099992Y-70600000D01*
X93099992Y-70600000D02*
X92600000Y-71099992D01*
X101100040Y-70600000D02*
X108900000Y-70600000D01*
%TO.N,SWCLK*%
X108330000Y-63370000D02*
X108330000Y-63350000D01*
X106800000Y-64900000D02*
X108330000Y-63370000D01*
X106800000Y-67300000D02*
X106800000Y-64900000D01*
X94600000Y-68800000D02*
X105300000Y-68800000D01*
X105300000Y-68800000D02*
X106800000Y-67300000D01*
%TO.N,SWDIO*%
X105574999Y-69325001D02*
X107200000Y-67700000D01*
X107200000Y-67700000D02*
X107200000Y-65750000D01*
X93400000Y-68800000D02*
X93925001Y-69325001D01*
X107200000Y-65750000D02*
X108330000Y-64620000D01*
X93925001Y-69325001D02*
X105574999Y-69325001D01*
%TO.N,SPI1_NSS2*%
X94440000Y-82600000D02*
X96340000Y-80700000D01*
X87500000Y-81500000D02*
X88600000Y-82600000D01*
X93300000Y-68000000D02*
X89500000Y-71800000D01*
X94000000Y-68000000D02*
X93300000Y-68000000D01*
X88600000Y-82600000D02*
X94440000Y-82600000D01*
X87500000Y-79700000D02*
X87500000Y-81500000D01*
X89500000Y-71800000D02*
X89500000Y-77700000D01*
X89500000Y-77700000D02*
X87500000Y-79700000D01*
%TO.N,ADC_IN2*%
X110000000Y-94000000D02*
X113300000Y-94000000D01*
X97600000Y-81600000D02*
X110000000Y-94000000D01*
X95300000Y-72500000D02*
X95300000Y-77300000D01*
X97600000Y-79600000D02*
X97600000Y-81600000D01*
X95300000Y-77300000D02*
X97600000Y-79600000D01*
%TO.N,PA3*%
X98000000Y-72300000D02*
X98400000Y-72700000D01*
X98400000Y-72700000D02*
X102700000Y-72700000D01*
X103950000Y-73950000D02*
X104000000Y-74000000D01*
X102700000Y-72700000D02*
X103950000Y-73950000D01*
X103950000Y-73950000D02*
X105000000Y-75000000D01*
X112500000Y-75000000D02*
X115000000Y-77500000D01*
X105000000Y-75000000D02*
X112500000Y-75000000D01*
%TO.N,PA4*%
X114200000Y-74000000D02*
X114950000Y-73250000D01*
X105000000Y-74000000D02*
X114200000Y-74000000D01*
X99000000Y-72000000D02*
X103000000Y-72000000D01*
X103000000Y-72000000D02*
X105000000Y-74000000D01*
%TO.N,PA5*%
X95724264Y-71200000D02*
X95300000Y-71200000D01*
X114950000Y-68950000D02*
X112700000Y-71200000D01*
X112700000Y-71200000D02*
X95724264Y-71200000D01*
%TO.N,PD_RST*%
X93450000Y-67250000D02*
X94750000Y-67250000D01*
X86600000Y-74100000D02*
X93450000Y-67250000D01*
X81350000Y-74100000D02*
X86600000Y-74100000D01*
X80200000Y-68700000D02*
X80200000Y-72950000D01*
X80200000Y-72950000D02*
X81350000Y-74100000D01*
%TO.N,Net-(J1-PadA7)*%
X72700000Y-49499998D02*
X71600002Y-49499998D01*
X71600002Y-49499998D02*
X71600000Y-49500000D01*
X72700000Y-52300000D02*
X72700000Y-49499998D01*
X75850000Y-55450000D02*
X72700000Y-52300000D01*
X78000000Y-71500000D02*
X78000000Y-63500000D01*
X75850000Y-62050000D02*
X75850000Y-55450000D01*
X78000000Y-63500000D02*
X77400000Y-62900000D01*
X77400000Y-62900000D02*
X76700000Y-62900000D01*
X76700000Y-62900000D02*
X75850000Y-62050000D01*
%TO.N,Net-(J1-PadA6)*%
X77400000Y-63650000D02*
X77200000Y-63450000D01*
X75250000Y-55650000D02*
X72150000Y-52550000D01*
X77400000Y-73400000D02*
X77400000Y-63650000D01*
X77200000Y-63450000D02*
X76450000Y-63450000D01*
X76450000Y-63450000D02*
X75250000Y-62250000D01*
X72150000Y-52550000D02*
X72150000Y-50100000D01*
X75250000Y-62250000D02*
X75250000Y-55650000D01*
%TO.N,Net-(SW2-Pad1)*%
X93800000Y-78800000D02*
X93800000Y-72500000D01*
X94600000Y-79600000D02*
X93800000Y-78800000D01*
X93800000Y-72500000D02*
X93400000Y-72100000D01*
X99500000Y-108600000D02*
X99500000Y-118000000D01*
X94000000Y-103100000D02*
X99500000Y-108600000D01*
%TO.N,Net-(SW3-Pad1)*%
X81000000Y-118000000D02*
X80500000Y-118000000D01*
X94600000Y-72500000D02*
X94200000Y-72100000D01*
X94600000Y-78600000D02*
X94600000Y-72500000D01*
X95600000Y-79600000D02*
X94600000Y-78600000D01*
X94000000Y-104500000D02*
X80500000Y-118000000D01*
%TD*%
%TO.N,+3V3*%
G36*
X85100000Y-50224264D02*
G01*
X85100001Y-67069041D01*
X85065332Y-67092206D01*
X84992206Y-67165332D01*
X84934751Y-67251319D01*
X84895176Y-67346863D01*
X84875000Y-67448292D01*
X84875000Y-67551708D01*
X84895176Y-67653137D01*
X84934751Y-67748681D01*
X84992206Y-67834668D01*
X85065332Y-67907794D01*
X85151319Y-67965249D01*
X85246863Y-68004824D01*
X85348292Y-68025000D01*
X85451708Y-68025000D01*
X85553137Y-68004824D01*
X85648681Y-67965249D01*
X85734668Y-67907794D01*
X85807794Y-67834668D01*
X85865249Y-67748681D01*
X85904824Y-67653137D01*
X85925000Y-67551708D01*
X85925000Y-67448292D01*
X85904824Y-67346863D01*
X85865249Y-67251319D01*
X85829329Y-67197561D01*
X85846863Y-67204824D01*
X85948292Y-67225000D01*
X86051708Y-67225000D01*
X86153137Y-67204824D01*
X86248681Y-67165249D01*
X86300001Y-67130958D01*
X86300001Y-67869041D01*
X86265332Y-67892206D01*
X86192206Y-67965332D01*
X86134751Y-68051319D01*
X86095176Y-68146863D01*
X86075000Y-68248292D01*
X86075000Y-68351708D01*
X86095176Y-68453137D01*
X86134751Y-68548681D01*
X86192206Y-68634668D01*
X86265332Y-68707794D01*
X86351319Y-68765249D01*
X86446863Y-68804824D01*
X86548292Y-68825000D01*
X86651708Y-68825000D01*
X86753137Y-68804824D01*
X86770671Y-68797561D01*
X86734751Y-68851319D01*
X86695176Y-68946863D01*
X86675000Y-69048292D01*
X86675000Y-69151708D01*
X86695176Y-69253137D01*
X86734751Y-69348681D01*
X86792206Y-69434668D01*
X86865332Y-69507794D01*
X86951319Y-69565249D01*
X87046863Y-69604824D01*
X87148292Y-69625000D01*
X87251708Y-69625000D01*
X87353137Y-69604824D01*
X87448681Y-69565249D01*
X87534668Y-69507794D01*
X87607794Y-69434668D01*
X87665249Y-69348681D01*
X87704824Y-69253137D01*
X87725000Y-69151708D01*
X87725000Y-69048292D01*
X87704824Y-68946863D01*
X87665249Y-68851319D01*
X87607794Y-68765332D01*
X87534668Y-68692206D01*
X87501107Y-68669781D01*
X87512533Y-64225000D01*
X93174860Y-64225000D01*
X93246863Y-64254824D01*
X93348292Y-64275000D01*
X93451708Y-64275000D01*
X93553137Y-64254824D01*
X93625140Y-64225000D01*
X107050736Y-64225000D01*
X106598285Y-64677452D01*
X106586843Y-64686842D01*
X106577452Y-64698285D01*
X106577451Y-64698286D01*
X106549353Y-64732523D01*
X106521497Y-64784640D01*
X106504342Y-64841190D01*
X106498550Y-64900000D01*
X106500001Y-64914733D01*
X106500000Y-67175736D01*
X105175737Y-68500000D01*
X95030959Y-68500000D01*
X95007794Y-68465332D01*
X94934668Y-68392206D01*
X94848681Y-68334751D01*
X94753137Y-68295176D01*
X94651708Y-68275000D01*
X94548292Y-68275000D01*
X94446863Y-68295176D01*
X94429329Y-68302439D01*
X94465249Y-68248681D01*
X94504824Y-68153137D01*
X94525000Y-68051708D01*
X94525000Y-67948292D01*
X94504824Y-67846863D01*
X94465249Y-67751319D01*
X94407794Y-67665332D01*
X94334668Y-67592206D01*
X94271503Y-67550000D01*
X94319041Y-67550000D01*
X94342206Y-67584668D01*
X94415332Y-67657794D01*
X94501319Y-67715249D01*
X94596863Y-67754824D01*
X94698292Y-67775000D01*
X94801708Y-67775000D01*
X94903137Y-67754824D01*
X94998681Y-67715249D01*
X95084668Y-67657794D01*
X95157794Y-67584668D01*
X95215249Y-67498681D01*
X95254824Y-67403137D01*
X95275000Y-67301708D01*
X95275000Y-67198292D01*
X95254824Y-67096863D01*
X95215249Y-67001319D01*
X95157794Y-66915332D01*
X95084668Y-66842206D01*
X94998681Y-66784751D01*
X94903137Y-66745176D01*
X94801708Y-66725000D01*
X94698292Y-66725000D01*
X94596863Y-66745176D01*
X94501319Y-66784751D01*
X94415332Y-66842206D01*
X94342206Y-66915332D01*
X94319041Y-66950000D01*
X93464730Y-66950000D01*
X93450000Y-66948549D01*
X93435269Y-66950000D01*
X93435267Y-66950000D01*
X93391190Y-66954341D01*
X93334640Y-66971496D01*
X93321529Y-66978504D01*
X93282522Y-66999353D01*
X93255540Y-67021497D01*
X93236842Y-67036842D01*
X93227451Y-67048285D01*
X92400000Y-67875736D01*
X92400000Y-67230983D01*
X92434668Y-67207818D01*
X92507794Y-67134692D01*
X92565249Y-67048705D01*
X92604824Y-66953161D01*
X92625000Y-66851732D01*
X92625000Y-66748316D01*
X92604824Y-66646887D01*
X92565249Y-66551343D01*
X92507794Y-66465356D01*
X92434668Y-66392230D01*
X92348681Y-66334775D01*
X92253137Y-66295200D01*
X92151708Y-66275024D01*
X92048292Y-66275024D01*
X91946863Y-66295200D01*
X91851319Y-66334775D01*
X91765332Y-66392230D01*
X91700026Y-66457536D01*
X91634668Y-66392178D01*
X91548681Y-66334723D01*
X91453137Y-66295148D01*
X91351708Y-66274972D01*
X91248292Y-66274972D01*
X91146863Y-66295148D01*
X91051319Y-66334723D01*
X90965332Y-66392178D01*
X90892206Y-66465304D01*
X90834751Y-66551291D01*
X90795176Y-66646835D01*
X90775000Y-66748264D01*
X90775000Y-66851680D01*
X90795176Y-66953109D01*
X90834751Y-67048653D01*
X90892206Y-67134640D01*
X90965332Y-67207766D01*
X91000001Y-67230931D01*
X91000000Y-68075736D01*
X87075737Y-72000000D01*
X84724264Y-72000000D01*
X83422553Y-70698290D01*
X83413158Y-70686842D01*
X83367477Y-70649353D01*
X83315360Y-70621496D01*
X83258810Y-70604341D01*
X83214733Y-70600000D01*
X83214723Y-70600000D01*
X83200000Y-70598550D01*
X83185277Y-70600000D01*
X82614722Y-70600000D01*
X82599999Y-70598550D01*
X82585276Y-70600000D01*
X82585267Y-70600000D01*
X82541190Y-70604341D01*
X82484640Y-70621496D01*
X82460379Y-70634464D01*
X82432522Y-70649353D01*
X82420999Y-70658810D01*
X82386842Y-70686842D01*
X82377451Y-70698285D01*
X81998285Y-71077452D01*
X81986843Y-71086842D01*
X81977452Y-71098285D01*
X81977451Y-71098286D01*
X81949353Y-71132523D01*
X81921497Y-71184640D01*
X81904342Y-71241190D01*
X81898550Y-71300000D01*
X81900001Y-71314733D01*
X81900000Y-72685277D01*
X81898550Y-72700000D01*
X81900000Y-72714723D01*
X81900000Y-72714732D01*
X81904341Y-72758809D01*
X81921496Y-72815359D01*
X81921497Y-72815360D01*
X81949353Y-72867477D01*
X81966358Y-72888198D01*
X81986842Y-72913158D01*
X81998290Y-72922553D01*
X82383135Y-73307398D01*
X82375000Y-73348292D01*
X82375000Y-73451708D01*
X82395176Y-73553137D01*
X82434751Y-73648681D01*
X82492206Y-73734668D01*
X82557538Y-73800000D01*
X81474264Y-73800000D01*
X80500000Y-72825737D01*
X80500000Y-69130959D01*
X80534668Y-69107794D01*
X80607794Y-69034668D01*
X80665249Y-68948681D01*
X80704824Y-68853137D01*
X80725000Y-68751708D01*
X80725000Y-68648292D01*
X80704824Y-68546863D01*
X80665249Y-68451319D01*
X80607794Y-68365332D01*
X80534668Y-68292206D01*
X80448681Y-68234751D01*
X80353137Y-68195176D01*
X80251708Y-68175000D01*
X80148292Y-68175000D01*
X80046863Y-68195176D01*
X79951319Y-68234751D01*
X79865332Y-68292206D01*
X79792206Y-68365332D01*
X79734751Y-68451319D01*
X79695176Y-68546863D01*
X79675000Y-68648292D01*
X79675000Y-68751708D01*
X79695176Y-68853137D01*
X79734751Y-68948681D01*
X79792206Y-69034668D01*
X79865332Y-69107794D01*
X79900000Y-69130959D01*
X79900001Y-72935267D01*
X79898550Y-72950000D01*
X79904342Y-73008810D01*
X79921497Y-73065360D01*
X79949353Y-73117477D01*
X79977127Y-73151319D01*
X79986843Y-73163158D01*
X79998285Y-73172548D01*
X81127451Y-74301715D01*
X81136842Y-74313158D01*
X81148285Y-74322549D01*
X81148286Y-74322550D01*
X81182522Y-74350647D01*
X81229222Y-74375608D01*
X81234640Y-74378504D01*
X81291190Y-74395659D01*
X81335267Y-74400000D01*
X81335270Y-74400000D01*
X81350000Y-74401451D01*
X81364730Y-74400000D01*
X86585277Y-74400000D01*
X86600000Y-74401450D01*
X86614723Y-74400000D01*
X86614733Y-74400000D01*
X86658810Y-74395659D01*
X86715360Y-74378504D01*
X86767477Y-74350647D01*
X86813158Y-74313158D01*
X86822553Y-74301710D01*
X89200000Y-71924263D01*
X89200001Y-77575735D01*
X87298290Y-79477447D01*
X87286842Y-79486842D01*
X87266358Y-79511802D01*
X87249353Y-79532523D01*
X87244721Y-79541189D01*
X87221496Y-79584641D01*
X87204341Y-79641191D01*
X87200000Y-79685268D01*
X87200000Y-79685277D01*
X87198550Y-79700000D01*
X87200000Y-79714723D01*
X87200001Y-81485267D01*
X87198550Y-81500000D01*
X87204342Y-81558810D01*
X87221497Y-81615360D01*
X87249353Y-81667477D01*
X87276575Y-81700646D01*
X87286843Y-81713158D01*
X87298285Y-81722548D01*
X88377451Y-82801715D01*
X88386842Y-82813158D01*
X88398285Y-82822549D01*
X88432522Y-82850647D01*
X88460379Y-82865536D01*
X88484640Y-82878504D01*
X88541190Y-82895659D01*
X88585267Y-82900000D01*
X88585277Y-82900000D01*
X88600000Y-82901450D01*
X88614723Y-82900000D01*
X94425277Y-82900000D01*
X94440000Y-82901450D01*
X94454723Y-82900000D01*
X94454733Y-82900000D01*
X94498810Y-82895659D01*
X94555360Y-82878504D01*
X94607477Y-82850647D01*
X94653158Y-82813158D01*
X94662553Y-82801710D01*
X95893767Y-81570497D01*
X96055603Y-81637532D01*
X96243971Y-81675000D01*
X96436029Y-81675000D01*
X96624397Y-81637532D01*
X96801836Y-81564034D01*
X96961527Y-81457332D01*
X97097332Y-81321527D01*
X97204034Y-81161836D01*
X97277532Y-80984397D01*
X97300001Y-80871437D01*
X97300001Y-81585267D01*
X97298550Y-81600000D01*
X97304342Y-81658810D01*
X97321497Y-81715360D01*
X97349353Y-81767477D01*
X97365246Y-81786842D01*
X97386843Y-81813158D01*
X97398286Y-81822549D01*
X109777451Y-94201715D01*
X109786842Y-94213158D01*
X109798285Y-94222549D01*
X109832522Y-94250647D01*
X109860379Y-94265536D01*
X109884640Y-94278504D01*
X109941190Y-94295659D01*
X109985267Y-94300000D01*
X109985276Y-94300000D01*
X109999999Y-94301450D01*
X110014722Y-94300000D01*
X111073912Y-94300000D01*
X111073912Y-96000000D01*
X111078256Y-96044108D01*
X111091122Y-96086520D01*
X111112015Y-96125608D01*
X111140132Y-96159868D01*
X111174392Y-96187985D01*
X111213480Y-96208878D01*
X111255892Y-96221744D01*
X111300000Y-96226088D01*
X115300000Y-96226088D01*
X115344108Y-96221744D01*
X115386520Y-96208878D01*
X115425608Y-96187985D01*
X115459868Y-96159868D01*
X115487985Y-96125608D01*
X115508878Y-96086520D01*
X115521744Y-96044108D01*
X115526088Y-96000000D01*
X115526088Y-92000000D01*
X115521744Y-91955892D01*
X115508878Y-91913480D01*
X115487985Y-91874392D01*
X115459868Y-91840132D01*
X115425608Y-91812015D01*
X115386520Y-91791122D01*
X115344108Y-91778256D01*
X115300000Y-91773912D01*
X111300000Y-91773912D01*
X111255892Y-91778256D01*
X111213480Y-91791122D01*
X111174392Y-91812015D01*
X111140132Y-91840132D01*
X111112015Y-91874392D01*
X111091122Y-91913480D01*
X111078256Y-91955892D01*
X111073912Y-92000000D01*
X111073912Y-93700000D01*
X110124264Y-93700000D01*
X97900000Y-81475737D01*
X97900000Y-79614722D01*
X97901450Y-79599999D01*
X97900000Y-79585276D01*
X97900000Y-79585267D01*
X97895659Y-79541190D01*
X97878504Y-79484640D01*
X97850648Y-79432524D01*
X97850647Y-79432522D01*
X97822549Y-79398285D01*
X97813158Y-79386842D01*
X97801717Y-79377453D01*
X95600000Y-77175737D01*
X95600000Y-72930959D01*
X95634668Y-72907794D01*
X95707794Y-72834668D01*
X95765249Y-72748681D01*
X95804824Y-72653137D01*
X95804998Y-72652260D01*
X96200000Y-73047262D01*
X96200001Y-76825927D01*
X96198550Y-76840660D01*
X96204342Y-76899470D01*
X96221497Y-76956020D01*
X96249353Y-77008137D01*
X96277451Y-77042374D01*
X96286843Y-77053818D01*
X96298286Y-77063209D01*
X98960076Y-79725000D01*
X98783971Y-79725000D01*
X98595603Y-79762468D01*
X98418164Y-79835966D01*
X98258473Y-79942668D01*
X98122668Y-80078473D01*
X98015966Y-80238164D01*
X97942468Y-80415603D01*
X97905000Y-80603971D01*
X97905000Y-80796029D01*
X97942468Y-80984397D01*
X98015966Y-81161836D01*
X98122668Y-81321527D01*
X98258473Y-81457332D01*
X98418164Y-81564034D01*
X98595603Y-81637532D01*
X98783971Y-81675000D01*
X98976029Y-81675000D01*
X99164397Y-81637532D01*
X99341836Y-81564034D01*
X99501527Y-81457332D01*
X99637332Y-81321527D01*
X99744034Y-81161836D01*
X99817532Y-80984397D01*
X99855000Y-80796029D01*
X99855000Y-80619924D01*
X100136790Y-80901714D01*
X100146182Y-80913158D01*
X100157625Y-80922549D01*
X100191862Y-80950647D01*
X100219719Y-80965536D01*
X100243980Y-80978504D01*
X100300530Y-80995659D01*
X100344607Y-81000000D01*
X100344617Y-81000000D01*
X100359340Y-81001450D01*
X100374063Y-81000000D01*
X100488931Y-81000000D01*
X100555966Y-81161836D01*
X100662668Y-81321527D01*
X100798473Y-81457332D01*
X100958164Y-81564034D01*
X101135603Y-81637532D01*
X101323971Y-81675000D01*
X101516029Y-81675000D01*
X101704397Y-81637532D01*
X101881836Y-81564034D01*
X102041527Y-81457332D01*
X102177332Y-81321527D01*
X102284034Y-81161836D01*
X102357532Y-80984397D01*
X102395000Y-80796029D01*
X102395000Y-80603971D01*
X102357532Y-80415603D01*
X102284034Y-80238164D01*
X102177332Y-80078473D01*
X102041527Y-79942668D01*
X101881836Y-79835966D01*
X101704397Y-79762468D01*
X101516029Y-79725000D01*
X101323971Y-79725000D01*
X101135603Y-79762468D01*
X100958164Y-79835966D01*
X100798473Y-79942668D01*
X100662668Y-80078473D01*
X100555966Y-80238164D01*
X100488931Y-80400000D01*
X100483604Y-80400000D01*
X96800000Y-76716397D01*
X96800000Y-72937728D01*
X96801451Y-72922998D01*
X96800000Y-72908265D01*
X96795659Y-72864188D01*
X96778504Y-72807638D01*
X96777000Y-72804824D01*
X96750647Y-72755520D01*
X96722550Y-72721284D01*
X96722549Y-72721283D01*
X96713158Y-72709840D01*
X96701716Y-72700450D01*
X95699555Y-71698290D01*
X95690160Y-71686842D01*
X95644479Y-71649353D01*
X95604473Y-71627970D01*
X95634668Y-71607794D01*
X95707794Y-71534668D01*
X95730959Y-71500000D01*
X98835217Y-71500000D01*
X98751319Y-71534751D01*
X98665332Y-71592206D01*
X98592206Y-71665332D01*
X98534751Y-71751319D01*
X98495176Y-71846863D01*
X98475000Y-71948292D01*
X98475000Y-72051708D01*
X98483861Y-72096252D01*
X98465249Y-72051319D01*
X98407794Y-71965332D01*
X98334668Y-71892206D01*
X98248681Y-71834751D01*
X98153137Y-71795176D01*
X98051708Y-71775000D01*
X97948292Y-71775000D01*
X97846863Y-71795176D01*
X97751319Y-71834751D01*
X97665332Y-71892206D01*
X97592206Y-71965332D01*
X97534751Y-72051319D01*
X97495176Y-72146863D01*
X97475000Y-72248292D01*
X97475000Y-72351708D01*
X97495176Y-72453137D01*
X97534751Y-72548681D01*
X97592206Y-72634668D01*
X97665332Y-72707794D01*
X97751319Y-72765249D01*
X97846863Y-72804824D01*
X97948292Y-72825000D01*
X98051708Y-72825000D01*
X98092602Y-72816866D01*
X98177450Y-72901714D01*
X98186842Y-72913158D01*
X98198285Y-72922549D01*
X98232522Y-72950647D01*
X98247795Y-72958810D01*
X98284640Y-72978504D01*
X98341190Y-72995659D01*
X98385267Y-73000000D01*
X98385276Y-73000000D01*
X98399999Y-73001450D01*
X98414722Y-73000000D01*
X102575737Y-73000000D01*
X103748285Y-74172549D01*
X103748289Y-74172552D01*
X103798286Y-74222550D01*
X103798291Y-74222554D01*
X104777450Y-75201714D01*
X104786842Y-75213158D01*
X104798285Y-75222549D01*
X104832522Y-75250647D01*
X104860379Y-75265536D01*
X104884640Y-75278504D01*
X104941190Y-75295659D01*
X104985267Y-75300000D01*
X104985276Y-75300000D01*
X104999999Y-75301450D01*
X105014722Y-75300000D01*
X112375737Y-75300000D01*
X113773912Y-76698176D01*
X113773912Y-78500000D01*
X113778256Y-78544108D01*
X113791122Y-78586520D01*
X113812015Y-78625608D01*
X113840132Y-78659868D01*
X113874392Y-78687985D01*
X113913480Y-78708878D01*
X113955892Y-78721744D01*
X114000000Y-78726088D01*
X116000000Y-78726088D01*
X116044108Y-78721744D01*
X116086520Y-78708878D01*
X116125608Y-78687985D01*
X116159868Y-78659868D01*
X116187985Y-78625608D01*
X116208878Y-78586520D01*
X116221744Y-78544108D01*
X116226088Y-78500000D01*
X116226088Y-76500000D01*
X116221744Y-76455892D01*
X116208878Y-76413480D01*
X116187985Y-76374392D01*
X116159868Y-76340132D01*
X116125608Y-76312015D01*
X116086520Y-76291122D01*
X116044108Y-76278256D01*
X116000000Y-76273912D01*
X114198176Y-76273912D01*
X112722553Y-74798290D01*
X112713158Y-74786842D01*
X112667477Y-74749353D01*
X112615360Y-74721496D01*
X112558810Y-74704341D01*
X112514733Y-74700000D01*
X112514723Y-74700000D01*
X112500000Y-74698550D01*
X112485277Y-74700000D01*
X105124264Y-74700000D01*
X104222554Y-73798291D01*
X104222550Y-73798286D01*
X104172552Y-73748289D01*
X104172549Y-73748285D01*
X102922553Y-72498290D01*
X102913158Y-72486842D01*
X102867477Y-72449353D01*
X102815360Y-72421496D01*
X102758810Y-72404341D01*
X102714733Y-72400000D01*
X102714723Y-72400000D01*
X102700000Y-72398550D01*
X102685277Y-72400000D01*
X99342462Y-72400000D01*
X99407794Y-72334668D01*
X99430959Y-72300000D01*
X102875737Y-72300000D01*
X104777451Y-74201715D01*
X104786842Y-74213158D01*
X104798285Y-74222549D01*
X104832522Y-74250647D01*
X104860379Y-74265536D01*
X104884640Y-74278504D01*
X104941190Y-74295659D01*
X104985267Y-74300000D01*
X104985276Y-74300000D01*
X104999999Y-74301450D01*
X105014722Y-74300000D01*
X113730043Y-74300000D01*
X113741122Y-74336520D01*
X113762015Y-74375608D01*
X113790132Y-74409868D01*
X113824392Y-74437985D01*
X113863480Y-74458878D01*
X113905892Y-74471744D01*
X113950000Y-74476088D01*
X115950000Y-74476088D01*
X115994108Y-74471744D01*
X116036520Y-74458878D01*
X116075608Y-74437985D01*
X116109868Y-74409868D01*
X116137985Y-74375608D01*
X116158878Y-74336520D01*
X116171744Y-74294108D01*
X116176088Y-74250000D01*
X116176088Y-72250000D01*
X116171744Y-72205892D01*
X116158878Y-72163480D01*
X116137985Y-72124392D01*
X116109868Y-72090132D01*
X116075608Y-72062015D01*
X116036520Y-72041122D01*
X115994108Y-72028256D01*
X115950000Y-72023912D01*
X113950000Y-72023912D01*
X113905892Y-72028256D01*
X113863480Y-72041122D01*
X113824392Y-72062015D01*
X113790132Y-72090132D01*
X113762015Y-72124392D01*
X113741122Y-72163480D01*
X113728256Y-72205892D01*
X113723912Y-72250000D01*
X113723912Y-73700000D01*
X105124264Y-73700000D01*
X103222553Y-71798290D01*
X103213158Y-71786842D01*
X103167477Y-71749353D01*
X103115360Y-71721496D01*
X103058810Y-71704341D01*
X103014733Y-71700000D01*
X103014723Y-71700000D01*
X103000000Y-71698550D01*
X102985277Y-71700000D01*
X99430959Y-71700000D01*
X99407794Y-71665332D01*
X99334668Y-71592206D01*
X99248681Y-71534751D01*
X99164783Y-71500000D01*
X112685277Y-71500000D01*
X112700000Y-71501450D01*
X112714723Y-71500000D01*
X112714733Y-71500000D01*
X112758810Y-71495659D01*
X112815360Y-71478504D01*
X112867477Y-71450647D01*
X112913158Y-71413158D01*
X112922553Y-71401710D01*
X114148176Y-70176088D01*
X115950000Y-70176088D01*
X115994108Y-70171744D01*
X116036520Y-70158878D01*
X116075608Y-70137985D01*
X116109868Y-70109868D01*
X116137985Y-70075608D01*
X116158878Y-70036520D01*
X116171744Y-69994108D01*
X116176088Y-69950000D01*
X116176088Y-67950000D01*
X116171744Y-67905892D01*
X116158878Y-67863480D01*
X116137985Y-67824392D01*
X116109868Y-67790132D01*
X116075608Y-67762015D01*
X116036520Y-67741122D01*
X115994108Y-67728256D01*
X115950000Y-67723912D01*
X113950000Y-67723912D01*
X113905892Y-67728256D01*
X113863480Y-67741122D01*
X113824392Y-67762015D01*
X113790132Y-67790132D01*
X113762015Y-67824392D01*
X113741122Y-67863480D01*
X113728256Y-67905892D01*
X113723912Y-67950000D01*
X113723912Y-69751824D01*
X112575737Y-70900000D01*
X109330959Y-70900000D01*
X109365249Y-70848681D01*
X109404824Y-70753137D01*
X109425000Y-70651708D01*
X109425000Y-70548292D01*
X109404824Y-70446863D01*
X109365249Y-70351319D01*
X109307794Y-70265332D01*
X109234668Y-70192206D01*
X109148681Y-70134751D01*
X109053137Y-70095176D01*
X108951708Y-70075000D01*
X108848292Y-70075000D01*
X108746863Y-70095176D01*
X108651319Y-70134751D01*
X108565332Y-70192206D01*
X108492206Y-70265332D01*
X108469041Y-70300000D01*
X101530999Y-70300000D01*
X101507834Y-70265332D01*
X101434708Y-70192206D01*
X101348721Y-70134751D01*
X101253177Y-70095176D01*
X101151748Y-70075000D01*
X101048332Y-70075000D01*
X100946903Y-70095176D01*
X100851359Y-70134751D01*
X100765372Y-70192206D01*
X100692246Y-70265332D01*
X100669081Y-70300000D01*
X93114711Y-70300000D01*
X93099991Y-70298550D01*
X93085271Y-70300000D01*
X93085259Y-70300000D01*
X93041182Y-70304341D01*
X92984632Y-70321496D01*
X92960371Y-70334464D01*
X92932514Y-70349353D01*
X92898277Y-70377451D01*
X92886834Y-70386842D01*
X92877443Y-70398285D01*
X92692602Y-70583127D01*
X92651708Y-70574992D01*
X92548292Y-70574992D01*
X92446863Y-70595168D01*
X92351319Y-70634743D01*
X92265332Y-70692198D01*
X92192206Y-70765324D01*
X92134751Y-70851311D01*
X92100000Y-70935209D01*
X92100000Y-70830959D01*
X92134668Y-70807794D01*
X92207794Y-70734668D01*
X92265249Y-70648681D01*
X92304824Y-70553137D01*
X92325000Y-70451708D01*
X92325000Y-70348292D01*
X92304824Y-70246863D01*
X92265249Y-70151319D01*
X92207794Y-70065332D01*
X92134668Y-69992206D01*
X92048681Y-69934751D01*
X91953137Y-69895176D01*
X91851708Y-69875000D01*
X91849264Y-69875000D01*
X92875000Y-68849264D01*
X92875000Y-68851708D01*
X92895176Y-68953137D01*
X92934751Y-69048681D01*
X92992206Y-69134668D01*
X93065332Y-69207794D01*
X93151319Y-69265249D01*
X93246863Y-69304824D01*
X93348292Y-69325000D01*
X93451708Y-69325000D01*
X93492602Y-69316865D01*
X93702452Y-69526716D01*
X93711843Y-69538159D01*
X93723286Y-69547550D01*
X93723287Y-69547551D01*
X93757523Y-69575648D01*
X93805798Y-69601451D01*
X93809641Y-69603505D01*
X93866191Y-69620660D01*
X93910268Y-69625001D01*
X93910271Y-69625001D01*
X93925001Y-69626452D01*
X93939731Y-69625001D01*
X105560276Y-69625001D01*
X105574999Y-69626451D01*
X105589722Y-69625001D01*
X105589732Y-69625001D01*
X105633809Y-69620660D01*
X105690359Y-69603505D01*
X105742476Y-69575648D01*
X105788157Y-69538159D01*
X105797552Y-69526711D01*
X107401717Y-67922547D01*
X107413158Y-67913158D01*
X107436562Y-67884640D01*
X107450647Y-67867478D01*
X107478503Y-67815361D01*
X107478504Y-67815360D01*
X107495659Y-67758810D01*
X107500000Y-67714733D01*
X107500000Y-67714721D01*
X107501450Y-67700001D01*
X107500000Y-67685281D01*
X107500000Y-65874263D01*
X107617249Y-65757014D01*
X107605000Y-65818594D01*
X107605000Y-65961406D01*
X107632861Y-66101475D01*
X107687513Y-66233416D01*
X107766856Y-66352161D01*
X107867839Y-66453144D01*
X107986584Y-66532487D01*
X108118525Y-66587139D01*
X108258594Y-66615000D01*
X108401406Y-66615000D01*
X108541475Y-66587139D01*
X108673416Y-66532487D01*
X108792161Y-66453144D01*
X108873912Y-66371393D01*
X108873912Y-66390000D01*
X108878256Y-66434108D01*
X108891122Y-66476520D01*
X108912015Y-66515608D01*
X108940132Y-66549868D01*
X108974392Y-66577985D01*
X109013480Y-66598878D01*
X109055892Y-66611744D01*
X109100000Y-66616088D01*
X110100000Y-66616088D01*
X110144108Y-66611744D01*
X110186520Y-66598878D01*
X110225608Y-66577985D01*
X110259868Y-66549868D01*
X110287985Y-66515608D01*
X110308878Y-66476520D01*
X110321744Y-66434108D01*
X110326088Y-66390000D01*
X110326088Y-65390000D01*
X110321744Y-65345892D01*
X110308878Y-65303480D01*
X110287985Y-65264392D01*
X110259868Y-65230132D01*
X110225608Y-65202015D01*
X110186520Y-65181122D01*
X110146473Y-65168973D01*
X110240999Y-65055620D01*
X110313668Y-64922197D01*
X110318312Y-64910951D01*
X110284225Y-64795000D01*
X109775000Y-64795000D01*
X109775000Y-64815000D01*
X109425000Y-64815000D01*
X109425000Y-64795000D01*
X109405000Y-64795000D01*
X109405000Y-64445000D01*
X109425000Y-64445000D01*
X109425000Y-64425000D01*
X109775000Y-64425000D01*
X109775000Y-64445000D01*
X110284225Y-64445000D01*
X110318312Y-64329049D01*
X110313668Y-64317803D01*
X110263123Y-64225000D01*
X119725000Y-64225000D01*
X119725001Y-121225000D01*
X60275000Y-121225000D01*
X60275000Y-117500000D01*
X78773912Y-117500000D01*
X78773912Y-118500000D01*
X78787864Y-118641653D01*
X78829182Y-118777862D01*
X78896280Y-118903393D01*
X78986578Y-119013422D01*
X79096607Y-119103720D01*
X79222138Y-119170818D01*
X79358347Y-119212136D01*
X79500000Y-119226088D01*
X81500000Y-119226088D01*
X81641653Y-119212136D01*
X81777862Y-119170818D01*
X81903393Y-119103720D01*
X82013422Y-119013422D01*
X82103720Y-118903393D01*
X82170818Y-118777862D01*
X82212136Y-118641653D01*
X82226088Y-118500000D01*
X82226088Y-117500000D01*
X85773912Y-117500000D01*
X85773912Y-118500000D01*
X85787864Y-118641653D01*
X85829182Y-118777862D01*
X85896280Y-118903393D01*
X85986578Y-119013422D01*
X86096607Y-119103720D01*
X86222138Y-119170818D01*
X86358347Y-119212136D01*
X86500000Y-119226088D01*
X88500000Y-119226088D01*
X88641653Y-119212136D01*
X88777862Y-119170818D01*
X88903393Y-119103720D01*
X89013422Y-119013422D01*
X89103720Y-118903393D01*
X89170818Y-118777862D01*
X89212136Y-118641653D01*
X89226088Y-118500000D01*
X89226088Y-118300000D01*
X89339529Y-118300000D01*
X89357513Y-118343416D01*
X89436856Y-118462161D01*
X89537839Y-118563144D01*
X89656584Y-118642487D01*
X89788525Y-118697139D01*
X89928594Y-118725000D01*
X90071406Y-118725000D01*
X90211475Y-118697139D01*
X90343416Y-118642487D01*
X90462161Y-118563144D01*
X90563144Y-118462161D01*
X90642487Y-118343416D01*
X90660471Y-118300000D01*
X90773912Y-118300000D01*
X90773912Y-118500000D01*
X90787864Y-118641653D01*
X90829182Y-118777862D01*
X90896280Y-118903393D01*
X90986578Y-119013422D01*
X91096607Y-119103720D01*
X91222138Y-119170818D01*
X91358347Y-119212136D01*
X91500000Y-119226088D01*
X93500000Y-119226088D01*
X93641653Y-119212136D01*
X93777862Y-119170818D01*
X93903393Y-119103720D01*
X94013422Y-119013422D01*
X94103720Y-118903393D01*
X94170818Y-118777862D01*
X94212136Y-118641653D01*
X94226088Y-118500000D01*
X94226088Y-117500000D01*
X94212136Y-117358347D01*
X94170818Y-117222138D01*
X94103720Y-117096607D01*
X94013422Y-116986578D01*
X93903393Y-116896280D01*
X93777862Y-116829182D01*
X93641653Y-116787864D01*
X93500000Y-116773912D01*
X91500000Y-116773912D01*
X91358347Y-116787864D01*
X91222138Y-116829182D01*
X91096607Y-116896280D01*
X90986578Y-116986578D01*
X90896280Y-117096607D01*
X90829182Y-117222138D01*
X90787864Y-117358347D01*
X90773912Y-117500000D01*
X90773912Y-117700000D01*
X90660471Y-117700000D01*
X90642487Y-117656584D01*
X90563144Y-117537839D01*
X90462161Y-117436856D01*
X90343416Y-117357513D01*
X90211475Y-117302861D01*
X90071406Y-117275000D01*
X89928594Y-117275000D01*
X89788525Y-117302861D01*
X89656584Y-117357513D01*
X89537839Y-117436856D01*
X89436856Y-117537839D01*
X89357513Y-117656584D01*
X89339529Y-117700000D01*
X89226088Y-117700000D01*
X89226088Y-117500000D01*
X89212136Y-117358347D01*
X89170818Y-117222138D01*
X89103720Y-117096607D01*
X89013422Y-116986578D01*
X88903393Y-116896280D01*
X88777862Y-116829182D01*
X88641653Y-116787864D01*
X88500000Y-116773912D01*
X86500000Y-116773912D01*
X86358347Y-116787864D01*
X86222138Y-116829182D01*
X86096607Y-116896280D01*
X85986578Y-116986578D01*
X85896280Y-117096607D01*
X85829182Y-117222138D01*
X85787864Y-117358347D01*
X85773912Y-117500000D01*
X82226088Y-117500000D01*
X82212136Y-117358347D01*
X82170818Y-117222138D01*
X82103720Y-117096607D01*
X82013422Y-116986578D01*
X81971824Y-116952439D01*
X93907398Y-105016866D01*
X93948292Y-105025000D01*
X94051708Y-105025000D01*
X94153137Y-105004824D01*
X94248681Y-104965249D01*
X94334668Y-104907794D01*
X94407794Y-104834668D01*
X94465249Y-104748681D01*
X94504824Y-104653137D01*
X94525000Y-104551708D01*
X94525000Y-104448292D01*
X94504824Y-104346863D01*
X94465249Y-104251319D01*
X94407794Y-104165332D01*
X94334668Y-104092206D01*
X94248681Y-104034751D01*
X94153137Y-103995176D01*
X94051708Y-103975000D01*
X93948292Y-103975000D01*
X93846863Y-103995176D01*
X93751319Y-104034751D01*
X93665332Y-104092206D01*
X93592206Y-104165332D01*
X93534751Y-104251319D01*
X93495176Y-104346863D01*
X93475000Y-104448292D01*
X93475000Y-104551708D01*
X93483134Y-104592602D01*
X81301825Y-116773912D01*
X79500000Y-116773912D01*
X79358347Y-116787864D01*
X79222138Y-116829182D01*
X79096607Y-116896280D01*
X78986578Y-116986578D01*
X78896280Y-117096607D01*
X78829182Y-117222138D01*
X78787864Y-117358347D01*
X78773912Y-117500000D01*
X60275000Y-117500000D01*
X60275000Y-106003971D01*
X77585000Y-106003971D01*
X77585000Y-106196029D01*
X77622468Y-106384397D01*
X77695966Y-106561836D01*
X77802668Y-106721527D01*
X77938473Y-106857332D01*
X78098164Y-106964034D01*
X78275603Y-107037532D01*
X78463971Y-107075000D01*
X78656029Y-107075000D01*
X78844397Y-107037532D01*
X79021836Y-106964034D01*
X79181527Y-106857332D01*
X79317332Y-106721527D01*
X79424034Y-106561836D01*
X79497532Y-106384397D01*
X79535000Y-106196029D01*
X79535000Y-106003971D01*
X80125000Y-106003971D01*
X80125000Y-106196029D01*
X80162468Y-106384397D01*
X80235966Y-106561836D01*
X80342668Y-106721527D01*
X80478473Y-106857332D01*
X80638164Y-106964034D01*
X80815603Y-107037532D01*
X81003971Y-107075000D01*
X81196029Y-107075000D01*
X81384397Y-107037532D01*
X81561836Y-106964034D01*
X81721527Y-106857332D01*
X81857332Y-106721527D01*
X81964034Y-106561836D01*
X82037532Y-106384397D01*
X82075000Y-106196029D01*
X82075000Y-106003971D01*
X82037532Y-105815603D01*
X81964034Y-105638164D01*
X81857332Y-105478473D01*
X81721527Y-105342668D01*
X81561836Y-105235966D01*
X81384397Y-105162468D01*
X81196029Y-105125000D01*
X81003971Y-105125000D01*
X80815603Y-105162468D01*
X80638164Y-105235966D01*
X80478473Y-105342668D01*
X80342668Y-105478473D01*
X80235966Y-105638164D01*
X80162468Y-105815603D01*
X80125000Y-106003971D01*
X79535000Y-106003971D01*
X79497532Y-105815603D01*
X79424034Y-105638164D01*
X79317332Y-105478473D01*
X79181527Y-105342668D01*
X79021836Y-105235966D01*
X78844397Y-105162468D01*
X78656029Y-105125000D01*
X78463971Y-105125000D01*
X78275603Y-105162468D01*
X78098164Y-105235966D01*
X77938473Y-105342668D01*
X77802668Y-105478473D01*
X77695966Y-105638164D01*
X77622468Y-105815603D01*
X77585000Y-106003971D01*
X60275000Y-106003971D01*
X60275000Y-103048292D01*
X93475000Y-103048292D01*
X93475000Y-103151708D01*
X93495176Y-103253137D01*
X93534751Y-103348681D01*
X93592206Y-103434668D01*
X93665332Y-103507794D01*
X93751319Y-103565249D01*
X93846863Y-103604824D01*
X93948292Y-103625000D01*
X94051708Y-103625000D01*
X94092602Y-103616865D01*
X99200000Y-108724264D01*
X99200001Y-116773912D01*
X98500000Y-116773912D01*
X98358347Y-116787864D01*
X98222138Y-116829182D01*
X98096607Y-116896280D01*
X97986578Y-116986578D01*
X97896280Y-117096607D01*
X97829182Y-117222138D01*
X97787864Y-117358347D01*
X97773912Y-117500000D01*
X97773912Y-118500000D01*
X97787864Y-118641653D01*
X97829182Y-118777862D01*
X97896280Y-118903393D01*
X97986578Y-119013422D01*
X98096607Y-119103720D01*
X98222138Y-119170818D01*
X98358347Y-119212136D01*
X98500000Y-119226088D01*
X100500000Y-119226088D01*
X100641653Y-119212136D01*
X100777862Y-119170818D01*
X100903393Y-119103720D01*
X101013422Y-119013422D01*
X101103720Y-118903393D01*
X101170818Y-118777862D01*
X101212136Y-118641653D01*
X101226088Y-118500000D01*
X101226088Y-117500000D01*
X101212136Y-117358347D01*
X101170818Y-117222138D01*
X101103720Y-117096607D01*
X101013422Y-116986578D01*
X100903393Y-116896280D01*
X100777862Y-116829182D01*
X100641653Y-116787864D01*
X100500000Y-116773912D01*
X99800000Y-116773912D01*
X99800000Y-108614730D01*
X99801451Y-108600000D01*
X99800000Y-108585267D01*
X99795659Y-108541190D01*
X99778504Y-108484640D01*
X99750648Y-108432524D01*
X99750647Y-108432522D01*
X99722550Y-108398286D01*
X99722549Y-108398285D01*
X99713158Y-108386842D01*
X99701717Y-108377453D01*
X97328235Y-106003971D01*
X97905000Y-106003971D01*
X97905000Y-106196029D01*
X97942468Y-106384397D01*
X98015966Y-106561836D01*
X98122668Y-106721527D01*
X98258473Y-106857332D01*
X98418164Y-106964034D01*
X98595603Y-107037532D01*
X98783971Y-107075000D01*
X98976029Y-107075000D01*
X99164397Y-107037532D01*
X99341836Y-106964034D01*
X99501527Y-106857332D01*
X99637332Y-106721527D01*
X99744034Y-106561836D01*
X99817532Y-106384397D01*
X99855000Y-106196029D01*
X99855000Y-106003971D01*
X99817532Y-105815603D01*
X99744034Y-105638164D01*
X99637332Y-105478473D01*
X99508859Y-105350000D01*
X100443912Y-105350000D01*
X100443912Y-106850000D01*
X100448256Y-106894108D01*
X100461122Y-106936520D01*
X100482015Y-106975608D01*
X100510132Y-107009868D01*
X100544392Y-107037985D01*
X100583480Y-107058878D01*
X100625892Y-107071744D01*
X100670000Y-107076088D01*
X102170000Y-107076088D01*
X102214108Y-107071744D01*
X102256520Y-107058878D01*
X102295608Y-107037985D01*
X102329868Y-107009868D01*
X102337966Y-107000000D01*
X111023669Y-107000000D01*
X111028979Y-107053910D01*
X111044703Y-107105747D01*
X111070239Y-107153521D01*
X111104604Y-107195396D01*
X111146479Y-107229761D01*
X111194253Y-107255297D01*
X111246090Y-107271021D01*
X111300000Y-107276331D01*
X113056250Y-107275000D01*
X113125000Y-107206250D01*
X113125000Y-105175000D01*
X113475000Y-105175000D01*
X113475000Y-107206250D01*
X113543750Y-107275000D01*
X115300000Y-107276331D01*
X115353910Y-107271021D01*
X115405747Y-107255297D01*
X115453521Y-107229761D01*
X115495396Y-107195396D01*
X115529761Y-107153521D01*
X115555297Y-107105747D01*
X115571021Y-107053910D01*
X115576331Y-107000000D01*
X115575000Y-105243750D01*
X115506250Y-105175000D01*
X113475000Y-105175000D01*
X113125000Y-105175000D01*
X111093750Y-105175000D01*
X111025000Y-105243750D01*
X111023669Y-107000000D01*
X102337966Y-107000000D01*
X102357985Y-106975608D01*
X102378878Y-106936520D01*
X102391744Y-106894108D01*
X102396088Y-106850000D01*
X102396088Y-105350000D01*
X102391744Y-105305892D01*
X102378878Y-105263480D01*
X102357985Y-105224392D01*
X102329868Y-105190132D01*
X102295608Y-105162015D01*
X102256520Y-105141122D01*
X102214108Y-105128256D01*
X102170000Y-105123912D01*
X100670000Y-105123912D01*
X100625892Y-105128256D01*
X100583480Y-105141122D01*
X100544392Y-105162015D01*
X100510132Y-105190132D01*
X100482015Y-105224392D01*
X100461122Y-105263480D01*
X100448256Y-105305892D01*
X100443912Y-105350000D01*
X99508859Y-105350000D01*
X99501527Y-105342668D01*
X99341836Y-105235966D01*
X99164397Y-105162468D01*
X98976029Y-105125000D01*
X98783971Y-105125000D01*
X98595603Y-105162468D01*
X98418164Y-105235966D01*
X98258473Y-105342668D01*
X98122668Y-105478473D01*
X98015966Y-105638164D01*
X97942468Y-105815603D01*
X97905000Y-106003971D01*
X97328235Y-106003971D01*
X94516865Y-103192602D01*
X94525000Y-103151708D01*
X94525000Y-103048292D01*
X94515394Y-103000000D01*
X111023669Y-103000000D01*
X111025000Y-104756250D01*
X111093750Y-104825000D01*
X113125000Y-104825000D01*
X113125000Y-102793750D01*
X113475000Y-102793750D01*
X113475000Y-104825000D01*
X115506250Y-104825000D01*
X115575000Y-104756250D01*
X115576331Y-103000000D01*
X115571021Y-102946090D01*
X115555297Y-102894253D01*
X115529761Y-102846479D01*
X115495396Y-102804604D01*
X115453521Y-102770239D01*
X115405747Y-102744703D01*
X115353910Y-102728979D01*
X115300000Y-102723669D01*
X113543750Y-102725000D01*
X113475000Y-102793750D01*
X113125000Y-102793750D01*
X113056250Y-102725000D01*
X111300000Y-102723669D01*
X111246090Y-102728979D01*
X111194253Y-102744703D01*
X111146479Y-102770239D01*
X111104604Y-102804604D01*
X111070239Y-102846479D01*
X111044703Y-102894253D01*
X111028979Y-102946090D01*
X111023669Y-103000000D01*
X94515394Y-103000000D01*
X94504824Y-102946863D01*
X94465249Y-102851319D01*
X94407794Y-102765332D01*
X94334668Y-102692206D01*
X94248681Y-102634751D01*
X94153137Y-102595176D01*
X94051708Y-102575000D01*
X93948292Y-102575000D01*
X93846863Y-102595176D01*
X93751319Y-102634751D01*
X93665332Y-102692206D01*
X93592206Y-102765332D01*
X93534751Y-102851319D01*
X93495176Y-102946863D01*
X93475000Y-103048292D01*
X60275000Y-103048292D01*
X60275000Y-97500000D01*
X111073912Y-97500000D01*
X111073912Y-101500000D01*
X111078256Y-101544108D01*
X111091122Y-101586520D01*
X111112015Y-101625608D01*
X111140132Y-101659868D01*
X111174392Y-101687985D01*
X111213480Y-101708878D01*
X111255892Y-101721744D01*
X111300000Y-101726088D01*
X115300000Y-101726088D01*
X115344108Y-101721744D01*
X115386520Y-101708878D01*
X115425608Y-101687985D01*
X115459868Y-101659868D01*
X115487985Y-101625608D01*
X115508878Y-101586520D01*
X115521744Y-101544108D01*
X115526088Y-101500000D01*
X115526088Y-97500000D01*
X115521744Y-97455892D01*
X115508878Y-97413480D01*
X115487985Y-97374392D01*
X115459868Y-97340132D01*
X115425608Y-97312015D01*
X115386520Y-97291122D01*
X115344108Y-97278256D01*
X115300000Y-97273912D01*
X111300000Y-97273912D01*
X111255892Y-97278256D01*
X111213480Y-97291122D01*
X111174392Y-97312015D01*
X111140132Y-97340132D01*
X111112015Y-97374392D01*
X111091122Y-97413480D01*
X111078256Y-97455892D01*
X111073912Y-97500000D01*
X60275000Y-97500000D01*
X60275000Y-80603971D01*
X77585000Y-80603971D01*
X77585000Y-80796029D01*
X77622468Y-80984397D01*
X77695966Y-81161836D01*
X77802668Y-81321527D01*
X77938473Y-81457332D01*
X78098164Y-81564034D01*
X78275603Y-81637532D01*
X78463971Y-81675000D01*
X78656029Y-81675000D01*
X78844397Y-81637532D01*
X79021836Y-81564034D01*
X79129549Y-81492062D01*
X80555425Y-81492062D01*
X80644985Y-81624002D01*
X80833992Y-81695017D01*
X81033222Y-81727793D01*
X81235017Y-81721073D01*
X81431624Y-81675112D01*
X81555015Y-81624002D01*
X81644575Y-81492062D01*
X83095425Y-81492062D01*
X83184985Y-81624002D01*
X83373992Y-81695017D01*
X83573222Y-81727793D01*
X83775017Y-81721073D01*
X83971624Y-81675112D01*
X84095015Y-81624002D01*
X84184575Y-81492062D01*
X83640000Y-80947487D01*
X83095425Y-81492062D01*
X81644575Y-81492062D01*
X81100000Y-80947487D01*
X80555425Y-81492062D01*
X79129549Y-81492062D01*
X79181527Y-81457332D01*
X79317332Y-81321527D01*
X79424034Y-81161836D01*
X79497532Y-80984397D01*
X79535000Y-80796029D01*
X79535000Y-80633222D01*
X80072207Y-80633222D01*
X80078927Y-80835017D01*
X80124888Y-81031624D01*
X80175998Y-81155015D01*
X80307938Y-81244575D01*
X80852513Y-80700000D01*
X81347487Y-80700000D01*
X81892062Y-81244575D01*
X82024002Y-81155015D01*
X82095017Y-80966008D01*
X82127793Y-80766778D01*
X82123346Y-80633222D01*
X82612207Y-80633222D01*
X82618927Y-80835017D01*
X82664888Y-81031624D01*
X82715998Y-81155015D01*
X82847938Y-81244575D01*
X83392513Y-80700000D01*
X83887487Y-80700000D01*
X84432062Y-81244575D01*
X84564002Y-81155015D01*
X84635017Y-80966008D01*
X84667793Y-80766778D01*
X84662372Y-80603971D01*
X85205000Y-80603971D01*
X85205000Y-80796029D01*
X85242468Y-80984397D01*
X85315966Y-81161836D01*
X85422668Y-81321527D01*
X85558473Y-81457332D01*
X85718164Y-81564034D01*
X85895603Y-81637532D01*
X86083971Y-81675000D01*
X86276029Y-81675000D01*
X86464397Y-81637532D01*
X86641836Y-81564034D01*
X86801527Y-81457332D01*
X86937332Y-81321527D01*
X87044034Y-81161836D01*
X87117532Y-80984397D01*
X87155000Y-80796029D01*
X87155000Y-80603971D01*
X87117532Y-80415603D01*
X87044034Y-80238164D01*
X86937332Y-80078473D01*
X86801527Y-79942668D01*
X86641836Y-79835966D01*
X86464397Y-79762468D01*
X86276029Y-79725000D01*
X86083971Y-79725000D01*
X85895603Y-79762468D01*
X85718164Y-79835966D01*
X85558473Y-79942668D01*
X85422668Y-80078473D01*
X85315966Y-80238164D01*
X85242468Y-80415603D01*
X85205000Y-80603971D01*
X84662372Y-80603971D01*
X84661073Y-80564983D01*
X84615112Y-80368376D01*
X84564002Y-80244985D01*
X84432062Y-80155425D01*
X83887487Y-80700000D01*
X83392513Y-80700000D01*
X82847938Y-80155425D01*
X82715998Y-80244985D01*
X82644983Y-80433992D01*
X82612207Y-80633222D01*
X82123346Y-80633222D01*
X82121073Y-80564983D01*
X82075112Y-80368376D01*
X82024002Y-80244985D01*
X81892062Y-80155425D01*
X81347487Y-80700000D01*
X80852513Y-80700000D01*
X80307938Y-80155425D01*
X80175998Y-80244985D01*
X80104983Y-80433992D01*
X80072207Y-80633222D01*
X79535000Y-80633222D01*
X79535000Y-80603971D01*
X79497532Y-80415603D01*
X79424034Y-80238164D01*
X79317332Y-80078473D01*
X79181527Y-79942668D01*
X79129550Y-79907938D01*
X80555425Y-79907938D01*
X81100000Y-80452513D01*
X81644575Y-79907938D01*
X83095425Y-79907938D01*
X83640000Y-80452513D01*
X84184575Y-79907938D01*
X84095015Y-79775998D01*
X83906008Y-79704983D01*
X83706778Y-79672207D01*
X83504983Y-79678927D01*
X83308376Y-79724888D01*
X83184985Y-79775998D01*
X83095425Y-79907938D01*
X81644575Y-79907938D01*
X81555015Y-79775998D01*
X81366008Y-79704983D01*
X81166778Y-79672207D01*
X80964983Y-79678927D01*
X80768376Y-79724888D01*
X80644985Y-79775998D01*
X80555425Y-79907938D01*
X79129550Y-79907938D01*
X79021836Y-79835966D01*
X78844397Y-79762468D01*
X78656029Y-79725000D01*
X78463971Y-79725000D01*
X78275603Y-79762468D01*
X78098164Y-79835966D01*
X77938473Y-79942668D01*
X77802668Y-80078473D01*
X77695966Y-80238164D01*
X77622468Y-80415603D01*
X77585000Y-80603971D01*
X60275000Y-80603971D01*
X60275000Y-63475000D01*
X63450000Y-63475000D01*
X63450001Y-78235257D01*
X63448549Y-78250000D01*
X63454341Y-78308810D01*
X63471496Y-78365360D01*
X63499353Y-78417477D01*
X63536842Y-78463158D01*
X63582523Y-78500647D01*
X63634640Y-78528504D01*
X63691190Y-78545659D01*
X63735267Y-78550000D01*
X63750000Y-78551451D01*
X63764733Y-78550000D01*
X73235267Y-78550000D01*
X73250000Y-78551451D01*
X73264733Y-78550000D01*
X73308810Y-78545659D01*
X73365360Y-78528504D01*
X73417477Y-78500647D01*
X73463158Y-78463158D01*
X73500647Y-78417477D01*
X73528504Y-78365360D01*
X73545659Y-78308810D01*
X73551451Y-78250000D01*
X73550000Y-78235267D01*
X73550000Y-63475000D01*
X75250736Y-63475000D01*
X76027456Y-64251721D01*
X76036842Y-64263158D01*
X76048279Y-64272544D01*
X76048285Y-64272550D01*
X76082522Y-64300647D01*
X76134639Y-64328504D01*
X76147801Y-64332497D01*
X76191190Y-64345659D01*
X76235267Y-64350000D01*
X76235270Y-64350000D01*
X76250000Y-64351451D01*
X76264730Y-64350000D01*
X76419041Y-64350000D01*
X76442206Y-64384668D01*
X76515332Y-64457794D01*
X76601319Y-64515249D01*
X76696863Y-64554824D01*
X76798292Y-64575000D01*
X76901708Y-64575000D01*
X77003137Y-64554824D01*
X77098681Y-64515249D01*
X77100001Y-64514367D01*
X77100000Y-72969041D01*
X77065332Y-72992206D01*
X76992206Y-73065332D01*
X76934751Y-73151319D01*
X76895176Y-73246863D01*
X76875000Y-73348292D01*
X76875000Y-73451708D01*
X76895176Y-73553137D01*
X76934751Y-73648681D01*
X76992206Y-73734668D01*
X77065332Y-73807794D01*
X77151319Y-73865249D01*
X77246863Y-73904824D01*
X77348292Y-73925000D01*
X77451708Y-73925000D01*
X77553137Y-73904824D01*
X77648681Y-73865249D01*
X77734668Y-73807794D01*
X77807794Y-73734668D01*
X77865249Y-73648681D01*
X77904824Y-73553137D01*
X77925000Y-73451708D01*
X77925000Y-73348292D01*
X77904824Y-73246863D01*
X77865249Y-73151319D01*
X77807794Y-73065332D01*
X77734668Y-72992206D01*
X77700000Y-72969041D01*
X77700000Y-71930959D01*
X77751319Y-71965249D01*
X77846863Y-72004824D01*
X77948292Y-72025000D01*
X78051708Y-72025000D01*
X78153137Y-72004824D01*
X78248681Y-71965249D01*
X78334668Y-71907794D01*
X78407794Y-71834668D01*
X78465249Y-71748681D01*
X78504824Y-71653137D01*
X78525000Y-71551708D01*
X78525000Y-71448292D01*
X78504824Y-71346863D01*
X78465249Y-71251319D01*
X78407794Y-71165332D01*
X78334668Y-71092206D01*
X78300000Y-71069041D01*
X78300000Y-66398292D01*
X81125000Y-66398292D01*
X81125000Y-66501708D01*
X81145176Y-66603137D01*
X81184751Y-66698681D01*
X81242206Y-66784668D01*
X81315332Y-66857794D01*
X81401319Y-66915249D01*
X81496863Y-66954824D01*
X81598292Y-66975000D01*
X81701708Y-66975000D01*
X81742602Y-66966865D01*
X84277451Y-69501715D01*
X84286842Y-69513158D01*
X84298285Y-69522549D01*
X84298286Y-69522550D01*
X84332522Y-69550647D01*
X84379297Y-69575648D01*
X84384640Y-69578504D01*
X84441190Y-69595659D01*
X84485267Y-69600000D01*
X84485270Y-69600000D01*
X84500000Y-69601451D01*
X84514730Y-69600000D01*
X84569041Y-69600000D01*
X84592206Y-69634668D01*
X84665332Y-69707794D01*
X84751319Y-69765249D01*
X84846863Y-69804824D01*
X84948292Y-69825000D01*
X85051708Y-69825000D01*
X85153137Y-69804824D01*
X85248681Y-69765249D01*
X85334668Y-69707794D01*
X85407794Y-69634668D01*
X85465249Y-69548681D01*
X85504824Y-69453137D01*
X85525000Y-69351708D01*
X85525000Y-69248292D01*
X85504824Y-69146863D01*
X85465249Y-69051319D01*
X85407794Y-68965332D01*
X85334668Y-68892206D01*
X85248681Y-68834751D01*
X85153137Y-68795176D01*
X85051708Y-68775000D01*
X84948292Y-68775000D01*
X84846863Y-68795176D01*
X84751319Y-68834751D01*
X84665332Y-68892206D01*
X84592206Y-68965332D01*
X84591161Y-68966897D01*
X84449264Y-68825000D01*
X84451708Y-68825000D01*
X84553137Y-68804824D01*
X84648681Y-68765249D01*
X84734668Y-68707794D01*
X84807794Y-68634668D01*
X84865249Y-68548681D01*
X84904824Y-68453137D01*
X84925000Y-68351708D01*
X84925000Y-68248292D01*
X84904824Y-68146863D01*
X84865249Y-68051319D01*
X84807794Y-67965332D01*
X84734668Y-67892206D01*
X84648681Y-67834751D01*
X84553137Y-67795176D01*
X84451708Y-67775000D01*
X84348292Y-67775000D01*
X84307398Y-67783134D01*
X83066865Y-66542602D01*
X83075000Y-66501708D01*
X83075000Y-66398292D01*
X83054824Y-66296863D01*
X83015249Y-66201319D01*
X82957794Y-66115332D01*
X82884668Y-66042206D01*
X82798681Y-65984751D01*
X82703137Y-65945176D01*
X82601708Y-65925000D01*
X82498292Y-65925000D01*
X82396863Y-65945176D01*
X82301319Y-65984751D01*
X82215332Y-66042206D01*
X82142206Y-66115332D01*
X82100000Y-66178497D01*
X82057794Y-66115332D01*
X81984668Y-66042206D01*
X81898681Y-65984751D01*
X81803137Y-65945176D01*
X81701708Y-65925000D01*
X81598292Y-65925000D01*
X81496863Y-65945176D01*
X81401319Y-65984751D01*
X81315332Y-66042206D01*
X81242206Y-66115332D01*
X81184751Y-66201319D01*
X81145176Y-66296863D01*
X81125000Y-66398292D01*
X78300000Y-66398292D01*
X78300000Y-63514722D01*
X78301450Y-63499999D01*
X78300000Y-63485276D01*
X78300000Y-63485267D01*
X78298989Y-63475000D01*
X83750000Y-63475000D01*
X83793895Y-63470677D01*
X83836104Y-63457873D01*
X83875003Y-63437081D01*
X83909099Y-63409099D01*
X83937081Y-63375003D01*
X83957873Y-63336104D01*
X83970677Y-63293895D01*
X83975000Y-63250000D01*
X83975000Y-49099264D01*
X85100000Y-50224264D01*
G37*
X85100000Y-50224264D02*
X85100001Y-67069041D01*
X85065332Y-67092206D01*
X84992206Y-67165332D01*
X84934751Y-67251319D01*
X84895176Y-67346863D01*
X84875000Y-67448292D01*
X84875000Y-67551708D01*
X84895176Y-67653137D01*
X84934751Y-67748681D01*
X84992206Y-67834668D01*
X85065332Y-67907794D01*
X85151319Y-67965249D01*
X85246863Y-68004824D01*
X85348292Y-68025000D01*
X85451708Y-68025000D01*
X85553137Y-68004824D01*
X85648681Y-67965249D01*
X85734668Y-67907794D01*
X85807794Y-67834668D01*
X85865249Y-67748681D01*
X85904824Y-67653137D01*
X85925000Y-67551708D01*
X85925000Y-67448292D01*
X85904824Y-67346863D01*
X85865249Y-67251319D01*
X85829329Y-67197561D01*
X85846863Y-67204824D01*
X85948292Y-67225000D01*
X86051708Y-67225000D01*
X86153137Y-67204824D01*
X86248681Y-67165249D01*
X86300001Y-67130958D01*
X86300001Y-67869041D01*
X86265332Y-67892206D01*
X86192206Y-67965332D01*
X86134751Y-68051319D01*
X86095176Y-68146863D01*
X86075000Y-68248292D01*
X86075000Y-68351708D01*
X86095176Y-68453137D01*
X86134751Y-68548681D01*
X86192206Y-68634668D01*
X86265332Y-68707794D01*
X86351319Y-68765249D01*
X86446863Y-68804824D01*
X86548292Y-68825000D01*
X86651708Y-68825000D01*
X86753137Y-68804824D01*
X86770671Y-68797561D01*
X86734751Y-68851319D01*
X86695176Y-68946863D01*
X86675000Y-69048292D01*
X86675000Y-69151708D01*
X86695176Y-69253137D01*
X86734751Y-69348681D01*
X86792206Y-69434668D01*
X86865332Y-69507794D01*
X86951319Y-69565249D01*
X87046863Y-69604824D01*
X87148292Y-69625000D01*
X87251708Y-69625000D01*
X87353137Y-69604824D01*
X87448681Y-69565249D01*
X87534668Y-69507794D01*
X87607794Y-69434668D01*
X87665249Y-69348681D01*
X87704824Y-69253137D01*
X87725000Y-69151708D01*
X87725000Y-69048292D01*
X87704824Y-68946863D01*
X87665249Y-68851319D01*
X87607794Y-68765332D01*
X87534668Y-68692206D01*
X87501107Y-68669781D01*
X87512533Y-64225000D01*
X93174860Y-64225000D01*
X93246863Y-64254824D01*
X93348292Y-64275000D01*
X93451708Y-64275000D01*
X93553137Y-64254824D01*
X93625140Y-64225000D01*
X107050736Y-64225000D01*
X106598285Y-64677452D01*
X106586843Y-64686842D01*
X106577452Y-64698285D01*
X106577451Y-64698286D01*
X106549353Y-64732523D01*
X106521497Y-64784640D01*
X106504342Y-64841190D01*
X106498550Y-64900000D01*
X106500001Y-64914733D01*
X106500000Y-67175736D01*
X105175737Y-68500000D01*
X95030959Y-68500000D01*
X95007794Y-68465332D01*
X94934668Y-68392206D01*
X94848681Y-68334751D01*
X94753137Y-68295176D01*
X94651708Y-68275000D01*
X94548292Y-68275000D01*
X94446863Y-68295176D01*
X94429329Y-68302439D01*
X94465249Y-68248681D01*
X94504824Y-68153137D01*
X94525000Y-68051708D01*
X94525000Y-67948292D01*
X94504824Y-67846863D01*
X94465249Y-67751319D01*
X94407794Y-67665332D01*
X94334668Y-67592206D01*
X94271503Y-67550000D01*
X94319041Y-67550000D01*
X94342206Y-67584668D01*
X94415332Y-67657794D01*
X94501319Y-67715249D01*
X94596863Y-67754824D01*
X94698292Y-67775000D01*
X94801708Y-67775000D01*
X94903137Y-67754824D01*
X94998681Y-67715249D01*
X95084668Y-67657794D01*
X95157794Y-67584668D01*
X95215249Y-67498681D01*
X95254824Y-67403137D01*
X95275000Y-67301708D01*
X95275000Y-67198292D01*
X95254824Y-67096863D01*
X95215249Y-67001319D01*
X95157794Y-66915332D01*
X95084668Y-66842206D01*
X94998681Y-66784751D01*
X94903137Y-66745176D01*
X94801708Y-66725000D01*
X94698292Y-66725000D01*
X94596863Y-66745176D01*
X94501319Y-66784751D01*
X94415332Y-66842206D01*
X94342206Y-66915332D01*
X94319041Y-66950000D01*
X93464730Y-66950000D01*
X93450000Y-66948549D01*
X93435269Y-66950000D01*
X93435267Y-66950000D01*
X93391190Y-66954341D01*
X93334640Y-66971496D01*
X93321529Y-66978504D01*
X93282522Y-66999353D01*
X93255540Y-67021497D01*
X93236842Y-67036842D01*
X93227451Y-67048285D01*
X92400000Y-67875736D01*
X92400000Y-67230983D01*
X92434668Y-67207818D01*
X92507794Y-67134692D01*
X92565249Y-67048705D01*
X92604824Y-66953161D01*
X92625000Y-66851732D01*
X92625000Y-66748316D01*
X92604824Y-66646887D01*
X92565249Y-66551343D01*
X92507794Y-66465356D01*
X92434668Y-66392230D01*
X92348681Y-66334775D01*
X92253137Y-66295200D01*
X92151708Y-66275024D01*
X92048292Y-66275024D01*
X91946863Y-66295200D01*
X91851319Y-66334775D01*
X91765332Y-66392230D01*
X91700026Y-66457536D01*
X91634668Y-66392178D01*
X91548681Y-66334723D01*
X91453137Y-66295148D01*
X91351708Y-66274972D01*
X91248292Y-66274972D01*
X91146863Y-66295148D01*
X91051319Y-66334723D01*
X90965332Y-66392178D01*
X90892206Y-66465304D01*
X90834751Y-66551291D01*
X90795176Y-66646835D01*
X90775000Y-66748264D01*
X90775000Y-66851680D01*
X90795176Y-66953109D01*
X90834751Y-67048653D01*
X90892206Y-67134640D01*
X90965332Y-67207766D01*
X91000001Y-67230931D01*
X91000000Y-68075736D01*
X87075737Y-72000000D01*
X84724264Y-72000000D01*
X83422553Y-70698290D01*
X83413158Y-70686842D01*
X83367477Y-70649353D01*
X83315360Y-70621496D01*
X83258810Y-70604341D01*
X83214733Y-70600000D01*
X83214723Y-70600000D01*
X83200000Y-70598550D01*
X83185277Y-70600000D01*
X82614722Y-70600000D01*
X82599999Y-70598550D01*
X82585276Y-70600000D01*
X82585267Y-70600000D01*
X82541190Y-70604341D01*
X82484640Y-70621496D01*
X82460379Y-70634464D01*
X82432522Y-70649353D01*
X82420999Y-70658810D01*
X82386842Y-70686842D01*
X82377451Y-70698285D01*
X81998285Y-71077452D01*
X81986843Y-71086842D01*
X81977452Y-71098285D01*
X81977451Y-71098286D01*
X81949353Y-71132523D01*
X81921497Y-71184640D01*
X81904342Y-71241190D01*
X81898550Y-71300000D01*
X81900001Y-71314733D01*
X81900000Y-72685277D01*
X81898550Y-72700000D01*
X81900000Y-72714723D01*
X81900000Y-72714732D01*
X81904341Y-72758809D01*
X81921496Y-72815359D01*
X81921497Y-72815360D01*
X81949353Y-72867477D01*
X81966358Y-72888198D01*
X81986842Y-72913158D01*
X81998290Y-72922553D01*
X82383135Y-73307398D01*
X82375000Y-73348292D01*
X82375000Y-73451708D01*
X82395176Y-73553137D01*
X82434751Y-73648681D01*
X82492206Y-73734668D01*
X82557538Y-73800000D01*
X81474264Y-73800000D01*
X80500000Y-72825737D01*
X80500000Y-69130959D01*
X80534668Y-69107794D01*
X80607794Y-69034668D01*
X80665249Y-68948681D01*
X80704824Y-68853137D01*
X80725000Y-68751708D01*
X80725000Y-68648292D01*
X80704824Y-68546863D01*
X80665249Y-68451319D01*
X80607794Y-68365332D01*
X80534668Y-68292206D01*
X80448681Y-68234751D01*
X80353137Y-68195176D01*
X80251708Y-68175000D01*
X80148292Y-68175000D01*
X80046863Y-68195176D01*
X79951319Y-68234751D01*
X79865332Y-68292206D01*
X79792206Y-68365332D01*
X79734751Y-68451319D01*
X79695176Y-68546863D01*
X79675000Y-68648292D01*
X79675000Y-68751708D01*
X79695176Y-68853137D01*
X79734751Y-68948681D01*
X79792206Y-69034668D01*
X79865332Y-69107794D01*
X79900000Y-69130959D01*
X79900001Y-72935267D01*
X79898550Y-72950000D01*
X79904342Y-73008810D01*
X79921497Y-73065360D01*
X79949353Y-73117477D01*
X79977127Y-73151319D01*
X79986843Y-73163158D01*
X79998285Y-73172548D01*
X81127451Y-74301715D01*
X81136842Y-74313158D01*
X81148285Y-74322549D01*
X81148286Y-74322550D01*
X81182522Y-74350647D01*
X81229222Y-74375608D01*
X81234640Y-74378504D01*
X81291190Y-74395659D01*
X81335267Y-74400000D01*
X81335270Y-74400000D01*
X81350000Y-74401451D01*
X81364730Y-74400000D01*
X86585277Y-74400000D01*
X86600000Y-74401450D01*
X86614723Y-74400000D01*
X86614733Y-74400000D01*
X86658810Y-74395659D01*
X86715360Y-74378504D01*
X86767477Y-74350647D01*
X86813158Y-74313158D01*
X86822553Y-74301710D01*
X89200000Y-71924263D01*
X89200001Y-77575735D01*
X87298290Y-79477447D01*
X87286842Y-79486842D01*
X87266358Y-79511802D01*
X87249353Y-79532523D01*
X87244721Y-79541189D01*
X87221496Y-79584641D01*
X87204341Y-79641191D01*
X87200000Y-79685268D01*
X87200000Y-79685277D01*
X87198550Y-79700000D01*
X87200000Y-79714723D01*
X87200001Y-81485267D01*
X87198550Y-81500000D01*
X87204342Y-81558810D01*
X87221497Y-81615360D01*
X87249353Y-81667477D01*
X87276575Y-81700646D01*
X87286843Y-81713158D01*
X87298285Y-81722548D01*
X88377451Y-82801715D01*
X88386842Y-82813158D01*
X88398285Y-82822549D01*
X88432522Y-82850647D01*
X88460379Y-82865536D01*
X88484640Y-82878504D01*
X88541190Y-82895659D01*
X88585267Y-82900000D01*
X88585277Y-82900000D01*
X88600000Y-82901450D01*
X88614723Y-82900000D01*
X94425277Y-82900000D01*
X94440000Y-82901450D01*
X94454723Y-82900000D01*
X94454733Y-82900000D01*
X94498810Y-82895659D01*
X94555360Y-82878504D01*
X94607477Y-82850647D01*
X94653158Y-82813158D01*
X94662553Y-82801710D01*
X95893767Y-81570497D01*
X96055603Y-81637532D01*
X96243971Y-81675000D01*
X96436029Y-81675000D01*
X96624397Y-81637532D01*
X96801836Y-81564034D01*
X96961527Y-81457332D01*
X97097332Y-81321527D01*
X97204034Y-81161836D01*
X97277532Y-80984397D01*
X97300001Y-80871437D01*
X97300001Y-81585267D01*
X97298550Y-81600000D01*
X97304342Y-81658810D01*
X97321497Y-81715360D01*
X97349353Y-81767477D01*
X97365246Y-81786842D01*
X97386843Y-81813158D01*
X97398286Y-81822549D01*
X109777451Y-94201715D01*
X109786842Y-94213158D01*
X109798285Y-94222549D01*
X109832522Y-94250647D01*
X109860379Y-94265536D01*
X109884640Y-94278504D01*
X109941190Y-94295659D01*
X109985267Y-94300000D01*
X109985276Y-94300000D01*
X109999999Y-94301450D01*
X110014722Y-94300000D01*
X111073912Y-94300000D01*
X111073912Y-96000000D01*
X111078256Y-96044108D01*
X111091122Y-96086520D01*
X111112015Y-96125608D01*
X111140132Y-96159868D01*
X111174392Y-96187985D01*
X111213480Y-96208878D01*
X111255892Y-96221744D01*
X111300000Y-96226088D01*
X115300000Y-96226088D01*
X115344108Y-96221744D01*
X115386520Y-96208878D01*
X115425608Y-96187985D01*
X115459868Y-96159868D01*
X115487985Y-96125608D01*
X115508878Y-96086520D01*
X115521744Y-96044108D01*
X115526088Y-96000000D01*
X115526088Y-92000000D01*
X115521744Y-91955892D01*
X115508878Y-91913480D01*
X115487985Y-91874392D01*
X115459868Y-91840132D01*
X115425608Y-91812015D01*
X115386520Y-91791122D01*
X115344108Y-91778256D01*
X115300000Y-91773912D01*
X111300000Y-91773912D01*
X111255892Y-91778256D01*
X111213480Y-91791122D01*
X111174392Y-91812015D01*
X111140132Y-91840132D01*
X111112015Y-91874392D01*
X111091122Y-91913480D01*
X111078256Y-91955892D01*
X111073912Y-92000000D01*
X111073912Y-93700000D01*
X110124264Y-93700000D01*
X97900000Y-81475737D01*
X97900000Y-79614722D01*
X97901450Y-79599999D01*
X97900000Y-79585276D01*
X97900000Y-79585267D01*
X97895659Y-79541190D01*
X97878504Y-79484640D01*
X97850648Y-79432524D01*
X97850647Y-79432522D01*
X97822549Y-79398285D01*
X97813158Y-79386842D01*
X97801717Y-79377453D01*
X95600000Y-77175737D01*
X95600000Y-72930959D01*
X95634668Y-72907794D01*
X95707794Y-72834668D01*
X95765249Y-72748681D01*
X95804824Y-72653137D01*
X95804998Y-72652260D01*
X96200000Y-73047262D01*
X96200001Y-76825927D01*
X96198550Y-76840660D01*
X96204342Y-76899470D01*
X96221497Y-76956020D01*
X96249353Y-77008137D01*
X96277451Y-77042374D01*
X96286843Y-77053818D01*
X96298286Y-77063209D01*
X98960076Y-79725000D01*
X98783971Y-79725000D01*
X98595603Y-79762468D01*
X98418164Y-79835966D01*
X98258473Y-79942668D01*
X98122668Y-80078473D01*
X98015966Y-80238164D01*
X97942468Y-80415603D01*
X97905000Y-80603971D01*
X97905000Y-80796029D01*
X97942468Y-80984397D01*
X98015966Y-81161836D01*
X98122668Y-81321527D01*
X98258473Y-81457332D01*
X98418164Y-81564034D01*
X98595603Y-81637532D01*
X98783971Y-81675000D01*
X98976029Y-81675000D01*
X99164397Y-81637532D01*
X99341836Y-81564034D01*
X99501527Y-81457332D01*
X99637332Y-81321527D01*
X99744034Y-81161836D01*
X99817532Y-80984397D01*
X99855000Y-80796029D01*
X99855000Y-80619924D01*
X100136790Y-80901714D01*
X100146182Y-80913158D01*
X100157625Y-80922549D01*
X100191862Y-80950647D01*
X100219719Y-80965536D01*
X100243980Y-80978504D01*
X100300530Y-80995659D01*
X100344607Y-81000000D01*
X100344617Y-81000000D01*
X100359340Y-81001450D01*
X100374063Y-81000000D01*
X100488931Y-81000000D01*
X100555966Y-81161836D01*
X100662668Y-81321527D01*
X100798473Y-81457332D01*
X100958164Y-81564034D01*
X101135603Y-81637532D01*
X101323971Y-81675000D01*
X101516029Y-81675000D01*
X101704397Y-81637532D01*
X101881836Y-81564034D01*
X102041527Y-81457332D01*
X102177332Y-81321527D01*
X102284034Y-81161836D01*
X102357532Y-80984397D01*
X102395000Y-80796029D01*
X102395000Y-80603971D01*
X102357532Y-80415603D01*
X102284034Y-80238164D01*
X102177332Y-80078473D01*
X102041527Y-79942668D01*
X101881836Y-79835966D01*
X101704397Y-79762468D01*
X101516029Y-79725000D01*
X101323971Y-79725000D01*
X101135603Y-79762468D01*
X100958164Y-79835966D01*
X100798473Y-79942668D01*
X100662668Y-80078473D01*
X100555966Y-80238164D01*
X100488931Y-80400000D01*
X100483604Y-80400000D01*
X96800000Y-76716397D01*
X96800000Y-72937728D01*
X96801451Y-72922998D01*
X96800000Y-72908265D01*
X96795659Y-72864188D01*
X96778504Y-72807638D01*
X96777000Y-72804824D01*
X96750647Y-72755520D01*
X96722550Y-72721284D01*
X96722549Y-72721283D01*
X96713158Y-72709840D01*
X96701716Y-72700450D01*
X95699555Y-71698290D01*
X95690160Y-71686842D01*
X95644479Y-71649353D01*
X95604473Y-71627970D01*
X95634668Y-71607794D01*
X95707794Y-71534668D01*
X95730959Y-71500000D01*
X98835217Y-71500000D01*
X98751319Y-71534751D01*
X98665332Y-71592206D01*
X98592206Y-71665332D01*
X98534751Y-71751319D01*
X98495176Y-71846863D01*
X98475000Y-71948292D01*
X98475000Y-72051708D01*
X98483861Y-72096252D01*
X98465249Y-72051319D01*
X98407794Y-71965332D01*
X98334668Y-71892206D01*
X98248681Y-71834751D01*
X98153137Y-71795176D01*
X98051708Y-71775000D01*
X97948292Y-71775000D01*
X97846863Y-71795176D01*
X97751319Y-71834751D01*
X97665332Y-71892206D01*
X97592206Y-71965332D01*
X97534751Y-72051319D01*
X97495176Y-72146863D01*
X97475000Y-72248292D01*
X97475000Y-72351708D01*
X97495176Y-72453137D01*
X97534751Y-72548681D01*
X97592206Y-72634668D01*
X97665332Y-72707794D01*
X97751319Y-72765249D01*
X97846863Y-72804824D01*
X97948292Y-72825000D01*
X98051708Y-72825000D01*
X98092602Y-72816866D01*
X98177450Y-72901714D01*
X98186842Y-72913158D01*
X98198285Y-72922549D01*
X98232522Y-72950647D01*
X98247795Y-72958810D01*
X98284640Y-72978504D01*
X98341190Y-72995659D01*
X98385267Y-73000000D01*
X98385276Y-73000000D01*
X98399999Y-73001450D01*
X98414722Y-73000000D01*
X102575737Y-73000000D01*
X103748285Y-74172549D01*
X103748289Y-74172552D01*
X103798286Y-74222550D01*
X103798291Y-74222554D01*
X104777450Y-75201714D01*
X104786842Y-75213158D01*
X104798285Y-75222549D01*
X104832522Y-75250647D01*
X104860379Y-75265536D01*
X104884640Y-75278504D01*
X104941190Y-75295659D01*
X104985267Y-75300000D01*
X104985276Y-75300000D01*
X104999999Y-75301450D01*
X105014722Y-75300000D01*
X112375737Y-75300000D01*
X113773912Y-76698176D01*
X113773912Y-78500000D01*
X113778256Y-78544108D01*
X113791122Y-78586520D01*
X113812015Y-78625608D01*
X113840132Y-78659868D01*
X113874392Y-78687985D01*
X113913480Y-78708878D01*
X113955892Y-78721744D01*
X114000000Y-78726088D01*
X116000000Y-78726088D01*
X116044108Y-78721744D01*
X116086520Y-78708878D01*
X116125608Y-78687985D01*
X116159868Y-78659868D01*
X116187985Y-78625608D01*
X116208878Y-78586520D01*
X116221744Y-78544108D01*
X116226088Y-78500000D01*
X116226088Y-76500000D01*
X116221744Y-76455892D01*
X116208878Y-76413480D01*
X116187985Y-76374392D01*
X116159868Y-76340132D01*
X116125608Y-76312015D01*
X116086520Y-76291122D01*
X116044108Y-76278256D01*
X116000000Y-76273912D01*
X114198176Y-76273912D01*
X112722553Y-74798290D01*
X112713158Y-74786842D01*
X112667477Y-74749353D01*
X112615360Y-74721496D01*
X112558810Y-74704341D01*
X112514733Y-74700000D01*
X112514723Y-74700000D01*
X112500000Y-74698550D01*
X112485277Y-74700000D01*
X105124264Y-74700000D01*
X104222554Y-73798291D01*
X104222550Y-73798286D01*
X104172552Y-73748289D01*
X104172549Y-73748285D01*
X102922553Y-72498290D01*
X102913158Y-72486842D01*
X102867477Y-72449353D01*
X102815360Y-72421496D01*
X102758810Y-72404341D01*
X102714733Y-72400000D01*
X102714723Y-72400000D01*
X102700000Y-72398550D01*
X102685277Y-72400000D01*
X99342462Y-72400000D01*
X99407794Y-72334668D01*
X99430959Y-72300000D01*
X102875737Y-72300000D01*
X104777451Y-74201715D01*
X104786842Y-74213158D01*
X104798285Y-74222549D01*
X104832522Y-74250647D01*
X104860379Y-74265536D01*
X104884640Y-74278504D01*
X104941190Y-74295659D01*
X104985267Y-74300000D01*
X104985276Y-74300000D01*
X104999999Y-74301450D01*
X105014722Y-74300000D01*
X113730043Y-74300000D01*
X113741122Y-74336520D01*
X113762015Y-74375608D01*
X113790132Y-74409868D01*
X113824392Y-74437985D01*
X113863480Y-74458878D01*
X113905892Y-74471744D01*
X113950000Y-74476088D01*
X115950000Y-74476088D01*
X115994108Y-74471744D01*
X116036520Y-74458878D01*
X116075608Y-74437985D01*
X116109868Y-74409868D01*
X116137985Y-74375608D01*
X116158878Y-74336520D01*
X116171744Y-74294108D01*
X116176088Y-74250000D01*
X116176088Y-72250000D01*
X116171744Y-72205892D01*
X116158878Y-72163480D01*
X116137985Y-72124392D01*
X116109868Y-72090132D01*
X116075608Y-72062015D01*
X116036520Y-72041122D01*
X115994108Y-72028256D01*
X115950000Y-72023912D01*
X113950000Y-72023912D01*
X113905892Y-72028256D01*
X113863480Y-72041122D01*
X113824392Y-72062015D01*
X113790132Y-72090132D01*
X113762015Y-72124392D01*
X113741122Y-72163480D01*
X113728256Y-72205892D01*
X113723912Y-72250000D01*
X113723912Y-73700000D01*
X105124264Y-73700000D01*
X103222553Y-71798290D01*
X103213158Y-71786842D01*
X103167477Y-71749353D01*
X103115360Y-71721496D01*
X103058810Y-71704341D01*
X103014733Y-71700000D01*
X103014723Y-71700000D01*
X103000000Y-71698550D01*
X102985277Y-71700000D01*
X99430959Y-71700000D01*
X99407794Y-71665332D01*
X99334668Y-71592206D01*
X99248681Y-71534751D01*
X99164783Y-71500000D01*
X112685277Y-71500000D01*
X112700000Y-71501450D01*
X112714723Y-71500000D01*
X112714733Y-71500000D01*
X112758810Y-71495659D01*
X112815360Y-71478504D01*
X112867477Y-71450647D01*
X112913158Y-71413158D01*
X112922553Y-71401710D01*
X114148176Y-70176088D01*
X115950000Y-70176088D01*
X115994108Y-70171744D01*
X116036520Y-70158878D01*
X116075608Y-70137985D01*
X116109868Y-70109868D01*
X116137985Y-70075608D01*
X116158878Y-70036520D01*
X116171744Y-69994108D01*
X116176088Y-69950000D01*
X116176088Y-67950000D01*
X116171744Y-67905892D01*
X116158878Y-67863480D01*
X116137985Y-67824392D01*
X116109868Y-67790132D01*
X116075608Y-67762015D01*
X116036520Y-67741122D01*
X115994108Y-67728256D01*
X115950000Y-67723912D01*
X113950000Y-67723912D01*
X113905892Y-67728256D01*
X113863480Y-67741122D01*
X113824392Y-67762015D01*
X113790132Y-67790132D01*
X113762015Y-67824392D01*
X113741122Y-67863480D01*
X113728256Y-67905892D01*
X113723912Y-67950000D01*
X113723912Y-69751824D01*
X112575737Y-70900000D01*
X109330959Y-70900000D01*
X109365249Y-70848681D01*
X109404824Y-70753137D01*
X109425000Y-70651708D01*
X109425000Y-70548292D01*
X109404824Y-70446863D01*
X109365249Y-70351319D01*
X109307794Y-70265332D01*
X109234668Y-70192206D01*
X109148681Y-70134751D01*
X109053137Y-70095176D01*
X108951708Y-70075000D01*
X108848292Y-70075000D01*
X108746863Y-70095176D01*
X108651319Y-70134751D01*
X108565332Y-70192206D01*
X108492206Y-70265332D01*
X108469041Y-70300000D01*
X101530999Y-70300000D01*
X101507834Y-70265332D01*
X101434708Y-70192206D01*
X101348721Y-70134751D01*
X101253177Y-70095176D01*
X101151748Y-70075000D01*
X101048332Y-70075000D01*
X100946903Y-70095176D01*
X100851359Y-70134751D01*
X100765372Y-70192206D01*
X100692246Y-70265332D01*
X100669081Y-70300000D01*
X93114711Y-70300000D01*
X93099991Y-70298550D01*
X93085271Y-70300000D01*
X93085259Y-70300000D01*
X93041182Y-70304341D01*
X92984632Y-70321496D01*
X92960371Y-70334464D01*
X92932514Y-70349353D01*
X92898277Y-70377451D01*
X92886834Y-70386842D01*
X92877443Y-70398285D01*
X92692602Y-70583127D01*
X92651708Y-70574992D01*
X92548292Y-70574992D01*
X92446863Y-70595168D01*
X92351319Y-70634743D01*
X92265332Y-70692198D01*
X92192206Y-70765324D01*
X92134751Y-70851311D01*
X92100000Y-70935209D01*
X92100000Y-70830959D01*
X92134668Y-70807794D01*
X92207794Y-70734668D01*
X92265249Y-70648681D01*
X92304824Y-70553137D01*
X92325000Y-70451708D01*
X92325000Y-70348292D01*
X92304824Y-70246863D01*
X92265249Y-70151319D01*
X92207794Y-70065332D01*
X92134668Y-69992206D01*
X92048681Y-69934751D01*
X91953137Y-69895176D01*
X91851708Y-69875000D01*
X91849264Y-69875000D01*
X92875000Y-68849264D01*
X92875000Y-68851708D01*
X92895176Y-68953137D01*
X92934751Y-69048681D01*
X92992206Y-69134668D01*
X93065332Y-69207794D01*
X93151319Y-69265249D01*
X93246863Y-69304824D01*
X93348292Y-69325000D01*
X93451708Y-69325000D01*
X93492602Y-69316865D01*
X93702452Y-69526716D01*
X93711843Y-69538159D01*
X93723286Y-69547550D01*
X93723287Y-69547551D01*
X93757523Y-69575648D01*
X93805798Y-69601451D01*
X93809641Y-69603505D01*
X93866191Y-69620660D01*
X93910268Y-69625001D01*
X93910271Y-69625001D01*
X93925001Y-69626452D01*
X93939731Y-69625001D01*
X105560276Y-69625001D01*
X105574999Y-69626451D01*
X105589722Y-69625001D01*
X105589732Y-69625001D01*
X105633809Y-69620660D01*
X105690359Y-69603505D01*
X105742476Y-69575648D01*
X105788157Y-69538159D01*
X105797552Y-69526711D01*
X107401717Y-67922547D01*
X107413158Y-67913158D01*
X107436562Y-67884640D01*
X107450647Y-67867478D01*
X107478503Y-67815361D01*
X107478504Y-67815360D01*
X107495659Y-67758810D01*
X107500000Y-67714733D01*
X107500000Y-67714721D01*
X107501450Y-67700001D01*
X107500000Y-67685281D01*
X107500000Y-65874263D01*
X107617249Y-65757014D01*
X107605000Y-65818594D01*
X107605000Y-65961406D01*
X107632861Y-66101475D01*
X107687513Y-66233416D01*
X107766856Y-66352161D01*
X107867839Y-66453144D01*
X107986584Y-66532487D01*
X108118525Y-66587139D01*
X108258594Y-66615000D01*
X108401406Y-66615000D01*
X108541475Y-66587139D01*
X108673416Y-66532487D01*
X108792161Y-66453144D01*
X108873912Y-66371393D01*
X108873912Y-66390000D01*
X108878256Y-66434108D01*
X108891122Y-66476520D01*
X108912015Y-66515608D01*
X108940132Y-66549868D01*
X108974392Y-66577985D01*
X109013480Y-66598878D01*
X109055892Y-66611744D01*
X109100000Y-66616088D01*
X110100000Y-66616088D01*
X110144108Y-66611744D01*
X110186520Y-66598878D01*
X110225608Y-66577985D01*
X110259868Y-66549868D01*
X110287985Y-66515608D01*
X110308878Y-66476520D01*
X110321744Y-66434108D01*
X110326088Y-66390000D01*
X110326088Y-65390000D01*
X110321744Y-65345892D01*
X110308878Y-65303480D01*
X110287985Y-65264392D01*
X110259868Y-65230132D01*
X110225608Y-65202015D01*
X110186520Y-65181122D01*
X110146473Y-65168973D01*
X110240999Y-65055620D01*
X110313668Y-64922197D01*
X110318312Y-64910951D01*
X110284225Y-64795000D01*
X109775000Y-64795000D01*
X109775000Y-64815000D01*
X109425000Y-64815000D01*
X109425000Y-64795000D01*
X109405000Y-64795000D01*
X109405000Y-64445000D01*
X109425000Y-64445000D01*
X109425000Y-64425000D01*
X109775000Y-64425000D01*
X109775000Y-64445000D01*
X110284225Y-64445000D01*
X110318312Y-64329049D01*
X110313668Y-64317803D01*
X110263123Y-64225000D01*
X119725000Y-64225000D01*
X119725001Y-121225000D01*
X60275000Y-121225000D01*
X60275000Y-117500000D01*
X78773912Y-117500000D01*
X78773912Y-118500000D01*
X78787864Y-118641653D01*
X78829182Y-118777862D01*
X78896280Y-118903393D01*
X78986578Y-119013422D01*
X79096607Y-119103720D01*
X79222138Y-119170818D01*
X79358347Y-119212136D01*
X79500000Y-119226088D01*
X81500000Y-119226088D01*
X81641653Y-119212136D01*
X81777862Y-119170818D01*
X81903393Y-119103720D01*
X82013422Y-119013422D01*
X82103720Y-118903393D01*
X82170818Y-118777862D01*
X82212136Y-118641653D01*
X82226088Y-118500000D01*
X82226088Y-117500000D01*
X85773912Y-117500000D01*
X85773912Y-118500000D01*
X85787864Y-118641653D01*
X85829182Y-118777862D01*
X85896280Y-118903393D01*
X85986578Y-119013422D01*
X86096607Y-119103720D01*
X86222138Y-119170818D01*
X86358347Y-119212136D01*
X86500000Y-119226088D01*
X88500000Y-119226088D01*
X88641653Y-119212136D01*
X88777862Y-119170818D01*
X88903393Y-119103720D01*
X89013422Y-119013422D01*
X89103720Y-118903393D01*
X89170818Y-118777862D01*
X89212136Y-118641653D01*
X89226088Y-118500000D01*
X89226088Y-118300000D01*
X89339529Y-118300000D01*
X89357513Y-118343416D01*
X89436856Y-118462161D01*
X89537839Y-118563144D01*
X89656584Y-118642487D01*
X89788525Y-118697139D01*
X89928594Y-118725000D01*
X90071406Y-118725000D01*
X90211475Y-118697139D01*
X90343416Y-118642487D01*
X90462161Y-118563144D01*
X90563144Y-118462161D01*
X90642487Y-118343416D01*
X90660471Y-118300000D01*
X90773912Y-118300000D01*
X90773912Y-118500000D01*
X90787864Y-118641653D01*
X90829182Y-118777862D01*
X90896280Y-118903393D01*
X90986578Y-119013422D01*
X91096607Y-119103720D01*
X91222138Y-119170818D01*
X91358347Y-119212136D01*
X91500000Y-119226088D01*
X93500000Y-119226088D01*
X93641653Y-119212136D01*
X93777862Y-119170818D01*
X93903393Y-119103720D01*
X94013422Y-119013422D01*
X94103720Y-118903393D01*
X94170818Y-118777862D01*
X94212136Y-118641653D01*
X94226088Y-118500000D01*
X94226088Y-117500000D01*
X94212136Y-117358347D01*
X94170818Y-117222138D01*
X94103720Y-117096607D01*
X94013422Y-116986578D01*
X93903393Y-116896280D01*
X93777862Y-116829182D01*
X93641653Y-116787864D01*
X93500000Y-116773912D01*
X91500000Y-116773912D01*
X91358347Y-116787864D01*
X91222138Y-116829182D01*
X91096607Y-116896280D01*
X90986578Y-116986578D01*
X90896280Y-117096607D01*
X90829182Y-117222138D01*
X90787864Y-117358347D01*
X90773912Y-117500000D01*
X90773912Y-117700000D01*
X90660471Y-117700000D01*
X90642487Y-117656584D01*
X90563144Y-117537839D01*
X90462161Y-117436856D01*
X90343416Y-117357513D01*
X90211475Y-117302861D01*
X90071406Y-117275000D01*
X89928594Y-117275000D01*
X89788525Y-117302861D01*
X89656584Y-117357513D01*
X89537839Y-117436856D01*
X89436856Y-117537839D01*
X89357513Y-117656584D01*
X89339529Y-117700000D01*
X89226088Y-117700000D01*
X89226088Y-117500000D01*
X89212136Y-117358347D01*
X89170818Y-117222138D01*
X89103720Y-117096607D01*
X89013422Y-116986578D01*
X88903393Y-116896280D01*
X88777862Y-116829182D01*
X88641653Y-116787864D01*
X88500000Y-116773912D01*
X86500000Y-116773912D01*
X86358347Y-116787864D01*
X86222138Y-116829182D01*
X86096607Y-116896280D01*
X85986578Y-116986578D01*
X85896280Y-117096607D01*
X85829182Y-117222138D01*
X85787864Y-117358347D01*
X85773912Y-117500000D01*
X82226088Y-117500000D01*
X82212136Y-117358347D01*
X82170818Y-117222138D01*
X82103720Y-117096607D01*
X82013422Y-116986578D01*
X81971824Y-116952439D01*
X93907398Y-105016866D01*
X93948292Y-105025000D01*
X94051708Y-105025000D01*
X94153137Y-105004824D01*
X94248681Y-104965249D01*
X94334668Y-104907794D01*
X94407794Y-104834668D01*
X94465249Y-104748681D01*
X94504824Y-104653137D01*
X94525000Y-104551708D01*
X94525000Y-104448292D01*
X94504824Y-104346863D01*
X94465249Y-104251319D01*
X94407794Y-104165332D01*
X94334668Y-104092206D01*
X94248681Y-104034751D01*
X94153137Y-103995176D01*
X94051708Y-103975000D01*
X93948292Y-103975000D01*
X93846863Y-103995176D01*
X93751319Y-104034751D01*
X93665332Y-104092206D01*
X93592206Y-104165332D01*
X93534751Y-104251319D01*
X93495176Y-104346863D01*
X93475000Y-104448292D01*
X93475000Y-104551708D01*
X93483134Y-104592602D01*
X81301825Y-116773912D01*
X79500000Y-116773912D01*
X79358347Y-116787864D01*
X79222138Y-116829182D01*
X79096607Y-116896280D01*
X78986578Y-116986578D01*
X78896280Y-117096607D01*
X78829182Y-117222138D01*
X78787864Y-117358347D01*
X78773912Y-117500000D01*
X60275000Y-117500000D01*
X60275000Y-106003971D01*
X77585000Y-106003971D01*
X77585000Y-106196029D01*
X77622468Y-106384397D01*
X77695966Y-106561836D01*
X77802668Y-106721527D01*
X77938473Y-106857332D01*
X78098164Y-106964034D01*
X78275603Y-107037532D01*
X78463971Y-107075000D01*
X78656029Y-107075000D01*
X78844397Y-107037532D01*
X79021836Y-106964034D01*
X79181527Y-106857332D01*
X79317332Y-106721527D01*
X79424034Y-106561836D01*
X79497532Y-106384397D01*
X79535000Y-106196029D01*
X79535000Y-106003971D01*
X80125000Y-106003971D01*
X80125000Y-106196029D01*
X80162468Y-106384397D01*
X80235966Y-106561836D01*
X80342668Y-106721527D01*
X80478473Y-106857332D01*
X80638164Y-106964034D01*
X80815603Y-107037532D01*
X81003971Y-107075000D01*
X81196029Y-107075000D01*
X81384397Y-107037532D01*
X81561836Y-106964034D01*
X81721527Y-106857332D01*
X81857332Y-106721527D01*
X81964034Y-106561836D01*
X82037532Y-106384397D01*
X82075000Y-106196029D01*
X82075000Y-106003971D01*
X82037532Y-105815603D01*
X81964034Y-105638164D01*
X81857332Y-105478473D01*
X81721527Y-105342668D01*
X81561836Y-105235966D01*
X81384397Y-105162468D01*
X81196029Y-105125000D01*
X81003971Y-105125000D01*
X80815603Y-105162468D01*
X80638164Y-105235966D01*
X80478473Y-105342668D01*
X80342668Y-105478473D01*
X80235966Y-105638164D01*
X80162468Y-105815603D01*
X80125000Y-106003971D01*
X79535000Y-106003971D01*
X79497532Y-105815603D01*
X79424034Y-105638164D01*
X79317332Y-105478473D01*
X79181527Y-105342668D01*
X79021836Y-105235966D01*
X78844397Y-105162468D01*
X78656029Y-105125000D01*
X78463971Y-105125000D01*
X78275603Y-105162468D01*
X78098164Y-105235966D01*
X77938473Y-105342668D01*
X77802668Y-105478473D01*
X77695966Y-105638164D01*
X77622468Y-105815603D01*
X77585000Y-106003971D01*
X60275000Y-106003971D01*
X60275000Y-103048292D01*
X93475000Y-103048292D01*
X93475000Y-103151708D01*
X93495176Y-103253137D01*
X93534751Y-103348681D01*
X93592206Y-103434668D01*
X93665332Y-103507794D01*
X93751319Y-103565249D01*
X93846863Y-103604824D01*
X93948292Y-103625000D01*
X94051708Y-103625000D01*
X94092602Y-103616865D01*
X99200000Y-108724264D01*
X99200001Y-116773912D01*
X98500000Y-116773912D01*
X98358347Y-116787864D01*
X98222138Y-116829182D01*
X98096607Y-116896280D01*
X97986578Y-116986578D01*
X97896280Y-117096607D01*
X97829182Y-117222138D01*
X97787864Y-117358347D01*
X97773912Y-117500000D01*
X97773912Y-118500000D01*
X97787864Y-118641653D01*
X97829182Y-118777862D01*
X97896280Y-118903393D01*
X97986578Y-119013422D01*
X98096607Y-119103720D01*
X98222138Y-119170818D01*
X98358347Y-119212136D01*
X98500000Y-119226088D01*
X100500000Y-119226088D01*
X100641653Y-119212136D01*
X100777862Y-119170818D01*
X100903393Y-119103720D01*
X101013422Y-119013422D01*
X101103720Y-118903393D01*
X101170818Y-118777862D01*
X101212136Y-118641653D01*
X101226088Y-118500000D01*
X101226088Y-117500000D01*
X101212136Y-117358347D01*
X101170818Y-117222138D01*
X101103720Y-117096607D01*
X101013422Y-116986578D01*
X100903393Y-116896280D01*
X100777862Y-116829182D01*
X100641653Y-116787864D01*
X100500000Y-116773912D01*
X99800000Y-116773912D01*
X99800000Y-108614730D01*
X99801451Y-108600000D01*
X99800000Y-108585267D01*
X99795659Y-108541190D01*
X99778504Y-108484640D01*
X99750648Y-108432524D01*
X99750647Y-108432522D01*
X99722550Y-108398286D01*
X99722549Y-108398285D01*
X99713158Y-108386842D01*
X99701717Y-108377453D01*
X97328235Y-106003971D01*
X97905000Y-106003971D01*
X97905000Y-106196029D01*
X97942468Y-106384397D01*
X98015966Y-106561836D01*
X98122668Y-106721527D01*
X98258473Y-106857332D01*
X98418164Y-106964034D01*
X98595603Y-107037532D01*
X98783971Y-107075000D01*
X98976029Y-107075000D01*
X99164397Y-107037532D01*
X99341836Y-106964034D01*
X99501527Y-106857332D01*
X99637332Y-106721527D01*
X99744034Y-106561836D01*
X99817532Y-106384397D01*
X99855000Y-106196029D01*
X99855000Y-106003971D01*
X99817532Y-105815603D01*
X99744034Y-105638164D01*
X99637332Y-105478473D01*
X99508859Y-105350000D01*
X100443912Y-105350000D01*
X100443912Y-106850000D01*
X100448256Y-106894108D01*
X100461122Y-106936520D01*
X100482015Y-106975608D01*
X100510132Y-107009868D01*
X100544392Y-107037985D01*
X100583480Y-107058878D01*
X100625892Y-107071744D01*
X100670000Y-107076088D01*
X102170000Y-107076088D01*
X102214108Y-107071744D01*
X102256520Y-107058878D01*
X102295608Y-107037985D01*
X102329868Y-107009868D01*
X102337966Y-107000000D01*
X111023669Y-107000000D01*
X111028979Y-107053910D01*
X111044703Y-107105747D01*
X111070239Y-107153521D01*
X111104604Y-107195396D01*
X111146479Y-107229761D01*
X111194253Y-107255297D01*
X111246090Y-107271021D01*
X111300000Y-107276331D01*
X113056250Y-107275000D01*
X113125000Y-107206250D01*
X113125000Y-105175000D01*
X113475000Y-105175000D01*
X113475000Y-107206250D01*
X113543750Y-107275000D01*
X115300000Y-107276331D01*
X115353910Y-107271021D01*
X115405747Y-107255297D01*
X115453521Y-107229761D01*
X115495396Y-107195396D01*
X115529761Y-107153521D01*
X115555297Y-107105747D01*
X115571021Y-107053910D01*
X115576331Y-107000000D01*
X115575000Y-105243750D01*
X115506250Y-105175000D01*
X113475000Y-105175000D01*
X113125000Y-105175000D01*
X111093750Y-105175000D01*
X111025000Y-105243750D01*
X111023669Y-107000000D01*
X102337966Y-107000000D01*
X102357985Y-106975608D01*
X102378878Y-106936520D01*
X102391744Y-106894108D01*
X102396088Y-106850000D01*
X102396088Y-105350000D01*
X102391744Y-105305892D01*
X102378878Y-105263480D01*
X102357985Y-105224392D01*
X102329868Y-105190132D01*
X102295608Y-105162015D01*
X102256520Y-105141122D01*
X102214108Y-105128256D01*
X102170000Y-105123912D01*
X100670000Y-105123912D01*
X100625892Y-105128256D01*
X100583480Y-105141122D01*
X100544392Y-105162015D01*
X100510132Y-105190132D01*
X100482015Y-105224392D01*
X100461122Y-105263480D01*
X100448256Y-105305892D01*
X100443912Y-105350000D01*
X99508859Y-105350000D01*
X99501527Y-105342668D01*
X99341836Y-105235966D01*
X99164397Y-105162468D01*
X98976029Y-105125000D01*
X98783971Y-105125000D01*
X98595603Y-105162468D01*
X98418164Y-105235966D01*
X98258473Y-105342668D01*
X98122668Y-105478473D01*
X98015966Y-105638164D01*
X97942468Y-105815603D01*
X97905000Y-106003971D01*
X97328235Y-106003971D01*
X94516865Y-103192602D01*
X94525000Y-103151708D01*
X94525000Y-103048292D01*
X94515394Y-103000000D01*
X111023669Y-103000000D01*
X111025000Y-104756250D01*
X111093750Y-104825000D01*
X113125000Y-104825000D01*
X113125000Y-102793750D01*
X113475000Y-102793750D01*
X113475000Y-104825000D01*
X115506250Y-104825000D01*
X115575000Y-104756250D01*
X115576331Y-103000000D01*
X115571021Y-102946090D01*
X115555297Y-102894253D01*
X115529761Y-102846479D01*
X115495396Y-102804604D01*
X115453521Y-102770239D01*
X115405747Y-102744703D01*
X115353910Y-102728979D01*
X115300000Y-102723669D01*
X113543750Y-102725000D01*
X113475000Y-102793750D01*
X113125000Y-102793750D01*
X113056250Y-102725000D01*
X111300000Y-102723669D01*
X111246090Y-102728979D01*
X111194253Y-102744703D01*
X111146479Y-102770239D01*
X111104604Y-102804604D01*
X111070239Y-102846479D01*
X111044703Y-102894253D01*
X111028979Y-102946090D01*
X111023669Y-103000000D01*
X94515394Y-103000000D01*
X94504824Y-102946863D01*
X94465249Y-102851319D01*
X94407794Y-102765332D01*
X94334668Y-102692206D01*
X94248681Y-102634751D01*
X94153137Y-102595176D01*
X94051708Y-102575000D01*
X93948292Y-102575000D01*
X93846863Y-102595176D01*
X93751319Y-102634751D01*
X93665332Y-102692206D01*
X93592206Y-102765332D01*
X93534751Y-102851319D01*
X93495176Y-102946863D01*
X93475000Y-103048292D01*
X60275000Y-103048292D01*
X60275000Y-97500000D01*
X111073912Y-97500000D01*
X111073912Y-101500000D01*
X111078256Y-101544108D01*
X111091122Y-101586520D01*
X111112015Y-101625608D01*
X111140132Y-101659868D01*
X111174392Y-101687985D01*
X111213480Y-101708878D01*
X111255892Y-101721744D01*
X111300000Y-101726088D01*
X115300000Y-101726088D01*
X115344108Y-101721744D01*
X115386520Y-101708878D01*
X115425608Y-101687985D01*
X115459868Y-101659868D01*
X115487985Y-101625608D01*
X115508878Y-101586520D01*
X115521744Y-101544108D01*
X115526088Y-101500000D01*
X115526088Y-97500000D01*
X115521744Y-97455892D01*
X115508878Y-97413480D01*
X115487985Y-97374392D01*
X115459868Y-97340132D01*
X115425608Y-97312015D01*
X115386520Y-97291122D01*
X115344108Y-97278256D01*
X115300000Y-97273912D01*
X111300000Y-97273912D01*
X111255892Y-97278256D01*
X111213480Y-97291122D01*
X111174392Y-97312015D01*
X111140132Y-97340132D01*
X111112015Y-97374392D01*
X111091122Y-97413480D01*
X111078256Y-97455892D01*
X111073912Y-97500000D01*
X60275000Y-97500000D01*
X60275000Y-80603971D01*
X77585000Y-80603971D01*
X77585000Y-80796029D01*
X77622468Y-80984397D01*
X77695966Y-81161836D01*
X77802668Y-81321527D01*
X77938473Y-81457332D01*
X78098164Y-81564034D01*
X78275603Y-81637532D01*
X78463971Y-81675000D01*
X78656029Y-81675000D01*
X78844397Y-81637532D01*
X79021836Y-81564034D01*
X79129549Y-81492062D01*
X80555425Y-81492062D01*
X80644985Y-81624002D01*
X80833992Y-81695017D01*
X81033222Y-81727793D01*
X81235017Y-81721073D01*
X81431624Y-81675112D01*
X81555015Y-81624002D01*
X81644575Y-81492062D01*
X83095425Y-81492062D01*
X83184985Y-81624002D01*
X83373992Y-81695017D01*
X83573222Y-81727793D01*
X83775017Y-81721073D01*
X83971624Y-81675112D01*
X84095015Y-81624002D01*
X84184575Y-81492062D01*
X83640000Y-80947487D01*
X83095425Y-81492062D01*
X81644575Y-81492062D01*
X81100000Y-80947487D01*
X80555425Y-81492062D01*
X79129549Y-81492062D01*
X79181527Y-81457332D01*
X79317332Y-81321527D01*
X79424034Y-81161836D01*
X79497532Y-80984397D01*
X79535000Y-80796029D01*
X79535000Y-80633222D01*
X80072207Y-80633222D01*
X80078927Y-80835017D01*
X80124888Y-81031624D01*
X80175998Y-81155015D01*
X80307938Y-81244575D01*
X80852513Y-80700000D01*
X81347487Y-80700000D01*
X81892062Y-81244575D01*
X82024002Y-81155015D01*
X82095017Y-80966008D01*
X82127793Y-80766778D01*
X82123346Y-80633222D01*
X82612207Y-80633222D01*
X82618927Y-80835017D01*
X82664888Y-81031624D01*
X82715998Y-81155015D01*
X82847938Y-81244575D01*
X83392513Y-80700000D01*
X83887487Y-80700000D01*
X84432062Y-81244575D01*
X84564002Y-81155015D01*
X84635017Y-80966008D01*
X84667793Y-80766778D01*
X84662372Y-80603971D01*
X85205000Y-80603971D01*
X85205000Y-80796029D01*
X85242468Y-80984397D01*
X85315966Y-81161836D01*
X85422668Y-81321527D01*
X85558473Y-81457332D01*
X85718164Y-81564034D01*
X85895603Y-81637532D01*
X86083971Y-81675000D01*
X86276029Y-81675000D01*
X86464397Y-81637532D01*
X86641836Y-81564034D01*
X86801527Y-81457332D01*
X86937332Y-81321527D01*
X87044034Y-81161836D01*
X87117532Y-80984397D01*
X87155000Y-80796029D01*
X87155000Y-80603971D01*
X87117532Y-80415603D01*
X87044034Y-80238164D01*
X86937332Y-80078473D01*
X86801527Y-79942668D01*
X86641836Y-79835966D01*
X86464397Y-79762468D01*
X86276029Y-79725000D01*
X86083971Y-79725000D01*
X85895603Y-79762468D01*
X85718164Y-79835966D01*
X85558473Y-79942668D01*
X85422668Y-80078473D01*
X85315966Y-80238164D01*
X85242468Y-80415603D01*
X85205000Y-80603971D01*
X84662372Y-80603971D01*
X84661073Y-80564983D01*
X84615112Y-80368376D01*
X84564002Y-80244985D01*
X84432062Y-80155425D01*
X83887487Y-80700000D01*
X83392513Y-80700000D01*
X82847938Y-80155425D01*
X82715998Y-80244985D01*
X82644983Y-80433992D01*
X82612207Y-80633222D01*
X82123346Y-80633222D01*
X82121073Y-80564983D01*
X82075112Y-80368376D01*
X82024002Y-80244985D01*
X81892062Y-80155425D01*
X81347487Y-80700000D01*
X80852513Y-80700000D01*
X80307938Y-80155425D01*
X80175998Y-80244985D01*
X80104983Y-80433992D01*
X80072207Y-80633222D01*
X79535000Y-80633222D01*
X79535000Y-80603971D01*
X79497532Y-80415603D01*
X79424034Y-80238164D01*
X79317332Y-80078473D01*
X79181527Y-79942668D01*
X79129550Y-79907938D01*
X80555425Y-79907938D01*
X81100000Y-80452513D01*
X81644575Y-79907938D01*
X83095425Y-79907938D01*
X83640000Y-80452513D01*
X84184575Y-79907938D01*
X84095015Y-79775998D01*
X83906008Y-79704983D01*
X83706778Y-79672207D01*
X83504983Y-79678927D01*
X83308376Y-79724888D01*
X83184985Y-79775998D01*
X83095425Y-79907938D01*
X81644575Y-79907938D01*
X81555015Y-79775998D01*
X81366008Y-79704983D01*
X81166778Y-79672207D01*
X80964983Y-79678927D01*
X80768376Y-79724888D01*
X80644985Y-79775998D01*
X80555425Y-79907938D01*
X79129550Y-79907938D01*
X79021836Y-79835966D01*
X78844397Y-79762468D01*
X78656029Y-79725000D01*
X78463971Y-79725000D01*
X78275603Y-79762468D01*
X78098164Y-79835966D01*
X77938473Y-79942668D01*
X77802668Y-80078473D01*
X77695966Y-80238164D01*
X77622468Y-80415603D01*
X77585000Y-80603971D01*
X60275000Y-80603971D01*
X60275000Y-63475000D01*
X63450000Y-63475000D01*
X63450001Y-78235257D01*
X63448549Y-78250000D01*
X63454341Y-78308810D01*
X63471496Y-78365360D01*
X63499353Y-78417477D01*
X63536842Y-78463158D01*
X63582523Y-78500647D01*
X63634640Y-78528504D01*
X63691190Y-78545659D01*
X63735267Y-78550000D01*
X63750000Y-78551451D01*
X63764733Y-78550000D01*
X73235267Y-78550000D01*
X73250000Y-78551451D01*
X73264733Y-78550000D01*
X73308810Y-78545659D01*
X73365360Y-78528504D01*
X73417477Y-78500647D01*
X73463158Y-78463158D01*
X73500647Y-78417477D01*
X73528504Y-78365360D01*
X73545659Y-78308810D01*
X73551451Y-78250000D01*
X73550000Y-78235267D01*
X73550000Y-63475000D01*
X75250736Y-63475000D01*
X76027456Y-64251721D01*
X76036842Y-64263158D01*
X76048279Y-64272544D01*
X76048285Y-64272550D01*
X76082522Y-64300647D01*
X76134639Y-64328504D01*
X76147801Y-64332497D01*
X76191190Y-64345659D01*
X76235267Y-64350000D01*
X76235270Y-64350000D01*
X76250000Y-64351451D01*
X76264730Y-64350000D01*
X76419041Y-64350000D01*
X76442206Y-64384668D01*
X76515332Y-64457794D01*
X76601319Y-64515249D01*
X76696863Y-64554824D01*
X76798292Y-64575000D01*
X76901708Y-64575000D01*
X77003137Y-64554824D01*
X77098681Y-64515249D01*
X77100001Y-64514367D01*
X77100000Y-72969041D01*
X77065332Y-72992206D01*
X76992206Y-73065332D01*
X76934751Y-73151319D01*
X76895176Y-73246863D01*
X76875000Y-73348292D01*
X76875000Y-73451708D01*
X76895176Y-73553137D01*
X76934751Y-73648681D01*
X76992206Y-73734668D01*
X77065332Y-73807794D01*
X77151319Y-73865249D01*
X77246863Y-73904824D01*
X77348292Y-73925000D01*
X77451708Y-73925000D01*
X77553137Y-73904824D01*
X77648681Y-73865249D01*
X77734668Y-73807794D01*
X77807794Y-73734668D01*
X77865249Y-73648681D01*
X77904824Y-73553137D01*
X77925000Y-73451708D01*
X77925000Y-73348292D01*
X77904824Y-73246863D01*
X77865249Y-73151319D01*
X77807794Y-73065332D01*
X77734668Y-72992206D01*
X77700000Y-72969041D01*
X77700000Y-71930959D01*
X77751319Y-71965249D01*
X77846863Y-72004824D01*
X77948292Y-72025000D01*
X78051708Y-72025000D01*
X78153137Y-72004824D01*
X78248681Y-71965249D01*
X78334668Y-71907794D01*
X78407794Y-71834668D01*
X78465249Y-71748681D01*
X78504824Y-71653137D01*
X78525000Y-71551708D01*
X78525000Y-71448292D01*
X78504824Y-71346863D01*
X78465249Y-71251319D01*
X78407794Y-71165332D01*
X78334668Y-71092206D01*
X78300000Y-71069041D01*
X78300000Y-66398292D01*
X81125000Y-66398292D01*
X81125000Y-66501708D01*
X81145176Y-66603137D01*
X81184751Y-66698681D01*
X81242206Y-66784668D01*
X81315332Y-66857794D01*
X81401319Y-66915249D01*
X81496863Y-66954824D01*
X81598292Y-66975000D01*
X81701708Y-66975000D01*
X81742602Y-66966865D01*
X84277451Y-69501715D01*
X84286842Y-69513158D01*
X84298285Y-69522549D01*
X84298286Y-69522550D01*
X84332522Y-69550647D01*
X84379297Y-69575648D01*
X84384640Y-69578504D01*
X84441190Y-69595659D01*
X84485267Y-69600000D01*
X84485270Y-69600000D01*
X84500000Y-69601451D01*
X84514730Y-69600000D01*
X84569041Y-69600000D01*
X84592206Y-69634668D01*
X84665332Y-69707794D01*
X84751319Y-69765249D01*
X84846863Y-69804824D01*
X84948292Y-69825000D01*
X85051708Y-69825000D01*
X85153137Y-69804824D01*
X85248681Y-69765249D01*
X85334668Y-69707794D01*
X85407794Y-69634668D01*
X85465249Y-69548681D01*
X85504824Y-69453137D01*
X85525000Y-69351708D01*
X85525000Y-69248292D01*
X85504824Y-69146863D01*
X85465249Y-69051319D01*
X85407794Y-68965332D01*
X85334668Y-68892206D01*
X85248681Y-68834751D01*
X85153137Y-68795176D01*
X85051708Y-68775000D01*
X84948292Y-68775000D01*
X84846863Y-68795176D01*
X84751319Y-68834751D01*
X84665332Y-68892206D01*
X84592206Y-68965332D01*
X84591161Y-68966897D01*
X84449264Y-68825000D01*
X84451708Y-68825000D01*
X84553137Y-68804824D01*
X84648681Y-68765249D01*
X84734668Y-68707794D01*
X84807794Y-68634668D01*
X84865249Y-68548681D01*
X84904824Y-68453137D01*
X84925000Y-68351708D01*
X84925000Y-68248292D01*
X84904824Y-68146863D01*
X84865249Y-68051319D01*
X84807794Y-67965332D01*
X84734668Y-67892206D01*
X84648681Y-67834751D01*
X84553137Y-67795176D01*
X84451708Y-67775000D01*
X84348292Y-67775000D01*
X84307398Y-67783134D01*
X83066865Y-66542602D01*
X83075000Y-66501708D01*
X83075000Y-66398292D01*
X83054824Y-66296863D01*
X83015249Y-66201319D01*
X82957794Y-66115332D01*
X82884668Y-66042206D01*
X82798681Y-65984751D01*
X82703137Y-65945176D01*
X82601708Y-65925000D01*
X82498292Y-65925000D01*
X82396863Y-65945176D01*
X82301319Y-65984751D01*
X82215332Y-66042206D01*
X82142206Y-66115332D01*
X82100000Y-66178497D01*
X82057794Y-66115332D01*
X81984668Y-66042206D01*
X81898681Y-65984751D01*
X81803137Y-65945176D01*
X81701708Y-65925000D01*
X81598292Y-65925000D01*
X81496863Y-65945176D01*
X81401319Y-65984751D01*
X81315332Y-66042206D01*
X81242206Y-66115332D01*
X81184751Y-66201319D01*
X81145176Y-66296863D01*
X81125000Y-66398292D01*
X78300000Y-66398292D01*
X78300000Y-63514722D01*
X78301450Y-63499999D01*
X78300000Y-63485276D01*
X78300000Y-63485267D01*
X78298989Y-63475000D01*
X83750000Y-63475000D01*
X83793895Y-63470677D01*
X83836104Y-63457873D01*
X83875003Y-63437081D01*
X83909099Y-63409099D01*
X83937081Y-63375003D01*
X83957873Y-63336104D01*
X83970677Y-63293895D01*
X83975000Y-63250000D01*
X83975000Y-49099264D01*
X85100000Y-50224264D01*
G36*
X93734751Y-70951319D02*
G01*
X93695176Y-71046863D01*
X93675000Y-71148292D01*
X93675000Y-71251708D01*
X93695176Y-71353137D01*
X93734751Y-71448681D01*
X93792206Y-71534668D01*
X93865332Y-71607794D01*
X93928497Y-71650000D01*
X93865332Y-71692206D01*
X93800000Y-71757538D01*
X93734668Y-71692206D01*
X93648681Y-71634751D01*
X93553137Y-71595176D01*
X93451708Y-71575000D01*
X93348292Y-71575000D01*
X93246863Y-71595176D01*
X93151319Y-71634751D01*
X93065332Y-71692206D01*
X92992206Y-71765332D01*
X92934751Y-71851319D01*
X92895176Y-71946863D01*
X92875000Y-72048292D01*
X92875000Y-72151708D01*
X92895176Y-72253137D01*
X92934751Y-72348681D01*
X92992206Y-72434668D01*
X93065332Y-72507794D01*
X93151319Y-72565249D01*
X93246863Y-72604824D01*
X93348292Y-72625000D01*
X93451708Y-72625000D01*
X93492602Y-72616866D01*
X93500001Y-72624265D01*
X93500000Y-78785277D01*
X93498550Y-78800000D01*
X93500000Y-78814723D01*
X93500000Y-78814732D01*
X93504341Y-78858809D01*
X93521496Y-78915359D01*
X93521497Y-78915360D01*
X93549353Y-78967477D01*
X93558403Y-78978504D01*
X93586842Y-79013158D01*
X93598290Y-79022553D01*
X94083135Y-79507398D01*
X94075000Y-79548292D01*
X94075000Y-79651708D01*
X94095176Y-79753137D01*
X94102074Y-79769790D01*
X94084397Y-79762468D01*
X93896029Y-79725000D01*
X93703971Y-79725000D01*
X93515603Y-79762468D01*
X93353766Y-79829503D01*
X93272554Y-79748291D01*
X93272550Y-79748286D01*
X92100000Y-78575737D01*
X92100000Y-71264775D01*
X92134751Y-71348673D01*
X92192206Y-71434660D01*
X92265332Y-71507786D01*
X92351319Y-71565241D01*
X92446863Y-71604816D01*
X92548292Y-71624992D01*
X92651708Y-71624992D01*
X92753137Y-71604816D01*
X92848681Y-71565241D01*
X92934668Y-71507786D01*
X93007794Y-71434660D01*
X93065249Y-71348673D01*
X93104824Y-71253129D01*
X93125000Y-71151700D01*
X93125000Y-71048284D01*
X93116865Y-71007390D01*
X93224256Y-70900000D01*
X93769041Y-70900000D01*
X93734751Y-70951319D01*
G37*
X93734751Y-70951319D02*
X93695176Y-71046863D01*
X93675000Y-71148292D01*
X93675000Y-71251708D01*
X93695176Y-71353137D01*
X93734751Y-71448681D01*
X93792206Y-71534668D01*
X93865332Y-71607794D01*
X93928497Y-71650000D01*
X93865332Y-71692206D01*
X93800000Y-71757538D01*
X93734668Y-71692206D01*
X93648681Y-71634751D01*
X93553137Y-71595176D01*
X93451708Y-71575000D01*
X93348292Y-71575000D01*
X93246863Y-71595176D01*
X93151319Y-71634751D01*
X93065332Y-71692206D01*
X92992206Y-71765332D01*
X92934751Y-71851319D01*
X92895176Y-71946863D01*
X92875000Y-72048292D01*
X92875000Y-72151708D01*
X92895176Y-72253137D01*
X92934751Y-72348681D01*
X92992206Y-72434668D01*
X93065332Y-72507794D01*
X93151319Y-72565249D01*
X93246863Y-72604824D01*
X93348292Y-72625000D01*
X93451708Y-72625000D01*
X93492602Y-72616866D01*
X93500001Y-72624265D01*
X93500000Y-78785277D01*
X93498550Y-78800000D01*
X93500000Y-78814723D01*
X93500000Y-78814732D01*
X93504341Y-78858809D01*
X93521496Y-78915359D01*
X93521497Y-78915360D01*
X93549353Y-78967477D01*
X93558403Y-78978504D01*
X93586842Y-79013158D01*
X93598290Y-79022553D01*
X94083135Y-79507398D01*
X94075000Y-79548292D01*
X94075000Y-79651708D01*
X94095176Y-79753137D01*
X94102074Y-79769790D01*
X94084397Y-79762468D01*
X93896029Y-79725000D01*
X93703971Y-79725000D01*
X93515603Y-79762468D01*
X93353766Y-79829503D01*
X93272554Y-79748291D01*
X93272550Y-79748286D01*
X92100000Y-78575737D01*
X92100000Y-71264775D01*
X92134751Y-71348673D01*
X92192206Y-71434660D01*
X92265332Y-71507786D01*
X92351319Y-71565241D01*
X92446863Y-71604816D01*
X92548292Y-71624992D01*
X92651708Y-71624992D01*
X92753137Y-71604816D01*
X92848681Y-71565241D01*
X92934668Y-71507786D01*
X93007794Y-71434660D01*
X93065249Y-71348673D01*
X93104824Y-71253129D01*
X93125000Y-71151700D01*
X93125000Y-71048284D01*
X93116865Y-71007390D01*
X93224256Y-70900000D01*
X93769041Y-70900000D01*
X93734751Y-70951319D01*
%TO.N,HEATER-*%
G36*
X95474951Y-48774950D02*
G01*
X95238953Y-48774950D01*
X95229134Y-48775917D01*
X95225414Y-48775891D01*
X95222287Y-48776198D01*
X95105829Y-48788438D01*
X95085859Y-48792537D01*
X95065812Y-48796361D01*
X95062812Y-48797268D01*
X95062805Y-48797269D01*
X95062799Y-48797272D01*
X94950942Y-48831897D01*
X94932160Y-48839792D01*
X94913227Y-48847441D01*
X94910453Y-48848916D01*
X94807446Y-48904612D01*
X94790539Y-48916015D01*
X94773466Y-48927188D01*
X94771031Y-48929173D01*
X94680805Y-49003816D01*
X94666430Y-49018292D01*
X94651860Y-49032560D01*
X94649857Y-49034981D01*
X94575846Y-49125726D01*
X94564564Y-49142708D01*
X94553034Y-49159546D01*
X94551540Y-49162310D01*
X94496565Y-49265703D01*
X94488797Y-49284549D01*
X94480756Y-49303310D01*
X94479828Y-49306308D01*
X94479828Y-49306310D01*
X94479827Y-49306312D01*
X94445982Y-49418413D01*
X94442013Y-49438459D01*
X94437780Y-49458373D01*
X94437451Y-49461498D01*
X94426024Y-49578039D01*
X94426024Y-49587881D01*
X94424962Y-49597664D01*
X94424951Y-49600806D01*
X94424966Y-49604995D01*
X94425960Y-49614767D01*
X94425891Y-49624586D01*
X94426198Y-49627713D01*
X94438438Y-49744170D01*
X94442536Y-49764133D01*
X94446361Y-49784188D01*
X94447268Y-49787188D01*
X94447269Y-49787195D01*
X94447272Y-49787201D01*
X94481897Y-49899058D01*
X94489792Y-49917840D01*
X94497441Y-49936773D01*
X94498915Y-49939543D01*
X94498917Y-49939548D01*
X94498918Y-49939549D01*
X94554612Y-50042554D01*
X94566015Y-50059461D01*
X94577188Y-50076534D01*
X94579174Y-50078969D01*
X94653816Y-50169195D01*
X94668288Y-50183567D01*
X94682559Y-50198140D01*
X94684980Y-50200143D01*
X94775726Y-50274154D01*
X94792741Y-50285459D01*
X94809547Y-50296966D01*
X94812305Y-50298457D01*
X94812309Y-50298460D01*
X94812313Y-50298462D01*
X94915704Y-50353435D01*
X94934535Y-50361197D01*
X94953310Y-50369244D01*
X94956308Y-50370172D01*
X94956314Y-50370174D01*
X95068413Y-50404018D01*
X95088459Y-50407987D01*
X95108373Y-50412220D01*
X95111498Y-50412549D01*
X95228039Y-50423976D01*
X95228048Y-50423976D01*
X95238953Y-50425050D01*
X95474951Y-50425050D01*
X95474950Y-53911046D01*
X95475910Y-53920790D01*
X95475888Y-53923888D01*
X95476195Y-53927015D01*
X95486395Y-54024063D01*
X95490495Y-54044040D01*
X95494318Y-54064080D01*
X95495224Y-54067078D01*
X95495226Y-54067088D01*
X95495230Y-54067097D01*
X95524083Y-54160307D01*
X95531992Y-54179122D01*
X95539629Y-54198024D01*
X95541104Y-54200798D01*
X95587516Y-54286636D01*
X95598920Y-54303543D01*
X95610091Y-54320614D01*
X95612077Y-54323049D01*
X95674279Y-54398237D01*
X95688752Y-54412609D01*
X95703022Y-54427182D01*
X95705443Y-54429185D01*
X95781064Y-54490861D01*
X95798074Y-54502163D01*
X95814887Y-54513674D01*
X95817651Y-54515169D01*
X95903811Y-54560981D01*
X95922698Y-54568765D01*
X95941416Y-54576788D01*
X95944415Y-54577716D01*
X95944419Y-54577718D01*
X95944423Y-54577719D01*
X96037835Y-54605922D01*
X96057813Y-54609878D01*
X96077798Y-54614126D01*
X96080919Y-54614454D01*
X96080923Y-54614454D01*
X96178040Y-54623976D01*
X96187868Y-54623976D01*
X96197632Y-54625037D01*
X96200774Y-54625049D01*
X96204265Y-54625037D01*
X96214052Y-54624043D01*
X96223888Y-54624112D01*
X96227015Y-54623805D01*
X96324063Y-54613605D01*
X96344040Y-54609505D01*
X96364080Y-54605682D01*
X96367078Y-54604776D01*
X96367088Y-54604774D01*
X96367097Y-54604770D01*
X96460307Y-54575917D01*
X96479122Y-54568008D01*
X96498024Y-54560371D01*
X96500793Y-54558899D01*
X96500797Y-54558897D01*
X96500800Y-54558895D01*
X96586636Y-54512484D01*
X96603543Y-54501080D01*
X96620614Y-54489909D01*
X96623049Y-54487923D01*
X96698237Y-54425721D01*
X96712609Y-54411248D01*
X96727182Y-54396978D01*
X96729185Y-54394557D01*
X96790861Y-54318936D01*
X96802163Y-54301926D01*
X96813674Y-54285113D01*
X96815169Y-54282349D01*
X96860981Y-54196189D01*
X96868765Y-54177302D01*
X96876788Y-54158584D01*
X96877717Y-54155583D01*
X96886936Y-54125050D01*
X100813169Y-54125050D01*
X100824083Y-54160307D01*
X100831992Y-54179122D01*
X100839629Y-54198024D01*
X100841104Y-54200798D01*
X100887516Y-54286636D01*
X100898920Y-54303543D01*
X100910091Y-54320614D01*
X100912077Y-54323049D01*
X100974279Y-54398237D01*
X100988752Y-54412609D01*
X101003022Y-54427182D01*
X101005443Y-54429185D01*
X101081064Y-54490861D01*
X101098074Y-54502163D01*
X101114887Y-54513674D01*
X101117651Y-54515169D01*
X101203811Y-54560981D01*
X101222698Y-54568765D01*
X101241416Y-54576788D01*
X101244415Y-54577716D01*
X101244419Y-54577718D01*
X101244423Y-54577719D01*
X101337835Y-54605922D01*
X101357813Y-54609878D01*
X101377798Y-54614126D01*
X101380919Y-54614454D01*
X101380923Y-54614454D01*
X101478040Y-54623976D01*
X101487868Y-54623976D01*
X101497632Y-54625037D01*
X101500774Y-54625049D01*
X101504265Y-54625037D01*
X101514052Y-54624043D01*
X101523888Y-54624112D01*
X101527015Y-54623805D01*
X101624063Y-54613605D01*
X101644040Y-54609505D01*
X101664080Y-54605682D01*
X101667078Y-54604776D01*
X101667088Y-54604774D01*
X101667097Y-54604770D01*
X101760307Y-54575917D01*
X101779122Y-54568008D01*
X101798024Y-54560371D01*
X101800793Y-54558899D01*
X101800797Y-54558897D01*
X101800800Y-54558895D01*
X101886636Y-54512484D01*
X101903543Y-54501080D01*
X101920614Y-54489909D01*
X101923049Y-54487923D01*
X101998237Y-54425721D01*
X102012609Y-54411248D01*
X102027182Y-54396978D01*
X102029185Y-54394557D01*
X102090861Y-54318936D01*
X102102163Y-54301926D01*
X102113674Y-54285113D01*
X102115169Y-54282349D01*
X102160981Y-54196189D01*
X102168765Y-54177302D01*
X102176788Y-54158584D01*
X102177717Y-54155583D01*
X102205922Y-54062165D01*
X102209878Y-54042187D01*
X102214126Y-54022202D01*
X102214454Y-54019077D01*
X102223976Y-53921960D01*
X102223976Y-53921952D01*
X102225050Y-53911047D01*
X102225050Y-50425050D01*
X102461047Y-50425050D01*
X102470866Y-50424083D01*
X102474586Y-50424109D01*
X102477713Y-50423802D01*
X102594170Y-50411562D01*
X102614133Y-50407464D01*
X102634188Y-50403639D01*
X102637188Y-50402732D01*
X102637195Y-50402731D01*
X102637201Y-50402728D01*
X102749058Y-50368103D01*
X102767840Y-50360208D01*
X102786773Y-50352559D01*
X102789543Y-50351085D01*
X102789548Y-50351083D01*
X102789552Y-50351080D01*
X102892554Y-50295388D01*
X102909461Y-50283985D01*
X102926534Y-50272812D01*
X102928969Y-50270826D01*
X103019195Y-50196184D01*
X103033567Y-50181712D01*
X103048140Y-50167441D01*
X103050143Y-50165020D01*
X103124154Y-50074274D01*
X103135459Y-50057259D01*
X103146966Y-50040453D01*
X103148457Y-50037695D01*
X103148460Y-50037691D01*
X103148462Y-50037687D01*
X103203435Y-49934296D01*
X103211197Y-49915465D01*
X103219244Y-49896690D01*
X103220173Y-49893688D01*
X103254018Y-49781587D01*
X103257987Y-49761541D01*
X103262220Y-49741627D01*
X103262549Y-49738502D01*
X103273976Y-49621961D01*
X103273976Y-49612119D01*
X103275038Y-49602336D01*
X103275049Y-49599194D01*
X103275034Y-49595005D01*
X103274040Y-49585233D01*
X103274109Y-49575414D01*
X103273802Y-49572287D01*
X103261562Y-49455829D01*
X103257463Y-49435859D01*
X103253639Y-49415812D01*
X103252732Y-49412812D01*
X103252731Y-49412805D01*
X103252728Y-49412799D01*
X103218103Y-49300942D01*
X103210208Y-49282160D01*
X103202559Y-49263227D01*
X103201084Y-49260453D01*
X103145388Y-49157446D01*
X103133985Y-49140539D01*
X103122812Y-49123466D01*
X103120827Y-49121031D01*
X103046184Y-49030805D01*
X103031708Y-49016430D01*
X103017440Y-49001860D01*
X103015019Y-48999857D01*
X102924274Y-48925846D01*
X102907292Y-48914564D01*
X102890454Y-48903034D01*
X102887690Y-48901540D01*
X102784297Y-48846565D01*
X102765451Y-48838797D01*
X102746690Y-48830756D01*
X102743692Y-48829828D01*
X102743686Y-48829826D01*
X102631587Y-48795982D01*
X102611541Y-48792013D01*
X102591627Y-48787780D01*
X102588502Y-48787451D01*
X102471961Y-48776024D01*
X102471952Y-48776024D01*
X102461047Y-48774950D01*
X102225050Y-48774950D01*
X102225050Y-41725050D01*
X108690740Y-41725050D01*
X108696479Y-41729760D01*
X108744253Y-41755296D01*
X108796091Y-41771020D01*
X108836497Y-41775000D01*
X119725000Y-41775000D01*
X119725000Y-63925000D01*
X110037087Y-63925000D01*
X110116829Y-63858461D01*
X110206094Y-63747863D01*
X110267524Y-63632907D01*
X110245447Y-63525000D01*
X109775000Y-63525000D01*
X109775000Y-63545000D01*
X109425000Y-63545000D01*
X109425000Y-63525000D01*
X109405000Y-63525000D01*
X109405000Y-63175000D01*
X109425000Y-63175000D01*
X109425000Y-62255000D01*
X109775000Y-62255000D01*
X109775000Y-63175000D01*
X110245447Y-63175000D01*
X110267524Y-63067093D01*
X110206094Y-62952137D01*
X110116829Y-62841539D01*
X110007703Y-62750481D01*
X109942606Y-62715000D01*
X110007703Y-62679519D01*
X110116829Y-62588461D01*
X110206094Y-62477863D01*
X110267524Y-62362907D01*
X110245447Y-62255000D01*
X109775000Y-62255000D01*
X109425000Y-62255000D01*
X109405000Y-62255000D01*
X109405000Y-61905000D01*
X109425000Y-61905000D01*
X109425000Y-61885000D01*
X109775000Y-61885000D01*
X109775000Y-61905000D01*
X110245447Y-61905000D01*
X110267524Y-61797093D01*
X110206094Y-61682137D01*
X110116829Y-61571539D01*
X110007703Y-61480481D01*
X109949223Y-61448607D01*
X110062161Y-61373144D01*
X110163144Y-61272161D01*
X110242487Y-61153416D01*
X110297139Y-61021475D01*
X110325000Y-60881406D01*
X110325000Y-60738594D01*
X110297139Y-60598525D01*
X110242487Y-60466584D01*
X110163144Y-60347839D01*
X110062161Y-60246856D01*
X109949223Y-60171393D01*
X110007703Y-60139519D01*
X110116829Y-60048461D01*
X110206094Y-59937863D01*
X110267524Y-59822907D01*
X110245447Y-59715000D01*
X109775000Y-59715000D01*
X109775000Y-59735000D01*
X109425000Y-59735000D01*
X109425000Y-59715000D01*
X109405000Y-59715000D01*
X109405000Y-59365000D01*
X109425000Y-59365000D01*
X109425000Y-59345000D01*
X109775000Y-59345000D01*
X109775000Y-59365000D01*
X110245447Y-59365000D01*
X110267524Y-59257093D01*
X110206094Y-59142137D01*
X110116829Y-59031539D01*
X110007703Y-58940481D01*
X109949223Y-58908607D01*
X110062161Y-58833144D01*
X110163144Y-58732161D01*
X110242487Y-58613416D01*
X110297139Y-58481475D01*
X110325000Y-58341406D01*
X110325000Y-58198594D01*
X110297139Y-58058525D01*
X110242487Y-57926584D01*
X110163144Y-57807839D01*
X110062161Y-57706856D01*
X109943416Y-57627513D01*
X109811475Y-57572861D01*
X109671406Y-57545000D01*
X109528594Y-57545000D01*
X109388525Y-57572861D01*
X109256584Y-57627513D01*
X109137839Y-57706856D01*
X109036856Y-57807839D01*
X108965000Y-57915379D01*
X108893144Y-57807839D01*
X108792161Y-57706856D01*
X108673416Y-57627513D01*
X108541475Y-57572861D01*
X108401406Y-57545000D01*
X108258594Y-57545000D01*
X108118525Y-57572861D01*
X107986584Y-57627513D01*
X107867839Y-57706856D01*
X107766856Y-57807839D01*
X107687513Y-57926584D01*
X107632861Y-58058525D01*
X107605000Y-58198594D01*
X107605000Y-58341406D01*
X107632861Y-58481475D01*
X107687513Y-58613416D01*
X107766856Y-58732161D01*
X107867839Y-58833144D01*
X107975379Y-58905000D01*
X107867839Y-58976856D01*
X107766856Y-59077839D01*
X107687513Y-59196584D01*
X107632861Y-59328525D01*
X107605000Y-59468594D01*
X107605000Y-59611406D01*
X107632861Y-59751475D01*
X107687513Y-59883416D01*
X107766856Y-60002161D01*
X107867839Y-60103144D01*
X107975379Y-60175000D01*
X107867839Y-60246856D01*
X107766856Y-60347839D01*
X107687513Y-60466584D01*
X107632861Y-60598525D01*
X107605000Y-60738594D01*
X107605000Y-60881406D01*
X107632861Y-61021475D01*
X107687513Y-61153416D01*
X107766856Y-61272161D01*
X107867839Y-61373144D01*
X107975379Y-61445000D01*
X107867839Y-61516856D01*
X107766856Y-61617839D01*
X107687513Y-61736584D01*
X107632861Y-61868525D01*
X107605000Y-62008594D01*
X107605000Y-62151406D01*
X107632861Y-62291475D01*
X107687513Y-62423416D01*
X107766856Y-62542161D01*
X107867839Y-62643144D01*
X107975379Y-62715000D01*
X107867839Y-62786856D01*
X107766856Y-62887839D01*
X107687513Y-63006584D01*
X107632861Y-63138525D01*
X107605000Y-63278594D01*
X107605000Y-63421406D01*
X107632861Y-63561475D01*
X107656702Y-63619033D01*
X107350736Y-63925000D01*
X93895768Y-63925000D01*
X93904824Y-63903137D01*
X93925000Y-63801708D01*
X93925000Y-63698292D01*
X93904824Y-63596863D01*
X93865249Y-63501319D01*
X93807794Y-63415332D01*
X93734668Y-63342206D01*
X93648681Y-63284751D01*
X93553137Y-63245176D01*
X93451708Y-63225000D01*
X93348292Y-63225000D01*
X93246863Y-63245176D01*
X93151319Y-63284751D01*
X93065332Y-63342206D01*
X92992206Y-63415332D01*
X92969041Y-63450000D01*
X89374264Y-63450000D01*
X88900000Y-62975737D01*
X88900000Y-59930959D01*
X88934668Y-59907794D01*
X89007794Y-59834668D01*
X89065249Y-59748681D01*
X89104824Y-59653137D01*
X89125000Y-59551708D01*
X89125000Y-59448292D01*
X89104824Y-59346863D01*
X89065249Y-59251319D01*
X89007794Y-59165332D01*
X88934668Y-59092206D01*
X88848681Y-59034751D01*
X88753137Y-58995176D01*
X88651708Y-58975000D01*
X88548292Y-58975000D01*
X88446863Y-58995176D01*
X88351319Y-59034751D01*
X88265332Y-59092206D01*
X88192206Y-59165332D01*
X88134751Y-59251319D01*
X88095176Y-59346863D01*
X88075000Y-59448292D01*
X88075000Y-59551708D01*
X88095176Y-59653137D01*
X88134751Y-59748681D01*
X88192206Y-59834668D01*
X88265332Y-59907794D01*
X88300000Y-59930959D01*
X88300001Y-63085267D01*
X88298550Y-63100000D01*
X88304342Y-63158810D01*
X88321497Y-63215360D01*
X88349353Y-63267477D01*
X88368815Y-63291191D01*
X88386843Y-63313158D01*
X88398285Y-63322548D01*
X89000736Y-63925000D01*
X87513304Y-63925000D01*
X87549961Y-49665116D01*
X87551450Y-49650000D01*
X87548601Y-49621069D01*
X87545809Y-49591951D01*
X87545696Y-49591575D01*
X87545658Y-49591189D01*
X87537198Y-49563301D01*
X87528799Y-49535357D01*
X87528617Y-49535014D01*
X87528503Y-49534639D01*
X87514566Y-49508564D01*
X87501076Y-49483169D01*
X87500835Y-49482874D01*
X87500647Y-49482522D01*
X87481884Y-49459660D01*
X87463705Y-49437391D01*
X87451993Y-49427729D01*
X84900000Y-46875737D01*
X84900000Y-45514722D01*
X84901450Y-45499999D01*
X84900000Y-45485276D01*
X84900000Y-45485267D01*
X84895659Y-45441190D01*
X84878504Y-45384640D01*
X84850648Y-45332524D01*
X84850647Y-45332522D01*
X84822549Y-45298285D01*
X84813158Y-45286842D01*
X84801716Y-45277452D01*
X84516865Y-44992602D01*
X84525000Y-44951708D01*
X84525000Y-44848292D01*
X84504824Y-44746863D01*
X84465249Y-44651319D01*
X84407794Y-44565332D01*
X84334668Y-44492206D01*
X84248681Y-44434751D01*
X84153137Y-44395176D01*
X84051708Y-44375000D01*
X83948292Y-44375000D01*
X83846863Y-44395176D01*
X83751319Y-44434751D01*
X83665332Y-44492206D01*
X83600000Y-44557538D01*
X83534668Y-44492206D01*
X83448681Y-44434751D01*
X83353137Y-44395176D01*
X83251708Y-44375000D01*
X83148292Y-44375000D01*
X83046863Y-44395176D01*
X82951319Y-44434751D01*
X82865332Y-44492206D01*
X82792206Y-44565332D01*
X82734751Y-44651319D01*
X82695176Y-44746863D01*
X82675000Y-44848292D01*
X82675000Y-44951708D01*
X82683135Y-44992602D01*
X82398290Y-45277447D01*
X82386842Y-45286842D01*
X82369648Y-45307794D01*
X82349353Y-45332523D01*
X82334464Y-45360380D01*
X82321496Y-45384641D01*
X82304341Y-45441191D01*
X82300000Y-45485268D01*
X82300000Y-45485277D01*
X82298550Y-45500000D01*
X82300000Y-45514723D01*
X82300001Y-47285267D01*
X82298550Y-47300000D01*
X82304342Y-47358810D01*
X82321497Y-47415360D01*
X82349353Y-47467477D01*
X82377451Y-47501714D01*
X82386843Y-47513158D01*
X82398286Y-47522549D01*
X83675000Y-48799264D01*
X83675000Y-63175000D01*
X78099264Y-63175000D01*
X77622553Y-62698290D01*
X77613158Y-62686842D01*
X77567477Y-62649353D01*
X77515360Y-62621496D01*
X77458810Y-62604341D01*
X77414733Y-62600000D01*
X77414723Y-62600000D01*
X77400000Y-62598550D01*
X77385277Y-62600000D01*
X77121503Y-62600000D01*
X77184668Y-62557794D01*
X77257794Y-62484668D01*
X77315249Y-62398681D01*
X77354824Y-62303137D01*
X77375000Y-62201708D01*
X77375000Y-62098292D01*
X77354824Y-61996863D01*
X77315249Y-61901319D01*
X77257794Y-61815332D01*
X77184668Y-61742206D01*
X77098681Y-61684751D01*
X77003137Y-61645176D01*
X76901708Y-61625000D01*
X76798292Y-61625000D01*
X76757398Y-61633135D01*
X76750000Y-61625737D01*
X76750000Y-56048292D01*
X80275000Y-56048292D01*
X80275000Y-56074213D01*
X80275001Y-60648287D01*
X80275000Y-60648292D01*
X80275000Y-60751708D01*
X80280059Y-60777141D01*
X80282598Y-60802918D01*
X80290117Y-60827706D01*
X80295176Y-60853137D01*
X80305098Y-60877092D01*
X80312618Y-60901881D01*
X80324828Y-60924724D01*
X80334751Y-60948681D01*
X80349158Y-60970242D01*
X80361368Y-60993086D01*
X80377801Y-61013110D01*
X80392206Y-61034668D01*
X80410539Y-61053001D01*
X80426974Y-61073027D01*
X80447000Y-61089462D01*
X80465332Y-61107794D01*
X80486889Y-61122198D01*
X80506915Y-61138633D01*
X80529762Y-61150845D01*
X80551319Y-61165249D01*
X80575272Y-61175170D01*
X80598120Y-61187383D01*
X80622914Y-61194904D01*
X80646863Y-61204824D01*
X80672287Y-61209881D01*
X80697083Y-61217403D01*
X80722868Y-61219943D01*
X80748292Y-61225000D01*
X80774212Y-61225000D01*
X80800000Y-61227540D01*
X80825788Y-61225000D01*
X80851708Y-61225000D01*
X80877131Y-61219943D01*
X80902918Y-61217403D01*
X80927716Y-61209881D01*
X80953137Y-61204824D01*
X80977083Y-61194905D01*
X81001881Y-61187383D01*
X81024733Y-61175169D01*
X81048681Y-61165249D01*
X81070234Y-61150847D01*
X81093086Y-61138633D01*
X81113117Y-61122194D01*
X81134668Y-61107794D01*
X81152996Y-61089466D01*
X81173027Y-61073027D01*
X81189466Y-61052996D01*
X81207794Y-61034668D01*
X81222194Y-61013117D01*
X81238633Y-60993086D01*
X81250847Y-60970234D01*
X81265249Y-60948681D01*
X81275169Y-60924733D01*
X81287383Y-60901881D01*
X81294905Y-60877083D01*
X81304824Y-60853137D01*
X81309881Y-60827716D01*
X81317403Y-60802918D01*
X81319943Y-60777131D01*
X81325000Y-60751708D01*
X81325000Y-56048292D01*
X81319943Y-56022869D01*
X81317403Y-55997082D01*
X81309881Y-55972284D01*
X81304824Y-55946863D01*
X81294905Y-55922917D01*
X81287383Y-55898119D01*
X81275169Y-55875267D01*
X81265249Y-55851319D01*
X81250847Y-55829766D01*
X81238633Y-55806914D01*
X81222194Y-55786883D01*
X81207794Y-55765332D01*
X81189466Y-55747004D01*
X81173027Y-55726973D01*
X81152996Y-55710534D01*
X81134668Y-55692206D01*
X81113117Y-55677806D01*
X81093086Y-55661367D01*
X81070235Y-55649153D01*
X81048681Y-55634751D01*
X81024729Y-55624830D01*
X81001880Y-55612617D01*
X80977086Y-55605096D01*
X80953137Y-55595176D01*
X80927713Y-55590119D01*
X80902917Y-55582597D01*
X80877132Y-55580057D01*
X80851708Y-55575000D01*
X80825788Y-55575000D01*
X80800000Y-55572460D01*
X80774212Y-55575000D01*
X80748292Y-55575000D01*
X80722869Y-55580057D01*
X80697082Y-55582597D01*
X80672284Y-55590119D01*
X80646863Y-55595176D01*
X80622917Y-55605095D01*
X80598119Y-55612617D01*
X80575267Y-55624831D01*
X80551319Y-55634751D01*
X80529766Y-55649153D01*
X80506914Y-55661367D01*
X80486883Y-55677806D01*
X80465332Y-55692206D01*
X80447004Y-55710534D01*
X80426973Y-55726973D01*
X80410534Y-55747004D01*
X80392206Y-55765332D01*
X80377806Y-55786883D01*
X80361367Y-55806914D01*
X80349153Y-55829765D01*
X80334751Y-55851319D01*
X80324830Y-55875271D01*
X80312617Y-55898120D01*
X80305096Y-55922914D01*
X80295176Y-55946863D01*
X80290119Y-55972287D01*
X80282597Y-55997083D01*
X80280057Y-56022868D01*
X80275000Y-56048292D01*
X76750000Y-56048292D01*
X76750000Y-55264722D01*
X76751450Y-55249999D01*
X76750000Y-55235276D01*
X76750000Y-55235267D01*
X76745659Y-55191190D01*
X76728504Y-55134640D01*
X76700648Y-55082524D01*
X76700647Y-55082522D01*
X76672549Y-55048285D01*
X76663158Y-55036842D01*
X76651717Y-55027453D01*
X73550000Y-51925737D01*
X73550000Y-50625000D01*
X73651708Y-50625000D01*
X73753137Y-50604824D01*
X73848681Y-50565249D01*
X73934668Y-50507794D01*
X74007794Y-50434668D01*
X74065249Y-50348681D01*
X74104824Y-50253137D01*
X74125000Y-50151708D01*
X74125000Y-50048292D01*
X74104824Y-49946863D01*
X74065249Y-49851319D01*
X74007794Y-49765332D01*
X73934668Y-49692206D01*
X73848681Y-49634751D01*
X73753137Y-49595176D01*
X73651708Y-49575000D01*
X73548292Y-49575000D01*
X73446863Y-49595176D01*
X73351319Y-49634751D01*
X73265332Y-49692206D01*
X73192206Y-49765332D01*
X73134751Y-49851319D01*
X73095176Y-49946863D01*
X73075000Y-50048292D01*
X73075000Y-50151708D01*
X73083135Y-50192602D01*
X73048290Y-50227447D01*
X73036842Y-50236842D01*
X73018845Y-50258772D01*
X73000000Y-50281735D01*
X73000000Y-49930957D01*
X73034668Y-49907792D01*
X73107794Y-49834666D01*
X73165249Y-49748679D01*
X73204824Y-49653135D01*
X73225000Y-49551706D01*
X73225000Y-49448290D01*
X73204824Y-49346861D01*
X73165249Y-49251317D01*
X73107794Y-49165330D01*
X73034668Y-49092204D01*
X72948681Y-49034749D01*
X72853137Y-48995174D01*
X72751708Y-48974998D01*
X72648292Y-48974998D01*
X72546863Y-48995174D01*
X72451319Y-49034749D01*
X72365332Y-49092204D01*
X72292206Y-49165330D01*
X72269041Y-49199998D01*
X72030957Y-49199998D01*
X72007794Y-49165332D01*
X71934668Y-49092206D01*
X71848681Y-49034751D01*
X71753137Y-48995176D01*
X71651708Y-48975000D01*
X71548292Y-48975000D01*
X71446863Y-48995176D01*
X71351319Y-49034751D01*
X71265332Y-49092206D01*
X71192206Y-49165332D01*
X71134751Y-49251319D01*
X71095176Y-49346863D01*
X71075000Y-49448292D01*
X71075000Y-49551708D01*
X71079633Y-49575000D01*
X71048292Y-49575000D01*
X70946863Y-49595176D01*
X70851319Y-49634751D01*
X70765332Y-49692206D01*
X70692206Y-49765332D01*
X70634751Y-49851319D01*
X70595176Y-49946863D01*
X70575000Y-50048292D01*
X70575000Y-50151708D01*
X70595176Y-50253137D01*
X70634751Y-50348681D01*
X70692206Y-50434668D01*
X70765332Y-50507794D01*
X70851319Y-50565249D01*
X70946863Y-50604824D01*
X71048292Y-50625000D01*
X71151708Y-50625000D01*
X71192602Y-50616865D01*
X71350000Y-50774264D01*
X71350001Y-52835267D01*
X71348550Y-52850000D01*
X71354342Y-52908810D01*
X71371497Y-52965360D01*
X71399353Y-53017477D01*
X71427451Y-53051714D01*
X71436843Y-53063158D01*
X71448285Y-53072548D01*
X74350000Y-55974265D01*
X74350001Y-62435267D01*
X74348550Y-62450000D01*
X74354342Y-62508810D01*
X74371497Y-62565360D01*
X74399353Y-62617477D01*
X74427451Y-62651714D01*
X74436843Y-62663158D01*
X74448285Y-62672548D01*
X74950736Y-63175000D01*
X73550000Y-63175000D01*
X73550000Y-56764733D01*
X73551451Y-56750000D01*
X73545659Y-56691190D01*
X73528504Y-56634640D01*
X73500647Y-56582523D01*
X73463158Y-56536842D01*
X73417477Y-56499353D01*
X73365360Y-56471496D01*
X73308810Y-56454341D01*
X73264733Y-56450000D01*
X73250000Y-56448549D01*
X73235267Y-56450000D01*
X63764733Y-56450000D01*
X63750000Y-56448549D01*
X63735267Y-56450000D01*
X63691190Y-56454341D01*
X63634640Y-56471496D01*
X63582523Y-56499353D01*
X63536842Y-56536842D01*
X63499353Y-56582523D01*
X63471496Y-56634640D01*
X63454341Y-56691190D01*
X63448549Y-56750000D01*
X63450000Y-56764733D01*
X63450000Y-63175000D01*
X60275000Y-63175000D01*
X60275000Y-56051049D01*
X66196438Y-56051049D01*
X66294985Y-56174002D01*
X66483992Y-56245017D01*
X66683222Y-56277793D01*
X66885017Y-56271073D01*
X67081624Y-56225112D01*
X67205015Y-56174002D01*
X67303562Y-56051049D01*
X66750000Y-55497487D01*
X66196438Y-56051049D01*
X60275000Y-56051049D01*
X60275000Y-55183222D01*
X65722207Y-55183222D01*
X65728927Y-55385017D01*
X65774888Y-55581624D01*
X65825998Y-55705015D01*
X65948951Y-55803562D01*
X66502513Y-55250000D01*
X66997487Y-55250000D01*
X67551049Y-55803562D01*
X67674002Y-55705015D01*
X67745017Y-55516008D01*
X67777793Y-55316778D01*
X67771073Y-55114983D01*
X67725112Y-54918376D01*
X67674002Y-54794985D01*
X67551049Y-54696438D01*
X66997487Y-55250000D01*
X66502513Y-55250000D01*
X65948951Y-54696438D01*
X65825998Y-54794985D01*
X65754983Y-54983992D01*
X65722207Y-55183222D01*
X60275000Y-55183222D01*
X60275000Y-54448951D01*
X66196438Y-54448951D01*
X66750000Y-55002513D01*
X67302513Y-54450000D01*
X69223912Y-54450000D01*
X69223912Y-56050000D01*
X69228256Y-56094108D01*
X69241122Y-56136520D01*
X69262015Y-56175608D01*
X69290132Y-56209868D01*
X69324392Y-56237985D01*
X69363480Y-56258878D01*
X69405892Y-56271744D01*
X69450000Y-56276088D01*
X71050000Y-56276088D01*
X71094108Y-56271744D01*
X71136520Y-56258878D01*
X71175608Y-56237985D01*
X71209868Y-56209868D01*
X71237985Y-56175608D01*
X71258878Y-56136520D01*
X71271744Y-56094108D01*
X71276088Y-56050000D01*
X71276088Y-54450000D01*
X71271744Y-54405892D01*
X71258878Y-54363480D01*
X71237985Y-54324392D01*
X71209868Y-54290132D01*
X71175608Y-54262015D01*
X71136520Y-54241122D01*
X71094108Y-54228256D01*
X71050000Y-54223912D01*
X69450000Y-54223912D01*
X69405892Y-54228256D01*
X69363480Y-54241122D01*
X69324392Y-54262015D01*
X69290132Y-54290132D01*
X69262015Y-54324392D01*
X69241122Y-54363480D01*
X69228256Y-54405892D01*
X69223912Y-54450000D01*
X67302513Y-54450000D01*
X67303562Y-54448951D01*
X67205015Y-54325998D01*
X67016008Y-54254983D01*
X66816778Y-54222207D01*
X66614983Y-54228927D01*
X66418376Y-54274888D01*
X66294985Y-54325998D01*
X66196438Y-54448951D01*
X60275000Y-54448951D01*
X60275000Y-47525000D01*
X66275000Y-47525000D01*
X66275000Y-48300000D01*
X66323071Y-48438078D01*
X66397156Y-48564125D01*
X66494409Y-48673296D01*
X66611091Y-48761397D01*
X66717093Y-48792524D01*
X66825000Y-48770447D01*
X66825000Y-47525000D01*
X66275000Y-47525000D01*
X60275000Y-47525000D01*
X60275000Y-46400000D01*
X66275000Y-46400000D01*
X66275000Y-47175000D01*
X66825000Y-47175000D01*
X66825000Y-45929553D01*
X66717093Y-45907476D01*
X66611091Y-45938603D01*
X66494409Y-46026704D01*
X66397156Y-46135875D01*
X66323071Y-46261922D01*
X66275000Y-46400000D01*
X60275000Y-46400000D01*
X60275000Y-44295000D01*
X66275000Y-44295000D01*
X66275000Y-44995000D01*
X66323071Y-45133078D01*
X66397156Y-45259125D01*
X66494409Y-45368296D01*
X66611091Y-45456397D01*
X66717093Y-45487524D01*
X66825000Y-45465447D01*
X66825000Y-44295000D01*
X66275000Y-44295000D01*
X60275000Y-44295000D01*
X60275000Y-43245000D01*
X66275000Y-43245000D01*
X66275000Y-43945000D01*
X66825000Y-43945000D01*
X66825000Y-42774553D01*
X66717093Y-42752476D01*
X66611091Y-42783603D01*
X66494409Y-42871704D01*
X66397156Y-42980875D01*
X66323071Y-43106922D01*
X66275000Y-43245000D01*
X60275000Y-43245000D01*
X60275000Y-41775000D01*
X65324762Y-41775000D01*
X65344130Y-41780875D01*
X65386010Y-41785000D01*
X67440001Y-41785000D01*
X67440001Y-42822180D01*
X67388909Y-42783603D01*
X67282907Y-42752476D01*
X67175000Y-42774553D01*
X67175000Y-43945000D01*
X67195000Y-43945000D01*
X67195000Y-44295000D01*
X67175000Y-44295000D01*
X67175000Y-45465447D01*
X67282907Y-45487524D01*
X67388909Y-45456397D01*
X67440000Y-45417820D01*
X67440000Y-45977180D01*
X67388909Y-45938603D01*
X67282907Y-45907476D01*
X67175000Y-45929553D01*
X67175000Y-47175000D01*
X67195000Y-47175000D01*
X67195000Y-47525000D01*
X67175000Y-47525000D01*
X67175000Y-48770447D01*
X67282907Y-48792524D01*
X67388909Y-48761397D01*
X67505591Y-48673296D01*
X67602844Y-48564125D01*
X67676929Y-48438078D01*
X67725000Y-48300000D01*
X67725000Y-47506378D01*
X67738990Y-47505000D01*
X77061010Y-47505000D01*
X77075000Y-47506378D01*
X77075000Y-48300000D01*
X77123071Y-48438078D01*
X77197156Y-48564125D01*
X77294409Y-48673296D01*
X77411091Y-48761397D01*
X77517093Y-48792524D01*
X77625000Y-48770447D01*
X77625000Y-47525000D01*
X77975000Y-47525000D01*
X77975000Y-48770447D01*
X78082907Y-48792524D01*
X78188909Y-48761397D01*
X78305591Y-48673296D01*
X78402844Y-48564125D01*
X78476929Y-48438078D01*
X78525000Y-48300000D01*
X78525000Y-47525000D01*
X77975000Y-47525000D01*
X77625000Y-47525000D01*
X77605000Y-47525000D01*
X77605000Y-47175000D01*
X77625000Y-47175000D01*
X77625000Y-45929553D01*
X77975000Y-45929553D01*
X77975000Y-47175000D01*
X78525000Y-47175000D01*
X78525000Y-46400000D01*
X78476929Y-46261922D01*
X78402844Y-46135875D01*
X78305591Y-46026704D01*
X78188909Y-45938603D01*
X78082907Y-45907476D01*
X77975000Y-45929553D01*
X77625000Y-45929553D01*
X77517093Y-45907476D01*
X77411091Y-45938603D01*
X77360000Y-45977179D01*
X77360000Y-45417821D01*
X77411091Y-45456397D01*
X77517093Y-45487524D01*
X77625000Y-45465447D01*
X77625000Y-44295000D01*
X77975000Y-44295000D01*
X77975000Y-45465447D01*
X78082907Y-45487524D01*
X78188909Y-45456397D01*
X78305591Y-45368296D01*
X78402844Y-45259125D01*
X78476929Y-45133078D01*
X78525000Y-44995000D01*
X78525000Y-44295000D01*
X77975000Y-44295000D01*
X77625000Y-44295000D01*
X77605000Y-44295000D01*
X77605000Y-43945000D01*
X77625000Y-43945000D01*
X77625000Y-42774553D01*
X77975000Y-42774553D01*
X77975000Y-43945000D01*
X78525000Y-43945000D01*
X78525000Y-43245000D01*
X78476929Y-43106922D01*
X78402844Y-42980875D01*
X78305591Y-42871704D01*
X78188909Y-42783603D01*
X78082907Y-42752476D01*
X77975000Y-42774553D01*
X77625000Y-42774553D01*
X77517093Y-42752476D01*
X77411091Y-42783603D01*
X77360000Y-42822179D01*
X77360000Y-41785000D01*
X79413990Y-41785000D01*
X79455870Y-41780875D01*
X79475238Y-41775000D01*
X88863503Y-41775000D01*
X88903909Y-41771020D01*
X88955747Y-41755296D01*
X89003521Y-41729760D01*
X89009260Y-41725050D01*
X95474950Y-41725050D01*
X95474951Y-48774950D01*
G37*
X95474951Y-48774950D02*
X95238953Y-48774950D01*
X95229134Y-48775917D01*
X95225414Y-48775891D01*
X95222287Y-48776198D01*
X95105829Y-48788438D01*
X95085859Y-48792537D01*
X95065812Y-48796361D01*
X95062812Y-48797268D01*
X95062805Y-48797269D01*
X95062799Y-48797272D01*
X94950942Y-48831897D01*
X94932160Y-48839792D01*
X94913227Y-48847441D01*
X94910453Y-48848916D01*
X94807446Y-48904612D01*
X94790539Y-48916015D01*
X94773466Y-48927188D01*
X94771031Y-48929173D01*
X94680805Y-49003816D01*
X94666430Y-49018292D01*
X94651860Y-49032560D01*
X94649857Y-49034981D01*
X94575846Y-49125726D01*
X94564564Y-49142708D01*
X94553034Y-49159546D01*
X94551540Y-49162310D01*
X94496565Y-49265703D01*
X94488797Y-49284549D01*
X94480756Y-49303310D01*
X94479828Y-49306308D01*
X94479828Y-49306310D01*
X94479827Y-49306312D01*
X94445982Y-49418413D01*
X94442013Y-49438459D01*
X94437780Y-49458373D01*
X94437451Y-49461498D01*
X94426024Y-49578039D01*
X94426024Y-49587881D01*
X94424962Y-49597664D01*
X94424951Y-49600806D01*
X94424966Y-49604995D01*
X94425960Y-49614767D01*
X94425891Y-49624586D01*
X94426198Y-49627713D01*
X94438438Y-49744170D01*
X94442536Y-49764133D01*
X94446361Y-49784188D01*
X94447268Y-49787188D01*
X94447269Y-49787195D01*
X94447272Y-49787201D01*
X94481897Y-49899058D01*
X94489792Y-49917840D01*
X94497441Y-49936773D01*
X94498915Y-49939543D01*
X94498917Y-49939548D01*
X94498918Y-49939549D01*
X94554612Y-50042554D01*
X94566015Y-50059461D01*
X94577188Y-50076534D01*
X94579174Y-50078969D01*
X94653816Y-50169195D01*
X94668288Y-50183567D01*
X94682559Y-50198140D01*
X94684980Y-50200143D01*
X94775726Y-50274154D01*
X94792741Y-50285459D01*
X94809547Y-50296966D01*
X94812305Y-50298457D01*
X94812309Y-50298460D01*
X94812313Y-50298462D01*
X94915704Y-50353435D01*
X94934535Y-50361197D01*
X94953310Y-50369244D01*
X94956308Y-50370172D01*
X94956314Y-50370174D01*
X95068413Y-50404018D01*
X95088459Y-50407987D01*
X95108373Y-50412220D01*
X95111498Y-50412549D01*
X95228039Y-50423976D01*
X95228048Y-50423976D01*
X95238953Y-50425050D01*
X95474951Y-50425050D01*
X95474950Y-53911046D01*
X95475910Y-53920790D01*
X95475888Y-53923888D01*
X95476195Y-53927015D01*
X95486395Y-54024063D01*
X95490495Y-54044040D01*
X95494318Y-54064080D01*
X95495224Y-54067078D01*
X95495226Y-54067088D01*
X95495230Y-54067097D01*
X95524083Y-54160307D01*
X95531992Y-54179122D01*
X95539629Y-54198024D01*
X95541104Y-54200798D01*
X95587516Y-54286636D01*
X95598920Y-54303543D01*
X95610091Y-54320614D01*
X95612077Y-54323049D01*
X95674279Y-54398237D01*
X95688752Y-54412609D01*
X95703022Y-54427182D01*
X95705443Y-54429185D01*
X95781064Y-54490861D01*
X95798074Y-54502163D01*
X95814887Y-54513674D01*
X95817651Y-54515169D01*
X95903811Y-54560981D01*
X95922698Y-54568765D01*
X95941416Y-54576788D01*
X95944415Y-54577716D01*
X95944419Y-54577718D01*
X95944423Y-54577719D01*
X96037835Y-54605922D01*
X96057813Y-54609878D01*
X96077798Y-54614126D01*
X96080919Y-54614454D01*
X96080923Y-54614454D01*
X96178040Y-54623976D01*
X96187868Y-54623976D01*
X96197632Y-54625037D01*
X96200774Y-54625049D01*
X96204265Y-54625037D01*
X96214052Y-54624043D01*
X96223888Y-54624112D01*
X96227015Y-54623805D01*
X96324063Y-54613605D01*
X96344040Y-54609505D01*
X96364080Y-54605682D01*
X96367078Y-54604776D01*
X96367088Y-54604774D01*
X96367097Y-54604770D01*
X96460307Y-54575917D01*
X96479122Y-54568008D01*
X96498024Y-54560371D01*
X96500793Y-54558899D01*
X96500797Y-54558897D01*
X96500800Y-54558895D01*
X96586636Y-54512484D01*
X96603543Y-54501080D01*
X96620614Y-54489909D01*
X96623049Y-54487923D01*
X96698237Y-54425721D01*
X96712609Y-54411248D01*
X96727182Y-54396978D01*
X96729185Y-54394557D01*
X96790861Y-54318936D01*
X96802163Y-54301926D01*
X96813674Y-54285113D01*
X96815169Y-54282349D01*
X96860981Y-54196189D01*
X96868765Y-54177302D01*
X96876788Y-54158584D01*
X96877717Y-54155583D01*
X96886936Y-54125050D01*
X100813169Y-54125050D01*
X100824083Y-54160307D01*
X100831992Y-54179122D01*
X100839629Y-54198024D01*
X100841104Y-54200798D01*
X100887516Y-54286636D01*
X100898920Y-54303543D01*
X100910091Y-54320614D01*
X100912077Y-54323049D01*
X100974279Y-54398237D01*
X100988752Y-54412609D01*
X101003022Y-54427182D01*
X101005443Y-54429185D01*
X101081064Y-54490861D01*
X101098074Y-54502163D01*
X101114887Y-54513674D01*
X101117651Y-54515169D01*
X101203811Y-54560981D01*
X101222698Y-54568765D01*
X101241416Y-54576788D01*
X101244415Y-54577716D01*
X101244419Y-54577718D01*
X101244423Y-54577719D01*
X101337835Y-54605922D01*
X101357813Y-54609878D01*
X101377798Y-54614126D01*
X101380919Y-54614454D01*
X101380923Y-54614454D01*
X101478040Y-54623976D01*
X101487868Y-54623976D01*
X101497632Y-54625037D01*
X101500774Y-54625049D01*
X101504265Y-54625037D01*
X101514052Y-54624043D01*
X101523888Y-54624112D01*
X101527015Y-54623805D01*
X101624063Y-54613605D01*
X101644040Y-54609505D01*
X101664080Y-54605682D01*
X101667078Y-54604776D01*
X101667088Y-54604774D01*
X101667097Y-54604770D01*
X101760307Y-54575917D01*
X101779122Y-54568008D01*
X101798024Y-54560371D01*
X101800793Y-54558899D01*
X101800797Y-54558897D01*
X101800800Y-54558895D01*
X101886636Y-54512484D01*
X101903543Y-54501080D01*
X101920614Y-54489909D01*
X101923049Y-54487923D01*
X101998237Y-54425721D01*
X102012609Y-54411248D01*
X102027182Y-54396978D01*
X102029185Y-54394557D01*
X102090861Y-54318936D01*
X102102163Y-54301926D01*
X102113674Y-54285113D01*
X102115169Y-54282349D01*
X102160981Y-54196189D01*
X102168765Y-54177302D01*
X102176788Y-54158584D01*
X102177717Y-54155583D01*
X102205922Y-54062165D01*
X102209878Y-54042187D01*
X102214126Y-54022202D01*
X102214454Y-54019077D01*
X102223976Y-53921960D01*
X102223976Y-53921952D01*
X102225050Y-53911047D01*
X102225050Y-50425050D01*
X102461047Y-50425050D01*
X102470866Y-50424083D01*
X102474586Y-50424109D01*
X102477713Y-50423802D01*
X102594170Y-50411562D01*
X102614133Y-50407464D01*
X102634188Y-50403639D01*
X102637188Y-50402732D01*
X102637195Y-50402731D01*
X102637201Y-50402728D01*
X102749058Y-50368103D01*
X102767840Y-50360208D01*
X102786773Y-50352559D01*
X102789543Y-50351085D01*
X102789548Y-50351083D01*
X102789552Y-50351080D01*
X102892554Y-50295388D01*
X102909461Y-50283985D01*
X102926534Y-50272812D01*
X102928969Y-50270826D01*
X103019195Y-50196184D01*
X103033567Y-50181712D01*
X103048140Y-50167441D01*
X103050143Y-50165020D01*
X103124154Y-50074274D01*
X103135459Y-50057259D01*
X103146966Y-50040453D01*
X103148457Y-50037695D01*
X103148460Y-50037691D01*
X103148462Y-50037687D01*
X103203435Y-49934296D01*
X103211197Y-49915465D01*
X103219244Y-49896690D01*
X103220173Y-49893688D01*
X103254018Y-49781587D01*
X103257987Y-49761541D01*
X103262220Y-49741627D01*
X103262549Y-49738502D01*
X103273976Y-49621961D01*
X103273976Y-49612119D01*
X103275038Y-49602336D01*
X103275049Y-49599194D01*
X103275034Y-49595005D01*
X103274040Y-49585233D01*
X103274109Y-49575414D01*
X103273802Y-49572287D01*
X103261562Y-49455829D01*
X103257463Y-49435859D01*
X103253639Y-49415812D01*
X103252732Y-49412812D01*
X103252731Y-49412805D01*
X103252728Y-49412799D01*
X103218103Y-49300942D01*
X103210208Y-49282160D01*
X103202559Y-49263227D01*
X103201084Y-49260453D01*
X103145388Y-49157446D01*
X103133985Y-49140539D01*
X103122812Y-49123466D01*
X103120827Y-49121031D01*
X103046184Y-49030805D01*
X103031708Y-49016430D01*
X103017440Y-49001860D01*
X103015019Y-48999857D01*
X102924274Y-48925846D01*
X102907292Y-48914564D01*
X102890454Y-48903034D01*
X102887690Y-48901540D01*
X102784297Y-48846565D01*
X102765451Y-48838797D01*
X102746690Y-48830756D01*
X102743692Y-48829828D01*
X102743686Y-48829826D01*
X102631587Y-48795982D01*
X102611541Y-48792013D01*
X102591627Y-48787780D01*
X102588502Y-48787451D01*
X102471961Y-48776024D01*
X102471952Y-48776024D01*
X102461047Y-48774950D01*
X102225050Y-48774950D01*
X102225050Y-41725050D01*
X108690740Y-41725050D01*
X108696479Y-41729760D01*
X108744253Y-41755296D01*
X108796091Y-41771020D01*
X108836497Y-41775000D01*
X119725000Y-41775000D01*
X119725000Y-63925000D01*
X110037087Y-63925000D01*
X110116829Y-63858461D01*
X110206094Y-63747863D01*
X110267524Y-63632907D01*
X110245447Y-63525000D01*
X109775000Y-63525000D01*
X109775000Y-63545000D01*
X109425000Y-63545000D01*
X109425000Y-63525000D01*
X109405000Y-63525000D01*
X109405000Y-63175000D01*
X109425000Y-63175000D01*
X109425000Y-62255000D01*
X109775000Y-62255000D01*
X109775000Y-63175000D01*
X110245447Y-63175000D01*
X110267524Y-63067093D01*
X110206094Y-62952137D01*
X110116829Y-62841539D01*
X110007703Y-62750481D01*
X109942606Y-62715000D01*
X110007703Y-62679519D01*
X110116829Y-62588461D01*
X110206094Y-62477863D01*
X110267524Y-62362907D01*
X110245447Y-62255000D01*
X109775000Y-62255000D01*
X109425000Y-62255000D01*
X109405000Y-62255000D01*
X109405000Y-61905000D01*
X109425000Y-61905000D01*
X109425000Y-61885000D01*
X109775000Y-61885000D01*
X109775000Y-61905000D01*
X110245447Y-61905000D01*
X110267524Y-61797093D01*
X110206094Y-61682137D01*
X110116829Y-61571539D01*
X110007703Y-61480481D01*
X109949223Y-61448607D01*
X110062161Y-61373144D01*
X110163144Y-61272161D01*
X110242487Y-61153416D01*
X110297139Y-61021475D01*
X110325000Y-60881406D01*
X110325000Y-60738594D01*
X110297139Y-60598525D01*
X110242487Y-60466584D01*
X110163144Y-60347839D01*
X110062161Y-60246856D01*
X109949223Y-60171393D01*
X110007703Y-60139519D01*
X110116829Y-60048461D01*
X110206094Y-59937863D01*
X110267524Y-59822907D01*
X110245447Y-59715000D01*
X109775000Y-59715000D01*
X109775000Y-59735000D01*
X109425000Y-59735000D01*
X109425000Y-59715000D01*
X109405000Y-59715000D01*
X109405000Y-59365000D01*
X109425000Y-59365000D01*
X109425000Y-59345000D01*
X109775000Y-59345000D01*
X109775000Y-59365000D01*
X110245447Y-59365000D01*
X110267524Y-59257093D01*
X110206094Y-59142137D01*
X110116829Y-59031539D01*
X110007703Y-58940481D01*
X109949223Y-58908607D01*
X110062161Y-58833144D01*
X110163144Y-58732161D01*
X110242487Y-58613416D01*
X110297139Y-58481475D01*
X110325000Y-58341406D01*
X110325000Y-58198594D01*
X110297139Y-58058525D01*
X110242487Y-57926584D01*
X110163144Y-57807839D01*
X110062161Y-57706856D01*
X109943416Y-57627513D01*
X109811475Y-57572861D01*
X109671406Y-57545000D01*
X109528594Y-57545000D01*
X109388525Y-57572861D01*
X109256584Y-57627513D01*
X109137839Y-57706856D01*
X109036856Y-57807839D01*
X108965000Y-57915379D01*
X108893144Y-57807839D01*
X108792161Y-57706856D01*
X108673416Y-57627513D01*
X108541475Y-57572861D01*
X108401406Y-57545000D01*
X108258594Y-57545000D01*
X108118525Y-57572861D01*
X107986584Y-57627513D01*
X107867839Y-57706856D01*
X107766856Y-57807839D01*
X107687513Y-57926584D01*
X107632861Y-58058525D01*
X107605000Y-58198594D01*
X107605000Y-58341406D01*
X107632861Y-58481475D01*
X107687513Y-58613416D01*
X107766856Y-58732161D01*
X107867839Y-58833144D01*
X107975379Y-58905000D01*
X107867839Y-58976856D01*
X107766856Y-59077839D01*
X107687513Y-59196584D01*
X107632861Y-59328525D01*
X107605000Y-59468594D01*
X107605000Y-59611406D01*
X107632861Y-59751475D01*
X107687513Y-59883416D01*
X107766856Y-60002161D01*
X107867839Y-60103144D01*
X107975379Y-60175000D01*
X107867839Y-60246856D01*
X107766856Y-60347839D01*
X107687513Y-60466584D01*
X107632861Y-60598525D01*
X107605000Y-60738594D01*
X107605000Y-60881406D01*
X107632861Y-61021475D01*
X107687513Y-61153416D01*
X107766856Y-61272161D01*
X107867839Y-61373144D01*
X107975379Y-61445000D01*
X107867839Y-61516856D01*
X107766856Y-61617839D01*
X107687513Y-61736584D01*
X107632861Y-61868525D01*
X107605000Y-62008594D01*
X107605000Y-62151406D01*
X107632861Y-62291475D01*
X107687513Y-62423416D01*
X107766856Y-62542161D01*
X107867839Y-62643144D01*
X107975379Y-62715000D01*
X107867839Y-62786856D01*
X107766856Y-62887839D01*
X107687513Y-63006584D01*
X107632861Y-63138525D01*
X107605000Y-63278594D01*
X107605000Y-63421406D01*
X107632861Y-63561475D01*
X107656702Y-63619033D01*
X107350736Y-63925000D01*
X93895768Y-63925000D01*
X93904824Y-63903137D01*
X93925000Y-63801708D01*
X93925000Y-63698292D01*
X93904824Y-63596863D01*
X93865249Y-63501319D01*
X93807794Y-63415332D01*
X93734668Y-63342206D01*
X93648681Y-63284751D01*
X93553137Y-63245176D01*
X93451708Y-63225000D01*
X93348292Y-63225000D01*
X93246863Y-63245176D01*
X93151319Y-63284751D01*
X93065332Y-63342206D01*
X92992206Y-63415332D01*
X92969041Y-63450000D01*
X89374264Y-63450000D01*
X88900000Y-62975737D01*
X88900000Y-59930959D01*
X88934668Y-59907794D01*
X89007794Y-59834668D01*
X89065249Y-59748681D01*
X89104824Y-59653137D01*
X89125000Y-59551708D01*
X89125000Y-59448292D01*
X89104824Y-59346863D01*
X89065249Y-59251319D01*
X89007794Y-59165332D01*
X88934668Y-59092206D01*
X88848681Y-59034751D01*
X88753137Y-58995176D01*
X88651708Y-58975000D01*
X88548292Y-58975000D01*
X88446863Y-58995176D01*
X88351319Y-59034751D01*
X88265332Y-59092206D01*
X88192206Y-59165332D01*
X88134751Y-59251319D01*
X88095176Y-59346863D01*
X88075000Y-59448292D01*
X88075000Y-59551708D01*
X88095176Y-59653137D01*
X88134751Y-59748681D01*
X88192206Y-59834668D01*
X88265332Y-59907794D01*
X88300000Y-59930959D01*
X88300001Y-63085267D01*
X88298550Y-63100000D01*
X88304342Y-63158810D01*
X88321497Y-63215360D01*
X88349353Y-63267477D01*
X88368815Y-63291191D01*
X88386843Y-63313158D01*
X88398285Y-63322548D01*
X89000736Y-63925000D01*
X87513304Y-63925000D01*
X87549961Y-49665116D01*
X87551450Y-49650000D01*
X87548601Y-49621069D01*
X87545809Y-49591951D01*
X87545696Y-49591575D01*
X87545658Y-49591189D01*
X87537198Y-49563301D01*
X87528799Y-49535357D01*
X87528617Y-49535014D01*
X87528503Y-49534639D01*
X87514566Y-49508564D01*
X87501076Y-49483169D01*
X87500835Y-49482874D01*
X87500647Y-49482522D01*
X87481884Y-49459660D01*
X87463705Y-49437391D01*
X87451993Y-49427729D01*
X84900000Y-46875737D01*
X84900000Y-45514722D01*
X84901450Y-45499999D01*
X84900000Y-45485276D01*
X84900000Y-45485267D01*
X84895659Y-45441190D01*
X84878504Y-45384640D01*
X84850648Y-45332524D01*
X84850647Y-45332522D01*
X84822549Y-45298285D01*
X84813158Y-45286842D01*
X84801716Y-45277452D01*
X84516865Y-44992602D01*
X84525000Y-44951708D01*
X84525000Y-44848292D01*
X84504824Y-44746863D01*
X84465249Y-44651319D01*
X84407794Y-44565332D01*
X84334668Y-44492206D01*
X84248681Y-44434751D01*
X84153137Y-44395176D01*
X84051708Y-44375000D01*
X83948292Y-44375000D01*
X83846863Y-44395176D01*
X83751319Y-44434751D01*
X83665332Y-44492206D01*
X83600000Y-44557538D01*
X83534668Y-44492206D01*
X83448681Y-44434751D01*
X83353137Y-44395176D01*
X83251708Y-44375000D01*
X83148292Y-44375000D01*
X83046863Y-44395176D01*
X82951319Y-44434751D01*
X82865332Y-44492206D01*
X82792206Y-44565332D01*
X82734751Y-44651319D01*
X82695176Y-44746863D01*
X82675000Y-44848292D01*
X82675000Y-44951708D01*
X82683135Y-44992602D01*
X82398290Y-45277447D01*
X82386842Y-45286842D01*
X82369648Y-45307794D01*
X82349353Y-45332523D01*
X82334464Y-45360380D01*
X82321496Y-45384641D01*
X82304341Y-45441191D01*
X82300000Y-45485268D01*
X82300000Y-45485277D01*
X82298550Y-45500000D01*
X82300000Y-45514723D01*
X82300001Y-47285267D01*
X82298550Y-47300000D01*
X82304342Y-47358810D01*
X82321497Y-47415360D01*
X82349353Y-47467477D01*
X82377451Y-47501714D01*
X82386843Y-47513158D01*
X82398286Y-47522549D01*
X83675000Y-48799264D01*
X83675000Y-63175000D01*
X78099264Y-63175000D01*
X77622553Y-62698290D01*
X77613158Y-62686842D01*
X77567477Y-62649353D01*
X77515360Y-62621496D01*
X77458810Y-62604341D01*
X77414733Y-62600000D01*
X77414723Y-62600000D01*
X77400000Y-62598550D01*
X77385277Y-62600000D01*
X77121503Y-62600000D01*
X77184668Y-62557794D01*
X77257794Y-62484668D01*
X77315249Y-62398681D01*
X77354824Y-62303137D01*
X77375000Y-62201708D01*
X77375000Y-62098292D01*
X77354824Y-61996863D01*
X77315249Y-61901319D01*
X77257794Y-61815332D01*
X77184668Y-61742206D01*
X77098681Y-61684751D01*
X77003137Y-61645176D01*
X76901708Y-61625000D01*
X76798292Y-61625000D01*
X76757398Y-61633135D01*
X76750000Y-61625737D01*
X76750000Y-56048292D01*
X80275000Y-56048292D01*
X80275000Y-56074213D01*
X80275001Y-60648287D01*
X80275000Y-60648292D01*
X80275000Y-60751708D01*
X80280059Y-60777141D01*
X80282598Y-60802918D01*
X80290117Y-60827706D01*
X80295176Y-60853137D01*
X80305098Y-60877092D01*
X80312618Y-60901881D01*
X80324828Y-60924724D01*
X80334751Y-60948681D01*
X80349158Y-60970242D01*
X80361368Y-60993086D01*
X80377801Y-61013110D01*
X80392206Y-61034668D01*
X80410539Y-61053001D01*
X80426974Y-61073027D01*
X80447000Y-61089462D01*
X80465332Y-61107794D01*
X80486889Y-61122198D01*
X80506915Y-61138633D01*
X80529762Y-61150845D01*
X80551319Y-61165249D01*
X80575272Y-61175170D01*
X80598120Y-61187383D01*
X80622914Y-61194904D01*
X80646863Y-61204824D01*
X80672287Y-61209881D01*
X80697083Y-61217403D01*
X80722868Y-61219943D01*
X80748292Y-61225000D01*
X80774212Y-61225000D01*
X80800000Y-61227540D01*
X80825788Y-61225000D01*
X80851708Y-61225000D01*
X80877131Y-61219943D01*
X80902918Y-61217403D01*
X80927716Y-61209881D01*
X80953137Y-61204824D01*
X80977083Y-61194905D01*
X81001881Y-61187383D01*
X81024733Y-61175169D01*
X81048681Y-61165249D01*
X81070234Y-61150847D01*
X81093086Y-61138633D01*
X81113117Y-61122194D01*
X81134668Y-61107794D01*
X81152996Y-61089466D01*
X81173027Y-61073027D01*
X81189466Y-61052996D01*
X81207794Y-61034668D01*
X81222194Y-61013117D01*
X81238633Y-60993086D01*
X81250847Y-60970234D01*
X81265249Y-60948681D01*
X81275169Y-60924733D01*
X81287383Y-60901881D01*
X81294905Y-60877083D01*
X81304824Y-60853137D01*
X81309881Y-60827716D01*
X81317403Y-60802918D01*
X81319943Y-60777131D01*
X81325000Y-60751708D01*
X81325000Y-56048292D01*
X81319943Y-56022869D01*
X81317403Y-55997082D01*
X81309881Y-55972284D01*
X81304824Y-55946863D01*
X81294905Y-55922917D01*
X81287383Y-55898119D01*
X81275169Y-55875267D01*
X81265249Y-55851319D01*
X81250847Y-55829766D01*
X81238633Y-55806914D01*
X81222194Y-55786883D01*
X81207794Y-55765332D01*
X81189466Y-55747004D01*
X81173027Y-55726973D01*
X81152996Y-55710534D01*
X81134668Y-55692206D01*
X81113117Y-55677806D01*
X81093086Y-55661367D01*
X81070235Y-55649153D01*
X81048681Y-55634751D01*
X81024729Y-55624830D01*
X81001880Y-55612617D01*
X80977086Y-55605096D01*
X80953137Y-55595176D01*
X80927713Y-55590119D01*
X80902917Y-55582597D01*
X80877132Y-55580057D01*
X80851708Y-55575000D01*
X80825788Y-55575000D01*
X80800000Y-55572460D01*
X80774212Y-55575000D01*
X80748292Y-55575000D01*
X80722869Y-55580057D01*
X80697082Y-55582597D01*
X80672284Y-55590119D01*
X80646863Y-55595176D01*
X80622917Y-55605095D01*
X80598119Y-55612617D01*
X80575267Y-55624831D01*
X80551319Y-55634751D01*
X80529766Y-55649153D01*
X80506914Y-55661367D01*
X80486883Y-55677806D01*
X80465332Y-55692206D01*
X80447004Y-55710534D01*
X80426973Y-55726973D01*
X80410534Y-55747004D01*
X80392206Y-55765332D01*
X80377806Y-55786883D01*
X80361367Y-55806914D01*
X80349153Y-55829765D01*
X80334751Y-55851319D01*
X80324830Y-55875271D01*
X80312617Y-55898120D01*
X80305096Y-55922914D01*
X80295176Y-55946863D01*
X80290119Y-55972287D01*
X80282597Y-55997083D01*
X80280057Y-56022868D01*
X80275000Y-56048292D01*
X76750000Y-56048292D01*
X76750000Y-55264722D01*
X76751450Y-55249999D01*
X76750000Y-55235276D01*
X76750000Y-55235267D01*
X76745659Y-55191190D01*
X76728504Y-55134640D01*
X76700648Y-55082524D01*
X76700647Y-55082522D01*
X76672549Y-55048285D01*
X76663158Y-55036842D01*
X76651717Y-55027453D01*
X73550000Y-51925737D01*
X73550000Y-50625000D01*
X73651708Y-50625000D01*
X73753137Y-50604824D01*
X73848681Y-50565249D01*
X73934668Y-50507794D01*
X74007794Y-50434668D01*
X74065249Y-50348681D01*
X74104824Y-50253137D01*
X74125000Y-50151708D01*
X74125000Y-50048292D01*
X74104824Y-49946863D01*
X74065249Y-49851319D01*
X74007794Y-49765332D01*
X73934668Y-49692206D01*
X73848681Y-49634751D01*
X73753137Y-49595176D01*
X73651708Y-49575000D01*
X73548292Y-49575000D01*
X73446863Y-49595176D01*
X73351319Y-49634751D01*
X73265332Y-49692206D01*
X73192206Y-49765332D01*
X73134751Y-49851319D01*
X73095176Y-49946863D01*
X73075000Y-50048292D01*
X73075000Y-50151708D01*
X73083135Y-50192602D01*
X73048290Y-50227447D01*
X73036842Y-50236842D01*
X73018845Y-50258772D01*
X73000000Y-50281735D01*
X73000000Y-49930957D01*
X73034668Y-49907792D01*
X73107794Y-49834666D01*
X73165249Y-49748679D01*
X73204824Y-49653135D01*
X73225000Y-49551706D01*
X73225000Y-49448290D01*
X73204824Y-49346861D01*
X73165249Y-49251317D01*
X73107794Y-49165330D01*
X73034668Y-49092204D01*
X72948681Y-49034749D01*
X72853137Y-48995174D01*
X72751708Y-48974998D01*
X72648292Y-48974998D01*
X72546863Y-48995174D01*
X72451319Y-49034749D01*
X72365332Y-49092204D01*
X72292206Y-49165330D01*
X72269041Y-49199998D01*
X72030957Y-49199998D01*
X72007794Y-49165332D01*
X71934668Y-49092206D01*
X71848681Y-49034751D01*
X71753137Y-48995176D01*
X71651708Y-48975000D01*
X71548292Y-48975000D01*
X71446863Y-48995176D01*
X71351319Y-49034751D01*
X71265332Y-49092206D01*
X71192206Y-49165332D01*
X71134751Y-49251319D01*
X71095176Y-49346863D01*
X71075000Y-49448292D01*
X71075000Y-49551708D01*
X71079633Y-49575000D01*
X71048292Y-49575000D01*
X70946863Y-49595176D01*
X70851319Y-49634751D01*
X70765332Y-49692206D01*
X70692206Y-49765332D01*
X70634751Y-49851319D01*
X70595176Y-49946863D01*
X70575000Y-50048292D01*
X70575000Y-50151708D01*
X70595176Y-50253137D01*
X70634751Y-50348681D01*
X70692206Y-50434668D01*
X70765332Y-50507794D01*
X70851319Y-50565249D01*
X70946863Y-50604824D01*
X71048292Y-50625000D01*
X71151708Y-50625000D01*
X71192602Y-50616865D01*
X71350000Y-50774264D01*
X71350001Y-52835267D01*
X71348550Y-52850000D01*
X71354342Y-52908810D01*
X71371497Y-52965360D01*
X71399353Y-53017477D01*
X71427451Y-53051714D01*
X71436843Y-53063158D01*
X71448285Y-53072548D01*
X74350000Y-55974265D01*
X74350001Y-62435267D01*
X74348550Y-62450000D01*
X74354342Y-62508810D01*
X74371497Y-62565360D01*
X74399353Y-62617477D01*
X74427451Y-62651714D01*
X74436843Y-62663158D01*
X74448285Y-62672548D01*
X74950736Y-63175000D01*
X73550000Y-63175000D01*
X73550000Y-56764733D01*
X73551451Y-56750000D01*
X73545659Y-56691190D01*
X73528504Y-56634640D01*
X73500647Y-56582523D01*
X73463158Y-56536842D01*
X73417477Y-56499353D01*
X73365360Y-56471496D01*
X73308810Y-56454341D01*
X73264733Y-56450000D01*
X73250000Y-56448549D01*
X73235267Y-56450000D01*
X63764733Y-56450000D01*
X63750000Y-56448549D01*
X63735267Y-56450000D01*
X63691190Y-56454341D01*
X63634640Y-56471496D01*
X63582523Y-56499353D01*
X63536842Y-56536842D01*
X63499353Y-56582523D01*
X63471496Y-56634640D01*
X63454341Y-56691190D01*
X63448549Y-56750000D01*
X63450000Y-56764733D01*
X63450000Y-63175000D01*
X60275000Y-63175000D01*
X60275000Y-56051049D01*
X66196438Y-56051049D01*
X66294985Y-56174002D01*
X66483992Y-56245017D01*
X66683222Y-56277793D01*
X66885017Y-56271073D01*
X67081624Y-56225112D01*
X67205015Y-56174002D01*
X67303562Y-56051049D01*
X66750000Y-55497487D01*
X66196438Y-56051049D01*
X60275000Y-56051049D01*
X60275000Y-55183222D01*
X65722207Y-55183222D01*
X65728927Y-55385017D01*
X65774888Y-55581624D01*
X65825998Y-55705015D01*
X65948951Y-55803562D01*
X66502513Y-55250000D01*
X66997487Y-55250000D01*
X67551049Y-55803562D01*
X67674002Y-55705015D01*
X67745017Y-55516008D01*
X67777793Y-55316778D01*
X67771073Y-55114983D01*
X67725112Y-54918376D01*
X67674002Y-54794985D01*
X67551049Y-54696438D01*
X66997487Y-55250000D01*
X66502513Y-55250000D01*
X65948951Y-54696438D01*
X65825998Y-54794985D01*
X65754983Y-54983992D01*
X65722207Y-55183222D01*
X60275000Y-55183222D01*
X60275000Y-54448951D01*
X66196438Y-54448951D01*
X66750000Y-55002513D01*
X67302513Y-54450000D01*
X69223912Y-54450000D01*
X69223912Y-56050000D01*
X69228256Y-56094108D01*
X69241122Y-56136520D01*
X69262015Y-56175608D01*
X69290132Y-56209868D01*
X69324392Y-56237985D01*
X69363480Y-56258878D01*
X69405892Y-56271744D01*
X69450000Y-56276088D01*
X71050000Y-56276088D01*
X71094108Y-56271744D01*
X71136520Y-56258878D01*
X71175608Y-56237985D01*
X71209868Y-56209868D01*
X71237985Y-56175608D01*
X71258878Y-56136520D01*
X71271744Y-56094108D01*
X71276088Y-56050000D01*
X71276088Y-54450000D01*
X71271744Y-54405892D01*
X71258878Y-54363480D01*
X71237985Y-54324392D01*
X71209868Y-54290132D01*
X71175608Y-54262015D01*
X71136520Y-54241122D01*
X71094108Y-54228256D01*
X71050000Y-54223912D01*
X69450000Y-54223912D01*
X69405892Y-54228256D01*
X69363480Y-54241122D01*
X69324392Y-54262015D01*
X69290132Y-54290132D01*
X69262015Y-54324392D01*
X69241122Y-54363480D01*
X69228256Y-54405892D01*
X69223912Y-54450000D01*
X67302513Y-54450000D01*
X67303562Y-54448951D01*
X67205015Y-54325998D01*
X67016008Y-54254983D01*
X66816778Y-54222207D01*
X66614983Y-54228927D01*
X66418376Y-54274888D01*
X66294985Y-54325998D01*
X66196438Y-54448951D01*
X60275000Y-54448951D01*
X60275000Y-47525000D01*
X66275000Y-47525000D01*
X66275000Y-48300000D01*
X66323071Y-48438078D01*
X66397156Y-48564125D01*
X66494409Y-48673296D01*
X66611091Y-48761397D01*
X66717093Y-48792524D01*
X66825000Y-48770447D01*
X66825000Y-47525000D01*
X66275000Y-47525000D01*
X60275000Y-47525000D01*
X60275000Y-46400000D01*
X66275000Y-46400000D01*
X66275000Y-47175000D01*
X66825000Y-47175000D01*
X66825000Y-45929553D01*
X66717093Y-45907476D01*
X66611091Y-45938603D01*
X66494409Y-46026704D01*
X66397156Y-46135875D01*
X66323071Y-46261922D01*
X66275000Y-46400000D01*
X60275000Y-46400000D01*
X60275000Y-44295000D01*
X66275000Y-44295000D01*
X66275000Y-44995000D01*
X66323071Y-45133078D01*
X66397156Y-45259125D01*
X66494409Y-45368296D01*
X66611091Y-45456397D01*
X66717093Y-45487524D01*
X66825000Y-45465447D01*
X66825000Y-44295000D01*
X66275000Y-44295000D01*
X60275000Y-44295000D01*
X60275000Y-43245000D01*
X66275000Y-43245000D01*
X66275000Y-43945000D01*
X66825000Y-43945000D01*
X66825000Y-42774553D01*
X66717093Y-42752476D01*
X66611091Y-42783603D01*
X66494409Y-42871704D01*
X66397156Y-42980875D01*
X66323071Y-43106922D01*
X66275000Y-43245000D01*
X60275000Y-43245000D01*
X60275000Y-41775000D01*
X65324762Y-41775000D01*
X65344130Y-41780875D01*
X65386010Y-41785000D01*
X67440001Y-41785000D01*
X67440001Y-42822180D01*
X67388909Y-42783603D01*
X67282907Y-42752476D01*
X67175000Y-42774553D01*
X67175000Y-43945000D01*
X67195000Y-43945000D01*
X67195000Y-44295000D01*
X67175000Y-44295000D01*
X67175000Y-45465447D01*
X67282907Y-45487524D01*
X67388909Y-45456397D01*
X67440000Y-45417820D01*
X67440000Y-45977180D01*
X67388909Y-45938603D01*
X67282907Y-45907476D01*
X67175000Y-45929553D01*
X67175000Y-47175000D01*
X67195000Y-47175000D01*
X67195000Y-47525000D01*
X67175000Y-47525000D01*
X67175000Y-48770447D01*
X67282907Y-48792524D01*
X67388909Y-48761397D01*
X67505591Y-48673296D01*
X67602844Y-48564125D01*
X67676929Y-48438078D01*
X67725000Y-48300000D01*
X67725000Y-47506378D01*
X67738990Y-47505000D01*
X77061010Y-47505000D01*
X77075000Y-47506378D01*
X77075000Y-48300000D01*
X77123071Y-48438078D01*
X77197156Y-48564125D01*
X77294409Y-48673296D01*
X77411091Y-48761397D01*
X77517093Y-48792524D01*
X77625000Y-48770447D01*
X77625000Y-47525000D01*
X77975000Y-47525000D01*
X77975000Y-48770447D01*
X78082907Y-48792524D01*
X78188909Y-48761397D01*
X78305591Y-48673296D01*
X78402844Y-48564125D01*
X78476929Y-48438078D01*
X78525000Y-48300000D01*
X78525000Y-47525000D01*
X77975000Y-47525000D01*
X77625000Y-47525000D01*
X77605000Y-47525000D01*
X77605000Y-47175000D01*
X77625000Y-47175000D01*
X77625000Y-45929553D01*
X77975000Y-45929553D01*
X77975000Y-47175000D01*
X78525000Y-47175000D01*
X78525000Y-46400000D01*
X78476929Y-46261922D01*
X78402844Y-46135875D01*
X78305591Y-46026704D01*
X78188909Y-45938603D01*
X78082907Y-45907476D01*
X77975000Y-45929553D01*
X77625000Y-45929553D01*
X77517093Y-45907476D01*
X77411091Y-45938603D01*
X77360000Y-45977179D01*
X77360000Y-45417821D01*
X77411091Y-45456397D01*
X77517093Y-45487524D01*
X77625000Y-45465447D01*
X77625000Y-44295000D01*
X77975000Y-44295000D01*
X77975000Y-45465447D01*
X78082907Y-45487524D01*
X78188909Y-45456397D01*
X78305591Y-45368296D01*
X78402844Y-45259125D01*
X78476929Y-45133078D01*
X78525000Y-44995000D01*
X78525000Y-44295000D01*
X77975000Y-44295000D01*
X77625000Y-44295000D01*
X77605000Y-44295000D01*
X77605000Y-43945000D01*
X77625000Y-43945000D01*
X77625000Y-42774553D01*
X77975000Y-42774553D01*
X77975000Y-43945000D01*
X78525000Y-43945000D01*
X78525000Y-43245000D01*
X78476929Y-43106922D01*
X78402844Y-42980875D01*
X78305591Y-42871704D01*
X78188909Y-42783603D01*
X78082907Y-42752476D01*
X77975000Y-42774553D01*
X77625000Y-42774553D01*
X77517093Y-42752476D01*
X77411091Y-42783603D01*
X77360000Y-42822179D01*
X77360000Y-41785000D01*
X79413990Y-41785000D01*
X79455870Y-41780875D01*
X79475238Y-41775000D01*
X88863503Y-41775000D01*
X88903909Y-41771020D01*
X88955747Y-41755296D01*
X89003521Y-41729760D01*
X89009260Y-41725050D01*
X95474950Y-41725050D01*
X95474951Y-48774950D01*
%TD*%
M02*
