%TF.GenerationSoftware,KiCad,Pcbnew,(5.1.5)-3*%
%TF.CreationDate,2020-04-21T20:59:25+02:00*%
%TF.ProjectId,loeti,6c6f6574-692e-46b6-9963-61645f706362,rev?*%
%TF.SameCoordinates,Original*%
%TF.FileFunction,Soldermask,Bot*%
%TF.FilePolarity,Negative*%
%FSLAX46Y46*%
G04 Gerber Fmt 4.6, Leading zero omitted, Abs format (unit mm)*
G04 Created by KiCad (PCBNEW (5.1.5)-3) date 2020-04-21 20:59:25*
%MOMM*%
%LPD*%
G04 APERTURE LIST*
%ADD10O,1.000000X1.000000*%
%ADD11R,1.000000X1.000000*%
%ADD12C,1.500000*%
%ADD13R,1.500000X1.500000*%
%ADD14C,0.100000*%
%ADD15R,1.600000X1.600000*%
%ADD16C,1.600000*%
%ADD17R,2.000000X2.000000*%
%ADD18R,4.000000X4.000000*%
%ADD19O,1.000000X2.400000*%
%ADD20O,1.000000X2.550000*%
G04 APERTURE END LIST*
D10*
%TO.C,J2*%
X108330000Y-58270000D03*
X109600000Y-58270000D03*
X108330000Y-59540000D03*
X109600000Y-59540000D03*
X108330000Y-60810000D03*
X109600000Y-60810000D03*
X108330000Y-62080000D03*
X109600000Y-62080000D03*
X108330000Y-63350000D03*
X109600000Y-63350000D03*
X108330000Y-64620000D03*
X109600000Y-64620000D03*
X108330000Y-65890000D03*
D11*
X109600000Y-65890000D03*
%TD*%
D12*
%TO.C,U4*%
X98880000Y-106100000D03*
X81100000Y-106100000D03*
X78560000Y-106100000D03*
X78560000Y-80700000D03*
X81100000Y-80700000D03*
X83640000Y-80700000D03*
X86180000Y-80700000D03*
X88720000Y-80700000D03*
X91260000Y-80700000D03*
X93800000Y-80700000D03*
X96340000Y-80700000D03*
X98880000Y-80700000D03*
X101420000Y-80700000D03*
D13*
X101420000Y-106100000D03*
%TD*%
D14*
%TO.C,SW2*%
G36*
X93549009Y-117002408D02*
G01*
X93597545Y-117009607D01*
X93645142Y-117021530D01*
X93691342Y-117038060D01*
X93735698Y-117059039D01*
X93777785Y-117084265D01*
X93817197Y-117113495D01*
X93853553Y-117146447D01*
X93886505Y-117182803D01*
X93915735Y-117222215D01*
X93940961Y-117264302D01*
X93961940Y-117308658D01*
X93978470Y-117354858D01*
X93990393Y-117402455D01*
X93997592Y-117450991D01*
X94000000Y-117500000D01*
X94000000Y-118500000D01*
X93997592Y-118549009D01*
X93990393Y-118597545D01*
X93978470Y-118645142D01*
X93961940Y-118691342D01*
X93940961Y-118735698D01*
X93915735Y-118777785D01*
X93886505Y-118817197D01*
X93853553Y-118853553D01*
X93817197Y-118886505D01*
X93777785Y-118915735D01*
X93735698Y-118940961D01*
X93691342Y-118961940D01*
X93645142Y-118978470D01*
X93597545Y-118990393D01*
X93549009Y-118997592D01*
X93500000Y-119000000D01*
X91500000Y-119000000D01*
X91450991Y-118997592D01*
X91402455Y-118990393D01*
X91354858Y-118978470D01*
X91308658Y-118961940D01*
X91264302Y-118940961D01*
X91222215Y-118915735D01*
X91182803Y-118886505D01*
X91146447Y-118853553D01*
X91113495Y-118817197D01*
X91084265Y-118777785D01*
X91059039Y-118735698D01*
X91038060Y-118691342D01*
X91021530Y-118645142D01*
X91009607Y-118597545D01*
X91002408Y-118549009D01*
X91000000Y-118500000D01*
X91000000Y-117500000D01*
X91002408Y-117450991D01*
X91009607Y-117402455D01*
X91021530Y-117354858D01*
X91038060Y-117308658D01*
X91059039Y-117264302D01*
X91084265Y-117222215D01*
X91113495Y-117182803D01*
X91146447Y-117146447D01*
X91182803Y-117113495D01*
X91222215Y-117084265D01*
X91264302Y-117059039D01*
X91308658Y-117038060D01*
X91354858Y-117021530D01*
X91402455Y-117009607D01*
X91450991Y-117002408D01*
X91500000Y-117000000D01*
X93500000Y-117000000D01*
X93549009Y-117002408D01*
G37*
G36*
X100549009Y-117002408D02*
G01*
X100597545Y-117009607D01*
X100645142Y-117021530D01*
X100691342Y-117038060D01*
X100735698Y-117059039D01*
X100777785Y-117084265D01*
X100817197Y-117113495D01*
X100853553Y-117146447D01*
X100886505Y-117182803D01*
X100915735Y-117222215D01*
X100940961Y-117264302D01*
X100961940Y-117308658D01*
X100978470Y-117354858D01*
X100990393Y-117402455D01*
X100997592Y-117450991D01*
X101000000Y-117500000D01*
X101000000Y-118500000D01*
X100997592Y-118549009D01*
X100990393Y-118597545D01*
X100978470Y-118645142D01*
X100961940Y-118691342D01*
X100940961Y-118735698D01*
X100915735Y-118777785D01*
X100886505Y-118817197D01*
X100853553Y-118853553D01*
X100817197Y-118886505D01*
X100777785Y-118915735D01*
X100735698Y-118940961D01*
X100691342Y-118961940D01*
X100645142Y-118978470D01*
X100597545Y-118990393D01*
X100549009Y-118997592D01*
X100500000Y-119000000D01*
X98500000Y-119000000D01*
X98450991Y-118997592D01*
X98402455Y-118990393D01*
X98354858Y-118978470D01*
X98308658Y-118961940D01*
X98264302Y-118940961D01*
X98222215Y-118915735D01*
X98182803Y-118886505D01*
X98146447Y-118853553D01*
X98113495Y-118817197D01*
X98084265Y-118777785D01*
X98059039Y-118735698D01*
X98038060Y-118691342D01*
X98021530Y-118645142D01*
X98009607Y-118597545D01*
X98002408Y-118549009D01*
X98000000Y-118500000D01*
X98000000Y-117500000D01*
X98002408Y-117450991D01*
X98009607Y-117402455D01*
X98021530Y-117354858D01*
X98038060Y-117308658D01*
X98059039Y-117264302D01*
X98084265Y-117222215D01*
X98113495Y-117182803D01*
X98146447Y-117146447D01*
X98182803Y-117113495D01*
X98222215Y-117084265D01*
X98264302Y-117059039D01*
X98308658Y-117038060D01*
X98354858Y-117021530D01*
X98402455Y-117009607D01*
X98450991Y-117002408D01*
X98500000Y-117000000D01*
X100500000Y-117000000D01*
X100549009Y-117002408D01*
G37*
%TD*%
%TO.C,SW3*%
G36*
X88549009Y-117002408D02*
G01*
X88597545Y-117009607D01*
X88645142Y-117021530D01*
X88691342Y-117038060D01*
X88735698Y-117059039D01*
X88777785Y-117084265D01*
X88817197Y-117113495D01*
X88853553Y-117146447D01*
X88886505Y-117182803D01*
X88915735Y-117222215D01*
X88940961Y-117264302D01*
X88961940Y-117308658D01*
X88978470Y-117354858D01*
X88990393Y-117402455D01*
X88997592Y-117450991D01*
X89000000Y-117500000D01*
X89000000Y-118500000D01*
X88997592Y-118549009D01*
X88990393Y-118597545D01*
X88978470Y-118645142D01*
X88961940Y-118691342D01*
X88940961Y-118735698D01*
X88915735Y-118777785D01*
X88886505Y-118817197D01*
X88853553Y-118853553D01*
X88817197Y-118886505D01*
X88777785Y-118915735D01*
X88735698Y-118940961D01*
X88691342Y-118961940D01*
X88645142Y-118978470D01*
X88597545Y-118990393D01*
X88549009Y-118997592D01*
X88500000Y-119000000D01*
X86500000Y-119000000D01*
X86450991Y-118997592D01*
X86402455Y-118990393D01*
X86354858Y-118978470D01*
X86308658Y-118961940D01*
X86264302Y-118940961D01*
X86222215Y-118915735D01*
X86182803Y-118886505D01*
X86146447Y-118853553D01*
X86113495Y-118817197D01*
X86084265Y-118777785D01*
X86059039Y-118735698D01*
X86038060Y-118691342D01*
X86021530Y-118645142D01*
X86009607Y-118597545D01*
X86002408Y-118549009D01*
X86000000Y-118500000D01*
X86000000Y-117500000D01*
X86002408Y-117450991D01*
X86009607Y-117402455D01*
X86021530Y-117354858D01*
X86038060Y-117308658D01*
X86059039Y-117264302D01*
X86084265Y-117222215D01*
X86113495Y-117182803D01*
X86146447Y-117146447D01*
X86182803Y-117113495D01*
X86222215Y-117084265D01*
X86264302Y-117059039D01*
X86308658Y-117038060D01*
X86354858Y-117021530D01*
X86402455Y-117009607D01*
X86450991Y-117002408D01*
X86500000Y-117000000D01*
X88500000Y-117000000D01*
X88549009Y-117002408D01*
G37*
G36*
X81549009Y-117002408D02*
G01*
X81597545Y-117009607D01*
X81645142Y-117021530D01*
X81691342Y-117038060D01*
X81735698Y-117059039D01*
X81777785Y-117084265D01*
X81817197Y-117113495D01*
X81853553Y-117146447D01*
X81886505Y-117182803D01*
X81915735Y-117222215D01*
X81940961Y-117264302D01*
X81961940Y-117308658D01*
X81978470Y-117354858D01*
X81990393Y-117402455D01*
X81997592Y-117450991D01*
X82000000Y-117500000D01*
X82000000Y-118500000D01*
X81997592Y-118549009D01*
X81990393Y-118597545D01*
X81978470Y-118645142D01*
X81961940Y-118691342D01*
X81940961Y-118735698D01*
X81915735Y-118777785D01*
X81886505Y-118817197D01*
X81853553Y-118853553D01*
X81817197Y-118886505D01*
X81777785Y-118915735D01*
X81735698Y-118940961D01*
X81691342Y-118961940D01*
X81645142Y-118978470D01*
X81597545Y-118990393D01*
X81549009Y-118997592D01*
X81500000Y-119000000D01*
X79500000Y-119000000D01*
X79450991Y-118997592D01*
X79402455Y-118990393D01*
X79354858Y-118978470D01*
X79308658Y-118961940D01*
X79264302Y-118940961D01*
X79222215Y-118915735D01*
X79182803Y-118886505D01*
X79146447Y-118853553D01*
X79113495Y-118817197D01*
X79084265Y-118777785D01*
X79059039Y-118735698D01*
X79038060Y-118691342D01*
X79021530Y-118645142D01*
X79009607Y-118597545D01*
X79002408Y-118549009D01*
X79000000Y-118500000D01*
X79000000Y-117500000D01*
X79002408Y-117450991D01*
X79009607Y-117402455D01*
X79021530Y-117354858D01*
X79038060Y-117308658D01*
X79059039Y-117264302D01*
X79084265Y-117222215D01*
X79113495Y-117182803D01*
X79146447Y-117146447D01*
X79182803Y-117113495D01*
X79222215Y-117084265D01*
X79264302Y-117059039D01*
X79308658Y-117038060D01*
X79354858Y-117021530D01*
X79402455Y-117009607D01*
X79450991Y-117002408D01*
X79500000Y-117000000D01*
X81500000Y-117000000D01*
X81549009Y-117002408D01*
G37*
%TD*%
D15*
%TO.C,C17*%
X70250000Y-55250000D03*
D16*
X66750000Y-55250000D03*
%TD*%
D17*
%TO.C,TP6*%
X114950000Y-68950000D03*
%TD*%
%TO.C,TP5*%
X114950000Y-73250000D03*
%TD*%
%TO.C,TP4*%
X115000000Y-77500000D03*
%TD*%
D18*
%TO.C,TP3*%
X113300000Y-105000000D03*
%TD*%
%TO.C,TP2*%
X113300000Y-99500000D03*
%TD*%
%TO.C,TP1*%
X113300000Y-94000000D03*
%TD*%
D19*
%TO.C,J1*%
X67000000Y-44120000D03*
D20*
X67000000Y-47350000D03*
X77800000Y-47350000D03*
D19*
X77800000Y-44120000D03*
%TD*%
M02*
