G04 #@! TF.GenerationSoftware,KiCad,Pcbnew,(5.1.9)-1*
G04 #@! TF.CreationDate,2021-04-20T09:49:11+02:00*
G04 #@! TF.ProjectId,loeti,6c6f6574-692e-46b6-9963-61645f706362,rev?*
G04 #@! TF.SameCoordinates,Original*
G04 #@! TF.FileFunction,Profile,NP*
%FSLAX46Y46*%
G04 Gerber Fmt 4.6, Leading zero omitted, Abs format (unit mm)*
G04 Created by KiCad (PCBNEW (5.1.9)-1) date 2021-04-20 09:49:11*
%MOMM*%
%LPD*%
G01*
G04 APERTURE LIST*
G04 #@! TA.AperFunction,Profile*
%ADD10C,0.200000*%
G04 #@! TD*
G04 #@! TA.AperFunction,Profile*
%ADD11C,0.000100*%
G04 #@! TD*
G04 APERTURE END LIST*
D10*
X123070000Y24455000D02*
X123074158Y17134252D01*
X123074155Y40225507D02*
X123070000Y32905000D01*
X72176645Y41244152D02*
G75*
G02*
X68748282Y37815789I-3428363J0D01*
G01*
X123074155Y40225507D02*
X108774496Y40225505D01*
X102747873Y13678597D02*
G75*
G03*
X102747873Y13678597I-1500000J0D01*
G01*
X77747873Y43678597D02*
G75*
G03*
X77747873Y43678597I-1500000J0D01*
G01*
X108774495Y40225505D02*
G75*
G02*
X105250000Y43750000I0J3524495D01*
G01*
X105292208Y13678591D02*
G75*
G02*
X108747869Y17134252I3455661J0D01*
G01*
X53810555Y37815789D02*
X53810555Y19543970D01*
X105292209Y7932166D02*
G75*
G02*
X72176995Y9222349I-9169381J190279196D01*
G01*
X72176645Y48139236D02*
G75*
G02*
X105250000Y49432496I23951924J-188988240D01*
G01*
X68748282Y37815789D02*
X53810555Y37815789D01*
X108747869Y17134252D02*
X123074158Y17134252D01*
X105292209Y7932166D02*
X105292208Y13678590D01*
X72176995Y16115258D02*
X72176995Y9222349D01*
X77747873Y13678597D02*
G75*
G03*
X77747873Y13678597I-1500000J0D01*
G01*
X102747873Y43678597D02*
G75*
G03*
X102747873Y43678597I-1500000J0D01*
G01*
X72176645Y48139236D02*
X72176645Y41244152D01*
X53810555Y19543970D02*
X68748282Y19543970D01*
X68748282Y19543971D02*
G75*
G02*
X72176995Y16115258I0J-3428713D01*
G01*
X105250000Y43750000D02*
X105250000Y49432496D01*
D11*
X123070000Y31750000D02*
X123070000Y32905000D01*
X123070000Y25610000D02*
X123070000Y24455000D01*
X110070000Y26680000D02*
X110070000Y30680000D01*
X123070000Y31750000D02*
X110070000Y31750000D01*
X123070000Y25610000D02*
X110070000Y25610000D01*
X110070000Y31750000D02*
G75*
G03*
X110070000Y30680000I0J-535000D01*
G01*
X110070000Y25610000D02*
G75*
G02*
X110070000Y26680000I0J535000D01*
G01*
M02*
