%TF.GenerationSoftware,KiCad,Pcbnew,(5.1.5)-3*%
%TF.CreationDate,2020-04-21T20:59:25+02:00*%
%TF.ProjectId,loeti,6c6f6574-692e-46b6-9963-61645f706362,rev?*%
%TF.SameCoordinates,Original*%
%TF.FileFunction,Legend,Bot*%
%TF.FilePolarity,Positive*%
%FSLAX46Y46*%
G04 Gerber Fmt 4.6, Leading zero omitted, Abs format (unit mm)*
G04 Created by KiCad (PCBNEW (5.1.5)-3) date 2020-04-21 20:59:25*
%MOMM*%
%LPD*%
G04 APERTURE LIST*
%ADD10C,0.150000*%
%ADD11C,0.120000*%
G04 APERTURE END LIST*
D10*
X92238095Y-104904761D02*
X92142857Y-104952380D01*
X91952380Y-104952380D01*
X91857142Y-104904761D01*
X91809523Y-104809523D01*
X91809523Y-104761904D01*
X91857142Y-104666666D01*
X91952380Y-104619047D01*
X92095238Y-104619047D01*
X92190476Y-104571428D01*
X92238095Y-104476190D01*
X92238095Y-104428571D01*
X92190476Y-104333333D01*
X92095238Y-104285714D01*
X91952380Y-104285714D01*
X91857142Y-104333333D01*
X91238095Y-104952380D02*
X91333333Y-104904761D01*
X91380952Y-104857142D01*
X91428571Y-104761904D01*
X91428571Y-104476190D01*
X91380952Y-104380952D01*
X91333333Y-104333333D01*
X91238095Y-104285714D01*
X91095238Y-104285714D01*
X91000000Y-104333333D01*
X90952380Y-104380952D01*
X90904761Y-104476190D01*
X90904761Y-104761904D01*
X90952380Y-104857142D01*
X91000000Y-104904761D01*
X91095238Y-104952380D01*
X91238095Y-104952380D01*
X90476190Y-104285714D02*
X90476190Y-105285714D01*
X90476190Y-104333333D02*
X90380952Y-104285714D01*
X90190476Y-104285714D01*
X90095238Y-104333333D01*
X90047619Y-104380952D01*
X90000000Y-104476190D01*
X90000000Y-104761904D01*
X90047619Y-104857142D01*
X90095238Y-104904761D01*
X90190476Y-104952380D01*
X90380952Y-104952380D01*
X90476190Y-104904761D01*
X89571428Y-104952380D02*
X89571428Y-103952380D01*
X89142857Y-104952380D02*
X89142857Y-104428571D01*
X89190476Y-104333333D01*
X89285714Y-104285714D01*
X89428571Y-104285714D01*
X89523809Y-104333333D01*
X89571428Y-104380952D01*
X88666666Y-104952380D02*
X88666666Y-104285714D01*
X88666666Y-103952380D02*
X88714285Y-104000000D01*
X88666666Y-104047619D01*
X88619047Y-104000000D01*
X88666666Y-103952380D01*
X88666666Y-104047619D01*
X87047619Y-104904761D02*
X87142857Y-104952380D01*
X87333333Y-104952380D01*
X87428571Y-104904761D01*
X87476190Y-104809523D01*
X87476190Y-104428571D01*
X87428571Y-104333333D01*
X87333333Y-104285714D01*
X87142857Y-104285714D01*
X87047619Y-104333333D01*
X87000000Y-104428571D01*
X87000000Y-104523809D01*
X87476190Y-104619047D01*
X86142857Y-104952380D02*
X86142857Y-103952380D01*
X86142857Y-104904761D02*
X86238095Y-104952380D01*
X86428571Y-104952380D01*
X86523809Y-104904761D01*
X86571428Y-104857142D01*
X86619047Y-104761904D01*
X86619047Y-104476190D01*
X86571428Y-104380952D01*
X86523809Y-104333333D01*
X86428571Y-104285714D01*
X86238095Y-104285714D01*
X86142857Y-104333333D01*
X85666666Y-104952380D02*
X85666666Y-104285714D01*
X85666666Y-103952380D02*
X85714285Y-104000000D01*
X85666666Y-104047619D01*
X85619047Y-104000000D01*
X85666666Y-103952380D01*
X85666666Y-104047619D01*
X85333333Y-104285714D02*
X84952380Y-104285714D01*
X85190476Y-103952380D02*
X85190476Y-104809523D01*
X85142857Y-104904761D01*
X85047619Y-104952380D01*
X84952380Y-104952380D01*
X84619047Y-104952380D02*
X84619047Y-104285714D01*
X84619047Y-103952380D02*
X84666666Y-104000000D01*
X84619047Y-104047619D01*
X84571428Y-104000000D01*
X84619047Y-103952380D01*
X84619047Y-104047619D01*
X84000000Y-104952380D02*
X84095238Y-104904761D01*
X84142857Y-104857142D01*
X84190476Y-104761904D01*
X84190476Y-104476190D01*
X84142857Y-104380952D01*
X84095238Y-104333333D01*
X84000000Y-104285714D01*
X83857142Y-104285714D01*
X83761904Y-104333333D01*
X83714285Y-104380952D01*
X83666666Y-104476190D01*
X83666666Y-104761904D01*
X83714285Y-104857142D01*
X83761904Y-104904761D01*
X83857142Y-104952380D01*
X84000000Y-104952380D01*
X83238095Y-104285714D02*
X83238095Y-104952380D01*
X83238095Y-104380952D02*
X83190476Y-104333333D01*
X83095238Y-104285714D01*
X82952380Y-104285714D01*
X82857142Y-104333333D01*
X82809523Y-104428571D01*
X82809523Y-104952380D01*
D11*
%TO.C,U4*%
X105420000Y-103100000D02*
X75640000Y-103100000D01*
X75640000Y-103100000D02*
X75640000Y-92710000D01*
X75640000Y-92710000D02*
X105420000Y-92710000D01*
X105420000Y-92710000D02*
X105420000Y-103100000D01*
X102670000Y-107350000D02*
X102670000Y-106100000D01*
X102670000Y-107350000D02*
X100420000Y-107350000D01*
X76920000Y-80700000D02*
X71870000Y-80700000D01*
X76920000Y-106100000D02*
X71870000Y-106100000D01*
X97420000Y-106100000D02*
X82420000Y-106100000D01*
X108110000Y-106100000D02*
X108110000Y-80700000D01*
X108110000Y-80700000D02*
X103420000Y-80700000D01*
X71870000Y-80700000D02*
X71870000Y-106100000D01*
X103420000Y-106100000D02*
X108110000Y-106100000D01*
%TO.C,SW2*%
X99000000Y-121500000D02*
X99000000Y-114500000D01*
X93000000Y-114500000D02*
X93000000Y-121500000D01*
X99000000Y-121500000D02*
X93000000Y-121500000D01*
X93000000Y-114500000D02*
X99000000Y-114500000D01*
%TO.C,SW3*%
X81000000Y-114500000D02*
X81000000Y-121500000D01*
X87000000Y-121500000D02*
X87000000Y-114500000D01*
X81000000Y-114500000D02*
X87000000Y-114500000D01*
X87000000Y-121500000D02*
X81000000Y-121500000D01*
%TO.C,U4*%
D10*
X102161904Y-101052380D02*
X102161904Y-101861904D01*
X102114285Y-101957142D01*
X102066666Y-102004761D01*
X101971428Y-102052380D01*
X101780952Y-102052380D01*
X101685714Y-102004761D01*
X101638095Y-101957142D01*
X101590476Y-101861904D01*
X101590476Y-101052380D01*
X100685714Y-101385714D02*
X100685714Y-102052380D01*
X100923809Y-101004761D02*
X101161904Y-101719047D01*
X100542857Y-101719047D01*
%TO.C,SW2*%
X97333333Y-118404761D02*
X97190476Y-118452380D01*
X96952380Y-118452380D01*
X96857142Y-118404761D01*
X96809523Y-118357142D01*
X96761904Y-118261904D01*
X96761904Y-118166666D01*
X96809523Y-118071428D01*
X96857142Y-118023809D01*
X96952380Y-117976190D01*
X97142857Y-117928571D01*
X97238095Y-117880952D01*
X97285714Y-117833333D01*
X97333333Y-117738095D01*
X97333333Y-117642857D01*
X97285714Y-117547619D01*
X97238095Y-117500000D01*
X97142857Y-117452380D01*
X96904761Y-117452380D01*
X96761904Y-117500000D01*
X96428571Y-117452380D02*
X96190476Y-118452380D01*
X96000000Y-117738095D01*
X95809523Y-118452380D01*
X95571428Y-117452380D01*
X95238095Y-117547619D02*
X95190476Y-117500000D01*
X95095238Y-117452380D01*
X94857142Y-117452380D01*
X94761904Y-117500000D01*
X94714285Y-117547619D01*
X94666666Y-117642857D01*
X94666666Y-117738095D01*
X94714285Y-117880952D01*
X95285714Y-118452380D01*
X94666666Y-118452380D01*
%TO.C,SW3*%
X85333333Y-118404761D02*
X85190476Y-118452380D01*
X84952380Y-118452380D01*
X84857142Y-118404761D01*
X84809523Y-118357142D01*
X84761904Y-118261904D01*
X84761904Y-118166666D01*
X84809523Y-118071428D01*
X84857142Y-118023809D01*
X84952380Y-117976190D01*
X85142857Y-117928571D01*
X85238095Y-117880952D01*
X85285714Y-117833333D01*
X85333333Y-117738095D01*
X85333333Y-117642857D01*
X85285714Y-117547619D01*
X85238095Y-117500000D01*
X85142857Y-117452380D01*
X84904761Y-117452380D01*
X84761904Y-117500000D01*
X84428571Y-117452380D02*
X84190476Y-118452380D01*
X84000000Y-117738095D01*
X83809523Y-118452380D01*
X83571428Y-117452380D01*
X83285714Y-117452380D02*
X82666666Y-117452380D01*
X83000000Y-117833333D01*
X82857142Y-117833333D01*
X82761904Y-117880952D01*
X82714285Y-117928571D01*
X82666666Y-118023809D01*
X82666666Y-118261904D01*
X82714285Y-118357142D01*
X82761904Y-118404761D01*
X82857142Y-118452380D01*
X83142857Y-118452380D01*
X83238095Y-118404761D01*
X83285714Y-118357142D01*
%TD*%
M02*
