%FSLAX45Y45*%
G04 Gerber Fmt 4.5, Leading zero omitted, Abs format (unit mm)*
G04 Created by KiCad (PCBNEW (5.1.9)-1) date 2021-04-20 09:50:12*
%MOMM*%
%LPD*%
G01*
G04 APERTURE LIST*
%TA.AperFunction,Profile*%
%ADD10C,0.200000*%
%TD*%
%ADD11C,0.200000*%
%ADD12C,0.300000*%
G04 APERTURE END LIST*
D10*
X12307000Y2445500D02*
X12307416Y1713425D01*
X12307415Y4022551D02*
X12307000Y3290500D01*
X7217664Y4124415D02*
G75*
G02*
X6874828Y3781579I-342836J0D01*
G01*
X12307415Y4022551D02*
X10877450Y4022550D01*
X10274787Y1367860D02*
G75*
G03*
X10274787Y1367860I-150000J0D01*
G01*
X7774787Y4367860D02*
G75*
G03*
X7774787Y4367860I-150000J0D01*
G01*
X10877450Y4022550D02*
G75*
G02*
X10525000Y4375000I0J352450D01*
G01*
X10529221Y1367859D02*
G75*
G02*
X10874787Y1713425I345566J0D01*
G01*
X5381056Y3781579D02*
X5381056Y1954397D01*
X10529221Y793217D02*
G75*
G02*
X7217699Y922235I-916938J19027920D01*
G01*
X7217664Y4813924D02*
G75*
G02*
X10525000Y4943250I2395192J-18898824D01*
G01*
X6874828Y3781579D02*
X5381056Y3781579D01*
X10874787Y1713425D02*
X12307416Y1713425D01*
X10529221Y793217D02*
X10529221Y1367859D01*
X7217699Y1611526D02*
X7217699Y922235D01*
X7774787Y1367860D02*
G75*
G03*
X7774787Y1367860I-150000J0D01*
G01*
X10274787Y4367860D02*
G75*
G03*
X10274787Y4367860I-150000J0D01*
G01*
X7217664Y4813924D02*
X7217664Y4124415D01*
X5381056Y1954397D02*
X6874828Y1954397D01*
X6874828Y1954397D02*
G75*
G02*
X7217699Y1611526I0J-342871D01*
G01*
X10525000Y4375000D02*
X10525000Y4943250D01*
D11*
X6185000Y3010000D02*
X6215000Y2980000D01*
X6215000Y3010000D02*
X6185000Y2980000D01*
X6185000Y2715000D02*
X6215000Y2685000D01*
X6215000Y2715000D02*
X6185000Y2685000D01*
X6435000Y3715000D02*
X6465000Y3685000D01*
X6465000Y3715000D02*
X6435000Y3685000D01*
X6435000Y3640000D02*
X6465000Y3610000D01*
X6465000Y3640000D02*
X6435000Y3610000D01*
X6435000Y3565000D02*
X6465000Y3535000D01*
X6465000Y3565000D02*
X6435000Y3535000D01*
X6735000Y3715000D02*
X6765000Y3685000D01*
X6765000Y3715000D02*
X6735000Y3685000D01*
X6735000Y3640000D02*
X6765000Y3610000D01*
X6765000Y3640000D02*
X6735000Y3610000D01*
X6735000Y3565000D02*
X6765000Y3535000D01*
X6765000Y3565000D02*
X6735000Y3535000D01*
X6835000Y3140000D02*
X6865000Y3110000D01*
X6865000Y3140000D02*
X6835000Y3110000D01*
X6970660Y3229340D02*
X7000660Y3199340D01*
X7000660Y3229340D02*
X6970660Y3199340D01*
X7210000Y3665000D02*
X7240000Y3635000D01*
X7240000Y3665000D02*
X7210000Y3635000D01*
X7210000Y3440000D02*
X7240000Y3410000D01*
X7240000Y3440000D02*
X7210000Y3410000D01*
X7210000Y3240000D02*
X7240000Y3210000D01*
X7240000Y3240000D02*
X7210000Y3210000D01*
X7635000Y3340003D02*
X7665000Y3310003D01*
X7665000Y3340003D02*
X7635000Y3310003D01*
X7651250Y3715000D02*
X7681250Y3685000D01*
X7681250Y3715000D02*
X7651250Y3685000D01*
X7785000Y2940000D02*
X7815000Y2910000D01*
X7815000Y2940000D02*
X7785000Y2910000D01*
X7835000Y3290000D02*
X7865000Y3260000D01*
X7865000Y3290000D02*
X7835000Y3260000D01*
X7860000Y3690000D02*
X7890000Y3660000D01*
X7890000Y3690000D02*
X7860000Y3660000D01*
X7985000Y3290000D02*
X8015000Y3260000D01*
X8015000Y3290000D02*
X7985000Y3260000D01*
X8060000Y3490000D02*
X8090000Y3460000D01*
X8090000Y3490000D02*
X8060000Y3460000D01*
X8135000Y3965000D02*
X8165000Y3935000D01*
X8165000Y3965000D02*
X8135000Y3935000D01*
X8135000Y3340000D02*
X8165000Y3310000D01*
X8165000Y3340000D02*
X8135000Y3310000D01*
X8135000Y2940000D02*
X8165000Y2910000D01*
X8165000Y2940000D02*
X8135000Y2910000D01*
X8210000Y1390000D02*
X8240000Y1360000D01*
X8240000Y1390000D02*
X8210000Y1360000D01*
X8210000Y1315000D02*
X8240000Y1285000D01*
X8240000Y1315000D02*
X8210000Y1285000D01*
X8210000Y1240000D02*
X8240000Y1210000D01*
X8240000Y1240000D02*
X8210000Y1210000D01*
X8285000Y1390000D02*
X8315000Y1360000D01*
X8315000Y1390000D02*
X8285000Y1360000D01*
X8285000Y1315000D02*
X8315000Y1285000D01*
X8315000Y1315000D02*
X8285000Y1285000D01*
X8285000Y1240000D02*
X8315000Y1210000D01*
X8315000Y1240000D02*
X8285000Y1210000D01*
X8335000Y3190000D02*
X8365000Y3160000D01*
X8365000Y3190000D02*
X8335000Y3160000D01*
X8340000Y3695000D02*
X8370000Y3665000D01*
X8370000Y3695000D02*
X8340000Y3665000D01*
X8360000Y1390000D02*
X8390000Y1360000D01*
X8390000Y1390000D02*
X8360000Y1360000D01*
X8360000Y1315000D02*
X8390000Y1285000D01*
X8390000Y1315000D02*
X8360000Y1285000D01*
X8360000Y1240000D02*
X8390000Y1210000D01*
X8390000Y1240000D02*
X8360000Y1210000D01*
X8435000Y3440000D02*
X8465000Y3410000D01*
X8465000Y3440000D02*
X8435000Y3410000D01*
X8485000Y2715000D02*
X8515000Y2685000D01*
X8515000Y2715000D02*
X8485000Y2685000D01*
X8635000Y2915000D02*
X8665000Y2885000D01*
X8665000Y2915000D02*
X8635000Y2885000D01*
X8643750Y2231250D02*
X8673750Y2201250D01*
X8673750Y2231250D02*
X8643750Y2201250D01*
X8660000Y1390000D02*
X8690000Y1360000D01*
X8690000Y1390000D02*
X8660000Y1360000D01*
X8660000Y1315000D02*
X8690000Y1285000D01*
X8690000Y1315000D02*
X8660000Y1285000D01*
X8660000Y1240000D02*
X8690000Y1210000D01*
X8690000Y1240000D02*
X8660000Y1210000D01*
X8735000Y1390000D02*
X8765000Y1360000D01*
X8765000Y1390000D02*
X8735000Y1360000D01*
X8735000Y1315000D02*
X8765000Y1285000D01*
X8765000Y1315000D02*
X8735000Y1285000D01*
X8735000Y1240000D02*
X8765000Y1210000D01*
X8765000Y1240000D02*
X8735000Y1210000D01*
X8810000Y1390000D02*
X8840000Y1360000D01*
X8840000Y1390000D02*
X8810000Y1360000D01*
X8810000Y1315000D02*
X8840000Y1285000D01*
X8840000Y1315000D02*
X8810000Y1285000D01*
X8810000Y1240000D02*
X8840000Y1210000D01*
X8840000Y1240000D02*
X8810000Y1210000D01*
X8810001Y2614999D02*
X8840001Y2584999D01*
X8840001Y2614999D02*
X8810001Y2584999D01*
X8860000Y3090000D02*
X8890000Y3060000D01*
X8890000Y3090000D02*
X8860000Y3060000D01*
X8985000Y1390000D02*
X9015000Y1360000D01*
X9015000Y1390000D02*
X8985000Y1360000D01*
X8985000Y1315000D02*
X9015000Y1285000D01*
X9015000Y1315000D02*
X8985000Y1285000D01*
X8985000Y1240000D02*
X9015000Y1210000D01*
X9015000Y1240000D02*
X8985000Y1210000D01*
X9010000Y3565000D02*
X9040000Y3535000D01*
X9040000Y3565000D02*
X9010000Y3535000D01*
X9010000Y3415000D02*
X9040000Y3385000D01*
X9040000Y3415000D02*
X9010000Y3385000D01*
X9060000Y1390000D02*
X9090000Y1360000D01*
X9090000Y1390000D02*
X9060000Y1360000D01*
X9060000Y1315000D02*
X9090000Y1285000D01*
X9090000Y1315000D02*
X9060000Y1285000D01*
X9060000Y1240000D02*
X9090000Y1210000D01*
X9090000Y1240000D02*
X9060000Y1210000D01*
X9085000Y3140000D02*
X9115000Y3110000D01*
X9115000Y3140000D02*
X9085000Y3110000D01*
X9135000Y1390000D02*
X9165000Y1360000D01*
X9165000Y1390000D02*
X9135000Y1360000D01*
X9135000Y1315000D02*
X9165000Y1285000D01*
X9165000Y1315000D02*
X9135000Y1285000D01*
X9135000Y1240000D02*
X9165000Y1210000D01*
X9165000Y1240000D02*
X9135000Y1210000D01*
X9160003Y2614999D02*
X9190003Y2584999D01*
X9190003Y2614999D02*
X9160003Y2584999D01*
X9235001Y3740000D02*
X9265001Y3710000D01*
X9265001Y3740000D02*
X9235001Y3710000D01*
X9310000Y2315000D02*
X9340000Y2285000D01*
X9340000Y2315000D02*
X9310000Y2285000D01*
X9410000Y2840003D02*
X9440000Y2810003D01*
X9440000Y2840003D02*
X9410000Y2810003D01*
X9410000Y2440000D02*
X9440000Y2410000D01*
X9440000Y2440000D02*
X9410000Y2410000D01*
X9410000Y2089999D02*
X9440000Y2059999D01*
X9440000Y2089999D02*
X9410000Y2059999D01*
X9435000Y1390000D02*
X9465000Y1360000D01*
X9465000Y1390000D02*
X9435000Y1360000D01*
X9435000Y1315000D02*
X9465000Y1285000D01*
X9465000Y1315000D02*
X9435000Y1285000D01*
X9435000Y1240000D02*
X9465000Y1210000D01*
X9465000Y1240000D02*
X9435000Y1210000D01*
X9460000Y3414998D02*
X9490000Y3384998D01*
X9490000Y3414998D02*
X9460000Y3384998D01*
X9460000Y3639999D02*
X9490000Y3609999D01*
X9490000Y3639999D02*
X9460000Y3609999D01*
X9485003Y3190000D02*
X9515003Y3160000D01*
X9515003Y3190000D02*
X9485003Y3160000D01*
X9510000Y1390000D02*
X9540000Y1360000D01*
X9540000Y1390000D02*
X9510000Y1360000D01*
X9510000Y1315000D02*
X9540000Y1285000D01*
X9540000Y1315000D02*
X9510000Y1285000D01*
X9510000Y1240000D02*
X9540000Y1210000D01*
X9540000Y1240000D02*
X9510000Y1210000D01*
X9585000Y1390000D02*
X9615000Y1360000D01*
X9615000Y1390000D02*
X9585000Y1360000D01*
X9585000Y1315000D02*
X9615000Y1285000D01*
X9615000Y1315000D02*
X9585000Y1285000D01*
X9585000Y1240000D02*
X9615000Y1210000D01*
X9615000Y1240000D02*
X9585000Y1210000D01*
X9660000Y3915000D02*
X9690000Y3885000D01*
X9690000Y3915000D02*
X9660000Y3885000D01*
X9702500Y3815000D02*
X9732500Y3785000D01*
X9732500Y3815000D02*
X9702500Y3785000D01*
X9710000Y3065000D02*
X9740000Y3035000D01*
X9740000Y3065000D02*
X9710000Y3035000D01*
X9710001Y2239999D02*
X9740001Y2209999D01*
X9740001Y2239999D02*
X9710001Y2209999D01*
X9810001Y4040000D02*
X9840001Y4010000D01*
X9840001Y4040000D02*
X9810001Y4010000D01*
X9938500Y3361500D02*
X9968500Y3331500D01*
X9968500Y3361500D02*
X9938500Y3331500D01*
X9985000Y2965000D02*
X10015000Y2935000D01*
X10015000Y2965000D02*
X9985000Y2935000D01*
X10010000Y3990000D02*
X10040000Y3960000D01*
X10040000Y3990000D02*
X10010000Y3960000D01*
X10135000Y3515000D02*
X10165000Y3485000D01*
X10165000Y3515000D02*
X10135000Y3485000D01*
X10185000Y2440000D02*
X10215000Y2410000D01*
X10215000Y2440000D02*
X10185000Y2410000D01*
X10185002Y3115000D02*
X10215002Y3085000D01*
X10215002Y3115000D02*
X10185002Y3085000D01*
X10235000Y4089999D02*
X10265000Y4059999D01*
X10265000Y4089999D02*
X10235000Y4059999D01*
X10535000Y2715000D02*
X10565000Y2685000D01*
X10565000Y2715000D02*
X10535000Y2685000D01*
X10585000Y3165000D02*
X10615000Y3135000D01*
X10615000Y3165000D02*
X10585000Y3135000D01*
X10635000Y3515000D02*
X10665000Y3485000D01*
X10665000Y3515000D02*
X10635000Y3485000D01*
X10635000Y2215000D02*
X10665000Y2185000D01*
X10665000Y2215000D02*
X10635000Y2185000D01*
X10785000Y2790000D02*
X10815000Y2760000D01*
X10815000Y2790000D02*
X10785000Y2760000D01*
X11197501Y3827499D02*
X11227501Y3797499D01*
X11227501Y3827499D02*
X11197501Y3797499D01*
X5550000Y3300000D02*
G75*
G03*
X5550000Y3300000I-30000J0D01*
G01*
X5550000Y3320000D02*
X5490000Y3320000D01*
X5550000Y3280000D02*
X5490000Y3280000D01*
X5490000Y3320000D02*
G75*
G03*
X5490000Y3280000I0J-20000D01*
G01*
X5550000Y3280000D02*
G75*
G03*
X5550000Y3320000I0J20000D01*
G01*
X5550000Y2436000D02*
G75*
G03*
X5550000Y2436000I-30000J0D01*
G01*
X5550000Y2456000D02*
X5490000Y2456000D01*
X5550000Y2416000D02*
X5490000Y2416000D01*
X5490000Y2456000D02*
G75*
G03*
X5490000Y2416000I0J-20000D01*
G01*
X5550000Y2416000D02*
G75*
G03*
X5550000Y2456000I0J20000D01*
G01*
X5968000Y3300000D02*
G75*
G03*
X5968000Y3300000I-30000J0D01*
G01*
X5993000Y3320000D02*
X5883000Y3320000D01*
X5993000Y3280000D02*
X5883000Y3280000D01*
X5883000Y3320000D02*
G75*
G03*
X5883000Y3280000I0J-20000D01*
G01*
X5993000Y3280000D02*
G75*
G03*
X5993000Y3320000I0J20000D01*
G01*
X5968000Y2436000D02*
G75*
G03*
X5968000Y2436000I-30000J0D01*
G01*
X5993000Y2456000D02*
X5883000Y2456000D01*
X5993000Y2416000D02*
X5883000Y2416000D01*
X5883000Y2456000D02*
G75*
G03*
X5883000Y2416000I0J-20000D01*
G01*
X5993000Y2416000D02*
G75*
G03*
X5993000Y2456000I0J20000D01*
G01*
X11437000Y3290500D02*
G75*
G03*
X11437000Y3290500I-30000J0D01*
G01*
X11502000Y3310500D02*
X11312000Y3310500D01*
X11502000Y3270500D02*
X11312000Y3270500D01*
X11312000Y3310500D02*
G75*
G03*
X11312000Y3270500I0J-20000D01*
G01*
X11502000Y3270500D02*
G75*
G03*
X11502000Y3310500I0J20000D01*
G01*
X11437000Y2445500D02*
G75*
G03*
X11437000Y2445500I-30000J0D01*
G01*
X11502000Y2465500D02*
X11312000Y2465500D01*
X11502000Y2425500D02*
X11312000Y2425500D01*
X11312000Y2465500D02*
G75*
G03*
X11312000Y2425500I0J-20000D01*
G01*
X11502000Y2425500D02*
G75*
G03*
X11502000Y2465500I0J20000D01*
G01*
X12117000Y3290500D02*
G75*
G03*
X12117000Y3290500I-30000J0D01*
G01*
X12182000Y3310500D02*
X11992000Y3310500D01*
X12182000Y3270500D02*
X11992000Y3270500D01*
X11992000Y3310500D02*
G75*
G03*
X11992000Y3270500I0J-20000D01*
G01*
X12182000Y3270500D02*
G75*
G03*
X12182000Y3310500I0J20000D01*
G01*
X12117000Y2445500D02*
G75*
G03*
X12117000Y2445500I-30000J0D01*
G01*
X12182000Y2465500D02*
X11992000Y2465500D01*
X12182000Y2425500D02*
X11992000Y2425500D01*
X11992000Y2465500D02*
G75*
G03*
X11992000Y2425500I0J-20000D01*
G01*
X12182000Y2425500D02*
G75*
G03*
X12182000Y2465500I0J20000D01*
G01*
X8975000Y4334500D02*
X8975000Y4269500D01*
X8942500Y4302000D02*
X9007500Y4302000D01*
X8975000Y4207500D02*
X8975000Y4142500D01*
X8942500Y4175000D02*
X9007500Y4175000D01*
X9102000Y4334500D02*
X9102000Y4269500D01*
X9069500Y4302000D02*
X9134500Y4302000D01*
X9102000Y4207500D02*
X9102000Y4142500D01*
X9069500Y4175000D02*
X9134500Y4175000D01*
X9229000Y4334500D02*
X9229000Y4269500D01*
X9196500Y4302000D02*
X9261500Y4302000D01*
X9229000Y4207500D02*
X9229000Y4142500D01*
X9196500Y4175000D02*
X9261500Y4175000D01*
X9356000Y4334500D02*
X9356000Y4269500D01*
X9323500Y4302000D02*
X9388500Y4302000D01*
X9356000Y4207500D02*
X9356000Y4142500D01*
X9323500Y4175000D02*
X9388500Y4175000D01*
X9483000Y4334500D02*
X9483000Y4269500D01*
X9450500Y4302000D02*
X9515500Y4302000D01*
X9483000Y4207500D02*
X9483000Y4142500D01*
X9450500Y4175000D02*
X9515500Y4175000D01*
X9610000Y4334500D02*
X9610000Y4269500D01*
X9577500Y4302000D02*
X9642500Y4302000D01*
X9610000Y4207500D02*
X9610000Y4142500D01*
X9577500Y4175000D02*
X9642500Y4175000D01*
X9737000Y4334500D02*
X9737000Y4269500D01*
X9704500Y4302000D02*
X9769500Y4302000D01*
X9737000Y4207500D02*
X9737000Y4142500D01*
X9704500Y4175000D02*
X9769500Y4175000D01*
X8081820Y4718180D02*
X8081820Y4781820D01*
X8018180Y4781820D01*
X8018180Y4718180D01*
X8081820Y4718180D01*
X8081820Y4464180D02*
X8081820Y4527820D01*
X8018180Y4527820D01*
X8018180Y4464180D01*
X8081820Y4464180D01*
X8406820Y4718180D02*
X8406820Y4781820D01*
X8343180Y4781820D01*
X8343180Y4718180D01*
X8406820Y4718180D01*
X8406820Y4464180D02*
X8406820Y4527820D01*
X8343180Y4527820D01*
X8343180Y4464180D01*
X8406820Y4464180D01*
X8731820Y4718180D02*
X8731820Y4781820D01*
X8668180Y4781820D01*
X8668180Y4718180D01*
X8731820Y4718180D01*
X8731820Y4464180D02*
X8731820Y4527820D01*
X8668180Y4527820D01*
X8668180Y4464180D01*
X8731820Y4464180D01*
X7201818Y2283606D02*
X7256818Y2338606D01*
X7201818Y2393606D01*
X7146818Y2338606D01*
X7201818Y2283606D01*
X7488606Y2693182D02*
X7543606Y2748182D01*
X7488606Y2803182D01*
X7433606Y2748182D01*
X7488606Y2693182D01*
X7611394Y1996818D02*
X7666394Y2051818D01*
X7611394Y2106818D01*
X7556394Y2051818D01*
X7611394Y1996818D01*
X7898182Y2406394D02*
X7953182Y2461394D01*
X7898182Y2516394D01*
X7843182Y2461394D01*
X7898182Y2406394D01*
D12*
X5657484Y295422D02*
X5657484Y595422D01*
X5728912Y595422D01*
X5771770Y581136D01*
X5800341Y552565D01*
X5814627Y523993D01*
X5828912Y466850D01*
X5828912Y423993D01*
X5814627Y366850D01*
X5800341Y338279D01*
X5771770Y309708D01*
X5728912Y295422D01*
X5657484Y295422D01*
X5957484Y295422D02*
X5957484Y495422D01*
X5957484Y438279D02*
X5971770Y466850D01*
X5986055Y481136D01*
X6014627Y495422D01*
X6043198Y495422D01*
X6143198Y295422D02*
X6143198Y495422D01*
X6143198Y595422D02*
X6128912Y581136D01*
X6143198Y566850D01*
X6157484Y581136D01*
X6143198Y595422D01*
X6143198Y566850D01*
X6328912Y295422D02*
X6300341Y309708D01*
X6286055Y338279D01*
X6286055Y595422D01*
X6486055Y295422D02*
X6457484Y309708D01*
X6443198Y338279D01*
X6443198Y595422D01*
X6828912Y295422D02*
X6828912Y595422D01*
X6928912Y381136D01*
X7028912Y595422D01*
X7028912Y295422D01*
X7300341Y295422D02*
X7300341Y452565D01*
X7286055Y481136D01*
X7257484Y495422D01*
X7200341Y495422D01*
X7171770Y481136D01*
X7300341Y309708D02*
X7271770Y295422D01*
X7200341Y295422D01*
X7171770Y309708D01*
X7157484Y338279D01*
X7157484Y366850D01*
X7171770Y395422D01*
X7200341Y409707D01*
X7271770Y409707D01*
X7300341Y423993D01*
X7443198Y495422D02*
X7443198Y195422D01*
X7443198Y481136D02*
X7471770Y495422D01*
X7528912Y495422D01*
X7557484Y481136D01*
X7571770Y466850D01*
X7586055Y438279D01*
X7586055Y352565D01*
X7571770Y323993D01*
X7557484Y309708D01*
X7528912Y295422D01*
X7471770Y295422D01*
X7443198Y309708D01*
X7714627Y323993D02*
X7728912Y309708D01*
X7714627Y295422D01*
X7700341Y309708D01*
X7714627Y323993D01*
X7714627Y295422D01*
X7714627Y481136D02*
X7728912Y466850D01*
X7714627Y452565D01*
X7700341Y466850D01*
X7714627Y481136D01*
X7714627Y452565D01*
X5341055Y-183864D02*
X5371055Y-213864D01*
X5371055Y-183864D02*
X5341055Y-213864D01*
X5714627Y-34578D02*
X5743198Y-34578D01*
X5771770Y-48864D01*
X5786055Y-63150D01*
X5800341Y-91721D01*
X5814627Y-148864D01*
X5814627Y-220292D01*
X5800341Y-277435D01*
X5786055Y-306007D01*
X5771770Y-320292D01*
X5743198Y-334578D01*
X5714627Y-334578D01*
X5686055Y-320292D01*
X5671770Y-306007D01*
X5657484Y-277435D01*
X5643198Y-220292D01*
X5643198Y-148864D01*
X5657484Y-91721D01*
X5671770Y-63150D01*
X5686055Y-48864D01*
X5714627Y-34578D01*
X5943198Y-306007D02*
X5957484Y-320292D01*
X5943198Y-334578D01*
X5928912Y-320292D01*
X5943198Y-306007D01*
X5943198Y-334578D01*
X6057484Y-34578D02*
X6243198Y-34578D01*
X6143198Y-148864D01*
X6186055Y-148864D01*
X6214627Y-163150D01*
X6228912Y-177435D01*
X6243198Y-206007D01*
X6243198Y-277435D01*
X6228912Y-306007D01*
X6214627Y-320292D01*
X6186055Y-334578D01*
X6100341Y-334578D01*
X6071770Y-320292D01*
X6057484Y-306007D01*
X6428912Y-34578D02*
X6457484Y-34578D01*
X6486055Y-48864D01*
X6500341Y-63150D01*
X6514627Y-91721D01*
X6528912Y-148864D01*
X6528912Y-220292D01*
X6514627Y-277435D01*
X6500341Y-306007D01*
X6486055Y-320292D01*
X6457484Y-334578D01*
X6428912Y-334578D01*
X6400341Y-320292D01*
X6386055Y-306007D01*
X6371770Y-277435D01*
X6357484Y-220292D01*
X6357484Y-148864D01*
X6371770Y-91721D01*
X6386055Y-63150D01*
X6400341Y-48864D01*
X6428912Y-34578D01*
X6657484Y-334578D02*
X6657484Y-134578D01*
X6657484Y-163150D02*
X6671770Y-148864D01*
X6700341Y-134578D01*
X6743198Y-134578D01*
X6771770Y-148864D01*
X6786055Y-177435D01*
X6786055Y-334578D01*
X6786055Y-177435D02*
X6800341Y-148864D01*
X6828912Y-134578D01*
X6871770Y-134578D01*
X6900341Y-148864D01*
X6914627Y-177435D01*
X6914627Y-334578D01*
X7057484Y-334578D02*
X7057484Y-134578D01*
X7057484Y-163150D02*
X7071770Y-148864D01*
X7100341Y-134578D01*
X7143198Y-134578D01*
X7171770Y-148864D01*
X7186055Y-177435D01*
X7186055Y-334578D01*
X7186055Y-177435D02*
X7200341Y-148864D01*
X7228912Y-134578D01*
X7271770Y-134578D01*
X7300341Y-148864D01*
X7314627Y-177435D01*
X7314627Y-334578D01*
X7900341Y-20292D02*
X7643198Y-406007D01*
X8286055Y-34578D02*
X8314627Y-34578D01*
X8343198Y-48864D01*
X8357484Y-63150D01*
X8371770Y-91721D01*
X8386055Y-148864D01*
X8386055Y-220292D01*
X8371770Y-277435D01*
X8357484Y-306007D01*
X8343198Y-320292D01*
X8314627Y-334578D01*
X8286055Y-334578D01*
X8257484Y-320292D01*
X8243198Y-306007D01*
X8228912Y-277435D01*
X8214627Y-220292D01*
X8214627Y-148864D01*
X8228912Y-91721D01*
X8243198Y-63150D01*
X8257484Y-48864D01*
X8286055Y-34578D01*
X8514627Y-306007D02*
X8528913Y-320292D01*
X8514627Y-334578D01*
X8500341Y-320292D01*
X8514627Y-306007D01*
X8514627Y-334578D01*
X8714627Y-34578D02*
X8743198Y-34578D01*
X8771770Y-48864D01*
X8786055Y-63150D01*
X8800341Y-91721D01*
X8814627Y-148864D01*
X8814627Y-220292D01*
X8800341Y-277435D01*
X8786055Y-306007D01*
X8771770Y-320292D01*
X8743198Y-334578D01*
X8714627Y-334578D01*
X8686055Y-320292D01*
X8671770Y-306007D01*
X8657484Y-277435D01*
X8643198Y-220292D01*
X8643198Y-148864D01*
X8657484Y-91721D01*
X8671770Y-63150D01*
X8686055Y-48864D01*
X8714627Y-34578D01*
X9100341Y-334578D02*
X8928913Y-334578D01*
X9014627Y-334578D02*
X9014627Y-34578D01*
X8986055Y-77435D01*
X8957484Y-106007D01*
X8928913Y-120292D01*
X9214627Y-63150D02*
X9228913Y-48864D01*
X9257484Y-34578D01*
X9328913Y-34578D01*
X9357484Y-48864D01*
X9371770Y-63150D01*
X9386055Y-91721D01*
X9386055Y-120292D01*
X9371770Y-163150D01*
X9200341Y-334578D01*
X9386055Y-334578D01*
X9500341Y-34578D02*
X9500341Y-91721D01*
X9614627Y-34578D02*
X9614627Y-91721D01*
X10057484Y-448864D02*
X10043198Y-434578D01*
X10014627Y-391721D01*
X10000341Y-363150D01*
X9986055Y-320292D01*
X9971770Y-248864D01*
X9971770Y-191721D01*
X9986055Y-120292D01*
X10000341Y-77435D01*
X10014627Y-48864D01*
X10043198Y-6007D01*
X10057484Y8279D01*
X10186055Y-334578D02*
X10243198Y-334578D01*
X10271770Y-320292D01*
X10286055Y-306007D01*
X10314627Y-263150D01*
X10328913Y-206007D01*
X10328913Y-91721D01*
X10314627Y-63150D01*
X10300341Y-48864D01*
X10271770Y-34578D01*
X10214627Y-34578D01*
X10186055Y-48864D01*
X10171770Y-63150D01*
X10157484Y-91721D01*
X10157484Y-163150D01*
X10171770Y-191721D01*
X10186055Y-206007D01*
X10214627Y-220292D01*
X10271770Y-220292D01*
X10300341Y-206007D01*
X10314627Y-191721D01*
X10328913Y-163150D01*
X10428913Y-34578D02*
X10628913Y-34578D01*
X10500341Y-334578D01*
X10971770Y-334578D02*
X10971770Y-34578D01*
X11100341Y-334578D02*
X11100341Y-177435D01*
X11086055Y-148864D01*
X11057484Y-134578D01*
X11014627Y-134578D01*
X10986055Y-148864D01*
X10971770Y-163150D01*
X11286055Y-334578D02*
X11257484Y-320292D01*
X11243198Y-306007D01*
X11228912Y-277435D01*
X11228912Y-191721D01*
X11243198Y-163150D01*
X11257484Y-148864D01*
X11286055Y-134578D01*
X11328912Y-134578D01*
X11357484Y-148864D01*
X11371770Y-163150D01*
X11386055Y-191721D01*
X11386055Y-277435D01*
X11371770Y-306007D01*
X11357484Y-320292D01*
X11328912Y-334578D01*
X11286055Y-334578D01*
X11557484Y-334578D02*
X11528912Y-320292D01*
X11514627Y-291721D01*
X11514627Y-34578D01*
X11786055Y-320292D02*
X11757484Y-334578D01*
X11700341Y-334578D01*
X11671770Y-320292D01*
X11657484Y-291721D01*
X11657484Y-177435D01*
X11671770Y-148864D01*
X11700341Y-134578D01*
X11757484Y-134578D01*
X11786055Y-148864D01*
X11800341Y-177435D01*
X11800341Y-206007D01*
X11657484Y-234578D01*
X11914627Y-320292D02*
X11943198Y-334578D01*
X12000341Y-334578D01*
X12028912Y-320292D01*
X12043198Y-291721D01*
X12043198Y-277435D01*
X12028912Y-248864D01*
X12000341Y-234578D01*
X11957484Y-234578D01*
X11928912Y-220292D01*
X11914627Y-191721D01*
X11914627Y-177435D01*
X11928912Y-148864D01*
X11957484Y-134578D01*
X12000341Y-134578D01*
X12028912Y-148864D01*
X12143198Y-448864D02*
X12157484Y-434578D01*
X12186055Y-391721D01*
X12200341Y-363150D01*
X12214627Y-320292D01*
X12228912Y-248864D01*
X12228912Y-191721D01*
X12214627Y-120292D01*
X12200341Y-77435D01*
X12186055Y-48864D01*
X12157484Y-6007D01*
X12143198Y8279D01*
X5371055Y-594864D02*
G75*
G03*
X5371055Y-594864I-30000J0D01*
G01*
X5714627Y-430578D02*
X5743198Y-430578D01*
X5771770Y-444864D01*
X5786055Y-459150D01*
X5800341Y-487721D01*
X5814627Y-544864D01*
X5814627Y-616292D01*
X5800341Y-673435D01*
X5786055Y-702007D01*
X5771770Y-716292D01*
X5743198Y-730578D01*
X5714627Y-730578D01*
X5686055Y-716292D01*
X5671770Y-702007D01*
X5657484Y-673435D01*
X5643198Y-616292D01*
X5643198Y-544864D01*
X5657484Y-487721D01*
X5671770Y-459150D01*
X5686055Y-444864D01*
X5714627Y-430578D01*
X5943198Y-702007D02*
X5957484Y-716292D01*
X5943198Y-730578D01*
X5928912Y-716292D01*
X5943198Y-702007D01*
X5943198Y-730578D01*
X6214627Y-430578D02*
X6157484Y-430578D01*
X6128912Y-444864D01*
X6114627Y-459150D01*
X6086055Y-502007D01*
X6071770Y-559150D01*
X6071770Y-673435D01*
X6086055Y-702007D01*
X6100341Y-716292D01*
X6128912Y-730578D01*
X6186055Y-730578D01*
X6214627Y-716292D01*
X6228912Y-702007D01*
X6243198Y-673435D01*
X6243198Y-602007D01*
X6228912Y-573435D01*
X6214627Y-559150D01*
X6186055Y-544864D01*
X6128912Y-544864D01*
X6100341Y-559150D01*
X6086055Y-573435D01*
X6071770Y-602007D01*
X6428912Y-430578D02*
X6457484Y-430578D01*
X6486055Y-444864D01*
X6500341Y-459150D01*
X6514627Y-487721D01*
X6528912Y-544864D01*
X6528912Y-616292D01*
X6514627Y-673435D01*
X6500341Y-702007D01*
X6486055Y-716292D01*
X6457484Y-730578D01*
X6428912Y-730578D01*
X6400341Y-716292D01*
X6386055Y-702007D01*
X6371770Y-673435D01*
X6357484Y-616292D01*
X6357484Y-544864D01*
X6371770Y-487721D01*
X6386055Y-459150D01*
X6400341Y-444864D01*
X6428912Y-430578D01*
X6657484Y-730578D02*
X6657484Y-530578D01*
X6657484Y-559150D02*
X6671770Y-544864D01*
X6700341Y-530578D01*
X6743198Y-530578D01*
X6771770Y-544864D01*
X6786055Y-573435D01*
X6786055Y-730578D01*
X6786055Y-573435D02*
X6800341Y-544864D01*
X6828912Y-530578D01*
X6871770Y-530578D01*
X6900341Y-544864D01*
X6914627Y-573435D01*
X6914627Y-730578D01*
X7057484Y-730578D02*
X7057484Y-530578D01*
X7057484Y-559150D02*
X7071770Y-544864D01*
X7100341Y-530578D01*
X7143198Y-530578D01*
X7171770Y-544864D01*
X7186055Y-573435D01*
X7186055Y-730578D01*
X7186055Y-573435D02*
X7200341Y-544864D01*
X7228912Y-530578D01*
X7271770Y-530578D01*
X7300341Y-544864D01*
X7314627Y-573435D01*
X7314627Y-730578D01*
X7900341Y-416292D02*
X7643198Y-802007D01*
X8286055Y-430578D02*
X8314627Y-430578D01*
X8343198Y-444864D01*
X8357484Y-459150D01*
X8371770Y-487721D01*
X8386055Y-544864D01*
X8386055Y-616292D01*
X8371770Y-673435D01*
X8357484Y-702007D01*
X8343198Y-716292D01*
X8314627Y-730578D01*
X8286055Y-730578D01*
X8257484Y-716292D01*
X8243198Y-702007D01*
X8228912Y-673435D01*
X8214627Y-616292D01*
X8214627Y-544864D01*
X8228912Y-487721D01*
X8243198Y-459150D01*
X8257484Y-444864D01*
X8286055Y-430578D01*
X8514627Y-702007D02*
X8528913Y-716292D01*
X8514627Y-730578D01*
X8500341Y-716292D01*
X8514627Y-702007D01*
X8514627Y-730578D01*
X8714627Y-430578D02*
X8743198Y-430578D01*
X8771770Y-444864D01*
X8786055Y-459150D01*
X8800341Y-487721D01*
X8814627Y-544864D01*
X8814627Y-616292D01*
X8800341Y-673435D01*
X8786055Y-702007D01*
X8771770Y-716292D01*
X8743198Y-730578D01*
X8714627Y-730578D01*
X8686055Y-716292D01*
X8671770Y-702007D01*
X8657484Y-673435D01*
X8643198Y-616292D01*
X8643198Y-544864D01*
X8657484Y-487721D01*
X8671770Y-459150D01*
X8686055Y-444864D01*
X8714627Y-430578D01*
X8928913Y-459150D02*
X8943198Y-444864D01*
X8971770Y-430578D01*
X9043198Y-430578D01*
X9071770Y-444864D01*
X9086055Y-459150D01*
X9100341Y-487721D01*
X9100341Y-516292D01*
X9086055Y-559150D01*
X8914627Y-730578D01*
X9100341Y-730578D01*
X9357484Y-530578D02*
X9357484Y-730578D01*
X9286055Y-416292D02*
X9214627Y-630578D01*
X9400341Y-630578D01*
X9500341Y-430578D02*
X9500341Y-487721D01*
X9614627Y-430578D02*
X9614627Y-487721D01*
X10057484Y-844864D02*
X10043198Y-830578D01*
X10014627Y-787721D01*
X10000341Y-759150D01*
X9986055Y-716292D01*
X9971770Y-644864D01*
X9971770Y-587721D01*
X9986055Y-516292D01*
X10000341Y-473435D01*
X10014627Y-444864D01*
X10043198Y-402007D01*
X10057484Y-387721D01*
X10228913Y-430578D02*
X10257484Y-430578D01*
X10286055Y-444864D01*
X10300341Y-459150D01*
X10314627Y-487721D01*
X10328913Y-544864D01*
X10328913Y-616292D01*
X10314627Y-673435D01*
X10300341Y-702007D01*
X10286055Y-716292D01*
X10257484Y-730578D01*
X10228913Y-730578D01*
X10200341Y-716292D01*
X10186055Y-702007D01*
X10171770Y-673435D01*
X10157484Y-616292D01*
X10157484Y-544864D01*
X10171770Y-487721D01*
X10186055Y-459150D01*
X10200341Y-444864D01*
X10228913Y-430578D01*
X10686055Y-730578D02*
X10686055Y-430578D01*
X10814627Y-730578D02*
X10814627Y-573435D01*
X10800341Y-544864D01*
X10771770Y-530578D01*
X10728913Y-530578D01*
X10700341Y-544864D01*
X10686055Y-559150D01*
X11000341Y-730578D02*
X10971770Y-716292D01*
X10957484Y-702007D01*
X10943198Y-673435D01*
X10943198Y-587721D01*
X10957484Y-559150D01*
X10971770Y-544864D01*
X11000341Y-530578D01*
X11043198Y-530578D01*
X11071770Y-544864D01*
X11086055Y-559150D01*
X11100341Y-587721D01*
X11100341Y-673435D01*
X11086055Y-702007D01*
X11071770Y-716292D01*
X11043198Y-730578D01*
X11000341Y-730578D01*
X11271770Y-730578D02*
X11243198Y-716292D01*
X11228912Y-687721D01*
X11228912Y-430578D01*
X11500341Y-716292D02*
X11471770Y-730578D01*
X11414627Y-730578D01*
X11386055Y-716292D01*
X11371770Y-687721D01*
X11371770Y-573435D01*
X11386055Y-544864D01*
X11414627Y-530578D01*
X11471770Y-530578D01*
X11500341Y-544864D01*
X11514627Y-573435D01*
X11514627Y-602007D01*
X11371770Y-630578D01*
X11628912Y-716292D02*
X11657484Y-730578D01*
X11714627Y-730578D01*
X11743198Y-716292D01*
X11757484Y-687721D01*
X11757484Y-673435D01*
X11743198Y-644864D01*
X11714627Y-630578D01*
X11671770Y-630578D01*
X11643198Y-616292D01*
X11628912Y-587721D01*
X11628912Y-573435D01*
X11643198Y-544864D01*
X11671770Y-530578D01*
X11714627Y-530578D01*
X11743198Y-544864D01*
X12114627Y-616292D02*
X12343198Y-616292D01*
X12228912Y-730578D02*
X12228912Y-502007D01*
X12757484Y-559150D02*
X12728912Y-544864D01*
X12714627Y-530578D01*
X12700341Y-502007D01*
X12700341Y-487721D01*
X12714627Y-459150D01*
X12728912Y-444864D01*
X12757484Y-430578D01*
X12814627Y-430578D01*
X12843198Y-444864D01*
X12857484Y-459150D01*
X12871770Y-487721D01*
X12871770Y-502007D01*
X12857484Y-530578D01*
X12843198Y-544864D01*
X12814627Y-559150D01*
X12757484Y-559150D01*
X12728912Y-573435D01*
X12714627Y-587721D01*
X12700341Y-616292D01*
X12700341Y-673435D01*
X12714627Y-702007D01*
X12728912Y-716292D01*
X12757484Y-730578D01*
X12814627Y-730578D01*
X12843198Y-716292D01*
X12857484Y-702007D01*
X12871770Y-673435D01*
X12871770Y-616292D01*
X12857484Y-587721D01*
X12843198Y-573435D01*
X12814627Y-559150D01*
X13214627Y-716292D02*
X13243198Y-730578D01*
X13300341Y-730578D01*
X13328912Y-716292D01*
X13343198Y-687721D01*
X13343198Y-673435D01*
X13328912Y-644864D01*
X13300341Y-630578D01*
X13257484Y-630578D01*
X13228912Y-616292D01*
X13214627Y-587721D01*
X13214627Y-573435D01*
X13228912Y-544864D01*
X13257484Y-530578D01*
X13300341Y-530578D01*
X13328912Y-544864D01*
X13514627Y-730578D02*
X13486055Y-716292D01*
X13471770Y-687721D01*
X13471770Y-430578D01*
X13671770Y-730578D02*
X13643198Y-716292D01*
X13628912Y-702007D01*
X13614627Y-673435D01*
X13614627Y-587721D01*
X13628912Y-559150D01*
X13643198Y-544864D01*
X13671770Y-530578D01*
X13714627Y-530578D01*
X13743198Y-544864D01*
X13757484Y-559150D01*
X13771770Y-587721D01*
X13771770Y-673435D01*
X13757484Y-702007D01*
X13743198Y-716292D01*
X13714627Y-730578D01*
X13671770Y-730578D01*
X13857484Y-530578D02*
X13971770Y-530578D01*
X13900341Y-430578D02*
X13900341Y-687721D01*
X13914627Y-716292D01*
X13943198Y-730578D01*
X13971770Y-730578D01*
X14057484Y-716292D02*
X14086055Y-730578D01*
X14143198Y-730578D01*
X14171770Y-716292D01*
X14186055Y-687721D01*
X14186055Y-673435D01*
X14171770Y-644864D01*
X14143198Y-630578D01*
X14100341Y-630578D01*
X14071770Y-616292D01*
X14057484Y-587721D01*
X14057484Y-573435D01*
X14071770Y-544864D01*
X14100341Y-530578D01*
X14143198Y-530578D01*
X14171770Y-544864D01*
X14286055Y-844864D02*
X14300341Y-830578D01*
X14328912Y-787721D01*
X14343198Y-759150D01*
X14357484Y-716292D01*
X14371770Y-644864D01*
X14371770Y-587721D01*
X14357484Y-516292D01*
X14343198Y-473435D01*
X14328912Y-444864D01*
X14300341Y-402007D01*
X14286055Y-387721D01*
X5338555Y-958364D02*
X5338555Y-1023364D01*
X5306055Y-990864D02*
X5371055Y-990864D01*
X5714627Y-826578D02*
X5743198Y-826578D01*
X5771770Y-840864D01*
X5786055Y-855150D01*
X5800341Y-883721D01*
X5814627Y-940864D01*
X5814627Y-1012292D01*
X5800341Y-1069435D01*
X5786055Y-1098007D01*
X5771770Y-1112292D01*
X5743198Y-1126578D01*
X5714627Y-1126578D01*
X5686055Y-1112292D01*
X5671770Y-1098007D01*
X5657484Y-1069435D01*
X5643198Y-1012292D01*
X5643198Y-940864D01*
X5657484Y-883721D01*
X5671770Y-855150D01*
X5686055Y-840864D01*
X5714627Y-826578D01*
X5943198Y-1098007D02*
X5957484Y-1112292D01*
X5943198Y-1126578D01*
X5928912Y-1112292D01*
X5943198Y-1098007D01*
X5943198Y-1126578D01*
X6214627Y-826578D02*
X6157484Y-826578D01*
X6128912Y-840864D01*
X6114627Y-855150D01*
X6086055Y-898007D01*
X6071770Y-955150D01*
X6071770Y-1069435D01*
X6086055Y-1098007D01*
X6100341Y-1112292D01*
X6128912Y-1126578D01*
X6186055Y-1126578D01*
X6214627Y-1112292D01*
X6228912Y-1098007D01*
X6243198Y-1069435D01*
X6243198Y-998007D01*
X6228912Y-969435D01*
X6214627Y-955150D01*
X6186055Y-940864D01*
X6128912Y-940864D01*
X6100341Y-955150D01*
X6086055Y-969435D01*
X6071770Y-998007D01*
X6514627Y-826578D02*
X6371770Y-826578D01*
X6357484Y-969435D01*
X6371770Y-955150D01*
X6400341Y-940864D01*
X6471770Y-940864D01*
X6500341Y-955150D01*
X6514627Y-969435D01*
X6528912Y-998007D01*
X6528912Y-1069435D01*
X6514627Y-1098007D01*
X6500341Y-1112292D01*
X6471770Y-1126578D01*
X6400341Y-1126578D01*
X6371770Y-1112292D01*
X6357484Y-1098007D01*
X6657484Y-1126578D02*
X6657484Y-926578D01*
X6657484Y-955150D02*
X6671770Y-940864D01*
X6700341Y-926578D01*
X6743198Y-926578D01*
X6771770Y-940864D01*
X6786055Y-969435D01*
X6786055Y-1126578D01*
X6786055Y-969435D02*
X6800341Y-940864D01*
X6828912Y-926578D01*
X6871770Y-926578D01*
X6900341Y-940864D01*
X6914627Y-969435D01*
X6914627Y-1126578D01*
X7057484Y-1126578D02*
X7057484Y-926578D01*
X7057484Y-955150D02*
X7071770Y-940864D01*
X7100341Y-926578D01*
X7143198Y-926578D01*
X7171770Y-940864D01*
X7186055Y-969435D01*
X7186055Y-1126578D01*
X7186055Y-969435D02*
X7200341Y-940864D01*
X7228912Y-926578D01*
X7271770Y-926578D01*
X7300341Y-940864D01*
X7314627Y-969435D01*
X7314627Y-1126578D01*
X7900341Y-812292D02*
X7643198Y-1198007D01*
X8286055Y-826578D02*
X8314627Y-826578D01*
X8343198Y-840864D01*
X8357484Y-855150D01*
X8371770Y-883721D01*
X8386055Y-940864D01*
X8386055Y-1012292D01*
X8371770Y-1069435D01*
X8357484Y-1098007D01*
X8343198Y-1112292D01*
X8314627Y-1126578D01*
X8286055Y-1126578D01*
X8257484Y-1112292D01*
X8243198Y-1098007D01*
X8228912Y-1069435D01*
X8214627Y-1012292D01*
X8214627Y-940864D01*
X8228912Y-883721D01*
X8243198Y-855150D01*
X8257484Y-840864D01*
X8286055Y-826578D01*
X8514627Y-1098007D02*
X8528913Y-1112292D01*
X8514627Y-1126578D01*
X8500341Y-1112292D01*
X8514627Y-1098007D01*
X8514627Y-1126578D01*
X8714627Y-826578D02*
X8743198Y-826578D01*
X8771770Y-840864D01*
X8786055Y-855150D01*
X8800341Y-883721D01*
X8814627Y-940864D01*
X8814627Y-1012292D01*
X8800341Y-1069435D01*
X8786055Y-1098007D01*
X8771770Y-1112292D01*
X8743198Y-1126578D01*
X8714627Y-1126578D01*
X8686055Y-1112292D01*
X8671770Y-1098007D01*
X8657484Y-1069435D01*
X8643198Y-1012292D01*
X8643198Y-940864D01*
X8657484Y-883721D01*
X8671770Y-855150D01*
X8686055Y-840864D01*
X8714627Y-826578D01*
X8928913Y-855150D02*
X8943198Y-840864D01*
X8971770Y-826578D01*
X9043198Y-826578D01*
X9071770Y-840864D01*
X9086055Y-855150D01*
X9100341Y-883721D01*
X9100341Y-912292D01*
X9086055Y-955150D01*
X8914627Y-1126578D01*
X9100341Y-1126578D01*
X9357484Y-826578D02*
X9300341Y-826578D01*
X9271770Y-840864D01*
X9257484Y-855150D01*
X9228913Y-898007D01*
X9214627Y-955150D01*
X9214627Y-1069435D01*
X9228913Y-1098007D01*
X9243198Y-1112292D01*
X9271770Y-1126578D01*
X9328913Y-1126578D01*
X9357484Y-1112292D01*
X9371770Y-1098007D01*
X9386055Y-1069435D01*
X9386055Y-998007D01*
X9371770Y-969435D01*
X9357484Y-955150D01*
X9328913Y-940864D01*
X9271770Y-940864D01*
X9243198Y-955150D01*
X9228913Y-969435D01*
X9214627Y-998007D01*
X9500341Y-826578D02*
X9500341Y-883721D01*
X9614627Y-826578D02*
X9614627Y-883721D01*
X10057484Y-1240864D02*
X10043198Y-1226578D01*
X10014627Y-1183721D01*
X10000341Y-1155150D01*
X9986055Y-1112292D01*
X9971770Y-1040864D01*
X9971770Y-983721D01*
X9986055Y-912292D01*
X10000341Y-869435D01*
X10014627Y-840864D01*
X10043198Y-798007D01*
X10057484Y-783721D01*
X10328913Y-1126578D02*
X10157484Y-1126578D01*
X10243198Y-1126578D02*
X10243198Y-826578D01*
X10214627Y-869435D01*
X10186055Y-898007D01*
X10157484Y-912292D01*
X10586055Y-926578D02*
X10586055Y-1126578D01*
X10514627Y-812292D02*
X10443198Y-1026578D01*
X10628913Y-1026578D01*
X10971770Y-1126578D02*
X10971770Y-826578D01*
X11100341Y-1126578D02*
X11100341Y-969435D01*
X11086055Y-940864D01*
X11057484Y-926578D01*
X11014627Y-926578D01*
X10986055Y-940864D01*
X10971770Y-955150D01*
X11286055Y-1126578D02*
X11257484Y-1112292D01*
X11243198Y-1098007D01*
X11228912Y-1069435D01*
X11228912Y-983721D01*
X11243198Y-955150D01*
X11257484Y-940864D01*
X11286055Y-926578D01*
X11328912Y-926578D01*
X11357484Y-940864D01*
X11371770Y-955150D01*
X11386055Y-983721D01*
X11386055Y-1069435D01*
X11371770Y-1098007D01*
X11357484Y-1112292D01*
X11328912Y-1126578D01*
X11286055Y-1126578D01*
X11557484Y-1126578D02*
X11528912Y-1112292D01*
X11514627Y-1083721D01*
X11514627Y-826578D01*
X11786055Y-1112292D02*
X11757484Y-1126578D01*
X11700341Y-1126578D01*
X11671770Y-1112292D01*
X11657484Y-1083721D01*
X11657484Y-969435D01*
X11671770Y-940864D01*
X11700341Y-926578D01*
X11757484Y-926578D01*
X11786055Y-940864D01*
X11800341Y-969435D01*
X11800341Y-998007D01*
X11657484Y-1026578D01*
X11914627Y-1112292D02*
X11943198Y-1126578D01*
X12000341Y-1126578D01*
X12028912Y-1112292D01*
X12043198Y-1083721D01*
X12043198Y-1069435D01*
X12028912Y-1040864D01*
X12000341Y-1026578D01*
X11957484Y-1026578D01*
X11928912Y-1012292D01*
X11914627Y-983721D01*
X11914627Y-969435D01*
X11928912Y-940864D01*
X11957484Y-926578D01*
X12000341Y-926578D01*
X12028912Y-940864D01*
X12143198Y-1240864D02*
X12157484Y-1226578D01*
X12186055Y-1183721D01*
X12200341Y-1155150D01*
X12214627Y-1112292D01*
X12228912Y-1040864D01*
X12228912Y-983721D01*
X12214627Y-912292D01*
X12200341Y-869435D01*
X12186055Y-840864D01*
X12157484Y-798007D01*
X12143198Y-783721D01*
X5357876Y-1418684D02*
X5357876Y-1355044D01*
X5294235Y-1355044D01*
X5294235Y-1418684D01*
X5357876Y-1418684D01*
X5714627Y-1222578D02*
X5743198Y-1222578D01*
X5771770Y-1236864D01*
X5786055Y-1251150D01*
X5800341Y-1279721D01*
X5814627Y-1336864D01*
X5814627Y-1408292D01*
X5800341Y-1465435D01*
X5786055Y-1494007D01*
X5771770Y-1508292D01*
X5743198Y-1522578D01*
X5714627Y-1522578D01*
X5686055Y-1508292D01*
X5671770Y-1494007D01*
X5657484Y-1465435D01*
X5643198Y-1408292D01*
X5643198Y-1336864D01*
X5657484Y-1279721D01*
X5671770Y-1251150D01*
X5686055Y-1236864D01*
X5714627Y-1222578D01*
X5943198Y-1494007D02*
X5957484Y-1508292D01*
X5943198Y-1522578D01*
X5928912Y-1508292D01*
X5943198Y-1494007D01*
X5943198Y-1522578D01*
X6100341Y-1522578D02*
X6157484Y-1522578D01*
X6186055Y-1508292D01*
X6200341Y-1494007D01*
X6228912Y-1451150D01*
X6243198Y-1394007D01*
X6243198Y-1279721D01*
X6228912Y-1251150D01*
X6214627Y-1236864D01*
X6186055Y-1222578D01*
X6128912Y-1222578D01*
X6100341Y-1236864D01*
X6086055Y-1251150D01*
X6071770Y-1279721D01*
X6071770Y-1351150D01*
X6086055Y-1379721D01*
X6100341Y-1394007D01*
X6128912Y-1408292D01*
X6186055Y-1408292D01*
X6214627Y-1394007D01*
X6228912Y-1379721D01*
X6243198Y-1351150D01*
X6428912Y-1222578D02*
X6457484Y-1222578D01*
X6486055Y-1236864D01*
X6500341Y-1251150D01*
X6514627Y-1279721D01*
X6528912Y-1336864D01*
X6528912Y-1408292D01*
X6514627Y-1465435D01*
X6500341Y-1494007D01*
X6486055Y-1508292D01*
X6457484Y-1522578D01*
X6428912Y-1522578D01*
X6400341Y-1508292D01*
X6386055Y-1494007D01*
X6371770Y-1465435D01*
X6357484Y-1408292D01*
X6357484Y-1336864D01*
X6371770Y-1279721D01*
X6386055Y-1251150D01*
X6400341Y-1236864D01*
X6428912Y-1222578D01*
X6657484Y-1522578D02*
X6657484Y-1322578D01*
X6657484Y-1351150D02*
X6671770Y-1336864D01*
X6700341Y-1322578D01*
X6743198Y-1322578D01*
X6771770Y-1336864D01*
X6786055Y-1365435D01*
X6786055Y-1522578D01*
X6786055Y-1365435D02*
X6800341Y-1336864D01*
X6828912Y-1322578D01*
X6871770Y-1322578D01*
X6900341Y-1336864D01*
X6914627Y-1365435D01*
X6914627Y-1522578D01*
X7057484Y-1522578D02*
X7057484Y-1322578D01*
X7057484Y-1351150D02*
X7071770Y-1336864D01*
X7100341Y-1322578D01*
X7143198Y-1322578D01*
X7171770Y-1336864D01*
X7186055Y-1365435D01*
X7186055Y-1522578D01*
X7186055Y-1365435D02*
X7200341Y-1336864D01*
X7228912Y-1322578D01*
X7271770Y-1322578D01*
X7300341Y-1336864D01*
X7314627Y-1365435D01*
X7314627Y-1522578D01*
X7900341Y-1208292D02*
X7643198Y-1594007D01*
X8286055Y-1222578D02*
X8314627Y-1222578D01*
X8343198Y-1236864D01*
X8357484Y-1251150D01*
X8371770Y-1279721D01*
X8386055Y-1336864D01*
X8386055Y-1408292D01*
X8371770Y-1465435D01*
X8357484Y-1494007D01*
X8343198Y-1508292D01*
X8314627Y-1522578D01*
X8286055Y-1522578D01*
X8257484Y-1508292D01*
X8243198Y-1494007D01*
X8228912Y-1465435D01*
X8214627Y-1408292D01*
X8214627Y-1336864D01*
X8228912Y-1279721D01*
X8243198Y-1251150D01*
X8257484Y-1236864D01*
X8286055Y-1222578D01*
X8514627Y-1494007D02*
X8528913Y-1508292D01*
X8514627Y-1522578D01*
X8500341Y-1508292D01*
X8514627Y-1494007D01*
X8514627Y-1522578D01*
X8714627Y-1222578D02*
X8743198Y-1222578D01*
X8771770Y-1236864D01*
X8786055Y-1251150D01*
X8800341Y-1279721D01*
X8814627Y-1336864D01*
X8814627Y-1408292D01*
X8800341Y-1465435D01*
X8786055Y-1494007D01*
X8771770Y-1508292D01*
X8743198Y-1522578D01*
X8714627Y-1522578D01*
X8686055Y-1508292D01*
X8671770Y-1494007D01*
X8657484Y-1465435D01*
X8643198Y-1408292D01*
X8643198Y-1336864D01*
X8657484Y-1279721D01*
X8671770Y-1251150D01*
X8686055Y-1236864D01*
X8714627Y-1222578D01*
X8914627Y-1222578D02*
X9100341Y-1222578D01*
X9000341Y-1336864D01*
X9043198Y-1336864D01*
X9071770Y-1351150D01*
X9086055Y-1365435D01*
X9100341Y-1394007D01*
X9100341Y-1465435D01*
X9086055Y-1494007D01*
X9071770Y-1508292D01*
X9043198Y-1522578D01*
X8957484Y-1522578D01*
X8928913Y-1508292D01*
X8914627Y-1494007D01*
X9371770Y-1222578D02*
X9228913Y-1222578D01*
X9214627Y-1365435D01*
X9228913Y-1351150D01*
X9257484Y-1336864D01*
X9328913Y-1336864D01*
X9357484Y-1351150D01*
X9371770Y-1365435D01*
X9386055Y-1394007D01*
X9386055Y-1465435D01*
X9371770Y-1494007D01*
X9357484Y-1508292D01*
X9328913Y-1522578D01*
X9257484Y-1522578D01*
X9228913Y-1508292D01*
X9214627Y-1494007D01*
X9500341Y-1222578D02*
X9500341Y-1279721D01*
X9614627Y-1222578D02*
X9614627Y-1279721D01*
X10057484Y-1636864D02*
X10043198Y-1622578D01*
X10014627Y-1579721D01*
X10000341Y-1551150D01*
X9986055Y-1508292D01*
X9971770Y-1436864D01*
X9971770Y-1379721D01*
X9986055Y-1308292D01*
X10000341Y-1265435D01*
X10014627Y-1236864D01*
X10043198Y-1194007D01*
X10057484Y-1179721D01*
X10300341Y-1222578D02*
X10243198Y-1222578D01*
X10214627Y-1236864D01*
X10200341Y-1251150D01*
X10171770Y-1294007D01*
X10157484Y-1351150D01*
X10157484Y-1465435D01*
X10171770Y-1494007D01*
X10186055Y-1508292D01*
X10214627Y-1522578D01*
X10271770Y-1522578D01*
X10300341Y-1508292D01*
X10314627Y-1494007D01*
X10328913Y-1465435D01*
X10328913Y-1394007D01*
X10314627Y-1365435D01*
X10300341Y-1351150D01*
X10271770Y-1336864D01*
X10214627Y-1336864D01*
X10186055Y-1351150D01*
X10171770Y-1365435D01*
X10157484Y-1394007D01*
X10686055Y-1522578D02*
X10686055Y-1222578D01*
X10814627Y-1522578D02*
X10814627Y-1365435D01*
X10800341Y-1336864D01*
X10771770Y-1322578D01*
X10728913Y-1322578D01*
X10700341Y-1336864D01*
X10686055Y-1351150D01*
X11000341Y-1522578D02*
X10971770Y-1508292D01*
X10957484Y-1494007D01*
X10943198Y-1465435D01*
X10943198Y-1379721D01*
X10957484Y-1351150D01*
X10971770Y-1336864D01*
X11000341Y-1322578D01*
X11043198Y-1322578D01*
X11071770Y-1336864D01*
X11086055Y-1351150D01*
X11100341Y-1379721D01*
X11100341Y-1465435D01*
X11086055Y-1494007D01*
X11071770Y-1508292D01*
X11043198Y-1522578D01*
X11000341Y-1522578D01*
X11271770Y-1522578D02*
X11243198Y-1508292D01*
X11228912Y-1479721D01*
X11228912Y-1222578D01*
X11500341Y-1508292D02*
X11471770Y-1522578D01*
X11414627Y-1522578D01*
X11386055Y-1508292D01*
X11371770Y-1479721D01*
X11371770Y-1365435D01*
X11386055Y-1336864D01*
X11414627Y-1322578D01*
X11471770Y-1322578D01*
X11500341Y-1336864D01*
X11514627Y-1365435D01*
X11514627Y-1394007D01*
X11371770Y-1422578D01*
X11628912Y-1508292D02*
X11657484Y-1522578D01*
X11714627Y-1522578D01*
X11743198Y-1508292D01*
X11757484Y-1479721D01*
X11757484Y-1465435D01*
X11743198Y-1436864D01*
X11714627Y-1422578D01*
X11671770Y-1422578D01*
X11643198Y-1408292D01*
X11628912Y-1379721D01*
X11628912Y-1365435D01*
X11643198Y-1336864D01*
X11671770Y-1322578D01*
X11714627Y-1322578D01*
X11743198Y-1336864D01*
X11857484Y-1636864D02*
X11871770Y-1622578D01*
X11900341Y-1579721D01*
X11914627Y-1551150D01*
X11928912Y-1508292D01*
X11943198Y-1436864D01*
X11943198Y-1379721D01*
X11928912Y-1308292D01*
X11914627Y-1265435D01*
X11900341Y-1236864D01*
X11871770Y-1194007D01*
X11857484Y-1179721D01*
X5316055Y-1837864D02*
X5371055Y-1782864D01*
X5316055Y-1727864D01*
X5261055Y-1782864D01*
X5316055Y-1837864D01*
X5814627Y-1918578D02*
X5643198Y-1918578D01*
X5728912Y-1918578D02*
X5728912Y-1618578D01*
X5700341Y-1661435D01*
X5671770Y-1690007D01*
X5643198Y-1704292D01*
X5943198Y-1890007D02*
X5957484Y-1904292D01*
X5943198Y-1918578D01*
X5928912Y-1904292D01*
X5943198Y-1890007D01*
X5943198Y-1918578D01*
X6243198Y-1918578D02*
X6071770Y-1918578D01*
X6157484Y-1918578D02*
X6157484Y-1618578D01*
X6128912Y-1661435D01*
X6100341Y-1690007D01*
X6071770Y-1704292D01*
X6428912Y-1618578D02*
X6457484Y-1618578D01*
X6486055Y-1632864D01*
X6500341Y-1647150D01*
X6514627Y-1675721D01*
X6528912Y-1732864D01*
X6528912Y-1804292D01*
X6514627Y-1861435D01*
X6500341Y-1890007D01*
X6486055Y-1904292D01*
X6457484Y-1918578D01*
X6428912Y-1918578D01*
X6400341Y-1904292D01*
X6386055Y-1890007D01*
X6371770Y-1861435D01*
X6357484Y-1804292D01*
X6357484Y-1732864D01*
X6371770Y-1675721D01*
X6386055Y-1647150D01*
X6400341Y-1632864D01*
X6428912Y-1618578D01*
X6657484Y-1918578D02*
X6657484Y-1718578D01*
X6657484Y-1747150D02*
X6671770Y-1732864D01*
X6700341Y-1718578D01*
X6743198Y-1718578D01*
X6771770Y-1732864D01*
X6786055Y-1761435D01*
X6786055Y-1918578D01*
X6786055Y-1761435D02*
X6800341Y-1732864D01*
X6828912Y-1718578D01*
X6871770Y-1718578D01*
X6900341Y-1732864D01*
X6914627Y-1761435D01*
X6914627Y-1918578D01*
X7057484Y-1918578D02*
X7057484Y-1718578D01*
X7057484Y-1747150D02*
X7071770Y-1732864D01*
X7100341Y-1718578D01*
X7143198Y-1718578D01*
X7171770Y-1732864D01*
X7186055Y-1761435D01*
X7186055Y-1918578D01*
X7186055Y-1761435D02*
X7200341Y-1732864D01*
X7228912Y-1718578D01*
X7271770Y-1718578D01*
X7300341Y-1732864D01*
X7314627Y-1761435D01*
X7314627Y-1918578D01*
X7900341Y-1604292D02*
X7643198Y-1990007D01*
X8286055Y-1618578D02*
X8314627Y-1618578D01*
X8343198Y-1632864D01*
X8357484Y-1647150D01*
X8371770Y-1675721D01*
X8386055Y-1732864D01*
X8386055Y-1804292D01*
X8371770Y-1861435D01*
X8357484Y-1890007D01*
X8343198Y-1904292D01*
X8314627Y-1918578D01*
X8286055Y-1918578D01*
X8257484Y-1904292D01*
X8243198Y-1890007D01*
X8228912Y-1861435D01*
X8214627Y-1804292D01*
X8214627Y-1732864D01*
X8228912Y-1675721D01*
X8243198Y-1647150D01*
X8257484Y-1632864D01*
X8286055Y-1618578D01*
X8514627Y-1890007D02*
X8528913Y-1904292D01*
X8514627Y-1918578D01*
X8500341Y-1904292D01*
X8514627Y-1890007D01*
X8514627Y-1918578D01*
X8714627Y-1618578D02*
X8743198Y-1618578D01*
X8771770Y-1632864D01*
X8786055Y-1647150D01*
X8800341Y-1675721D01*
X8814627Y-1732864D01*
X8814627Y-1804292D01*
X8800341Y-1861435D01*
X8786055Y-1890007D01*
X8771770Y-1904292D01*
X8743198Y-1918578D01*
X8714627Y-1918578D01*
X8686055Y-1904292D01*
X8671770Y-1890007D01*
X8657484Y-1861435D01*
X8643198Y-1804292D01*
X8643198Y-1732864D01*
X8657484Y-1675721D01*
X8671770Y-1647150D01*
X8686055Y-1632864D01*
X8714627Y-1618578D01*
X9071770Y-1718578D02*
X9071770Y-1918578D01*
X9000341Y-1604292D02*
X8928913Y-1818578D01*
X9114627Y-1818578D01*
X9200341Y-1618578D02*
X9386055Y-1618578D01*
X9286055Y-1732864D01*
X9328913Y-1732864D01*
X9357484Y-1747150D01*
X9371770Y-1761435D01*
X9386055Y-1790007D01*
X9386055Y-1861435D01*
X9371770Y-1890007D01*
X9357484Y-1904292D01*
X9328913Y-1918578D01*
X9243198Y-1918578D01*
X9214627Y-1904292D01*
X9200341Y-1890007D01*
X9500341Y-1618578D02*
X9500341Y-1675721D01*
X9614627Y-1618578D02*
X9614627Y-1675721D01*
X10057484Y-2032864D02*
X10043198Y-2018578D01*
X10014627Y-1975721D01*
X10000341Y-1947150D01*
X9986055Y-1904292D01*
X9971770Y-1832864D01*
X9971770Y-1775721D01*
X9986055Y-1704292D01*
X10000341Y-1661435D01*
X10014627Y-1632864D01*
X10043198Y-1590007D01*
X10057484Y-1575721D01*
X10300341Y-1718578D02*
X10300341Y-1918578D01*
X10228913Y-1604292D02*
X10157484Y-1818578D01*
X10343198Y-1818578D01*
X10686055Y-1918578D02*
X10686055Y-1618578D01*
X10814627Y-1918578D02*
X10814627Y-1761435D01*
X10800341Y-1732864D01*
X10771770Y-1718578D01*
X10728913Y-1718578D01*
X10700341Y-1732864D01*
X10686055Y-1747150D01*
X11000341Y-1918578D02*
X10971770Y-1904292D01*
X10957484Y-1890007D01*
X10943198Y-1861435D01*
X10943198Y-1775721D01*
X10957484Y-1747150D01*
X10971770Y-1732864D01*
X11000341Y-1718578D01*
X11043198Y-1718578D01*
X11071770Y-1732864D01*
X11086055Y-1747150D01*
X11100341Y-1775721D01*
X11100341Y-1861435D01*
X11086055Y-1890007D01*
X11071770Y-1904292D01*
X11043198Y-1918578D01*
X11000341Y-1918578D01*
X11271770Y-1918578D02*
X11243198Y-1904292D01*
X11228912Y-1875721D01*
X11228912Y-1618578D01*
X11500341Y-1904292D02*
X11471770Y-1918578D01*
X11414627Y-1918578D01*
X11386055Y-1904292D01*
X11371770Y-1875721D01*
X11371770Y-1761435D01*
X11386055Y-1732864D01*
X11414627Y-1718578D01*
X11471770Y-1718578D01*
X11500341Y-1732864D01*
X11514627Y-1761435D01*
X11514627Y-1790007D01*
X11371770Y-1818578D01*
X11628912Y-1904292D02*
X11657484Y-1918578D01*
X11714627Y-1918578D01*
X11743198Y-1904292D01*
X11757484Y-1875721D01*
X11757484Y-1861435D01*
X11743198Y-1832864D01*
X11714627Y-1818578D01*
X11671770Y-1818578D01*
X11643198Y-1804292D01*
X11628912Y-1775721D01*
X11628912Y-1761435D01*
X11643198Y-1732864D01*
X11671770Y-1718578D01*
X11714627Y-1718578D01*
X11743198Y-1732864D01*
X11857484Y-2032864D02*
X11871770Y-2018578D01*
X11900341Y-1975721D01*
X11914627Y-1947150D01*
X11928912Y-1904292D01*
X11943198Y-1832864D01*
X11943198Y-1775721D01*
X11928912Y-1704292D01*
X11914627Y-1661435D01*
X11900341Y-1632864D01*
X11871770Y-1590007D01*
X11857484Y-1575721D01*
M02*
