M48
; DRILL file {KiCad (5.1.5)-3} date 04/21/20 20:59:23
; FORMAT={-:-/ absolute / inch / decimal}
; #@! TF.CreationDate,2020-04-21T20:59:23+02:00
; #@! TF.GenerationSoftware,Kicad,Pcbnew,(5.1.5)-3
; #@! TF.FileFunction,Plated,1,2,PTH
FMAT,2
INCH
T1C0.0118
T2C0.0197
T3C0.0217
T4C0.0256
T5C0.0315
T6C0.0394
T7C0.0787
%
G90
G05
T1
X2.7992Y-1.9724
X2.8189Y-1.9488
X2.8406Y-1.9724
X2.8622Y-1.9488
X2.8976Y-1.9724
X3.0256Y-2.4469
X3.0256Y-2.5217
X3.0472Y-2.8898
X3.0709Y-2.815
X3.1575Y-2.7047
X3.1811Y-2.2087
X3.1811Y-2.3898
X3.2146Y-2.6161
X3.2323Y-2.4547
X3.25Y-2.6161
X3.2638Y-2.815
X3.2638Y-2.8898
X3.2756Y-1.7677
X3.2756Y-1.7992
X3.3071Y-1.7677
X3.3071Y-1.7992
X3.3228Y-2.689
X3.3386Y-1.9882
X3.3386Y-2.315
X3.3465Y-2.7283
X3.3622Y-2.6575
X3.3858Y-2.626
X3.4094Y-2.689
X3.4331Y-2.7205
X3.4882Y-2.3425
X3.5512Y-2.8346
X3.5827Y-2.8051
X3.5945Y-2.6299
X3.6142Y-2.7717
X3.626Y-2.6299
X3.6457Y-2.7992
X3.6772Y-2.5098
X3.6772Y-2.7087
X3.6772Y-2.8386
X3.7008Y-2.6772
X3.7008Y-4.0591
X3.7008Y-4.1142
X3.7087Y-2.8031
X3.7087Y-2.8386
X3.7244Y-2.7087
X3.7244Y-3.1339
X3.7303Y-2.6476
X3.752Y-2.8031
X3.752Y-2.8543
X3.7638Y-3.1339
X3.8583Y-2.8465
X3.8976Y-2.8346
X3.937Y-2.6614
X3.9803Y-2.7795
X4.124Y-2.7539
X4.2874Y-2.7795
T2
X2.5591Y-1.752
X2.5591Y-1.8504
X2.5591Y-1.9488
X2.6575Y-1.9488
X2.9291Y-2.5197
X2.9291Y-2.6181
X2.9291Y-2.6654
X2.9291Y-2.7126
X3.0079Y-2.8524
X3.0413Y-1.9488
X3.0906Y-2.3031
X3.0906Y-2.3524
X3.0906Y-2.4016
X3.1398Y-1.752
X3.1398Y-1.8504
X3.1398Y-1.9488
X3.189Y-1.7028
X3.2323Y-2.7185
X3.2874Y-1.7028
X3.3858Y-1.7028
X3.4744Y-2.0472
X3.4744Y-2.0965
X3.4744Y-2.1457
X3.4744Y-2.9626
X3.4744Y-3.0118
X3.5236Y-2.4705
X3.5276Y-1.7106
X3.5276Y-1.9173
X3.5433Y-4.6457
X3.5728Y-2.4705
X3.6516Y-2.3031
X3.6516Y-2.9626
X3.6516Y-3.0118
X3.7008Y-2.3031
X3.815Y-2.1654
X3.815Y-2.2146
X3.8287Y-2.5719
X3.8583Y-2.9626
X3.8583Y-3.0118
X3.8642Y-2.1654
X3.8642Y-2.2146
X3.8839Y-2.4902
X3.9134Y-2.1654
X3.9134Y-2.2146
X3.9626Y-2.1654
X3.9626Y-2.2146
X4.124Y-1.6732
X4.124Y-1.7224
X4.124Y-1.7717
X4.124Y-2.6673
X4.124Y-2.8445
X4.124Y-3.0118
X4.1732Y-1.6732
X4.1732Y-1.7224
X4.1732Y-1.7717
X4.2224Y-1.6732
X4.2224Y-1.7224
X4.2224Y-1.7717
T4
X4.265Y-2.2941
X4.265Y-2.3441
X4.265Y-2.3941
X4.265Y-2.4441
X4.265Y-2.4941
X4.265Y-2.5441
X4.265Y-2.5941
X4.315Y-2.2941
X4.315Y-2.3441
X4.315Y-2.3941
X4.315Y-2.4441
X4.315Y-2.4941
X4.315Y-2.5441
X4.315Y-2.5941
T5
X2.628Y-2.1752
X2.7657Y-2.1752
T6
X4.5256Y-2.8839
X3.0929Y-3.1772
X3.0929Y-4.1772
X3.1929Y-3.1772
X3.1929Y-4.1772
X3.2929Y-3.1772
X3.3929Y-3.1772
X3.4929Y-3.1772
X3.5929Y-3.1772
X3.6929Y-3.1772
X3.7929Y-3.1772
X3.8929Y-3.1772
X3.8929Y-4.1772
X3.9929Y-3.1772
X3.9929Y-4.1772
X4.5256Y-2.7146
X4.5276Y-3.0512
T7
X4.4606Y-3.9173
X4.4606Y-4.1339
X4.4606Y-3.7008
T3
G00X2.6378Y-1.7616
M15
G01X2.6378Y-1.7124
M16
G05
G00X2.6378Y-1.8937
M15
G01X2.6378Y-1.8346
M16
G05
G00X3.063Y-1.7616
M15
G01X3.063Y-1.7124
M16
G05
G00X3.063Y-1.8937
M15
G01X3.063Y-1.8346
M16
G05
T0
M30
