%TF.GenerationSoftware,KiCad,Pcbnew,(5.1.9)-1*%
%TF.CreationDate,2021-04-16T14:28:35+02:00*%
%TF.ProjectId,loeti,6c6f6574-692e-46b6-9963-61645f706362,rev?*%
%TF.SameCoordinates,Original*%
%TF.FileFunction,Soldermask,Top*%
%TF.FilePolarity,Negative*%
%FSLAX46Y46*%
G04 Gerber Fmt 4.6, Leading zero omitted, Abs format (unit mm)*
G04 Created by KiCad (PCBNEW (5.1.9)-1) date 2021-04-16 14:28:35*
%MOMM*%
%LPD*%
G01*
G04 APERTURE LIST*
%ADD10C,2.200000*%
%ADD11C,1.800000*%
%ADD12R,1.800000X1.800000*%
%ADD13O,3.200000X1.600000*%
%ADD14R,2.500000X2.430000*%
%ADD15R,0.650000X1.560000*%
%ADD16R,2.700000X2.700000*%
%ADD17C,0.100000*%
%ADD18R,0.900000X1.300000*%
%ADD19R,0.900000X0.800000*%
%ADD20R,0.800000X0.900000*%
%ADD21O,1.000000X1.000000*%
%ADD22R,1.000000X1.000000*%
%ADD23O,1.700000X0.900000*%
%ADD24O,2.400000X0.900000*%
%ADD25C,0.700000*%
%ADD26R,0.900000X1.200000*%
%ADD27R,0.700000X0.450000*%
G04 APERTURE END LIST*
D10*
%TO.C,SW1*%
X68250000Y31180000D03*
X68250000Y26180000D03*
X73250000Y31180000D03*
X73250000Y26180000D03*
%TD*%
%TO.C,R16*%
G36*
G01*
X98737500Y27675000D02*
X98262500Y27675000D01*
G75*
G02*
X98025000Y27912500I0J237500D01*
G01*
X98025000Y28412500D01*
G75*
G02*
X98262500Y28650000I237500J0D01*
G01*
X98737500Y28650000D01*
G75*
G02*
X98975000Y28412500I0J-237500D01*
G01*
X98975000Y27912500D01*
G75*
G02*
X98737500Y27675000I-237500J0D01*
G01*
G37*
G36*
G01*
X98737500Y25850000D02*
X98262500Y25850000D01*
G75*
G02*
X98025000Y26087500I0J237500D01*
G01*
X98025000Y26587500D01*
G75*
G02*
X98262500Y26825000I237500J0D01*
G01*
X98737500Y26825000D01*
G75*
G02*
X98975000Y26587500I0J-237500D01*
G01*
X98975000Y26087500D01*
G75*
G02*
X98737500Y25850000I-237500J0D01*
G01*
G37*
%TD*%
%TO.C,R15*%
G36*
G01*
X96987500Y27675000D02*
X96512500Y27675000D01*
G75*
G02*
X96275000Y27912500I0J237500D01*
G01*
X96275000Y28412500D01*
G75*
G02*
X96512500Y28650000I237500J0D01*
G01*
X96987500Y28650000D01*
G75*
G02*
X97225000Y28412500I0J-237500D01*
G01*
X97225000Y27912500D01*
G75*
G02*
X96987500Y27675000I-237500J0D01*
G01*
G37*
G36*
G01*
X96987500Y25850000D02*
X96512500Y25850000D01*
G75*
G02*
X96275000Y26087500I0J237500D01*
G01*
X96275000Y26587500D01*
G75*
G02*
X96512500Y26825000I237500J0D01*
G01*
X96987500Y26825000D01*
G75*
G02*
X97225000Y26587500I0J-237500D01*
G01*
X97225000Y26087500D01*
G75*
G02*
X96987500Y25850000I-237500J0D01*
G01*
G37*
%TD*%
%TO.C,R14*%
G36*
G01*
X95237500Y27675000D02*
X94762500Y27675000D01*
G75*
G02*
X94525000Y27912500I0J237500D01*
G01*
X94525000Y28412500D01*
G75*
G02*
X94762500Y28650000I237500J0D01*
G01*
X95237500Y28650000D01*
G75*
G02*
X95475000Y28412500I0J-237500D01*
G01*
X95475000Y27912500D01*
G75*
G02*
X95237500Y27675000I-237500J0D01*
G01*
G37*
G36*
G01*
X95237500Y25850000D02*
X94762500Y25850000D01*
G75*
G02*
X94525000Y26087500I0J237500D01*
G01*
X94525000Y26587500D01*
G75*
G02*
X94762500Y26825000I237500J0D01*
G01*
X95237500Y26825000D01*
G75*
G02*
X95475000Y26587500I0J-237500D01*
G01*
X95475000Y26087500D01*
G75*
G02*
X95237500Y25850000I-237500J0D01*
G01*
G37*
%TD*%
D11*
%TO.C,D7*%
X95000000Y24250000D03*
D12*
X95000000Y21710000D03*
%TD*%
D11*
%TO.C,D6*%
X90500000Y24250000D03*
D12*
X90500000Y21710000D03*
%TD*%
D11*
%TO.C,D4*%
X86000000Y24250000D03*
D12*
X86000000Y21710000D03*
%TD*%
%TO.C,U3*%
G36*
G01*
X86950000Y30200000D02*
X85700000Y30200000D01*
G75*
G02*
X85575000Y30325000I0J125000D01*
G01*
X85575000Y30575000D01*
G75*
G02*
X85700000Y30700000I125000J0D01*
G01*
X86950000Y30700000D01*
G75*
G02*
X87075000Y30575000I0J-125000D01*
G01*
X87075000Y30325000D01*
G75*
G02*
X86950000Y30200000I-125000J0D01*
G01*
G37*
G36*
G01*
X86950000Y31000000D02*
X85700000Y31000000D01*
G75*
G02*
X85575000Y31125000I0J125000D01*
G01*
X85575000Y31375000D01*
G75*
G02*
X85700000Y31500000I125000J0D01*
G01*
X86950000Y31500000D01*
G75*
G02*
X87075000Y31375000I0J-125000D01*
G01*
X87075000Y31125000D01*
G75*
G02*
X86950000Y31000000I-125000J0D01*
G01*
G37*
G36*
G01*
X86950000Y31800000D02*
X85700000Y31800000D01*
G75*
G02*
X85575000Y31925000I0J125000D01*
G01*
X85575000Y32175000D01*
G75*
G02*
X85700000Y32300000I125000J0D01*
G01*
X86950000Y32300000D01*
G75*
G02*
X87075000Y32175000I0J-125000D01*
G01*
X87075000Y31925000D01*
G75*
G02*
X86950000Y31800000I-125000J0D01*
G01*
G37*
G36*
G01*
X86950000Y32600000D02*
X85700000Y32600000D01*
G75*
G02*
X85575000Y32725000I0J125000D01*
G01*
X85575000Y32975000D01*
G75*
G02*
X85700000Y33100000I125000J0D01*
G01*
X86950000Y33100000D01*
G75*
G02*
X87075000Y32975000I0J-125000D01*
G01*
X87075000Y32725000D01*
G75*
G02*
X86950000Y32600000I-125000J0D01*
G01*
G37*
G36*
G01*
X86950000Y33400000D02*
X85700000Y33400000D01*
G75*
G02*
X85575000Y33525000I0J125000D01*
G01*
X85575000Y33775000D01*
G75*
G02*
X85700000Y33900000I125000J0D01*
G01*
X86950000Y33900000D01*
G75*
G02*
X87075000Y33775000I0J-125000D01*
G01*
X87075000Y33525000D01*
G75*
G02*
X86950000Y33400000I-125000J0D01*
G01*
G37*
G36*
G01*
X86950000Y34200000D02*
X85700000Y34200000D01*
G75*
G02*
X85575000Y34325000I0J125000D01*
G01*
X85575000Y34575000D01*
G75*
G02*
X85700000Y34700000I125000J0D01*
G01*
X86950000Y34700000D01*
G75*
G02*
X87075000Y34575000I0J-125000D01*
G01*
X87075000Y34325000D01*
G75*
G02*
X86950000Y34200000I-125000J0D01*
G01*
G37*
G36*
G01*
X86950000Y35000000D02*
X85700000Y35000000D01*
G75*
G02*
X85575000Y35125000I0J125000D01*
G01*
X85575000Y35375000D01*
G75*
G02*
X85700000Y35500000I125000J0D01*
G01*
X86950000Y35500000D01*
G75*
G02*
X87075000Y35375000I0J-125000D01*
G01*
X87075000Y35125000D01*
G75*
G02*
X86950000Y35000000I-125000J0D01*
G01*
G37*
G36*
G01*
X86950000Y35800000D02*
X85700000Y35800000D01*
G75*
G02*
X85575000Y35925000I0J125000D01*
G01*
X85575000Y36175000D01*
G75*
G02*
X85700000Y36300000I125000J0D01*
G01*
X86950000Y36300000D01*
G75*
G02*
X87075000Y36175000I0J-125000D01*
G01*
X87075000Y35925000D01*
G75*
G02*
X86950000Y35800000I-125000J0D01*
G01*
G37*
G36*
G01*
X87825000Y36675000D02*
X87575000Y36675000D01*
G75*
G02*
X87450000Y36800000I0J125000D01*
G01*
X87450000Y38050000D01*
G75*
G02*
X87575000Y38175000I125000J0D01*
G01*
X87825000Y38175000D01*
G75*
G02*
X87950000Y38050000I0J-125000D01*
G01*
X87950000Y36800000D01*
G75*
G02*
X87825000Y36675000I-125000J0D01*
G01*
G37*
G36*
G01*
X88625000Y36675000D02*
X88375000Y36675000D01*
G75*
G02*
X88250000Y36800000I0J125000D01*
G01*
X88250000Y38050000D01*
G75*
G02*
X88375000Y38175000I125000J0D01*
G01*
X88625000Y38175000D01*
G75*
G02*
X88750000Y38050000I0J-125000D01*
G01*
X88750000Y36800000D01*
G75*
G02*
X88625000Y36675000I-125000J0D01*
G01*
G37*
G36*
G01*
X89425000Y36675000D02*
X89175000Y36675000D01*
G75*
G02*
X89050000Y36800000I0J125000D01*
G01*
X89050000Y38050000D01*
G75*
G02*
X89175000Y38175000I125000J0D01*
G01*
X89425000Y38175000D01*
G75*
G02*
X89550000Y38050000I0J-125000D01*
G01*
X89550000Y36800000D01*
G75*
G02*
X89425000Y36675000I-125000J0D01*
G01*
G37*
G36*
G01*
X90225000Y36675000D02*
X89975000Y36675000D01*
G75*
G02*
X89850000Y36800000I0J125000D01*
G01*
X89850000Y38050000D01*
G75*
G02*
X89975000Y38175000I125000J0D01*
G01*
X90225000Y38175000D01*
G75*
G02*
X90350000Y38050000I0J-125000D01*
G01*
X90350000Y36800000D01*
G75*
G02*
X90225000Y36675000I-125000J0D01*
G01*
G37*
G36*
G01*
X91025000Y36675000D02*
X90775000Y36675000D01*
G75*
G02*
X90650000Y36800000I0J125000D01*
G01*
X90650000Y38050000D01*
G75*
G02*
X90775000Y38175000I125000J0D01*
G01*
X91025000Y38175000D01*
G75*
G02*
X91150000Y38050000I0J-125000D01*
G01*
X91150000Y36800000D01*
G75*
G02*
X91025000Y36675000I-125000J0D01*
G01*
G37*
G36*
G01*
X91825000Y36675000D02*
X91575000Y36675000D01*
G75*
G02*
X91450000Y36800000I0J125000D01*
G01*
X91450000Y38050000D01*
G75*
G02*
X91575000Y38175000I125000J0D01*
G01*
X91825000Y38175000D01*
G75*
G02*
X91950000Y38050000I0J-125000D01*
G01*
X91950000Y36800000D01*
G75*
G02*
X91825000Y36675000I-125000J0D01*
G01*
G37*
G36*
G01*
X92625000Y36675000D02*
X92375000Y36675000D01*
G75*
G02*
X92250000Y36800000I0J125000D01*
G01*
X92250000Y38050000D01*
G75*
G02*
X92375000Y38175000I125000J0D01*
G01*
X92625000Y38175000D01*
G75*
G02*
X92750000Y38050000I0J-125000D01*
G01*
X92750000Y36800000D01*
G75*
G02*
X92625000Y36675000I-125000J0D01*
G01*
G37*
G36*
G01*
X93425000Y36675000D02*
X93175000Y36675000D01*
G75*
G02*
X93050000Y36800000I0J125000D01*
G01*
X93050000Y38050000D01*
G75*
G02*
X93175000Y38175000I125000J0D01*
G01*
X93425000Y38175000D01*
G75*
G02*
X93550000Y38050000I0J-125000D01*
G01*
X93550000Y36800000D01*
G75*
G02*
X93425000Y36675000I-125000J0D01*
G01*
G37*
G36*
G01*
X95300000Y35800000D02*
X94050000Y35800000D01*
G75*
G02*
X93925000Y35925000I0J125000D01*
G01*
X93925000Y36175000D01*
G75*
G02*
X94050000Y36300000I125000J0D01*
G01*
X95300000Y36300000D01*
G75*
G02*
X95425000Y36175000I0J-125000D01*
G01*
X95425000Y35925000D01*
G75*
G02*
X95300000Y35800000I-125000J0D01*
G01*
G37*
G36*
G01*
X95300000Y35000000D02*
X94050000Y35000000D01*
G75*
G02*
X93925000Y35125000I0J125000D01*
G01*
X93925000Y35375000D01*
G75*
G02*
X94050000Y35500000I125000J0D01*
G01*
X95300000Y35500000D01*
G75*
G02*
X95425000Y35375000I0J-125000D01*
G01*
X95425000Y35125000D01*
G75*
G02*
X95300000Y35000000I-125000J0D01*
G01*
G37*
G36*
G01*
X95300000Y34200000D02*
X94050000Y34200000D01*
G75*
G02*
X93925000Y34325000I0J125000D01*
G01*
X93925000Y34575000D01*
G75*
G02*
X94050000Y34700000I125000J0D01*
G01*
X95300000Y34700000D01*
G75*
G02*
X95425000Y34575000I0J-125000D01*
G01*
X95425000Y34325000D01*
G75*
G02*
X95300000Y34200000I-125000J0D01*
G01*
G37*
G36*
G01*
X95300000Y33400000D02*
X94050000Y33400000D01*
G75*
G02*
X93925000Y33525000I0J125000D01*
G01*
X93925000Y33775000D01*
G75*
G02*
X94050000Y33900000I125000J0D01*
G01*
X95300000Y33900000D01*
G75*
G02*
X95425000Y33775000I0J-125000D01*
G01*
X95425000Y33525000D01*
G75*
G02*
X95300000Y33400000I-125000J0D01*
G01*
G37*
G36*
G01*
X95300000Y32600000D02*
X94050000Y32600000D01*
G75*
G02*
X93925000Y32725000I0J125000D01*
G01*
X93925000Y32975000D01*
G75*
G02*
X94050000Y33100000I125000J0D01*
G01*
X95300000Y33100000D01*
G75*
G02*
X95425000Y32975000I0J-125000D01*
G01*
X95425000Y32725000D01*
G75*
G02*
X95300000Y32600000I-125000J0D01*
G01*
G37*
G36*
G01*
X95300000Y31800000D02*
X94050000Y31800000D01*
G75*
G02*
X93925000Y31925000I0J125000D01*
G01*
X93925000Y32175000D01*
G75*
G02*
X94050000Y32300000I125000J0D01*
G01*
X95300000Y32300000D01*
G75*
G02*
X95425000Y32175000I0J-125000D01*
G01*
X95425000Y31925000D01*
G75*
G02*
X95300000Y31800000I-125000J0D01*
G01*
G37*
G36*
G01*
X95300000Y31000000D02*
X94050000Y31000000D01*
G75*
G02*
X93925000Y31125000I0J125000D01*
G01*
X93925000Y31375000D01*
G75*
G02*
X94050000Y31500000I125000J0D01*
G01*
X95300000Y31500000D01*
G75*
G02*
X95425000Y31375000I0J-125000D01*
G01*
X95425000Y31125000D01*
G75*
G02*
X95300000Y31000000I-125000J0D01*
G01*
G37*
G36*
G01*
X95300000Y30200000D02*
X94050000Y30200000D01*
G75*
G02*
X93925000Y30325000I0J125000D01*
G01*
X93925000Y30575000D01*
G75*
G02*
X94050000Y30700000I125000J0D01*
G01*
X95300000Y30700000D01*
G75*
G02*
X95425000Y30575000I0J-125000D01*
G01*
X95425000Y30325000D01*
G75*
G02*
X95300000Y30200000I-125000J0D01*
G01*
G37*
G36*
G01*
X93425000Y28325000D02*
X93175000Y28325000D01*
G75*
G02*
X93050000Y28450000I0J125000D01*
G01*
X93050000Y29700000D01*
G75*
G02*
X93175000Y29825000I125000J0D01*
G01*
X93425000Y29825000D01*
G75*
G02*
X93550000Y29700000I0J-125000D01*
G01*
X93550000Y28450000D01*
G75*
G02*
X93425000Y28325000I-125000J0D01*
G01*
G37*
G36*
G01*
X92625000Y28325000D02*
X92375000Y28325000D01*
G75*
G02*
X92250000Y28450000I0J125000D01*
G01*
X92250000Y29700000D01*
G75*
G02*
X92375000Y29825000I125000J0D01*
G01*
X92625000Y29825000D01*
G75*
G02*
X92750000Y29700000I0J-125000D01*
G01*
X92750000Y28450000D01*
G75*
G02*
X92625000Y28325000I-125000J0D01*
G01*
G37*
G36*
G01*
X91825000Y28325000D02*
X91575000Y28325000D01*
G75*
G02*
X91450000Y28450000I0J125000D01*
G01*
X91450000Y29700000D01*
G75*
G02*
X91575000Y29825000I125000J0D01*
G01*
X91825000Y29825000D01*
G75*
G02*
X91950000Y29700000I0J-125000D01*
G01*
X91950000Y28450000D01*
G75*
G02*
X91825000Y28325000I-125000J0D01*
G01*
G37*
G36*
G01*
X91025000Y28325000D02*
X90775000Y28325000D01*
G75*
G02*
X90650000Y28450000I0J125000D01*
G01*
X90650000Y29700000D01*
G75*
G02*
X90775000Y29825000I125000J0D01*
G01*
X91025000Y29825000D01*
G75*
G02*
X91150000Y29700000I0J-125000D01*
G01*
X91150000Y28450000D01*
G75*
G02*
X91025000Y28325000I-125000J0D01*
G01*
G37*
G36*
G01*
X90225000Y28325000D02*
X89975000Y28325000D01*
G75*
G02*
X89850000Y28450000I0J125000D01*
G01*
X89850000Y29700000D01*
G75*
G02*
X89975000Y29825000I125000J0D01*
G01*
X90225000Y29825000D01*
G75*
G02*
X90350000Y29700000I0J-125000D01*
G01*
X90350000Y28450000D01*
G75*
G02*
X90225000Y28325000I-125000J0D01*
G01*
G37*
G36*
G01*
X89425000Y28325000D02*
X89175000Y28325000D01*
G75*
G02*
X89050000Y28450000I0J125000D01*
G01*
X89050000Y29700000D01*
G75*
G02*
X89175000Y29825000I125000J0D01*
G01*
X89425000Y29825000D01*
G75*
G02*
X89550000Y29700000I0J-125000D01*
G01*
X89550000Y28450000D01*
G75*
G02*
X89425000Y28325000I-125000J0D01*
G01*
G37*
G36*
G01*
X88625000Y28325000D02*
X88375000Y28325000D01*
G75*
G02*
X88250000Y28450000I0J125000D01*
G01*
X88250000Y29700000D01*
G75*
G02*
X88375000Y29825000I125000J0D01*
G01*
X88625000Y29825000D01*
G75*
G02*
X88750000Y29700000I0J-125000D01*
G01*
X88750000Y28450000D01*
G75*
G02*
X88625000Y28325000I-125000J0D01*
G01*
G37*
G36*
G01*
X87825000Y28325000D02*
X87575000Y28325000D01*
G75*
G02*
X87450000Y28450000I0J125000D01*
G01*
X87450000Y29700000D01*
G75*
G02*
X87575000Y29825000I125000J0D01*
G01*
X87825000Y29825000D01*
G75*
G02*
X87950000Y29700000I0J-125000D01*
G01*
X87950000Y28450000D01*
G75*
G02*
X87825000Y28325000I-125000J0D01*
G01*
G37*
%TD*%
%TO.C,C17*%
G36*
G01*
X86237500Y27575000D02*
X85762500Y27575000D01*
G75*
G02*
X85525000Y27812500I0J237500D01*
G01*
X85525000Y28412500D01*
G75*
G02*
X85762500Y28650000I237500J0D01*
G01*
X86237500Y28650000D01*
G75*
G02*
X86475000Y28412500I0J-237500D01*
G01*
X86475000Y27812500D01*
G75*
G02*
X86237500Y27575000I-237500J0D01*
G01*
G37*
G36*
G01*
X86237500Y25850000D02*
X85762500Y25850000D01*
G75*
G02*
X85525000Y26087500I0J237500D01*
G01*
X85525000Y26687500D01*
G75*
G02*
X85762500Y26925000I237500J0D01*
G01*
X86237500Y26925000D01*
G75*
G02*
X86475000Y26687500I0J-237500D01*
G01*
X86475000Y26087500D01*
G75*
G02*
X86237500Y25850000I-237500J0D01*
G01*
G37*
%TD*%
%TO.C,C13*%
G36*
G01*
X84950000Y13200000D02*
X86050000Y13200000D01*
G75*
G02*
X86300000Y12950000I0J-250000D01*
G01*
X86300000Y9950000D01*
G75*
G02*
X86050000Y9700000I-250000J0D01*
G01*
X84950000Y9700000D01*
G75*
G02*
X84700000Y9950000I0J250000D01*
G01*
X84700000Y12950000D01*
G75*
G02*
X84950000Y13200000I250000J0D01*
G01*
G37*
G36*
G01*
X84950000Y18800000D02*
X86050000Y18800000D01*
G75*
G02*
X86300000Y18550000I0J-250000D01*
G01*
X86300000Y15550000D01*
G75*
G02*
X86050000Y15300000I-250000J0D01*
G01*
X84950000Y15300000D01*
G75*
G02*
X84700000Y15550000I0J250000D01*
G01*
X84700000Y18550000D01*
G75*
G02*
X84950000Y18800000I250000J0D01*
G01*
G37*
%TD*%
D13*
%TO.C,J2*%
X120870000Y32905000D03*
X114070000Y24455000D03*
X120870000Y24455000D03*
X114070000Y32905000D03*
D14*
X117470000Y32965000D03*
X117470000Y24395000D03*
%TD*%
D15*
%TO.C,U4*%
X108800000Y38350000D03*
X110700000Y38350000D03*
X110700000Y35650000D03*
X109750000Y35650000D03*
X108800000Y35650000D03*
%TD*%
%TO.C,C16*%
G36*
G01*
X92700000Y13200000D02*
X93800000Y13200000D01*
G75*
G02*
X94050000Y12950000I0J-250000D01*
G01*
X94050000Y9950000D01*
G75*
G02*
X93800000Y9700000I-250000J0D01*
G01*
X92700000Y9700000D01*
G75*
G02*
X92450000Y9950000I0J250000D01*
G01*
X92450000Y12950000D01*
G75*
G02*
X92700000Y13200000I250000J0D01*
G01*
G37*
G36*
G01*
X92700000Y18800000D02*
X93800000Y18800000D01*
G75*
G02*
X94050000Y18550000I0J-250000D01*
G01*
X94050000Y15550000D01*
G75*
G02*
X93800000Y15300000I-250000J0D01*
G01*
X92700000Y15300000D01*
G75*
G02*
X92450000Y15550000I0J250000D01*
G01*
X92450000Y18550000D01*
G75*
G02*
X92700000Y18800000I250000J0D01*
G01*
G37*
%TD*%
%TO.C,C15*%
G36*
G01*
X109425000Y33737500D02*
X109425000Y33262500D01*
G75*
G02*
X109187500Y33025000I-237500J0D01*
G01*
X108587500Y33025000D01*
G75*
G02*
X108350000Y33262500I0J237500D01*
G01*
X108350000Y33737500D01*
G75*
G02*
X108587500Y33975000I237500J0D01*
G01*
X109187500Y33975000D01*
G75*
G02*
X109425000Y33737500I0J-237500D01*
G01*
G37*
G36*
G01*
X111150000Y33737500D02*
X111150000Y33262500D01*
G75*
G02*
X110912500Y33025000I-237500J0D01*
G01*
X110312500Y33025000D01*
G75*
G02*
X110075000Y33262500I0J237500D01*
G01*
X110075000Y33737500D01*
G75*
G02*
X110312500Y33975000I237500J0D01*
G01*
X110912500Y33975000D01*
G75*
G02*
X111150000Y33737500I0J-237500D01*
G01*
G37*
%TD*%
%TO.C,U5*%
G36*
G01*
X81925000Y26275000D02*
X82075000Y26275000D01*
G75*
G02*
X82150000Y26200000I0J-75000D01*
G01*
X82150000Y24900000D01*
G75*
G02*
X82075000Y24825000I-75000J0D01*
G01*
X81925000Y24825000D01*
G75*
G02*
X81850000Y24900000I0J75000D01*
G01*
X81850000Y26200000D01*
G75*
G02*
X81925000Y26275000I75000J0D01*
G01*
G37*
G36*
G01*
X81425000Y26275000D02*
X81575000Y26275000D01*
G75*
G02*
X81650000Y26200000I0J-75000D01*
G01*
X81650000Y24900000D01*
G75*
G02*
X81575000Y24825000I-75000J0D01*
G01*
X81425000Y24825000D01*
G75*
G02*
X81350000Y24900000I0J75000D01*
G01*
X81350000Y26200000D01*
G75*
G02*
X81425000Y26275000I75000J0D01*
G01*
G37*
G36*
G01*
X80925000Y26275000D02*
X81075000Y26275000D01*
G75*
G02*
X81150000Y26200000I0J-75000D01*
G01*
X81150000Y24900000D01*
G75*
G02*
X81075000Y24825000I-75000J0D01*
G01*
X80925000Y24825000D01*
G75*
G02*
X80850000Y24900000I0J75000D01*
G01*
X80850000Y26200000D01*
G75*
G02*
X80925000Y26275000I75000J0D01*
G01*
G37*
G36*
G01*
X80425000Y26275000D02*
X80575000Y26275000D01*
G75*
G02*
X80650000Y26200000I0J-75000D01*
G01*
X80650000Y24900000D01*
G75*
G02*
X80575000Y24825000I-75000J0D01*
G01*
X80425000Y24825000D01*
G75*
G02*
X80350000Y24900000I0J75000D01*
G01*
X80350000Y26200000D01*
G75*
G02*
X80425000Y26275000I75000J0D01*
G01*
G37*
G36*
G01*
X79925000Y26275000D02*
X80075000Y26275000D01*
G75*
G02*
X80150000Y26200000I0J-75000D01*
G01*
X80150000Y24900000D01*
G75*
G02*
X80075000Y24825000I-75000J0D01*
G01*
X79925000Y24825000D01*
G75*
G02*
X79850000Y24900000I0J75000D01*
G01*
X79850000Y26200000D01*
G75*
G02*
X79925000Y26275000I75000J0D01*
G01*
G37*
G36*
G01*
X79925000Y30675000D02*
X80075000Y30675000D01*
G75*
G02*
X80150000Y30600000I0J-75000D01*
G01*
X80150000Y29300000D01*
G75*
G02*
X80075000Y29225000I-75000J0D01*
G01*
X79925000Y29225000D01*
G75*
G02*
X79850000Y29300000I0J75000D01*
G01*
X79850000Y30600000D01*
G75*
G02*
X79925000Y30675000I75000J0D01*
G01*
G37*
G36*
G01*
X80425000Y30675000D02*
X80575000Y30675000D01*
G75*
G02*
X80650000Y30600000I0J-75000D01*
G01*
X80650000Y29300000D01*
G75*
G02*
X80575000Y29225000I-75000J0D01*
G01*
X80425000Y29225000D01*
G75*
G02*
X80350000Y29300000I0J75000D01*
G01*
X80350000Y30600000D01*
G75*
G02*
X80425000Y30675000I75000J0D01*
G01*
G37*
G36*
G01*
X80925000Y30675000D02*
X81075000Y30675000D01*
G75*
G02*
X81150000Y30600000I0J-75000D01*
G01*
X81150000Y29300000D01*
G75*
G02*
X81075000Y29225000I-75000J0D01*
G01*
X80925000Y29225000D01*
G75*
G02*
X80850000Y29300000I0J75000D01*
G01*
X80850000Y30600000D01*
G75*
G02*
X80925000Y30675000I75000J0D01*
G01*
G37*
G36*
G01*
X81425000Y30675000D02*
X81575000Y30675000D01*
G75*
G02*
X81650000Y30600000I0J-75000D01*
G01*
X81650000Y29300000D01*
G75*
G02*
X81575000Y29225000I-75000J0D01*
G01*
X81425000Y29225000D01*
G75*
G02*
X81350000Y29300000I0J75000D01*
G01*
X81350000Y30600000D01*
G75*
G02*
X81425000Y30675000I75000J0D01*
G01*
G37*
G36*
G01*
X81925000Y30675000D02*
X82075000Y30675000D01*
G75*
G02*
X82150000Y30600000I0J-75000D01*
G01*
X82150000Y29300000D01*
G75*
G02*
X82075000Y29225000I-75000J0D01*
G01*
X81925000Y29225000D01*
G75*
G02*
X81850000Y29300000I0J75000D01*
G01*
X81850000Y30600000D01*
G75*
G02*
X81925000Y30675000I75000J0D01*
G01*
G37*
%TD*%
D16*
%TO.C,U2*%
X83075000Y39575000D03*
G36*
G01*
X81700000Y41187500D02*
X81700000Y41887500D01*
G75*
G02*
X81762500Y41950000I62500J0D01*
G01*
X81887500Y41950000D01*
G75*
G02*
X81950000Y41887500I0J-62500D01*
G01*
X81950000Y41187500D01*
G75*
G02*
X81887500Y41125000I-62500J0D01*
G01*
X81762500Y41125000D01*
G75*
G02*
X81700000Y41187500I0J62500D01*
G01*
G37*
G36*
G01*
X82200000Y41187500D02*
X82200000Y41887500D01*
G75*
G02*
X82262500Y41950000I62500J0D01*
G01*
X82387500Y41950000D01*
G75*
G02*
X82450000Y41887500I0J-62500D01*
G01*
X82450000Y41187500D01*
G75*
G02*
X82387500Y41125000I-62500J0D01*
G01*
X82262500Y41125000D01*
G75*
G02*
X82200000Y41187500I0J62500D01*
G01*
G37*
G36*
G01*
X82700000Y41187500D02*
X82700000Y41887500D01*
G75*
G02*
X82762500Y41950000I62500J0D01*
G01*
X82887500Y41950000D01*
G75*
G02*
X82950000Y41887500I0J-62500D01*
G01*
X82950000Y41187500D01*
G75*
G02*
X82887500Y41125000I-62500J0D01*
G01*
X82762500Y41125000D01*
G75*
G02*
X82700000Y41187500I0J62500D01*
G01*
G37*
G36*
G01*
X83200000Y41187500D02*
X83200000Y41887500D01*
G75*
G02*
X83262500Y41950000I62500J0D01*
G01*
X83387500Y41950000D01*
G75*
G02*
X83450000Y41887500I0J-62500D01*
G01*
X83450000Y41187500D01*
G75*
G02*
X83387500Y41125000I-62500J0D01*
G01*
X83262500Y41125000D01*
G75*
G02*
X83200000Y41187500I0J62500D01*
G01*
G37*
G36*
G01*
X83700000Y41187500D02*
X83700000Y41887500D01*
G75*
G02*
X83762500Y41950000I62500J0D01*
G01*
X83887500Y41950000D01*
G75*
G02*
X83950000Y41887500I0J-62500D01*
G01*
X83950000Y41187500D01*
G75*
G02*
X83887500Y41125000I-62500J0D01*
G01*
X83762500Y41125000D01*
G75*
G02*
X83700000Y41187500I0J62500D01*
G01*
G37*
G36*
G01*
X84200000Y41187500D02*
X84200000Y41887500D01*
G75*
G02*
X84262500Y41950000I62500J0D01*
G01*
X84387500Y41950000D01*
G75*
G02*
X84450000Y41887500I0J-62500D01*
G01*
X84450000Y41187500D01*
G75*
G02*
X84387500Y41125000I-62500J0D01*
G01*
X84262500Y41125000D01*
G75*
G02*
X84200000Y41187500I0J62500D01*
G01*
G37*
G36*
G01*
X84625000Y40762500D02*
X84625000Y40887500D01*
G75*
G02*
X84687500Y40950000I62500J0D01*
G01*
X85387500Y40950000D01*
G75*
G02*
X85450000Y40887500I0J-62500D01*
G01*
X85450000Y40762500D01*
G75*
G02*
X85387500Y40700000I-62500J0D01*
G01*
X84687500Y40700000D01*
G75*
G02*
X84625000Y40762500I0J62500D01*
G01*
G37*
G36*
G01*
X84625000Y40262500D02*
X84625000Y40387500D01*
G75*
G02*
X84687500Y40450000I62500J0D01*
G01*
X85387500Y40450000D01*
G75*
G02*
X85450000Y40387500I0J-62500D01*
G01*
X85450000Y40262500D01*
G75*
G02*
X85387500Y40200000I-62500J0D01*
G01*
X84687500Y40200000D01*
G75*
G02*
X84625000Y40262500I0J62500D01*
G01*
G37*
G36*
G01*
X84625000Y39762500D02*
X84625000Y39887500D01*
G75*
G02*
X84687500Y39950000I62500J0D01*
G01*
X85387500Y39950000D01*
G75*
G02*
X85450000Y39887500I0J-62500D01*
G01*
X85450000Y39762500D01*
G75*
G02*
X85387500Y39700000I-62500J0D01*
G01*
X84687500Y39700000D01*
G75*
G02*
X84625000Y39762500I0J62500D01*
G01*
G37*
G36*
G01*
X84625000Y39262500D02*
X84625000Y39387500D01*
G75*
G02*
X84687500Y39450000I62500J0D01*
G01*
X85387500Y39450000D01*
G75*
G02*
X85450000Y39387500I0J-62500D01*
G01*
X85450000Y39262500D01*
G75*
G02*
X85387500Y39200000I-62500J0D01*
G01*
X84687500Y39200000D01*
G75*
G02*
X84625000Y39262500I0J62500D01*
G01*
G37*
G36*
G01*
X84625000Y38762500D02*
X84625000Y38887500D01*
G75*
G02*
X84687500Y38950000I62500J0D01*
G01*
X85387500Y38950000D01*
G75*
G02*
X85450000Y38887500I0J-62500D01*
G01*
X85450000Y38762500D01*
G75*
G02*
X85387500Y38700000I-62500J0D01*
G01*
X84687500Y38700000D01*
G75*
G02*
X84625000Y38762500I0J62500D01*
G01*
G37*
G36*
G01*
X84625000Y38262500D02*
X84625000Y38387500D01*
G75*
G02*
X84687500Y38450000I62500J0D01*
G01*
X85387500Y38450000D01*
G75*
G02*
X85450000Y38387500I0J-62500D01*
G01*
X85450000Y38262500D01*
G75*
G02*
X85387500Y38200000I-62500J0D01*
G01*
X84687500Y38200000D01*
G75*
G02*
X84625000Y38262500I0J62500D01*
G01*
G37*
G36*
G01*
X84200000Y37262500D02*
X84200000Y37962500D01*
G75*
G02*
X84262500Y38025000I62500J0D01*
G01*
X84387500Y38025000D01*
G75*
G02*
X84450000Y37962500I0J-62500D01*
G01*
X84450000Y37262500D01*
G75*
G02*
X84387500Y37200000I-62500J0D01*
G01*
X84262500Y37200000D01*
G75*
G02*
X84200000Y37262500I0J62500D01*
G01*
G37*
G36*
G01*
X83700000Y37262500D02*
X83700000Y37962500D01*
G75*
G02*
X83762500Y38025000I62500J0D01*
G01*
X83887500Y38025000D01*
G75*
G02*
X83950000Y37962500I0J-62500D01*
G01*
X83950000Y37262500D01*
G75*
G02*
X83887500Y37200000I-62500J0D01*
G01*
X83762500Y37200000D01*
G75*
G02*
X83700000Y37262500I0J62500D01*
G01*
G37*
G36*
G01*
X83200000Y37262500D02*
X83200000Y37962500D01*
G75*
G02*
X83262500Y38025000I62500J0D01*
G01*
X83387500Y38025000D01*
G75*
G02*
X83450000Y37962500I0J-62500D01*
G01*
X83450000Y37262500D01*
G75*
G02*
X83387500Y37200000I-62500J0D01*
G01*
X83262500Y37200000D01*
G75*
G02*
X83200000Y37262500I0J62500D01*
G01*
G37*
G36*
G01*
X82700000Y37262500D02*
X82700000Y37962500D01*
G75*
G02*
X82762500Y38025000I62500J0D01*
G01*
X82887500Y38025000D01*
G75*
G02*
X82950000Y37962500I0J-62500D01*
G01*
X82950000Y37262500D01*
G75*
G02*
X82887500Y37200000I-62500J0D01*
G01*
X82762500Y37200000D01*
G75*
G02*
X82700000Y37262500I0J62500D01*
G01*
G37*
G36*
G01*
X82200000Y37262500D02*
X82200000Y37962500D01*
G75*
G02*
X82262500Y38025000I62500J0D01*
G01*
X82387500Y38025000D01*
G75*
G02*
X82450000Y37962500I0J-62500D01*
G01*
X82450000Y37262500D01*
G75*
G02*
X82387500Y37200000I-62500J0D01*
G01*
X82262500Y37200000D01*
G75*
G02*
X82200000Y37262500I0J62500D01*
G01*
G37*
G36*
G01*
X81700000Y37262500D02*
X81700000Y37962500D01*
G75*
G02*
X81762500Y38025000I62500J0D01*
G01*
X81887500Y38025000D01*
G75*
G02*
X81950000Y37962500I0J-62500D01*
G01*
X81950000Y37262500D01*
G75*
G02*
X81887500Y37200000I-62500J0D01*
G01*
X81762500Y37200000D01*
G75*
G02*
X81700000Y37262500I0J62500D01*
G01*
G37*
G36*
G01*
X80700000Y38262500D02*
X80700000Y38387500D01*
G75*
G02*
X80762500Y38450000I62500J0D01*
G01*
X81462500Y38450000D01*
G75*
G02*
X81525000Y38387500I0J-62500D01*
G01*
X81525000Y38262500D01*
G75*
G02*
X81462500Y38200000I-62500J0D01*
G01*
X80762500Y38200000D01*
G75*
G02*
X80700000Y38262500I0J62500D01*
G01*
G37*
G36*
G01*
X80700000Y38762500D02*
X80700000Y38887500D01*
G75*
G02*
X80762500Y38950000I62500J0D01*
G01*
X81462500Y38950000D01*
G75*
G02*
X81525000Y38887500I0J-62500D01*
G01*
X81525000Y38762500D01*
G75*
G02*
X81462500Y38700000I-62500J0D01*
G01*
X80762500Y38700000D01*
G75*
G02*
X80700000Y38762500I0J62500D01*
G01*
G37*
G36*
G01*
X80700000Y39262500D02*
X80700000Y39387500D01*
G75*
G02*
X80762500Y39450000I62500J0D01*
G01*
X81462500Y39450000D01*
G75*
G02*
X81525000Y39387500I0J-62500D01*
G01*
X81525000Y39262500D01*
G75*
G02*
X81462500Y39200000I-62500J0D01*
G01*
X80762500Y39200000D01*
G75*
G02*
X80700000Y39262500I0J62500D01*
G01*
G37*
G36*
G01*
X80700000Y39762500D02*
X80700000Y39887500D01*
G75*
G02*
X80762500Y39950000I62500J0D01*
G01*
X81462500Y39950000D01*
G75*
G02*
X81525000Y39887500I0J-62500D01*
G01*
X81525000Y39762500D01*
G75*
G02*
X81462500Y39700000I-62500J0D01*
G01*
X80762500Y39700000D01*
G75*
G02*
X80700000Y39762500I0J62500D01*
G01*
G37*
G36*
G01*
X80700000Y40262500D02*
X80700000Y40387500D01*
G75*
G02*
X80762500Y40450000I62500J0D01*
G01*
X81462500Y40450000D01*
G75*
G02*
X81525000Y40387500I0J-62500D01*
G01*
X81525000Y40262500D01*
G75*
G02*
X81462500Y40200000I-62500J0D01*
G01*
X80762500Y40200000D01*
G75*
G02*
X80700000Y40262500I0J62500D01*
G01*
G37*
G36*
G01*
X80700000Y40762500D02*
X80700000Y40887500D01*
G75*
G02*
X80762500Y40950000I62500J0D01*
G01*
X81462500Y40950000D01*
G75*
G02*
X81525000Y40887500I0J-62500D01*
G01*
X81525000Y40762500D01*
G75*
G02*
X81462500Y40700000I-62500J0D01*
G01*
X80762500Y40700000D01*
G75*
G02*
X80700000Y40762500I0J62500D01*
G01*
G37*
%TD*%
D17*
%TO.C,U1*%
G36*
X72116500Y37550000D02*
G01*
X72116500Y34425000D01*
X71700000Y34425000D01*
X71700000Y32950000D01*
X70800000Y32950000D01*
X70800000Y34425000D01*
X70383500Y34425000D01*
X70383500Y37550000D01*
X72116500Y37550000D01*
G37*
D18*
X72750000Y33600000D03*
X69750000Y33600000D03*
%TD*%
%TO.C,R13*%
G36*
G01*
X80700000Y19924999D02*
X80700000Y22075001D01*
G75*
G02*
X80949999Y22325000I249999J0D01*
G01*
X81850001Y22325000D01*
G75*
G02*
X82100000Y22075001I0J-249999D01*
G01*
X82100000Y19924999D01*
G75*
G02*
X81850001Y19675000I-249999J0D01*
G01*
X80949999Y19675000D01*
G75*
G02*
X80700000Y19924999I0J249999D01*
G01*
G37*
G36*
G01*
X75900000Y19924999D02*
X75900000Y22075001D01*
G75*
G02*
X76149999Y22325000I249999J0D01*
G01*
X77050001Y22325000D01*
G75*
G02*
X77300000Y22075001I0J-249999D01*
G01*
X77300000Y19924999D01*
G75*
G02*
X77050001Y19675000I-249999J0D01*
G01*
X76149999Y19675000D01*
G75*
G02*
X75900000Y19924999I0J249999D01*
G01*
G37*
%TD*%
%TO.C,R12*%
G36*
G01*
X102762500Y25012500D02*
X102762500Y25487500D01*
G75*
G02*
X103000000Y25725000I237500J0D01*
G01*
X103500000Y25725000D01*
G75*
G02*
X103737500Y25487500I0J-237500D01*
G01*
X103737500Y25012500D01*
G75*
G02*
X103500000Y24775000I-237500J0D01*
G01*
X103000000Y24775000D01*
G75*
G02*
X102762500Y25012500I0J237500D01*
G01*
G37*
G36*
G01*
X100937500Y25012500D02*
X100937500Y25487500D01*
G75*
G02*
X101175000Y25725000I237500J0D01*
G01*
X101675000Y25725000D01*
G75*
G02*
X101912500Y25487500I0J-237500D01*
G01*
X101912500Y25012500D01*
G75*
G02*
X101675000Y24775000I-237500J0D01*
G01*
X101175000Y24775000D01*
G75*
G02*
X100937500Y25012500I0J237500D01*
G01*
G37*
%TD*%
%TO.C,R11*%
G36*
G01*
X116512500Y37325000D02*
X116987500Y37325000D01*
G75*
G02*
X117225000Y37087500I0J-237500D01*
G01*
X117225000Y36587500D01*
G75*
G02*
X116987500Y36350000I-237500J0D01*
G01*
X116512500Y36350000D01*
G75*
G02*
X116275000Y36587500I0J237500D01*
G01*
X116275000Y37087500D01*
G75*
G02*
X116512500Y37325000I237500J0D01*
G01*
G37*
G36*
G01*
X116512500Y39150000D02*
X116987500Y39150000D01*
G75*
G02*
X117225000Y38912500I0J-237500D01*
G01*
X117225000Y38412500D01*
G75*
G02*
X116987500Y38175000I-237500J0D01*
G01*
X116512500Y38175000D01*
G75*
G02*
X116275000Y38412500I0J237500D01*
G01*
X116275000Y38912500D01*
G75*
G02*
X116512500Y39150000I237500J0D01*
G01*
G37*
%TD*%
%TO.C,R10*%
G36*
G01*
X114987500Y38175000D02*
X114512500Y38175000D01*
G75*
G02*
X114275000Y38412500I0J237500D01*
G01*
X114275000Y38912500D01*
G75*
G02*
X114512500Y39150000I237500J0D01*
G01*
X114987500Y39150000D01*
G75*
G02*
X115225000Y38912500I0J-237500D01*
G01*
X115225000Y38412500D01*
G75*
G02*
X114987500Y38175000I-237500J0D01*
G01*
G37*
G36*
G01*
X114987500Y36350000D02*
X114512500Y36350000D01*
G75*
G02*
X114275000Y36587500I0J237500D01*
G01*
X114275000Y37087500D01*
G75*
G02*
X114512500Y37325000I237500J0D01*
G01*
X114987500Y37325000D01*
G75*
G02*
X115225000Y37087500I0J-237500D01*
G01*
X115225000Y36587500D01*
G75*
G02*
X114987500Y36350000I-237500J0D01*
G01*
G37*
%TD*%
%TO.C,R9*%
G36*
G01*
X100675000Y34262500D02*
X100675000Y34737500D01*
G75*
G02*
X100912500Y34975000I237500J0D01*
G01*
X101412500Y34975000D01*
G75*
G02*
X101650000Y34737500I0J-237500D01*
G01*
X101650000Y34262500D01*
G75*
G02*
X101412500Y34025000I-237500J0D01*
G01*
X100912500Y34025000D01*
G75*
G02*
X100675000Y34262500I0J237500D01*
G01*
G37*
G36*
G01*
X98850000Y34262500D02*
X98850000Y34737500D01*
G75*
G02*
X99087500Y34975000I237500J0D01*
G01*
X99587500Y34975000D01*
G75*
G02*
X99825000Y34737500I0J-237500D01*
G01*
X99825000Y34262500D01*
G75*
G02*
X99587500Y34025000I-237500J0D01*
G01*
X99087500Y34025000D01*
G75*
G02*
X98850000Y34262500I0J237500D01*
G01*
G37*
%TD*%
%TO.C,R8*%
G36*
G01*
X97262500Y35075000D02*
X97737500Y35075000D01*
G75*
G02*
X97975000Y34837500I0J-237500D01*
G01*
X97975000Y34337500D01*
G75*
G02*
X97737500Y34100000I-237500J0D01*
G01*
X97262500Y34100000D01*
G75*
G02*
X97025000Y34337500I0J237500D01*
G01*
X97025000Y34837500D01*
G75*
G02*
X97262500Y35075000I237500J0D01*
G01*
G37*
G36*
G01*
X97262500Y36900000D02*
X97737500Y36900000D01*
G75*
G02*
X97975000Y36662500I0J-237500D01*
G01*
X97975000Y36162500D01*
G75*
G02*
X97737500Y35925000I-237500J0D01*
G01*
X97262500Y35925000D01*
G75*
G02*
X97025000Y36162500I0J237500D01*
G01*
X97025000Y36662500D01*
G75*
G02*
X97262500Y36900000I237500J0D01*
G01*
G37*
%TD*%
%TO.C,R7*%
G36*
G01*
X84237500Y29762500D02*
X83762500Y29762500D01*
G75*
G02*
X83525000Y30000000I0J237500D01*
G01*
X83525000Y30500000D01*
G75*
G02*
X83762500Y30737500I237500J0D01*
G01*
X84237500Y30737500D01*
G75*
G02*
X84475000Y30500000I0J-237500D01*
G01*
X84475000Y30000000D01*
G75*
G02*
X84237500Y29762500I-237500J0D01*
G01*
G37*
G36*
G01*
X84237500Y27937500D02*
X83762500Y27937500D01*
G75*
G02*
X83525000Y28175000I0J237500D01*
G01*
X83525000Y28675000D01*
G75*
G02*
X83762500Y28912500I237500J0D01*
G01*
X84237500Y28912500D01*
G75*
G02*
X84475000Y28675000I0J-237500D01*
G01*
X84475000Y28175000D01*
G75*
G02*
X84237500Y27937500I-237500J0D01*
G01*
G37*
%TD*%
%TO.C,R6*%
G36*
G01*
X90075000Y26987500D02*
X90075000Y26512500D01*
G75*
G02*
X89837500Y26275000I-237500J0D01*
G01*
X89337500Y26275000D01*
G75*
G02*
X89100000Y26512500I0J237500D01*
G01*
X89100000Y26987500D01*
G75*
G02*
X89337500Y27225000I237500J0D01*
G01*
X89837500Y27225000D01*
G75*
G02*
X90075000Y26987500I0J-237500D01*
G01*
G37*
G36*
G01*
X91900000Y26987500D02*
X91900000Y26512500D01*
G75*
G02*
X91662500Y26275000I-237500J0D01*
G01*
X91162500Y26275000D01*
G75*
G02*
X90925000Y26512500I0J237500D01*
G01*
X90925000Y26987500D01*
G75*
G02*
X91162500Y27225000I237500J0D01*
G01*
X91662500Y27225000D01*
G75*
G02*
X91900000Y26987500I0J-237500D01*
G01*
G37*
%TD*%
%TO.C,R5*%
G36*
G01*
X78675000Y37262500D02*
X78675000Y37737500D01*
G75*
G02*
X78912500Y37975000I237500J0D01*
G01*
X79412500Y37975000D01*
G75*
G02*
X79650000Y37737500I0J-237500D01*
G01*
X79650000Y37262500D01*
G75*
G02*
X79412500Y37025000I-237500J0D01*
G01*
X78912500Y37025000D01*
G75*
G02*
X78675000Y37262500I0J237500D01*
G01*
G37*
G36*
G01*
X76850000Y37262500D02*
X76850000Y37737500D01*
G75*
G02*
X77087500Y37975000I237500J0D01*
G01*
X77587500Y37975000D01*
G75*
G02*
X77825000Y37737500I0J-237500D01*
G01*
X77825000Y37262500D01*
G75*
G02*
X77587500Y37025000I-237500J0D01*
G01*
X77087500Y37025000D01*
G75*
G02*
X76850000Y37262500I0J237500D01*
G01*
G37*
%TD*%
%TO.C,R4*%
G36*
G01*
X86237500Y45925000D02*
X85762500Y45925000D01*
G75*
G02*
X85525000Y46162500I0J237500D01*
G01*
X85525000Y46662500D01*
G75*
G02*
X85762500Y46900000I237500J0D01*
G01*
X86237500Y46900000D01*
G75*
G02*
X86475000Y46662500I0J-237500D01*
G01*
X86475000Y46162500D01*
G75*
G02*
X86237500Y45925000I-237500J0D01*
G01*
G37*
G36*
G01*
X86237500Y44100000D02*
X85762500Y44100000D01*
G75*
G02*
X85525000Y44337500I0J237500D01*
G01*
X85525000Y44837500D01*
G75*
G02*
X85762500Y45075000I237500J0D01*
G01*
X86237500Y45075000D01*
G75*
G02*
X86475000Y44837500I0J-237500D01*
G01*
X86475000Y44337500D01*
G75*
G02*
X86237500Y44100000I-237500J0D01*
G01*
G37*
%TD*%
%TO.C,R3*%
G36*
G01*
X81262500Y34325000D02*
X81737500Y34325000D01*
G75*
G02*
X81975000Y34087500I0J-237500D01*
G01*
X81975000Y33587500D01*
G75*
G02*
X81737500Y33350000I-237500J0D01*
G01*
X81262500Y33350000D01*
G75*
G02*
X81025000Y33587500I0J237500D01*
G01*
X81025000Y34087500D01*
G75*
G02*
X81262500Y34325000I237500J0D01*
G01*
G37*
G36*
G01*
X81262500Y36150000D02*
X81737500Y36150000D01*
G75*
G02*
X81975000Y35912500I0J-237500D01*
G01*
X81975000Y35412500D01*
G75*
G02*
X81737500Y35175000I-237500J0D01*
G01*
X81262500Y35175000D01*
G75*
G02*
X81025000Y35412500I0J237500D01*
G01*
X81025000Y35912500D01*
G75*
G02*
X81262500Y36150000I237500J0D01*
G01*
G37*
%TD*%
%TO.C,R2*%
G36*
G01*
X79512500Y34325000D02*
X79987500Y34325000D01*
G75*
G02*
X80225000Y34087500I0J-237500D01*
G01*
X80225000Y33587500D01*
G75*
G02*
X79987500Y33350000I-237500J0D01*
G01*
X79512500Y33350000D01*
G75*
G02*
X79275000Y33587500I0J237500D01*
G01*
X79275000Y34087500D01*
G75*
G02*
X79512500Y34325000I237500J0D01*
G01*
G37*
G36*
G01*
X79512500Y36150000D02*
X79987500Y36150000D01*
G75*
G02*
X80225000Y35912500I0J-237500D01*
G01*
X80225000Y35412500D01*
G75*
G02*
X79987500Y35175000I-237500J0D01*
G01*
X79512500Y35175000D01*
G75*
G02*
X79275000Y35412500I0J237500D01*
G01*
X79275000Y35912500D01*
G75*
G02*
X79512500Y36150000I237500J0D01*
G01*
G37*
%TD*%
%TO.C,R1*%
G36*
G01*
X86987500Y41925000D02*
X86512500Y41925000D01*
G75*
G02*
X86275000Y42162500I0J237500D01*
G01*
X86275000Y42662500D01*
G75*
G02*
X86512500Y42900000I237500J0D01*
G01*
X86987500Y42900000D01*
G75*
G02*
X87225000Y42662500I0J-237500D01*
G01*
X87225000Y42162500D01*
G75*
G02*
X86987500Y41925000I-237500J0D01*
G01*
G37*
G36*
G01*
X86987500Y40100000D02*
X86512500Y40100000D01*
G75*
G02*
X86275000Y40337500I0J237500D01*
G01*
X86275000Y40837500D01*
G75*
G02*
X86512500Y41075000I237500J0D01*
G01*
X86987500Y41075000D01*
G75*
G02*
X87225000Y40837500I0J-237500D01*
G01*
X87225000Y40337500D01*
G75*
G02*
X86987500Y40100000I-237500J0D01*
G01*
G37*
%TD*%
%TO.C,Q4*%
G36*
G01*
X103950000Y22755000D02*
X103950000Y23055000D01*
G75*
G02*
X104100000Y23205000I150000J0D01*
G01*
X105550000Y23205000D01*
G75*
G02*
X105700000Y23055000I0J-150000D01*
G01*
X105700000Y22755000D01*
G75*
G02*
X105550000Y22605000I-150000J0D01*
G01*
X104100000Y22605000D01*
G75*
G02*
X103950000Y22755000I0J150000D01*
G01*
G37*
G36*
G01*
X103950000Y21485000D02*
X103950000Y21785000D01*
G75*
G02*
X104100000Y21935000I150000J0D01*
G01*
X105550000Y21935000D01*
G75*
G02*
X105700000Y21785000I0J-150000D01*
G01*
X105700000Y21485000D01*
G75*
G02*
X105550000Y21335000I-150000J0D01*
G01*
X104100000Y21335000D01*
G75*
G02*
X103950000Y21485000I0J150000D01*
G01*
G37*
G36*
G01*
X103950000Y20215000D02*
X103950000Y20515000D01*
G75*
G02*
X104100000Y20665000I150000J0D01*
G01*
X105550000Y20665000D01*
G75*
G02*
X105700000Y20515000I0J-150000D01*
G01*
X105700000Y20215000D01*
G75*
G02*
X105550000Y20065000I-150000J0D01*
G01*
X104100000Y20065000D01*
G75*
G02*
X103950000Y20215000I0J150000D01*
G01*
G37*
G36*
G01*
X103950000Y18945000D02*
X103950000Y19245000D01*
G75*
G02*
X104100000Y19395000I150000J0D01*
G01*
X105550000Y19395000D01*
G75*
G02*
X105700000Y19245000I0J-150000D01*
G01*
X105700000Y18945000D01*
G75*
G02*
X105550000Y18795000I-150000J0D01*
G01*
X104100000Y18795000D01*
G75*
G02*
X103950000Y18945000I0J150000D01*
G01*
G37*
G36*
G01*
X98800000Y18945000D02*
X98800000Y19245000D01*
G75*
G02*
X98950000Y19395000I150000J0D01*
G01*
X100400000Y19395000D01*
G75*
G02*
X100550000Y19245000I0J-150000D01*
G01*
X100550000Y18945000D01*
G75*
G02*
X100400000Y18795000I-150000J0D01*
G01*
X98950000Y18795000D01*
G75*
G02*
X98800000Y18945000I0J150000D01*
G01*
G37*
G36*
G01*
X98800000Y20215000D02*
X98800000Y20515000D01*
G75*
G02*
X98950000Y20665000I150000J0D01*
G01*
X100400000Y20665000D01*
G75*
G02*
X100550000Y20515000I0J-150000D01*
G01*
X100550000Y20215000D01*
G75*
G02*
X100400000Y20065000I-150000J0D01*
G01*
X98950000Y20065000D01*
G75*
G02*
X98800000Y20215000I0J150000D01*
G01*
G37*
G36*
G01*
X98800000Y21485000D02*
X98800000Y21785000D01*
G75*
G02*
X98950000Y21935000I150000J0D01*
G01*
X100400000Y21935000D01*
G75*
G02*
X100550000Y21785000I0J-150000D01*
G01*
X100550000Y21485000D01*
G75*
G02*
X100400000Y21335000I-150000J0D01*
G01*
X98950000Y21335000D01*
G75*
G02*
X98800000Y21485000I0J150000D01*
G01*
G37*
G36*
G01*
X98800000Y22755000D02*
X98800000Y23055000D01*
G75*
G02*
X98950000Y23205000I150000J0D01*
G01*
X100400000Y23205000D01*
G75*
G02*
X100550000Y23055000I0J-150000D01*
G01*
X100550000Y22755000D01*
G75*
G02*
X100400000Y22605000I-150000J0D01*
G01*
X98950000Y22605000D01*
G75*
G02*
X98800000Y22755000I0J150000D01*
G01*
G37*
%TD*%
D19*
%TO.C,Q3*%
X103250000Y28000000D03*
X101250000Y27050000D03*
X101250000Y28950000D03*
%TD*%
D20*
%TO.C,Q2*%
X102250000Y32750000D03*
X103200000Y30750000D03*
X101300000Y30750000D03*
%TD*%
D19*
%TO.C,Q1*%
X99500000Y31750000D03*
X97500000Y30800000D03*
X97500000Y32700000D03*
%TD*%
D21*
%TO.C,J3*%
X97370000Y42270000D03*
X97370000Y41000000D03*
X96100000Y42270000D03*
X96100000Y41000000D03*
X94830000Y42270000D03*
X94830000Y41000000D03*
X93560000Y42270000D03*
X93560000Y41000000D03*
X92290000Y42270000D03*
X92290000Y41000000D03*
X91020000Y42270000D03*
X91020000Y41000000D03*
X89750000Y42270000D03*
D22*
X89750000Y41000000D03*
%TD*%
D23*
%TO.C,J1*%
X55540000Y24350000D03*
X55540000Y33000000D03*
D24*
X58920000Y24350000D03*
X58920000Y33000000D03*
D25*
X58550000Y28250000D03*
X58550000Y25700000D03*
X58550000Y26550000D03*
X58550000Y27400000D03*
X58550000Y31650000D03*
X58550000Y29950000D03*
X58550000Y29100000D03*
X58550000Y30800000D03*
X59900000Y25700000D03*
X59900000Y26550000D03*
X59900000Y27400000D03*
X59900000Y28250000D03*
X59900000Y29100000D03*
X59900000Y29950000D03*
X59900000Y30800000D03*
X59900000Y31650000D03*
%TD*%
D26*
%TO.C,D5*%
X121400000Y21250000D03*
X118100000Y21250000D03*
%TD*%
D19*
%TO.C,D3*%
X103000000Y37000000D03*
X105000000Y37950000D03*
X105000000Y36050000D03*
%TD*%
%TO.C,D2*%
G36*
G01*
X62012500Y24525000D02*
X62487500Y24525000D01*
G75*
G02*
X62725000Y24287500I0J-237500D01*
G01*
X62725000Y23712500D01*
G75*
G02*
X62487500Y23475000I-237500J0D01*
G01*
X62012500Y23475000D01*
G75*
G02*
X61775000Y23712500I0J237500D01*
G01*
X61775000Y24287500D01*
G75*
G02*
X62012500Y24525000I237500J0D01*
G01*
G37*
G36*
G01*
X62012500Y26275000D02*
X62487500Y26275000D01*
G75*
G02*
X62725000Y26037500I0J-237500D01*
G01*
X62725000Y25462500D01*
G75*
G02*
X62487500Y25225000I-237500J0D01*
G01*
X62012500Y25225000D01*
G75*
G02*
X61775000Y25462500I0J237500D01*
G01*
X61775000Y26037500D01*
G75*
G02*
X62012500Y26275000I237500J0D01*
G01*
G37*
%TD*%
D27*
%TO.C,D1*%
X79250000Y39825000D03*
X77250000Y39175000D03*
X77250000Y40475000D03*
%TD*%
%TO.C,C14*%
G36*
G01*
X75725000Y34162500D02*
X74775000Y34162500D01*
G75*
G02*
X74525000Y34412500I0J250000D01*
G01*
X74525000Y35087500D01*
G75*
G02*
X74775000Y35337500I250000J0D01*
G01*
X75725000Y35337500D01*
G75*
G02*
X75975000Y35087500I0J-250000D01*
G01*
X75975000Y34412500D01*
G75*
G02*
X75725000Y34162500I-250000J0D01*
G01*
G37*
G36*
G01*
X75725000Y32087500D02*
X74775000Y32087500D01*
G75*
G02*
X74525000Y32337500I0J250000D01*
G01*
X74525000Y33012500D01*
G75*
G02*
X74775000Y33262500I250000J0D01*
G01*
X75725000Y33262500D01*
G75*
G02*
X75975000Y33012500I0J-250000D01*
G01*
X75975000Y32337500D01*
G75*
G02*
X75725000Y32087500I-250000J0D01*
G01*
G37*
%TD*%
%TO.C,C12*%
G36*
G01*
X112987500Y38075000D02*
X112512500Y38075000D01*
G75*
G02*
X112275000Y38312500I0J237500D01*
G01*
X112275000Y38912500D01*
G75*
G02*
X112512500Y39150000I237500J0D01*
G01*
X112987500Y39150000D01*
G75*
G02*
X113225000Y38912500I0J-237500D01*
G01*
X113225000Y38312500D01*
G75*
G02*
X112987500Y38075000I-237500J0D01*
G01*
G37*
G36*
G01*
X112987500Y36350000D02*
X112512500Y36350000D01*
G75*
G02*
X112275000Y36587500I0J237500D01*
G01*
X112275000Y37187500D01*
G75*
G02*
X112512500Y37425000I237500J0D01*
G01*
X112987500Y37425000D01*
G75*
G02*
X113225000Y37187500I0J-237500D01*
G01*
X113225000Y36587500D01*
G75*
G02*
X112987500Y36350000I-237500J0D01*
G01*
G37*
%TD*%
%TO.C,C11*%
G36*
G01*
X65225000Y35950000D02*
X64275000Y35950000D01*
G75*
G02*
X64025000Y36200000I0J250000D01*
G01*
X64025000Y36875000D01*
G75*
G02*
X64275000Y37125000I250000J0D01*
G01*
X65225000Y37125000D01*
G75*
G02*
X65475000Y36875000I0J-250000D01*
G01*
X65475000Y36200000D01*
G75*
G02*
X65225000Y35950000I-250000J0D01*
G01*
G37*
G36*
G01*
X65225000Y33875000D02*
X64275000Y33875000D01*
G75*
G02*
X64025000Y34125000I0J250000D01*
G01*
X64025000Y34800000D01*
G75*
G02*
X64275000Y35050000I250000J0D01*
G01*
X65225000Y35050000D01*
G75*
G02*
X65475000Y34800000I0J-250000D01*
G01*
X65475000Y34125000D01*
G75*
G02*
X65225000Y33875000I-250000J0D01*
G01*
G37*
%TD*%
%TO.C,C10*%
G36*
G01*
X78225000Y34200000D02*
X77275000Y34200000D01*
G75*
G02*
X77025000Y34450000I0J250000D01*
G01*
X77025000Y35125000D01*
G75*
G02*
X77275000Y35375000I250000J0D01*
G01*
X78225000Y35375000D01*
G75*
G02*
X78475000Y35125000I0J-250000D01*
G01*
X78475000Y34450000D01*
G75*
G02*
X78225000Y34200000I-250000J0D01*
G01*
G37*
G36*
G01*
X78225000Y32125000D02*
X77275000Y32125000D01*
G75*
G02*
X77025000Y32375000I0J250000D01*
G01*
X77025000Y33050000D01*
G75*
G02*
X77275000Y33300000I250000J0D01*
G01*
X78225000Y33300000D01*
G75*
G02*
X78475000Y33050000I0J-250000D01*
G01*
X78475000Y32375000D01*
G75*
G02*
X78225000Y32125000I-250000J0D01*
G01*
G37*
%TD*%
%TO.C,C9*%
G36*
G01*
X78487500Y26575000D02*
X78012500Y26575000D01*
G75*
G02*
X77775000Y26812500I0J237500D01*
G01*
X77775000Y27412500D01*
G75*
G02*
X78012500Y27650000I237500J0D01*
G01*
X78487500Y27650000D01*
G75*
G02*
X78725000Y27412500I0J-237500D01*
G01*
X78725000Y26812500D01*
G75*
G02*
X78487500Y26575000I-237500J0D01*
G01*
G37*
G36*
G01*
X78487500Y24850000D02*
X78012500Y24850000D01*
G75*
G02*
X77775000Y25087500I0J237500D01*
G01*
X77775000Y25687500D01*
G75*
G02*
X78012500Y25925000I237500J0D01*
G01*
X78487500Y25925000D01*
G75*
G02*
X78725000Y25687500I0J-237500D01*
G01*
X78725000Y25087500D01*
G75*
G02*
X78487500Y24850000I-237500J0D01*
G01*
G37*
%TD*%
%TO.C,C8*%
G36*
G01*
X100237500Y39575000D02*
X99762500Y39575000D01*
G75*
G02*
X99525000Y39812500I0J237500D01*
G01*
X99525000Y40412500D01*
G75*
G02*
X99762500Y40650000I237500J0D01*
G01*
X100237500Y40650000D01*
G75*
G02*
X100475000Y40412500I0J-237500D01*
G01*
X100475000Y39812500D01*
G75*
G02*
X100237500Y39575000I-237500J0D01*
G01*
G37*
G36*
G01*
X100237500Y37850000D02*
X99762500Y37850000D01*
G75*
G02*
X99525000Y38087500I0J237500D01*
G01*
X99525000Y38687500D01*
G75*
G02*
X99762500Y38925000I237500J0D01*
G01*
X100237500Y38925000D01*
G75*
G02*
X100475000Y38687500I0J-237500D01*
G01*
X100475000Y38087500D01*
G75*
G02*
X100237500Y37850000I-237500J0D01*
G01*
G37*
%TD*%
%TO.C,C7*%
G36*
G01*
X106512500Y36675000D02*
X106987500Y36675000D01*
G75*
G02*
X107225000Y36437500I0J-237500D01*
G01*
X107225000Y35837500D01*
G75*
G02*
X106987500Y35600000I-237500J0D01*
G01*
X106512500Y35600000D01*
G75*
G02*
X106275000Y35837500I0J237500D01*
G01*
X106275000Y36437500D01*
G75*
G02*
X106512500Y36675000I237500J0D01*
G01*
G37*
G36*
G01*
X106512500Y38400000D02*
X106987500Y38400000D01*
G75*
G02*
X107225000Y38162500I0J-237500D01*
G01*
X107225000Y37562500D01*
G75*
G02*
X106987500Y37325000I-237500J0D01*
G01*
X106512500Y37325000D01*
G75*
G02*
X106275000Y37562500I0J237500D01*
G01*
X106275000Y38162500D01*
G75*
G02*
X106512500Y38400000I237500J0D01*
G01*
G37*
%TD*%
%TO.C,C6*%
G36*
G01*
X79512500Y45175000D02*
X79987500Y45175000D01*
G75*
G02*
X80225000Y44937500I0J-237500D01*
G01*
X80225000Y44337500D01*
G75*
G02*
X79987500Y44100000I-237500J0D01*
G01*
X79512500Y44100000D01*
G75*
G02*
X79275000Y44337500I0J237500D01*
G01*
X79275000Y44937500D01*
G75*
G02*
X79512500Y45175000I237500J0D01*
G01*
G37*
G36*
G01*
X79512500Y46900000D02*
X79987500Y46900000D01*
G75*
G02*
X80225000Y46662500I0J-237500D01*
G01*
X80225000Y46062500D01*
G75*
G02*
X79987500Y45825000I-237500J0D01*
G01*
X79512500Y45825000D01*
G75*
G02*
X79275000Y46062500I0J237500D01*
G01*
X79275000Y46662500D01*
G75*
G02*
X79512500Y46900000I237500J0D01*
G01*
G37*
%TD*%
%TO.C,C5*%
G36*
G01*
X67725000Y35950000D02*
X66775000Y35950000D01*
G75*
G02*
X66525000Y36200000I0J250000D01*
G01*
X66525000Y36875000D01*
G75*
G02*
X66775000Y37125000I250000J0D01*
G01*
X67725000Y37125000D01*
G75*
G02*
X67975000Y36875000I0J-250000D01*
G01*
X67975000Y36200000D01*
G75*
G02*
X67725000Y35950000I-250000J0D01*
G01*
G37*
G36*
G01*
X67725000Y33875000D02*
X66775000Y33875000D01*
G75*
G02*
X66525000Y34125000I0J250000D01*
G01*
X66525000Y34800000D01*
G75*
G02*
X66775000Y35050000I250000J0D01*
G01*
X67725000Y35050000D01*
G75*
G02*
X67975000Y34800000I0J-250000D01*
G01*
X67975000Y34125000D01*
G75*
G02*
X67725000Y33875000I-250000J0D01*
G01*
G37*
%TD*%
%TO.C,C4*%
G36*
G01*
X76950000Y30025000D02*
X76950000Y30975000D01*
G75*
G02*
X77200000Y31225000I250000J0D01*
G01*
X77875000Y31225000D01*
G75*
G02*
X78125000Y30975000I0J-250000D01*
G01*
X78125000Y30025000D01*
G75*
G02*
X77875000Y29775000I-250000J0D01*
G01*
X77200000Y29775000D01*
G75*
G02*
X76950000Y30025000I0J250000D01*
G01*
G37*
G36*
G01*
X74875000Y30025000D02*
X74875000Y30975000D01*
G75*
G02*
X75125000Y31225000I250000J0D01*
G01*
X75800000Y31225000D01*
G75*
G02*
X76050000Y30975000I0J-250000D01*
G01*
X76050000Y30025000D01*
G75*
G02*
X75800000Y29775000I-250000J0D01*
G01*
X75125000Y29775000D01*
G75*
G02*
X74875000Y30025000I0J250000D01*
G01*
G37*
%TD*%
%TO.C,C3*%
G36*
G01*
X82225000Y45700000D02*
X81275000Y45700000D01*
G75*
G02*
X81025000Y45950000I0J250000D01*
G01*
X81025000Y46625000D01*
G75*
G02*
X81275000Y46875000I250000J0D01*
G01*
X82225000Y46875000D01*
G75*
G02*
X82475000Y46625000I0J-250000D01*
G01*
X82475000Y45950000D01*
G75*
G02*
X82225000Y45700000I-250000J0D01*
G01*
G37*
G36*
G01*
X82225000Y43625000D02*
X81275000Y43625000D01*
G75*
G02*
X81025000Y43875000I0J250000D01*
G01*
X81025000Y44550000D01*
G75*
G02*
X81275000Y44800000I250000J0D01*
G01*
X82225000Y44800000D01*
G75*
G02*
X82475000Y44550000I0J-250000D01*
G01*
X82475000Y43875000D01*
G75*
G02*
X82225000Y43625000I-250000J0D01*
G01*
G37*
%TD*%
%TO.C,C2*%
G36*
G01*
X83525000Y44800000D02*
X84475000Y44800000D01*
G75*
G02*
X84725000Y44550000I0J-250000D01*
G01*
X84725000Y43875000D01*
G75*
G02*
X84475000Y43625000I-250000J0D01*
G01*
X83525000Y43625000D01*
G75*
G02*
X83275000Y43875000I0J250000D01*
G01*
X83275000Y44550000D01*
G75*
G02*
X83525000Y44800000I250000J0D01*
G01*
G37*
G36*
G01*
X83525000Y46875000D02*
X84475000Y46875000D01*
G75*
G02*
X84725000Y46625000I0J-250000D01*
G01*
X84725000Y45950000D01*
G75*
G02*
X84475000Y45700000I-250000J0D01*
G01*
X83525000Y45700000D01*
G75*
G02*
X83275000Y45950000I0J250000D01*
G01*
X83275000Y46625000D01*
G75*
G02*
X83525000Y46875000I250000J0D01*
G01*
G37*
%TD*%
%TO.C,C1*%
G36*
G01*
X62725000Y35950000D02*
X61775000Y35950000D01*
G75*
G02*
X61525000Y36200000I0J250000D01*
G01*
X61525000Y36875000D01*
G75*
G02*
X61775000Y37125000I250000J0D01*
G01*
X62725000Y37125000D01*
G75*
G02*
X62975000Y36875000I0J-250000D01*
G01*
X62975000Y36200000D01*
G75*
G02*
X62725000Y35950000I-250000J0D01*
G01*
G37*
G36*
G01*
X62725000Y33875000D02*
X61775000Y33875000D01*
G75*
G02*
X61525000Y34125000I0J250000D01*
G01*
X61525000Y34800000D01*
G75*
G02*
X61775000Y35050000I250000J0D01*
G01*
X62725000Y35050000D01*
G75*
G02*
X62975000Y34800000I0J-250000D01*
G01*
X62975000Y34125000D01*
G75*
G02*
X62725000Y33875000I-250000J0D01*
G01*
G37*
%TD*%
M02*
