%TF.GenerationSoftware,KiCad,Pcbnew,(5.1.5)-3*%
%TF.CreationDate,2020-03-31T18:07:01+02:00*%
%TF.ProjectId,loeti,6c6f6574-692e-46b6-9963-61645f706362,rev?*%
%TF.SameCoordinates,Original*%
%TF.FileFunction,Copper,L2,Bot*%
%TF.FilePolarity,Positive*%
%FSLAX46Y46*%
G04 Gerber Fmt 4.6, Leading zero omitted, Abs format (unit mm)*
G04 Created by KiCad (PCBNEW (5.1.5)-3) date 2020-03-31 18:07:01*
%MOMM*%
%LPD*%
G04 APERTURE LIST*
%TA.AperFunction,ComponentPad*%
%ADD10R,2.000000X2.000000*%
%TD*%
%TA.AperFunction,ComponentPad*%
%ADD11O,1.000000X1.000000*%
%TD*%
%TA.AperFunction,ComponentPad*%
%ADD12R,1.000000X1.000000*%
%TD*%
%TA.AperFunction,ComponentPad*%
%ADD13R,4.000000X4.000000*%
%TD*%
%TA.AperFunction,ComponentPad*%
%ADD14O,1.000000X2.400000*%
%TD*%
%TA.AperFunction,ComponentPad*%
%ADD15O,1.000000X2.550000*%
%TD*%
%TA.AperFunction,ComponentPad*%
%ADD16C,1.500000*%
%TD*%
%TA.AperFunction,ComponentPad*%
%ADD17R,1.500000X1.500000*%
%TD*%
%TA.AperFunction,ViaPad*%
%ADD18C,0.600000*%
%TD*%
%TA.AperFunction,ViaPad*%
%ADD19C,1.000000*%
%TD*%
%TA.AperFunction,Conductor*%
%ADD20C,0.150000*%
%TD*%
G04 APERTURE END LIST*
D10*
%TO.P,TP6,1*%
%TO.N,PA5*%
X114950000Y-68950000D03*
%TD*%
%TO.P,TP5,1*%
%TO.N,PA4*%
X114950000Y-73250000D03*
%TD*%
%TO.P,TP4,1*%
%TO.N,PA3*%
X115000000Y-77500000D03*
%TD*%
D11*
%TO.P,J1,14*%
%TO.N,N/C*%
X110160000Y-61730000D03*
%TO.P,J1,13*%
X108890000Y-61730000D03*
%TO.P,J1,12*%
%TO.N,NRST*%
X110160000Y-60460000D03*
%TO.P,J1,11*%
%TO.N,HEATER-*%
X108890000Y-60460000D03*
%TO.P,J1,10*%
%TO.N,N/C*%
X110160000Y-59190000D03*
%TO.P,J1,9*%
X108890000Y-59190000D03*
%TO.P,J1,8*%
X110160000Y-57920000D03*
%TO.P,J1,7*%
%TO.N,HEATER-*%
X108890000Y-57920000D03*
%TO.P,J1,6*%
%TO.N,SWCLK*%
X110160000Y-56650000D03*
%TO.P,J1,5*%
%TO.N,HEATER-*%
X108890000Y-56650000D03*
%TO.P,J1,4*%
%TO.N,SWDIO*%
X110160000Y-55380000D03*
%TO.P,J1,3*%
%TO.N,+3V3*%
X108890000Y-55380000D03*
%TO.P,J1,2*%
%TO.N,N/C*%
X110160000Y-54110000D03*
D12*
%TO.P,J1,1*%
X108890000Y-54110000D03*
%TD*%
D13*
%TO.P,TP3,1*%
%TO.N,+3V3*%
X113300000Y-105000000D03*
%TD*%
%TO.P,TP2,1*%
%TO.N,HEATER-*%
X113300000Y-99500000D03*
%TD*%
%TO.P,TP1,1*%
%TO.N,ADC_IN2*%
X113300000Y-94000000D03*
%TD*%
D14*
%TO.P,J0,S1*%
%TO.N,HEATER-*%
X67000000Y-44120000D03*
D15*
X67000000Y-47350000D03*
X77800000Y-47350000D03*
D14*
X77800000Y-44120000D03*
%TD*%
D16*
%TO.P,U4,2*%
%TO.N,N/C*%
X98880000Y-106100000D03*
%TO.P,U4,9*%
X81100000Y-106100000D03*
%TO.P,U4,10*%
X78560000Y-106100000D03*
%TO.P,U4,11*%
%TO.N,Net-(C9-Pad1)*%
X78560000Y-80700000D03*
%TO.P,U4,12*%
%TO.N,+3V3*%
X81100000Y-80700000D03*
%TO.P,U4,13*%
X83640000Y-80700000D03*
%TO.P,U4,14*%
%TO.N,HEATER-*%
X86180000Y-80700000D03*
%TO.P,U4,15*%
%TO.N,SPI1_MISO*%
X88720000Y-80700000D03*
%TO.P,U4,16*%
%TO.N,SPI1_MOSI*%
X91260000Y-80700000D03*
%TO.P,U4,17*%
%TO.N,SPI1_SCK*%
X93800000Y-80700000D03*
%TO.P,U4,18*%
%TO.N,SPI1_NSS2*%
X96340000Y-80700000D03*
%TO.P,U4,19*%
%TO.N,HEATER-*%
X98880000Y-80700000D03*
%TO.P,U4,20*%
%TO.N,LCD_NRST*%
X101420000Y-80700000D03*
D17*
%TO.P,U4,1*%
%TO.N,N/C*%
X101420000Y-106100000D03*
%TD*%
D18*
%TO.N,VBUS*%
X77400000Y-61400000D03*
X77400000Y-56600000D03*
D19*
%TO.N,+3V3*%
X104750000Y-72250000D03*
X104750000Y-67750000D03*
X64550000Y-66500000D03*
X64550000Y-68500000D03*
D18*
X75149966Y-68250000D03*
D19*
X74550000Y-63100000D03*
X92750000Y-75250000D03*
X98000000Y-75250000D03*
X88250000Y-75250000D03*
X97250000Y-65325000D03*
X87500000Y-51200000D03*
X83800000Y-51200000D03*
D18*
X84400000Y-47100000D03*
D19*
X82500000Y-60600000D03*
X81250000Y-63750000D03*
X80750000Y-72750000D03*
X98000000Y-76500000D03*
X92750000Y-76500000D03*
X88250000Y-76500000D03*
X104750000Y-76500000D03*
D18*
X111700000Y-72800000D03*
D19*
X80750000Y-67250000D03*
X80750000Y-68500000D03*
X80750000Y-74000000D03*
X77400000Y-72700000D03*
D18*
%TO.N,CC2*%
X72200000Y-64400000D03*
X71050000Y-50100000D03*
%TO.N,CC1*%
X74750000Y-61899962D03*
X72700000Y-50650000D03*
%TO.N,PWM*%
X88100000Y-60700000D03*
X94100002Y-63800000D03*
%TO.N,USB_P*%
X72200010Y-61900000D03*
X91300000Y-66799972D03*
X72150000Y-50100000D03*
%TO.N,USB_N*%
X72200000Y-62950000D03*
X92100000Y-66800024D03*
X72700000Y-49499998D03*
X71600000Y-49500000D03*
D19*
%TO.N,HEATER-*%
X96500000Y-55000000D03*
X100500000Y-44000000D03*
X101750000Y-45250000D03*
X100500000Y-46500000D03*
X97750000Y-55000000D03*
X95250000Y-55000000D03*
X101750000Y-46500000D03*
X100500000Y-45250000D03*
X101750000Y-44000000D03*
X68500000Y-56750000D03*
X68500000Y-55500000D03*
X73750000Y-58000000D03*
X75000000Y-58000000D03*
X76250000Y-58000000D03*
X103000000Y-44000000D03*
X103000000Y-45250000D03*
X103000000Y-46500000D03*
X68500000Y-58000000D03*
X79000000Y-42500000D03*
X80250000Y-42500000D03*
X81500000Y-42500000D03*
X69750000Y-58000000D03*
D18*
%TO.N,T-*%
X90900000Y-48100000D03*
X90900000Y-44900000D03*
%TO.N,I2C1_SCL*%
X68475000Y-66975000D03*
X84000042Y-69900000D03*
%TO.N,I2C1_SDA*%
X68475000Y-68025000D03*
X83400014Y-70700000D03*
%TO.N,PD_ALERT_INT*%
X93700000Y-66800008D03*
X74000000Y-71300000D03*
%TO.N,SPI1_MOSI*%
X82300000Y-46200000D03*
X86700000Y-69100066D03*
X90200000Y-72000000D03*
%TO.N,SPI1_MISO*%
X82300000Y-47000000D03*
X91000000Y-71200000D03*
X86100000Y-68299986D03*
%TO.N,SPI1_SCK*%
X81500000Y-46200000D03*
X91800000Y-70400000D03*
X84899992Y-67500000D03*
%TO.N,SPI1_NSS1*%
X81500000Y-47000000D03*
X85475000Y-66700000D03*
%TO.N,LCD_NRST*%
X94200000Y-71200000D03*
%TO.N,ADC_IN1*%
X96199978Y-62600000D03*
X94500010Y-68800000D03*
%TO.N,SEn*%
X89399994Y-60699998D03*
X94600000Y-66800002D03*
%TO.N,NRST*%
X101100040Y-70600000D03*
X111700000Y-70600042D03*
X107499972Y-70600000D03*
X92600000Y-71099992D03*
%TO.N,SWCLK*%
X112400000Y-64800000D03*
X92600000Y-69600000D03*
%TO.N,SWDIO*%
X112399988Y-63800000D03*
X93400000Y-68800000D03*
%TO.N,SPI1_NSS2*%
X93999990Y-67999990D03*
%TO.N,ADC_IN2*%
X95300000Y-72500000D03*
%TO.N,PA3*%
X98000000Y-72300000D03*
%TO.N,PA4*%
X99000000Y-72000000D03*
%TO.N,PA5*%
X95300000Y-71200000D03*
%TO.N,PD_RST*%
X69350000Y-64500000D03*
X95400000Y-67400000D03*
%TD*%
D20*
%TO.N,VBUS*%
X77400000Y-61400000D02*
X77400000Y-56600000D01*
%TO.N,CC2*%
X72200000Y-64400000D02*
X71050000Y-63250000D01*
X71050000Y-63250000D02*
X71050000Y-50100000D01*
%TO.N,CC1*%
X72700000Y-59849962D02*
X72700000Y-50650000D01*
X74750000Y-61899962D02*
X72700000Y-59849962D01*
%TO.N,PWM*%
X91700002Y-61400000D02*
X94100002Y-63800000D01*
X88100000Y-60700000D02*
X88800000Y-61400000D01*
X88800000Y-61400000D02*
X91700002Y-61400000D01*
%TO.N,USB_P*%
X72150000Y-61849990D02*
X72150000Y-50100000D01*
X72200010Y-61900000D02*
X72150000Y-61849990D01*
X72500009Y-62199999D02*
X72200010Y-61900000D01*
X87799972Y-70300000D02*
X86000000Y-70300000D01*
X91300000Y-66799972D02*
X87799972Y-70300000D01*
X86000000Y-70300000D02*
X80300000Y-64600000D01*
X80300000Y-64600000D02*
X74900010Y-64600000D01*
X74900010Y-64600000D02*
X72500009Y-62199999D01*
%TO.N,USB_N*%
X72200000Y-62950000D02*
X71600000Y-62350000D01*
X72700000Y-49499998D02*
X71600002Y-49499998D01*
X71600000Y-62350000D02*
X71600000Y-49924264D01*
X71600002Y-49499998D02*
X71600000Y-49500000D01*
X71600000Y-49924264D02*
X71600000Y-49500000D01*
X74450000Y-65200000D02*
X80197126Y-65200000D01*
X85797126Y-70800000D02*
X88100024Y-70800000D01*
X72200000Y-62950000D02*
X74450000Y-65200000D01*
X88100024Y-70800000D02*
X91800001Y-67100023D01*
X91800001Y-67100023D02*
X92100000Y-66800024D01*
X80197126Y-65200000D02*
X85797126Y-70800000D01*
%TO.N,T-*%
X90900000Y-47675736D02*
X90900000Y-44900000D01*
X90900000Y-48100000D02*
X90900000Y-47675736D01*
%TO.N,I2C1_SCL*%
X71400000Y-69900000D02*
X84000042Y-69900000D01*
X68475000Y-66975000D02*
X71400000Y-69900000D01*
%TO.N,I2C1_SDA*%
X83400014Y-70700000D02*
X71150000Y-70700000D01*
X71150000Y-70700000D02*
X68774999Y-68324999D01*
X68774999Y-68324999D02*
X68475000Y-68025000D01*
%TO.N,PD_ALERT_INT*%
X92921965Y-66800008D02*
X88421972Y-71300001D01*
X88421972Y-71300001D02*
X74424264Y-71300000D01*
X74424264Y-71300000D02*
X74000000Y-71300000D01*
X93700000Y-66800008D02*
X92921965Y-66800008D01*
%TO.N,SPI1_MOSI*%
X82300000Y-46200000D02*
X86700000Y-50600000D01*
X91260000Y-80060000D02*
X91260000Y-80700000D01*
X90200000Y-72000000D02*
X90200000Y-79000000D01*
X90200000Y-79000000D02*
X91260000Y-80060000D01*
X86700000Y-50600000D02*
X86700000Y-69100066D01*
%TO.N,SPI1_MISO*%
X90020000Y-82000000D02*
X89469999Y-81449999D01*
X91000000Y-78600000D02*
X92600000Y-80200000D01*
X92600000Y-80200000D02*
X92600000Y-81400000D01*
X92600000Y-81400000D02*
X92000000Y-82000000D01*
X91000000Y-71200000D02*
X91000000Y-78600000D01*
X89469999Y-81449999D02*
X88720000Y-80700000D01*
X92000000Y-82000000D02*
X90020000Y-82000000D01*
X82300000Y-47000000D02*
X86100000Y-50800000D01*
X86100000Y-50800000D02*
X86100000Y-68299986D01*
%TO.N,SPI1_SCK*%
X80900000Y-47200000D02*
X84899992Y-51199992D01*
X81500000Y-46200000D02*
X80900000Y-46800000D01*
X80900000Y-46800000D02*
X80900000Y-47200000D01*
X91800000Y-70400000D02*
X91800000Y-78700000D01*
X91800000Y-78700000D02*
X93050001Y-79950001D01*
X93050001Y-79950001D02*
X93800000Y-80700000D01*
X84899992Y-51200000D02*
X84899992Y-67075736D01*
X84899992Y-67075736D02*
X84899992Y-67500000D01*
%TO.N,SPI1_NSS1*%
X81500000Y-47000000D02*
X85500000Y-51000000D01*
X85500000Y-66675000D02*
X85475000Y-66700000D01*
X85500000Y-65800000D02*
X85500000Y-66675000D01*
X85500000Y-65800000D02*
X85500000Y-66000000D01*
X85500000Y-51000000D02*
X85500000Y-65800000D01*
%TO.N,LCD_NRST*%
X100359340Y-80700000D02*
X101420000Y-80700000D01*
X94200000Y-71200000D02*
X94900000Y-71900000D01*
X96500000Y-76840660D02*
X100359340Y-80700000D01*
X96500000Y-72922998D02*
X96500000Y-76840660D01*
X94900000Y-71900000D02*
X95477002Y-71900000D01*
X95477002Y-71900000D02*
X96500000Y-72922998D01*
%TO.N,ADC_IN1*%
X96199978Y-63024264D02*
X96199978Y-62600000D01*
X96199978Y-67900022D02*
X96199978Y-63024264D01*
X94500010Y-68800000D02*
X95300000Y-68800000D01*
X95300000Y-68800000D02*
X96199978Y-67900022D01*
%TO.N,SEn*%
X95300000Y-66100002D02*
X94600000Y-66800002D01*
X95300000Y-63956728D02*
X95300000Y-66100002D01*
X89399994Y-60699998D02*
X92043270Y-60699998D01*
X92043270Y-60699998D02*
X95300000Y-63956728D01*
%TO.N,NRST*%
X111700000Y-70600042D02*
X107500014Y-70600042D01*
X107500014Y-70600042D02*
X107499972Y-70600000D01*
X101100040Y-70600000D02*
X107499972Y-70600000D01*
X113200000Y-69100042D02*
X111999999Y-70300043D01*
X111999999Y-70300043D02*
X111700000Y-70600042D01*
X110160000Y-60460000D02*
X113200000Y-63500000D01*
X113200000Y-63500000D02*
X113200000Y-69100042D01*
X101100040Y-70600000D02*
X93099992Y-70600000D01*
X93099992Y-70600000D02*
X92600000Y-71099992D01*
%TO.N,SWCLK*%
X112100001Y-65099999D02*
X112400000Y-64800000D01*
X107200000Y-70000000D02*
X112100001Y-65099999D01*
X93000000Y-70000000D02*
X107200000Y-70000000D01*
X92600000Y-69600000D02*
X93000000Y-70000000D01*
%TO.N,SWDIO*%
X93400000Y-68800000D02*
X93925001Y-69325001D01*
X112099989Y-64099999D02*
X112399988Y-63800000D01*
X106874987Y-69325001D02*
X112099989Y-64099999D01*
X93925001Y-69325001D02*
X106874987Y-69325001D01*
%TO.N,SPI1_NSS2*%
X88600000Y-82600000D02*
X94440000Y-82600000D01*
X87500000Y-81500000D02*
X88600000Y-82600000D01*
X93999990Y-67999990D02*
X93300010Y-67999990D01*
X94440000Y-82600000D02*
X96340000Y-80700000D01*
X89500000Y-77700000D02*
X87500000Y-79700000D01*
X93300010Y-67999990D02*
X89500000Y-71800000D01*
X89500000Y-71800000D02*
X89500000Y-77700000D01*
X87500000Y-79700000D02*
X87500000Y-81500000D01*
%TO.N,ADC_IN2*%
X110000000Y-94000000D02*
X113300000Y-94000000D01*
X97600000Y-81600000D02*
X110000000Y-94000000D01*
X95300000Y-72500000D02*
X95300000Y-77300000D01*
X97600000Y-79600000D02*
X97600000Y-81600000D01*
X95300000Y-77300000D02*
X97600000Y-79600000D01*
%TO.N,PA3*%
X98000000Y-72300000D02*
X98400000Y-72700000D01*
X98400000Y-72700000D02*
X102700000Y-72700000D01*
X103950000Y-73950000D02*
X104000000Y-74000000D01*
X102700000Y-72700000D02*
X103950000Y-73950000D01*
X103950000Y-73950000D02*
X105000000Y-75000000D01*
X112500000Y-75000000D02*
X115000000Y-77500000D01*
X105000000Y-75000000D02*
X112500000Y-75000000D01*
%TO.N,PA4*%
X114200000Y-74000000D02*
X114950000Y-73250000D01*
X105000000Y-74000000D02*
X114200000Y-74000000D01*
X99000000Y-72000000D02*
X103000000Y-72000000D01*
X103000000Y-72000000D02*
X105000000Y-74000000D01*
%TO.N,PA5*%
X113850000Y-71200000D02*
X95724264Y-71200000D01*
X114950000Y-68950000D02*
X114950000Y-70100000D01*
X95724264Y-71200000D02*
X95300000Y-71200000D01*
X114950000Y-70100000D02*
X113850000Y-71200000D01*
%TO.N,PD_RST*%
X88600000Y-71900000D02*
X93100000Y-67400000D01*
X94975736Y-67400000D02*
X95400000Y-67400000D01*
X67800000Y-66050000D02*
X67800000Y-68300000D01*
X67800000Y-68300000D02*
X71400000Y-71900000D01*
X93100000Y-67400000D02*
X94975736Y-67400000D01*
X71400000Y-71900000D02*
X88600000Y-71900000D01*
X69350000Y-64500000D02*
X67800000Y-66050000D01*
%TD*%
%TO.N,HEATER-*%
G36*
X93224951Y-48774950D02*
G01*
X92988953Y-48774950D01*
X92979134Y-48775917D01*
X92975414Y-48775891D01*
X92972287Y-48776198D01*
X92855829Y-48788438D01*
X92835859Y-48792537D01*
X92815812Y-48796361D01*
X92812812Y-48797268D01*
X92812805Y-48797269D01*
X92812799Y-48797272D01*
X92700942Y-48831897D01*
X92682160Y-48839792D01*
X92663227Y-48847441D01*
X92660453Y-48848916D01*
X92557446Y-48904612D01*
X92540539Y-48916015D01*
X92523466Y-48927188D01*
X92521031Y-48929173D01*
X92430805Y-49003816D01*
X92416430Y-49018292D01*
X92401860Y-49032560D01*
X92399857Y-49034981D01*
X92325846Y-49125726D01*
X92314564Y-49142708D01*
X92303034Y-49159546D01*
X92301540Y-49162310D01*
X92246565Y-49265703D01*
X92238797Y-49284549D01*
X92230756Y-49303310D01*
X92229828Y-49306308D01*
X92229828Y-49306310D01*
X92229827Y-49306312D01*
X92195982Y-49418413D01*
X92192013Y-49438459D01*
X92187780Y-49458373D01*
X92187451Y-49461498D01*
X92176024Y-49578039D01*
X92176024Y-49587881D01*
X92174962Y-49597664D01*
X92174951Y-49600806D01*
X92174966Y-49604995D01*
X92175960Y-49614767D01*
X92175891Y-49624586D01*
X92176198Y-49627713D01*
X92188438Y-49744170D01*
X92192536Y-49764133D01*
X92196361Y-49784188D01*
X92197268Y-49787188D01*
X92197269Y-49787195D01*
X92197272Y-49787201D01*
X92231897Y-49899058D01*
X92239792Y-49917840D01*
X92247441Y-49936773D01*
X92248915Y-49939543D01*
X92248917Y-49939548D01*
X92248918Y-49939549D01*
X92304612Y-50042554D01*
X92316015Y-50059461D01*
X92327188Y-50076534D01*
X92329174Y-50078969D01*
X92403816Y-50169195D01*
X92418288Y-50183567D01*
X92432559Y-50198140D01*
X92434980Y-50200143D01*
X92525726Y-50274154D01*
X92542741Y-50285459D01*
X92559547Y-50296966D01*
X92562305Y-50298457D01*
X92562309Y-50298460D01*
X92562313Y-50298462D01*
X92665704Y-50353435D01*
X92684535Y-50361197D01*
X92703310Y-50369244D01*
X92706308Y-50370172D01*
X92706314Y-50370174D01*
X92818413Y-50404018D01*
X92838459Y-50407987D01*
X92858373Y-50412220D01*
X92861498Y-50412549D01*
X92978039Y-50423976D01*
X92978048Y-50423976D01*
X92988953Y-50425050D01*
X93224951Y-50425050D01*
X93224950Y-53911046D01*
X93225910Y-53920790D01*
X93225888Y-53923888D01*
X93226195Y-53927015D01*
X93236395Y-54024063D01*
X93240495Y-54044040D01*
X93244318Y-54064080D01*
X93245224Y-54067078D01*
X93245226Y-54067088D01*
X93245230Y-54067097D01*
X93274083Y-54160307D01*
X93281992Y-54179122D01*
X93289629Y-54198024D01*
X93291104Y-54200798D01*
X93337516Y-54286636D01*
X93348920Y-54303543D01*
X93360091Y-54320614D01*
X93362077Y-54323049D01*
X93424279Y-54398237D01*
X93438752Y-54412609D01*
X93453022Y-54427182D01*
X93455443Y-54429185D01*
X93531064Y-54490861D01*
X93548074Y-54502163D01*
X93564887Y-54513674D01*
X93567651Y-54515169D01*
X93653811Y-54560981D01*
X93672698Y-54568765D01*
X93691416Y-54576788D01*
X93694415Y-54577716D01*
X93694419Y-54577718D01*
X93694423Y-54577719D01*
X93787835Y-54605922D01*
X93807813Y-54609878D01*
X93827798Y-54614126D01*
X93830919Y-54614454D01*
X93830923Y-54614454D01*
X93928040Y-54623976D01*
X93937868Y-54623976D01*
X93947632Y-54625037D01*
X93950774Y-54625049D01*
X93954265Y-54625037D01*
X93964052Y-54624043D01*
X93973888Y-54624112D01*
X93977015Y-54623805D01*
X94074063Y-54613605D01*
X94094040Y-54609505D01*
X94114080Y-54605682D01*
X94117078Y-54604776D01*
X94117088Y-54604774D01*
X94117097Y-54604770D01*
X94210307Y-54575917D01*
X94229122Y-54568008D01*
X94248024Y-54560371D01*
X94250793Y-54558899D01*
X94250797Y-54558897D01*
X94250800Y-54558895D01*
X94336636Y-54512484D01*
X94353543Y-54501080D01*
X94370614Y-54489909D01*
X94373049Y-54487923D01*
X94448237Y-54425721D01*
X94462609Y-54411248D01*
X94477182Y-54396978D01*
X94479185Y-54394557D01*
X94540861Y-54318936D01*
X94552163Y-54301926D01*
X94563674Y-54285113D01*
X94565169Y-54282349D01*
X94610981Y-54196189D01*
X94618765Y-54177302D01*
X94626788Y-54158584D01*
X94627717Y-54155583D01*
X94636936Y-54125050D01*
X98563169Y-54125050D01*
X98574083Y-54160307D01*
X98581992Y-54179122D01*
X98589629Y-54198024D01*
X98591104Y-54200798D01*
X98637516Y-54286636D01*
X98648920Y-54303543D01*
X98660091Y-54320614D01*
X98662077Y-54323049D01*
X98724279Y-54398237D01*
X98738752Y-54412609D01*
X98753022Y-54427182D01*
X98755443Y-54429185D01*
X98831064Y-54490861D01*
X98848074Y-54502163D01*
X98864887Y-54513674D01*
X98867651Y-54515169D01*
X98953811Y-54560981D01*
X98972698Y-54568765D01*
X98991416Y-54576788D01*
X98994415Y-54577716D01*
X98994419Y-54577718D01*
X98994423Y-54577719D01*
X99087835Y-54605922D01*
X99107813Y-54609878D01*
X99127798Y-54614126D01*
X99130919Y-54614454D01*
X99130923Y-54614454D01*
X99228040Y-54623976D01*
X99237868Y-54623976D01*
X99247632Y-54625037D01*
X99250774Y-54625049D01*
X99254265Y-54625037D01*
X99264052Y-54624043D01*
X99273888Y-54624112D01*
X99277015Y-54623805D01*
X99374063Y-54613605D01*
X99394040Y-54609505D01*
X99414080Y-54605682D01*
X99417078Y-54604776D01*
X99417088Y-54604774D01*
X99417097Y-54604770D01*
X99510307Y-54575917D01*
X99529122Y-54568008D01*
X99548024Y-54560371D01*
X99550793Y-54558899D01*
X99550797Y-54558897D01*
X99550800Y-54558895D01*
X99636636Y-54512484D01*
X99653543Y-54501080D01*
X99670614Y-54489909D01*
X99673049Y-54487923D01*
X99748237Y-54425721D01*
X99762609Y-54411248D01*
X99777182Y-54396978D01*
X99779185Y-54394557D01*
X99840861Y-54318936D01*
X99852163Y-54301926D01*
X99863674Y-54285113D01*
X99865169Y-54282349D01*
X99910981Y-54196189D01*
X99918765Y-54177302D01*
X99926788Y-54158584D01*
X99927717Y-54155583D01*
X99955922Y-54062165D01*
X99959878Y-54042187D01*
X99964126Y-54022202D01*
X99964454Y-54019077D01*
X99973976Y-53921960D01*
X99973976Y-53921952D01*
X99975050Y-53911047D01*
X99975050Y-50425050D01*
X100211047Y-50425050D01*
X100220866Y-50424083D01*
X100224586Y-50424109D01*
X100227713Y-50423802D01*
X100344170Y-50411562D01*
X100364133Y-50407464D01*
X100384188Y-50403639D01*
X100387188Y-50402732D01*
X100387195Y-50402731D01*
X100387201Y-50402728D01*
X100499058Y-50368103D01*
X100517840Y-50360208D01*
X100536773Y-50352559D01*
X100539543Y-50351085D01*
X100539548Y-50351083D01*
X100539552Y-50351080D01*
X100642554Y-50295388D01*
X100659461Y-50283985D01*
X100676534Y-50272812D01*
X100678969Y-50270826D01*
X100769195Y-50196184D01*
X100783567Y-50181712D01*
X100798140Y-50167441D01*
X100800143Y-50165020D01*
X100874154Y-50074274D01*
X100885459Y-50057259D01*
X100896966Y-50040453D01*
X100898457Y-50037695D01*
X100898460Y-50037691D01*
X100898462Y-50037687D01*
X100953435Y-49934296D01*
X100961197Y-49915465D01*
X100969244Y-49896690D01*
X100970173Y-49893688D01*
X101004018Y-49781587D01*
X101007987Y-49761541D01*
X101012220Y-49741627D01*
X101012549Y-49738502D01*
X101023976Y-49621961D01*
X101023976Y-49612119D01*
X101025038Y-49602336D01*
X101025049Y-49599194D01*
X101025034Y-49595005D01*
X101024040Y-49585233D01*
X101024109Y-49575414D01*
X101023802Y-49572287D01*
X101011562Y-49455829D01*
X101007463Y-49435859D01*
X101003639Y-49415812D01*
X101002732Y-49412812D01*
X101002731Y-49412805D01*
X101002728Y-49412799D01*
X100968103Y-49300942D01*
X100960208Y-49282160D01*
X100952559Y-49263227D01*
X100951084Y-49260453D01*
X100895388Y-49157446D01*
X100883985Y-49140539D01*
X100872812Y-49123466D01*
X100870827Y-49121031D01*
X100796184Y-49030805D01*
X100781708Y-49016430D01*
X100767440Y-49001860D01*
X100765019Y-48999857D01*
X100674274Y-48925846D01*
X100657292Y-48914564D01*
X100640454Y-48903034D01*
X100637690Y-48901540D01*
X100534297Y-48846565D01*
X100515451Y-48838797D01*
X100496690Y-48830756D01*
X100493692Y-48829828D01*
X100493686Y-48829826D01*
X100381587Y-48795982D01*
X100361541Y-48792013D01*
X100341627Y-48787780D01*
X100338502Y-48787451D01*
X100221961Y-48776024D01*
X100221952Y-48776024D01*
X100211047Y-48774950D01*
X99975050Y-48774950D01*
X99975050Y-41725050D01*
X105925000Y-41725050D01*
X105925000Y-58725000D01*
X91532366Y-58725000D01*
X88275000Y-55270218D01*
X88275000Y-49900000D01*
X88273559Y-49885368D01*
X88269291Y-49871299D01*
X88262360Y-49858332D01*
X88254615Y-49848598D01*
X85054615Y-46448598D01*
X85043537Y-46438930D01*
X85030787Y-46431610D01*
X85016853Y-46426918D01*
X85000000Y-46425000D01*
X82949263Y-46425000D01*
X82816865Y-46292602D01*
X82825000Y-46251708D01*
X82825000Y-46148292D01*
X82804824Y-46046863D01*
X82765249Y-45951319D01*
X82707794Y-45865332D01*
X82634668Y-45792206D01*
X82548681Y-45734751D01*
X82453137Y-45695176D01*
X82351708Y-45675000D01*
X82248292Y-45675000D01*
X82146863Y-45695176D01*
X82051319Y-45734751D01*
X81965332Y-45792206D01*
X81900000Y-45857538D01*
X81834668Y-45792206D01*
X81748681Y-45734751D01*
X81653137Y-45695176D01*
X81551708Y-45675000D01*
X81448292Y-45675000D01*
X81346863Y-45695176D01*
X81251319Y-45734751D01*
X81165332Y-45792206D01*
X81092206Y-45865332D01*
X81034751Y-45951319D01*
X80995176Y-46046863D01*
X80975000Y-46148292D01*
X80975000Y-46251708D01*
X80983135Y-46292602D01*
X80698290Y-46577447D01*
X80686842Y-46586842D01*
X80669648Y-46607794D01*
X80649353Y-46632523D01*
X80634464Y-46660380D01*
X80621496Y-46684641D01*
X80604341Y-46741191D01*
X80600000Y-46785268D01*
X80600000Y-46785277D01*
X80598550Y-46800000D01*
X80600000Y-46814723D01*
X80600000Y-47185277D01*
X80598550Y-47200000D01*
X80600000Y-47214723D01*
X80600000Y-47214733D01*
X80604341Y-47258810D01*
X80609517Y-47275870D01*
X80621497Y-47315360D01*
X80649353Y-47367477D01*
X80659694Y-47380077D01*
X80686843Y-47413158D01*
X80698286Y-47422549D01*
X81425000Y-48149263D01*
X81425000Y-58675000D01*
X77700000Y-58675000D01*
X77700000Y-57030959D01*
X77734668Y-57007794D01*
X77807794Y-56934668D01*
X77865249Y-56848681D01*
X77904824Y-56753137D01*
X77925000Y-56651708D01*
X77925000Y-56548292D01*
X77904824Y-56446863D01*
X77865249Y-56351319D01*
X77807794Y-56265332D01*
X77734668Y-56192206D01*
X77648681Y-56134751D01*
X77553137Y-56095176D01*
X77451708Y-56075000D01*
X77348292Y-56075000D01*
X77246863Y-56095176D01*
X77151319Y-56134751D01*
X77065332Y-56192206D01*
X76992206Y-56265332D01*
X76934751Y-56351319D01*
X76895176Y-56446863D01*
X76875000Y-56548292D01*
X76875000Y-56651708D01*
X76895176Y-56753137D01*
X76934751Y-56848681D01*
X76992206Y-56934668D01*
X77065332Y-57007794D01*
X77100001Y-57030959D01*
X77100001Y-58675000D01*
X73000000Y-58675000D01*
X73000000Y-51080959D01*
X73034668Y-51057794D01*
X73107794Y-50984668D01*
X73165249Y-50898681D01*
X73204824Y-50803137D01*
X73225000Y-50701708D01*
X73225000Y-50598292D01*
X73204824Y-50496863D01*
X73165249Y-50401319D01*
X73107794Y-50315332D01*
X73034668Y-50242206D01*
X72948681Y-50184751D01*
X72853137Y-50145176D01*
X72751708Y-50125000D01*
X72675000Y-50125000D01*
X72675000Y-50048292D01*
X72670366Y-50024998D01*
X72751708Y-50024998D01*
X72853137Y-50004822D01*
X72948681Y-49965247D01*
X73034668Y-49907792D01*
X73107794Y-49834666D01*
X73165249Y-49748679D01*
X73204824Y-49653135D01*
X73225000Y-49551706D01*
X73225000Y-49448290D01*
X73204824Y-49346861D01*
X73165249Y-49251317D01*
X73107794Y-49165330D01*
X73034668Y-49092204D01*
X72948681Y-49034749D01*
X72853137Y-48995174D01*
X72751708Y-48974998D01*
X72648292Y-48974998D01*
X72546863Y-48995174D01*
X72451319Y-49034749D01*
X72365332Y-49092204D01*
X72292206Y-49165330D01*
X72269041Y-49199998D01*
X72030957Y-49199998D01*
X72007794Y-49165332D01*
X71934668Y-49092206D01*
X71848681Y-49034751D01*
X71753137Y-48995176D01*
X71651708Y-48975000D01*
X71548292Y-48975000D01*
X71446863Y-48995176D01*
X71351319Y-49034751D01*
X71265332Y-49092206D01*
X71192206Y-49165332D01*
X71134751Y-49251319D01*
X71095176Y-49346863D01*
X71075000Y-49448292D01*
X71075000Y-49551708D01*
X71079633Y-49575000D01*
X70998292Y-49575000D01*
X70896863Y-49595176D01*
X70801319Y-49634751D01*
X70715332Y-49692206D01*
X70642206Y-49765332D01*
X70584751Y-49851319D01*
X70545176Y-49946863D01*
X70525000Y-50048292D01*
X70525000Y-50151708D01*
X70545176Y-50253137D01*
X70584751Y-50348681D01*
X70642206Y-50434668D01*
X70715332Y-50507794D01*
X70750001Y-50530959D01*
X70750000Y-58675000D01*
X60275000Y-58675000D01*
X60275000Y-47525000D01*
X66225000Y-47525000D01*
X66225000Y-48300000D01*
X66274032Y-48447832D01*
X66350963Y-48583258D01*
X66452836Y-48701074D01*
X66575736Y-48796751D01*
X66709049Y-48843312D01*
X66825000Y-48809225D01*
X66825000Y-47525000D01*
X66225000Y-47525000D01*
X60275000Y-47525000D01*
X60275000Y-46400000D01*
X66225000Y-46400000D01*
X66225000Y-47175000D01*
X66825000Y-47175000D01*
X66825000Y-45890775D01*
X66709049Y-45856688D01*
X66575736Y-45903249D01*
X66452836Y-45998926D01*
X66350963Y-46116742D01*
X66274032Y-46252168D01*
X66225000Y-46400000D01*
X60275000Y-46400000D01*
X60275000Y-44295000D01*
X66225000Y-44295000D01*
X66225000Y-44995000D01*
X66274032Y-45142832D01*
X66350963Y-45278258D01*
X66452836Y-45396074D01*
X66575736Y-45491751D01*
X66709049Y-45538312D01*
X66825000Y-45504225D01*
X66825000Y-44295000D01*
X66225000Y-44295000D01*
X60275000Y-44295000D01*
X60275000Y-43245000D01*
X66225000Y-43245000D01*
X66225000Y-43945000D01*
X66825000Y-43945000D01*
X66825000Y-42735775D01*
X66709049Y-42701688D01*
X66575736Y-42748249D01*
X66452836Y-42843926D01*
X66350963Y-42961742D01*
X66274032Y-43097168D01*
X66225000Y-43245000D01*
X60275000Y-43245000D01*
X60275000Y-41775000D01*
X65324762Y-41775000D01*
X65344130Y-41780875D01*
X65386010Y-41785000D01*
X67440001Y-41785000D01*
X67440001Y-42760500D01*
X67424264Y-42748249D01*
X67290951Y-42701688D01*
X67175000Y-42735775D01*
X67175000Y-43945000D01*
X67195000Y-43945000D01*
X67195000Y-44295000D01*
X67175000Y-44295000D01*
X67175000Y-45504225D01*
X67290951Y-45538312D01*
X67424264Y-45491751D01*
X67440000Y-45479500D01*
X67440000Y-45915500D01*
X67424264Y-45903249D01*
X67290951Y-45856688D01*
X67175000Y-45890775D01*
X67175000Y-47175000D01*
X67195000Y-47175000D01*
X67195000Y-47525000D01*
X67175000Y-47525000D01*
X67175000Y-48809225D01*
X67290951Y-48843312D01*
X67424264Y-48796751D01*
X67547164Y-48701074D01*
X67649037Y-48583258D01*
X67725968Y-48447832D01*
X67775000Y-48300000D01*
X67775000Y-47505000D01*
X77025000Y-47505000D01*
X77025000Y-48300000D01*
X77074032Y-48447832D01*
X77150963Y-48583258D01*
X77252836Y-48701074D01*
X77375736Y-48796751D01*
X77509049Y-48843312D01*
X77625000Y-48809225D01*
X77625000Y-47525000D01*
X77975000Y-47525000D01*
X77975000Y-48809225D01*
X78090951Y-48843312D01*
X78224264Y-48796751D01*
X78347164Y-48701074D01*
X78449037Y-48583258D01*
X78525968Y-48447832D01*
X78575000Y-48300000D01*
X78575000Y-47525000D01*
X77975000Y-47525000D01*
X77625000Y-47525000D01*
X77605000Y-47525000D01*
X77605000Y-47175000D01*
X77625000Y-47175000D01*
X77625000Y-45890775D01*
X77975000Y-45890775D01*
X77975000Y-47175000D01*
X78575000Y-47175000D01*
X78575000Y-46400000D01*
X78525968Y-46252168D01*
X78449037Y-46116742D01*
X78347164Y-45998926D01*
X78224264Y-45903249D01*
X78090951Y-45856688D01*
X77975000Y-45890775D01*
X77625000Y-45890775D01*
X77509049Y-45856688D01*
X77375736Y-45903249D01*
X77360000Y-45915499D01*
X77360000Y-45479501D01*
X77375736Y-45491751D01*
X77509049Y-45538312D01*
X77625000Y-45504225D01*
X77625000Y-44295000D01*
X77975000Y-44295000D01*
X77975000Y-45504225D01*
X78090951Y-45538312D01*
X78224264Y-45491751D01*
X78347164Y-45396074D01*
X78449037Y-45278258D01*
X78525968Y-45142832D01*
X78575000Y-44995000D01*
X78575000Y-44848292D01*
X90375000Y-44848292D01*
X90375000Y-44951708D01*
X90395176Y-45053137D01*
X90434751Y-45148681D01*
X90492206Y-45234668D01*
X90565332Y-45307794D01*
X90600001Y-45330959D01*
X90600000Y-47661003D01*
X90600000Y-47669041D01*
X90565332Y-47692206D01*
X90492206Y-47765332D01*
X90434751Y-47851319D01*
X90395176Y-47946863D01*
X90375000Y-48048292D01*
X90375000Y-48151708D01*
X90395176Y-48253137D01*
X90434751Y-48348681D01*
X90492206Y-48434668D01*
X90565332Y-48507794D01*
X90651319Y-48565249D01*
X90746863Y-48604824D01*
X90848292Y-48625000D01*
X90951708Y-48625000D01*
X91053137Y-48604824D01*
X91148681Y-48565249D01*
X91234668Y-48507794D01*
X91307794Y-48434668D01*
X91365249Y-48348681D01*
X91404824Y-48253137D01*
X91425000Y-48151708D01*
X91425000Y-48048292D01*
X91404824Y-47946863D01*
X91365249Y-47851319D01*
X91307794Y-47765332D01*
X91234668Y-47692206D01*
X91200000Y-47669041D01*
X91200000Y-45330959D01*
X91234668Y-45307794D01*
X91307794Y-45234668D01*
X91365249Y-45148681D01*
X91404824Y-45053137D01*
X91425000Y-44951708D01*
X91425000Y-44848292D01*
X91404824Y-44746863D01*
X91365249Y-44651319D01*
X91307794Y-44565332D01*
X91234668Y-44492206D01*
X91148681Y-44434751D01*
X91053137Y-44395176D01*
X90951708Y-44375000D01*
X90848292Y-44375000D01*
X90746863Y-44395176D01*
X90651319Y-44434751D01*
X90565332Y-44492206D01*
X90492206Y-44565332D01*
X90434751Y-44651319D01*
X90395176Y-44746863D01*
X90375000Y-44848292D01*
X78575000Y-44848292D01*
X78575000Y-44295000D01*
X77975000Y-44295000D01*
X77625000Y-44295000D01*
X77605000Y-44295000D01*
X77605000Y-43945000D01*
X77625000Y-43945000D01*
X77625000Y-42735775D01*
X77975000Y-42735775D01*
X77975000Y-43945000D01*
X78575000Y-43945000D01*
X78575000Y-43245000D01*
X78525968Y-43097168D01*
X78449037Y-42961742D01*
X78347164Y-42843926D01*
X78224264Y-42748249D01*
X78090951Y-42701688D01*
X77975000Y-42735775D01*
X77625000Y-42735775D01*
X77509049Y-42701688D01*
X77375736Y-42748249D01*
X77360000Y-42760499D01*
X77360000Y-41785000D01*
X79306054Y-41785000D01*
X79341190Y-41795659D01*
X79385267Y-41800000D01*
X86614733Y-41800000D01*
X86658810Y-41795659D01*
X86715360Y-41778504D01*
X86767477Y-41750647D01*
X86798667Y-41725050D01*
X93224950Y-41725050D01*
X93224951Y-48774950D01*
G37*
X93224951Y-48774950D02*
X92988953Y-48774950D01*
X92979134Y-48775917D01*
X92975414Y-48775891D01*
X92972287Y-48776198D01*
X92855829Y-48788438D01*
X92835859Y-48792537D01*
X92815812Y-48796361D01*
X92812812Y-48797268D01*
X92812805Y-48797269D01*
X92812799Y-48797272D01*
X92700942Y-48831897D01*
X92682160Y-48839792D01*
X92663227Y-48847441D01*
X92660453Y-48848916D01*
X92557446Y-48904612D01*
X92540539Y-48916015D01*
X92523466Y-48927188D01*
X92521031Y-48929173D01*
X92430805Y-49003816D01*
X92416430Y-49018292D01*
X92401860Y-49032560D01*
X92399857Y-49034981D01*
X92325846Y-49125726D01*
X92314564Y-49142708D01*
X92303034Y-49159546D01*
X92301540Y-49162310D01*
X92246565Y-49265703D01*
X92238797Y-49284549D01*
X92230756Y-49303310D01*
X92229828Y-49306308D01*
X92229828Y-49306310D01*
X92229827Y-49306312D01*
X92195982Y-49418413D01*
X92192013Y-49438459D01*
X92187780Y-49458373D01*
X92187451Y-49461498D01*
X92176024Y-49578039D01*
X92176024Y-49587881D01*
X92174962Y-49597664D01*
X92174951Y-49600806D01*
X92174966Y-49604995D01*
X92175960Y-49614767D01*
X92175891Y-49624586D01*
X92176198Y-49627713D01*
X92188438Y-49744170D01*
X92192536Y-49764133D01*
X92196361Y-49784188D01*
X92197268Y-49787188D01*
X92197269Y-49787195D01*
X92197272Y-49787201D01*
X92231897Y-49899058D01*
X92239792Y-49917840D01*
X92247441Y-49936773D01*
X92248915Y-49939543D01*
X92248917Y-49939548D01*
X92248918Y-49939549D01*
X92304612Y-50042554D01*
X92316015Y-50059461D01*
X92327188Y-50076534D01*
X92329174Y-50078969D01*
X92403816Y-50169195D01*
X92418288Y-50183567D01*
X92432559Y-50198140D01*
X92434980Y-50200143D01*
X92525726Y-50274154D01*
X92542741Y-50285459D01*
X92559547Y-50296966D01*
X92562305Y-50298457D01*
X92562309Y-50298460D01*
X92562313Y-50298462D01*
X92665704Y-50353435D01*
X92684535Y-50361197D01*
X92703310Y-50369244D01*
X92706308Y-50370172D01*
X92706314Y-50370174D01*
X92818413Y-50404018D01*
X92838459Y-50407987D01*
X92858373Y-50412220D01*
X92861498Y-50412549D01*
X92978039Y-50423976D01*
X92978048Y-50423976D01*
X92988953Y-50425050D01*
X93224951Y-50425050D01*
X93224950Y-53911046D01*
X93225910Y-53920790D01*
X93225888Y-53923888D01*
X93226195Y-53927015D01*
X93236395Y-54024063D01*
X93240495Y-54044040D01*
X93244318Y-54064080D01*
X93245224Y-54067078D01*
X93245226Y-54067088D01*
X93245230Y-54067097D01*
X93274083Y-54160307D01*
X93281992Y-54179122D01*
X93289629Y-54198024D01*
X93291104Y-54200798D01*
X93337516Y-54286636D01*
X93348920Y-54303543D01*
X93360091Y-54320614D01*
X93362077Y-54323049D01*
X93424279Y-54398237D01*
X93438752Y-54412609D01*
X93453022Y-54427182D01*
X93455443Y-54429185D01*
X93531064Y-54490861D01*
X93548074Y-54502163D01*
X93564887Y-54513674D01*
X93567651Y-54515169D01*
X93653811Y-54560981D01*
X93672698Y-54568765D01*
X93691416Y-54576788D01*
X93694415Y-54577716D01*
X93694419Y-54577718D01*
X93694423Y-54577719D01*
X93787835Y-54605922D01*
X93807813Y-54609878D01*
X93827798Y-54614126D01*
X93830919Y-54614454D01*
X93830923Y-54614454D01*
X93928040Y-54623976D01*
X93937868Y-54623976D01*
X93947632Y-54625037D01*
X93950774Y-54625049D01*
X93954265Y-54625037D01*
X93964052Y-54624043D01*
X93973888Y-54624112D01*
X93977015Y-54623805D01*
X94074063Y-54613605D01*
X94094040Y-54609505D01*
X94114080Y-54605682D01*
X94117078Y-54604776D01*
X94117088Y-54604774D01*
X94117097Y-54604770D01*
X94210307Y-54575917D01*
X94229122Y-54568008D01*
X94248024Y-54560371D01*
X94250793Y-54558899D01*
X94250797Y-54558897D01*
X94250800Y-54558895D01*
X94336636Y-54512484D01*
X94353543Y-54501080D01*
X94370614Y-54489909D01*
X94373049Y-54487923D01*
X94448237Y-54425721D01*
X94462609Y-54411248D01*
X94477182Y-54396978D01*
X94479185Y-54394557D01*
X94540861Y-54318936D01*
X94552163Y-54301926D01*
X94563674Y-54285113D01*
X94565169Y-54282349D01*
X94610981Y-54196189D01*
X94618765Y-54177302D01*
X94626788Y-54158584D01*
X94627717Y-54155583D01*
X94636936Y-54125050D01*
X98563169Y-54125050D01*
X98574083Y-54160307D01*
X98581992Y-54179122D01*
X98589629Y-54198024D01*
X98591104Y-54200798D01*
X98637516Y-54286636D01*
X98648920Y-54303543D01*
X98660091Y-54320614D01*
X98662077Y-54323049D01*
X98724279Y-54398237D01*
X98738752Y-54412609D01*
X98753022Y-54427182D01*
X98755443Y-54429185D01*
X98831064Y-54490861D01*
X98848074Y-54502163D01*
X98864887Y-54513674D01*
X98867651Y-54515169D01*
X98953811Y-54560981D01*
X98972698Y-54568765D01*
X98991416Y-54576788D01*
X98994415Y-54577716D01*
X98994419Y-54577718D01*
X98994423Y-54577719D01*
X99087835Y-54605922D01*
X99107813Y-54609878D01*
X99127798Y-54614126D01*
X99130919Y-54614454D01*
X99130923Y-54614454D01*
X99228040Y-54623976D01*
X99237868Y-54623976D01*
X99247632Y-54625037D01*
X99250774Y-54625049D01*
X99254265Y-54625037D01*
X99264052Y-54624043D01*
X99273888Y-54624112D01*
X99277015Y-54623805D01*
X99374063Y-54613605D01*
X99394040Y-54609505D01*
X99414080Y-54605682D01*
X99417078Y-54604776D01*
X99417088Y-54604774D01*
X99417097Y-54604770D01*
X99510307Y-54575917D01*
X99529122Y-54568008D01*
X99548024Y-54560371D01*
X99550793Y-54558899D01*
X99550797Y-54558897D01*
X99550800Y-54558895D01*
X99636636Y-54512484D01*
X99653543Y-54501080D01*
X99670614Y-54489909D01*
X99673049Y-54487923D01*
X99748237Y-54425721D01*
X99762609Y-54411248D01*
X99777182Y-54396978D01*
X99779185Y-54394557D01*
X99840861Y-54318936D01*
X99852163Y-54301926D01*
X99863674Y-54285113D01*
X99865169Y-54282349D01*
X99910981Y-54196189D01*
X99918765Y-54177302D01*
X99926788Y-54158584D01*
X99927717Y-54155583D01*
X99955922Y-54062165D01*
X99959878Y-54042187D01*
X99964126Y-54022202D01*
X99964454Y-54019077D01*
X99973976Y-53921960D01*
X99973976Y-53921952D01*
X99975050Y-53911047D01*
X99975050Y-50425050D01*
X100211047Y-50425050D01*
X100220866Y-50424083D01*
X100224586Y-50424109D01*
X100227713Y-50423802D01*
X100344170Y-50411562D01*
X100364133Y-50407464D01*
X100384188Y-50403639D01*
X100387188Y-50402732D01*
X100387195Y-50402731D01*
X100387201Y-50402728D01*
X100499058Y-50368103D01*
X100517840Y-50360208D01*
X100536773Y-50352559D01*
X100539543Y-50351085D01*
X100539548Y-50351083D01*
X100539552Y-50351080D01*
X100642554Y-50295388D01*
X100659461Y-50283985D01*
X100676534Y-50272812D01*
X100678969Y-50270826D01*
X100769195Y-50196184D01*
X100783567Y-50181712D01*
X100798140Y-50167441D01*
X100800143Y-50165020D01*
X100874154Y-50074274D01*
X100885459Y-50057259D01*
X100896966Y-50040453D01*
X100898457Y-50037695D01*
X100898460Y-50037691D01*
X100898462Y-50037687D01*
X100953435Y-49934296D01*
X100961197Y-49915465D01*
X100969244Y-49896690D01*
X100970173Y-49893688D01*
X101004018Y-49781587D01*
X101007987Y-49761541D01*
X101012220Y-49741627D01*
X101012549Y-49738502D01*
X101023976Y-49621961D01*
X101023976Y-49612119D01*
X101025038Y-49602336D01*
X101025049Y-49599194D01*
X101025034Y-49595005D01*
X101024040Y-49585233D01*
X101024109Y-49575414D01*
X101023802Y-49572287D01*
X101011562Y-49455829D01*
X101007463Y-49435859D01*
X101003639Y-49415812D01*
X101002732Y-49412812D01*
X101002731Y-49412805D01*
X101002728Y-49412799D01*
X100968103Y-49300942D01*
X100960208Y-49282160D01*
X100952559Y-49263227D01*
X100951084Y-49260453D01*
X100895388Y-49157446D01*
X100883985Y-49140539D01*
X100872812Y-49123466D01*
X100870827Y-49121031D01*
X100796184Y-49030805D01*
X100781708Y-49016430D01*
X100767440Y-49001860D01*
X100765019Y-48999857D01*
X100674274Y-48925846D01*
X100657292Y-48914564D01*
X100640454Y-48903034D01*
X100637690Y-48901540D01*
X100534297Y-48846565D01*
X100515451Y-48838797D01*
X100496690Y-48830756D01*
X100493692Y-48829828D01*
X100493686Y-48829826D01*
X100381587Y-48795982D01*
X100361541Y-48792013D01*
X100341627Y-48787780D01*
X100338502Y-48787451D01*
X100221961Y-48776024D01*
X100221952Y-48776024D01*
X100211047Y-48774950D01*
X99975050Y-48774950D01*
X99975050Y-41725050D01*
X105925000Y-41725050D01*
X105925000Y-58725000D01*
X91532366Y-58725000D01*
X88275000Y-55270218D01*
X88275000Y-49900000D01*
X88273559Y-49885368D01*
X88269291Y-49871299D01*
X88262360Y-49858332D01*
X88254615Y-49848598D01*
X85054615Y-46448598D01*
X85043537Y-46438930D01*
X85030787Y-46431610D01*
X85016853Y-46426918D01*
X85000000Y-46425000D01*
X82949263Y-46425000D01*
X82816865Y-46292602D01*
X82825000Y-46251708D01*
X82825000Y-46148292D01*
X82804824Y-46046863D01*
X82765249Y-45951319D01*
X82707794Y-45865332D01*
X82634668Y-45792206D01*
X82548681Y-45734751D01*
X82453137Y-45695176D01*
X82351708Y-45675000D01*
X82248292Y-45675000D01*
X82146863Y-45695176D01*
X82051319Y-45734751D01*
X81965332Y-45792206D01*
X81900000Y-45857538D01*
X81834668Y-45792206D01*
X81748681Y-45734751D01*
X81653137Y-45695176D01*
X81551708Y-45675000D01*
X81448292Y-45675000D01*
X81346863Y-45695176D01*
X81251319Y-45734751D01*
X81165332Y-45792206D01*
X81092206Y-45865332D01*
X81034751Y-45951319D01*
X80995176Y-46046863D01*
X80975000Y-46148292D01*
X80975000Y-46251708D01*
X80983135Y-46292602D01*
X80698290Y-46577447D01*
X80686842Y-46586842D01*
X80669648Y-46607794D01*
X80649353Y-46632523D01*
X80634464Y-46660380D01*
X80621496Y-46684641D01*
X80604341Y-46741191D01*
X80600000Y-46785268D01*
X80600000Y-46785277D01*
X80598550Y-46800000D01*
X80600000Y-46814723D01*
X80600000Y-47185277D01*
X80598550Y-47200000D01*
X80600000Y-47214723D01*
X80600000Y-47214733D01*
X80604341Y-47258810D01*
X80609517Y-47275870D01*
X80621497Y-47315360D01*
X80649353Y-47367477D01*
X80659694Y-47380077D01*
X80686843Y-47413158D01*
X80698286Y-47422549D01*
X81425000Y-48149263D01*
X81425000Y-58675000D01*
X77700000Y-58675000D01*
X77700000Y-57030959D01*
X77734668Y-57007794D01*
X77807794Y-56934668D01*
X77865249Y-56848681D01*
X77904824Y-56753137D01*
X77925000Y-56651708D01*
X77925000Y-56548292D01*
X77904824Y-56446863D01*
X77865249Y-56351319D01*
X77807794Y-56265332D01*
X77734668Y-56192206D01*
X77648681Y-56134751D01*
X77553137Y-56095176D01*
X77451708Y-56075000D01*
X77348292Y-56075000D01*
X77246863Y-56095176D01*
X77151319Y-56134751D01*
X77065332Y-56192206D01*
X76992206Y-56265332D01*
X76934751Y-56351319D01*
X76895176Y-56446863D01*
X76875000Y-56548292D01*
X76875000Y-56651708D01*
X76895176Y-56753137D01*
X76934751Y-56848681D01*
X76992206Y-56934668D01*
X77065332Y-57007794D01*
X77100001Y-57030959D01*
X77100001Y-58675000D01*
X73000000Y-58675000D01*
X73000000Y-51080959D01*
X73034668Y-51057794D01*
X73107794Y-50984668D01*
X73165249Y-50898681D01*
X73204824Y-50803137D01*
X73225000Y-50701708D01*
X73225000Y-50598292D01*
X73204824Y-50496863D01*
X73165249Y-50401319D01*
X73107794Y-50315332D01*
X73034668Y-50242206D01*
X72948681Y-50184751D01*
X72853137Y-50145176D01*
X72751708Y-50125000D01*
X72675000Y-50125000D01*
X72675000Y-50048292D01*
X72670366Y-50024998D01*
X72751708Y-50024998D01*
X72853137Y-50004822D01*
X72948681Y-49965247D01*
X73034668Y-49907792D01*
X73107794Y-49834666D01*
X73165249Y-49748679D01*
X73204824Y-49653135D01*
X73225000Y-49551706D01*
X73225000Y-49448290D01*
X73204824Y-49346861D01*
X73165249Y-49251317D01*
X73107794Y-49165330D01*
X73034668Y-49092204D01*
X72948681Y-49034749D01*
X72853137Y-48995174D01*
X72751708Y-48974998D01*
X72648292Y-48974998D01*
X72546863Y-48995174D01*
X72451319Y-49034749D01*
X72365332Y-49092204D01*
X72292206Y-49165330D01*
X72269041Y-49199998D01*
X72030957Y-49199998D01*
X72007794Y-49165332D01*
X71934668Y-49092206D01*
X71848681Y-49034751D01*
X71753137Y-48995176D01*
X71651708Y-48975000D01*
X71548292Y-48975000D01*
X71446863Y-48995176D01*
X71351319Y-49034751D01*
X71265332Y-49092206D01*
X71192206Y-49165332D01*
X71134751Y-49251319D01*
X71095176Y-49346863D01*
X71075000Y-49448292D01*
X71075000Y-49551708D01*
X71079633Y-49575000D01*
X70998292Y-49575000D01*
X70896863Y-49595176D01*
X70801319Y-49634751D01*
X70715332Y-49692206D01*
X70642206Y-49765332D01*
X70584751Y-49851319D01*
X70545176Y-49946863D01*
X70525000Y-50048292D01*
X70525000Y-50151708D01*
X70545176Y-50253137D01*
X70584751Y-50348681D01*
X70642206Y-50434668D01*
X70715332Y-50507794D01*
X70750001Y-50530959D01*
X70750000Y-58675000D01*
X60275000Y-58675000D01*
X60275000Y-47525000D01*
X66225000Y-47525000D01*
X66225000Y-48300000D01*
X66274032Y-48447832D01*
X66350963Y-48583258D01*
X66452836Y-48701074D01*
X66575736Y-48796751D01*
X66709049Y-48843312D01*
X66825000Y-48809225D01*
X66825000Y-47525000D01*
X66225000Y-47525000D01*
X60275000Y-47525000D01*
X60275000Y-46400000D01*
X66225000Y-46400000D01*
X66225000Y-47175000D01*
X66825000Y-47175000D01*
X66825000Y-45890775D01*
X66709049Y-45856688D01*
X66575736Y-45903249D01*
X66452836Y-45998926D01*
X66350963Y-46116742D01*
X66274032Y-46252168D01*
X66225000Y-46400000D01*
X60275000Y-46400000D01*
X60275000Y-44295000D01*
X66225000Y-44295000D01*
X66225000Y-44995000D01*
X66274032Y-45142832D01*
X66350963Y-45278258D01*
X66452836Y-45396074D01*
X66575736Y-45491751D01*
X66709049Y-45538312D01*
X66825000Y-45504225D01*
X66825000Y-44295000D01*
X66225000Y-44295000D01*
X60275000Y-44295000D01*
X60275000Y-43245000D01*
X66225000Y-43245000D01*
X66225000Y-43945000D01*
X66825000Y-43945000D01*
X66825000Y-42735775D01*
X66709049Y-42701688D01*
X66575736Y-42748249D01*
X66452836Y-42843926D01*
X66350963Y-42961742D01*
X66274032Y-43097168D01*
X66225000Y-43245000D01*
X60275000Y-43245000D01*
X60275000Y-41775000D01*
X65324762Y-41775000D01*
X65344130Y-41780875D01*
X65386010Y-41785000D01*
X67440001Y-41785000D01*
X67440001Y-42760500D01*
X67424264Y-42748249D01*
X67290951Y-42701688D01*
X67175000Y-42735775D01*
X67175000Y-43945000D01*
X67195000Y-43945000D01*
X67195000Y-44295000D01*
X67175000Y-44295000D01*
X67175000Y-45504225D01*
X67290951Y-45538312D01*
X67424264Y-45491751D01*
X67440000Y-45479500D01*
X67440000Y-45915500D01*
X67424264Y-45903249D01*
X67290951Y-45856688D01*
X67175000Y-45890775D01*
X67175000Y-47175000D01*
X67195000Y-47175000D01*
X67195000Y-47525000D01*
X67175000Y-47525000D01*
X67175000Y-48809225D01*
X67290951Y-48843312D01*
X67424264Y-48796751D01*
X67547164Y-48701074D01*
X67649037Y-48583258D01*
X67725968Y-48447832D01*
X67775000Y-48300000D01*
X67775000Y-47505000D01*
X77025000Y-47505000D01*
X77025000Y-48300000D01*
X77074032Y-48447832D01*
X77150963Y-48583258D01*
X77252836Y-48701074D01*
X77375736Y-48796751D01*
X77509049Y-48843312D01*
X77625000Y-48809225D01*
X77625000Y-47525000D01*
X77975000Y-47525000D01*
X77975000Y-48809225D01*
X78090951Y-48843312D01*
X78224264Y-48796751D01*
X78347164Y-48701074D01*
X78449037Y-48583258D01*
X78525968Y-48447832D01*
X78575000Y-48300000D01*
X78575000Y-47525000D01*
X77975000Y-47525000D01*
X77625000Y-47525000D01*
X77605000Y-47525000D01*
X77605000Y-47175000D01*
X77625000Y-47175000D01*
X77625000Y-45890775D01*
X77975000Y-45890775D01*
X77975000Y-47175000D01*
X78575000Y-47175000D01*
X78575000Y-46400000D01*
X78525968Y-46252168D01*
X78449037Y-46116742D01*
X78347164Y-45998926D01*
X78224264Y-45903249D01*
X78090951Y-45856688D01*
X77975000Y-45890775D01*
X77625000Y-45890775D01*
X77509049Y-45856688D01*
X77375736Y-45903249D01*
X77360000Y-45915499D01*
X77360000Y-45479501D01*
X77375736Y-45491751D01*
X77509049Y-45538312D01*
X77625000Y-45504225D01*
X77625000Y-44295000D01*
X77975000Y-44295000D01*
X77975000Y-45504225D01*
X78090951Y-45538312D01*
X78224264Y-45491751D01*
X78347164Y-45396074D01*
X78449037Y-45278258D01*
X78525968Y-45142832D01*
X78575000Y-44995000D01*
X78575000Y-44848292D01*
X90375000Y-44848292D01*
X90375000Y-44951708D01*
X90395176Y-45053137D01*
X90434751Y-45148681D01*
X90492206Y-45234668D01*
X90565332Y-45307794D01*
X90600001Y-45330959D01*
X90600000Y-47661003D01*
X90600000Y-47669041D01*
X90565332Y-47692206D01*
X90492206Y-47765332D01*
X90434751Y-47851319D01*
X90395176Y-47946863D01*
X90375000Y-48048292D01*
X90375000Y-48151708D01*
X90395176Y-48253137D01*
X90434751Y-48348681D01*
X90492206Y-48434668D01*
X90565332Y-48507794D01*
X90651319Y-48565249D01*
X90746863Y-48604824D01*
X90848292Y-48625000D01*
X90951708Y-48625000D01*
X91053137Y-48604824D01*
X91148681Y-48565249D01*
X91234668Y-48507794D01*
X91307794Y-48434668D01*
X91365249Y-48348681D01*
X91404824Y-48253137D01*
X91425000Y-48151708D01*
X91425000Y-48048292D01*
X91404824Y-47946863D01*
X91365249Y-47851319D01*
X91307794Y-47765332D01*
X91234668Y-47692206D01*
X91200000Y-47669041D01*
X91200000Y-45330959D01*
X91234668Y-45307794D01*
X91307794Y-45234668D01*
X91365249Y-45148681D01*
X91404824Y-45053137D01*
X91425000Y-44951708D01*
X91425000Y-44848292D01*
X91404824Y-44746863D01*
X91365249Y-44651319D01*
X91307794Y-44565332D01*
X91234668Y-44492206D01*
X91148681Y-44434751D01*
X91053137Y-44395176D01*
X90951708Y-44375000D01*
X90848292Y-44375000D01*
X90746863Y-44395176D01*
X90651319Y-44434751D01*
X90565332Y-44492206D01*
X90492206Y-44565332D01*
X90434751Y-44651319D01*
X90395176Y-44746863D01*
X90375000Y-44848292D01*
X78575000Y-44848292D01*
X78575000Y-44295000D01*
X77975000Y-44295000D01*
X77625000Y-44295000D01*
X77605000Y-44295000D01*
X77605000Y-43945000D01*
X77625000Y-43945000D01*
X77625000Y-42735775D01*
X77975000Y-42735775D01*
X77975000Y-43945000D01*
X78575000Y-43945000D01*
X78575000Y-43245000D01*
X78525968Y-43097168D01*
X78449037Y-42961742D01*
X78347164Y-42843926D01*
X78224264Y-42748249D01*
X78090951Y-42701688D01*
X77975000Y-42735775D01*
X77625000Y-42735775D01*
X77509049Y-42701688D01*
X77375736Y-42748249D01*
X77360000Y-42760499D01*
X77360000Y-41785000D01*
X79306054Y-41785000D01*
X79341190Y-41795659D01*
X79385267Y-41800000D01*
X86614733Y-41800000D01*
X86658810Y-41795659D01*
X86715360Y-41778504D01*
X86767477Y-41750647D01*
X86798667Y-41725050D01*
X93224950Y-41725050D01*
X93224951Y-48774950D01*
%TO.N,+3V3*%
G36*
X106432523Y-41750647D02*
G01*
X106484640Y-41778504D01*
X106541190Y-41795659D01*
X106585267Y-41800000D01*
X119200000Y-41800000D01*
X119200001Y-120200000D01*
X105292247Y-120200000D01*
X105279340Y-119707108D01*
X105279046Y-119703330D01*
X105279046Y-119699522D01*
X105277827Y-119683863D01*
X105117782Y-118148246D01*
X105116606Y-118140733D01*
X105115826Y-118133189D01*
X105113011Y-118117777D01*
X105113005Y-118117739D01*
X105113000Y-118117721D01*
X104795958Y-116606709D01*
X104794016Y-116599360D01*
X104792465Y-116591934D01*
X104788070Y-116576855D01*
X104317379Y-115106418D01*
X104314695Y-115099315D01*
X104312386Y-115092080D01*
X104306464Y-115077532D01*
X103687118Y-113663270D01*
X103683716Y-113656476D01*
X103680677Y-113649520D01*
X103673292Y-113635659D01*
X102911850Y-112292551D01*
X102907765Y-112286140D01*
X102904030Y-112279537D01*
X102895277Y-112266536D01*
X102895259Y-112266508D01*
X102895249Y-112266496D01*
X101999789Y-111008785D01*
X101995071Y-111002833D01*
X101990673Y-110996644D01*
X101980609Y-110984586D01*
X100960597Y-109825574D01*
X100955300Y-109820146D01*
X100950282Y-109814434D01*
X100939031Y-109803474D01*
X99805285Y-108755450D01*
X99799444Y-108750583D01*
X99793879Y-108745430D01*
X99781562Y-108735684D01*
X98546094Y-107809754D01*
X98539797Y-107805523D01*
X98533718Y-107800958D01*
X98520464Y-107792531D01*
X97196360Y-106998501D01*
X97189645Y-106994930D01*
X97183145Y-106991025D01*
X97169112Y-106984012D01*
X97169096Y-106984004D01*
X97169088Y-106984001D01*
X95770387Y-106330289D01*
X95763344Y-106327429D01*
X95756474Y-106324211D01*
X95741777Y-106318672D01*
X94835534Y-106003971D01*
X97905000Y-106003971D01*
X97905000Y-106196029D01*
X97942468Y-106384397D01*
X98015966Y-106561836D01*
X98122668Y-106721527D01*
X98258473Y-106857332D01*
X98418164Y-106964034D01*
X98595603Y-107037532D01*
X98783971Y-107075000D01*
X98976029Y-107075000D01*
X99164397Y-107037532D01*
X99341836Y-106964034D01*
X99501527Y-106857332D01*
X99637332Y-106721527D01*
X99744034Y-106561836D01*
X99817532Y-106384397D01*
X99855000Y-106196029D01*
X99855000Y-106003971D01*
X99817532Y-105815603D01*
X99744034Y-105638164D01*
X99637332Y-105478473D01*
X99508859Y-105350000D01*
X100443912Y-105350000D01*
X100443912Y-106850000D01*
X100448256Y-106894108D01*
X100461122Y-106936520D01*
X100482015Y-106975608D01*
X100510132Y-107009868D01*
X100544392Y-107037985D01*
X100583480Y-107058878D01*
X100625892Y-107071744D01*
X100670000Y-107076088D01*
X102170000Y-107076088D01*
X102214108Y-107071744D01*
X102256520Y-107058878D01*
X102295608Y-107037985D01*
X102329868Y-107009868D01*
X102337966Y-107000000D01*
X111023669Y-107000000D01*
X111028979Y-107053910D01*
X111044703Y-107105747D01*
X111070239Y-107153521D01*
X111104604Y-107195396D01*
X111146479Y-107229761D01*
X111194253Y-107255297D01*
X111246090Y-107271021D01*
X111300000Y-107276331D01*
X113056250Y-107275000D01*
X113125000Y-107206250D01*
X113125000Y-105175000D01*
X113475000Y-105175000D01*
X113475000Y-107206250D01*
X113543750Y-107275000D01*
X115300000Y-107276331D01*
X115353910Y-107271021D01*
X115405747Y-107255297D01*
X115453521Y-107229761D01*
X115495396Y-107195396D01*
X115529761Y-107153521D01*
X115555297Y-107105747D01*
X115571021Y-107053910D01*
X115576331Y-107000000D01*
X115575000Y-105243750D01*
X115506250Y-105175000D01*
X113475000Y-105175000D01*
X113125000Y-105175000D01*
X111093750Y-105175000D01*
X111025000Y-105243750D01*
X111023669Y-107000000D01*
X102337966Y-107000000D01*
X102357985Y-106975608D01*
X102378878Y-106936520D01*
X102391744Y-106894108D01*
X102396088Y-106850000D01*
X102396088Y-105350000D01*
X102391744Y-105305892D01*
X102378878Y-105263480D01*
X102357985Y-105224392D01*
X102329868Y-105190132D01*
X102295608Y-105162015D01*
X102256520Y-105141122D01*
X102214108Y-105128256D01*
X102170000Y-105123912D01*
X100670000Y-105123912D01*
X100625892Y-105128256D01*
X100583480Y-105141122D01*
X100544392Y-105162015D01*
X100510132Y-105190132D01*
X100482015Y-105224392D01*
X100461122Y-105263480D01*
X100448256Y-105305892D01*
X100443912Y-105350000D01*
X99508859Y-105350000D01*
X99501527Y-105342668D01*
X99341836Y-105235966D01*
X99164397Y-105162468D01*
X98976029Y-105125000D01*
X98783971Y-105125000D01*
X98595603Y-105162468D01*
X98418164Y-105235966D01*
X98258473Y-105342668D01*
X98122668Y-105478473D01*
X98015966Y-105638164D01*
X97942468Y-105815603D01*
X97905000Y-106003971D01*
X94835534Y-106003971D01*
X94283280Y-105812196D01*
X94275986Y-105810077D01*
X94268816Y-105807580D01*
X94253627Y-105803581D01*
X92750793Y-105449710D01*
X92743323Y-105448353D01*
X92735931Y-105446605D01*
X92720412Y-105444189D01*
X91189164Y-105246674D01*
X91181599Y-105246092D01*
X91174062Y-105245113D01*
X91158376Y-105244305D01*
X89614937Y-105205236D01*
X89607346Y-105205435D01*
X89599754Y-105205236D01*
X89584069Y-105206044D01*
X88044789Y-105325837D01*
X88037251Y-105326816D01*
X88029687Y-105327398D01*
X88014173Y-105329813D01*
X88014167Y-105329814D01*
X88014164Y-105329815D01*
X86495356Y-105607198D01*
X86487963Y-105608946D01*
X86480494Y-105610303D01*
X86465305Y-105614302D01*
X84983051Y-106046339D01*
X84975877Y-106048837D01*
X84968588Y-106050955D01*
X84953890Y-106056494D01*
X83523899Y-106638608D01*
X83517024Y-106641829D01*
X83509987Y-106644686D01*
X83495952Y-106651700D01*
X83495936Y-106651707D01*
X83495928Y-106651712D01*
X82133357Y-107377729D01*
X82126855Y-107381636D01*
X82120142Y-107385205D01*
X82106888Y-107393632D01*
X80826156Y-108255872D01*
X80820080Y-108260434D01*
X80813781Y-108264667D01*
X80801463Y-108274412D01*
X79616146Y-109263735D01*
X79610579Y-109268890D01*
X79604740Y-109273755D01*
X79593509Y-109284696D01*
X79593489Y-109284715D01*
X79593480Y-109284725D01*
X78516147Y-110390638D01*
X78511136Y-110396342D01*
X78505832Y-110401777D01*
X78495787Y-110413813D01*
X78495767Y-110413836D01*
X78495758Y-110413848D01*
X77537812Y-111624643D01*
X77533411Y-111630836D01*
X77528696Y-111636785D01*
X77519938Y-111649795D01*
X77519925Y-111649813D01*
X77519920Y-111649822D01*
X76691507Y-112952678D01*
X76687769Y-112959284D01*
X76683687Y-112965692D01*
X76676301Y-112979554D01*
X75986196Y-114360671D01*
X75983155Y-114367631D01*
X75979755Y-114374421D01*
X75973833Y-114388968D01*
X75429352Y-115833706D01*
X75427044Y-115840940D01*
X75424359Y-115848044D01*
X75419964Y-115863123D01*
X75026875Y-117356178D01*
X75025322Y-117363612D01*
X75023382Y-117370954D01*
X75020568Y-117386367D01*
X75020560Y-117386405D01*
X75020558Y-117386424D01*
X74783030Y-118911958D01*
X74782250Y-118919504D01*
X74781074Y-118927014D01*
X74779859Y-118942634D01*
X74779855Y-118942673D01*
X74779855Y-118942692D01*
X74715062Y-120200000D01*
X60275000Y-120200000D01*
X60275000Y-106003971D01*
X77585000Y-106003971D01*
X77585000Y-106196029D01*
X77622468Y-106384397D01*
X77695966Y-106561836D01*
X77802668Y-106721527D01*
X77938473Y-106857332D01*
X78098164Y-106964034D01*
X78275603Y-107037532D01*
X78463971Y-107075000D01*
X78656029Y-107075000D01*
X78844397Y-107037532D01*
X79021836Y-106964034D01*
X79181527Y-106857332D01*
X79317332Y-106721527D01*
X79424034Y-106561836D01*
X79497532Y-106384397D01*
X79535000Y-106196029D01*
X79535000Y-106003971D01*
X80125000Y-106003971D01*
X80125000Y-106196029D01*
X80162468Y-106384397D01*
X80235966Y-106561836D01*
X80342668Y-106721527D01*
X80478473Y-106857332D01*
X80638164Y-106964034D01*
X80815603Y-107037532D01*
X81003971Y-107075000D01*
X81196029Y-107075000D01*
X81384397Y-107037532D01*
X81561836Y-106964034D01*
X81721527Y-106857332D01*
X81857332Y-106721527D01*
X81964034Y-106561836D01*
X82037532Y-106384397D01*
X82075000Y-106196029D01*
X82075000Y-106003971D01*
X82037532Y-105815603D01*
X81964034Y-105638164D01*
X81857332Y-105478473D01*
X81721527Y-105342668D01*
X81561836Y-105235966D01*
X81384397Y-105162468D01*
X81196029Y-105125000D01*
X81003971Y-105125000D01*
X80815603Y-105162468D01*
X80638164Y-105235966D01*
X80478473Y-105342668D01*
X80342668Y-105478473D01*
X80235966Y-105638164D01*
X80162468Y-105815603D01*
X80125000Y-106003971D01*
X79535000Y-106003971D01*
X79497532Y-105815603D01*
X79424034Y-105638164D01*
X79317332Y-105478473D01*
X79181527Y-105342668D01*
X79021836Y-105235966D01*
X78844397Y-105162468D01*
X78656029Y-105125000D01*
X78463971Y-105125000D01*
X78275603Y-105162468D01*
X78098164Y-105235966D01*
X77938473Y-105342668D01*
X77802668Y-105478473D01*
X77695966Y-105638164D01*
X77622468Y-105815603D01*
X77585000Y-106003971D01*
X60275000Y-106003971D01*
X60275000Y-103000000D01*
X111023669Y-103000000D01*
X111025000Y-104756250D01*
X111093750Y-104825000D01*
X113125000Y-104825000D01*
X113125000Y-102793750D01*
X113475000Y-102793750D01*
X113475000Y-104825000D01*
X115506250Y-104825000D01*
X115575000Y-104756250D01*
X115576331Y-103000000D01*
X115571021Y-102946090D01*
X115555297Y-102894253D01*
X115529761Y-102846479D01*
X115495396Y-102804604D01*
X115453521Y-102770239D01*
X115405747Y-102744703D01*
X115353910Y-102728979D01*
X115300000Y-102723669D01*
X113543750Y-102725000D01*
X113475000Y-102793750D01*
X113125000Y-102793750D01*
X113056250Y-102725000D01*
X111300000Y-102723669D01*
X111246090Y-102728979D01*
X111194253Y-102744703D01*
X111146479Y-102770239D01*
X111104604Y-102804604D01*
X111070239Y-102846479D01*
X111044703Y-102894253D01*
X111028979Y-102946090D01*
X111023669Y-103000000D01*
X60275000Y-103000000D01*
X60275000Y-97500000D01*
X111073912Y-97500000D01*
X111073912Y-101500000D01*
X111078256Y-101544108D01*
X111091122Y-101586520D01*
X111112015Y-101625608D01*
X111140132Y-101659868D01*
X111174392Y-101687985D01*
X111213480Y-101708878D01*
X111255892Y-101721744D01*
X111300000Y-101726088D01*
X115300000Y-101726088D01*
X115344108Y-101721744D01*
X115386520Y-101708878D01*
X115425608Y-101687985D01*
X115459868Y-101659868D01*
X115487985Y-101625608D01*
X115508878Y-101586520D01*
X115521744Y-101544108D01*
X115526088Y-101500000D01*
X115526088Y-97500000D01*
X115521744Y-97455892D01*
X115508878Y-97413480D01*
X115487985Y-97374392D01*
X115459868Y-97340132D01*
X115425608Y-97312015D01*
X115386520Y-97291122D01*
X115344108Y-97278256D01*
X115300000Y-97273912D01*
X111300000Y-97273912D01*
X111255892Y-97278256D01*
X111213480Y-97291122D01*
X111174392Y-97312015D01*
X111140132Y-97340132D01*
X111112015Y-97374392D01*
X111091122Y-97413480D01*
X111078256Y-97455892D01*
X111073912Y-97500000D01*
X60275000Y-97500000D01*
X60275000Y-80603971D01*
X77585000Y-80603971D01*
X77585000Y-80796029D01*
X77622468Y-80984397D01*
X77695966Y-81161836D01*
X77802668Y-81321527D01*
X77938473Y-81457332D01*
X78098164Y-81564034D01*
X78275603Y-81637532D01*
X78463971Y-81675000D01*
X78656029Y-81675000D01*
X78844397Y-81637532D01*
X79021836Y-81564034D01*
X79129549Y-81492062D01*
X80555425Y-81492062D01*
X80644985Y-81624002D01*
X80833992Y-81695017D01*
X81033222Y-81727793D01*
X81235017Y-81721073D01*
X81431624Y-81675112D01*
X81555015Y-81624002D01*
X81644575Y-81492062D01*
X83095425Y-81492062D01*
X83184985Y-81624002D01*
X83373992Y-81695017D01*
X83573222Y-81727793D01*
X83775017Y-81721073D01*
X83971624Y-81675112D01*
X84095015Y-81624002D01*
X84184575Y-81492062D01*
X83640000Y-80947487D01*
X83095425Y-81492062D01*
X81644575Y-81492062D01*
X81100000Y-80947487D01*
X80555425Y-81492062D01*
X79129549Y-81492062D01*
X79181527Y-81457332D01*
X79317332Y-81321527D01*
X79424034Y-81161836D01*
X79497532Y-80984397D01*
X79535000Y-80796029D01*
X79535000Y-80633222D01*
X80072207Y-80633222D01*
X80078927Y-80835017D01*
X80124888Y-81031624D01*
X80175998Y-81155015D01*
X80307938Y-81244575D01*
X80852513Y-80700000D01*
X81347487Y-80700000D01*
X81892062Y-81244575D01*
X82024002Y-81155015D01*
X82095017Y-80966008D01*
X82127793Y-80766778D01*
X82123346Y-80633222D01*
X82612207Y-80633222D01*
X82618927Y-80835017D01*
X82664888Y-81031624D01*
X82715998Y-81155015D01*
X82847938Y-81244575D01*
X83392513Y-80700000D01*
X83887487Y-80700000D01*
X84432062Y-81244575D01*
X84564002Y-81155015D01*
X84635017Y-80966008D01*
X84667793Y-80766778D01*
X84662372Y-80603971D01*
X85205000Y-80603971D01*
X85205000Y-80796029D01*
X85242468Y-80984397D01*
X85315966Y-81161836D01*
X85422668Y-81321527D01*
X85558473Y-81457332D01*
X85718164Y-81564034D01*
X85895603Y-81637532D01*
X86083971Y-81675000D01*
X86276029Y-81675000D01*
X86464397Y-81637532D01*
X86641836Y-81564034D01*
X86801527Y-81457332D01*
X86937332Y-81321527D01*
X87044034Y-81161836D01*
X87117532Y-80984397D01*
X87155000Y-80796029D01*
X87155000Y-80603971D01*
X87117532Y-80415603D01*
X87044034Y-80238164D01*
X86937332Y-80078473D01*
X86801527Y-79942668D01*
X86641836Y-79835966D01*
X86464397Y-79762468D01*
X86276029Y-79725000D01*
X86083971Y-79725000D01*
X85895603Y-79762468D01*
X85718164Y-79835966D01*
X85558473Y-79942668D01*
X85422668Y-80078473D01*
X85315966Y-80238164D01*
X85242468Y-80415603D01*
X85205000Y-80603971D01*
X84662372Y-80603971D01*
X84661073Y-80564983D01*
X84615112Y-80368376D01*
X84564002Y-80244985D01*
X84432062Y-80155425D01*
X83887487Y-80700000D01*
X83392513Y-80700000D01*
X82847938Y-80155425D01*
X82715998Y-80244985D01*
X82644983Y-80433992D01*
X82612207Y-80633222D01*
X82123346Y-80633222D01*
X82121073Y-80564983D01*
X82075112Y-80368376D01*
X82024002Y-80244985D01*
X81892062Y-80155425D01*
X81347487Y-80700000D01*
X80852513Y-80700000D01*
X80307938Y-80155425D01*
X80175998Y-80244985D01*
X80104983Y-80433992D01*
X80072207Y-80633222D01*
X79535000Y-80633222D01*
X79535000Y-80603971D01*
X79497532Y-80415603D01*
X79424034Y-80238164D01*
X79317332Y-80078473D01*
X79181527Y-79942668D01*
X79129550Y-79907938D01*
X80555425Y-79907938D01*
X81100000Y-80452513D01*
X81644575Y-79907938D01*
X83095425Y-79907938D01*
X83640000Y-80452513D01*
X84184575Y-79907938D01*
X84095015Y-79775998D01*
X83906008Y-79704983D01*
X83706778Y-79672207D01*
X83504983Y-79678927D01*
X83308376Y-79724888D01*
X83184985Y-79775998D01*
X83095425Y-79907938D01*
X81644575Y-79907938D01*
X81555015Y-79775998D01*
X81366008Y-79704983D01*
X81166778Y-79672207D01*
X80964983Y-79678927D01*
X80768376Y-79724888D01*
X80644985Y-79775998D01*
X80555425Y-79907938D01*
X79129550Y-79907938D01*
X79021836Y-79835966D01*
X78844397Y-79762468D01*
X78656029Y-79725000D01*
X78463971Y-79725000D01*
X78275603Y-79762468D01*
X78098164Y-79835966D01*
X77938473Y-79942668D01*
X77802668Y-80078473D01*
X77695966Y-80238164D01*
X77622468Y-80415603D01*
X77585000Y-80603971D01*
X60275000Y-80603971D01*
X60275000Y-58975000D01*
X70750000Y-58975000D01*
X70750000Y-63235277D01*
X70748550Y-63250000D01*
X70750000Y-63264723D01*
X70750000Y-63264732D01*
X70754341Y-63308809D01*
X70771496Y-63365359D01*
X70771497Y-63365360D01*
X70799353Y-63417477D01*
X70816358Y-63438198D01*
X70836842Y-63463158D01*
X70848290Y-63472553D01*
X71683134Y-64307398D01*
X71675000Y-64348292D01*
X71675000Y-64451708D01*
X71695176Y-64553137D01*
X71734751Y-64648681D01*
X71792206Y-64734668D01*
X71865332Y-64807794D01*
X71951319Y-64865249D01*
X72046863Y-64904824D01*
X72148292Y-64925000D01*
X72251708Y-64925000D01*
X72353137Y-64904824D01*
X72448681Y-64865249D01*
X72534668Y-64807794D01*
X72607794Y-64734668D01*
X72665249Y-64648681D01*
X72704824Y-64553137D01*
X72725000Y-64451708D01*
X72725000Y-64348292D01*
X72704824Y-64246863D01*
X72665249Y-64151319D01*
X72607794Y-64065332D01*
X72534668Y-63992206D01*
X72448681Y-63934751D01*
X72353137Y-63895176D01*
X72251708Y-63875000D01*
X72148292Y-63875000D01*
X72107398Y-63883134D01*
X71350000Y-63125737D01*
X71350000Y-62518265D01*
X71366358Y-62538198D01*
X71386842Y-62563158D01*
X71398290Y-62572553D01*
X71683135Y-62857398D01*
X71675000Y-62898292D01*
X71675000Y-63001708D01*
X71695176Y-63103137D01*
X71734751Y-63198681D01*
X71792206Y-63284668D01*
X71865332Y-63357794D01*
X71951319Y-63415249D01*
X72046863Y-63454824D01*
X72148292Y-63475000D01*
X72251708Y-63475000D01*
X72292602Y-63466865D01*
X74227450Y-65401714D01*
X74236842Y-65413158D01*
X74248285Y-65422549D01*
X74248286Y-65422550D01*
X74282522Y-65450647D01*
X74334640Y-65478504D01*
X74391190Y-65495659D01*
X74435267Y-65500000D01*
X74435270Y-65500000D01*
X74450000Y-65501451D01*
X74464730Y-65500000D01*
X80072863Y-65500000D01*
X83947941Y-69375078D01*
X83846905Y-69395176D01*
X83751361Y-69434751D01*
X83665374Y-69492206D01*
X83592248Y-69565332D01*
X83569083Y-69600000D01*
X71524264Y-69600000D01*
X68991865Y-67067602D01*
X69000000Y-67026708D01*
X69000000Y-66923292D01*
X68979824Y-66821863D01*
X68940249Y-66726319D01*
X68882794Y-66640332D01*
X68809668Y-66567206D01*
X68723681Y-66509751D01*
X68628137Y-66470176D01*
X68526708Y-66450000D01*
X68423292Y-66450000D01*
X68321863Y-66470176D01*
X68226319Y-66509751D01*
X68140332Y-66567206D01*
X68100000Y-66607538D01*
X68100000Y-66174263D01*
X69257398Y-65016866D01*
X69298292Y-65025000D01*
X69401708Y-65025000D01*
X69503137Y-65004824D01*
X69598681Y-64965249D01*
X69684668Y-64907794D01*
X69757794Y-64834668D01*
X69815249Y-64748681D01*
X69854824Y-64653137D01*
X69875000Y-64551708D01*
X69875000Y-64448292D01*
X69854824Y-64346863D01*
X69815249Y-64251319D01*
X69757794Y-64165332D01*
X69684668Y-64092206D01*
X69598681Y-64034751D01*
X69503137Y-63995176D01*
X69401708Y-63975000D01*
X69298292Y-63975000D01*
X69196863Y-63995176D01*
X69101319Y-64034751D01*
X69015332Y-64092206D01*
X68942206Y-64165332D01*
X68884751Y-64251319D01*
X68845176Y-64346863D01*
X68825000Y-64448292D01*
X68825000Y-64551708D01*
X68833134Y-64592602D01*
X67598290Y-65827447D01*
X67586842Y-65836842D01*
X67568814Y-65858810D01*
X67549353Y-65882523D01*
X67547043Y-65886845D01*
X67521496Y-65934641D01*
X67504341Y-65991191D01*
X67500000Y-66035268D01*
X67500000Y-66035277D01*
X67498550Y-66050000D01*
X67500000Y-66064723D01*
X67500001Y-68285267D01*
X67498550Y-68300000D01*
X67504342Y-68358810D01*
X67521497Y-68415360D01*
X67549353Y-68467477D01*
X67577451Y-68501714D01*
X67586843Y-68513158D01*
X67598286Y-68522549D01*
X71177450Y-72101714D01*
X71186842Y-72113158D01*
X71198285Y-72122549D01*
X71232522Y-72150647D01*
X71284639Y-72178504D01*
X71297801Y-72182497D01*
X71341190Y-72195659D01*
X71385267Y-72200000D01*
X71385270Y-72200000D01*
X71400000Y-72201451D01*
X71414730Y-72200000D01*
X88585277Y-72200000D01*
X88600000Y-72201450D01*
X88614723Y-72200000D01*
X88614733Y-72200000D01*
X88658810Y-72195659D01*
X88715360Y-72178504D01*
X88767477Y-72150647D01*
X88813158Y-72113158D01*
X88822553Y-72101710D01*
X89213603Y-71710660D01*
X89204341Y-71741191D01*
X89200000Y-71785268D01*
X89200000Y-71785277D01*
X89198550Y-71800000D01*
X89200000Y-71814723D01*
X89200001Y-77575735D01*
X87298290Y-79477447D01*
X87286842Y-79486842D01*
X87266358Y-79511802D01*
X87249353Y-79532523D01*
X87244721Y-79541189D01*
X87221496Y-79584641D01*
X87204341Y-79641191D01*
X87200000Y-79685268D01*
X87200000Y-79685277D01*
X87198550Y-79700000D01*
X87200000Y-79714723D01*
X87200001Y-81485267D01*
X87198550Y-81500000D01*
X87204342Y-81558810D01*
X87221497Y-81615360D01*
X87249353Y-81667477D01*
X87276575Y-81700646D01*
X87286843Y-81713158D01*
X87298285Y-81722548D01*
X88377451Y-82801715D01*
X88386842Y-82813158D01*
X88398285Y-82822549D01*
X88432522Y-82850647D01*
X88460379Y-82865536D01*
X88484640Y-82878504D01*
X88541190Y-82895659D01*
X88585267Y-82900000D01*
X88585277Y-82900000D01*
X88600000Y-82901450D01*
X88614723Y-82900000D01*
X94425277Y-82900000D01*
X94440000Y-82901450D01*
X94454723Y-82900000D01*
X94454733Y-82900000D01*
X94498810Y-82895659D01*
X94555360Y-82878504D01*
X94607477Y-82850647D01*
X94653158Y-82813158D01*
X94662553Y-82801710D01*
X95893767Y-81570497D01*
X96055603Y-81637532D01*
X96243971Y-81675000D01*
X96436029Y-81675000D01*
X96624397Y-81637532D01*
X96801836Y-81564034D01*
X96961527Y-81457332D01*
X97097332Y-81321527D01*
X97204034Y-81161836D01*
X97277532Y-80984397D01*
X97300001Y-80871437D01*
X97300001Y-81585267D01*
X97298550Y-81600000D01*
X97304342Y-81658810D01*
X97321497Y-81715360D01*
X97349353Y-81767477D01*
X97365246Y-81786842D01*
X97386843Y-81813158D01*
X97398286Y-81822549D01*
X109777451Y-94201715D01*
X109786842Y-94213158D01*
X109798285Y-94222549D01*
X109832522Y-94250647D01*
X109860379Y-94265536D01*
X109884640Y-94278504D01*
X109941190Y-94295659D01*
X109985267Y-94300000D01*
X109985276Y-94300000D01*
X109999999Y-94301450D01*
X110014722Y-94300000D01*
X111073912Y-94300000D01*
X111073912Y-96000000D01*
X111078256Y-96044108D01*
X111091122Y-96086520D01*
X111112015Y-96125608D01*
X111140132Y-96159868D01*
X111174392Y-96187985D01*
X111213480Y-96208878D01*
X111255892Y-96221744D01*
X111300000Y-96226088D01*
X115300000Y-96226088D01*
X115344108Y-96221744D01*
X115386520Y-96208878D01*
X115425608Y-96187985D01*
X115459868Y-96159868D01*
X115487985Y-96125608D01*
X115508878Y-96086520D01*
X115521744Y-96044108D01*
X115526088Y-96000000D01*
X115526088Y-92000000D01*
X115521744Y-91955892D01*
X115508878Y-91913480D01*
X115487985Y-91874392D01*
X115459868Y-91840132D01*
X115425608Y-91812015D01*
X115386520Y-91791122D01*
X115344108Y-91778256D01*
X115300000Y-91773912D01*
X111300000Y-91773912D01*
X111255892Y-91778256D01*
X111213480Y-91791122D01*
X111174392Y-91812015D01*
X111140132Y-91840132D01*
X111112015Y-91874392D01*
X111091122Y-91913480D01*
X111078256Y-91955892D01*
X111073912Y-92000000D01*
X111073912Y-93700000D01*
X110124264Y-93700000D01*
X97900000Y-81475737D01*
X97900000Y-79614722D01*
X97901450Y-79599999D01*
X97900000Y-79585276D01*
X97900000Y-79585267D01*
X97895659Y-79541190D01*
X97878504Y-79484640D01*
X97850648Y-79432524D01*
X97850647Y-79432522D01*
X97822549Y-79398285D01*
X97813158Y-79386842D01*
X97801717Y-79377453D01*
X95600000Y-77175737D01*
X95600000Y-72930959D01*
X95634668Y-72907794D01*
X95707794Y-72834668D01*
X95765249Y-72748681D01*
X95804824Y-72653137D01*
X95804998Y-72652260D01*
X96200000Y-73047262D01*
X96200001Y-76825927D01*
X96198550Y-76840660D01*
X96204342Y-76899470D01*
X96221497Y-76956020D01*
X96249353Y-77008137D01*
X96277451Y-77042374D01*
X96286843Y-77053818D01*
X96298286Y-77063209D01*
X98960076Y-79725000D01*
X98783971Y-79725000D01*
X98595603Y-79762468D01*
X98418164Y-79835966D01*
X98258473Y-79942668D01*
X98122668Y-80078473D01*
X98015966Y-80238164D01*
X97942468Y-80415603D01*
X97905000Y-80603971D01*
X97905000Y-80796029D01*
X97942468Y-80984397D01*
X98015966Y-81161836D01*
X98122668Y-81321527D01*
X98258473Y-81457332D01*
X98418164Y-81564034D01*
X98595603Y-81637532D01*
X98783971Y-81675000D01*
X98976029Y-81675000D01*
X99164397Y-81637532D01*
X99341836Y-81564034D01*
X99501527Y-81457332D01*
X99637332Y-81321527D01*
X99744034Y-81161836D01*
X99817532Y-80984397D01*
X99855000Y-80796029D01*
X99855000Y-80619924D01*
X100136790Y-80901714D01*
X100146182Y-80913158D01*
X100157625Y-80922549D01*
X100191862Y-80950647D01*
X100219719Y-80965536D01*
X100243980Y-80978504D01*
X100300530Y-80995659D01*
X100344607Y-81000000D01*
X100344617Y-81000000D01*
X100359340Y-81001450D01*
X100374063Y-81000000D01*
X100488931Y-81000000D01*
X100555966Y-81161836D01*
X100662668Y-81321527D01*
X100798473Y-81457332D01*
X100958164Y-81564034D01*
X101135603Y-81637532D01*
X101323971Y-81675000D01*
X101516029Y-81675000D01*
X101704397Y-81637532D01*
X101881836Y-81564034D01*
X102041527Y-81457332D01*
X102177332Y-81321527D01*
X102284034Y-81161836D01*
X102357532Y-80984397D01*
X102395000Y-80796029D01*
X102395000Y-80603971D01*
X102357532Y-80415603D01*
X102284034Y-80238164D01*
X102177332Y-80078473D01*
X102041527Y-79942668D01*
X101881836Y-79835966D01*
X101704397Y-79762468D01*
X101516029Y-79725000D01*
X101323971Y-79725000D01*
X101135603Y-79762468D01*
X100958164Y-79835966D01*
X100798473Y-79942668D01*
X100662668Y-80078473D01*
X100555966Y-80238164D01*
X100488931Y-80400000D01*
X100483604Y-80400000D01*
X96800000Y-76716397D01*
X96800000Y-72937728D01*
X96801451Y-72922998D01*
X96800000Y-72908265D01*
X96795659Y-72864188D01*
X96778504Y-72807638D01*
X96755847Y-72765249D01*
X96750647Y-72755520D01*
X96722550Y-72721284D01*
X96722549Y-72721283D01*
X96713158Y-72709840D01*
X96701716Y-72700450D01*
X95699555Y-71698290D01*
X95690160Y-71686842D01*
X95644479Y-71649353D01*
X95604473Y-71627970D01*
X95634668Y-71607794D01*
X95707794Y-71534668D01*
X95730959Y-71500000D01*
X98835217Y-71500000D01*
X98751319Y-71534751D01*
X98665332Y-71592206D01*
X98592206Y-71665332D01*
X98534751Y-71751319D01*
X98495176Y-71846863D01*
X98475000Y-71948292D01*
X98475000Y-72051708D01*
X98483861Y-72096252D01*
X98465249Y-72051319D01*
X98407794Y-71965332D01*
X98334668Y-71892206D01*
X98248681Y-71834751D01*
X98153137Y-71795176D01*
X98051708Y-71775000D01*
X97948292Y-71775000D01*
X97846863Y-71795176D01*
X97751319Y-71834751D01*
X97665332Y-71892206D01*
X97592206Y-71965332D01*
X97534751Y-72051319D01*
X97495176Y-72146863D01*
X97475000Y-72248292D01*
X97475000Y-72351708D01*
X97495176Y-72453137D01*
X97534751Y-72548681D01*
X97592206Y-72634668D01*
X97665332Y-72707794D01*
X97751319Y-72765249D01*
X97846863Y-72804824D01*
X97948292Y-72825000D01*
X98051708Y-72825000D01*
X98092602Y-72816866D01*
X98177450Y-72901714D01*
X98186842Y-72913158D01*
X98198285Y-72922549D01*
X98232522Y-72950647D01*
X98259842Y-72965249D01*
X98284640Y-72978504D01*
X98341190Y-72995659D01*
X98385267Y-73000000D01*
X98385276Y-73000000D01*
X98399999Y-73001450D01*
X98414722Y-73000000D01*
X102575737Y-73000000D01*
X103748285Y-74172549D01*
X103748289Y-74172552D01*
X103798286Y-74222550D01*
X103798291Y-74222554D01*
X104777450Y-75201714D01*
X104786842Y-75213158D01*
X104798285Y-75222549D01*
X104832522Y-75250647D01*
X104860379Y-75265536D01*
X104884640Y-75278504D01*
X104941190Y-75295659D01*
X104985267Y-75300000D01*
X104985276Y-75300000D01*
X104999999Y-75301450D01*
X105014722Y-75300000D01*
X112375737Y-75300000D01*
X113773912Y-76698176D01*
X113773912Y-78500000D01*
X113778256Y-78544108D01*
X113791122Y-78586520D01*
X113812015Y-78625608D01*
X113840132Y-78659868D01*
X113874392Y-78687985D01*
X113913480Y-78708878D01*
X113955892Y-78721744D01*
X114000000Y-78726088D01*
X116000000Y-78726088D01*
X116044108Y-78721744D01*
X116086520Y-78708878D01*
X116125608Y-78687985D01*
X116159868Y-78659868D01*
X116187985Y-78625608D01*
X116208878Y-78586520D01*
X116221744Y-78544108D01*
X116226088Y-78500000D01*
X116226088Y-76500000D01*
X116221744Y-76455892D01*
X116208878Y-76413480D01*
X116187985Y-76374392D01*
X116159868Y-76340132D01*
X116125608Y-76312015D01*
X116086520Y-76291122D01*
X116044108Y-76278256D01*
X116000000Y-76273912D01*
X114198176Y-76273912D01*
X112722553Y-74798290D01*
X112713158Y-74786842D01*
X112667477Y-74749353D01*
X112615360Y-74721496D01*
X112558810Y-74704341D01*
X112514733Y-74700000D01*
X112514723Y-74700000D01*
X112500000Y-74698550D01*
X112485277Y-74700000D01*
X105124264Y-74700000D01*
X104222554Y-73798291D01*
X104222550Y-73798286D01*
X104172552Y-73748289D01*
X104172549Y-73748285D01*
X102922553Y-72498290D01*
X102913158Y-72486842D01*
X102867477Y-72449353D01*
X102815360Y-72421496D01*
X102758810Y-72404341D01*
X102714733Y-72400000D01*
X102714723Y-72400000D01*
X102700000Y-72398550D01*
X102685277Y-72400000D01*
X99342462Y-72400000D01*
X99407794Y-72334668D01*
X99430959Y-72300000D01*
X102875737Y-72300000D01*
X104777451Y-74201715D01*
X104786842Y-74213158D01*
X104798285Y-74222549D01*
X104832522Y-74250647D01*
X104860379Y-74265536D01*
X104884640Y-74278504D01*
X104941190Y-74295659D01*
X104985267Y-74300000D01*
X104985276Y-74300000D01*
X104999999Y-74301450D01*
X105014722Y-74300000D01*
X113730043Y-74300000D01*
X113741122Y-74336520D01*
X113762015Y-74375608D01*
X113790132Y-74409868D01*
X113824392Y-74437985D01*
X113863480Y-74458878D01*
X113905892Y-74471744D01*
X113950000Y-74476088D01*
X115950000Y-74476088D01*
X115994108Y-74471744D01*
X116036520Y-74458878D01*
X116075608Y-74437985D01*
X116109868Y-74409868D01*
X116137985Y-74375608D01*
X116158878Y-74336520D01*
X116171744Y-74294108D01*
X116176088Y-74250000D01*
X116176088Y-72250000D01*
X116171744Y-72205892D01*
X116158878Y-72163480D01*
X116137985Y-72124392D01*
X116109868Y-72090132D01*
X116075608Y-72062015D01*
X116036520Y-72041122D01*
X115994108Y-72028256D01*
X115950000Y-72023912D01*
X113950000Y-72023912D01*
X113905892Y-72028256D01*
X113863480Y-72041122D01*
X113824392Y-72062015D01*
X113790132Y-72090132D01*
X113762015Y-72124392D01*
X113741122Y-72163480D01*
X113728256Y-72205892D01*
X113723912Y-72250000D01*
X113723912Y-73700000D01*
X105124264Y-73700000D01*
X103222553Y-71798290D01*
X103213158Y-71786842D01*
X103167477Y-71749353D01*
X103115360Y-71721496D01*
X103058810Y-71704341D01*
X103014733Y-71700000D01*
X103014723Y-71700000D01*
X103000000Y-71698550D01*
X102985277Y-71700000D01*
X99430959Y-71700000D01*
X99407794Y-71665332D01*
X99334668Y-71592206D01*
X99248681Y-71534751D01*
X99164783Y-71500000D01*
X113835277Y-71500000D01*
X113850000Y-71501450D01*
X113864723Y-71500000D01*
X113864733Y-71500000D01*
X113908810Y-71495659D01*
X113965360Y-71478504D01*
X114017477Y-71450647D01*
X114063158Y-71413158D01*
X114072553Y-71401710D01*
X115151715Y-70322549D01*
X115163158Y-70313158D01*
X115186562Y-70284640D01*
X115200647Y-70267478D01*
X115228503Y-70215361D01*
X115228504Y-70215360D01*
X115240418Y-70176088D01*
X115950000Y-70176088D01*
X115994108Y-70171744D01*
X116036520Y-70158878D01*
X116075608Y-70137985D01*
X116109868Y-70109868D01*
X116137985Y-70075608D01*
X116158878Y-70036520D01*
X116171744Y-69994108D01*
X116176088Y-69950000D01*
X116176088Y-67950000D01*
X116171744Y-67905892D01*
X116158878Y-67863480D01*
X116137985Y-67824392D01*
X116109868Y-67790132D01*
X116075608Y-67762015D01*
X116036520Y-67741122D01*
X115994108Y-67728256D01*
X115950000Y-67723912D01*
X113950000Y-67723912D01*
X113905892Y-67728256D01*
X113863480Y-67741122D01*
X113824392Y-67762015D01*
X113790132Y-67790132D01*
X113762015Y-67824392D01*
X113741122Y-67863480D01*
X113728256Y-67905892D01*
X113723912Y-67950000D01*
X113723912Y-69950000D01*
X113728256Y-69994108D01*
X113741122Y-70036520D01*
X113762015Y-70075608D01*
X113790132Y-70109868D01*
X113824392Y-70137985D01*
X113863480Y-70158878D01*
X113905892Y-70171744D01*
X113950000Y-70176088D01*
X114449648Y-70176088D01*
X113725737Y-70900000D01*
X112130987Y-70900000D01*
X112165249Y-70848723D01*
X112204824Y-70753179D01*
X112225000Y-70651750D01*
X112225000Y-70548334D01*
X112216866Y-70507440D01*
X112222549Y-70501757D01*
X112222553Y-70501752D01*
X113401721Y-69322586D01*
X113413158Y-69313200D01*
X113422544Y-69301763D01*
X113422550Y-69301757D01*
X113450647Y-69267520D01*
X113478504Y-69215403D01*
X113485541Y-69192206D01*
X113495659Y-69158852D01*
X113500000Y-69114775D01*
X113500000Y-69114772D01*
X113501451Y-69100042D01*
X113500000Y-69085312D01*
X113500000Y-63514722D01*
X113501450Y-63499999D01*
X113500000Y-63485276D01*
X113500000Y-63485267D01*
X113495659Y-63441190D01*
X113478504Y-63384640D01*
X113450648Y-63332524D01*
X113450647Y-63332522D01*
X113422549Y-63298285D01*
X113413158Y-63286842D01*
X113401717Y-63277453D01*
X110839155Y-60714892D01*
X110857139Y-60671475D01*
X110885000Y-60531406D01*
X110885000Y-60388594D01*
X110857139Y-60248525D01*
X110802487Y-60116584D01*
X110723144Y-59997839D01*
X110622161Y-59896856D01*
X110514621Y-59825000D01*
X110622161Y-59753144D01*
X110723144Y-59652161D01*
X110802487Y-59533416D01*
X110857139Y-59401475D01*
X110885000Y-59261406D01*
X110885000Y-59118594D01*
X110857139Y-58978525D01*
X110802487Y-58846584D01*
X110723144Y-58727839D01*
X110622161Y-58626856D01*
X110514621Y-58555000D01*
X110622161Y-58483144D01*
X110723144Y-58382161D01*
X110802487Y-58263416D01*
X110857139Y-58131475D01*
X110885000Y-57991406D01*
X110885000Y-57848594D01*
X110857139Y-57708525D01*
X110802487Y-57576584D01*
X110723144Y-57457839D01*
X110622161Y-57356856D01*
X110514621Y-57285000D01*
X110622161Y-57213144D01*
X110723144Y-57112161D01*
X110802487Y-56993416D01*
X110857139Y-56861475D01*
X110885000Y-56721406D01*
X110885000Y-56578594D01*
X110857139Y-56438525D01*
X110802487Y-56306584D01*
X110723144Y-56187839D01*
X110622161Y-56086856D01*
X110514621Y-56015000D01*
X110622161Y-55943144D01*
X110723144Y-55842161D01*
X110802487Y-55723416D01*
X110857139Y-55591475D01*
X110885000Y-55451406D01*
X110885000Y-55308594D01*
X110857139Y-55168525D01*
X110802487Y-55036584D01*
X110723144Y-54917839D01*
X110622161Y-54816856D01*
X110514621Y-54745000D01*
X110622161Y-54673144D01*
X110723144Y-54572161D01*
X110802487Y-54453416D01*
X110857139Y-54321475D01*
X110885000Y-54181406D01*
X110885000Y-54038594D01*
X110857139Y-53898525D01*
X110802487Y-53766584D01*
X110723144Y-53647839D01*
X110622161Y-53546856D01*
X110503416Y-53467513D01*
X110371475Y-53412861D01*
X110231406Y-53385000D01*
X110088594Y-53385000D01*
X109948525Y-53412861D01*
X109816584Y-53467513D01*
X109697839Y-53546856D01*
X109616088Y-53628607D01*
X109616088Y-53610000D01*
X109611744Y-53565892D01*
X109598878Y-53523480D01*
X109577985Y-53484392D01*
X109549868Y-53450132D01*
X109515608Y-53422015D01*
X109476520Y-53401122D01*
X109434108Y-53388256D01*
X109390000Y-53383912D01*
X108390000Y-53383912D01*
X108345892Y-53388256D01*
X108303480Y-53401122D01*
X108264392Y-53422015D01*
X108230132Y-53450132D01*
X108202015Y-53484392D01*
X108181122Y-53523480D01*
X108168256Y-53565892D01*
X108163912Y-53610000D01*
X108163912Y-54610000D01*
X108168256Y-54654108D01*
X108181122Y-54696520D01*
X108202015Y-54735608D01*
X108230132Y-54769868D01*
X108264392Y-54797985D01*
X108303480Y-54818878D01*
X108343527Y-54831027D01*
X108249001Y-54944380D01*
X108176332Y-55077803D01*
X108171688Y-55089049D01*
X108205775Y-55205000D01*
X108715000Y-55205000D01*
X108715000Y-55185000D01*
X109065000Y-55185000D01*
X109065000Y-55205000D01*
X109085000Y-55205000D01*
X109085000Y-55555000D01*
X109065000Y-55555000D01*
X109065000Y-55575000D01*
X108715000Y-55575000D01*
X108715000Y-55555000D01*
X108205775Y-55555000D01*
X108171688Y-55670951D01*
X108176332Y-55682197D01*
X108249001Y-55815620D01*
X108346303Y-55932302D01*
X108464499Y-56027760D01*
X108493511Y-56042975D01*
X108427839Y-56086856D01*
X108326856Y-56187839D01*
X108247513Y-56306584D01*
X108192861Y-56438525D01*
X108165000Y-56578594D01*
X108165000Y-56721406D01*
X108192861Y-56861475D01*
X108247513Y-56993416D01*
X108326856Y-57112161D01*
X108427839Y-57213144D01*
X108535379Y-57285000D01*
X108427839Y-57356856D01*
X108326856Y-57457839D01*
X108247513Y-57576584D01*
X108192861Y-57708525D01*
X108165000Y-57848594D01*
X108165000Y-57991406D01*
X108192861Y-58131475D01*
X108247513Y-58263416D01*
X108326856Y-58382161D01*
X108427839Y-58483144D01*
X108535379Y-58555000D01*
X108427839Y-58626856D01*
X108326856Y-58727839D01*
X108247513Y-58846584D01*
X108192861Y-58978525D01*
X108165000Y-59118594D01*
X108165000Y-59261406D01*
X108192861Y-59401475D01*
X108247513Y-59533416D01*
X108326856Y-59652161D01*
X108427839Y-59753144D01*
X108535379Y-59825000D01*
X108427839Y-59896856D01*
X108326856Y-59997839D01*
X108247513Y-60116584D01*
X108192861Y-60248525D01*
X108165000Y-60388594D01*
X108165000Y-60531406D01*
X108192861Y-60671475D01*
X108247513Y-60803416D01*
X108326856Y-60922161D01*
X108427839Y-61023144D01*
X108535379Y-61095000D01*
X108427839Y-61166856D01*
X108326856Y-61267839D01*
X108247513Y-61386584D01*
X108192861Y-61518525D01*
X108165000Y-61658594D01*
X108165000Y-61801406D01*
X108192861Y-61941475D01*
X108247513Y-62073416D01*
X108326856Y-62192161D01*
X108427839Y-62293144D01*
X108546584Y-62372487D01*
X108678525Y-62427139D01*
X108818594Y-62455000D01*
X108961406Y-62455000D01*
X109101475Y-62427139D01*
X109233416Y-62372487D01*
X109352161Y-62293144D01*
X109453144Y-62192161D01*
X109525000Y-62084621D01*
X109596856Y-62192161D01*
X109697839Y-62293144D01*
X109816584Y-62372487D01*
X109948525Y-62427139D01*
X110088594Y-62455000D01*
X110231406Y-62455000D01*
X110371475Y-62427139D01*
X110503416Y-62372487D01*
X110622161Y-62293144D01*
X110723144Y-62192161D01*
X110802487Y-62073416D01*
X110857139Y-61941475D01*
X110885000Y-61801406D01*
X110885000Y-61658594D01*
X110872751Y-61597015D01*
X112583489Y-63307753D01*
X112553125Y-63295176D01*
X112451696Y-63275000D01*
X112348280Y-63275000D01*
X112246851Y-63295176D01*
X112151307Y-63334751D01*
X112065320Y-63392206D01*
X111992194Y-63465332D01*
X111934739Y-63551319D01*
X111895164Y-63646863D01*
X111874988Y-63748292D01*
X111874988Y-63851708D01*
X111883122Y-63892601D01*
X106750724Y-69025001D01*
X95498727Y-69025001D01*
X95513158Y-69013158D01*
X95522553Y-69001710D01*
X96401694Y-68122570D01*
X96413136Y-68113180D01*
X96434751Y-68086842D01*
X96450625Y-68067500D01*
X96473341Y-68025000D01*
X96478482Y-68015382D01*
X96495637Y-67958832D01*
X96499978Y-67914755D01*
X96499978Y-67914746D01*
X96501428Y-67900023D01*
X96499978Y-67885300D01*
X96499978Y-63030959D01*
X96534646Y-63007794D01*
X96607772Y-62934668D01*
X96665227Y-62848681D01*
X96704802Y-62753137D01*
X96724978Y-62651708D01*
X96724978Y-62548292D01*
X96704802Y-62446863D01*
X96665227Y-62351319D01*
X96607772Y-62265332D01*
X96534646Y-62192206D01*
X96448659Y-62134751D01*
X96353115Y-62095176D01*
X96251686Y-62075000D01*
X96148270Y-62075000D01*
X96046841Y-62095176D01*
X95951297Y-62134751D01*
X95865310Y-62192206D01*
X95792184Y-62265332D01*
X95734729Y-62351319D01*
X95695154Y-62446863D01*
X95674978Y-62548292D01*
X95674978Y-62651708D01*
X95695154Y-62753137D01*
X95734729Y-62848681D01*
X95792184Y-62934668D01*
X95865310Y-63007794D01*
X95899978Y-63030959D01*
X95899978Y-63038996D01*
X95899979Y-63039006D01*
X95899978Y-67235164D01*
X95865249Y-67151319D01*
X95807794Y-67065332D01*
X95734668Y-66992206D01*
X95648681Y-66934751D01*
X95553137Y-66895176D01*
X95451708Y-66875000D01*
X95348292Y-66875000D01*
X95246863Y-66895176D01*
X95151319Y-66934751D01*
X95097562Y-66970670D01*
X95104824Y-66953139D01*
X95125000Y-66851710D01*
X95125000Y-66748294D01*
X95116865Y-66707400D01*
X95501715Y-66322551D01*
X95513158Y-66313160D01*
X95527897Y-66295200D01*
X95550647Y-66267480D01*
X95568140Y-66234751D01*
X95578504Y-66215362D01*
X95595659Y-66158812D01*
X95600000Y-66114735D01*
X95600000Y-66114723D01*
X95601450Y-66100003D01*
X95600000Y-66085283D01*
X95600000Y-63971458D01*
X95601451Y-63956728D01*
X95600000Y-63941995D01*
X95595659Y-63897918D01*
X95580926Y-63849352D01*
X95578504Y-63841367D01*
X95550647Y-63789250D01*
X95522550Y-63755013D01*
X95522544Y-63755007D01*
X95513158Y-63743570D01*
X95501722Y-63734185D01*
X92265823Y-60498288D01*
X92256428Y-60486840D01*
X92210747Y-60449351D01*
X92158630Y-60421494D01*
X92102080Y-60404339D01*
X92058003Y-60399998D01*
X92057993Y-60399998D01*
X92043270Y-60398548D01*
X92028547Y-60399998D01*
X89830953Y-60399998D01*
X89807788Y-60365330D01*
X89734662Y-60292204D01*
X89648675Y-60234749D01*
X89553131Y-60195174D01*
X89451702Y-60174998D01*
X89348286Y-60174998D01*
X89246857Y-60195174D01*
X89151313Y-60234749D01*
X89065326Y-60292204D01*
X88992200Y-60365330D01*
X88934745Y-60451317D01*
X88895170Y-60546861D01*
X88874994Y-60648290D01*
X88874994Y-60751706D01*
X88895170Y-60853135D01*
X88934745Y-60948679D01*
X88992200Y-61034666D01*
X89057534Y-61100000D01*
X88924264Y-61100000D01*
X88616865Y-60792602D01*
X88625000Y-60751708D01*
X88625000Y-60648292D01*
X88604824Y-60546863D01*
X88565249Y-60451319D01*
X88507794Y-60365332D01*
X88434668Y-60292206D01*
X88348681Y-60234751D01*
X88253137Y-60195176D01*
X88151708Y-60175000D01*
X88048292Y-60175000D01*
X87946863Y-60195176D01*
X87851319Y-60234751D01*
X87765332Y-60292206D01*
X87692206Y-60365332D01*
X87634751Y-60451319D01*
X87595176Y-60546863D01*
X87575000Y-60648292D01*
X87575000Y-60751708D01*
X87595176Y-60853137D01*
X87634751Y-60948681D01*
X87692206Y-61034668D01*
X87765332Y-61107794D01*
X87851319Y-61165249D01*
X87946863Y-61204824D01*
X88048292Y-61225000D01*
X88151708Y-61225000D01*
X88192602Y-61216865D01*
X88577450Y-61601714D01*
X88586842Y-61613158D01*
X88598285Y-61622549D01*
X88632522Y-61650647D01*
X88660379Y-61665536D01*
X88684640Y-61678504D01*
X88741190Y-61695659D01*
X88785267Y-61700000D01*
X88785279Y-61700000D01*
X88799999Y-61701450D01*
X88814719Y-61700000D01*
X91575739Y-61700000D01*
X93583136Y-63707398D01*
X93575002Y-63748292D01*
X93575002Y-63851708D01*
X93595178Y-63953137D01*
X93634753Y-64048681D01*
X93692208Y-64134668D01*
X93765334Y-64207794D01*
X93851321Y-64265249D01*
X93946865Y-64304824D01*
X94048294Y-64325000D01*
X94151710Y-64325000D01*
X94253139Y-64304824D01*
X94348683Y-64265249D01*
X94434670Y-64207794D01*
X94507796Y-64134668D01*
X94565251Y-64048681D01*
X94604826Y-63953137D01*
X94625002Y-63851708D01*
X94625002Y-63748292D01*
X94614499Y-63695492D01*
X95000000Y-64080993D01*
X95000001Y-65975737D01*
X94692602Y-66283137D01*
X94651708Y-66275002D01*
X94548292Y-66275002D01*
X94446863Y-66295178D01*
X94351319Y-66334753D01*
X94265332Y-66392208D01*
X94192206Y-66465334D01*
X94149998Y-66528502D01*
X94107794Y-66465340D01*
X94034668Y-66392214D01*
X93948681Y-66334759D01*
X93853137Y-66295184D01*
X93751708Y-66275008D01*
X93648292Y-66275008D01*
X93546863Y-66295184D01*
X93451319Y-66334759D01*
X93365332Y-66392214D01*
X93292206Y-66465340D01*
X93269041Y-66500008D01*
X92936687Y-66500008D01*
X92921964Y-66498558D01*
X92907241Y-66500008D01*
X92907232Y-66500008D01*
X92863155Y-66504349D01*
X92806605Y-66521504D01*
X92785990Y-66532523D01*
X92754487Y-66549361D01*
X92720294Y-66577423D01*
X92708807Y-66586850D01*
X92699416Y-66598293D01*
X92612456Y-66685253D01*
X92604824Y-66646887D01*
X92565249Y-66551343D01*
X92507794Y-66465356D01*
X92434668Y-66392230D01*
X92348681Y-66334775D01*
X92253137Y-66295200D01*
X92151708Y-66275024D01*
X92048292Y-66275024D01*
X91946863Y-66295200D01*
X91851319Y-66334775D01*
X91765332Y-66392230D01*
X91700026Y-66457536D01*
X91634668Y-66392178D01*
X91548681Y-66334723D01*
X91453137Y-66295148D01*
X91351708Y-66274972D01*
X91248292Y-66274972D01*
X91146863Y-66295148D01*
X91051319Y-66334723D01*
X90965332Y-66392178D01*
X90892206Y-66465304D01*
X90834751Y-66551291D01*
X90795176Y-66646835D01*
X90775000Y-66748264D01*
X90775000Y-66851680D01*
X90783134Y-66892574D01*
X87675709Y-70000000D01*
X86124264Y-70000000D01*
X80522553Y-64398290D01*
X80513158Y-64386842D01*
X80467477Y-64349353D01*
X80415360Y-64321496D01*
X80358810Y-64304341D01*
X80314733Y-64300000D01*
X80314723Y-64300000D01*
X80300000Y-64298550D01*
X80285277Y-64300000D01*
X75024274Y-64300000D01*
X72722564Y-61998291D01*
X72722559Y-61998285D01*
X72716876Y-61992602D01*
X72725010Y-61951708D01*
X72725010Y-61848292D01*
X72704834Y-61746863D01*
X72665259Y-61651319D01*
X72607804Y-61565332D01*
X72534678Y-61492206D01*
X72450000Y-61435626D01*
X72450000Y-60018227D01*
X72466358Y-60038160D01*
X72486842Y-60063120D01*
X72498290Y-60072515D01*
X74233134Y-61807360D01*
X74225000Y-61848254D01*
X74225000Y-61951670D01*
X74245176Y-62053099D01*
X74284751Y-62148643D01*
X74342206Y-62234630D01*
X74415332Y-62307756D01*
X74501319Y-62365211D01*
X74596863Y-62404786D01*
X74698292Y-62424962D01*
X74801708Y-62424962D01*
X74903137Y-62404786D01*
X74998681Y-62365211D01*
X75084668Y-62307756D01*
X75157794Y-62234630D01*
X75215249Y-62148643D01*
X75254824Y-62053099D01*
X75275000Y-61951670D01*
X75275000Y-61848254D01*
X75254824Y-61746825D01*
X75215249Y-61651281D01*
X75157794Y-61565294D01*
X75084668Y-61492168D01*
X74998681Y-61434713D01*
X74903137Y-61395138D01*
X74801708Y-61374962D01*
X74698292Y-61374962D01*
X74657398Y-61383096D01*
X73000000Y-59725699D01*
X73000000Y-58975000D01*
X77100001Y-58975000D01*
X77100000Y-60969041D01*
X77065332Y-60992206D01*
X76992206Y-61065332D01*
X76934751Y-61151319D01*
X76895176Y-61246863D01*
X76875000Y-61348292D01*
X76875000Y-61451708D01*
X76895176Y-61553137D01*
X76934751Y-61648681D01*
X76992206Y-61734668D01*
X77065332Y-61807794D01*
X77151319Y-61865249D01*
X77246863Y-61904824D01*
X77348292Y-61925000D01*
X77451708Y-61925000D01*
X77553137Y-61904824D01*
X77648681Y-61865249D01*
X77734668Y-61807794D01*
X77807794Y-61734668D01*
X77865249Y-61648681D01*
X77904824Y-61553137D01*
X77925000Y-61451708D01*
X77925000Y-61348292D01*
X77904824Y-61246863D01*
X77865249Y-61151319D01*
X77807794Y-61065332D01*
X77734668Y-60992206D01*
X77700000Y-60969041D01*
X77700000Y-58975000D01*
X81500000Y-58975000D01*
X81543895Y-58970677D01*
X81586104Y-58957873D01*
X81625003Y-58937081D01*
X81659099Y-58909099D01*
X81687081Y-58875003D01*
X81707873Y-58836104D01*
X81720677Y-58793895D01*
X81725000Y-58750000D01*
X81725000Y-48449263D01*
X84599992Y-51324256D01*
X84599993Y-67060994D01*
X84599992Y-67061004D01*
X84599992Y-67069041D01*
X84565324Y-67092206D01*
X84492198Y-67165332D01*
X84434743Y-67251319D01*
X84395168Y-67346863D01*
X84374992Y-67448292D01*
X84374992Y-67551708D01*
X84395168Y-67653137D01*
X84434743Y-67748681D01*
X84492198Y-67834668D01*
X84565324Y-67907794D01*
X84651311Y-67965249D01*
X84746855Y-68004824D01*
X84848284Y-68025000D01*
X84951700Y-68025000D01*
X85053129Y-68004824D01*
X85148673Y-67965249D01*
X85234660Y-67907794D01*
X85307786Y-67834668D01*
X85365241Y-67748681D01*
X85404816Y-67653137D01*
X85424992Y-67551708D01*
X85424992Y-67448292D01*
X85404816Y-67346863D01*
X85365241Y-67251319D01*
X85336061Y-67207648D01*
X85423292Y-67225000D01*
X85526708Y-67225000D01*
X85628137Y-67204824D01*
X85723681Y-67165249D01*
X85800001Y-67114253D01*
X85800001Y-67869027D01*
X85765332Y-67892192D01*
X85692206Y-67965318D01*
X85634751Y-68051305D01*
X85595176Y-68146849D01*
X85575000Y-68248278D01*
X85575000Y-68351694D01*
X85595176Y-68453123D01*
X85634751Y-68548667D01*
X85692206Y-68634654D01*
X85765332Y-68707780D01*
X85851319Y-68765235D01*
X85946863Y-68804810D01*
X86048292Y-68824986D01*
X86151708Y-68824986D01*
X86253137Y-68804810D01*
X86270745Y-68797517D01*
X86234751Y-68851385D01*
X86195176Y-68946929D01*
X86175000Y-69048358D01*
X86175000Y-69151774D01*
X86195176Y-69253203D01*
X86234751Y-69348747D01*
X86292206Y-69434734D01*
X86365332Y-69507860D01*
X86451319Y-69565315D01*
X86546863Y-69604890D01*
X86648292Y-69625066D01*
X86751708Y-69625066D01*
X86853137Y-69604890D01*
X86948681Y-69565315D01*
X87034668Y-69507860D01*
X87107794Y-69434734D01*
X87165249Y-69348747D01*
X87204824Y-69253203D01*
X87225000Y-69151774D01*
X87225000Y-69048358D01*
X87204824Y-68946929D01*
X87165249Y-68851385D01*
X87107794Y-68765398D01*
X87034668Y-68692272D01*
X87000000Y-68669107D01*
X87000000Y-50614730D01*
X87001451Y-50600000D01*
X86998028Y-50565249D01*
X86995659Y-50541190D01*
X86978504Y-50484640D01*
X86950648Y-50432524D01*
X86950647Y-50432522D01*
X86922550Y-50398286D01*
X86922549Y-50398285D01*
X86913158Y-50386842D01*
X86901717Y-50377453D01*
X83249263Y-46725000D01*
X84902784Y-46725000D01*
X87975000Y-49989230D01*
X87975000Y-55300000D01*
X87978128Y-55337389D01*
X87989686Y-55379955D01*
X88009325Y-55419449D01*
X88036292Y-55454353D01*
X91336292Y-58954353D01*
X91374997Y-58987081D01*
X91413896Y-59007873D01*
X91456105Y-59020677D01*
X91500000Y-59025000D01*
X106000000Y-59025000D01*
X106043895Y-59020677D01*
X106086104Y-59007873D01*
X106125003Y-58987081D01*
X106159099Y-58959099D01*
X106187081Y-58925003D01*
X106207873Y-58886104D01*
X106220677Y-58843895D01*
X106225000Y-58800000D01*
X106225000Y-41725050D01*
X106401333Y-41725050D01*
X106432523Y-41750647D01*
G37*
X106432523Y-41750647D02*
X106484640Y-41778504D01*
X106541190Y-41795659D01*
X106585267Y-41800000D01*
X119200000Y-41800000D01*
X119200001Y-120200000D01*
X105292247Y-120200000D01*
X105279340Y-119707108D01*
X105279046Y-119703330D01*
X105279046Y-119699522D01*
X105277827Y-119683863D01*
X105117782Y-118148246D01*
X105116606Y-118140733D01*
X105115826Y-118133189D01*
X105113011Y-118117777D01*
X105113005Y-118117739D01*
X105113000Y-118117721D01*
X104795958Y-116606709D01*
X104794016Y-116599360D01*
X104792465Y-116591934D01*
X104788070Y-116576855D01*
X104317379Y-115106418D01*
X104314695Y-115099315D01*
X104312386Y-115092080D01*
X104306464Y-115077532D01*
X103687118Y-113663270D01*
X103683716Y-113656476D01*
X103680677Y-113649520D01*
X103673292Y-113635659D01*
X102911850Y-112292551D01*
X102907765Y-112286140D01*
X102904030Y-112279537D01*
X102895277Y-112266536D01*
X102895259Y-112266508D01*
X102895249Y-112266496D01*
X101999789Y-111008785D01*
X101995071Y-111002833D01*
X101990673Y-110996644D01*
X101980609Y-110984586D01*
X100960597Y-109825574D01*
X100955300Y-109820146D01*
X100950282Y-109814434D01*
X100939031Y-109803474D01*
X99805285Y-108755450D01*
X99799444Y-108750583D01*
X99793879Y-108745430D01*
X99781562Y-108735684D01*
X98546094Y-107809754D01*
X98539797Y-107805523D01*
X98533718Y-107800958D01*
X98520464Y-107792531D01*
X97196360Y-106998501D01*
X97189645Y-106994930D01*
X97183145Y-106991025D01*
X97169112Y-106984012D01*
X97169096Y-106984004D01*
X97169088Y-106984001D01*
X95770387Y-106330289D01*
X95763344Y-106327429D01*
X95756474Y-106324211D01*
X95741777Y-106318672D01*
X94835534Y-106003971D01*
X97905000Y-106003971D01*
X97905000Y-106196029D01*
X97942468Y-106384397D01*
X98015966Y-106561836D01*
X98122668Y-106721527D01*
X98258473Y-106857332D01*
X98418164Y-106964034D01*
X98595603Y-107037532D01*
X98783971Y-107075000D01*
X98976029Y-107075000D01*
X99164397Y-107037532D01*
X99341836Y-106964034D01*
X99501527Y-106857332D01*
X99637332Y-106721527D01*
X99744034Y-106561836D01*
X99817532Y-106384397D01*
X99855000Y-106196029D01*
X99855000Y-106003971D01*
X99817532Y-105815603D01*
X99744034Y-105638164D01*
X99637332Y-105478473D01*
X99508859Y-105350000D01*
X100443912Y-105350000D01*
X100443912Y-106850000D01*
X100448256Y-106894108D01*
X100461122Y-106936520D01*
X100482015Y-106975608D01*
X100510132Y-107009868D01*
X100544392Y-107037985D01*
X100583480Y-107058878D01*
X100625892Y-107071744D01*
X100670000Y-107076088D01*
X102170000Y-107076088D01*
X102214108Y-107071744D01*
X102256520Y-107058878D01*
X102295608Y-107037985D01*
X102329868Y-107009868D01*
X102337966Y-107000000D01*
X111023669Y-107000000D01*
X111028979Y-107053910D01*
X111044703Y-107105747D01*
X111070239Y-107153521D01*
X111104604Y-107195396D01*
X111146479Y-107229761D01*
X111194253Y-107255297D01*
X111246090Y-107271021D01*
X111300000Y-107276331D01*
X113056250Y-107275000D01*
X113125000Y-107206250D01*
X113125000Y-105175000D01*
X113475000Y-105175000D01*
X113475000Y-107206250D01*
X113543750Y-107275000D01*
X115300000Y-107276331D01*
X115353910Y-107271021D01*
X115405747Y-107255297D01*
X115453521Y-107229761D01*
X115495396Y-107195396D01*
X115529761Y-107153521D01*
X115555297Y-107105747D01*
X115571021Y-107053910D01*
X115576331Y-107000000D01*
X115575000Y-105243750D01*
X115506250Y-105175000D01*
X113475000Y-105175000D01*
X113125000Y-105175000D01*
X111093750Y-105175000D01*
X111025000Y-105243750D01*
X111023669Y-107000000D01*
X102337966Y-107000000D01*
X102357985Y-106975608D01*
X102378878Y-106936520D01*
X102391744Y-106894108D01*
X102396088Y-106850000D01*
X102396088Y-105350000D01*
X102391744Y-105305892D01*
X102378878Y-105263480D01*
X102357985Y-105224392D01*
X102329868Y-105190132D01*
X102295608Y-105162015D01*
X102256520Y-105141122D01*
X102214108Y-105128256D01*
X102170000Y-105123912D01*
X100670000Y-105123912D01*
X100625892Y-105128256D01*
X100583480Y-105141122D01*
X100544392Y-105162015D01*
X100510132Y-105190132D01*
X100482015Y-105224392D01*
X100461122Y-105263480D01*
X100448256Y-105305892D01*
X100443912Y-105350000D01*
X99508859Y-105350000D01*
X99501527Y-105342668D01*
X99341836Y-105235966D01*
X99164397Y-105162468D01*
X98976029Y-105125000D01*
X98783971Y-105125000D01*
X98595603Y-105162468D01*
X98418164Y-105235966D01*
X98258473Y-105342668D01*
X98122668Y-105478473D01*
X98015966Y-105638164D01*
X97942468Y-105815603D01*
X97905000Y-106003971D01*
X94835534Y-106003971D01*
X94283280Y-105812196D01*
X94275986Y-105810077D01*
X94268816Y-105807580D01*
X94253627Y-105803581D01*
X92750793Y-105449710D01*
X92743323Y-105448353D01*
X92735931Y-105446605D01*
X92720412Y-105444189D01*
X91189164Y-105246674D01*
X91181599Y-105246092D01*
X91174062Y-105245113D01*
X91158376Y-105244305D01*
X89614937Y-105205236D01*
X89607346Y-105205435D01*
X89599754Y-105205236D01*
X89584069Y-105206044D01*
X88044789Y-105325837D01*
X88037251Y-105326816D01*
X88029687Y-105327398D01*
X88014173Y-105329813D01*
X88014167Y-105329814D01*
X88014164Y-105329815D01*
X86495356Y-105607198D01*
X86487963Y-105608946D01*
X86480494Y-105610303D01*
X86465305Y-105614302D01*
X84983051Y-106046339D01*
X84975877Y-106048837D01*
X84968588Y-106050955D01*
X84953890Y-106056494D01*
X83523899Y-106638608D01*
X83517024Y-106641829D01*
X83509987Y-106644686D01*
X83495952Y-106651700D01*
X83495936Y-106651707D01*
X83495928Y-106651712D01*
X82133357Y-107377729D01*
X82126855Y-107381636D01*
X82120142Y-107385205D01*
X82106888Y-107393632D01*
X80826156Y-108255872D01*
X80820080Y-108260434D01*
X80813781Y-108264667D01*
X80801463Y-108274412D01*
X79616146Y-109263735D01*
X79610579Y-109268890D01*
X79604740Y-109273755D01*
X79593509Y-109284696D01*
X79593489Y-109284715D01*
X79593480Y-109284725D01*
X78516147Y-110390638D01*
X78511136Y-110396342D01*
X78505832Y-110401777D01*
X78495787Y-110413813D01*
X78495767Y-110413836D01*
X78495758Y-110413848D01*
X77537812Y-111624643D01*
X77533411Y-111630836D01*
X77528696Y-111636785D01*
X77519938Y-111649795D01*
X77519925Y-111649813D01*
X77519920Y-111649822D01*
X76691507Y-112952678D01*
X76687769Y-112959284D01*
X76683687Y-112965692D01*
X76676301Y-112979554D01*
X75986196Y-114360671D01*
X75983155Y-114367631D01*
X75979755Y-114374421D01*
X75973833Y-114388968D01*
X75429352Y-115833706D01*
X75427044Y-115840940D01*
X75424359Y-115848044D01*
X75419964Y-115863123D01*
X75026875Y-117356178D01*
X75025322Y-117363612D01*
X75023382Y-117370954D01*
X75020568Y-117386367D01*
X75020560Y-117386405D01*
X75020558Y-117386424D01*
X74783030Y-118911958D01*
X74782250Y-118919504D01*
X74781074Y-118927014D01*
X74779859Y-118942634D01*
X74779855Y-118942673D01*
X74779855Y-118942692D01*
X74715062Y-120200000D01*
X60275000Y-120200000D01*
X60275000Y-106003971D01*
X77585000Y-106003971D01*
X77585000Y-106196029D01*
X77622468Y-106384397D01*
X77695966Y-106561836D01*
X77802668Y-106721527D01*
X77938473Y-106857332D01*
X78098164Y-106964034D01*
X78275603Y-107037532D01*
X78463971Y-107075000D01*
X78656029Y-107075000D01*
X78844397Y-107037532D01*
X79021836Y-106964034D01*
X79181527Y-106857332D01*
X79317332Y-106721527D01*
X79424034Y-106561836D01*
X79497532Y-106384397D01*
X79535000Y-106196029D01*
X79535000Y-106003971D01*
X80125000Y-106003971D01*
X80125000Y-106196029D01*
X80162468Y-106384397D01*
X80235966Y-106561836D01*
X80342668Y-106721527D01*
X80478473Y-106857332D01*
X80638164Y-106964034D01*
X80815603Y-107037532D01*
X81003971Y-107075000D01*
X81196029Y-107075000D01*
X81384397Y-107037532D01*
X81561836Y-106964034D01*
X81721527Y-106857332D01*
X81857332Y-106721527D01*
X81964034Y-106561836D01*
X82037532Y-106384397D01*
X82075000Y-106196029D01*
X82075000Y-106003971D01*
X82037532Y-105815603D01*
X81964034Y-105638164D01*
X81857332Y-105478473D01*
X81721527Y-105342668D01*
X81561836Y-105235966D01*
X81384397Y-105162468D01*
X81196029Y-105125000D01*
X81003971Y-105125000D01*
X80815603Y-105162468D01*
X80638164Y-105235966D01*
X80478473Y-105342668D01*
X80342668Y-105478473D01*
X80235966Y-105638164D01*
X80162468Y-105815603D01*
X80125000Y-106003971D01*
X79535000Y-106003971D01*
X79497532Y-105815603D01*
X79424034Y-105638164D01*
X79317332Y-105478473D01*
X79181527Y-105342668D01*
X79021836Y-105235966D01*
X78844397Y-105162468D01*
X78656029Y-105125000D01*
X78463971Y-105125000D01*
X78275603Y-105162468D01*
X78098164Y-105235966D01*
X77938473Y-105342668D01*
X77802668Y-105478473D01*
X77695966Y-105638164D01*
X77622468Y-105815603D01*
X77585000Y-106003971D01*
X60275000Y-106003971D01*
X60275000Y-103000000D01*
X111023669Y-103000000D01*
X111025000Y-104756250D01*
X111093750Y-104825000D01*
X113125000Y-104825000D01*
X113125000Y-102793750D01*
X113475000Y-102793750D01*
X113475000Y-104825000D01*
X115506250Y-104825000D01*
X115575000Y-104756250D01*
X115576331Y-103000000D01*
X115571021Y-102946090D01*
X115555297Y-102894253D01*
X115529761Y-102846479D01*
X115495396Y-102804604D01*
X115453521Y-102770239D01*
X115405747Y-102744703D01*
X115353910Y-102728979D01*
X115300000Y-102723669D01*
X113543750Y-102725000D01*
X113475000Y-102793750D01*
X113125000Y-102793750D01*
X113056250Y-102725000D01*
X111300000Y-102723669D01*
X111246090Y-102728979D01*
X111194253Y-102744703D01*
X111146479Y-102770239D01*
X111104604Y-102804604D01*
X111070239Y-102846479D01*
X111044703Y-102894253D01*
X111028979Y-102946090D01*
X111023669Y-103000000D01*
X60275000Y-103000000D01*
X60275000Y-97500000D01*
X111073912Y-97500000D01*
X111073912Y-101500000D01*
X111078256Y-101544108D01*
X111091122Y-101586520D01*
X111112015Y-101625608D01*
X111140132Y-101659868D01*
X111174392Y-101687985D01*
X111213480Y-101708878D01*
X111255892Y-101721744D01*
X111300000Y-101726088D01*
X115300000Y-101726088D01*
X115344108Y-101721744D01*
X115386520Y-101708878D01*
X115425608Y-101687985D01*
X115459868Y-101659868D01*
X115487985Y-101625608D01*
X115508878Y-101586520D01*
X115521744Y-101544108D01*
X115526088Y-101500000D01*
X115526088Y-97500000D01*
X115521744Y-97455892D01*
X115508878Y-97413480D01*
X115487985Y-97374392D01*
X115459868Y-97340132D01*
X115425608Y-97312015D01*
X115386520Y-97291122D01*
X115344108Y-97278256D01*
X115300000Y-97273912D01*
X111300000Y-97273912D01*
X111255892Y-97278256D01*
X111213480Y-97291122D01*
X111174392Y-97312015D01*
X111140132Y-97340132D01*
X111112015Y-97374392D01*
X111091122Y-97413480D01*
X111078256Y-97455892D01*
X111073912Y-97500000D01*
X60275000Y-97500000D01*
X60275000Y-80603971D01*
X77585000Y-80603971D01*
X77585000Y-80796029D01*
X77622468Y-80984397D01*
X77695966Y-81161836D01*
X77802668Y-81321527D01*
X77938473Y-81457332D01*
X78098164Y-81564034D01*
X78275603Y-81637532D01*
X78463971Y-81675000D01*
X78656029Y-81675000D01*
X78844397Y-81637532D01*
X79021836Y-81564034D01*
X79129549Y-81492062D01*
X80555425Y-81492062D01*
X80644985Y-81624002D01*
X80833992Y-81695017D01*
X81033222Y-81727793D01*
X81235017Y-81721073D01*
X81431624Y-81675112D01*
X81555015Y-81624002D01*
X81644575Y-81492062D01*
X83095425Y-81492062D01*
X83184985Y-81624002D01*
X83373992Y-81695017D01*
X83573222Y-81727793D01*
X83775017Y-81721073D01*
X83971624Y-81675112D01*
X84095015Y-81624002D01*
X84184575Y-81492062D01*
X83640000Y-80947487D01*
X83095425Y-81492062D01*
X81644575Y-81492062D01*
X81100000Y-80947487D01*
X80555425Y-81492062D01*
X79129549Y-81492062D01*
X79181527Y-81457332D01*
X79317332Y-81321527D01*
X79424034Y-81161836D01*
X79497532Y-80984397D01*
X79535000Y-80796029D01*
X79535000Y-80633222D01*
X80072207Y-80633222D01*
X80078927Y-80835017D01*
X80124888Y-81031624D01*
X80175998Y-81155015D01*
X80307938Y-81244575D01*
X80852513Y-80700000D01*
X81347487Y-80700000D01*
X81892062Y-81244575D01*
X82024002Y-81155015D01*
X82095017Y-80966008D01*
X82127793Y-80766778D01*
X82123346Y-80633222D01*
X82612207Y-80633222D01*
X82618927Y-80835017D01*
X82664888Y-81031624D01*
X82715998Y-81155015D01*
X82847938Y-81244575D01*
X83392513Y-80700000D01*
X83887487Y-80700000D01*
X84432062Y-81244575D01*
X84564002Y-81155015D01*
X84635017Y-80966008D01*
X84667793Y-80766778D01*
X84662372Y-80603971D01*
X85205000Y-80603971D01*
X85205000Y-80796029D01*
X85242468Y-80984397D01*
X85315966Y-81161836D01*
X85422668Y-81321527D01*
X85558473Y-81457332D01*
X85718164Y-81564034D01*
X85895603Y-81637532D01*
X86083971Y-81675000D01*
X86276029Y-81675000D01*
X86464397Y-81637532D01*
X86641836Y-81564034D01*
X86801527Y-81457332D01*
X86937332Y-81321527D01*
X87044034Y-81161836D01*
X87117532Y-80984397D01*
X87155000Y-80796029D01*
X87155000Y-80603971D01*
X87117532Y-80415603D01*
X87044034Y-80238164D01*
X86937332Y-80078473D01*
X86801527Y-79942668D01*
X86641836Y-79835966D01*
X86464397Y-79762468D01*
X86276029Y-79725000D01*
X86083971Y-79725000D01*
X85895603Y-79762468D01*
X85718164Y-79835966D01*
X85558473Y-79942668D01*
X85422668Y-80078473D01*
X85315966Y-80238164D01*
X85242468Y-80415603D01*
X85205000Y-80603971D01*
X84662372Y-80603971D01*
X84661073Y-80564983D01*
X84615112Y-80368376D01*
X84564002Y-80244985D01*
X84432062Y-80155425D01*
X83887487Y-80700000D01*
X83392513Y-80700000D01*
X82847938Y-80155425D01*
X82715998Y-80244985D01*
X82644983Y-80433992D01*
X82612207Y-80633222D01*
X82123346Y-80633222D01*
X82121073Y-80564983D01*
X82075112Y-80368376D01*
X82024002Y-80244985D01*
X81892062Y-80155425D01*
X81347487Y-80700000D01*
X80852513Y-80700000D01*
X80307938Y-80155425D01*
X80175998Y-80244985D01*
X80104983Y-80433992D01*
X80072207Y-80633222D01*
X79535000Y-80633222D01*
X79535000Y-80603971D01*
X79497532Y-80415603D01*
X79424034Y-80238164D01*
X79317332Y-80078473D01*
X79181527Y-79942668D01*
X79129550Y-79907938D01*
X80555425Y-79907938D01*
X81100000Y-80452513D01*
X81644575Y-79907938D01*
X83095425Y-79907938D01*
X83640000Y-80452513D01*
X84184575Y-79907938D01*
X84095015Y-79775998D01*
X83906008Y-79704983D01*
X83706778Y-79672207D01*
X83504983Y-79678927D01*
X83308376Y-79724888D01*
X83184985Y-79775998D01*
X83095425Y-79907938D01*
X81644575Y-79907938D01*
X81555015Y-79775998D01*
X81366008Y-79704983D01*
X81166778Y-79672207D01*
X80964983Y-79678927D01*
X80768376Y-79724888D01*
X80644985Y-79775998D01*
X80555425Y-79907938D01*
X79129550Y-79907938D01*
X79021836Y-79835966D01*
X78844397Y-79762468D01*
X78656029Y-79725000D01*
X78463971Y-79725000D01*
X78275603Y-79762468D01*
X78098164Y-79835966D01*
X77938473Y-79942668D01*
X77802668Y-80078473D01*
X77695966Y-80238164D01*
X77622468Y-80415603D01*
X77585000Y-80603971D01*
X60275000Y-80603971D01*
X60275000Y-58975000D01*
X70750000Y-58975000D01*
X70750000Y-63235277D01*
X70748550Y-63250000D01*
X70750000Y-63264723D01*
X70750000Y-63264732D01*
X70754341Y-63308809D01*
X70771496Y-63365359D01*
X70771497Y-63365360D01*
X70799353Y-63417477D01*
X70816358Y-63438198D01*
X70836842Y-63463158D01*
X70848290Y-63472553D01*
X71683134Y-64307398D01*
X71675000Y-64348292D01*
X71675000Y-64451708D01*
X71695176Y-64553137D01*
X71734751Y-64648681D01*
X71792206Y-64734668D01*
X71865332Y-64807794D01*
X71951319Y-64865249D01*
X72046863Y-64904824D01*
X72148292Y-64925000D01*
X72251708Y-64925000D01*
X72353137Y-64904824D01*
X72448681Y-64865249D01*
X72534668Y-64807794D01*
X72607794Y-64734668D01*
X72665249Y-64648681D01*
X72704824Y-64553137D01*
X72725000Y-64451708D01*
X72725000Y-64348292D01*
X72704824Y-64246863D01*
X72665249Y-64151319D01*
X72607794Y-64065332D01*
X72534668Y-63992206D01*
X72448681Y-63934751D01*
X72353137Y-63895176D01*
X72251708Y-63875000D01*
X72148292Y-63875000D01*
X72107398Y-63883134D01*
X71350000Y-63125737D01*
X71350000Y-62518265D01*
X71366358Y-62538198D01*
X71386842Y-62563158D01*
X71398290Y-62572553D01*
X71683135Y-62857398D01*
X71675000Y-62898292D01*
X71675000Y-63001708D01*
X71695176Y-63103137D01*
X71734751Y-63198681D01*
X71792206Y-63284668D01*
X71865332Y-63357794D01*
X71951319Y-63415249D01*
X72046863Y-63454824D01*
X72148292Y-63475000D01*
X72251708Y-63475000D01*
X72292602Y-63466865D01*
X74227450Y-65401714D01*
X74236842Y-65413158D01*
X74248285Y-65422549D01*
X74248286Y-65422550D01*
X74282522Y-65450647D01*
X74334640Y-65478504D01*
X74391190Y-65495659D01*
X74435267Y-65500000D01*
X74435270Y-65500000D01*
X74450000Y-65501451D01*
X74464730Y-65500000D01*
X80072863Y-65500000D01*
X83947941Y-69375078D01*
X83846905Y-69395176D01*
X83751361Y-69434751D01*
X83665374Y-69492206D01*
X83592248Y-69565332D01*
X83569083Y-69600000D01*
X71524264Y-69600000D01*
X68991865Y-67067602D01*
X69000000Y-67026708D01*
X69000000Y-66923292D01*
X68979824Y-66821863D01*
X68940249Y-66726319D01*
X68882794Y-66640332D01*
X68809668Y-66567206D01*
X68723681Y-66509751D01*
X68628137Y-66470176D01*
X68526708Y-66450000D01*
X68423292Y-66450000D01*
X68321863Y-66470176D01*
X68226319Y-66509751D01*
X68140332Y-66567206D01*
X68100000Y-66607538D01*
X68100000Y-66174263D01*
X69257398Y-65016866D01*
X69298292Y-65025000D01*
X69401708Y-65025000D01*
X69503137Y-65004824D01*
X69598681Y-64965249D01*
X69684668Y-64907794D01*
X69757794Y-64834668D01*
X69815249Y-64748681D01*
X69854824Y-64653137D01*
X69875000Y-64551708D01*
X69875000Y-64448292D01*
X69854824Y-64346863D01*
X69815249Y-64251319D01*
X69757794Y-64165332D01*
X69684668Y-64092206D01*
X69598681Y-64034751D01*
X69503137Y-63995176D01*
X69401708Y-63975000D01*
X69298292Y-63975000D01*
X69196863Y-63995176D01*
X69101319Y-64034751D01*
X69015332Y-64092206D01*
X68942206Y-64165332D01*
X68884751Y-64251319D01*
X68845176Y-64346863D01*
X68825000Y-64448292D01*
X68825000Y-64551708D01*
X68833134Y-64592602D01*
X67598290Y-65827447D01*
X67586842Y-65836842D01*
X67568814Y-65858810D01*
X67549353Y-65882523D01*
X67547043Y-65886845D01*
X67521496Y-65934641D01*
X67504341Y-65991191D01*
X67500000Y-66035268D01*
X67500000Y-66035277D01*
X67498550Y-66050000D01*
X67500000Y-66064723D01*
X67500001Y-68285267D01*
X67498550Y-68300000D01*
X67504342Y-68358810D01*
X67521497Y-68415360D01*
X67549353Y-68467477D01*
X67577451Y-68501714D01*
X67586843Y-68513158D01*
X67598286Y-68522549D01*
X71177450Y-72101714D01*
X71186842Y-72113158D01*
X71198285Y-72122549D01*
X71232522Y-72150647D01*
X71284639Y-72178504D01*
X71297801Y-72182497D01*
X71341190Y-72195659D01*
X71385267Y-72200000D01*
X71385270Y-72200000D01*
X71400000Y-72201451D01*
X71414730Y-72200000D01*
X88585277Y-72200000D01*
X88600000Y-72201450D01*
X88614723Y-72200000D01*
X88614733Y-72200000D01*
X88658810Y-72195659D01*
X88715360Y-72178504D01*
X88767477Y-72150647D01*
X88813158Y-72113158D01*
X88822553Y-72101710D01*
X89213603Y-71710660D01*
X89204341Y-71741191D01*
X89200000Y-71785268D01*
X89200000Y-71785277D01*
X89198550Y-71800000D01*
X89200000Y-71814723D01*
X89200001Y-77575735D01*
X87298290Y-79477447D01*
X87286842Y-79486842D01*
X87266358Y-79511802D01*
X87249353Y-79532523D01*
X87244721Y-79541189D01*
X87221496Y-79584641D01*
X87204341Y-79641191D01*
X87200000Y-79685268D01*
X87200000Y-79685277D01*
X87198550Y-79700000D01*
X87200000Y-79714723D01*
X87200001Y-81485267D01*
X87198550Y-81500000D01*
X87204342Y-81558810D01*
X87221497Y-81615360D01*
X87249353Y-81667477D01*
X87276575Y-81700646D01*
X87286843Y-81713158D01*
X87298285Y-81722548D01*
X88377451Y-82801715D01*
X88386842Y-82813158D01*
X88398285Y-82822549D01*
X88432522Y-82850647D01*
X88460379Y-82865536D01*
X88484640Y-82878504D01*
X88541190Y-82895659D01*
X88585267Y-82900000D01*
X88585277Y-82900000D01*
X88600000Y-82901450D01*
X88614723Y-82900000D01*
X94425277Y-82900000D01*
X94440000Y-82901450D01*
X94454723Y-82900000D01*
X94454733Y-82900000D01*
X94498810Y-82895659D01*
X94555360Y-82878504D01*
X94607477Y-82850647D01*
X94653158Y-82813158D01*
X94662553Y-82801710D01*
X95893767Y-81570497D01*
X96055603Y-81637532D01*
X96243971Y-81675000D01*
X96436029Y-81675000D01*
X96624397Y-81637532D01*
X96801836Y-81564034D01*
X96961527Y-81457332D01*
X97097332Y-81321527D01*
X97204034Y-81161836D01*
X97277532Y-80984397D01*
X97300001Y-80871437D01*
X97300001Y-81585267D01*
X97298550Y-81600000D01*
X97304342Y-81658810D01*
X97321497Y-81715360D01*
X97349353Y-81767477D01*
X97365246Y-81786842D01*
X97386843Y-81813158D01*
X97398286Y-81822549D01*
X109777451Y-94201715D01*
X109786842Y-94213158D01*
X109798285Y-94222549D01*
X109832522Y-94250647D01*
X109860379Y-94265536D01*
X109884640Y-94278504D01*
X109941190Y-94295659D01*
X109985267Y-94300000D01*
X109985276Y-94300000D01*
X109999999Y-94301450D01*
X110014722Y-94300000D01*
X111073912Y-94300000D01*
X111073912Y-96000000D01*
X111078256Y-96044108D01*
X111091122Y-96086520D01*
X111112015Y-96125608D01*
X111140132Y-96159868D01*
X111174392Y-96187985D01*
X111213480Y-96208878D01*
X111255892Y-96221744D01*
X111300000Y-96226088D01*
X115300000Y-96226088D01*
X115344108Y-96221744D01*
X115386520Y-96208878D01*
X115425608Y-96187985D01*
X115459868Y-96159868D01*
X115487985Y-96125608D01*
X115508878Y-96086520D01*
X115521744Y-96044108D01*
X115526088Y-96000000D01*
X115526088Y-92000000D01*
X115521744Y-91955892D01*
X115508878Y-91913480D01*
X115487985Y-91874392D01*
X115459868Y-91840132D01*
X115425608Y-91812015D01*
X115386520Y-91791122D01*
X115344108Y-91778256D01*
X115300000Y-91773912D01*
X111300000Y-91773912D01*
X111255892Y-91778256D01*
X111213480Y-91791122D01*
X111174392Y-91812015D01*
X111140132Y-91840132D01*
X111112015Y-91874392D01*
X111091122Y-91913480D01*
X111078256Y-91955892D01*
X111073912Y-92000000D01*
X111073912Y-93700000D01*
X110124264Y-93700000D01*
X97900000Y-81475737D01*
X97900000Y-79614722D01*
X97901450Y-79599999D01*
X97900000Y-79585276D01*
X97900000Y-79585267D01*
X97895659Y-79541190D01*
X97878504Y-79484640D01*
X97850648Y-79432524D01*
X97850647Y-79432522D01*
X97822549Y-79398285D01*
X97813158Y-79386842D01*
X97801717Y-79377453D01*
X95600000Y-77175737D01*
X95600000Y-72930959D01*
X95634668Y-72907794D01*
X95707794Y-72834668D01*
X95765249Y-72748681D01*
X95804824Y-72653137D01*
X95804998Y-72652260D01*
X96200000Y-73047262D01*
X96200001Y-76825927D01*
X96198550Y-76840660D01*
X96204342Y-76899470D01*
X96221497Y-76956020D01*
X96249353Y-77008137D01*
X96277451Y-77042374D01*
X96286843Y-77053818D01*
X96298286Y-77063209D01*
X98960076Y-79725000D01*
X98783971Y-79725000D01*
X98595603Y-79762468D01*
X98418164Y-79835966D01*
X98258473Y-79942668D01*
X98122668Y-80078473D01*
X98015966Y-80238164D01*
X97942468Y-80415603D01*
X97905000Y-80603971D01*
X97905000Y-80796029D01*
X97942468Y-80984397D01*
X98015966Y-81161836D01*
X98122668Y-81321527D01*
X98258473Y-81457332D01*
X98418164Y-81564034D01*
X98595603Y-81637532D01*
X98783971Y-81675000D01*
X98976029Y-81675000D01*
X99164397Y-81637532D01*
X99341836Y-81564034D01*
X99501527Y-81457332D01*
X99637332Y-81321527D01*
X99744034Y-81161836D01*
X99817532Y-80984397D01*
X99855000Y-80796029D01*
X99855000Y-80619924D01*
X100136790Y-80901714D01*
X100146182Y-80913158D01*
X100157625Y-80922549D01*
X100191862Y-80950647D01*
X100219719Y-80965536D01*
X100243980Y-80978504D01*
X100300530Y-80995659D01*
X100344607Y-81000000D01*
X100344617Y-81000000D01*
X100359340Y-81001450D01*
X100374063Y-81000000D01*
X100488931Y-81000000D01*
X100555966Y-81161836D01*
X100662668Y-81321527D01*
X100798473Y-81457332D01*
X100958164Y-81564034D01*
X101135603Y-81637532D01*
X101323971Y-81675000D01*
X101516029Y-81675000D01*
X101704397Y-81637532D01*
X101881836Y-81564034D01*
X102041527Y-81457332D01*
X102177332Y-81321527D01*
X102284034Y-81161836D01*
X102357532Y-80984397D01*
X102395000Y-80796029D01*
X102395000Y-80603971D01*
X102357532Y-80415603D01*
X102284034Y-80238164D01*
X102177332Y-80078473D01*
X102041527Y-79942668D01*
X101881836Y-79835966D01*
X101704397Y-79762468D01*
X101516029Y-79725000D01*
X101323971Y-79725000D01*
X101135603Y-79762468D01*
X100958164Y-79835966D01*
X100798473Y-79942668D01*
X100662668Y-80078473D01*
X100555966Y-80238164D01*
X100488931Y-80400000D01*
X100483604Y-80400000D01*
X96800000Y-76716397D01*
X96800000Y-72937728D01*
X96801451Y-72922998D01*
X96800000Y-72908265D01*
X96795659Y-72864188D01*
X96778504Y-72807638D01*
X96755847Y-72765249D01*
X96750647Y-72755520D01*
X96722550Y-72721284D01*
X96722549Y-72721283D01*
X96713158Y-72709840D01*
X96701716Y-72700450D01*
X95699555Y-71698290D01*
X95690160Y-71686842D01*
X95644479Y-71649353D01*
X95604473Y-71627970D01*
X95634668Y-71607794D01*
X95707794Y-71534668D01*
X95730959Y-71500000D01*
X98835217Y-71500000D01*
X98751319Y-71534751D01*
X98665332Y-71592206D01*
X98592206Y-71665332D01*
X98534751Y-71751319D01*
X98495176Y-71846863D01*
X98475000Y-71948292D01*
X98475000Y-72051708D01*
X98483861Y-72096252D01*
X98465249Y-72051319D01*
X98407794Y-71965332D01*
X98334668Y-71892206D01*
X98248681Y-71834751D01*
X98153137Y-71795176D01*
X98051708Y-71775000D01*
X97948292Y-71775000D01*
X97846863Y-71795176D01*
X97751319Y-71834751D01*
X97665332Y-71892206D01*
X97592206Y-71965332D01*
X97534751Y-72051319D01*
X97495176Y-72146863D01*
X97475000Y-72248292D01*
X97475000Y-72351708D01*
X97495176Y-72453137D01*
X97534751Y-72548681D01*
X97592206Y-72634668D01*
X97665332Y-72707794D01*
X97751319Y-72765249D01*
X97846863Y-72804824D01*
X97948292Y-72825000D01*
X98051708Y-72825000D01*
X98092602Y-72816866D01*
X98177450Y-72901714D01*
X98186842Y-72913158D01*
X98198285Y-72922549D01*
X98232522Y-72950647D01*
X98259842Y-72965249D01*
X98284640Y-72978504D01*
X98341190Y-72995659D01*
X98385267Y-73000000D01*
X98385276Y-73000000D01*
X98399999Y-73001450D01*
X98414722Y-73000000D01*
X102575737Y-73000000D01*
X103748285Y-74172549D01*
X103748289Y-74172552D01*
X103798286Y-74222550D01*
X103798291Y-74222554D01*
X104777450Y-75201714D01*
X104786842Y-75213158D01*
X104798285Y-75222549D01*
X104832522Y-75250647D01*
X104860379Y-75265536D01*
X104884640Y-75278504D01*
X104941190Y-75295659D01*
X104985267Y-75300000D01*
X104985276Y-75300000D01*
X104999999Y-75301450D01*
X105014722Y-75300000D01*
X112375737Y-75300000D01*
X113773912Y-76698176D01*
X113773912Y-78500000D01*
X113778256Y-78544108D01*
X113791122Y-78586520D01*
X113812015Y-78625608D01*
X113840132Y-78659868D01*
X113874392Y-78687985D01*
X113913480Y-78708878D01*
X113955892Y-78721744D01*
X114000000Y-78726088D01*
X116000000Y-78726088D01*
X116044108Y-78721744D01*
X116086520Y-78708878D01*
X116125608Y-78687985D01*
X116159868Y-78659868D01*
X116187985Y-78625608D01*
X116208878Y-78586520D01*
X116221744Y-78544108D01*
X116226088Y-78500000D01*
X116226088Y-76500000D01*
X116221744Y-76455892D01*
X116208878Y-76413480D01*
X116187985Y-76374392D01*
X116159868Y-76340132D01*
X116125608Y-76312015D01*
X116086520Y-76291122D01*
X116044108Y-76278256D01*
X116000000Y-76273912D01*
X114198176Y-76273912D01*
X112722553Y-74798290D01*
X112713158Y-74786842D01*
X112667477Y-74749353D01*
X112615360Y-74721496D01*
X112558810Y-74704341D01*
X112514733Y-74700000D01*
X112514723Y-74700000D01*
X112500000Y-74698550D01*
X112485277Y-74700000D01*
X105124264Y-74700000D01*
X104222554Y-73798291D01*
X104222550Y-73798286D01*
X104172552Y-73748289D01*
X104172549Y-73748285D01*
X102922553Y-72498290D01*
X102913158Y-72486842D01*
X102867477Y-72449353D01*
X102815360Y-72421496D01*
X102758810Y-72404341D01*
X102714733Y-72400000D01*
X102714723Y-72400000D01*
X102700000Y-72398550D01*
X102685277Y-72400000D01*
X99342462Y-72400000D01*
X99407794Y-72334668D01*
X99430959Y-72300000D01*
X102875737Y-72300000D01*
X104777451Y-74201715D01*
X104786842Y-74213158D01*
X104798285Y-74222549D01*
X104832522Y-74250647D01*
X104860379Y-74265536D01*
X104884640Y-74278504D01*
X104941190Y-74295659D01*
X104985267Y-74300000D01*
X104985276Y-74300000D01*
X104999999Y-74301450D01*
X105014722Y-74300000D01*
X113730043Y-74300000D01*
X113741122Y-74336520D01*
X113762015Y-74375608D01*
X113790132Y-74409868D01*
X113824392Y-74437985D01*
X113863480Y-74458878D01*
X113905892Y-74471744D01*
X113950000Y-74476088D01*
X115950000Y-74476088D01*
X115994108Y-74471744D01*
X116036520Y-74458878D01*
X116075608Y-74437985D01*
X116109868Y-74409868D01*
X116137985Y-74375608D01*
X116158878Y-74336520D01*
X116171744Y-74294108D01*
X116176088Y-74250000D01*
X116176088Y-72250000D01*
X116171744Y-72205892D01*
X116158878Y-72163480D01*
X116137985Y-72124392D01*
X116109868Y-72090132D01*
X116075608Y-72062015D01*
X116036520Y-72041122D01*
X115994108Y-72028256D01*
X115950000Y-72023912D01*
X113950000Y-72023912D01*
X113905892Y-72028256D01*
X113863480Y-72041122D01*
X113824392Y-72062015D01*
X113790132Y-72090132D01*
X113762015Y-72124392D01*
X113741122Y-72163480D01*
X113728256Y-72205892D01*
X113723912Y-72250000D01*
X113723912Y-73700000D01*
X105124264Y-73700000D01*
X103222553Y-71798290D01*
X103213158Y-71786842D01*
X103167477Y-71749353D01*
X103115360Y-71721496D01*
X103058810Y-71704341D01*
X103014733Y-71700000D01*
X103014723Y-71700000D01*
X103000000Y-71698550D01*
X102985277Y-71700000D01*
X99430959Y-71700000D01*
X99407794Y-71665332D01*
X99334668Y-71592206D01*
X99248681Y-71534751D01*
X99164783Y-71500000D01*
X113835277Y-71500000D01*
X113850000Y-71501450D01*
X113864723Y-71500000D01*
X113864733Y-71500000D01*
X113908810Y-71495659D01*
X113965360Y-71478504D01*
X114017477Y-71450647D01*
X114063158Y-71413158D01*
X114072553Y-71401710D01*
X115151715Y-70322549D01*
X115163158Y-70313158D01*
X115186562Y-70284640D01*
X115200647Y-70267478D01*
X115228503Y-70215361D01*
X115228504Y-70215360D01*
X115240418Y-70176088D01*
X115950000Y-70176088D01*
X115994108Y-70171744D01*
X116036520Y-70158878D01*
X116075608Y-70137985D01*
X116109868Y-70109868D01*
X116137985Y-70075608D01*
X116158878Y-70036520D01*
X116171744Y-69994108D01*
X116176088Y-69950000D01*
X116176088Y-67950000D01*
X116171744Y-67905892D01*
X116158878Y-67863480D01*
X116137985Y-67824392D01*
X116109868Y-67790132D01*
X116075608Y-67762015D01*
X116036520Y-67741122D01*
X115994108Y-67728256D01*
X115950000Y-67723912D01*
X113950000Y-67723912D01*
X113905892Y-67728256D01*
X113863480Y-67741122D01*
X113824392Y-67762015D01*
X113790132Y-67790132D01*
X113762015Y-67824392D01*
X113741122Y-67863480D01*
X113728256Y-67905892D01*
X113723912Y-67950000D01*
X113723912Y-69950000D01*
X113728256Y-69994108D01*
X113741122Y-70036520D01*
X113762015Y-70075608D01*
X113790132Y-70109868D01*
X113824392Y-70137985D01*
X113863480Y-70158878D01*
X113905892Y-70171744D01*
X113950000Y-70176088D01*
X114449648Y-70176088D01*
X113725737Y-70900000D01*
X112130987Y-70900000D01*
X112165249Y-70848723D01*
X112204824Y-70753179D01*
X112225000Y-70651750D01*
X112225000Y-70548334D01*
X112216866Y-70507440D01*
X112222549Y-70501757D01*
X112222553Y-70501752D01*
X113401721Y-69322586D01*
X113413158Y-69313200D01*
X113422544Y-69301763D01*
X113422550Y-69301757D01*
X113450647Y-69267520D01*
X113478504Y-69215403D01*
X113485541Y-69192206D01*
X113495659Y-69158852D01*
X113500000Y-69114775D01*
X113500000Y-69114772D01*
X113501451Y-69100042D01*
X113500000Y-69085312D01*
X113500000Y-63514722D01*
X113501450Y-63499999D01*
X113500000Y-63485276D01*
X113500000Y-63485267D01*
X113495659Y-63441190D01*
X113478504Y-63384640D01*
X113450648Y-63332524D01*
X113450647Y-63332522D01*
X113422549Y-63298285D01*
X113413158Y-63286842D01*
X113401717Y-63277453D01*
X110839155Y-60714892D01*
X110857139Y-60671475D01*
X110885000Y-60531406D01*
X110885000Y-60388594D01*
X110857139Y-60248525D01*
X110802487Y-60116584D01*
X110723144Y-59997839D01*
X110622161Y-59896856D01*
X110514621Y-59825000D01*
X110622161Y-59753144D01*
X110723144Y-59652161D01*
X110802487Y-59533416D01*
X110857139Y-59401475D01*
X110885000Y-59261406D01*
X110885000Y-59118594D01*
X110857139Y-58978525D01*
X110802487Y-58846584D01*
X110723144Y-58727839D01*
X110622161Y-58626856D01*
X110514621Y-58555000D01*
X110622161Y-58483144D01*
X110723144Y-58382161D01*
X110802487Y-58263416D01*
X110857139Y-58131475D01*
X110885000Y-57991406D01*
X110885000Y-57848594D01*
X110857139Y-57708525D01*
X110802487Y-57576584D01*
X110723144Y-57457839D01*
X110622161Y-57356856D01*
X110514621Y-57285000D01*
X110622161Y-57213144D01*
X110723144Y-57112161D01*
X110802487Y-56993416D01*
X110857139Y-56861475D01*
X110885000Y-56721406D01*
X110885000Y-56578594D01*
X110857139Y-56438525D01*
X110802487Y-56306584D01*
X110723144Y-56187839D01*
X110622161Y-56086856D01*
X110514621Y-56015000D01*
X110622161Y-55943144D01*
X110723144Y-55842161D01*
X110802487Y-55723416D01*
X110857139Y-55591475D01*
X110885000Y-55451406D01*
X110885000Y-55308594D01*
X110857139Y-55168525D01*
X110802487Y-55036584D01*
X110723144Y-54917839D01*
X110622161Y-54816856D01*
X110514621Y-54745000D01*
X110622161Y-54673144D01*
X110723144Y-54572161D01*
X110802487Y-54453416D01*
X110857139Y-54321475D01*
X110885000Y-54181406D01*
X110885000Y-54038594D01*
X110857139Y-53898525D01*
X110802487Y-53766584D01*
X110723144Y-53647839D01*
X110622161Y-53546856D01*
X110503416Y-53467513D01*
X110371475Y-53412861D01*
X110231406Y-53385000D01*
X110088594Y-53385000D01*
X109948525Y-53412861D01*
X109816584Y-53467513D01*
X109697839Y-53546856D01*
X109616088Y-53628607D01*
X109616088Y-53610000D01*
X109611744Y-53565892D01*
X109598878Y-53523480D01*
X109577985Y-53484392D01*
X109549868Y-53450132D01*
X109515608Y-53422015D01*
X109476520Y-53401122D01*
X109434108Y-53388256D01*
X109390000Y-53383912D01*
X108390000Y-53383912D01*
X108345892Y-53388256D01*
X108303480Y-53401122D01*
X108264392Y-53422015D01*
X108230132Y-53450132D01*
X108202015Y-53484392D01*
X108181122Y-53523480D01*
X108168256Y-53565892D01*
X108163912Y-53610000D01*
X108163912Y-54610000D01*
X108168256Y-54654108D01*
X108181122Y-54696520D01*
X108202015Y-54735608D01*
X108230132Y-54769868D01*
X108264392Y-54797985D01*
X108303480Y-54818878D01*
X108343527Y-54831027D01*
X108249001Y-54944380D01*
X108176332Y-55077803D01*
X108171688Y-55089049D01*
X108205775Y-55205000D01*
X108715000Y-55205000D01*
X108715000Y-55185000D01*
X109065000Y-55185000D01*
X109065000Y-55205000D01*
X109085000Y-55205000D01*
X109085000Y-55555000D01*
X109065000Y-55555000D01*
X109065000Y-55575000D01*
X108715000Y-55575000D01*
X108715000Y-55555000D01*
X108205775Y-55555000D01*
X108171688Y-55670951D01*
X108176332Y-55682197D01*
X108249001Y-55815620D01*
X108346303Y-55932302D01*
X108464499Y-56027760D01*
X108493511Y-56042975D01*
X108427839Y-56086856D01*
X108326856Y-56187839D01*
X108247513Y-56306584D01*
X108192861Y-56438525D01*
X108165000Y-56578594D01*
X108165000Y-56721406D01*
X108192861Y-56861475D01*
X108247513Y-56993416D01*
X108326856Y-57112161D01*
X108427839Y-57213144D01*
X108535379Y-57285000D01*
X108427839Y-57356856D01*
X108326856Y-57457839D01*
X108247513Y-57576584D01*
X108192861Y-57708525D01*
X108165000Y-57848594D01*
X108165000Y-57991406D01*
X108192861Y-58131475D01*
X108247513Y-58263416D01*
X108326856Y-58382161D01*
X108427839Y-58483144D01*
X108535379Y-58555000D01*
X108427839Y-58626856D01*
X108326856Y-58727839D01*
X108247513Y-58846584D01*
X108192861Y-58978525D01*
X108165000Y-59118594D01*
X108165000Y-59261406D01*
X108192861Y-59401475D01*
X108247513Y-59533416D01*
X108326856Y-59652161D01*
X108427839Y-59753144D01*
X108535379Y-59825000D01*
X108427839Y-59896856D01*
X108326856Y-59997839D01*
X108247513Y-60116584D01*
X108192861Y-60248525D01*
X108165000Y-60388594D01*
X108165000Y-60531406D01*
X108192861Y-60671475D01*
X108247513Y-60803416D01*
X108326856Y-60922161D01*
X108427839Y-61023144D01*
X108535379Y-61095000D01*
X108427839Y-61166856D01*
X108326856Y-61267839D01*
X108247513Y-61386584D01*
X108192861Y-61518525D01*
X108165000Y-61658594D01*
X108165000Y-61801406D01*
X108192861Y-61941475D01*
X108247513Y-62073416D01*
X108326856Y-62192161D01*
X108427839Y-62293144D01*
X108546584Y-62372487D01*
X108678525Y-62427139D01*
X108818594Y-62455000D01*
X108961406Y-62455000D01*
X109101475Y-62427139D01*
X109233416Y-62372487D01*
X109352161Y-62293144D01*
X109453144Y-62192161D01*
X109525000Y-62084621D01*
X109596856Y-62192161D01*
X109697839Y-62293144D01*
X109816584Y-62372487D01*
X109948525Y-62427139D01*
X110088594Y-62455000D01*
X110231406Y-62455000D01*
X110371475Y-62427139D01*
X110503416Y-62372487D01*
X110622161Y-62293144D01*
X110723144Y-62192161D01*
X110802487Y-62073416D01*
X110857139Y-61941475D01*
X110885000Y-61801406D01*
X110885000Y-61658594D01*
X110872751Y-61597015D01*
X112583489Y-63307753D01*
X112553125Y-63295176D01*
X112451696Y-63275000D01*
X112348280Y-63275000D01*
X112246851Y-63295176D01*
X112151307Y-63334751D01*
X112065320Y-63392206D01*
X111992194Y-63465332D01*
X111934739Y-63551319D01*
X111895164Y-63646863D01*
X111874988Y-63748292D01*
X111874988Y-63851708D01*
X111883122Y-63892601D01*
X106750724Y-69025001D01*
X95498727Y-69025001D01*
X95513158Y-69013158D01*
X95522553Y-69001710D01*
X96401694Y-68122570D01*
X96413136Y-68113180D01*
X96434751Y-68086842D01*
X96450625Y-68067500D01*
X96473341Y-68025000D01*
X96478482Y-68015382D01*
X96495637Y-67958832D01*
X96499978Y-67914755D01*
X96499978Y-67914746D01*
X96501428Y-67900023D01*
X96499978Y-67885300D01*
X96499978Y-63030959D01*
X96534646Y-63007794D01*
X96607772Y-62934668D01*
X96665227Y-62848681D01*
X96704802Y-62753137D01*
X96724978Y-62651708D01*
X96724978Y-62548292D01*
X96704802Y-62446863D01*
X96665227Y-62351319D01*
X96607772Y-62265332D01*
X96534646Y-62192206D01*
X96448659Y-62134751D01*
X96353115Y-62095176D01*
X96251686Y-62075000D01*
X96148270Y-62075000D01*
X96046841Y-62095176D01*
X95951297Y-62134751D01*
X95865310Y-62192206D01*
X95792184Y-62265332D01*
X95734729Y-62351319D01*
X95695154Y-62446863D01*
X95674978Y-62548292D01*
X95674978Y-62651708D01*
X95695154Y-62753137D01*
X95734729Y-62848681D01*
X95792184Y-62934668D01*
X95865310Y-63007794D01*
X95899978Y-63030959D01*
X95899978Y-63038996D01*
X95899979Y-63039006D01*
X95899978Y-67235164D01*
X95865249Y-67151319D01*
X95807794Y-67065332D01*
X95734668Y-66992206D01*
X95648681Y-66934751D01*
X95553137Y-66895176D01*
X95451708Y-66875000D01*
X95348292Y-66875000D01*
X95246863Y-66895176D01*
X95151319Y-66934751D01*
X95097562Y-66970670D01*
X95104824Y-66953139D01*
X95125000Y-66851710D01*
X95125000Y-66748294D01*
X95116865Y-66707400D01*
X95501715Y-66322551D01*
X95513158Y-66313160D01*
X95527897Y-66295200D01*
X95550647Y-66267480D01*
X95568140Y-66234751D01*
X95578504Y-66215362D01*
X95595659Y-66158812D01*
X95600000Y-66114735D01*
X95600000Y-66114723D01*
X95601450Y-66100003D01*
X95600000Y-66085283D01*
X95600000Y-63971458D01*
X95601451Y-63956728D01*
X95600000Y-63941995D01*
X95595659Y-63897918D01*
X95580926Y-63849352D01*
X95578504Y-63841367D01*
X95550647Y-63789250D01*
X95522550Y-63755013D01*
X95522544Y-63755007D01*
X95513158Y-63743570D01*
X95501722Y-63734185D01*
X92265823Y-60498288D01*
X92256428Y-60486840D01*
X92210747Y-60449351D01*
X92158630Y-60421494D01*
X92102080Y-60404339D01*
X92058003Y-60399998D01*
X92057993Y-60399998D01*
X92043270Y-60398548D01*
X92028547Y-60399998D01*
X89830953Y-60399998D01*
X89807788Y-60365330D01*
X89734662Y-60292204D01*
X89648675Y-60234749D01*
X89553131Y-60195174D01*
X89451702Y-60174998D01*
X89348286Y-60174998D01*
X89246857Y-60195174D01*
X89151313Y-60234749D01*
X89065326Y-60292204D01*
X88992200Y-60365330D01*
X88934745Y-60451317D01*
X88895170Y-60546861D01*
X88874994Y-60648290D01*
X88874994Y-60751706D01*
X88895170Y-60853135D01*
X88934745Y-60948679D01*
X88992200Y-61034666D01*
X89057534Y-61100000D01*
X88924264Y-61100000D01*
X88616865Y-60792602D01*
X88625000Y-60751708D01*
X88625000Y-60648292D01*
X88604824Y-60546863D01*
X88565249Y-60451319D01*
X88507794Y-60365332D01*
X88434668Y-60292206D01*
X88348681Y-60234751D01*
X88253137Y-60195176D01*
X88151708Y-60175000D01*
X88048292Y-60175000D01*
X87946863Y-60195176D01*
X87851319Y-60234751D01*
X87765332Y-60292206D01*
X87692206Y-60365332D01*
X87634751Y-60451319D01*
X87595176Y-60546863D01*
X87575000Y-60648292D01*
X87575000Y-60751708D01*
X87595176Y-60853137D01*
X87634751Y-60948681D01*
X87692206Y-61034668D01*
X87765332Y-61107794D01*
X87851319Y-61165249D01*
X87946863Y-61204824D01*
X88048292Y-61225000D01*
X88151708Y-61225000D01*
X88192602Y-61216865D01*
X88577450Y-61601714D01*
X88586842Y-61613158D01*
X88598285Y-61622549D01*
X88632522Y-61650647D01*
X88660379Y-61665536D01*
X88684640Y-61678504D01*
X88741190Y-61695659D01*
X88785267Y-61700000D01*
X88785279Y-61700000D01*
X88799999Y-61701450D01*
X88814719Y-61700000D01*
X91575739Y-61700000D01*
X93583136Y-63707398D01*
X93575002Y-63748292D01*
X93575002Y-63851708D01*
X93595178Y-63953137D01*
X93634753Y-64048681D01*
X93692208Y-64134668D01*
X93765334Y-64207794D01*
X93851321Y-64265249D01*
X93946865Y-64304824D01*
X94048294Y-64325000D01*
X94151710Y-64325000D01*
X94253139Y-64304824D01*
X94348683Y-64265249D01*
X94434670Y-64207794D01*
X94507796Y-64134668D01*
X94565251Y-64048681D01*
X94604826Y-63953137D01*
X94625002Y-63851708D01*
X94625002Y-63748292D01*
X94614499Y-63695492D01*
X95000000Y-64080993D01*
X95000001Y-65975737D01*
X94692602Y-66283137D01*
X94651708Y-66275002D01*
X94548292Y-66275002D01*
X94446863Y-66295178D01*
X94351319Y-66334753D01*
X94265332Y-66392208D01*
X94192206Y-66465334D01*
X94149998Y-66528502D01*
X94107794Y-66465340D01*
X94034668Y-66392214D01*
X93948681Y-66334759D01*
X93853137Y-66295184D01*
X93751708Y-66275008D01*
X93648292Y-66275008D01*
X93546863Y-66295184D01*
X93451319Y-66334759D01*
X93365332Y-66392214D01*
X93292206Y-66465340D01*
X93269041Y-66500008D01*
X92936687Y-66500008D01*
X92921964Y-66498558D01*
X92907241Y-66500008D01*
X92907232Y-66500008D01*
X92863155Y-66504349D01*
X92806605Y-66521504D01*
X92785990Y-66532523D01*
X92754487Y-66549361D01*
X92720294Y-66577423D01*
X92708807Y-66586850D01*
X92699416Y-66598293D01*
X92612456Y-66685253D01*
X92604824Y-66646887D01*
X92565249Y-66551343D01*
X92507794Y-66465356D01*
X92434668Y-66392230D01*
X92348681Y-66334775D01*
X92253137Y-66295200D01*
X92151708Y-66275024D01*
X92048292Y-66275024D01*
X91946863Y-66295200D01*
X91851319Y-66334775D01*
X91765332Y-66392230D01*
X91700026Y-66457536D01*
X91634668Y-66392178D01*
X91548681Y-66334723D01*
X91453137Y-66295148D01*
X91351708Y-66274972D01*
X91248292Y-66274972D01*
X91146863Y-66295148D01*
X91051319Y-66334723D01*
X90965332Y-66392178D01*
X90892206Y-66465304D01*
X90834751Y-66551291D01*
X90795176Y-66646835D01*
X90775000Y-66748264D01*
X90775000Y-66851680D01*
X90783134Y-66892574D01*
X87675709Y-70000000D01*
X86124264Y-70000000D01*
X80522553Y-64398290D01*
X80513158Y-64386842D01*
X80467477Y-64349353D01*
X80415360Y-64321496D01*
X80358810Y-64304341D01*
X80314733Y-64300000D01*
X80314723Y-64300000D01*
X80300000Y-64298550D01*
X80285277Y-64300000D01*
X75024274Y-64300000D01*
X72722564Y-61998291D01*
X72722559Y-61998285D01*
X72716876Y-61992602D01*
X72725010Y-61951708D01*
X72725010Y-61848292D01*
X72704834Y-61746863D01*
X72665259Y-61651319D01*
X72607804Y-61565332D01*
X72534678Y-61492206D01*
X72450000Y-61435626D01*
X72450000Y-60018227D01*
X72466358Y-60038160D01*
X72486842Y-60063120D01*
X72498290Y-60072515D01*
X74233134Y-61807360D01*
X74225000Y-61848254D01*
X74225000Y-61951670D01*
X74245176Y-62053099D01*
X74284751Y-62148643D01*
X74342206Y-62234630D01*
X74415332Y-62307756D01*
X74501319Y-62365211D01*
X74596863Y-62404786D01*
X74698292Y-62424962D01*
X74801708Y-62424962D01*
X74903137Y-62404786D01*
X74998681Y-62365211D01*
X75084668Y-62307756D01*
X75157794Y-62234630D01*
X75215249Y-62148643D01*
X75254824Y-62053099D01*
X75275000Y-61951670D01*
X75275000Y-61848254D01*
X75254824Y-61746825D01*
X75215249Y-61651281D01*
X75157794Y-61565294D01*
X75084668Y-61492168D01*
X74998681Y-61434713D01*
X74903137Y-61395138D01*
X74801708Y-61374962D01*
X74698292Y-61374962D01*
X74657398Y-61383096D01*
X73000000Y-59725699D01*
X73000000Y-58975000D01*
X77100001Y-58975000D01*
X77100000Y-60969041D01*
X77065332Y-60992206D01*
X76992206Y-61065332D01*
X76934751Y-61151319D01*
X76895176Y-61246863D01*
X76875000Y-61348292D01*
X76875000Y-61451708D01*
X76895176Y-61553137D01*
X76934751Y-61648681D01*
X76992206Y-61734668D01*
X77065332Y-61807794D01*
X77151319Y-61865249D01*
X77246863Y-61904824D01*
X77348292Y-61925000D01*
X77451708Y-61925000D01*
X77553137Y-61904824D01*
X77648681Y-61865249D01*
X77734668Y-61807794D01*
X77807794Y-61734668D01*
X77865249Y-61648681D01*
X77904824Y-61553137D01*
X77925000Y-61451708D01*
X77925000Y-61348292D01*
X77904824Y-61246863D01*
X77865249Y-61151319D01*
X77807794Y-61065332D01*
X77734668Y-60992206D01*
X77700000Y-60969041D01*
X77700000Y-58975000D01*
X81500000Y-58975000D01*
X81543895Y-58970677D01*
X81586104Y-58957873D01*
X81625003Y-58937081D01*
X81659099Y-58909099D01*
X81687081Y-58875003D01*
X81707873Y-58836104D01*
X81720677Y-58793895D01*
X81725000Y-58750000D01*
X81725000Y-48449263D01*
X84599992Y-51324256D01*
X84599993Y-67060994D01*
X84599992Y-67061004D01*
X84599992Y-67069041D01*
X84565324Y-67092206D01*
X84492198Y-67165332D01*
X84434743Y-67251319D01*
X84395168Y-67346863D01*
X84374992Y-67448292D01*
X84374992Y-67551708D01*
X84395168Y-67653137D01*
X84434743Y-67748681D01*
X84492198Y-67834668D01*
X84565324Y-67907794D01*
X84651311Y-67965249D01*
X84746855Y-68004824D01*
X84848284Y-68025000D01*
X84951700Y-68025000D01*
X85053129Y-68004824D01*
X85148673Y-67965249D01*
X85234660Y-67907794D01*
X85307786Y-67834668D01*
X85365241Y-67748681D01*
X85404816Y-67653137D01*
X85424992Y-67551708D01*
X85424992Y-67448292D01*
X85404816Y-67346863D01*
X85365241Y-67251319D01*
X85336061Y-67207648D01*
X85423292Y-67225000D01*
X85526708Y-67225000D01*
X85628137Y-67204824D01*
X85723681Y-67165249D01*
X85800001Y-67114253D01*
X85800001Y-67869027D01*
X85765332Y-67892192D01*
X85692206Y-67965318D01*
X85634751Y-68051305D01*
X85595176Y-68146849D01*
X85575000Y-68248278D01*
X85575000Y-68351694D01*
X85595176Y-68453123D01*
X85634751Y-68548667D01*
X85692206Y-68634654D01*
X85765332Y-68707780D01*
X85851319Y-68765235D01*
X85946863Y-68804810D01*
X86048292Y-68824986D01*
X86151708Y-68824986D01*
X86253137Y-68804810D01*
X86270745Y-68797517D01*
X86234751Y-68851385D01*
X86195176Y-68946929D01*
X86175000Y-69048358D01*
X86175000Y-69151774D01*
X86195176Y-69253203D01*
X86234751Y-69348747D01*
X86292206Y-69434734D01*
X86365332Y-69507860D01*
X86451319Y-69565315D01*
X86546863Y-69604890D01*
X86648292Y-69625066D01*
X86751708Y-69625066D01*
X86853137Y-69604890D01*
X86948681Y-69565315D01*
X87034668Y-69507860D01*
X87107794Y-69434734D01*
X87165249Y-69348747D01*
X87204824Y-69253203D01*
X87225000Y-69151774D01*
X87225000Y-69048358D01*
X87204824Y-68946929D01*
X87165249Y-68851385D01*
X87107794Y-68765398D01*
X87034668Y-68692272D01*
X87000000Y-68669107D01*
X87000000Y-50614730D01*
X87001451Y-50600000D01*
X86998028Y-50565249D01*
X86995659Y-50541190D01*
X86978504Y-50484640D01*
X86950648Y-50432524D01*
X86950647Y-50432522D01*
X86922550Y-50398286D01*
X86922549Y-50398285D01*
X86913158Y-50386842D01*
X86901717Y-50377453D01*
X83249263Y-46725000D01*
X84902784Y-46725000D01*
X87975000Y-49989230D01*
X87975000Y-55300000D01*
X87978128Y-55337389D01*
X87989686Y-55379955D01*
X88009325Y-55419449D01*
X88036292Y-55454353D01*
X91336292Y-58954353D01*
X91374997Y-58987081D01*
X91413896Y-59007873D01*
X91456105Y-59020677D01*
X91500000Y-59025000D01*
X106000000Y-59025000D01*
X106043895Y-59020677D01*
X106086104Y-59007873D01*
X106125003Y-58987081D01*
X106159099Y-58959099D01*
X106187081Y-58925003D01*
X106207873Y-58886104D01*
X106220677Y-58843895D01*
X106225000Y-58800000D01*
X106225000Y-41725050D01*
X106401333Y-41725050D01*
X106432523Y-41750647D01*
G36*
X93734751Y-70951319D02*
G01*
X93695176Y-71046863D01*
X93675000Y-71148292D01*
X93675000Y-71251708D01*
X93695176Y-71353137D01*
X93734751Y-71448681D01*
X93792206Y-71534668D01*
X93865332Y-71607794D01*
X93951319Y-71665249D01*
X94046863Y-71704824D01*
X94148292Y-71725000D01*
X94251708Y-71725000D01*
X94292602Y-71716865D01*
X94677450Y-72101714D01*
X94686842Y-72113158D01*
X94698285Y-72122549D01*
X94732522Y-72150647D01*
X94737181Y-72153137D01*
X94784640Y-72178504D01*
X94841190Y-72195659D01*
X94870043Y-72198501D01*
X94834751Y-72251319D01*
X94795176Y-72346863D01*
X94775000Y-72448292D01*
X94775000Y-72551708D01*
X94795176Y-72653137D01*
X94834751Y-72748681D01*
X94892206Y-72834668D01*
X94965332Y-72907794D01*
X95000000Y-72930959D01*
X95000001Y-77285267D01*
X94998550Y-77300000D01*
X95004342Y-77358810D01*
X95021497Y-77415360D01*
X95049353Y-77467477D01*
X95077451Y-77501714D01*
X95086843Y-77513158D01*
X95098286Y-77522549D01*
X97300000Y-79724264D01*
X97300000Y-80528562D01*
X97277532Y-80415603D01*
X97204034Y-80238164D01*
X97097332Y-80078473D01*
X96961527Y-79942668D01*
X96801836Y-79835966D01*
X96624397Y-79762468D01*
X96436029Y-79725000D01*
X96243971Y-79725000D01*
X96055603Y-79762468D01*
X95878164Y-79835966D01*
X95718473Y-79942668D01*
X95582668Y-80078473D01*
X95475966Y-80238164D01*
X95402468Y-80415603D01*
X95365000Y-80603971D01*
X95365000Y-80796029D01*
X95402468Y-80984397D01*
X95469503Y-81146233D01*
X94315737Y-82300000D01*
X92014733Y-82300000D01*
X92058810Y-82295659D01*
X92115360Y-82278504D01*
X92167477Y-82250647D01*
X92213158Y-82213158D01*
X92222553Y-82201710D01*
X92801715Y-81622549D01*
X92813158Y-81613158D01*
X92823956Y-81600000D01*
X92850647Y-81567478D01*
X92878503Y-81515361D01*
X92878504Y-81515360D01*
X92895659Y-81458810D01*
X92900000Y-81414733D01*
X92900000Y-81414724D01*
X92901450Y-81400001D01*
X92900000Y-81385278D01*
X92900000Y-81075007D01*
X92935966Y-81161836D01*
X93042668Y-81321527D01*
X93178473Y-81457332D01*
X93338164Y-81564034D01*
X93515603Y-81637532D01*
X93703971Y-81675000D01*
X93896029Y-81675000D01*
X94084397Y-81637532D01*
X94261836Y-81564034D01*
X94421527Y-81457332D01*
X94557332Y-81321527D01*
X94664034Y-81161836D01*
X94737532Y-80984397D01*
X94775000Y-80796029D01*
X94775000Y-80603971D01*
X94737532Y-80415603D01*
X94664034Y-80238164D01*
X94557332Y-80078473D01*
X94421527Y-79942668D01*
X94261836Y-79835966D01*
X94084397Y-79762468D01*
X93896029Y-79725000D01*
X93703971Y-79725000D01*
X93515603Y-79762468D01*
X93353766Y-79829503D01*
X93272554Y-79748291D01*
X93272550Y-79748286D01*
X92100000Y-78575737D01*
X92100000Y-71264775D01*
X92134751Y-71348673D01*
X92192206Y-71434660D01*
X92265332Y-71507786D01*
X92351319Y-71565241D01*
X92446863Y-71604816D01*
X92548292Y-71624992D01*
X92651708Y-71624992D01*
X92753137Y-71604816D01*
X92848681Y-71565241D01*
X92934668Y-71507786D01*
X93007794Y-71434660D01*
X93065249Y-71348673D01*
X93104824Y-71253129D01*
X93125000Y-71151700D01*
X93125000Y-71048284D01*
X93116865Y-71007390D01*
X93224256Y-70900000D01*
X93769041Y-70900000D01*
X93734751Y-70951319D01*
G37*
X93734751Y-70951319D02*
X93695176Y-71046863D01*
X93675000Y-71148292D01*
X93675000Y-71251708D01*
X93695176Y-71353137D01*
X93734751Y-71448681D01*
X93792206Y-71534668D01*
X93865332Y-71607794D01*
X93951319Y-71665249D01*
X94046863Y-71704824D01*
X94148292Y-71725000D01*
X94251708Y-71725000D01*
X94292602Y-71716865D01*
X94677450Y-72101714D01*
X94686842Y-72113158D01*
X94698285Y-72122549D01*
X94732522Y-72150647D01*
X94737181Y-72153137D01*
X94784640Y-72178504D01*
X94841190Y-72195659D01*
X94870043Y-72198501D01*
X94834751Y-72251319D01*
X94795176Y-72346863D01*
X94775000Y-72448292D01*
X94775000Y-72551708D01*
X94795176Y-72653137D01*
X94834751Y-72748681D01*
X94892206Y-72834668D01*
X94965332Y-72907794D01*
X95000000Y-72930959D01*
X95000001Y-77285267D01*
X94998550Y-77300000D01*
X95004342Y-77358810D01*
X95021497Y-77415360D01*
X95049353Y-77467477D01*
X95077451Y-77501714D01*
X95086843Y-77513158D01*
X95098286Y-77522549D01*
X97300000Y-79724264D01*
X97300000Y-80528562D01*
X97277532Y-80415603D01*
X97204034Y-80238164D01*
X97097332Y-80078473D01*
X96961527Y-79942668D01*
X96801836Y-79835966D01*
X96624397Y-79762468D01*
X96436029Y-79725000D01*
X96243971Y-79725000D01*
X96055603Y-79762468D01*
X95878164Y-79835966D01*
X95718473Y-79942668D01*
X95582668Y-80078473D01*
X95475966Y-80238164D01*
X95402468Y-80415603D01*
X95365000Y-80603971D01*
X95365000Y-80796029D01*
X95402468Y-80984397D01*
X95469503Y-81146233D01*
X94315737Y-82300000D01*
X92014733Y-82300000D01*
X92058810Y-82295659D01*
X92115360Y-82278504D01*
X92167477Y-82250647D01*
X92213158Y-82213158D01*
X92222553Y-82201710D01*
X92801715Y-81622549D01*
X92813158Y-81613158D01*
X92823956Y-81600000D01*
X92850647Y-81567478D01*
X92878503Y-81515361D01*
X92878504Y-81515360D01*
X92895659Y-81458810D01*
X92900000Y-81414733D01*
X92900000Y-81414724D01*
X92901450Y-81400001D01*
X92900000Y-81385278D01*
X92900000Y-81075007D01*
X92935966Y-81161836D01*
X93042668Y-81321527D01*
X93178473Y-81457332D01*
X93338164Y-81564034D01*
X93515603Y-81637532D01*
X93703971Y-81675000D01*
X93896029Y-81675000D01*
X94084397Y-81637532D01*
X94261836Y-81564034D01*
X94421527Y-81457332D01*
X94557332Y-81321527D01*
X94664034Y-81161836D01*
X94737532Y-80984397D01*
X94775000Y-80796029D01*
X94775000Y-80603971D01*
X94737532Y-80415603D01*
X94664034Y-80238164D01*
X94557332Y-80078473D01*
X94421527Y-79942668D01*
X94261836Y-79835966D01*
X94084397Y-79762468D01*
X93896029Y-79725000D01*
X93703971Y-79725000D01*
X93515603Y-79762468D01*
X93353766Y-79829503D01*
X93272554Y-79748291D01*
X93272550Y-79748286D01*
X92100000Y-78575737D01*
X92100000Y-71264775D01*
X92134751Y-71348673D01*
X92192206Y-71434660D01*
X92265332Y-71507786D01*
X92351319Y-71565241D01*
X92446863Y-71604816D01*
X92548292Y-71624992D01*
X92651708Y-71624992D01*
X92753137Y-71604816D01*
X92848681Y-71565241D01*
X92934668Y-71507786D01*
X93007794Y-71434660D01*
X93065249Y-71348673D01*
X93104824Y-71253129D01*
X93125000Y-71151700D01*
X93125000Y-71048284D01*
X93116865Y-71007390D01*
X93224256Y-70900000D01*
X93769041Y-70900000D01*
X93734751Y-70951319D01*
%TD*%
M02*
