%TF.GenerationSoftware,KiCad,Pcbnew,(5.1.5)-3*%
%TF.CreationDate,2020-05-07T11:23:43+02:00*%
%TF.ProjectId,loeti,6c6f6574-692e-46b6-9963-61645f706362,rev?*%
%TF.SameCoordinates,Original*%
%TF.FileFunction,Soldermask,Bot*%
%TF.FilePolarity,Negative*%
%FSLAX46Y46*%
G04 Gerber Fmt 4.6, Leading zero omitted, Abs format (unit mm)*
G04 Created by KiCad (PCBNEW (5.1.5)-3) date 2020-05-07 11:23:43*
%MOMM*%
%LPD*%
G04 APERTURE LIST*
%ADD10C,0.150000*%
%ADD11C,1.500000*%
%ADD12R,1.500000X1.500000*%
%ADD13O,1.000000X1.000000*%
%ADD14R,1.000000X1.000000*%
%ADD15C,0.100000*%
%ADD16R,1.600000X1.600000*%
%ADD17C,1.600000*%
%ADD18R,2.000000X2.000000*%
%ADD19R,4.000000X4.000000*%
%ADD20O,1.000000X2.400000*%
%ADD21O,1.000000X2.550000*%
G04 APERTURE END LIST*
D10*
X70585714Y-81600000D02*
X70585714Y-81980952D01*
X71252380Y-81742857D02*
X70395238Y-81742857D01*
X70300000Y-81790476D01*
X70252380Y-81885714D01*
X70252380Y-81980952D01*
X71252380Y-82742857D02*
X70728571Y-82742857D01*
X70633333Y-82695238D01*
X70585714Y-82600000D01*
X70585714Y-82409523D01*
X70633333Y-82314285D01*
X71204761Y-82742857D02*
X71252380Y-82647619D01*
X71252380Y-82409523D01*
X71204761Y-82314285D01*
X71109523Y-82266666D01*
X71014285Y-82266666D01*
X70919047Y-82314285D01*
X70871428Y-82409523D01*
X70871428Y-82647619D01*
X70823809Y-82742857D01*
X71252380Y-83219047D02*
X70585714Y-83219047D01*
X70252380Y-83219047D02*
X70300000Y-83171428D01*
X70347619Y-83219047D01*
X70300000Y-83266666D01*
X70252380Y-83219047D01*
X70347619Y-83219047D01*
X71252380Y-83695238D02*
X70585714Y-83695238D01*
X70776190Y-83695238D02*
X70680952Y-83742857D01*
X70633333Y-83790476D01*
X70585714Y-83885714D01*
X70585714Y-83980952D01*
X70585714Y-84219047D02*
X71252380Y-84457142D01*
X70585714Y-84695238D02*
X71252380Y-84457142D01*
X71490476Y-84361904D01*
X71538095Y-84314285D01*
X71585714Y-84219047D01*
X71204761Y-86219047D02*
X71252380Y-86123809D01*
X71252380Y-85933333D01*
X71204761Y-85838095D01*
X71109523Y-85790476D01*
X70728571Y-85790476D01*
X70633333Y-85838095D01*
X70585714Y-85933333D01*
X70585714Y-86123809D01*
X70633333Y-86219047D01*
X70728571Y-86266666D01*
X70823809Y-86266666D01*
X70919047Y-85790476D01*
X71252380Y-87123809D02*
X70252380Y-87123809D01*
X71204761Y-87123809D02*
X71252380Y-87028571D01*
X71252380Y-86838095D01*
X71204761Y-86742857D01*
X71157142Y-86695238D01*
X71061904Y-86647619D01*
X70776190Y-86647619D01*
X70680952Y-86695238D01*
X70633333Y-86742857D01*
X70585714Y-86838095D01*
X70585714Y-87028571D01*
X70633333Y-87123809D01*
X71252380Y-87600000D02*
X70585714Y-87600000D01*
X70252380Y-87600000D02*
X70300000Y-87552380D01*
X70347619Y-87600000D01*
X70300000Y-87647619D01*
X70252380Y-87600000D01*
X70347619Y-87600000D01*
X70585714Y-87933333D02*
X70585714Y-88314285D01*
X70252380Y-88076190D02*
X71109523Y-88076190D01*
X71204761Y-88123809D01*
X71252380Y-88219047D01*
X71252380Y-88314285D01*
X71252380Y-88647619D02*
X70585714Y-88647619D01*
X70252380Y-88647619D02*
X70300000Y-88600000D01*
X70347619Y-88647619D01*
X70300000Y-88695238D01*
X70252380Y-88647619D01*
X70347619Y-88647619D01*
X71252380Y-89266666D02*
X71204761Y-89171428D01*
X71157142Y-89123809D01*
X71061904Y-89076190D01*
X70776190Y-89076190D01*
X70680952Y-89123809D01*
X70633333Y-89171428D01*
X70585714Y-89266666D01*
X70585714Y-89409523D01*
X70633333Y-89504761D01*
X70680952Y-89552380D01*
X70776190Y-89600000D01*
X71061904Y-89600000D01*
X71157142Y-89552380D01*
X71204761Y-89504761D01*
X71252380Y-89409523D01*
X71252380Y-89266666D01*
X70585714Y-90028571D02*
X71252380Y-90028571D01*
X70680952Y-90028571D02*
X70633333Y-90076190D01*
X70585714Y-90171428D01*
X70585714Y-90314285D01*
X70633333Y-90409523D01*
X70728571Y-90457142D01*
X71252380Y-90457142D01*
D11*
%TO.C,U4*%
X98880000Y-106700000D03*
X81100000Y-106700000D03*
X78560000Y-106700000D03*
X78560000Y-81300000D03*
X81100000Y-81300000D03*
X83640000Y-81300000D03*
X86180000Y-81300000D03*
X88720000Y-81300000D03*
X91260000Y-81300000D03*
X93800000Y-81300000D03*
X96340000Y-81300000D03*
X98880000Y-81300000D03*
X101420000Y-81300000D03*
D12*
X101420000Y-106700000D03*
%TD*%
D13*
%TO.C,J2*%
X108330000Y-58270000D03*
X109600000Y-58270000D03*
X108330000Y-59540000D03*
X109600000Y-59540000D03*
X108330000Y-60810000D03*
X109600000Y-60810000D03*
X108330000Y-62080000D03*
X109600000Y-62080000D03*
X108330000Y-63350000D03*
X109600000Y-63350000D03*
X108330000Y-64620000D03*
X109600000Y-64620000D03*
X108330000Y-65890000D03*
D14*
X109600000Y-65890000D03*
%TD*%
D15*
%TO.C,SW2*%
G36*
X93549009Y-117002408D02*
G01*
X93597545Y-117009607D01*
X93645142Y-117021530D01*
X93691342Y-117038060D01*
X93735698Y-117059039D01*
X93777785Y-117084265D01*
X93817197Y-117113495D01*
X93853553Y-117146447D01*
X93886505Y-117182803D01*
X93915735Y-117222215D01*
X93940961Y-117264302D01*
X93961940Y-117308658D01*
X93978470Y-117354858D01*
X93990393Y-117402455D01*
X93997592Y-117450991D01*
X94000000Y-117500000D01*
X94000000Y-118500000D01*
X93997592Y-118549009D01*
X93990393Y-118597545D01*
X93978470Y-118645142D01*
X93961940Y-118691342D01*
X93940961Y-118735698D01*
X93915735Y-118777785D01*
X93886505Y-118817197D01*
X93853553Y-118853553D01*
X93817197Y-118886505D01*
X93777785Y-118915735D01*
X93735698Y-118940961D01*
X93691342Y-118961940D01*
X93645142Y-118978470D01*
X93597545Y-118990393D01*
X93549009Y-118997592D01*
X93500000Y-119000000D01*
X91500000Y-119000000D01*
X91450991Y-118997592D01*
X91402455Y-118990393D01*
X91354858Y-118978470D01*
X91308658Y-118961940D01*
X91264302Y-118940961D01*
X91222215Y-118915735D01*
X91182803Y-118886505D01*
X91146447Y-118853553D01*
X91113495Y-118817197D01*
X91084265Y-118777785D01*
X91059039Y-118735698D01*
X91038060Y-118691342D01*
X91021530Y-118645142D01*
X91009607Y-118597545D01*
X91002408Y-118549009D01*
X91000000Y-118500000D01*
X91000000Y-117500000D01*
X91002408Y-117450991D01*
X91009607Y-117402455D01*
X91021530Y-117354858D01*
X91038060Y-117308658D01*
X91059039Y-117264302D01*
X91084265Y-117222215D01*
X91113495Y-117182803D01*
X91146447Y-117146447D01*
X91182803Y-117113495D01*
X91222215Y-117084265D01*
X91264302Y-117059039D01*
X91308658Y-117038060D01*
X91354858Y-117021530D01*
X91402455Y-117009607D01*
X91450991Y-117002408D01*
X91500000Y-117000000D01*
X93500000Y-117000000D01*
X93549009Y-117002408D01*
G37*
G36*
X100549009Y-117002408D02*
G01*
X100597545Y-117009607D01*
X100645142Y-117021530D01*
X100691342Y-117038060D01*
X100735698Y-117059039D01*
X100777785Y-117084265D01*
X100817197Y-117113495D01*
X100853553Y-117146447D01*
X100886505Y-117182803D01*
X100915735Y-117222215D01*
X100940961Y-117264302D01*
X100961940Y-117308658D01*
X100978470Y-117354858D01*
X100990393Y-117402455D01*
X100997592Y-117450991D01*
X101000000Y-117500000D01*
X101000000Y-118500000D01*
X100997592Y-118549009D01*
X100990393Y-118597545D01*
X100978470Y-118645142D01*
X100961940Y-118691342D01*
X100940961Y-118735698D01*
X100915735Y-118777785D01*
X100886505Y-118817197D01*
X100853553Y-118853553D01*
X100817197Y-118886505D01*
X100777785Y-118915735D01*
X100735698Y-118940961D01*
X100691342Y-118961940D01*
X100645142Y-118978470D01*
X100597545Y-118990393D01*
X100549009Y-118997592D01*
X100500000Y-119000000D01*
X98500000Y-119000000D01*
X98450991Y-118997592D01*
X98402455Y-118990393D01*
X98354858Y-118978470D01*
X98308658Y-118961940D01*
X98264302Y-118940961D01*
X98222215Y-118915735D01*
X98182803Y-118886505D01*
X98146447Y-118853553D01*
X98113495Y-118817197D01*
X98084265Y-118777785D01*
X98059039Y-118735698D01*
X98038060Y-118691342D01*
X98021530Y-118645142D01*
X98009607Y-118597545D01*
X98002408Y-118549009D01*
X98000000Y-118500000D01*
X98000000Y-117500000D01*
X98002408Y-117450991D01*
X98009607Y-117402455D01*
X98021530Y-117354858D01*
X98038060Y-117308658D01*
X98059039Y-117264302D01*
X98084265Y-117222215D01*
X98113495Y-117182803D01*
X98146447Y-117146447D01*
X98182803Y-117113495D01*
X98222215Y-117084265D01*
X98264302Y-117059039D01*
X98308658Y-117038060D01*
X98354858Y-117021530D01*
X98402455Y-117009607D01*
X98450991Y-117002408D01*
X98500000Y-117000000D01*
X100500000Y-117000000D01*
X100549009Y-117002408D01*
G37*
%TD*%
%TO.C,SW3*%
G36*
X88549009Y-117002408D02*
G01*
X88597545Y-117009607D01*
X88645142Y-117021530D01*
X88691342Y-117038060D01*
X88735698Y-117059039D01*
X88777785Y-117084265D01*
X88817197Y-117113495D01*
X88853553Y-117146447D01*
X88886505Y-117182803D01*
X88915735Y-117222215D01*
X88940961Y-117264302D01*
X88961940Y-117308658D01*
X88978470Y-117354858D01*
X88990393Y-117402455D01*
X88997592Y-117450991D01*
X89000000Y-117500000D01*
X89000000Y-118500000D01*
X88997592Y-118549009D01*
X88990393Y-118597545D01*
X88978470Y-118645142D01*
X88961940Y-118691342D01*
X88940961Y-118735698D01*
X88915735Y-118777785D01*
X88886505Y-118817197D01*
X88853553Y-118853553D01*
X88817197Y-118886505D01*
X88777785Y-118915735D01*
X88735698Y-118940961D01*
X88691342Y-118961940D01*
X88645142Y-118978470D01*
X88597545Y-118990393D01*
X88549009Y-118997592D01*
X88500000Y-119000000D01*
X86500000Y-119000000D01*
X86450991Y-118997592D01*
X86402455Y-118990393D01*
X86354858Y-118978470D01*
X86308658Y-118961940D01*
X86264302Y-118940961D01*
X86222215Y-118915735D01*
X86182803Y-118886505D01*
X86146447Y-118853553D01*
X86113495Y-118817197D01*
X86084265Y-118777785D01*
X86059039Y-118735698D01*
X86038060Y-118691342D01*
X86021530Y-118645142D01*
X86009607Y-118597545D01*
X86002408Y-118549009D01*
X86000000Y-118500000D01*
X86000000Y-117500000D01*
X86002408Y-117450991D01*
X86009607Y-117402455D01*
X86021530Y-117354858D01*
X86038060Y-117308658D01*
X86059039Y-117264302D01*
X86084265Y-117222215D01*
X86113495Y-117182803D01*
X86146447Y-117146447D01*
X86182803Y-117113495D01*
X86222215Y-117084265D01*
X86264302Y-117059039D01*
X86308658Y-117038060D01*
X86354858Y-117021530D01*
X86402455Y-117009607D01*
X86450991Y-117002408D01*
X86500000Y-117000000D01*
X88500000Y-117000000D01*
X88549009Y-117002408D01*
G37*
G36*
X81549009Y-117002408D02*
G01*
X81597545Y-117009607D01*
X81645142Y-117021530D01*
X81691342Y-117038060D01*
X81735698Y-117059039D01*
X81777785Y-117084265D01*
X81817197Y-117113495D01*
X81853553Y-117146447D01*
X81886505Y-117182803D01*
X81915735Y-117222215D01*
X81940961Y-117264302D01*
X81961940Y-117308658D01*
X81978470Y-117354858D01*
X81990393Y-117402455D01*
X81997592Y-117450991D01*
X82000000Y-117500000D01*
X82000000Y-118500000D01*
X81997592Y-118549009D01*
X81990393Y-118597545D01*
X81978470Y-118645142D01*
X81961940Y-118691342D01*
X81940961Y-118735698D01*
X81915735Y-118777785D01*
X81886505Y-118817197D01*
X81853553Y-118853553D01*
X81817197Y-118886505D01*
X81777785Y-118915735D01*
X81735698Y-118940961D01*
X81691342Y-118961940D01*
X81645142Y-118978470D01*
X81597545Y-118990393D01*
X81549009Y-118997592D01*
X81500000Y-119000000D01*
X79500000Y-119000000D01*
X79450991Y-118997592D01*
X79402455Y-118990393D01*
X79354858Y-118978470D01*
X79308658Y-118961940D01*
X79264302Y-118940961D01*
X79222215Y-118915735D01*
X79182803Y-118886505D01*
X79146447Y-118853553D01*
X79113495Y-118817197D01*
X79084265Y-118777785D01*
X79059039Y-118735698D01*
X79038060Y-118691342D01*
X79021530Y-118645142D01*
X79009607Y-118597545D01*
X79002408Y-118549009D01*
X79000000Y-118500000D01*
X79000000Y-117500000D01*
X79002408Y-117450991D01*
X79009607Y-117402455D01*
X79021530Y-117354858D01*
X79038060Y-117308658D01*
X79059039Y-117264302D01*
X79084265Y-117222215D01*
X79113495Y-117182803D01*
X79146447Y-117146447D01*
X79182803Y-117113495D01*
X79222215Y-117084265D01*
X79264302Y-117059039D01*
X79308658Y-117038060D01*
X79354858Y-117021530D01*
X79402455Y-117009607D01*
X79450991Y-117002408D01*
X79500000Y-117000000D01*
X81500000Y-117000000D01*
X81549009Y-117002408D01*
G37*
%TD*%
D16*
%TO.C,C17*%
X70250000Y-55250000D03*
D17*
X66750000Y-55250000D03*
%TD*%
D18*
%TO.C,TP6*%
X114950000Y-68950000D03*
%TD*%
%TO.C,TP5*%
X114950000Y-73250000D03*
%TD*%
%TO.C,TP4*%
X115000000Y-77500000D03*
%TD*%
D19*
%TO.C,TP3*%
X113300000Y-105000000D03*
%TD*%
%TO.C,TP2*%
X113300000Y-99500000D03*
%TD*%
D20*
%TO.C,J1*%
X67000000Y-44120000D03*
D21*
X67000000Y-47350000D03*
X77800000Y-47350000D03*
D20*
X77800000Y-44120000D03*
%TD*%
M02*
