%TF.GenerationSoftware,KiCad,Pcbnew,(5.1.5)-3*%
%TF.CreationDate,2020-06-04T21:45:27+02:00*%
%TF.ProjectId,loeti,6c6f6574-692e-46b6-9963-61645f706362,rev?*%
%TF.SameCoordinates,Original*%
%TF.FileFunction,Copper,L3,Inr*%
%TF.FilePolarity,Positive*%
%FSLAX46Y46*%
G04 Gerber Fmt 4.6, Leading zero omitted, Abs format (unit mm)*
G04 Created by KiCad (PCBNEW (5.1.5)-3) date 2020-06-04 21:45:27*
%MOMM*%
%LPD*%
G04 APERTURE LIST*
%TA.AperFunction,ViaPad*%
%ADD10O,1.000000X2.400000*%
%TD*%
%TA.AperFunction,ViaPad*%
%ADD11O,1.000000X2.550000*%
%TD*%
%TA.AperFunction,ViaPad*%
%ADD12O,1.600000X3.200000*%
%TD*%
%TA.AperFunction,ViaPad*%
%ADD13O,1.000000X1.000000*%
%TD*%
%TA.AperFunction,ViaPad*%
%ADD14R,1.000000X1.000000*%
%TD*%
%TA.AperFunction,ViaPad*%
%ADD15C,1.500000*%
%TD*%
%TA.AperFunction,ViaPad*%
%ADD16R,1.500000X1.500000*%
%TD*%
%TA.AperFunction,ViaPad*%
%ADD17R,1.600000X1.600000*%
%TD*%
%TA.AperFunction,ViaPad*%
%ADD18C,1.600000*%
%TD*%
%TA.AperFunction,ViaPad*%
%ADD19R,4.000000X4.000000*%
%TD*%
%TA.AperFunction,ViaPad*%
%ADD20C,0.600000*%
%TD*%
%TA.AperFunction,ViaPad*%
%ADD21C,1.000000*%
%TD*%
%TA.AperFunction,Conductor*%
%ADD22C,0.150000*%
%TD*%
G04 APERTURE END LIST*
D10*
%TO.N,HEATER-*%
%TO.C,J1*%
X97600000Y-44120000D03*
D11*
X97600000Y-47350000D03*
X108400000Y-47350000D03*
D10*
X108400000Y-44120000D03*
%TD*%
D12*
%TO.N,HEATER-*%
%TO.C,J3*%
X72145000Y-43700000D03*
X80595000Y-50500000D03*
X80595000Y-43700000D03*
X72145000Y-50500000D03*
%TD*%
D13*
%TO.N,VCP_TX*%
%TO.C,J2*%
X71330000Y-64080000D03*
%TO.N,VCP_RX*%
X72600000Y-64080000D03*
%TO.N,NRST*%
X71330000Y-65350000D03*
%TO.N,HEATER-*%
X72600000Y-65350000D03*
%TO.N,N/C*%
X71330000Y-66620000D03*
X72600000Y-66620000D03*
X71330000Y-67890000D03*
%TO.N,HEATER-*%
X72600000Y-67890000D03*
%TO.N,SWCLK*%
X71330000Y-69160000D03*
%TO.N,HEATER-*%
X72600000Y-69160000D03*
%TO.N,SWDIO*%
X71330000Y-70430000D03*
%TO.N,+3V3*%
X72600000Y-70430000D03*
%TO.N,N/C*%
X71330000Y-71700000D03*
D14*
X72600000Y-71700000D03*
%TD*%
D15*
%TO.N,N/C*%
%TO.C,U4*%
X98880000Y-106700000D03*
X81100000Y-106700000D03*
X78560000Y-106700000D03*
%TO.N,Net-(C10-Pad1)*%
X78560000Y-81300000D03*
%TO.N,+3V3*%
X81100000Y-81300000D03*
X83640000Y-81300000D03*
%TO.N,HEATER-*%
X86180000Y-81300000D03*
%TO.N,SPI1_MISO*%
X88720000Y-81300000D03*
%TO.N,SPI1_MOSI*%
X91260000Y-81300000D03*
%TO.N,SPI1_SCK*%
X93800000Y-81300000D03*
%TO.N,SPI1_NSS2*%
X96340000Y-81300000D03*
%TO.N,HEATER-*%
X98880000Y-81300000D03*
%TO.N,LCD_NRST*%
X101420000Y-81300000D03*
D16*
%TO.N,N/C*%
X101420000Y-106700000D03*
%TD*%
D17*
%TO.N,SHUNT+*%
%TO.C,C17*%
X112306236Y-53623178D03*
D18*
%TO.N,HEATER-*%
X115806236Y-53623178D03*
%TD*%
D19*
%TO.N,+3V3*%
%TO.C,TP3*%
X113300000Y-105000000D03*
%TD*%
%TO.N,HEATER-*%
%TO.C,TP2*%
X113300000Y-99500000D03*
%TD*%
D20*
%TO.N,+3V3*%
X64600000Y-46100000D03*
X69800000Y-52500000D03*
X83600000Y-67900000D03*
X68800000Y-74700000D03*
X107800000Y-65500000D03*
X97800000Y-61100000D03*
X80000000Y-74500000D03*
X70200000Y-44300000D03*
X84400000Y-63700000D03*
X94000000Y-74900000D03*
X94000000Y-76700000D03*
X95400000Y-67700000D03*
X80000000Y-69100000D03*
D21*
X114000000Y-42300000D03*
X112800000Y-42300000D03*
D20*
X83400000Y-71300000D03*
X94400000Y-73500000D03*
X95000000Y-48900000D03*
X93400000Y-47900000D03*
X90800000Y-79700000D03*
%TO.N,CC2*%
X102800000Y-49100000D03*
X101878300Y-57278300D03*
%TO.N,CC1*%
X103600000Y-49100000D03*
X103178300Y-57278300D03*
%TO.N,PWM*%
X92000000Y-61900000D03*
X92000000Y-72700000D03*
%TO.N,HEATER-*%
X80000000Y-72500000D03*
X70200000Y-59500000D03*
X83200000Y-59500000D03*
X63400000Y-44300000D03*
X108600000Y-62700000D03*
X108600000Y-60900000D03*
X108600000Y-59100000D03*
X102550000Y-57800000D03*
X85200000Y-61500000D03*
X87000000Y-61500000D03*
X97800000Y-76700000D03*
X97800000Y-74900000D03*
X99400000Y-67700000D03*
X101400000Y-61100000D03*
D21*
X88400000Y-64100000D03*
X86000000Y-57300000D03*
X116800000Y-46500000D03*
X116800000Y-47700000D03*
X116800000Y-49500000D03*
X116800000Y-51300000D03*
X83600000Y-43900000D03*
D20*
X65600000Y-47900000D03*
X76600000Y-74700000D03*
X75600000Y-79300000D03*
X84200000Y-79300000D03*
X90800000Y-46700000D03*
X92400000Y-43700000D03*
X99800000Y-57700000D03*
X88400000Y-79700000D03*
X94200000Y-62100000D03*
%TO.N,I2C1_SCL*%
X97800000Y-59500000D03*
X92600000Y-65700000D03*
%TO.N,I2C1_SDA*%
X97800000Y-62700000D03*
X92600000Y-64500000D03*
%TO.N,PD_ALERT_INT*%
X105800000Y-65500000D03*
X95600000Y-70300000D03*
%TO.N,SPI1_MOSI*%
X67600000Y-43300000D03*
X89400000Y-68300000D03*
%TO.N,SPI1_MISO*%
X67600000Y-44100000D03*
X90000000Y-67700000D03*
%TO.N,SPI1_SCK*%
X66000000Y-43300000D03*
X88800000Y-68900000D03*
%TO.N,SPI1_NSS1*%
X66000000Y-44100000D03*
X88200000Y-69500000D03*
%TO.N,NRST*%
X73600000Y-76700000D03*
X82400000Y-71300000D03*
%TO.N,SWCLK*%
X86200000Y-70100000D03*
%TO.N,SWDIO*%
X69800000Y-70500000D03*
X86800000Y-70700000D03*
%TO.N,SPI1_NSS2*%
X94400000Y-69500000D03*
%TO.N,ADC_IN2*%
X94000000Y-43700000D03*
X81800000Y-61100000D03*
%TO.N,PD_RST*%
X100400000Y-60100000D03*
X91000000Y-73500000D03*
%TO.N,Net-(SW2-Pad1)*%
X97800000Y-116700000D03*
X87000000Y-72700000D03*
%TO.N,Net-(SW3-Pad1)*%
X82400000Y-116700000D03*
X86400000Y-73300000D03*
%TO.N,ADC_IN7*%
X94200000Y-60300000D03*
X90600000Y-72700000D03*
%TO.N,CUR_RESET*%
X91400000Y-49700000D03*
X83000000Y-61100000D03*
%TO.N,CUR_NALERT*%
X92200000Y-49700000D03*
X82400000Y-61700000D03*
%TO.N,VCP_TX*%
X88200000Y-71300000D03*
%TO.N,VCP_RX*%
X87600000Y-72100000D03*
%TD*%
D22*
%TO.N,CC2*%
X102800000Y-56356600D02*
X102800000Y-49100000D01*
X101878300Y-57278300D02*
X102800000Y-56356600D01*
%TO.N,CC1*%
X103600000Y-56856600D02*
X103600000Y-49100000D01*
X103178300Y-57278300D02*
X103600000Y-56856600D01*
%TO.N,PWM*%
X92000000Y-72700000D02*
X92000000Y-61900000D01*
%TO.N,I2C1_SCL*%
X98400000Y-62900000D02*
X98400000Y-60100000D01*
X96000000Y-65300000D02*
X98400000Y-62900000D01*
X92600000Y-65700000D02*
X93000000Y-65300000D01*
X98400000Y-60100000D02*
X97800000Y-59500000D01*
X93000000Y-65300000D02*
X96000000Y-65300000D01*
%TO.N,I2C1_SDA*%
X93000000Y-64900000D02*
X95600000Y-64900000D01*
X92600000Y-64500000D02*
X93000000Y-64900000D01*
X95600000Y-64900000D02*
X97800000Y-62700000D01*
%TO.N,PD_ALERT_INT*%
X103200000Y-70300000D02*
X105800000Y-67700000D01*
X105800000Y-67700000D02*
X105800000Y-65500000D01*
X95600000Y-70300000D02*
X103200000Y-70300000D01*
%TO.N,SPI1_MOSI*%
X89400000Y-79440000D02*
X91260000Y-81300000D01*
X89400000Y-68300000D02*
X89400000Y-79440000D01*
X67000000Y-52500000D02*
X67000000Y-43900000D01*
X67000000Y-43900000D02*
X67600000Y-43300000D01*
X79200000Y-64700000D02*
X67000000Y-52500000D01*
X89400000Y-68300000D02*
X85800000Y-64700000D01*
X85800000Y-64700000D02*
X79200000Y-64700000D01*
%TO.N,SPI1_MISO*%
X90000000Y-78100000D02*
X92300000Y-80400000D01*
X89720000Y-82300000D02*
X88720000Y-81300000D01*
X90000000Y-67700000D02*
X90000000Y-78100000D01*
X92300000Y-81700000D02*
X91700000Y-82300000D01*
X92300000Y-80400000D02*
X92300000Y-81700000D01*
X91700000Y-82300000D02*
X89720000Y-82300000D01*
X67400000Y-52300000D02*
X67400000Y-44300000D01*
X67400000Y-44300000D02*
X67600000Y-44100000D01*
X79400000Y-64300000D02*
X67400000Y-52300000D01*
X90000000Y-67700000D02*
X86600000Y-64300000D01*
X86600000Y-64300000D02*
X79400000Y-64300000D01*
%TO.N,SPI1_SCK*%
X66600000Y-43900000D02*
X66000000Y-43300000D01*
X66600000Y-52700000D02*
X66600000Y-43900000D01*
X79000000Y-65100000D02*
X66600000Y-52700000D01*
X88800000Y-68900000D02*
X85000000Y-65100000D01*
X85000000Y-65100000D02*
X79000000Y-65100000D01*
X92400000Y-82700000D02*
X93800000Y-81300000D01*
X88800000Y-68900000D02*
X88800000Y-78300000D01*
X87700000Y-79400000D02*
X87700000Y-82200000D01*
X87700000Y-82200000D02*
X88200000Y-82700000D01*
X88800000Y-78300000D02*
X87700000Y-79400000D01*
X88200000Y-82700000D02*
X92400000Y-82700000D01*
%TO.N,SPI1_NSS1*%
X66200000Y-44300000D02*
X66000000Y-44100000D01*
X66200000Y-52900000D02*
X66200000Y-44300000D01*
X78800000Y-65500000D02*
X66200000Y-52900000D01*
X88200000Y-69500000D02*
X84200000Y-65500000D01*
X84200000Y-65500000D02*
X78800000Y-65500000D01*
%TO.N,NRST*%
X73600000Y-74700000D02*
X73600000Y-76700000D01*
X77000000Y-71300000D02*
X73600000Y-74700000D01*
X82400000Y-71300000D02*
X77000000Y-71300000D01*
%TO.N,SWCLK*%
X70400000Y-70090000D02*
X71330000Y-69160000D01*
X70400000Y-72100000D02*
X70400000Y-70090000D01*
X86200000Y-70100000D02*
X77000000Y-70100000D01*
X77000000Y-70100000D02*
X74400000Y-72700000D01*
X74400000Y-72700000D02*
X71000000Y-72700000D01*
X71000000Y-72700000D02*
X70400000Y-72100000D01*
%TO.N,SWDIO*%
X69800000Y-72100000D02*
X69800000Y-70500000D01*
X70800000Y-73100000D02*
X69800000Y-72100000D01*
X74600000Y-73100000D02*
X70800000Y-73100000D01*
X77000000Y-70700000D02*
X74600000Y-73100000D01*
X86800000Y-70700000D02*
X77000000Y-70700000D01*
%TO.N,SPI1_NSS2*%
X95000000Y-79960000D02*
X96340000Y-81300000D01*
X94400000Y-69500000D02*
X95000000Y-70100000D01*
X95000000Y-70100000D02*
X95000000Y-79960000D01*
%TO.N,ADC_IN2*%
X94000000Y-45500000D02*
X90800000Y-48700000D01*
X94000000Y-43700000D02*
X94000000Y-45500000D01*
X90800000Y-53700000D02*
X84000000Y-60500000D01*
X90800000Y-48700000D02*
X90800000Y-53700000D01*
X82400000Y-60500000D02*
X81800000Y-61100000D01*
X84000000Y-60500000D02*
X82400000Y-60500000D01*
%TO.N,PD_RST*%
X92800000Y-69300000D02*
X100400000Y-61700000D01*
X92800000Y-72900000D02*
X92800000Y-69300000D01*
X91000000Y-73500000D02*
X92200000Y-73500000D01*
X100400000Y-61700000D02*
X100400000Y-60100000D01*
X92200000Y-73500000D02*
X92800000Y-72900000D01*
%TO.N,Net-(SW2-Pad1)*%
X87200000Y-106100000D02*
X97800000Y-116700000D01*
X87200000Y-80700000D02*
X87200000Y-106100000D01*
X87000000Y-72700000D02*
X87000000Y-80500000D01*
X87000000Y-80500000D02*
X87200000Y-80700000D01*
%TO.N,Net-(SW3-Pad1)*%
X86400000Y-73300000D02*
X85000000Y-74700000D01*
X85000000Y-74700000D02*
X85000000Y-114100000D01*
X85000000Y-114100000D02*
X82400000Y-116700000D01*
%TO.N,ADC_IN7*%
X90600000Y-72700000D02*
X91400000Y-71900000D01*
X91400000Y-61700000D02*
X92800000Y-60300000D01*
X91400000Y-71900000D02*
X91400000Y-61700000D01*
X92800000Y-60300000D02*
X94200000Y-60300000D01*
%TO.N,CUR_RESET*%
X91400000Y-53700000D02*
X91400000Y-49700000D01*
X83000000Y-61100000D02*
X84000000Y-61100000D01*
X84000000Y-61100000D02*
X91400000Y-53700000D01*
%TO.N,CUR_NALERT*%
X92200000Y-53500000D02*
X92200000Y-49700000D01*
X82400000Y-61700000D02*
X84000000Y-61700000D01*
X84000000Y-61700000D02*
X92200000Y-53500000D01*
%TO.N,VCP_TX*%
X88200000Y-70300000D02*
X83800000Y-65900000D01*
X78600000Y-65900000D02*
X76000000Y-63300000D01*
X72110000Y-63300000D02*
X71330000Y-64080000D01*
X88200000Y-71300000D02*
X88200000Y-70300000D01*
X83800000Y-65900000D02*
X78600000Y-65900000D01*
X76000000Y-63300000D02*
X72110000Y-63300000D01*
%TO.N,VCP_RX*%
X76180000Y-64080000D02*
X72600000Y-64080000D01*
X78400000Y-66300000D02*
X76180000Y-64080000D01*
X87600000Y-72100000D02*
X87600000Y-70500000D01*
X83400000Y-66300000D02*
X78400000Y-66300000D01*
X87600000Y-70500000D02*
X83400000Y-66300000D01*
%TD*%
%TO.N,HEATER-*%
G36*
X73074950Y-42370522D02*
G01*
X73024940Y-42281975D01*
X72887462Y-42122182D01*
X72721451Y-41992280D01*
X72533287Y-41897262D01*
X72337814Y-41842433D01*
X72170000Y-41894061D01*
X72170000Y-43675000D01*
X72190000Y-43675000D01*
X72190000Y-43725000D01*
X72170000Y-43725000D01*
X72170000Y-45505939D01*
X72337814Y-45557567D01*
X72533287Y-45502738D01*
X72721451Y-45407720D01*
X72887462Y-45277818D01*
X73024940Y-45118025D01*
X73074950Y-45029478D01*
X73074951Y-49170522D01*
X73024940Y-49081975D01*
X72887462Y-48922182D01*
X72721451Y-48792280D01*
X72533287Y-48697262D01*
X72337814Y-48642433D01*
X72170000Y-48694061D01*
X72170000Y-50475000D01*
X72190000Y-50475000D01*
X72190000Y-50525000D01*
X72170000Y-50525000D01*
X72170000Y-52305939D01*
X72337814Y-52357567D01*
X72533287Y-52302738D01*
X72721451Y-52207720D01*
X72887462Y-52077818D01*
X73024940Y-51918025D01*
X73074951Y-51829477D01*
X73074951Y-54511047D01*
X73076076Y-54522470D01*
X73076076Y-54529431D01*
X73076405Y-54532556D01*
X73088044Y-54636320D01*
X73092287Y-54656281D01*
X73096247Y-54676281D01*
X73097173Y-54679274D01*
X73097175Y-54679281D01*
X73097178Y-54679287D01*
X73128748Y-54778809D01*
X73136776Y-54797540D01*
X73144555Y-54816413D01*
X73146050Y-54819177D01*
X73196351Y-54910675D01*
X73207870Y-54927498D01*
X73219163Y-54944495D01*
X73221165Y-54946916D01*
X73288281Y-55026902D01*
X73302871Y-55041189D01*
X73317228Y-55055647D01*
X73319663Y-55057633D01*
X73401037Y-55123059D01*
X73418092Y-55134220D01*
X73435015Y-55145634D01*
X73437789Y-55147109D01*
X73530320Y-55195483D01*
X73549249Y-55203131D01*
X73568035Y-55211028D01*
X73571037Y-55211934D01*
X73571044Y-55211937D01*
X73571051Y-55211938D01*
X73671209Y-55241417D01*
X73691246Y-55245239D01*
X73711228Y-55249341D01*
X73714355Y-55249648D01*
X73818339Y-55259111D01*
X73838735Y-55258968D01*
X73859132Y-55259111D01*
X73862259Y-55258804D01*
X73862261Y-55258804D01*
X73966101Y-55247890D01*
X73986102Y-55243785D01*
X74006118Y-55239966D01*
X74009118Y-55239060D01*
X74009125Y-55239059D01*
X74009131Y-55239056D01*
X74108871Y-55208182D01*
X74127677Y-55200277D01*
X74146587Y-55192637D01*
X74149356Y-55191164D01*
X74149360Y-55191162D01*
X74149363Y-55191160D01*
X74241208Y-55141499D01*
X74258081Y-55130118D01*
X74275186Y-55118925D01*
X74277621Y-55116939D01*
X74358073Y-55050382D01*
X74372428Y-55035926D01*
X74387018Y-55021639D01*
X74389021Y-55019218D01*
X74455014Y-54938303D01*
X74466307Y-54921306D01*
X74477826Y-54904483D01*
X74479317Y-54901724D01*
X74479320Y-54901720D01*
X74479322Y-54901716D01*
X74528339Y-54809528D01*
X74536107Y-54790682D01*
X74544148Y-54771921D01*
X74545077Y-54768919D01*
X74558322Y-54725050D01*
X78181695Y-54725050D01*
X78198748Y-54778809D01*
X78206776Y-54797540D01*
X78214555Y-54816413D01*
X78216050Y-54819177D01*
X78266351Y-54910675D01*
X78277870Y-54927498D01*
X78289163Y-54944495D01*
X78291165Y-54946916D01*
X78358281Y-55026902D01*
X78372871Y-55041189D01*
X78387228Y-55055647D01*
X78389663Y-55057633D01*
X78471037Y-55123059D01*
X78488092Y-55134220D01*
X78505015Y-55145634D01*
X78507789Y-55147109D01*
X78600320Y-55195483D01*
X78619249Y-55203131D01*
X78638035Y-55211028D01*
X78641037Y-55211934D01*
X78641044Y-55211937D01*
X78641051Y-55211938D01*
X78741209Y-55241417D01*
X78761246Y-55245239D01*
X78781228Y-55249341D01*
X78784355Y-55249648D01*
X78888339Y-55259111D01*
X78908735Y-55258968D01*
X78929132Y-55259111D01*
X78932259Y-55258804D01*
X78932261Y-55258804D01*
X79036101Y-55247890D01*
X79056102Y-55243785D01*
X79076118Y-55239966D01*
X79079118Y-55239060D01*
X79079125Y-55239059D01*
X79079131Y-55239056D01*
X79178871Y-55208182D01*
X79197677Y-55200277D01*
X79216587Y-55192637D01*
X79219356Y-55191164D01*
X79219360Y-55191162D01*
X79219363Y-55191160D01*
X79311208Y-55141499D01*
X79328081Y-55130118D01*
X79345186Y-55118925D01*
X79347621Y-55116939D01*
X79428073Y-55050382D01*
X79442428Y-55035926D01*
X79457018Y-55021639D01*
X79459021Y-55019218D01*
X79525014Y-54938303D01*
X79536307Y-54921306D01*
X79547826Y-54904483D01*
X79549317Y-54901724D01*
X79549320Y-54901720D01*
X79549322Y-54901716D01*
X79598339Y-54809528D01*
X79606107Y-54790682D01*
X79614148Y-54771921D01*
X79615077Y-54768919D01*
X79645256Y-54668962D01*
X79649228Y-54648901D01*
X79653458Y-54629001D01*
X79653787Y-54625876D01*
X79663976Y-54521961D01*
X79663976Y-54521952D01*
X79665050Y-54511047D01*
X79665050Y-51829479D01*
X79715060Y-51918025D01*
X79852538Y-52077818D01*
X80018549Y-52207720D01*
X80206713Y-52302738D01*
X80402186Y-52357567D01*
X80570000Y-52305939D01*
X80570000Y-50525000D01*
X80620000Y-50525000D01*
X80620000Y-52305939D01*
X80787814Y-52357567D01*
X80983287Y-52302738D01*
X81171451Y-52207720D01*
X81337462Y-52077818D01*
X81474940Y-51918025D01*
X81578603Y-51734482D01*
X81644467Y-51534242D01*
X81670000Y-51325000D01*
X81670000Y-50525000D01*
X80620000Y-50525000D01*
X80570000Y-50525000D01*
X80550000Y-50525000D01*
X80550000Y-50475000D01*
X80570000Y-50475000D01*
X80570000Y-48694061D01*
X80620000Y-48694061D01*
X80620000Y-50475000D01*
X81670000Y-50475000D01*
X81670000Y-49675000D01*
X81644467Y-49465758D01*
X81578603Y-49265518D01*
X81474940Y-49081975D01*
X81337462Y-48922182D01*
X81171451Y-48792280D01*
X80983287Y-48697262D01*
X80787814Y-48642433D01*
X80620000Y-48694061D01*
X80570000Y-48694061D01*
X80402186Y-48642433D01*
X80206713Y-48697262D01*
X80018549Y-48792280D01*
X79852538Y-48922182D01*
X79715060Y-49081975D01*
X79665050Y-49170521D01*
X79665050Y-45029479D01*
X79715060Y-45118025D01*
X79852538Y-45277818D01*
X80018549Y-45407720D01*
X80206713Y-45502738D01*
X80402186Y-45557567D01*
X80570000Y-45505939D01*
X80570000Y-43725000D01*
X80620000Y-43725000D01*
X80620000Y-45505939D01*
X80787814Y-45557567D01*
X80983287Y-45502738D01*
X81171451Y-45407720D01*
X81337462Y-45277818D01*
X81474940Y-45118025D01*
X81578603Y-44934482D01*
X81644467Y-44734242D01*
X81670000Y-44525000D01*
X81670000Y-43725000D01*
X80620000Y-43725000D01*
X80570000Y-43725000D01*
X80550000Y-43725000D01*
X80550000Y-43675000D01*
X80570000Y-43675000D01*
X80570000Y-41894061D01*
X80620000Y-41894061D01*
X80620000Y-43675000D01*
X81670000Y-43675000D01*
X81670000Y-42875000D01*
X81644467Y-42665758D01*
X81578603Y-42465518D01*
X81474940Y-42281975D01*
X81337462Y-42122182D01*
X81171451Y-41992280D01*
X80983287Y-41897262D01*
X80787814Y-41842433D01*
X80620000Y-41894061D01*
X80570000Y-41894061D01*
X80402186Y-41842433D01*
X80206713Y-41897262D01*
X80018549Y-41992280D01*
X79852538Y-42122182D01*
X79715060Y-42281975D01*
X79665050Y-42370521D01*
X79665050Y-41725050D01*
X80435740Y-41725050D01*
X80441479Y-41729760D01*
X80489253Y-41755296D01*
X80541091Y-41771020D01*
X80581497Y-41775000D01*
X95924762Y-41775000D01*
X95944130Y-41780875D01*
X95986010Y-41785000D01*
X98040001Y-41785000D01*
X98040001Y-42784934D01*
X98009779Y-42761721D01*
X97873481Y-42694426D01*
X97745866Y-42658850D01*
X97625000Y-42714193D01*
X97625000Y-44095000D01*
X97645000Y-44095000D01*
X97645000Y-44145000D01*
X97625000Y-44145000D01*
X97625000Y-45525807D01*
X97745866Y-45581150D01*
X97873481Y-45545574D01*
X98009779Y-45478279D01*
X98040000Y-45455066D01*
X98040000Y-45939934D01*
X98009779Y-45916721D01*
X97873481Y-45849426D01*
X97745866Y-45813850D01*
X97625000Y-45869193D01*
X97625000Y-47325000D01*
X97645000Y-47325000D01*
X97645000Y-47375000D01*
X97625000Y-47375000D01*
X97625000Y-48830807D01*
X97745866Y-48886150D01*
X97873481Y-48850574D01*
X98009779Y-48783279D01*
X98130329Y-48690686D01*
X98230499Y-48576354D01*
X98306439Y-48444677D01*
X98355231Y-48300715D01*
X98375000Y-48150000D01*
X98375000Y-47505000D01*
X107625000Y-47505000D01*
X107625000Y-48150000D01*
X107644769Y-48300715D01*
X107693561Y-48444677D01*
X107769501Y-48576354D01*
X107869671Y-48690686D01*
X107990221Y-48783279D01*
X108126519Y-48850574D01*
X108254134Y-48886150D01*
X108375000Y-48830807D01*
X108375000Y-47375000D01*
X108425000Y-47375000D01*
X108425000Y-48830807D01*
X108545866Y-48886150D01*
X108673481Y-48850574D01*
X108809779Y-48783279D01*
X108930329Y-48690686D01*
X109030499Y-48576354D01*
X109106439Y-48444677D01*
X109155231Y-48300715D01*
X109175000Y-48150000D01*
X109175000Y-47375000D01*
X108425000Y-47375000D01*
X108375000Y-47375000D01*
X108355000Y-47375000D01*
X108355000Y-47325000D01*
X108375000Y-47325000D01*
X108375000Y-45869193D01*
X108425000Y-45869193D01*
X108425000Y-47325000D01*
X109175000Y-47325000D01*
X109175000Y-46550000D01*
X109155231Y-46399285D01*
X109106439Y-46255323D01*
X109030499Y-46123646D01*
X108930329Y-46009314D01*
X108809779Y-45916721D01*
X108673481Y-45849426D01*
X108545866Y-45813850D01*
X108425000Y-45869193D01*
X108375000Y-45869193D01*
X108254134Y-45813850D01*
X108126519Y-45849426D01*
X107990221Y-45916721D01*
X107960000Y-45939933D01*
X107960000Y-45455067D01*
X107990221Y-45478279D01*
X108126519Y-45545574D01*
X108254134Y-45581150D01*
X108375000Y-45525807D01*
X108375000Y-44145000D01*
X108425000Y-44145000D01*
X108425000Y-45525807D01*
X108545866Y-45581150D01*
X108673481Y-45545574D01*
X108809779Y-45478279D01*
X108930329Y-45385686D01*
X109030499Y-45271354D01*
X109106439Y-45139677D01*
X109155231Y-44995715D01*
X109175000Y-44845000D01*
X109175000Y-44145000D01*
X108425000Y-44145000D01*
X108375000Y-44145000D01*
X108355000Y-44145000D01*
X108355000Y-44095000D01*
X108375000Y-44095000D01*
X108375000Y-42714193D01*
X108425000Y-42714193D01*
X108425000Y-44095000D01*
X109175000Y-44095000D01*
X109175000Y-43395000D01*
X109155231Y-43244285D01*
X109106439Y-43100323D01*
X109030499Y-42968646D01*
X108930329Y-42854314D01*
X108809779Y-42761721D01*
X108673481Y-42694426D01*
X108545866Y-42658850D01*
X108425000Y-42714193D01*
X108375000Y-42714193D01*
X108254134Y-42658850D01*
X108126519Y-42694426D01*
X107990221Y-42761721D01*
X107960000Y-42784933D01*
X107960000Y-41785000D01*
X110013990Y-41785000D01*
X110055870Y-41780875D01*
X110075238Y-41775000D01*
X112299695Y-41775000D01*
X112236856Y-41837839D01*
X112157513Y-41956584D01*
X112102861Y-42088525D01*
X112075000Y-42228594D01*
X112075000Y-42371406D01*
X112102861Y-42511475D01*
X112157513Y-42643416D01*
X112236856Y-42762161D01*
X112337839Y-42863144D01*
X112456584Y-42942487D01*
X112588525Y-42997139D01*
X112728594Y-43025000D01*
X112871406Y-43025000D01*
X113011475Y-42997139D01*
X113143416Y-42942487D01*
X113262161Y-42863144D01*
X113363144Y-42762161D01*
X113400000Y-42707002D01*
X113436856Y-42762161D01*
X113537839Y-42863144D01*
X113656584Y-42942487D01*
X113788525Y-42997139D01*
X113928594Y-43025000D01*
X114071406Y-43025000D01*
X114211475Y-42997139D01*
X114343416Y-42942487D01*
X114462161Y-42863144D01*
X114563144Y-42762161D01*
X114642487Y-42643416D01*
X114697139Y-42511475D01*
X114725000Y-42371406D01*
X114725000Y-42228594D01*
X114697139Y-42088525D01*
X114642487Y-41956584D01*
X114563144Y-41837839D01*
X114500305Y-41775000D01*
X117925000Y-41775000D01*
X117925000Y-54860324D01*
X109245928Y-54860324D01*
X109231195Y-54858873D01*
X109216462Y-54860324D01*
X109172385Y-54864665D01*
X109115835Y-54881820D01*
X109063718Y-54909677D01*
X109018037Y-54947166D01*
X108980548Y-54992847D01*
X108952691Y-55044964D01*
X108935536Y-55101514D01*
X108929744Y-55160324D01*
X108931195Y-55175057D01*
X108931196Y-77595581D01*
X108929744Y-77610324D01*
X108935536Y-77669134D01*
X108952691Y-77725684D01*
X108980548Y-77777801D01*
X109018037Y-77823482D01*
X109063718Y-77860971D01*
X109115835Y-77888828D01*
X109172385Y-77905983D01*
X109216462Y-77910324D01*
X109231195Y-77911775D01*
X109245928Y-77910324D01*
X117925000Y-77910324D01*
X117925000Y-121225000D01*
X62075000Y-121225000D01*
X62075000Y-106603971D01*
X77585000Y-106603971D01*
X77585000Y-106796029D01*
X77622468Y-106984397D01*
X77695966Y-107161836D01*
X77802668Y-107321527D01*
X77938473Y-107457332D01*
X78098164Y-107564034D01*
X78275603Y-107637532D01*
X78463971Y-107675000D01*
X78656029Y-107675000D01*
X78844397Y-107637532D01*
X79021836Y-107564034D01*
X79181527Y-107457332D01*
X79317332Y-107321527D01*
X79424034Y-107161836D01*
X79497532Y-106984397D01*
X79535000Y-106796029D01*
X79535000Y-106603971D01*
X80125000Y-106603971D01*
X80125000Y-106796029D01*
X80162468Y-106984397D01*
X80235966Y-107161836D01*
X80342668Y-107321527D01*
X80478473Y-107457332D01*
X80638164Y-107564034D01*
X80815603Y-107637532D01*
X81003971Y-107675000D01*
X81196029Y-107675000D01*
X81384397Y-107637532D01*
X81561836Y-107564034D01*
X81721527Y-107457332D01*
X81857332Y-107321527D01*
X81964034Y-107161836D01*
X82037532Y-106984397D01*
X82075000Y-106796029D01*
X82075000Y-106603971D01*
X82037532Y-106415603D01*
X81964034Y-106238164D01*
X81857332Y-106078473D01*
X81721527Y-105942668D01*
X81561836Y-105835966D01*
X81384397Y-105762468D01*
X81196029Y-105725000D01*
X81003971Y-105725000D01*
X80815603Y-105762468D01*
X80638164Y-105835966D01*
X80478473Y-105942668D01*
X80342668Y-106078473D01*
X80235966Y-106238164D01*
X80162468Y-106415603D01*
X80125000Y-106603971D01*
X79535000Y-106603971D01*
X79497532Y-106415603D01*
X79424034Y-106238164D01*
X79317332Y-106078473D01*
X79181527Y-105942668D01*
X79021836Y-105835966D01*
X78844397Y-105762468D01*
X78656029Y-105725000D01*
X78463971Y-105725000D01*
X78275603Y-105762468D01*
X78098164Y-105835966D01*
X77938473Y-105942668D01*
X77802668Y-106078473D01*
X77695966Y-106238164D01*
X77622468Y-106415603D01*
X77585000Y-106603971D01*
X62075000Y-106603971D01*
X62075000Y-81203971D01*
X77585000Y-81203971D01*
X77585000Y-81396029D01*
X77622468Y-81584397D01*
X77695966Y-81761836D01*
X77802668Y-81921527D01*
X77938473Y-82057332D01*
X78098164Y-82164034D01*
X78275603Y-82237532D01*
X78463971Y-82275000D01*
X78656029Y-82275000D01*
X78844397Y-82237532D01*
X79021836Y-82164034D01*
X79181527Y-82057332D01*
X79317332Y-81921527D01*
X79424034Y-81761836D01*
X79497532Y-81584397D01*
X79535000Y-81396029D01*
X79535000Y-81203971D01*
X80125000Y-81203971D01*
X80125000Y-81396029D01*
X80162468Y-81584397D01*
X80235966Y-81761836D01*
X80342668Y-81921527D01*
X80478473Y-82057332D01*
X80638164Y-82164034D01*
X80815603Y-82237532D01*
X81003971Y-82275000D01*
X81196029Y-82275000D01*
X81384397Y-82237532D01*
X81561836Y-82164034D01*
X81721527Y-82057332D01*
X81857332Y-81921527D01*
X81964034Y-81761836D01*
X82037532Y-81584397D01*
X82075000Y-81396029D01*
X82075000Y-81203971D01*
X82665000Y-81203971D01*
X82665000Y-81396029D01*
X82702468Y-81584397D01*
X82775966Y-81761836D01*
X82882668Y-81921527D01*
X83018473Y-82057332D01*
X83178164Y-82164034D01*
X83355603Y-82237532D01*
X83543971Y-82275000D01*
X83736029Y-82275000D01*
X83924397Y-82237532D01*
X84101836Y-82164034D01*
X84261527Y-82057332D01*
X84397332Y-81921527D01*
X84504034Y-81761836D01*
X84577532Y-81584397D01*
X84615000Y-81396029D01*
X84615000Y-81203971D01*
X84577532Y-81015603D01*
X84504034Y-80838164D01*
X84397332Y-80678473D01*
X84261527Y-80542668D01*
X84101836Y-80435966D01*
X83924397Y-80362468D01*
X83736029Y-80325000D01*
X83543971Y-80325000D01*
X83355603Y-80362468D01*
X83178164Y-80435966D01*
X83018473Y-80542668D01*
X82882668Y-80678473D01*
X82775966Y-80838164D01*
X82702468Y-81015603D01*
X82665000Y-81203971D01*
X82075000Y-81203971D01*
X82037532Y-81015603D01*
X81964034Y-80838164D01*
X81857332Y-80678473D01*
X81721527Y-80542668D01*
X81561836Y-80435966D01*
X81384397Y-80362468D01*
X81196029Y-80325000D01*
X81003971Y-80325000D01*
X80815603Y-80362468D01*
X80638164Y-80435966D01*
X80478473Y-80542668D01*
X80342668Y-80678473D01*
X80235966Y-80838164D01*
X80162468Y-81015603D01*
X80125000Y-81203971D01*
X79535000Y-81203971D01*
X79497532Y-81015603D01*
X79424034Y-80838164D01*
X79317332Y-80678473D01*
X79181527Y-80542668D01*
X79021836Y-80435966D01*
X78844397Y-80362468D01*
X78656029Y-80325000D01*
X78463971Y-80325000D01*
X78275603Y-80362468D01*
X78098164Y-80435966D01*
X77938473Y-80542668D01*
X77802668Y-80678473D01*
X77695966Y-80838164D01*
X77622468Y-81015603D01*
X77585000Y-81203971D01*
X62075000Y-81203971D01*
X62075000Y-74648292D01*
X68275000Y-74648292D01*
X68275000Y-74751708D01*
X68295176Y-74853137D01*
X68334751Y-74948681D01*
X68392206Y-75034668D01*
X68465332Y-75107794D01*
X68551319Y-75165249D01*
X68646863Y-75204824D01*
X68748292Y-75225000D01*
X68851708Y-75225000D01*
X68953137Y-75204824D01*
X69048681Y-75165249D01*
X69134668Y-75107794D01*
X69207794Y-75034668D01*
X69265249Y-74948681D01*
X69304824Y-74853137D01*
X69325000Y-74751708D01*
X69325000Y-74648292D01*
X69304824Y-74546863D01*
X69265249Y-74451319D01*
X69207794Y-74365332D01*
X69134668Y-74292206D01*
X69048681Y-74234751D01*
X68953137Y-74195176D01*
X68851708Y-74175000D01*
X68748292Y-74175000D01*
X68646863Y-74195176D01*
X68551319Y-74234751D01*
X68465332Y-74292206D01*
X68392206Y-74365332D01*
X68334751Y-74451319D01*
X68295176Y-74546863D01*
X68275000Y-74648292D01*
X62075000Y-74648292D01*
X62075000Y-46048292D01*
X64075000Y-46048292D01*
X64075000Y-46151708D01*
X64095176Y-46253137D01*
X64134751Y-46348681D01*
X64192206Y-46434668D01*
X64265332Y-46507794D01*
X64351319Y-46565249D01*
X64446863Y-46604824D01*
X64548292Y-46625000D01*
X64651708Y-46625000D01*
X64753137Y-46604824D01*
X64848681Y-46565249D01*
X64934668Y-46507794D01*
X65007794Y-46434668D01*
X65065249Y-46348681D01*
X65104824Y-46253137D01*
X65125000Y-46151708D01*
X65125000Y-46048292D01*
X65104824Y-45946863D01*
X65065249Y-45851319D01*
X65007794Y-45765332D01*
X64934668Y-45692206D01*
X64848681Y-45634751D01*
X64753137Y-45595176D01*
X64651708Y-45575000D01*
X64548292Y-45575000D01*
X64446863Y-45595176D01*
X64351319Y-45634751D01*
X64265332Y-45692206D01*
X64192206Y-45765332D01*
X64134751Y-45851319D01*
X64095176Y-45946863D01*
X64075000Y-46048292D01*
X62075000Y-46048292D01*
X62075000Y-43248292D01*
X65475000Y-43248292D01*
X65475000Y-43351708D01*
X65495176Y-43453137D01*
X65534751Y-43548681D01*
X65592206Y-43634668D01*
X65657538Y-43700000D01*
X65592206Y-43765332D01*
X65534751Y-43851319D01*
X65495176Y-43946863D01*
X65475000Y-44048292D01*
X65475000Y-44151708D01*
X65495176Y-44253137D01*
X65534751Y-44348681D01*
X65592206Y-44434668D01*
X65665332Y-44507794D01*
X65751319Y-44565249D01*
X65846863Y-44604824D01*
X65900001Y-44615394D01*
X65900000Y-52885277D01*
X65898550Y-52900000D01*
X65900000Y-52914723D01*
X65900000Y-52914732D01*
X65904341Y-52958809D01*
X65921496Y-53015359D01*
X65921497Y-53015360D01*
X65949353Y-53067477D01*
X65966358Y-53088198D01*
X65986842Y-53113158D01*
X65998290Y-53122553D01*
X75875736Y-63000000D01*
X72124730Y-63000000D01*
X72110000Y-62998549D01*
X72095270Y-63000000D01*
X72095267Y-63000000D01*
X72051190Y-63004341D01*
X71994640Y-63021496D01*
X71942522Y-63049353D01*
X71920437Y-63067478D01*
X71896842Y-63086842D01*
X71887451Y-63098285D01*
X71584892Y-63400845D01*
X71541475Y-63382861D01*
X71401406Y-63355000D01*
X71258594Y-63355000D01*
X71118525Y-63382861D01*
X70986584Y-63437513D01*
X70867839Y-63516856D01*
X70766856Y-63617839D01*
X70687513Y-63736584D01*
X70632861Y-63868525D01*
X70605000Y-64008594D01*
X70605000Y-64151406D01*
X70632861Y-64291475D01*
X70687513Y-64423416D01*
X70766856Y-64542161D01*
X70867839Y-64643144D01*
X70975379Y-64715000D01*
X70867839Y-64786856D01*
X70766856Y-64887839D01*
X70687513Y-65006584D01*
X70632861Y-65138525D01*
X70605000Y-65278594D01*
X70605000Y-65421406D01*
X70632861Y-65561475D01*
X70687513Y-65693416D01*
X70766856Y-65812161D01*
X70867839Y-65913144D01*
X70975379Y-65985000D01*
X70867839Y-66056856D01*
X70766856Y-66157839D01*
X70687513Y-66276584D01*
X70632861Y-66408525D01*
X70605000Y-66548594D01*
X70605000Y-66691406D01*
X70632861Y-66831475D01*
X70687513Y-66963416D01*
X70766856Y-67082161D01*
X70867839Y-67183144D01*
X70975379Y-67255000D01*
X70867839Y-67326856D01*
X70766856Y-67427839D01*
X70687513Y-67546584D01*
X70632861Y-67678525D01*
X70605000Y-67818594D01*
X70605000Y-67961406D01*
X70632861Y-68101475D01*
X70687513Y-68233416D01*
X70766856Y-68352161D01*
X70867839Y-68453144D01*
X70975379Y-68525000D01*
X70867839Y-68596856D01*
X70766856Y-68697839D01*
X70687513Y-68816584D01*
X70632861Y-68948525D01*
X70605000Y-69088594D01*
X70605000Y-69231406D01*
X70632861Y-69371475D01*
X70650845Y-69414892D01*
X70198285Y-69867452D01*
X70186843Y-69876842D01*
X70177452Y-69888285D01*
X70177451Y-69888286D01*
X70149353Y-69922523D01*
X70121497Y-69974640D01*
X70104342Y-70031190D01*
X70100576Y-70069426D01*
X70048681Y-70034751D01*
X69953137Y-69995176D01*
X69851708Y-69975000D01*
X69748292Y-69975000D01*
X69646863Y-69995176D01*
X69551319Y-70034751D01*
X69465332Y-70092206D01*
X69392206Y-70165332D01*
X69334751Y-70251319D01*
X69295176Y-70346863D01*
X69275000Y-70448292D01*
X69275000Y-70551708D01*
X69295176Y-70653137D01*
X69334751Y-70748681D01*
X69392206Y-70834668D01*
X69465332Y-70907794D01*
X69500001Y-70930959D01*
X69500000Y-72085277D01*
X69498550Y-72100000D01*
X69500000Y-72114723D01*
X69500000Y-72114732D01*
X69504341Y-72158809D01*
X69521496Y-72215359D01*
X69521497Y-72215360D01*
X69549353Y-72267477D01*
X69564981Y-72286520D01*
X69586842Y-72313158D01*
X69598290Y-72322553D01*
X70577451Y-73301715D01*
X70586842Y-73313158D01*
X70598285Y-73322549D01*
X70598286Y-73322550D01*
X70632522Y-73350647D01*
X70684638Y-73378503D01*
X70684640Y-73378504D01*
X70741190Y-73395659D01*
X70785267Y-73400000D01*
X70785270Y-73400000D01*
X70800000Y-73401451D01*
X70814730Y-73400000D01*
X74475737Y-73400000D01*
X73398290Y-74477447D01*
X73386842Y-74486842D01*
X73366358Y-74511802D01*
X73349353Y-74532523D01*
X73339099Y-74551708D01*
X73321496Y-74584641D01*
X73304341Y-74641191D01*
X73300000Y-74685268D01*
X73300000Y-74685277D01*
X73298550Y-74700000D01*
X73300000Y-74714723D01*
X73300001Y-76269041D01*
X73265332Y-76292206D01*
X73192206Y-76365332D01*
X73134751Y-76451319D01*
X73095176Y-76546863D01*
X73075000Y-76648292D01*
X73075000Y-76751708D01*
X73095176Y-76853137D01*
X73134751Y-76948681D01*
X73192206Y-77034668D01*
X73265332Y-77107794D01*
X73351319Y-77165249D01*
X73446863Y-77204824D01*
X73548292Y-77225000D01*
X73651708Y-77225000D01*
X73753137Y-77204824D01*
X73848681Y-77165249D01*
X73934668Y-77107794D01*
X74007794Y-77034668D01*
X74065249Y-76948681D01*
X74104824Y-76853137D01*
X74125000Y-76751708D01*
X74125000Y-76648292D01*
X74104824Y-76546863D01*
X74065249Y-76451319D01*
X74007794Y-76365332D01*
X73934668Y-76292206D01*
X73900000Y-76269041D01*
X73900000Y-74824263D01*
X74275971Y-74448292D01*
X79475000Y-74448292D01*
X79475000Y-74551708D01*
X79495176Y-74653137D01*
X79534751Y-74748681D01*
X79592206Y-74834668D01*
X79665332Y-74907794D01*
X79751319Y-74965249D01*
X79846863Y-75004824D01*
X79948292Y-75025000D01*
X80051708Y-75025000D01*
X80153137Y-75004824D01*
X80248681Y-74965249D01*
X80334668Y-74907794D01*
X80407794Y-74834668D01*
X80465249Y-74748681D01*
X80504824Y-74653137D01*
X80525000Y-74551708D01*
X80525000Y-74448292D01*
X80504824Y-74346863D01*
X80465249Y-74251319D01*
X80407794Y-74165332D01*
X80334668Y-74092206D01*
X80248681Y-74034751D01*
X80153137Y-73995176D01*
X80051708Y-73975000D01*
X79948292Y-73975000D01*
X79846863Y-73995176D01*
X79751319Y-74034751D01*
X79665332Y-74092206D01*
X79592206Y-74165332D01*
X79534751Y-74251319D01*
X79495176Y-74346863D01*
X79475000Y-74448292D01*
X74275971Y-74448292D01*
X77124264Y-71600000D01*
X81969041Y-71600000D01*
X81992206Y-71634668D01*
X82065332Y-71707794D01*
X82151319Y-71765249D01*
X82246863Y-71804824D01*
X82348292Y-71825000D01*
X82451708Y-71825000D01*
X82553137Y-71804824D01*
X82648681Y-71765249D01*
X82734668Y-71707794D01*
X82807794Y-71634668D01*
X82865249Y-71548681D01*
X82900000Y-71464783D01*
X82934751Y-71548681D01*
X82992206Y-71634668D01*
X83065332Y-71707794D01*
X83151319Y-71765249D01*
X83246863Y-71804824D01*
X83348292Y-71825000D01*
X83451708Y-71825000D01*
X83553137Y-71804824D01*
X83648681Y-71765249D01*
X83734668Y-71707794D01*
X83807794Y-71634668D01*
X83865249Y-71548681D01*
X83904824Y-71453137D01*
X83925000Y-71351708D01*
X83925000Y-71248292D01*
X83904824Y-71146863D01*
X83865249Y-71051319D01*
X83830959Y-71000000D01*
X86369041Y-71000000D01*
X86392206Y-71034668D01*
X86465332Y-71107794D01*
X86551319Y-71165249D01*
X86646863Y-71204824D01*
X86748292Y-71225000D01*
X86851708Y-71225000D01*
X86953137Y-71204824D01*
X87048681Y-71165249D01*
X87134668Y-71107794D01*
X87207794Y-71034668D01*
X87265249Y-70948681D01*
X87300001Y-70864781D01*
X87300000Y-71669041D01*
X87265332Y-71692206D01*
X87192206Y-71765332D01*
X87134751Y-71851319D01*
X87095176Y-71946863D01*
X87075000Y-72048292D01*
X87075000Y-72151708D01*
X87080784Y-72180784D01*
X87051708Y-72175000D01*
X86948292Y-72175000D01*
X86846863Y-72195176D01*
X86751319Y-72234751D01*
X86665332Y-72292206D01*
X86592206Y-72365332D01*
X86534751Y-72451319D01*
X86495176Y-72546863D01*
X86475000Y-72648292D01*
X86475000Y-72751708D01*
X86480784Y-72780784D01*
X86451708Y-72775000D01*
X86348292Y-72775000D01*
X86246863Y-72795176D01*
X86151319Y-72834751D01*
X86065332Y-72892206D01*
X85992206Y-72965332D01*
X85934751Y-73051319D01*
X85895176Y-73146863D01*
X85875000Y-73248292D01*
X85875000Y-73351708D01*
X85883134Y-73392602D01*
X84798290Y-74477447D01*
X84786842Y-74486842D01*
X84766358Y-74511802D01*
X84749353Y-74532523D01*
X84739099Y-74551708D01*
X84721496Y-74584641D01*
X84704341Y-74641191D01*
X84700000Y-74685268D01*
X84700000Y-74685277D01*
X84698550Y-74700000D01*
X84700000Y-74714723D01*
X84700001Y-113975735D01*
X82492602Y-116183135D01*
X82451708Y-116175000D01*
X82348292Y-116175000D01*
X82246863Y-116195176D01*
X82151319Y-116234751D01*
X82065332Y-116292206D01*
X81992206Y-116365332D01*
X81934751Y-116451319D01*
X81895176Y-116546863D01*
X81875000Y-116648292D01*
X81875000Y-116751708D01*
X81895176Y-116853137D01*
X81934751Y-116948681D01*
X81992206Y-117034668D01*
X82065332Y-117107794D01*
X82151319Y-117165249D01*
X82246863Y-117204824D01*
X82348292Y-117225000D01*
X82451708Y-117225000D01*
X82553137Y-117204824D01*
X82648681Y-117165249D01*
X82734668Y-117107794D01*
X82807794Y-117034668D01*
X82865249Y-116948681D01*
X82904824Y-116853137D01*
X82925000Y-116751708D01*
X82925000Y-116648292D01*
X82916865Y-116607398D01*
X85201715Y-114322549D01*
X85213158Y-114313158D01*
X85222549Y-114301715D01*
X85250647Y-114267478D01*
X85278503Y-114215361D01*
X85278504Y-114215360D01*
X85295659Y-114158810D01*
X85300000Y-114114733D01*
X85300000Y-114114724D01*
X85301450Y-114100001D01*
X85300000Y-114085278D01*
X85300000Y-81829944D01*
X85315136Y-81859312D01*
X85332296Y-81884992D01*
X85482874Y-81961771D01*
X86144645Y-81300000D01*
X85482874Y-80638229D01*
X85332296Y-80715008D01*
X85300000Y-80773310D01*
X85300000Y-74824263D01*
X86307398Y-73816866D01*
X86348292Y-73825000D01*
X86451708Y-73825000D01*
X86553137Y-73804824D01*
X86648681Y-73765249D01*
X86700000Y-73730958D01*
X86700001Y-80416294D01*
X86588372Y-80354458D01*
X86396059Y-80292956D01*
X86195443Y-80270155D01*
X85994232Y-80286930D01*
X85800161Y-80342638D01*
X85620688Y-80435136D01*
X85595008Y-80452296D01*
X85518229Y-80602874D01*
X86180000Y-81264645D01*
X86194143Y-81250503D01*
X86229498Y-81285858D01*
X86215355Y-81300000D01*
X86229498Y-81314143D01*
X86194143Y-81349498D01*
X86180000Y-81335355D01*
X85518229Y-81997126D01*
X85595008Y-82147704D01*
X85771628Y-82245542D01*
X85963941Y-82307044D01*
X86164557Y-82329845D01*
X86365768Y-82313070D01*
X86559839Y-82257362D01*
X86739312Y-82164864D01*
X86764992Y-82147704D01*
X86841770Y-81997128D01*
X86890356Y-82045714D01*
X86900000Y-82036070D01*
X86900001Y-106085267D01*
X86898550Y-106100000D01*
X86904342Y-106158810D01*
X86921497Y-106215360D01*
X86949353Y-106267477D01*
X86977451Y-106301714D01*
X86986843Y-106313158D01*
X86998286Y-106322549D01*
X97283134Y-116607399D01*
X97275000Y-116648292D01*
X97275000Y-116751708D01*
X97295176Y-116853137D01*
X97334751Y-116948681D01*
X97392206Y-117034668D01*
X97465332Y-117107794D01*
X97551319Y-117165249D01*
X97646863Y-117204824D01*
X97748292Y-117225000D01*
X97851708Y-117225000D01*
X97953137Y-117204824D01*
X98048681Y-117165249D01*
X98134668Y-117107794D01*
X98207794Y-117034668D01*
X98265249Y-116948681D01*
X98304824Y-116853137D01*
X98325000Y-116751708D01*
X98325000Y-116648292D01*
X98304824Y-116546863D01*
X98265249Y-116451319D01*
X98207794Y-116365332D01*
X98134668Y-116292206D01*
X98048681Y-116234751D01*
X97953137Y-116195176D01*
X97851708Y-116175000D01*
X97748292Y-116175000D01*
X97707399Y-116183134D01*
X88128235Y-106603971D01*
X97905000Y-106603971D01*
X97905000Y-106796029D01*
X97942468Y-106984397D01*
X98015966Y-107161836D01*
X98122668Y-107321527D01*
X98258473Y-107457332D01*
X98418164Y-107564034D01*
X98595603Y-107637532D01*
X98783971Y-107675000D01*
X98976029Y-107675000D01*
X99164397Y-107637532D01*
X99341836Y-107564034D01*
X99501527Y-107457332D01*
X99637332Y-107321527D01*
X99744034Y-107161836D01*
X99817532Y-106984397D01*
X99855000Y-106796029D01*
X99855000Y-106603971D01*
X99817532Y-106415603D01*
X99744034Y-106238164D01*
X99637332Y-106078473D01*
X99508859Y-105950000D01*
X100443912Y-105950000D01*
X100443912Y-107450000D01*
X100448256Y-107494108D01*
X100461122Y-107536520D01*
X100482015Y-107575608D01*
X100510132Y-107609868D01*
X100544392Y-107637985D01*
X100583480Y-107658878D01*
X100625892Y-107671744D01*
X100670000Y-107676088D01*
X102170000Y-107676088D01*
X102214108Y-107671744D01*
X102256520Y-107658878D01*
X102295608Y-107637985D01*
X102329868Y-107609868D01*
X102357985Y-107575608D01*
X102378878Y-107536520D01*
X102391744Y-107494108D01*
X102396088Y-107450000D01*
X102396088Y-105950000D01*
X102391744Y-105905892D01*
X102378878Y-105863480D01*
X102357985Y-105824392D01*
X102329868Y-105790132D01*
X102295608Y-105762015D01*
X102256520Y-105741122D01*
X102214108Y-105728256D01*
X102170000Y-105723912D01*
X100670000Y-105723912D01*
X100625892Y-105728256D01*
X100583480Y-105741122D01*
X100544392Y-105762015D01*
X100510132Y-105790132D01*
X100482015Y-105824392D01*
X100461122Y-105863480D01*
X100448256Y-105905892D01*
X100443912Y-105950000D01*
X99508859Y-105950000D01*
X99501527Y-105942668D01*
X99341836Y-105835966D01*
X99164397Y-105762468D01*
X98976029Y-105725000D01*
X98783971Y-105725000D01*
X98595603Y-105762468D01*
X98418164Y-105835966D01*
X98258473Y-105942668D01*
X98122668Y-106078473D01*
X98015966Y-106238164D01*
X97942468Y-106415603D01*
X97905000Y-106603971D01*
X88128235Y-106603971D01*
X87500000Y-105975737D01*
X87500000Y-103000000D01*
X111073912Y-103000000D01*
X111073912Y-107000000D01*
X111078256Y-107044108D01*
X111091122Y-107086520D01*
X111112015Y-107125608D01*
X111140132Y-107159868D01*
X111174392Y-107187985D01*
X111213480Y-107208878D01*
X111255892Y-107221744D01*
X111300000Y-107226088D01*
X115300000Y-107226088D01*
X115344108Y-107221744D01*
X115386520Y-107208878D01*
X115425608Y-107187985D01*
X115459868Y-107159868D01*
X115487985Y-107125608D01*
X115508878Y-107086520D01*
X115521744Y-107044108D01*
X115526088Y-107000000D01*
X115526088Y-103000000D01*
X115521744Y-102955892D01*
X115508878Y-102913480D01*
X115487985Y-102874392D01*
X115459868Y-102840132D01*
X115425608Y-102812015D01*
X115386520Y-102791122D01*
X115344108Y-102778256D01*
X115300000Y-102773912D01*
X111300000Y-102773912D01*
X111255892Y-102778256D01*
X111213480Y-102791122D01*
X111174392Y-102812015D01*
X111140132Y-102840132D01*
X111112015Y-102874392D01*
X111091122Y-102913480D01*
X111078256Y-102955892D01*
X111073912Y-103000000D01*
X87500000Y-103000000D01*
X87500000Y-101500000D01*
X111023669Y-101500000D01*
X111028979Y-101553910D01*
X111044703Y-101605747D01*
X111070239Y-101653521D01*
X111104604Y-101695396D01*
X111146479Y-101729761D01*
X111194253Y-101755297D01*
X111246090Y-101771021D01*
X111300000Y-101776331D01*
X113206250Y-101775000D01*
X113275000Y-101706250D01*
X113275000Y-99525000D01*
X113325000Y-99525000D01*
X113325000Y-101706250D01*
X113393750Y-101775000D01*
X115300000Y-101776331D01*
X115353910Y-101771021D01*
X115405747Y-101755297D01*
X115453521Y-101729761D01*
X115495396Y-101695396D01*
X115529761Y-101653521D01*
X115555297Y-101605747D01*
X115571021Y-101553910D01*
X115576331Y-101500000D01*
X115575000Y-99593750D01*
X115506250Y-99525000D01*
X113325000Y-99525000D01*
X113275000Y-99525000D01*
X111093750Y-99525000D01*
X111025000Y-99593750D01*
X111023669Y-101500000D01*
X87500000Y-101500000D01*
X87500000Y-97500000D01*
X111023669Y-97500000D01*
X111025000Y-99406250D01*
X111093750Y-99475000D01*
X113275000Y-99475000D01*
X113275000Y-97293750D01*
X113325000Y-97293750D01*
X113325000Y-99475000D01*
X115506250Y-99475000D01*
X115575000Y-99406250D01*
X115576331Y-97500000D01*
X115571021Y-97446090D01*
X115555297Y-97394253D01*
X115529761Y-97346479D01*
X115495396Y-97304604D01*
X115453521Y-97270239D01*
X115405747Y-97244703D01*
X115353910Y-97228979D01*
X115300000Y-97223669D01*
X113393750Y-97225000D01*
X113325000Y-97293750D01*
X113275000Y-97293750D01*
X113206250Y-97225000D01*
X111300000Y-97223669D01*
X111246090Y-97228979D01*
X111194253Y-97244703D01*
X111146479Y-97270239D01*
X111104604Y-97304604D01*
X111070239Y-97346479D01*
X111044703Y-97394253D01*
X111028979Y-97446090D01*
X111023669Y-97500000D01*
X87500000Y-97500000D01*
X87500000Y-82424263D01*
X87977451Y-82901715D01*
X87986842Y-82913158D01*
X87998285Y-82922549D01*
X88032522Y-82950647D01*
X88084639Y-82978504D01*
X88097801Y-82982497D01*
X88141190Y-82995659D01*
X88185267Y-83000000D01*
X88185270Y-83000000D01*
X88200000Y-83001451D01*
X88214730Y-83000000D01*
X92385277Y-83000000D01*
X92400000Y-83001450D01*
X92414723Y-83000000D01*
X92414733Y-83000000D01*
X92458810Y-82995659D01*
X92515360Y-82978504D01*
X92567477Y-82950647D01*
X92613158Y-82913158D01*
X92622553Y-82901710D01*
X93353767Y-82170497D01*
X93515603Y-82237532D01*
X93703971Y-82275000D01*
X93896029Y-82275000D01*
X94084397Y-82237532D01*
X94261836Y-82164034D01*
X94421527Y-82057332D01*
X94557332Y-81921527D01*
X94664034Y-81761836D01*
X94737532Y-81584397D01*
X94775000Y-81396029D01*
X94775000Y-81203971D01*
X94737532Y-81015603D01*
X94664034Y-80838164D01*
X94557332Y-80678473D01*
X94421527Y-80542668D01*
X94261836Y-80435966D01*
X94084397Y-80362468D01*
X93896029Y-80325000D01*
X93703971Y-80325000D01*
X93515603Y-80362468D01*
X93338164Y-80435966D01*
X93178473Y-80542668D01*
X93042668Y-80678473D01*
X92935966Y-80838164D01*
X92862468Y-81015603D01*
X92825000Y-81203971D01*
X92825000Y-81396029D01*
X92862468Y-81584397D01*
X92929503Y-81746233D01*
X92275737Y-82400000D01*
X92024263Y-82400000D01*
X92501715Y-81922549D01*
X92513158Y-81913158D01*
X92536273Y-81884992D01*
X92550647Y-81867478D01*
X92578503Y-81815361D01*
X92578504Y-81815360D01*
X92595659Y-81758810D01*
X92600000Y-81714733D01*
X92600000Y-81714724D01*
X92601450Y-81700001D01*
X92600000Y-81685278D01*
X92600000Y-80414722D01*
X92601450Y-80399999D01*
X92600000Y-80385276D01*
X92600000Y-80385267D01*
X92595659Y-80341190D01*
X92578504Y-80284640D01*
X92550648Y-80232524D01*
X92550647Y-80232522D01*
X92522549Y-80198285D01*
X92513158Y-80186842D01*
X92501717Y-80177453D01*
X90300000Y-77975737D01*
X90300000Y-76648292D01*
X93475000Y-76648292D01*
X93475000Y-76751708D01*
X93495176Y-76853137D01*
X93534751Y-76948681D01*
X93592206Y-77034668D01*
X93665332Y-77107794D01*
X93751319Y-77165249D01*
X93846863Y-77204824D01*
X93948292Y-77225000D01*
X94051708Y-77225000D01*
X94153137Y-77204824D01*
X94248681Y-77165249D01*
X94334668Y-77107794D01*
X94407794Y-77034668D01*
X94465249Y-76948681D01*
X94504824Y-76853137D01*
X94525000Y-76751708D01*
X94525000Y-76648292D01*
X94504824Y-76546863D01*
X94465249Y-76451319D01*
X94407794Y-76365332D01*
X94334668Y-76292206D01*
X94248681Y-76234751D01*
X94153137Y-76195176D01*
X94051708Y-76175000D01*
X93948292Y-76175000D01*
X93846863Y-76195176D01*
X93751319Y-76234751D01*
X93665332Y-76292206D01*
X93592206Y-76365332D01*
X93534751Y-76451319D01*
X93495176Y-76546863D01*
X93475000Y-76648292D01*
X90300000Y-76648292D01*
X90300000Y-74848292D01*
X93475000Y-74848292D01*
X93475000Y-74951708D01*
X93495176Y-75053137D01*
X93534751Y-75148681D01*
X93592206Y-75234668D01*
X93665332Y-75307794D01*
X93751319Y-75365249D01*
X93846863Y-75404824D01*
X93948292Y-75425000D01*
X94051708Y-75425000D01*
X94153137Y-75404824D01*
X94248681Y-75365249D01*
X94334668Y-75307794D01*
X94407794Y-75234668D01*
X94465249Y-75148681D01*
X94504824Y-75053137D01*
X94525000Y-74951708D01*
X94525000Y-74848292D01*
X94504824Y-74746863D01*
X94465249Y-74651319D01*
X94407794Y-74565332D01*
X94334668Y-74492206D01*
X94248681Y-74434751D01*
X94153137Y-74395176D01*
X94051708Y-74375000D01*
X93948292Y-74375000D01*
X93846863Y-74395176D01*
X93751319Y-74434751D01*
X93665332Y-74492206D01*
X93592206Y-74565332D01*
X93534751Y-74651319D01*
X93495176Y-74746863D01*
X93475000Y-74848292D01*
X90300000Y-74848292D01*
X90300000Y-73130959D01*
X90351319Y-73165249D01*
X90446863Y-73204824D01*
X90548292Y-73225000D01*
X90552337Y-73225000D01*
X90534751Y-73251319D01*
X90495176Y-73346863D01*
X90475000Y-73448292D01*
X90475000Y-73551708D01*
X90495176Y-73653137D01*
X90534751Y-73748681D01*
X90592206Y-73834668D01*
X90665332Y-73907794D01*
X90751319Y-73965249D01*
X90846863Y-74004824D01*
X90948292Y-74025000D01*
X91051708Y-74025000D01*
X91153137Y-74004824D01*
X91248681Y-73965249D01*
X91334668Y-73907794D01*
X91407794Y-73834668D01*
X91430959Y-73800000D01*
X92185277Y-73800000D01*
X92200000Y-73801450D01*
X92214723Y-73800000D01*
X92214733Y-73800000D01*
X92258810Y-73795659D01*
X92315360Y-73778504D01*
X92367477Y-73750647D01*
X92413158Y-73713158D01*
X92422553Y-73701710D01*
X93001716Y-73122548D01*
X93013158Y-73113158D01*
X93042462Y-73077451D01*
X93050647Y-73067478D01*
X93068184Y-73034668D01*
X93078504Y-73015360D01*
X93095659Y-72958810D01*
X93100000Y-72914733D01*
X93100000Y-72914724D01*
X93101450Y-72900001D01*
X93100000Y-72885278D01*
X93100000Y-69448292D01*
X93875000Y-69448292D01*
X93875000Y-69551708D01*
X93895176Y-69653137D01*
X93934751Y-69748681D01*
X93992206Y-69834668D01*
X94065332Y-69907794D01*
X94151319Y-69965249D01*
X94246863Y-70004824D01*
X94348292Y-70025000D01*
X94451708Y-70025000D01*
X94492602Y-70016865D01*
X94700000Y-70224264D01*
X94700000Y-73069042D01*
X94648681Y-73034751D01*
X94553137Y-72995176D01*
X94451708Y-72975000D01*
X94348292Y-72975000D01*
X94246863Y-72995176D01*
X94151319Y-73034751D01*
X94065332Y-73092206D01*
X93992206Y-73165332D01*
X93934751Y-73251319D01*
X93895176Y-73346863D01*
X93875000Y-73448292D01*
X93875000Y-73551708D01*
X93895176Y-73653137D01*
X93934751Y-73748681D01*
X93992206Y-73834668D01*
X94065332Y-73907794D01*
X94151319Y-73965249D01*
X94246863Y-74004824D01*
X94348292Y-74025000D01*
X94451708Y-74025000D01*
X94553137Y-74004824D01*
X94648681Y-73965249D01*
X94700000Y-73930958D01*
X94700001Y-79945267D01*
X94698550Y-79960000D01*
X94704342Y-80018810D01*
X94721497Y-80075360D01*
X94749353Y-80127477D01*
X94777451Y-80161714D01*
X94786843Y-80173158D01*
X94798285Y-80182548D01*
X95469503Y-80853767D01*
X95402468Y-81015603D01*
X95365000Y-81203971D01*
X95365000Y-81396029D01*
X95402468Y-81584397D01*
X95475966Y-81761836D01*
X95582668Y-81921527D01*
X95718473Y-82057332D01*
X95878164Y-82164034D01*
X96055603Y-82237532D01*
X96243971Y-82275000D01*
X96436029Y-82275000D01*
X96624397Y-82237532D01*
X96801836Y-82164034D01*
X96961527Y-82057332D01*
X97021733Y-81997126D01*
X98218229Y-81997126D01*
X98295008Y-82147704D01*
X98471628Y-82245542D01*
X98663941Y-82307044D01*
X98864557Y-82329845D01*
X99065768Y-82313070D01*
X99259839Y-82257362D01*
X99439312Y-82164864D01*
X99464992Y-82147704D01*
X99541771Y-81997126D01*
X98880000Y-81335355D01*
X98218229Y-81997126D01*
X97021733Y-81997126D01*
X97097332Y-81921527D01*
X97204034Y-81761836D01*
X97277532Y-81584397D01*
X97315000Y-81396029D01*
X97315000Y-81284557D01*
X97850155Y-81284557D01*
X97866930Y-81485768D01*
X97922638Y-81679839D01*
X98015136Y-81859312D01*
X98032296Y-81884992D01*
X98182874Y-81961771D01*
X98844645Y-81300000D01*
X98915355Y-81300000D01*
X99577126Y-81961771D01*
X99727704Y-81884992D01*
X99825542Y-81708372D01*
X99887044Y-81516059D01*
X99909845Y-81315443D01*
X99900552Y-81203971D01*
X100445000Y-81203971D01*
X100445000Y-81396029D01*
X100482468Y-81584397D01*
X100555966Y-81761836D01*
X100662668Y-81921527D01*
X100798473Y-82057332D01*
X100958164Y-82164034D01*
X101135603Y-82237532D01*
X101323971Y-82275000D01*
X101516029Y-82275000D01*
X101704397Y-82237532D01*
X101881836Y-82164034D01*
X102041527Y-82057332D01*
X102177332Y-81921527D01*
X102284034Y-81761836D01*
X102357532Y-81584397D01*
X102395000Y-81396029D01*
X102395000Y-81203971D01*
X102357532Y-81015603D01*
X102284034Y-80838164D01*
X102177332Y-80678473D01*
X102041527Y-80542668D01*
X101881836Y-80435966D01*
X101704397Y-80362468D01*
X101516029Y-80325000D01*
X101323971Y-80325000D01*
X101135603Y-80362468D01*
X100958164Y-80435966D01*
X100798473Y-80542668D01*
X100662668Y-80678473D01*
X100555966Y-80838164D01*
X100482468Y-81015603D01*
X100445000Y-81203971D01*
X99900552Y-81203971D01*
X99893070Y-81114232D01*
X99837362Y-80920161D01*
X99744864Y-80740688D01*
X99727704Y-80715008D01*
X99577126Y-80638229D01*
X98915355Y-81300000D01*
X98844645Y-81300000D01*
X98182874Y-80638229D01*
X98032296Y-80715008D01*
X97934458Y-80891628D01*
X97872956Y-81083941D01*
X97850155Y-81284557D01*
X97315000Y-81284557D01*
X97315000Y-81203971D01*
X97277532Y-81015603D01*
X97204034Y-80838164D01*
X97097332Y-80678473D01*
X97021733Y-80602874D01*
X98218229Y-80602874D01*
X98880000Y-81264645D01*
X99541771Y-80602874D01*
X99464992Y-80452296D01*
X99288372Y-80354458D01*
X99096059Y-80292956D01*
X98895443Y-80270155D01*
X98694232Y-80286930D01*
X98500161Y-80342638D01*
X98320688Y-80435136D01*
X98295008Y-80452296D01*
X98218229Y-80602874D01*
X97021733Y-80602874D01*
X96961527Y-80542668D01*
X96801836Y-80435966D01*
X96624397Y-80362468D01*
X96436029Y-80325000D01*
X96243971Y-80325000D01*
X96055603Y-80362468D01*
X95893767Y-80429503D01*
X95300000Y-79835737D01*
X95300000Y-70730959D01*
X95351319Y-70765249D01*
X95446863Y-70804824D01*
X95548292Y-70825000D01*
X95651708Y-70825000D01*
X95753137Y-70804824D01*
X95848681Y-70765249D01*
X95934668Y-70707794D01*
X96007794Y-70634668D01*
X96030959Y-70600000D01*
X103185277Y-70600000D01*
X103200000Y-70601450D01*
X103214723Y-70600000D01*
X103214733Y-70600000D01*
X103258810Y-70595659D01*
X103315360Y-70578504D01*
X103367477Y-70550647D01*
X103413158Y-70513158D01*
X103422553Y-70501710D01*
X106001717Y-67922547D01*
X106013158Y-67913158D01*
X106030353Y-67892206D01*
X106050647Y-67867478D01*
X106078503Y-67815361D01*
X106078504Y-67815360D01*
X106095659Y-67758810D01*
X106100000Y-67714733D01*
X106100000Y-67714724D01*
X106101450Y-67700001D01*
X106100000Y-67685278D01*
X106100000Y-65930959D01*
X106134668Y-65907794D01*
X106207794Y-65834668D01*
X106265249Y-65748681D01*
X106304824Y-65653137D01*
X106325000Y-65551708D01*
X106325000Y-65448292D01*
X107275000Y-65448292D01*
X107275000Y-65551708D01*
X107295176Y-65653137D01*
X107334751Y-65748681D01*
X107392206Y-65834668D01*
X107465332Y-65907794D01*
X107551319Y-65965249D01*
X107646863Y-66004824D01*
X107748292Y-66025000D01*
X107851708Y-66025000D01*
X107953137Y-66004824D01*
X108048681Y-65965249D01*
X108134668Y-65907794D01*
X108207794Y-65834668D01*
X108265249Y-65748681D01*
X108304824Y-65653137D01*
X108325000Y-65551708D01*
X108325000Y-65448292D01*
X108304824Y-65346863D01*
X108265249Y-65251319D01*
X108207794Y-65165332D01*
X108134668Y-65092206D01*
X108048681Y-65034751D01*
X107953137Y-64995176D01*
X107851708Y-64975000D01*
X107748292Y-64975000D01*
X107646863Y-64995176D01*
X107551319Y-65034751D01*
X107465332Y-65092206D01*
X107392206Y-65165332D01*
X107334751Y-65251319D01*
X107295176Y-65346863D01*
X107275000Y-65448292D01*
X106325000Y-65448292D01*
X106304824Y-65346863D01*
X106265249Y-65251319D01*
X106207794Y-65165332D01*
X106134668Y-65092206D01*
X106048681Y-65034751D01*
X105953137Y-64995176D01*
X105851708Y-64975000D01*
X105748292Y-64975000D01*
X105646863Y-64995176D01*
X105551319Y-65034751D01*
X105465332Y-65092206D01*
X105392206Y-65165332D01*
X105334751Y-65251319D01*
X105295176Y-65346863D01*
X105275000Y-65448292D01*
X105275000Y-65551708D01*
X105295176Y-65653137D01*
X105334751Y-65748681D01*
X105392206Y-65834668D01*
X105465332Y-65907794D01*
X105500001Y-65930959D01*
X105500000Y-67575736D01*
X103075737Y-70000000D01*
X96030959Y-70000000D01*
X96007794Y-69965332D01*
X95934668Y-69892206D01*
X95848681Y-69834751D01*
X95753137Y-69795176D01*
X95651708Y-69775000D01*
X95548292Y-69775000D01*
X95446863Y-69795176D01*
X95351319Y-69834751D01*
X95265332Y-69892206D01*
X95239094Y-69918444D01*
X95222549Y-69898285D01*
X95213158Y-69886842D01*
X95201715Y-69877451D01*
X94916865Y-69592602D01*
X94925000Y-69551708D01*
X94925000Y-69448292D01*
X94904824Y-69346863D01*
X94865249Y-69251319D01*
X94807794Y-69165332D01*
X94734668Y-69092206D01*
X94648681Y-69034751D01*
X94553137Y-68995176D01*
X94451708Y-68975000D01*
X94348292Y-68975000D01*
X94246863Y-68995176D01*
X94151319Y-69034751D01*
X94065332Y-69092206D01*
X93992206Y-69165332D01*
X93934751Y-69251319D01*
X93895176Y-69346863D01*
X93875000Y-69448292D01*
X93100000Y-69448292D01*
X93100000Y-69424263D01*
X94875000Y-67649263D01*
X94875000Y-67751708D01*
X94895176Y-67853137D01*
X94934751Y-67948681D01*
X94992206Y-68034668D01*
X95065332Y-68107794D01*
X95151319Y-68165249D01*
X95246863Y-68204824D01*
X95348292Y-68225000D01*
X95451708Y-68225000D01*
X95553137Y-68204824D01*
X95648681Y-68165249D01*
X95734668Y-68107794D01*
X95807794Y-68034668D01*
X95865249Y-67948681D01*
X95904824Y-67853137D01*
X95925000Y-67751708D01*
X95925000Y-67648292D01*
X95904824Y-67546863D01*
X95865249Y-67451319D01*
X95807794Y-67365332D01*
X95734668Y-67292206D01*
X95648681Y-67234751D01*
X95553137Y-67195176D01*
X95451708Y-67175000D01*
X95349263Y-67175000D01*
X100601717Y-61922547D01*
X100613158Y-61913158D01*
X100622549Y-61901715D01*
X100650647Y-61867478D01*
X100678503Y-61815361D01*
X100678504Y-61815360D01*
X100695659Y-61758810D01*
X100700000Y-61714733D01*
X100700000Y-61714724D01*
X100701450Y-61700001D01*
X100700000Y-61685278D01*
X100700000Y-60530959D01*
X100734668Y-60507794D01*
X100807794Y-60434668D01*
X100865249Y-60348681D01*
X100904824Y-60253137D01*
X100925000Y-60151708D01*
X100925000Y-60048292D01*
X100904824Y-59946863D01*
X100865249Y-59851319D01*
X100807794Y-59765332D01*
X100734668Y-59692206D01*
X100648681Y-59634751D01*
X100553137Y-59595176D01*
X100451708Y-59575000D01*
X100348292Y-59575000D01*
X100246863Y-59595176D01*
X100151319Y-59634751D01*
X100065332Y-59692206D01*
X99992206Y-59765332D01*
X99934751Y-59851319D01*
X99895176Y-59946863D01*
X99875000Y-60048292D01*
X99875000Y-60151708D01*
X99895176Y-60253137D01*
X99934751Y-60348681D01*
X99992206Y-60434668D01*
X100065332Y-60507794D01*
X100100001Y-60530959D01*
X100100000Y-61575736D01*
X98686398Y-62989338D01*
X98695659Y-62958810D01*
X98700000Y-62914733D01*
X98700000Y-62914730D01*
X98701451Y-62900000D01*
X98700000Y-62885270D01*
X98700000Y-60114722D01*
X98701450Y-60099999D01*
X98700000Y-60085276D01*
X98700000Y-60085267D01*
X98695659Y-60041190D01*
X98678504Y-59984640D01*
X98658312Y-59946863D01*
X98650647Y-59932522D01*
X98622549Y-59898285D01*
X98613158Y-59886842D01*
X98601715Y-59877451D01*
X98316865Y-59592602D01*
X98325000Y-59551708D01*
X98325000Y-59448292D01*
X98304824Y-59346863D01*
X98265249Y-59251319D01*
X98207794Y-59165332D01*
X98134668Y-59092206D01*
X98048681Y-59034751D01*
X97953137Y-58995176D01*
X97851708Y-58975000D01*
X97748292Y-58975000D01*
X97646863Y-58995176D01*
X97551319Y-59034751D01*
X97465332Y-59092206D01*
X97392206Y-59165332D01*
X97334751Y-59251319D01*
X97295176Y-59346863D01*
X97275000Y-59448292D01*
X97275000Y-59551708D01*
X97295176Y-59653137D01*
X97334751Y-59748681D01*
X97392206Y-59834668D01*
X97465332Y-59907794D01*
X97551319Y-59965249D01*
X97646863Y-60004824D01*
X97748292Y-60025000D01*
X97851708Y-60025000D01*
X97892602Y-60016865D01*
X98100001Y-60224265D01*
X98100001Y-60669042D01*
X98048681Y-60634751D01*
X97953137Y-60595176D01*
X97851708Y-60575000D01*
X97748292Y-60575000D01*
X97646863Y-60595176D01*
X97551319Y-60634751D01*
X97465332Y-60692206D01*
X97392206Y-60765332D01*
X97334751Y-60851319D01*
X97295176Y-60946863D01*
X97275000Y-61048292D01*
X97275000Y-61151708D01*
X97295176Y-61253137D01*
X97334751Y-61348681D01*
X97392206Y-61434668D01*
X97465332Y-61507794D01*
X97551319Y-61565249D01*
X97646863Y-61604824D01*
X97748292Y-61625000D01*
X97851708Y-61625000D01*
X97953137Y-61604824D01*
X98048681Y-61565249D01*
X98100000Y-61530958D01*
X98100000Y-62269042D01*
X98048681Y-62234751D01*
X97953137Y-62195176D01*
X97851708Y-62175000D01*
X97748292Y-62175000D01*
X97646863Y-62195176D01*
X97551319Y-62234751D01*
X97465332Y-62292206D01*
X97392206Y-62365332D01*
X97334751Y-62451319D01*
X97295176Y-62546863D01*
X97275000Y-62648292D01*
X97275000Y-62751708D01*
X97283134Y-62792602D01*
X95475737Y-64600000D01*
X93124264Y-64600000D01*
X93116866Y-64592602D01*
X93125000Y-64551708D01*
X93125000Y-64448292D01*
X93104824Y-64346863D01*
X93065249Y-64251319D01*
X93007794Y-64165332D01*
X92934668Y-64092206D01*
X92848681Y-64034751D01*
X92753137Y-63995176D01*
X92651708Y-63975000D01*
X92548292Y-63975000D01*
X92446863Y-63995176D01*
X92351319Y-64034751D01*
X92300000Y-64069041D01*
X92300000Y-62330959D01*
X92334668Y-62307794D01*
X92407794Y-62234668D01*
X92465249Y-62148681D01*
X92504824Y-62053137D01*
X92525000Y-61951708D01*
X92525000Y-61848292D01*
X92504824Y-61746863D01*
X92465249Y-61651319D01*
X92407794Y-61565332D01*
X92334668Y-61492206D01*
X92248681Y-61434751D01*
X92153137Y-61395176D01*
X92133078Y-61391186D01*
X92924264Y-60600000D01*
X93769041Y-60600000D01*
X93792206Y-60634668D01*
X93865332Y-60707794D01*
X93951319Y-60765249D01*
X94046863Y-60804824D01*
X94148292Y-60825000D01*
X94251708Y-60825000D01*
X94353137Y-60804824D01*
X94448681Y-60765249D01*
X94534668Y-60707794D01*
X94607794Y-60634668D01*
X94665249Y-60548681D01*
X94704824Y-60453137D01*
X94725000Y-60351708D01*
X94725000Y-60248292D01*
X94704824Y-60146863D01*
X94665249Y-60051319D01*
X94607794Y-59965332D01*
X94534668Y-59892206D01*
X94448681Y-59834751D01*
X94353137Y-59795176D01*
X94251708Y-59775000D01*
X94148292Y-59775000D01*
X94046863Y-59795176D01*
X93951319Y-59834751D01*
X93865332Y-59892206D01*
X93792206Y-59965332D01*
X93769041Y-60000000D01*
X92814723Y-60000000D01*
X92800000Y-59998550D01*
X92785277Y-60000000D01*
X92785267Y-60000000D01*
X92741190Y-60004341D01*
X92684640Y-60021496D01*
X92660379Y-60034464D01*
X92632522Y-60049353D01*
X92598285Y-60077451D01*
X92586842Y-60086842D01*
X92577451Y-60098285D01*
X91198286Y-61477451D01*
X91186843Y-61486842D01*
X91177452Y-61498285D01*
X91177451Y-61498286D01*
X91149353Y-61532523D01*
X91121497Y-61584640D01*
X91104342Y-61641190D01*
X91098550Y-61700000D01*
X91100001Y-61714732D01*
X91100000Y-71775736D01*
X90692602Y-72183135D01*
X90651708Y-72175000D01*
X90548292Y-72175000D01*
X90446863Y-72195176D01*
X90351319Y-72234751D01*
X90300000Y-72269041D01*
X90300000Y-68130959D01*
X90334668Y-68107794D01*
X90407794Y-68034668D01*
X90465249Y-67948681D01*
X90504824Y-67853137D01*
X90525000Y-67751708D01*
X90525000Y-67648292D01*
X90504824Y-67546863D01*
X90465249Y-67451319D01*
X90407794Y-67365332D01*
X90334668Y-67292206D01*
X90248681Y-67234751D01*
X90153137Y-67195176D01*
X90051708Y-67175000D01*
X89948292Y-67175000D01*
X89907398Y-67183134D01*
X86822553Y-64098290D01*
X86813158Y-64086842D01*
X86767477Y-64049353D01*
X86715360Y-64021496D01*
X86658810Y-64004341D01*
X86614733Y-64000000D01*
X86614723Y-64000000D01*
X86600000Y-63998550D01*
X86585277Y-64000000D01*
X84830959Y-64000000D01*
X84865249Y-63948681D01*
X84904824Y-63853137D01*
X84925000Y-63751708D01*
X84925000Y-63648292D01*
X84904824Y-63546863D01*
X84865249Y-63451319D01*
X84807794Y-63365332D01*
X84734668Y-63292206D01*
X84648681Y-63234751D01*
X84553137Y-63195176D01*
X84451708Y-63175000D01*
X84348292Y-63175000D01*
X84246863Y-63195176D01*
X84151319Y-63234751D01*
X84065332Y-63292206D01*
X83992206Y-63365332D01*
X83934751Y-63451319D01*
X83895176Y-63546863D01*
X83875000Y-63648292D01*
X83875000Y-63751708D01*
X83895176Y-63853137D01*
X83934751Y-63948681D01*
X83969041Y-64000000D01*
X79524265Y-64000000D01*
X76572557Y-61048292D01*
X81275000Y-61048292D01*
X81275000Y-61151708D01*
X81295176Y-61253137D01*
X81334751Y-61348681D01*
X81392206Y-61434668D01*
X81465332Y-61507794D01*
X81551319Y-61565249D01*
X81646863Y-61604824D01*
X81748292Y-61625000D01*
X81851708Y-61625000D01*
X81880784Y-61619216D01*
X81875000Y-61648292D01*
X81875000Y-61751708D01*
X81895176Y-61853137D01*
X81934751Y-61948681D01*
X81992206Y-62034668D01*
X82065332Y-62107794D01*
X82151319Y-62165249D01*
X82246863Y-62204824D01*
X82348292Y-62225000D01*
X82451708Y-62225000D01*
X82553137Y-62204824D01*
X82648681Y-62165249D01*
X82734668Y-62107794D01*
X82807794Y-62034668D01*
X82830959Y-62000000D01*
X83985277Y-62000000D01*
X84000000Y-62001450D01*
X84014723Y-62000000D01*
X84014733Y-62000000D01*
X84058810Y-61995659D01*
X84115360Y-61978504D01*
X84167477Y-61950647D01*
X84213158Y-61913158D01*
X84222553Y-61901710D01*
X88897671Y-57226592D01*
X101353300Y-57226592D01*
X101353300Y-57330008D01*
X101373476Y-57431437D01*
X101413051Y-57526981D01*
X101470506Y-57612968D01*
X101543632Y-57686094D01*
X101629619Y-57743549D01*
X101725163Y-57783124D01*
X101826592Y-57803300D01*
X101930008Y-57803300D01*
X102031437Y-57783124D01*
X102126981Y-57743549D01*
X102212968Y-57686094D01*
X102286094Y-57612968D01*
X102343549Y-57526981D01*
X102383124Y-57431437D01*
X102403300Y-57330008D01*
X102403300Y-57226592D01*
X102395165Y-57185698D01*
X103001716Y-56579148D01*
X103013158Y-56569758D01*
X103025147Y-56555149D01*
X103050647Y-56524078D01*
X103078504Y-56471960D01*
X103078504Y-56471959D01*
X103095659Y-56415410D01*
X103100000Y-56371333D01*
X103100000Y-56371330D01*
X103101451Y-56356600D01*
X103100000Y-56341870D01*
X103100000Y-49530959D01*
X103134668Y-49507794D01*
X103200000Y-49442462D01*
X103265332Y-49507794D01*
X103300001Y-49530959D01*
X103300000Y-56732336D01*
X103270902Y-56761434D01*
X103230008Y-56753300D01*
X103126592Y-56753300D01*
X103025163Y-56773476D01*
X102929619Y-56813051D01*
X102843632Y-56870506D01*
X102770506Y-56943632D01*
X102713051Y-57029619D01*
X102673476Y-57125163D01*
X102653300Y-57226592D01*
X102653300Y-57330008D01*
X102673476Y-57431437D01*
X102713051Y-57526981D01*
X102770506Y-57612968D01*
X102843632Y-57686094D01*
X102929619Y-57743549D01*
X103025163Y-57783124D01*
X103126592Y-57803300D01*
X103230008Y-57803300D01*
X103331437Y-57783124D01*
X103426981Y-57743549D01*
X103512968Y-57686094D01*
X103586094Y-57612968D01*
X103643549Y-57526981D01*
X103683124Y-57431437D01*
X103703300Y-57330008D01*
X103703300Y-57226592D01*
X103695166Y-57185698D01*
X103801716Y-57079148D01*
X103813158Y-57069758D01*
X103822549Y-57058315D01*
X103850647Y-57024078D01*
X103878504Y-56971961D01*
X103882497Y-56958799D01*
X103895659Y-56915410D01*
X103900000Y-56871333D01*
X103900000Y-56871330D01*
X103901451Y-56856600D01*
X103900000Y-56841870D01*
X103900000Y-52823178D01*
X111280148Y-52823178D01*
X111280148Y-54423178D01*
X111284492Y-54467286D01*
X111297358Y-54509698D01*
X111318251Y-54548786D01*
X111346368Y-54583046D01*
X111380628Y-54611163D01*
X111419716Y-54632056D01*
X111462128Y-54644922D01*
X111506236Y-54649266D01*
X113106236Y-54649266D01*
X113150344Y-54644922D01*
X113192756Y-54632056D01*
X113231844Y-54611163D01*
X113266104Y-54583046D01*
X113294221Y-54548786D01*
X113315114Y-54509698D01*
X113327980Y-54467286D01*
X113332324Y-54423178D01*
X113332324Y-54355841D01*
X115108928Y-54355841D01*
X115191705Y-54511540D01*
X115376824Y-54614359D01*
X115578445Y-54679089D01*
X115788820Y-54703240D01*
X115999864Y-54685885D01*
X116203467Y-54627690D01*
X116391805Y-54530892D01*
X116420767Y-54511540D01*
X116503544Y-54355841D01*
X115806236Y-53658533D01*
X115108928Y-54355841D01*
X113332324Y-54355841D01*
X113332324Y-53605762D01*
X114726174Y-53605762D01*
X114743529Y-53816806D01*
X114801724Y-54020409D01*
X114898522Y-54208747D01*
X114917874Y-54237709D01*
X115073573Y-54320486D01*
X115770881Y-53623178D01*
X115841591Y-53623178D01*
X116538899Y-54320486D01*
X116694598Y-54237709D01*
X116797417Y-54052590D01*
X116862147Y-53850969D01*
X116886298Y-53640594D01*
X116868943Y-53429550D01*
X116810748Y-53225947D01*
X116713950Y-53037609D01*
X116694598Y-53008647D01*
X116538899Y-52925870D01*
X115841591Y-53623178D01*
X115770881Y-53623178D01*
X115073573Y-52925870D01*
X114917874Y-53008647D01*
X114815055Y-53193766D01*
X114750325Y-53395387D01*
X114726174Y-53605762D01*
X113332324Y-53605762D01*
X113332324Y-52890515D01*
X115108928Y-52890515D01*
X115806236Y-53587823D01*
X116503544Y-52890515D01*
X116420767Y-52734816D01*
X116235648Y-52631997D01*
X116034027Y-52567267D01*
X115823652Y-52543116D01*
X115612608Y-52560471D01*
X115409005Y-52618666D01*
X115220667Y-52715464D01*
X115191705Y-52734816D01*
X115108928Y-52890515D01*
X113332324Y-52890515D01*
X113332324Y-52823178D01*
X113327980Y-52779070D01*
X113315114Y-52736658D01*
X113294221Y-52697570D01*
X113266104Y-52663310D01*
X113231844Y-52635193D01*
X113192756Y-52614300D01*
X113150344Y-52601434D01*
X113106236Y-52597090D01*
X111506236Y-52597090D01*
X111462128Y-52601434D01*
X111419716Y-52614300D01*
X111380628Y-52635193D01*
X111346368Y-52663310D01*
X111318251Y-52697570D01*
X111297358Y-52736658D01*
X111284492Y-52779070D01*
X111280148Y-52823178D01*
X103900000Y-52823178D01*
X103900000Y-49530959D01*
X103934668Y-49507794D01*
X104007794Y-49434668D01*
X104065249Y-49348681D01*
X104104824Y-49253137D01*
X104125000Y-49151708D01*
X104125000Y-49048292D01*
X104104824Y-48946863D01*
X104065249Y-48851319D01*
X104007794Y-48765332D01*
X103934668Y-48692206D01*
X103848681Y-48634751D01*
X103753137Y-48595176D01*
X103651708Y-48575000D01*
X103548292Y-48575000D01*
X103446863Y-48595176D01*
X103351319Y-48634751D01*
X103265332Y-48692206D01*
X103200000Y-48757538D01*
X103134668Y-48692206D01*
X103048681Y-48634751D01*
X102953137Y-48595176D01*
X102851708Y-48575000D01*
X102748292Y-48575000D01*
X102646863Y-48595176D01*
X102551319Y-48634751D01*
X102465332Y-48692206D01*
X102392206Y-48765332D01*
X102334751Y-48851319D01*
X102295176Y-48946863D01*
X102275000Y-49048292D01*
X102275000Y-49151708D01*
X102295176Y-49253137D01*
X102334751Y-49348681D01*
X102392206Y-49434668D01*
X102465332Y-49507794D01*
X102500001Y-49530959D01*
X102500000Y-56232336D01*
X101970902Y-56761435D01*
X101930008Y-56753300D01*
X101826592Y-56753300D01*
X101725163Y-56773476D01*
X101629619Y-56813051D01*
X101543632Y-56870506D01*
X101470506Y-56943632D01*
X101413051Y-57029619D01*
X101373476Y-57125163D01*
X101353300Y-57226592D01*
X88897671Y-57226592D01*
X92401717Y-53722547D01*
X92413158Y-53713158D01*
X92423956Y-53700001D01*
X92450647Y-53667478D01*
X92478503Y-53615361D01*
X92478504Y-53615360D01*
X92495659Y-53558810D01*
X92500000Y-53514733D01*
X92500000Y-53514724D01*
X92501450Y-53500001D01*
X92500000Y-53485278D01*
X92500000Y-50130959D01*
X92534668Y-50107794D01*
X92607794Y-50034668D01*
X92665249Y-49948681D01*
X92704824Y-49853137D01*
X92725000Y-49751708D01*
X92725000Y-49648292D01*
X92704824Y-49546863D01*
X92665249Y-49451319D01*
X92607794Y-49365332D01*
X92534668Y-49292206D01*
X92448681Y-49234751D01*
X92353137Y-49195176D01*
X92251708Y-49175000D01*
X92148292Y-49175000D01*
X92046863Y-49195176D01*
X91951319Y-49234751D01*
X91865332Y-49292206D01*
X91800000Y-49357538D01*
X91734668Y-49292206D01*
X91648681Y-49234751D01*
X91553137Y-49195176D01*
X91451708Y-49175000D01*
X91348292Y-49175000D01*
X91246863Y-49195176D01*
X91151319Y-49234751D01*
X91100000Y-49269041D01*
X91100000Y-48848292D01*
X94475000Y-48848292D01*
X94475000Y-48951708D01*
X94495176Y-49053137D01*
X94534751Y-49148681D01*
X94592206Y-49234668D01*
X94665332Y-49307794D01*
X94751319Y-49365249D01*
X94846863Y-49404824D01*
X94948292Y-49425000D01*
X95051708Y-49425000D01*
X95153137Y-49404824D01*
X95248681Y-49365249D01*
X95334668Y-49307794D01*
X95407794Y-49234668D01*
X95465249Y-49148681D01*
X95504824Y-49053137D01*
X95525000Y-48951708D01*
X95525000Y-48848292D01*
X95504824Y-48746863D01*
X95465249Y-48651319D01*
X95407794Y-48565332D01*
X95334668Y-48492206D01*
X95248681Y-48434751D01*
X95153137Y-48395176D01*
X95051708Y-48375000D01*
X94948292Y-48375000D01*
X94846863Y-48395176D01*
X94751319Y-48434751D01*
X94665332Y-48492206D01*
X94592206Y-48565332D01*
X94534751Y-48651319D01*
X94495176Y-48746863D01*
X94475000Y-48848292D01*
X91100000Y-48848292D01*
X91100000Y-48824263D01*
X92075971Y-47848292D01*
X92875000Y-47848292D01*
X92875000Y-47951708D01*
X92895176Y-48053137D01*
X92934751Y-48148681D01*
X92992206Y-48234668D01*
X93065332Y-48307794D01*
X93151319Y-48365249D01*
X93246863Y-48404824D01*
X93348292Y-48425000D01*
X93451708Y-48425000D01*
X93553137Y-48404824D01*
X93648681Y-48365249D01*
X93734668Y-48307794D01*
X93807794Y-48234668D01*
X93865249Y-48148681D01*
X93904824Y-48053137D01*
X93925000Y-47951708D01*
X93925000Y-47848292D01*
X93904824Y-47746863D01*
X93865249Y-47651319D01*
X93807794Y-47565332D01*
X93734668Y-47492206D01*
X93648681Y-47434751D01*
X93553137Y-47395176D01*
X93451708Y-47375000D01*
X96825000Y-47375000D01*
X96825000Y-48150000D01*
X96844769Y-48300715D01*
X96893561Y-48444677D01*
X96969501Y-48576354D01*
X97069671Y-48690686D01*
X97190221Y-48783279D01*
X97326519Y-48850574D01*
X97454134Y-48886150D01*
X97575000Y-48830807D01*
X97575000Y-47375000D01*
X96825000Y-47375000D01*
X93451708Y-47375000D01*
X93348292Y-47375000D01*
X93246863Y-47395176D01*
X93151319Y-47434751D01*
X93065332Y-47492206D01*
X92992206Y-47565332D01*
X92934751Y-47651319D01*
X92895176Y-47746863D01*
X92875000Y-47848292D01*
X92075971Y-47848292D01*
X93374263Y-46550000D01*
X96825000Y-46550000D01*
X96825000Y-47325000D01*
X97575000Y-47325000D01*
X97575000Y-45869193D01*
X97454134Y-45813850D01*
X97326519Y-45849426D01*
X97190221Y-45916721D01*
X97069671Y-46009314D01*
X96969501Y-46123646D01*
X96893561Y-46255323D01*
X96844769Y-46399285D01*
X96825000Y-46550000D01*
X93374263Y-46550000D01*
X94201715Y-45722549D01*
X94213158Y-45713158D01*
X94230353Y-45692206D01*
X94250647Y-45667478D01*
X94278503Y-45615361D01*
X94278504Y-45615360D01*
X94295659Y-45558810D01*
X94300000Y-45514733D01*
X94300000Y-45514724D01*
X94301450Y-45500001D01*
X94300000Y-45485278D01*
X94300000Y-44145000D01*
X96825000Y-44145000D01*
X96825000Y-44845000D01*
X96844769Y-44995715D01*
X96893561Y-45139677D01*
X96969501Y-45271354D01*
X97069671Y-45385686D01*
X97190221Y-45478279D01*
X97326519Y-45545574D01*
X97454134Y-45581150D01*
X97575000Y-45525807D01*
X97575000Y-44145000D01*
X96825000Y-44145000D01*
X94300000Y-44145000D01*
X94300000Y-44130959D01*
X94334668Y-44107794D01*
X94407794Y-44034668D01*
X94465249Y-43948681D01*
X94504824Y-43853137D01*
X94525000Y-43751708D01*
X94525000Y-43648292D01*
X94504824Y-43546863D01*
X94465249Y-43451319D01*
X94427618Y-43395000D01*
X96825000Y-43395000D01*
X96825000Y-44095000D01*
X97575000Y-44095000D01*
X97575000Y-42714193D01*
X97454134Y-42658850D01*
X97326519Y-42694426D01*
X97190221Y-42761721D01*
X97069671Y-42854314D01*
X96969501Y-42968646D01*
X96893561Y-43100323D01*
X96844769Y-43244285D01*
X96825000Y-43395000D01*
X94427618Y-43395000D01*
X94407794Y-43365332D01*
X94334668Y-43292206D01*
X94248681Y-43234751D01*
X94153137Y-43195176D01*
X94051708Y-43175000D01*
X93948292Y-43175000D01*
X93846863Y-43195176D01*
X93751319Y-43234751D01*
X93665332Y-43292206D01*
X93592206Y-43365332D01*
X93534751Y-43451319D01*
X93495176Y-43546863D01*
X93475000Y-43648292D01*
X93475000Y-43751708D01*
X93495176Y-43853137D01*
X93534751Y-43948681D01*
X93592206Y-44034668D01*
X93665332Y-44107794D01*
X93700000Y-44130959D01*
X93700001Y-45375735D01*
X90598290Y-48477447D01*
X90586842Y-48486842D01*
X90566358Y-48511802D01*
X90549353Y-48532523D01*
X90534464Y-48560380D01*
X90521496Y-48584641D01*
X90504341Y-48641191D01*
X90500000Y-48685268D01*
X90500000Y-48685277D01*
X90498550Y-48700000D01*
X90500000Y-48714723D01*
X90500001Y-53575735D01*
X83875737Y-60200000D01*
X82414722Y-60200000D01*
X82399999Y-60198550D01*
X82385276Y-60200000D01*
X82385267Y-60200000D01*
X82341190Y-60204341D01*
X82284640Y-60221496D01*
X82260379Y-60234464D01*
X82232522Y-60249353D01*
X82198285Y-60277451D01*
X82186842Y-60286842D01*
X82177451Y-60298285D01*
X81892602Y-60583135D01*
X81851708Y-60575000D01*
X81748292Y-60575000D01*
X81646863Y-60595176D01*
X81551319Y-60634751D01*
X81465332Y-60692206D01*
X81392206Y-60765332D01*
X81334751Y-60851319D01*
X81295176Y-60946863D01*
X81275000Y-61048292D01*
X76572557Y-61048292D01*
X67972556Y-52448292D01*
X69275000Y-52448292D01*
X69275000Y-52551708D01*
X69295176Y-52653137D01*
X69334751Y-52748681D01*
X69392206Y-52834668D01*
X69465332Y-52907794D01*
X69551319Y-52965249D01*
X69646863Y-53004824D01*
X69748292Y-53025000D01*
X69851708Y-53025000D01*
X69953137Y-53004824D01*
X70048681Y-52965249D01*
X70134668Y-52907794D01*
X70207794Y-52834668D01*
X70265249Y-52748681D01*
X70304824Y-52653137D01*
X70325000Y-52551708D01*
X70325000Y-52448292D01*
X70304824Y-52346863D01*
X70265249Y-52251319D01*
X70207794Y-52165332D01*
X70134668Y-52092206D01*
X70048681Y-52034751D01*
X69953137Y-51995176D01*
X69851708Y-51975000D01*
X69748292Y-51975000D01*
X69646863Y-51995176D01*
X69551319Y-52034751D01*
X69465332Y-52092206D01*
X69392206Y-52165332D01*
X69334751Y-52251319D01*
X69295176Y-52346863D01*
X69275000Y-52448292D01*
X67972556Y-52448292D01*
X67700000Y-52175737D01*
X67700000Y-50525000D01*
X71070000Y-50525000D01*
X71070000Y-51325000D01*
X71095533Y-51534242D01*
X71161397Y-51734482D01*
X71265060Y-51918025D01*
X71402538Y-52077818D01*
X71568549Y-52207720D01*
X71756713Y-52302738D01*
X71952186Y-52357567D01*
X72120000Y-52305939D01*
X72120000Y-50525000D01*
X71070000Y-50525000D01*
X67700000Y-50525000D01*
X67700000Y-49675000D01*
X71070000Y-49675000D01*
X71070000Y-50475000D01*
X72120000Y-50475000D01*
X72120000Y-48694061D01*
X71952186Y-48642433D01*
X71756713Y-48697262D01*
X71568549Y-48792280D01*
X71402538Y-48922182D01*
X71265060Y-49081975D01*
X71161397Y-49265518D01*
X71095533Y-49465758D01*
X71070000Y-49675000D01*
X67700000Y-49675000D01*
X67700000Y-44615394D01*
X67753137Y-44604824D01*
X67848681Y-44565249D01*
X67934668Y-44507794D01*
X68007794Y-44434668D01*
X68065249Y-44348681D01*
X68104824Y-44253137D01*
X68105787Y-44248292D01*
X69675000Y-44248292D01*
X69675000Y-44351708D01*
X69695176Y-44453137D01*
X69734751Y-44548681D01*
X69792206Y-44634668D01*
X69865332Y-44707794D01*
X69951319Y-44765249D01*
X70046863Y-44804824D01*
X70148292Y-44825000D01*
X70251708Y-44825000D01*
X70353137Y-44804824D01*
X70448681Y-44765249D01*
X70534668Y-44707794D01*
X70607794Y-44634668D01*
X70665249Y-44548681D01*
X70704824Y-44453137D01*
X70725000Y-44351708D01*
X70725000Y-44248292D01*
X70704824Y-44146863D01*
X70665249Y-44051319D01*
X70607794Y-43965332D01*
X70534668Y-43892206D01*
X70448681Y-43834751D01*
X70353137Y-43795176D01*
X70251708Y-43775000D01*
X70148292Y-43775000D01*
X70046863Y-43795176D01*
X69951319Y-43834751D01*
X69865332Y-43892206D01*
X69792206Y-43965332D01*
X69734751Y-44051319D01*
X69695176Y-44146863D01*
X69675000Y-44248292D01*
X68105787Y-44248292D01*
X68125000Y-44151708D01*
X68125000Y-44048292D01*
X68104824Y-43946863D01*
X68065249Y-43851319D01*
X68007794Y-43765332D01*
X67967462Y-43725000D01*
X71070000Y-43725000D01*
X71070000Y-44525000D01*
X71095533Y-44734242D01*
X71161397Y-44934482D01*
X71265060Y-45118025D01*
X71402538Y-45277818D01*
X71568549Y-45407720D01*
X71756713Y-45502738D01*
X71952186Y-45557567D01*
X72120000Y-45505939D01*
X72120000Y-43725000D01*
X71070000Y-43725000D01*
X67967462Y-43725000D01*
X67942462Y-43700000D01*
X68007794Y-43634668D01*
X68065249Y-43548681D01*
X68104824Y-43453137D01*
X68125000Y-43351708D01*
X68125000Y-43248292D01*
X68104824Y-43146863D01*
X68065249Y-43051319D01*
X68007794Y-42965332D01*
X67934668Y-42892206D01*
X67908918Y-42875000D01*
X71070000Y-42875000D01*
X71070000Y-43675000D01*
X72120000Y-43675000D01*
X72120000Y-41894061D01*
X71952186Y-41842433D01*
X71756713Y-41897262D01*
X71568549Y-41992280D01*
X71402538Y-42122182D01*
X71265060Y-42281975D01*
X71161397Y-42465518D01*
X71095533Y-42665758D01*
X71070000Y-42875000D01*
X67908918Y-42875000D01*
X67848681Y-42834751D01*
X67753137Y-42795176D01*
X67651708Y-42775000D01*
X67548292Y-42775000D01*
X67446863Y-42795176D01*
X67351319Y-42834751D01*
X67265332Y-42892206D01*
X67192206Y-42965332D01*
X67134751Y-43051319D01*
X67095176Y-43146863D01*
X67075000Y-43248292D01*
X67075000Y-43351708D01*
X67083135Y-43392602D01*
X66800000Y-43675736D01*
X66516865Y-43392602D01*
X66525000Y-43351708D01*
X66525000Y-43248292D01*
X66504824Y-43146863D01*
X66465249Y-43051319D01*
X66407794Y-42965332D01*
X66334668Y-42892206D01*
X66248681Y-42834751D01*
X66153137Y-42795176D01*
X66051708Y-42775000D01*
X65948292Y-42775000D01*
X65846863Y-42795176D01*
X65751319Y-42834751D01*
X65665332Y-42892206D01*
X65592206Y-42965332D01*
X65534751Y-43051319D01*
X65495176Y-43146863D01*
X65475000Y-43248292D01*
X62075000Y-43248292D01*
X62075000Y-41775000D01*
X72158503Y-41775000D01*
X72198909Y-41771020D01*
X72250747Y-41755296D01*
X72298521Y-41729760D01*
X72304260Y-41725050D01*
X73074950Y-41725050D01*
X73074950Y-42370522D01*
G37*
X73074950Y-42370522D02*
X73024940Y-42281975D01*
X72887462Y-42122182D01*
X72721451Y-41992280D01*
X72533287Y-41897262D01*
X72337814Y-41842433D01*
X72170000Y-41894061D01*
X72170000Y-43675000D01*
X72190000Y-43675000D01*
X72190000Y-43725000D01*
X72170000Y-43725000D01*
X72170000Y-45505939D01*
X72337814Y-45557567D01*
X72533287Y-45502738D01*
X72721451Y-45407720D01*
X72887462Y-45277818D01*
X73024940Y-45118025D01*
X73074950Y-45029478D01*
X73074951Y-49170522D01*
X73024940Y-49081975D01*
X72887462Y-48922182D01*
X72721451Y-48792280D01*
X72533287Y-48697262D01*
X72337814Y-48642433D01*
X72170000Y-48694061D01*
X72170000Y-50475000D01*
X72190000Y-50475000D01*
X72190000Y-50525000D01*
X72170000Y-50525000D01*
X72170000Y-52305939D01*
X72337814Y-52357567D01*
X72533287Y-52302738D01*
X72721451Y-52207720D01*
X72887462Y-52077818D01*
X73024940Y-51918025D01*
X73074951Y-51829477D01*
X73074951Y-54511047D01*
X73076076Y-54522470D01*
X73076076Y-54529431D01*
X73076405Y-54532556D01*
X73088044Y-54636320D01*
X73092287Y-54656281D01*
X73096247Y-54676281D01*
X73097173Y-54679274D01*
X73097175Y-54679281D01*
X73097178Y-54679287D01*
X73128748Y-54778809D01*
X73136776Y-54797540D01*
X73144555Y-54816413D01*
X73146050Y-54819177D01*
X73196351Y-54910675D01*
X73207870Y-54927498D01*
X73219163Y-54944495D01*
X73221165Y-54946916D01*
X73288281Y-55026902D01*
X73302871Y-55041189D01*
X73317228Y-55055647D01*
X73319663Y-55057633D01*
X73401037Y-55123059D01*
X73418092Y-55134220D01*
X73435015Y-55145634D01*
X73437789Y-55147109D01*
X73530320Y-55195483D01*
X73549249Y-55203131D01*
X73568035Y-55211028D01*
X73571037Y-55211934D01*
X73571044Y-55211937D01*
X73571051Y-55211938D01*
X73671209Y-55241417D01*
X73691246Y-55245239D01*
X73711228Y-55249341D01*
X73714355Y-55249648D01*
X73818339Y-55259111D01*
X73838735Y-55258968D01*
X73859132Y-55259111D01*
X73862259Y-55258804D01*
X73862261Y-55258804D01*
X73966101Y-55247890D01*
X73986102Y-55243785D01*
X74006118Y-55239966D01*
X74009118Y-55239060D01*
X74009125Y-55239059D01*
X74009131Y-55239056D01*
X74108871Y-55208182D01*
X74127677Y-55200277D01*
X74146587Y-55192637D01*
X74149356Y-55191164D01*
X74149360Y-55191162D01*
X74149363Y-55191160D01*
X74241208Y-55141499D01*
X74258081Y-55130118D01*
X74275186Y-55118925D01*
X74277621Y-55116939D01*
X74358073Y-55050382D01*
X74372428Y-55035926D01*
X74387018Y-55021639D01*
X74389021Y-55019218D01*
X74455014Y-54938303D01*
X74466307Y-54921306D01*
X74477826Y-54904483D01*
X74479317Y-54901724D01*
X74479320Y-54901720D01*
X74479322Y-54901716D01*
X74528339Y-54809528D01*
X74536107Y-54790682D01*
X74544148Y-54771921D01*
X74545077Y-54768919D01*
X74558322Y-54725050D01*
X78181695Y-54725050D01*
X78198748Y-54778809D01*
X78206776Y-54797540D01*
X78214555Y-54816413D01*
X78216050Y-54819177D01*
X78266351Y-54910675D01*
X78277870Y-54927498D01*
X78289163Y-54944495D01*
X78291165Y-54946916D01*
X78358281Y-55026902D01*
X78372871Y-55041189D01*
X78387228Y-55055647D01*
X78389663Y-55057633D01*
X78471037Y-55123059D01*
X78488092Y-55134220D01*
X78505015Y-55145634D01*
X78507789Y-55147109D01*
X78600320Y-55195483D01*
X78619249Y-55203131D01*
X78638035Y-55211028D01*
X78641037Y-55211934D01*
X78641044Y-55211937D01*
X78641051Y-55211938D01*
X78741209Y-55241417D01*
X78761246Y-55245239D01*
X78781228Y-55249341D01*
X78784355Y-55249648D01*
X78888339Y-55259111D01*
X78908735Y-55258968D01*
X78929132Y-55259111D01*
X78932259Y-55258804D01*
X78932261Y-55258804D01*
X79036101Y-55247890D01*
X79056102Y-55243785D01*
X79076118Y-55239966D01*
X79079118Y-55239060D01*
X79079125Y-55239059D01*
X79079131Y-55239056D01*
X79178871Y-55208182D01*
X79197677Y-55200277D01*
X79216587Y-55192637D01*
X79219356Y-55191164D01*
X79219360Y-55191162D01*
X79219363Y-55191160D01*
X79311208Y-55141499D01*
X79328081Y-55130118D01*
X79345186Y-55118925D01*
X79347621Y-55116939D01*
X79428073Y-55050382D01*
X79442428Y-55035926D01*
X79457018Y-55021639D01*
X79459021Y-55019218D01*
X79525014Y-54938303D01*
X79536307Y-54921306D01*
X79547826Y-54904483D01*
X79549317Y-54901724D01*
X79549320Y-54901720D01*
X79549322Y-54901716D01*
X79598339Y-54809528D01*
X79606107Y-54790682D01*
X79614148Y-54771921D01*
X79615077Y-54768919D01*
X79645256Y-54668962D01*
X79649228Y-54648901D01*
X79653458Y-54629001D01*
X79653787Y-54625876D01*
X79663976Y-54521961D01*
X79663976Y-54521952D01*
X79665050Y-54511047D01*
X79665050Y-51829479D01*
X79715060Y-51918025D01*
X79852538Y-52077818D01*
X80018549Y-52207720D01*
X80206713Y-52302738D01*
X80402186Y-52357567D01*
X80570000Y-52305939D01*
X80570000Y-50525000D01*
X80620000Y-50525000D01*
X80620000Y-52305939D01*
X80787814Y-52357567D01*
X80983287Y-52302738D01*
X81171451Y-52207720D01*
X81337462Y-52077818D01*
X81474940Y-51918025D01*
X81578603Y-51734482D01*
X81644467Y-51534242D01*
X81670000Y-51325000D01*
X81670000Y-50525000D01*
X80620000Y-50525000D01*
X80570000Y-50525000D01*
X80550000Y-50525000D01*
X80550000Y-50475000D01*
X80570000Y-50475000D01*
X80570000Y-48694061D01*
X80620000Y-48694061D01*
X80620000Y-50475000D01*
X81670000Y-50475000D01*
X81670000Y-49675000D01*
X81644467Y-49465758D01*
X81578603Y-49265518D01*
X81474940Y-49081975D01*
X81337462Y-48922182D01*
X81171451Y-48792280D01*
X80983287Y-48697262D01*
X80787814Y-48642433D01*
X80620000Y-48694061D01*
X80570000Y-48694061D01*
X80402186Y-48642433D01*
X80206713Y-48697262D01*
X80018549Y-48792280D01*
X79852538Y-48922182D01*
X79715060Y-49081975D01*
X79665050Y-49170521D01*
X79665050Y-45029479D01*
X79715060Y-45118025D01*
X79852538Y-45277818D01*
X80018549Y-45407720D01*
X80206713Y-45502738D01*
X80402186Y-45557567D01*
X80570000Y-45505939D01*
X80570000Y-43725000D01*
X80620000Y-43725000D01*
X80620000Y-45505939D01*
X80787814Y-45557567D01*
X80983287Y-45502738D01*
X81171451Y-45407720D01*
X81337462Y-45277818D01*
X81474940Y-45118025D01*
X81578603Y-44934482D01*
X81644467Y-44734242D01*
X81670000Y-44525000D01*
X81670000Y-43725000D01*
X80620000Y-43725000D01*
X80570000Y-43725000D01*
X80550000Y-43725000D01*
X80550000Y-43675000D01*
X80570000Y-43675000D01*
X80570000Y-41894061D01*
X80620000Y-41894061D01*
X80620000Y-43675000D01*
X81670000Y-43675000D01*
X81670000Y-42875000D01*
X81644467Y-42665758D01*
X81578603Y-42465518D01*
X81474940Y-42281975D01*
X81337462Y-42122182D01*
X81171451Y-41992280D01*
X80983287Y-41897262D01*
X80787814Y-41842433D01*
X80620000Y-41894061D01*
X80570000Y-41894061D01*
X80402186Y-41842433D01*
X80206713Y-41897262D01*
X80018549Y-41992280D01*
X79852538Y-42122182D01*
X79715060Y-42281975D01*
X79665050Y-42370521D01*
X79665050Y-41725050D01*
X80435740Y-41725050D01*
X80441479Y-41729760D01*
X80489253Y-41755296D01*
X80541091Y-41771020D01*
X80581497Y-41775000D01*
X95924762Y-41775000D01*
X95944130Y-41780875D01*
X95986010Y-41785000D01*
X98040001Y-41785000D01*
X98040001Y-42784934D01*
X98009779Y-42761721D01*
X97873481Y-42694426D01*
X97745866Y-42658850D01*
X97625000Y-42714193D01*
X97625000Y-44095000D01*
X97645000Y-44095000D01*
X97645000Y-44145000D01*
X97625000Y-44145000D01*
X97625000Y-45525807D01*
X97745866Y-45581150D01*
X97873481Y-45545574D01*
X98009779Y-45478279D01*
X98040000Y-45455066D01*
X98040000Y-45939934D01*
X98009779Y-45916721D01*
X97873481Y-45849426D01*
X97745866Y-45813850D01*
X97625000Y-45869193D01*
X97625000Y-47325000D01*
X97645000Y-47325000D01*
X97645000Y-47375000D01*
X97625000Y-47375000D01*
X97625000Y-48830807D01*
X97745866Y-48886150D01*
X97873481Y-48850574D01*
X98009779Y-48783279D01*
X98130329Y-48690686D01*
X98230499Y-48576354D01*
X98306439Y-48444677D01*
X98355231Y-48300715D01*
X98375000Y-48150000D01*
X98375000Y-47505000D01*
X107625000Y-47505000D01*
X107625000Y-48150000D01*
X107644769Y-48300715D01*
X107693561Y-48444677D01*
X107769501Y-48576354D01*
X107869671Y-48690686D01*
X107990221Y-48783279D01*
X108126519Y-48850574D01*
X108254134Y-48886150D01*
X108375000Y-48830807D01*
X108375000Y-47375000D01*
X108425000Y-47375000D01*
X108425000Y-48830807D01*
X108545866Y-48886150D01*
X108673481Y-48850574D01*
X108809779Y-48783279D01*
X108930329Y-48690686D01*
X109030499Y-48576354D01*
X109106439Y-48444677D01*
X109155231Y-48300715D01*
X109175000Y-48150000D01*
X109175000Y-47375000D01*
X108425000Y-47375000D01*
X108375000Y-47375000D01*
X108355000Y-47375000D01*
X108355000Y-47325000D01*
X108375000Y-47325000D01*
X108375000Y-45869193D01*
X108425000Y-45869193D01*
X108425000Y-47325000D01*
X109175000Y-47325000D01*
X109175000Y-46550000D01*
X109155231Y-46399285D01*
X109106439Y-46255323D01*
X109030499Y-46123646D01*
X108930329Y-46009314D01*
X108809779Y-45916721D01*
X108673481Y-45849426D01*
X108545866Y-45813850D01*
X108425000Y-45869193D01*
X108375000Y-45869193D01*
X108254134Y-45813850D01*
X108126519Y-45849426D01*
X107990221Y-45916721D01*
X107960000Y-45939933D01*
X107960000Y-45455067D01*
X107990221Y-45478279D01*
X108126519Y-45545574D01*
X108254134Y-45581150D01*
X108375000Y-45525807D01*
X108375000Y-44145000D01*
X108425000Y-44145000D01*
X108425000Y-45525807D01*
X108545866Y-45581150D01*
X108673481Y-45545574D01*
X108809779Y-45478279D01*
X108930329Y-45385686D01*
X109030499Y-45271354D01*
X109106439Y-45139677D01*
X109155231Y-44995715D01*
X109175000Y-44845000D01*
X109175000Y-44145000D01*
X108425000Y-44145000D01*
X108375000Y-44145000D01*
X108355000Y-44145000D01*
X108355000Y-44095000D01*
X108375000Y-44095000D01*
X108375000Y-42714193D01*
X108425000Y-42714193D01*
X108425000Y-44095000D01*
X109175000Y-44095000D01*
X109175000Y-43395000D01*
X109155231Y-43244285D01*
X109106439Y-43100323D01*
X109030499Y-42968646D01*
X108930329Y-42854314D01*
X108809779Y-42761721D01*
X108673481Y-42694426D01*
X108545866Y-42658850D01*
X108425000Y-42714193D01*
X108375000Y-42714193D01*
X108254134Y-42658850D01*
X108126519Y-42694426D01*
X107990221Y-42761721D01*
X107960000Y-42784933D01*
X107960000Y-41785000D01*
X110013990Y-41785000D01*
X110055870Y-41780875D01*
X110075238Y-41775000D01*
X112299695Y-41775000D01*
X112236856Y-41837839D01*
X112157513Y-41956584D01*
X112102861Y-42088525D01*
X112075000Y-42228594D01*
X112075000Y-42371406D01*
X112102861Y-42511475D01*
X112157513Y-42643416D01*
X112236856Y-42762161D01*
X112337839Y-42863144D01*
X112456584Y-42942487D01*
X112588525Y-42997139D01*
X112728594Y-43025000D01*
X112871406Y-43025000D01*
X113011475Y-42997139D01*
X113143416Y-42942487D01*
X113262161Y-42863144D01*
X113363144Y-42762161D01*
X113400000Y-42707002D01*
X113436856Y-42762161D01*
X113537839Y-42863144D01*
X113656584Y-42942487D01*
X113788525Y-42997139D01*
X113928594Y-43025000D01*
X114071406Y-43025000D01*
X114211475Y-42997139D01*
X114343416Y-42942487D01*
X114462161Y-42863144D01*
X114563144Y-42762161D01*
X114642487Y-42643416D01*
X114697139Y-42511475D01*
X114725000Y-42371406D01*
X114725000Y-42228594D01*
X114697139Y-42088525D01*
X114642487Y-41956584D01*
X114563144Y-41837839D01*
X114500305Y-41775000D01*
X117925000Y-41775000D01*
X117925000Y-54860324D01*
X109245928Y-54860324D01*
X109231195Y-54858873D01*
X109216462Y-54860324D01*
X109172385Y-54864665D01*
X109115835Y-54881820D01*
X109063718Y-54909677D01*
X109018037Y-54947166D01*
X108980548Y-54992847D01*
X108952691Y-55044964D01*
X108935536Y-55101514D01*
X108929744Y-55160324D01*
X108931195Y-55175057D01*
X108931196Y-77595581D01*
X108929744Y-77610324D01*
X108935536Y-77669134D01*
X108952691Y-77725684D01*
X108980548Y-77777801D01*
X109018037Y-77823482D01*
X109063718Y-77860971D01*
X109115835Y-77888828D01*
X109172385Y-77905983D01*
X109216462Y-77910324D01*
X109231195Y-77911775D01*
X109245928Y-77910324D01*
X117925000Y-77910324D01*
X117925000Y-121225000D01*
X62075000Y-121225000D01*
X62075000Y-106603971D01*
X77585000Y-106603971D01*
X77585000Y-106796029D01*
X77622468Y-106984397D01*
X77695966Y-107161836D01*
X77802668Y-107321527D01*
X77938473Y-107457332D01*
X78098164Y-107564034D01*
X78275603Y-107637532D01*
X78463971Y-107675000D01*
X78656029Y-107675000D01*
X78844397Y-107637532D01*
X79021836Y-107564034D01*
X79181527Y-107457332D01*
X79317332Y-107321527D01*
X79424034Y-107161836D01*
X79497532Y-106984397D01*
X79535000Y-106796029D01*
X79535000Y-106603971D01*
X80125000Y-106603971D01*
X80125000Y-106796029D01*
X80162468Y-106984397D01*
X80235966Y-107161836D01*
X80342668Y-107321527D01*
X80478473Y-107457332D01*
X80638164Y-107564034D01*
X80815603Y-107637532D01*
X81003971Y-107675000D01*
X81196029Y-107675000D01*
X81384397Y-107637532D01*
X81561836Y-107564034D01*
X81721527Y-107457332D01*
X81857332Y-107321527D01*
X81964034Y-107161836D01*
X82037532Y-106984397D01*
X82075000Y-106796029D01*
X82075000Y-106603971D01*
X82037532Y-106415603D01*
X81964034Y-106238164D01*
X81857332Y-106078473D01*
X81721527Y-105942668D01*
X81561836Y-105835966D01*
X81384397Y-105762468D01*
X81196029Y-105725000D01*
X81003971Y-105725000D01*
X80815603Y-105762468D01*
X80638164Y-105835966D01*
X80478473Y-105942668D01*
X80342668Y-106078473D01*
X80235966Y-106238164D01*
X80162468Y-106415603D01*
X80125000Y-106603971D01*
X79535000Y-106603971D01*
X79497532Y-106415603D01*
X79424034Y-106238164D01*
X79317332Y-106078473D01*
X79181527Y-105942668D01*
X79021836Y-105835966D01*
X78844397Y-105762468D01*
X78656029Y-105725000D01*
X78463971Y-105725000D01*
X78275603Y-105762468D01*
X78098164Y-105835966D01*
X77938473Y-105942668D01*
X77802668Y-106078473D01*
X77695966Y-106238164D01*
X77622468Y-106415603D01*
X77585000Y-106603971D01*
X62075000Y-106603971D01*
X62075000Y-81203971D01*
X77585000Y-81203971D01*
X77585000Y-81396029D01*
X77622468Y-81584397D01*
X77695966Y-81761836D01*
X77802668Y-81921527D01*
X77938473Y-82057332D01*
X78098164Y-82164034D01*
X78275603Y-82237532D01*
X78463971Y-82275000D01*
X78656029Y-82275000D01*
X78844397Y-82237532D01*
X79021836Y-82164034D01*
X79181527Y-82057332D01*
X79317332Y-81921527D01*
X79424034Y-81761836D01*
X79497532Y-81584397D01*
X79535000Y-81396029D01*
X79535000Y-81203971D01*
X80125000Y-81203971D01*
X80125000Y-81396029D01*
X80162468Y-81584397D01*
X80235966Y-81761836D01*
X80342668Y-81921527D01*
X80478473Y-82057332D01*
X80638164Y-82164034D01*
X80815603Y-82237532D01*
X81003971Y-82275000D01*
X81196029Y-82275000D01*
X81384397Y-82237532D01*
X81561836Y-82164034D01*
X81721527Y-82057332D01*
X81857332Y-81921527D01*
X81964034Y-81761836D01*
X82037532Y-81584397D01*
X82075000Y-81396029D01*
X82075000Y-81203971D01*
X82665000Y-81203971D01*
X82665000Y-81396029D01*
X82702468Y-81584397D01*
X82775966Y-81761836D01*
X82882668Y-81921527D01*
X83018473Y-82057332D01*
X83178164Y-82164034D01*
X83355603Y-82237532D01*
X83543971Y-82275000D01*
X83736029Y-82275000D01*
X83924397Y-82237532D01*
X84101836Y-82164034D01*
X84261527Y-82057332D01*
X84397332Y-81921527D01*
X84504034Y-81761836D01*
X84577532Y-81584397D01*
X84615000Y-81396029D01*
X84615000Y-81203971D01*
X84577532Y-81015603D01*
X84504034Y-80838164D01*
X84397332Y-80678473D01*
X84261527Y-80542668D01*
X84101836Y-80435966D01*
X83924397Y-80362468D01*
X83736029Y-80325000D01*
X83543971Y-80325000D01*
X83355603Y-80362468D01*
X83178164Y-80435966D01*
X83018473Y-80542668D01*
X82882668Y-80678473D01*
X82775966Y-80838164D01*
X82702468Y-81015603D01*
X82665000Y-81203971D01*
X82075000Y-81203971D01*
X82037532Y-81015603D01*
X81964034Y-80838164D01*
X81857332Y-80678473D01*
X81721527Y-80542668D01*
X81561836Y-80435966D01*
X81384397Y-80362468D01*
X81196029Y-80325000D01*
X81003971Y-80325000D01*
X80815603Y-80362468D01*
X80638164Y-80435966D01*
X80478473Y-80542668D01*
X80342668Y-80678473D01*
X80235966Y-80838164D01*
X80162468Y-81015603D01*
X80125000Y-81203971D01*
X79535000Y-81203971D01*
X79497532Y-81015603D01*
X79424034Y-80838164D01*
X79317332Y-80678473D01*
X79181527Y-80542668D01*
X79021836Y-80435966D01*
X78844397Y-80362468D01*
X78656029Y-80325000D01*
X78463971Y-80325000D01*
X78275603Y-80362468D01*
X78098164Y-80435966D01*
X77938473Y-80542668D01*
X77802668Y-80678473D01*
X77695966Y-80838164D01*
X77622468Y-81015603D01*
X77585000Y-81203971D01*
X62075000Y-81203971D01*
X62075000Y-74648292D01*
X68275000Y-74648292D01*
X68275000Y-74751708D01*
X68295176Y-74853137D01*
X68334751Y-74948681D01*
X68392206Y-75034668D01*
X68465332Y-75107794D01*
X68551319Y-75165249D01*
X68646863Y-75204824D01*
X68748292Y-75225000D01*
X68851708Y-75225000D01*
X68953137Y-75204824D01*
X69048681Y-75165249D01*
X69134668Y-75107794D01*
X69207794Y-75034668D01*
X69265249Y-74948681D01*
X69304824Y-74853137D01*
X69325000Y-74751708D01*
X69325000Y-74648292D01*
X69304824Y-74546863D01*
X69265249Y-74451319D01*
X69207794Y-74365332D01*
X69134668Y-74292206D01*
X69048681Y-74234751D01*
X68953137Y-74195176D01*
X68851708Y-74175000D01*
X68748292Y-74175000D01*
X68646863Y-74195176D01*
X68551319Y-74234751D01*
X68465332Y-74292206D01*
X68392206Y-74365332D01*
X68334751Y-74451319D01*
X68295176Y-74546863D01*
X68275000Y-74648292D01*
X62075000Y-74648292D01*
X62075000Y-46048292D01*
X64075000Y-46048292D01*
X64075000Y-46151708D01*
X64095176Y-46253137D01*
X64134751Y-46348681D01*
X64192206Y-46434668D01*
X64265332Y-46507794D01*
X64351319Y-46565249D01*
X64446863Y-46604824D01*
X64548292Y-46625000D01*
X64651708Y-46625000D01*
X64753137Y-46604824D01*
X64848681Y-46565249D01*
X64934668Y-46507794D01*
X65007794Y-46434668D01*
X65065249Y-46348681D01*
X65104824Y-46253137D01*
X65125000Y-46151708D01*
X65125000Y-46048292D01*
X65104824Y-45946863D01*
X65065249Y-45851319D01*
X65007794Y-45765332D01*
X64934668Y-45692206D01*
X64848681Y-45634751D01*
X64753137Y-45595176D01*
X64651708Y-45575000D01*
X64548292Y-45575000D01*
X64446863Y-45595176D01*
X64351319Y-45634751D01*
X64265332Y-45692206D01*
X64192206Y-45765332D01*
X64134751Y-45851319D01*
X64095176Y-45946863D01*
X64075000Y-46048292D01*
X62075000Y-46048292D01*
X62075000Y-43248292D01*
X65475000Y-43248292D01*
X65475000Y-43351708D01*
X65495176Y-43453137D01*
X65534751Y-43548681D01*
X65592206Y-43634668D01*
X65657538Y-43700000D01*
X65592206Y-43765332D01*
X65534751Y-43851319D01*
X65495176Y-43946863D01*
X65475000Y-44048292D01*
X65475000Y-44151708D01*
X65495176Y-44253137D01*
X65534751Y-44348681D01*
X65592206Y-44434668D01*
X65665332Y-44507794D01*
X65751319Y-44565249D01*
X65846863Y-44604824D01*
X65900001Y-44615394D01*
X65900000Y-52885277D01*
X65898550Y-52900000D01*
X65900000Y-52914723D01*
X65900000Y-52914732D01*
X65904341Y-52958809D01*
X65921496Y-53015359D01*
X65921497Y-53015360D01*
X65949353Y-53067477D01*
X65966358Y-53088198D01*
X65986842Y-53113158D01*
X65998290Y-53122553D01*
X75875736Y-63000000D01*
X72124730Y-63000000D01*
X72110000Y-62998549D01*
X72095270Y-63000000D01*
X72095267Y-63000000D01*
X72051190Y-63004341D01*
X71994640Y-63021496D01*
X71942522Y-63049353D01*
X71920437Y-63067478D01*
X71896842Y-63086842D01*
X71887451Y-63098285D01*
X71584892Y-63400845D01*
X71541475Y-63382861D01*
X71401406Y-63355000D01*
X71258594Y-63355000D01*
X71118525Y-63382861D01*
X70986584Y-63437513D01*
X70867839Y-63516856D01*
X70766856Y-63617839D01*
X70687513Y-63736584D01*
X70632861Y-63868525D01*
X70605000Y-64008594D01*
X70605000Y-64151406D01*
X70632861Y-64291475D01*
X70687513Y-64423416D01*
X70766856Y-64542161D01*
X70867839Y-64643144D01*
X70975379Y-64715000D01*
X70867839Y-64786856D01*
X70766856Y-64887839D01*
X70687513Y-65006584D01*
X70632861Y-65138525D01*
X70605000Y-65278594D01*
X70605000Y-65421406D01*
X70632861Y-65561475D01*
X70687513Y-65693416D01*
X70766856Y-65812161D01*
X70867839Y-65913144D01*
X70975379Y-65985000D01*
X70867839Y-66056856D01*
X70766856Y-66157839D01*
X70687513Y-66276584D01*
X70632861Y-66408525D01*
X70605000Y-66548594D01*
X70605000Y-66691406D01*
X70632861Y-66831475D01*
X70687513Y-66963416D01*
X70766856Y-67082161D01*
X70867839Y-67183144D01*
X70975379Y-67255000D01*
X70867839Y-67326856D01*
X70766856Y-67427839D01*
X70687513Y-67546584D01*
X70632861Y-67678525D01*
X70605000Y-67818594D01*
X70605000Y-67961406D01*
X70632861Y-68101475D01*
X70687513Y-68233416D01*
X70766856Y-68352161D01*
X70867839Y-68453144D01*
X70975379Y-68525000D01*
X70867839Y-68596856D01*
X70766856Y-68697839D01*
X70687513Y-68816584D01*
X70632861Y-68948525D01*
X70605000Y-69088594D01*
X70605000Y-69231406D01*
X70632861Y-69371475D01*
X70650845Y-69414892D01*
X70198285Y-69867452D01*
X70186843Y-69876842D01*
X70177452Y-69888285D01*
X70177451Y-69888286D01*
X70149353Y-69922523D01*
X70121497Y-69974640D01*
X70104342Y-70031190D01*
X70100576Y-70069426D01*
X70048681Y-70034751D01*
X69953137Y-69995176D01*
X69851708Y-69975000D01*
X69748292Y-69975000D01*
X69646863Y-69995176D01*
X69551319Y-70034751D01*
X69465332Y-70092206D01*
X69392206Y-70165332D01*
X69334751Y-70251319D01*
X69295176Y-70346863D01*
X69275000Y-70448292D01*
X69275000Y-70551708D01*
X69295176Y-70653137D01*
X69334751Y-70748681D01*
X69392206Y-70834668D01*
X69465332Y-70907794D01*
X69500001Y-70930959D01*
X69500000Y-72085277D01*
X69498550Y-72100000D01*
X69500000Y-72114723D01*
X69500000Y-72114732D01*
X69504341Y-72158809D01*
X69521496Y-72215359D01*
X69521497Y-72215360D01*
X69549353Y-72267477D01*
X69564981Y-72286520D01*
X69586842Y-72313158D01*
X69598290Y-72322553D01*
X70577451Y-73301715D01*
X70586842Y-73313158D01*
X70598285Y-73322549D01*
X70598286Y-73322550D01*
X70632522Y-73350647D01*
X70684638Y-73378503D01*
X70684640Y-73378504D01*
X70741190Y-73395659D01*
X70785267Y-73400000D01*
X70785270Y-73400000D01*
X70800000Y-73401451D01*
X70814730Y-73400000D01*
X74475737Y-73400000D01*
X73398290Y-74477447D01*
X73386842Y-74486842D01*
X73366358Y-74511802D01*
X73349353Y-74532523D01*
X73339099Y-74551708D01*
X73321496Y-74584641D01*
X73304341Y-74641191D01*
X73300000Y-74685268D01*
X73300000Y-74685277D01*
X73298550Y-74700000D01*
X73300000Y-74714723D01*
X73300001Y-76269041D01*
X73265332Y-76292206D01*
X73192206Y-76365332D01*
X73134751Y-76451319D01*
X73095176Y-76546863D01*
X73075000Y-76648292D01*
X73075000Y-76751708D01*
X73095176Y-76853137D01*
X73134751Y-76948681D01*
X73192206Y-77034668D01*
X73265332Y-77107794D01*
X73351319Y-77165249D01*
X73446863Y-77204824D01*
X73548292Y-77225000D01*
X73651708Y-77225000D01*
X73753137Y-77204824D01*
X73848681Y-77165249D01*
X73934668Y-77107794D01*
X74007794Y-77034668D01*
X74065249Y-76948681D01*
X74104824Y-76853137D01*
X74125000Y-76751708D01*
X74125000Y-76648292D01*
X74104824Y-76546863D01*
X74065249Y-76451319D01*
X74007794Y-76365332D01*
X73934668Y-76292206D01*
X73900000Y-76269041D01*
X73900000Y-74824263D01*
X74275971Y-74448292D01*
X79475000Y-74448292D01*
X79475000Y-74551708D01*
X79495176Y-74653137D01*
X79534751Y-74748681D01*
X79592206Y-74834668D01*
X79665332Y-74907794D01*
X79751319Y-74965249D01*
X79846863Y-75004824D01*
X79948292Y-75025000D01*
X80051708Y-75025000D01*
X80153137Y-75004824D01*
X80248681Y-74965249D01*
X80334668Y-74907794D01*
X80407794Y-74834668D01*
X80465249Y-74748681D01*
X80504824Y-74653137D01*
X80525000Y-74551708D01*
X80525000Y-74448292D01*
X80504824Y-74346863D01*
X80465249Y-74251319D01*
X80407794Y-74165332D01*
X80334668Y-74092206D01*
X80248681Y-74034751D01*
X80153137Y-73995176D01*
X80051708Y-73975000D01*
X79948292Y-73975000D01*
X79846863Y-73995176D01*
X79751319Y-74034751D01*
X79665332Y-74092206D01*
X79592206Y-74165332D01*
X79534751Y-74251319D01*
X79495176Y-74346863D01*
X79475000Y-74448292D01*
X74275971Y-74448292D01*
X77124264Y-71600000D01*
X81969041Y-71600000D01*
X81992206Y-71634668D01*
X82065332Y-71707794D01*
X82151319Y-71765249D01*
X82246863Y-71804824D01*
X82348292Y-71825000D01*
X82451708Y-71825000D01*
X82553137Y-71804824D01*
X82648681Y-71765249D01*
X82734668Y-71707794D01*
X82807794Y-71634668D01*
X82865249Y-71548681D01*
X82900000Y-71464783D01*
X82934751Y-71548681D01*
X82992206Y-71634668D01*
X83065332Y-71707794D01*
X83151319Y-71765249D01*
X83246863Y-71804824D01*
X83348292Y-71825000D01*
X83451708Y-71825000D01*
X83553137Y-71804824D01*
X83648681Y-71765249D01*
X83734668Y-71707794D01*
X83807794Y-71634668D01*
X83865249Y-71548681D01*
X83904824Y-71453137D01*
X83925000Y-71351708D01*
X83925000Y-71248292D01*
X83904824Y-71146863D01*
X83865249Y-71051319D01*
X83830959Y-71000000D01*
X86369041Y-71000000D01*
X86392206Y-71034668D01*
X86465332Y-71107794D01*
X86551319Y-71165249D01*
X86646863Y-71204824D01*
X86748292Y-71225000D01*
X86851708Y-71225000D01*
X86953137Y-71204824D01*
X87048681Y-71165249D01*
X87134668Y-71107794D01*
X87207794Y-71034668D01*
X87265249Y-70948681D01*
X87300001Y-70864781D01*
X87300000Y-71669041D01*
X87265332Y-71692206D01*
X87192206Y-71765332D01*
X87134751Y-71851319D01*
X87095176Y-71946863D01*
X87075000Y-72048292D01*
X87075000Y-72151708D01*
X87080784Y-72180784D01*
X87051708Y-72175000D01*
X86948292Y-72175000D01*
X86846863Y-72195176D01*
X86751319Y-72234751D01*
X86665332Y-72292206D01*
X86592206Y-72365332D01*
X86534751Y-72451319D01*
X86495176Y-72546863D01*
X86475000Y-72648292D01*
X86475000Y-72751708D01*
X86480784Y-72780784D01*
X86451708Y-72775000D01*
X86348292Y-72775000D01*
X86246863Y-72795176D01*
X86151319Y-72834751D01*
X86065332Y-72892206D01*
X85992206Y-72965332D01*
X85934751Y-73051319D01*
X85895176Y-73146863D01*
X85875000Y-73248292D01*
X85875000Y-73351708D01*
X85883134Y-73392602D01*
X84798290Y-74477447D01*
X84786842Y-74486842D01*
X84766358Y-74511802D01*
X84749353Y-74532523D01*
X84739099Y-74551708D01*
X84721496Y-74584641D01*
X84704341Y-74641191D01*
X84700000Y-74685268D01*
X84700000Y-74685277D01*
X84698550Y-74700000D01*
X84700000Y-74714723D01*
X84700001Y-113975735D01*
X82492602Y-116183135D01*
X82451708Y-116175000D01*
X82348292Y-116175000D01*
X82246863Y-116195176D01*
X82151319Y-116234751D01*
X82065332Y-116292206D01*
X81992206Y-116365332D01*
X81934751Y-116451319D01*
X81895176Y-116546863D01*
X81875000Y-116648292D01*
X81875000Y-116751708D01*
X81895176Y-116853137D01*
X81934751Y-116948681D01*
X81992206Y-117034668D01*
X82065332Y-117107794D01*
X82151319Y-117165249D01*
X82246863Y-117204824D01*
X82348292Y-117225000D01*
X82451708Y-117225000D01*
X82553137Y-117204824D01*
X82648681Y-117165249D01*
X82734668Y-117107794D01*
X82807794Y-117034668D01*
X82865249Y-116948681D01*
X82904824Y-116853137D01*
X82925000Y-116751708D01*
X82925000Y-116648292D01*
X82916865Y-116607398D01*
X85201715Y-114322549D01*
X85213158Y-114313158D01*
X85222549Y-114301715D01*
X85250647Y-114267478D01*
X85278503Y-114215361D01*
X85278504Y-114215360D01*
X85295659Y-114158810D01*
X85300000Y-114114733D01*
X85300000Y-114114724D01*
X85301450Y-114100001D01*
X85300000Y-114085278D01*
X85300000Y-81829944D01*
X85315136Y-81859312D01*
X85332296Y-81884992D01*
X85482874Y-81961771D01*
X86144645Y-81300000D01*
X85482874Y-80638229D01*
X85332296Y-80715008D01*
X85300000Y-80773310D01*
X85300000Y-74824263D01*
X86307398Y-73816866D01*
X86348292Y-73825000D01*
X86451708Y-73825000D01*
X86553137Y-73804824D01*
X86648681Y-73765249D01*
X86700000Y-73730958D01*
X86700001Y-80416294D01*
X86588372Y-80354458D01*
X86396059Y-80292956D01*
X86195443Y-80270155D01*
X85994232Y-80286930D01*
X85800161Y-80342638D01*
X85620688Y-80435136D01*
X85595008Y-80452296D01*
X85518229Y-80602874D01*
X86180000Y-81264645D01*
X86194143Y-81250503D01*
X86229498Y-81285858D01*
X86215355Y-81300000D01*
X86229498Y-81314143D01*
X86194143Y-81349498D01*
X86180000Y-81335355D01*
X85518229Y-81997126D01*
X85595008Y-82147704D01*
X85771628Y-82245542D01*
X85963941Y-82307044D01*
X86164557Y-82329845D01*
X86365768Y-82313070D01*
X86559839Y-82257362D01*
X86739312Y-82164864D01*
X86764992Y-82147704D01*
X86841770Y-81997128D01*
X86890356Y-82045714D01*
X86900000Y-82036070D01*
X86900001Y-106085267D01*
X86898550Y-106100000D01*
X86904342Y-106158810D01*
X86921497Y-106215360D01*
X86949353Y-106267477D01*
X86977451Y-106301714D01*
X86986843Y-106313158D01*
X86998286Y-106322549D01*
X97283134Y-116607399D01*
X97275000Y-116648292D01*
X97275000Y-116751708D01*
X97295176Y-116853137D01*
X97334751Y-116948681D01*
X97392206Y-117034668D01*
X97465332Y-117107794D01*
X97551319Y-117165249D01*
X97646863Y-117204824D01*
X97748292Y-117225000D01*
X97851708Y-117225000D01*
X97953137Y-117204824D01*
X98048681Y-117165249D01*
X98134668Y-117107794D01*
X98207794Y-117034668D01*
X98265249Y-116948681D01*
X98304824Y-116853137D01*
X98325000Y-116751708D01*
X98325000Y-116648292D01*
X98304824Y-116546863D01*
X98265249Y-116451319D01*
X98207794Y-116365332D01*
X98134668Y-116292206D01*
X98048681Y-116234751D01*
X97953137Y-116195176D01*
X97851708Y-116175000D01*
X97748292Y-116175000D01*
X97707399Y-116183134D01*
X88128235Y-106603971D01*
X97905000Y-106603971D01*
X97905000Y-106796029D01*
X97942468Y-106984397D01*
X98015966Y-107161836D01*
X98122668Y-107321527D01*
X98258473Y-107457332D01*
X98418164Y-107564034D01*
X98595603Y-107637532D01*
X98783971Y-107675000D01*
X98976029Y-107675000D01*
X99164397Y-107637532D01*
X99341836Y-107564034D01*
X99501527Y-107457332D01*
X99637332Y-107321527D01*
X99744034Y-107161836D01*
X99817532Y-106984397D01*
X99855000Y-106796029D01*
X99855000Y-106603971D01*
X99817532Y-106415603D01*
X99744034Y-106238164D01*
X99637332Y-106078473D01*
X99508859Y-105950000D01*
X100443912Y-105950000D01*
X100443912Y-107450000D01*
X100448256Y-107494108D01*
X100461122Y-107536520D01*
X100482015Y-107575608D01*
X100510132Y-107609868D01*
X100544392Y-107637985D01*
X100583480Y-107658878D01*
X100625892Y-107671744D01*
X100670000Y-107676088D01*
X102170000Y-107676088D01*
X102214108Y-107671744D01*
X102256520Y-107658878D01*
X102295608Y-107637985D01*
X102329868Y-107609868D01*
X102357985Y-107575608D01*
X102378878Y-107536520D01*
X102391744Y-107494108D01*
X102396088Y-107450000D01*
X102396088Y-105950000D01*
X102391744Y-105905892D01*
X102378878Y-105863480D01*
X102357985Y-105824392D01*
X102329868Y-105790132D01*
X102295608Y-105762015D01*
X102256520Y-105741122D01*
X102214108Y-105728256D01*
X102170000Y-105723912D01*
X100670000Y-105723912D01*
X100625892Y-105728256D01*
X100583480Y-105741122D01*
X100544392Y-105762015D01*
X100510132Y-105790132D01*
X100482015Y-105824392D01*
X100461122Y-105863480D01*
X100448256Y-105905892D01*
X100443912Y-105950000D01*
X99508859Y-105950000D01*
X99501527Y-105942668D01*
X99341836Y-105835966D01*
X99164397Y-105762468D01*
X98976029Y-105725000D01*
X98783971Y-105725000D01*
X98595603Y-105762468D01*
X98418164Y-105835966D01*
X98258473Y-105942668D01*
X98122668Y-106078473D01*
X98015966Y-106238164D01*
X97942468Y-106415603D01*
X97905000Y-106603971D01*
X88128235Y-106603971D01*
X87500000Y-105975737D01*
X87500000Y-103000000D01*
X111073912Y-103000000D01*
X111073912Y-107000000D01*
X111078256Y-107044108D01*
X111091122Y-107086520D01*
X111112015Y-107125608D01*
X111140132Y-107159868D01*
X111174392Y-107187985D01*
X111213480Y-107208878D01*
X111255892Y-107221744D01*
X111300000Y-107226088D01*
X115300000Y-107226088D01*
X115344108Y-107221744D01*
X115386520Y-107208878D01*
X115425608Y-107187985D01*
X115459868Y-107159868D01*
X115487985Y-107125608D01*
X115508878Y-107086520D01*
X115521744Y-107044108D01*
X115526088Y-107000000D01*
X115526088Y-103000000D01*
X115521744Y-102955892D01*
X115508878Y-102913480D01*
X115487985Y-102874392D01*
X115459868Y-102840132D01*
X115425608Y-102812015D01*
X115386520Y-102791122D01*
X115344108Y-102778256D01*
X115300000Y-102773912D01*
X111300000Y-102773912D01*
X111255892Y-102778256D01*
X111213480Y-102791122D01*
X111174392Y-102812015D01*
X111140132Y-102840132D01*
X111112015Y-102874392D01*
X111091122Y-102913480D01*
X111078256Y-102955892D01*
X111073912Y-103000000D01*
X87500000Y-103000000D01*
X87500000Y-101500000D01*
X111023669Y-101500000D01*
X111028979Y-101553910D01*
X111044703Y-101605747D01*
X111070239Y-101653521D01*
X111104604Y-101695396D01*
X111146479Y-101729761D01*
X111194253Y-101755297D01*
X111246090Y-101771021D01*
X111300000Y-101776331D01*
X113206250Y-101775000D01*
X113275000Y-101706250D01*
X113275000Y-99525000D01*
X113325000Y-99525000D01*
X113325000Y-101706250D01*
X113393750Y-101775000D01*
X115300000Y-101776331D01*
X115353910Y-101771021D01*
X115405747Y-101755297D01*
X115453521Y-101729761D01*
X115495396Y-101695396D01*
X115529761Y-101653521D01*
X115555297Y-101605747D01*
X115571021Y-101553910D01*
X115576331Y-101500000D01*
X115575000Y-99593750D01*
X115506250Y-99525000D01*
X113325000Y-99525000D01*
X113275000Y-99525000D01*
X111093750Y-99525000D01*
X111025000Y-99593750D01*
X111023669Y-101500000D01*
X87500000Y-101500000D01*
X87500000Y-97500000D01*
X111023669Y-97500000D01*
X111025000Y-99406250D01*
X111093750Y-99475000D01*
X113275000Y-99475000D01*
X113275000Y-97293750D01*
X113325000Y-97293750D01*
X113325000Y-99475000D01*
X115506250Y-99475000D01*
X115575000Y-99406250D01*
X115576331Y-97500000D01*
X115571021Y-97446090D01*
X115555297Y-97394253D01*
X115529761Y-97346479D01*
X115495396Y-97304604D01*
X115453521Y-97270239D01*
X115405747Y-97244703D01*
X115353910Y-97228979D01*
X115300000Y-97223669D01*
X113393750Y-97225000D01*
X113325000Y-97293750D01*
X113275000Y-97293750D01*
X113206250Y-97225000D01*
X111300000Y-97223669D01*
X111246090Y-97228979D01*
X111194253Y-97244703D01*
X111146479Y-97270239D01*
X111104604Y-97304604D01*
X111070239Y-97346479D01*
X111044703Y-97394253D01*
X111028979Y-97446090D01*
X111023669Y-97500000D01*
X87500000Y-97500000D01*
X87500000Y-82424263D01*
X87977451Y-82901715D01*
X87986842Y-82913158D01*
X87998285Y-82922549D01*
X88032522Y-82950647D01*
X88084639Y-82978504D01*
X88097801Y-82982497D01*
X88141190Y-82995659D01*
X88185267Y-83000000D01*
X88185270Y-83000000D01*
X88200000Y-83001451D01*
X88214730Y-83000000D01*
X92385277Y-83000000D01*
X92400000Y-83001450D01*
X92414723Y-83000000D01*
X92414733Y-83000000D01*
X92458810Y-82995659D01*
X92515360Y-82978504D01*
X92567477Y-82950647D01*
X92613158Y-82913158D01*
X92622553Y-82901710D01*
X93353767Y-82170497D01*
X93515603Y-82237532D01*
X93703971Y-82275000D01*
X93896029Y-82275000D01*
X94084397Y-82237532D01*
X94261836Y-82164034D01*
X94421527Y-82057332D01*
X94557332Y-81921527D01*
X94664034Y-81761836D01*
X94737532Y-81584397D01*
X94775000Y-81396029D01*
X94775000Y-81203971D01*
X94737532Y-81015603D01*
X94664034Y-80838164D01*
X94557332Y-80678473D01*
X94421527Y-80542668D01*
X94261836Y-80435966D01*
X94084397Y-80362468D01*
X93896029Y-80325000D01*
X93703971Y-80325000D01*
X93515603Y-80362468D01*
X93338164Y-80435966D01*
X93178473Y-80542668D01*
X93042668Y-80678473D01*
X92935966Y-80838164D01*
X92862468Y-81015603D01*
X92825000Y-81203971D01*
X92825000Y-81396029D01*
X92862468Y-81584397D01*
X92929503Y-81746233D01*
X92275737Y-82400000D01*
X92024263Y-82400000D01*
X92501715Y-81922549D01*
X92513158Y-81913158D01*
X92536273Y-81884992D01*
X92550647Y-81867478D01*
X92578503Y-81815361D01*
X92578504Y-81815360D01*
X92595659Y-81758810D01*
X92600000Y-81714733D01*
X92600000Y-81714724D01*
X92601450Y-81700001D01*
X92600000Y-81685278D01*
X92600000Y-80414722D01*
X92601450Y-80399999D01*
X92600000Y-80385276D01*
X92600000Y-80385267D01*
X92595659Y-80341190D01*
X92578504Y-80284640D01*
X92550648Y-80232524D01*
X92550647Y-80232522D01*
X92522549Y-80198285D01*
X92513158Y-80186842D01*
X92501717Y-80177453D01*
X90300000Y-77975737D01*
X90300000Y-76648292D01*
X93475000Y-76648292D01*
X93475000Y-76751708D01*
X93495176Y-76853137D01*
X93534751Y-76948681D01*
X93592206Y-77034668D01*
X93665332Y-77107794D01*
X93751319Y-77165249D01*
X93846863Y-77204824D01*
X93948292Y-77225000D01*
X94051708Y-77225000D01*
X94153137Y-77204824D01*
X94248681Y-77165249D01*
X94334668Y-77107794D01*
X94407794Y-77034668D01*
X94465249Y-76948681D01*
X94504824Y-76853137D01*
X94525000Y-76751708D01*
X94525000Y-76648292D01*
X94504824Y-76546863D01*
X94465249Y-76451319D01*
X94407794Y-76365332D01*
X94334668Y-76292206D01*
X94248681Y-76234751D01*
X94153137Y-76195176D01*
X94051708Y-76175000D01*
X93948292Y-76175000D01*
X93846863Y-76195176D01*
X93751319Y-76234751D01*
X93665332Y-76292206D01*
X93592206Y-76365332D01*
X93534751Y-76451319D01*
X93495176Y-76546863D01*
X93475000Y-76648292D01*
X90300000Y-76648292D01*
X90300000Y-74848292D01*
X93475000Y-74848292D01*
X93475000Y-74951708D01*
X93495176Y-75053137D01*
X93534751Y-75148681D01*
X93592206Y-75234668D01*
X93665332Y-75307794D01*
X93751319Y-75365249D01*
X93846863Y-75404824D01*
X93948292Y-75425000D01*
X94051708Y-75425000D01*
X94153137Y-75404824D01*
X94248681Y-75365249D01*
X94334668Y-75307794D01*
X94407794Y-75234668D01*
X94465249Y-75148681D01*
X94504824Y-75053137D01*
X94525000Y-74951708D01*
X94525000Y-74848292D01*
X94504824Y-74746863D01*
X94465249Y-74651319D01*
X94407794Y-74565332D01*
X94334668Y-74492206D01*
X94248681Y-74434751D01*
X94153137Y-74395176D01*
X94051708Y-74375000D01*
X93948292Y-74375000D01*
X93846863Y-74395176D01*
X93751319Y-74434751D01*
X93665332Y-74492206D01*
X93592206Y-74565332D01*
X93534751Y-74651319D01*
X93495176Y-74746863D01*
X93475000Y-74848292D01*
X90300000Y-74848292D01*
X90300000Y-73130959D01*
X90351319Y-73165249D01*
X90446863Y-73204824D01*
X90548292Y-73225000D01*
X90552337Y-73225000D01*
X90534751Y-73251319D01*
X90495176Y-73346863D01*
X90475000Y-73448292D01*
X90475000Y-73551708D01*
X90495176Y-73653137D01*
X90534751Y-73748681D01*
X90592206Y-73834668D01*
X90665332Y-73907794D01*
X90751319Y-73965249D01*
X90846863Y-74004824D01*
X90948292Y-74025000D01*
X91051708Y-74025000D01*
X91153137Y-74004824D01*
X91248681Y-73965249D01*
X91334668Y-73907794D01*
X91407794Y-73834668D01*
X91430959Y-73800000D01*
X92185277Y-73800000D01*
X92200000Y-73801450D01*
X92214723Y-73800000D01*
X92214733Y-73800000D01*
X92258810Y-73795659D01*
X92315360Y-73778504D01*
X92367477Y-73750647D01*
X92413158Y-73713158D01*
X92422553Y-73701710D01*
X93001716Y-73122548D01*
X93013158Y-73113158D01*
X93042462Y-73077451D01*
X93050647Y-73067478D01*
X93068184Y-73034668D01*
X93078504Y-73015360D01*
X93095659Y-72958810D01*
X93100000Y-72914733D01*
X93100000Y-72914724D01*
X93101450Y-72900001D01*
X93100000Y-72885278D01*
X93100000Y-69448292D01*
X93875000Y-69448292D01*
X93875000Y-69551708D01*
X93895176Y-69653137D01*
X93934751Y-69748681D01*
X93992206Y-69834668D01*
X94065332Y-69907794D01*
X94151319Y-69965249D01*
X94246863Y-70004824D01*
X94348292Y-70025000D01*
X94451708Y-70025000D01*
X94492602Y-70016865D01*
X94700000Y-70224264D01*
X94700000Y-73069042D01*
X94648681Y-73034751D01*
X94553137Y-72995176D01*
X94451708Y-72975000D01*
X94348292Y-72975000D01*
X94246863Y-72995176D01*
X94151319Y-73034751D01*
X94065332Y-73092206D01*
X93992206Y-73165332D01*
X93934751Y-73251319D01*
X93895176Y-73346863D01*
X93875000Y-73448292D01*
X93875000Y-73551708D01*
X93895176Y-73653137D01*
X93934751Y-73748681D01*
X93992206Y-73834668D01*
X94065332Y-73907794D01*
X94151319Y-73965249D01*
X94246863Y-74004824D01*
X94348292Y-74025000D01*
X94451708Y-74025000D01*
X94553137Y-74004824D01*
X94648681Y-73965249D01*
X94700000Y-73930958D01*
X94700001Y-79945267D01*
X94698550Y-79960000D01*
X94704342Y-80018810D01*
X94721497Y-80075360D01*
X94749353Y-80127477D01*
X94777451Y-80161714D01*
X94786843Y-80173158D01*
X94798285Y-80182548D01*
X95469503Y-80853767D01*
X95402468Y-81015603D01*
X95365000Y-81203971D01*
X95365000Y-81396029D01*
X95402468Y-81584397D01*
X95475966Y-81761836D01*
X95582668Y-81921527D01*
X95718473Y-82057332D01*
X95878164Y-82164034D01*
X96055603Y-82237532D01*
X96243971Y-82275000D01*
X96436029Y-82275000D01*
X96624397Y-82237532D01*
X96801836Y-82164034D01*
X96961527Y-82057332D01*
X97021733Y-81997126D01*
X98218229Y-81997126D01*
X98295008Y-82147704D01*
X98471628Y-82245542D01*
X98663941Y-82307044D01*
X98864557Y-82329845D01*
X99065768Y-82313070D01*
X99259839Y-82257362D01*
X99439312Y-82164864D01*
X99464992Y-82147704D01*
X99541771Y-81997126D01*
X98880000Y-81335355D01*
X98218229Y-81997126D01*
X97021733Y-81997126D01*
X97097332Y-81921527D01*
X97204034Y-81761836D01*
X97277532Y-81584397D01*
X97315000Y-81396029D01*
X97315000Y-81284557D01*
X97850155Y-81284557D01*
X97866930Y-81485768D01*
X97922638Y-81679839D01*
X98015136Y-81859312D01*
X98032296Y-81884992D01*
X98182874Y-81961771D01*
X98844645Y-81300000D01*
X98915355Y-81300000D01*
X99577126Y-81961771D01*
X99727704Y-81884992D01*
X99825542Y-81708372D01*
X99887044Y-81516059D01*
X99909845Y-81315443D01*
X99900552Y-81203971D01*
X100445000Y-81203971D01*
X100445000Y-81396029D01*
X100482468Y-81584397D01*
X100555966Y-81761836D01*
X100662668Y-81921527D01*
X100798473Y-82057332D01*
X100958164Y-82164034D01*
X101135603Y-82237532D01*
X101323971Y-82275000D01*
X101516029Y-82275000D01*
X101704397Y-82237532D01*
X101881836Y-82164034D01*
X102041527Y-82057332D01*
X102177332Y-81921527D01*
X102284034Y-81761836D01*
X102357532Y-81584397D01*
X102395000Y-81396029D01*
X102395000Y-81203971D01*
X102357532Y-81015603D01*
X102284034Y-80838164D01*
X102177332Y-80678473D01*
X102041527Y-80542668D01*
X101881836Y-80435966D01*
X101704397Y-80362468D01*
X101516029Y-80325000D01*
X101323971Y-80325000D01*
X101135603Y-80362468D01*
X100958164Y-80435966D01*
X100798473Y-80542668D01*
X100662668Y-80678473D01*
X100555966Y-80838164D01*
X100482468Y-81015603D01*
X100445000Y-81203971D01*
X99900552Y-81203971D01*
X99893070Y-81114232D01*
X99837362Y-80920161D01*
X99744864Y-80740688D01*
X99727704Y-80715008D01*
X99577126Y-80638229D01*
X98915355Y-81300000D01*
X98844645Y-81300000D01*
X98182874Y-80638229D01*
X98032296Y-80715008D01*
X97934458Y-80891628D01*
X97872956Y-81083941D01*
X97850155Y-81284557D01*
X97315000Y-81284557D01*
X97315000Y-81203971D01*
X97277532Y-81015603D01*
X97204034Y-80838164D01*
X97097332Y-80678473D01*
X97021733Y-80602874D01*
X98218229Y-80602874D01*
X98880000Y-81264645D01*
X99541771Y-80602874D01*
X99464992Y-80452296D01*
X99288372Y-80354458D01*
X99096059Y-80292956D01*
X98895443Y-80270155D01*
X98694232Y-80286930D01*
X98500161Y-80342638D01*
X98320688Y-80435136D01*
X98295008Y-80452296D01*
X98218229Y-80602874D01*
X97021733Y-80602874D01*
X96961527Y-80542668D01*
X96801836Y-80435966D01*
X96624397Y-80362468D01*
X96436029Y-80325000D01*
X96243971Y-80325000D01*
X96055603Y-80362468D01*
X95893767Y-80429503D01*
X95300000Y-79835737D01*
X95300000Y-70730959D01*
X95351319Y-70765249D01*
X95446863Y-70804824D01*
X95548292Y-70825000D01*
X95651708Y-70825000D01*
X95753137Y-70804824D01*
X95848681Y-70765249D01*
X95934668Y-70707794D01*
X96007794Y-70634668D01*
X96030959Y-70600000D01*
X103185277Y-70600000D01*
X103200000Y-70601450D01*
X103214723Y-70600000D01*
X103214733Y-70600000D01*
X103258810Y-70595659D01*
X103315360Y-70578504D01*
X103367477Y-70550647D01*
X103413158Y-70513158D01*
X103422553Y-70501710D01*
X106001717Y-67922547D01*
X106013158Y-67913158D01*
X106030353Y-67892206D01*
X106050647Y-67867478D01*
X106078503Y-67815361D01*
X106078504Y-67815360D01*
X106095659Y-67758810D01*
X106100000Y-67714733D01*
X106100000Y-67714724D01*
X106101450Y-67700001D01*
X106100000Y-67685278D01*
X106100000Y-65930959D01*
X106134668Y-65907794D01*
X106207794Y-65834668D01*
X106265249Y-65748681D01*
X106304824Y-65653137D01*
X106325000Y-65551708D01*
X106325000Y-65448292D01*
X107275000Y-65448292D01*
X107275000Y-65551708D01*
X107295176Y-65653137D01*
X107334751Y-65748681D01*
X107392206Y-65834668D01*
X107465332Y-65907794D01*
X107551319Y-65965249D01*
X107646863Y-66004824D01*
X107748292Y-66025000D01*
X107851708Y-66025000D01*
X107953137Y-66004824D01*
X108048681Y-65965249D01*
X108134668Y-65907794D01*
X108207794Y-65834668D01*
X108265249Y-65748681D01*
X108304824Y-65653137D01*
X108325000Y-65551708D01*
X108325000Y-65448292D01*
X108304824Y-65346863D01*
X108265249Y-65251319D01*
X108207794Y-65165332D01*
X108134668Y-65092206D01*
X108048681Y-65034751D01*
X107953137Y-64995176D01*
X107851708Y-64975000D01*
X107748292Y-64975000D01*
X107646863Y-64995176D01*
X107551319Y-65034751D01*
X107465332Y-65092206D01*
X107392206Y-65165332D01*
X107334751Y-65251319D01*
X107295176Y-65346863D01*
X107275000Y-65448292D01*
X106325000Y-65448292D01*
X106304824Y-65346863D01*
X106265249Y-65251319D01*
X106207794Y-65165332D01*
X106134668Y-65092206D01*
X106048681Y-65034751D01*
X105953137Y-64995176D01*
X105851708Y-64975000D01*
X105748292Y-64975000D01*
X105646863Y-64995176D01*
X105551319Y-65034751D01*
X105465332Y-65092206D01*
X105392206Y-65165332D01*
X105334751Y-65251319D01*
X105295176Y-65346863D01*
X105275000Y-65448292D01*
X105275000Y-65551708D01*
X105295176Y-65653137D01*
X105334751Y-65748681D01*
X105392206Y-65834668D01*
X105465332Y-65907794D01*
X105500001Y-65930959D01*
X105500000Y-67575736D01*
X103075737Y-70000000D01*
X96030959Y-70000000D01*
X96007794Y-69965332D01*
X95934668Y-69892206D01*
X95848681Y-69834751D01*
X95753137Y-69795176D01*
X95651708Y-69775000D01*
X95548292Y-69775000D01*
X95446863Y-69795176D01*
X95351319Y-69834751D01*
X95265332Y-69892206D01*
X95239094Y-69918444D01*
X95222549Y-69898285D01*
X95213158Y-69886842D01*
X95201715Y-69877451D01*
X94916865Y-69592602D01*
X94925000Y-69551708D01*
X94925000Y-69448292D01*
X94904824Y-69346863D01*
X94865249Y-69251319D01*
X94807794Y-69165332D01*
X94734668Y-69092206D01*
X94648681Y-69034751D01*
X94553137Y-68995176D01*
X94451708Y-68975000D01*
X94348292Y-68975000D01*
X94246863Y-68995176D01*
X94151319Y-69034751D01*
X94065332Y-69092206D01*
X93992206Y-69165332D01*
X93934751Y-69251319D01*
X93895176Y-69346863D01*
X93875000Y-69448292D01*
X93100000Y-69448292D01*
X93100000Y-69424263D01*
X94875000Y-67649263D01*
X94875000Y-67751708D01*
X94895176Y-67853137D01*
X94934751Y-67948681D01*
X94992206Y-68034668D01*
X95065332Y-68107794D01*
X95151319Y-68165249D01*
X95246863Y-68204824D01*
X95348292Y-68225000D01*
X95451708Y-68225000D01*
X95553137Y-68204824D01*
X95648681Y-68165249D01*
X95734668Y-68107794D01*
X95807794Y-68034668D01*
X95865249Y-67948681D01*
X95904824Y-67853137D01*
X95925000Y-67751708D01*
X95925000Y-67648292D01*
X95904824Y-67546863D01*
X95865249Y-67451319D01*
X95807794Y-67365332D01*
X95734668Y-67292206D01*
X95648681Y-67234751D01*
X95553137Y-67195176D01*
X95451708Y-67175000D01*
X95349263Y-67175000D01*
X100601717Y-61922547D01*
X100613158Y-61913158D01*
X100622549Y-61901715D01*
X100650647Y-61867478D01*
X100678503Y-61815361D01*
X100678504Y-61815360D01*
X100695659Y-61758810D01*
X100700000Y-61714733D01*
X100700000Y-61714724D01*
X100701450Y-61700001D01*
X100700000Y-61685278D01*
X100700000Y-60530959D01*
X100734668Y-60507794D01*
X100807794Y-60434668D01*
X100865249Y-60348681D01*
X100904824Y-60253137D01*
X100925000Y-60151708D01*
X100925000Y-60048292D01*
X100904824Y-59946863D01*
X100865249Y-59851319D01*
X100807794Y-59765332D01*
X100734668Y-59692206D01*
X100648681Y-59634751D01*
X100553137Y-59595176D01*
X100451708Y-59575000D01*
X100348292Y-59575000D01*
X100246863Y-59595176D01*
X100151319Y-59634751D01*
X100065332Y-59692206D01*
X99992206Y-59765332D01*
X99934751Y-59851319D01*
X99895176Y-59946863D01*
X99875000Y-60048292D01*
X99875000Y-60151708D01*
X99895176Y-60253137D01*
X99934751Y-60348681D01*
X99992206Y-60434668D01*
X100065332Y-60507794D01*
X100100001Y-60530959D01*
X100100000Y-61575736D01*
X98686398Y-62989338D01*
X98695659Y-62958810D01*
X98700000Y-62914733D01*
X98700000Y-62914730D01*
X98701451Y-62900000D01*
X98700000Y-62885270D01*
X98700000Y-60114722D01*
X98701450Y-60099999D01*
X98700000Y-60085276D01*
X98700000Y-60085267D01*
X98695659Y-60041190D01*
X98678504Y-59984640D01*
X98658312Y-59946863D01*
X98650647Y-59932522D01*
X98622549Y-59898285D01*
X98613158Y-59886842D01*
X98601715Y-59877451D01*
X98316865Y-59592602D01*
X98325000Y-59551708D01*
X98325000Y-59448292D01*
X98304824Y-59346863D01*
X98265249Y-59251319D01*
X98207794Y-59165332D01*
X98134668Y-59092206D01*
X98048681Y-59034751D01*
X97953137Y-58995176D01*
X97851708Y-58975000D01*
X97748292Y-58975000D01*
X97646863Y-58995176D01*
X97551319Y-59034751D01*
X97465332Y-59092206D01*
X97392206Y-59165332D01*
X97334751Y-59251319D01*
X97295176Y-59346863D01*
X97275000Y-59448292D01*
X97275000Y-59551708D01*
X97295176Y-59653137D01*
X97334751Y-59748681D01*
X97392206Y-59834668D01*
X97465332Y-59907794D01*
X97551319Y-59965249D01*
X97646863Y-60004824D01*
X97748292Y-60025000D01*
X97851708Y-60025000D01*
X97892602Y-60016865D01*
X98100001Y-60224265D01*
X98100001Y-60669042D01*
X98048681Y-60634751D01*
X97953137Y-60595176D01*
X97851708Y-60575000D01*
X97748292Y-60575000D01*
X97646863Y-60595176D01*
X97551319Y-60634751D01*
X97465332Y-60692206D01*
X97392206Y-60765332D01*
X97334751Y-60851319D01*
X97295176Y-60946863D01*
X97275000Y-61048292D01*
X97275000Y-61151708D01*
X97295176Y-61253137D01*
X97334751Y-61348681D01*
X97392206Y-61434668D01*
X97465332Y-61507794D01*
X97551319Y-61565249D01*
X97646863Y-61604824D01*
X97748292Y-61625000D01*
X97851708Y-61625000D01*
X97953137Y-61604824D01*
X98048681Y-61565249D01*
X98100000Y-61530958D01*
X98100000Y-62269042D01*
X98048681Y-62234751D01*
X97953137Y-62195176D01*
X97851708Y-62175000D01*
X97748292Y-62175000D01*
X97646863Y-62195176D01*
X97551319Y-62234751D01*
X97465332Y-62292206D01*
X97392206Y-62365332D01*
X97334751Y-62451319D01*
X97295176Y-62546863D01*
X97275000Y-62648292D01*
X97275000Y-62751708D01*
X97283134Y-62792602D01*
X95475737Y-64600000D01*
X93124264Y-64600000D01*
X93116866Y-64592602D01*
X93125000Y-64551708D01*
X93125000Y-64448292D01*
X93104824Y-64346863D01*
X93065249Y-64251319D01*
X93007794Y-64165332D01*
X92934668Y-64092206D01*
X92848681Y-64034751D01*
X92753137Y-63995176D01*
X92651708Y-63975000D01*
X92548292Y-63975000D01*
X92446863Y-63995176D01*
X92351319Y-64034751D01*
X92300000Y-64069041D01*
X92300000Y-62330959D01*
X92334668Y-62307794D01*
X92407794Y-62234668D01*
X92465249Y-62148681D01*
X92504824Y-62053137D01*
X92525000Y-61951708D01*
X92525000Y-61848292D01*
X92504824Y-61746863D01*
X92465249Y-61651319D01*
X92407794Y-61565332D01*
X92334668Y-61492206D01*
X92248681Y-61434751D01*
X92153137Y-61395176D01*
X92133078Y-61391186D01*
X92924264Y-60600000D01*
X93769041Y-60600000D01*
X93792206Y-60634668D01*
X93865332Y-60707794D01*
X93951319Y-60765249D01*
X94046863Y-60804824D01*
X94148292Y-60825000D01*
X94251708Y-60825000D01*
X94353137Y-60804824D01*
X94448681Y-60765249D01*
X94534668Y-60707794D01*
X94607794Y-60634668D01*
X94665249Y-60548681D01*
X94704824Y-60453137D01*
X94725000Y-60351708D01*
X94725000Y-60248292D01*
X94704824Y-60146863D01*
X94665249Y-60051319D01*
X94607794Y-59965332D01*
X94534668Y-59892206D01*
X94448681Y-59834751D01*
X94353137Y-59795176D01*
X94251708Y-59775000D01*
X94148292Y-59775000D01*
X94046863Y-59795176D01*
X93951319Y-59834751D01*
X93865332Y-59892206D01*
X93792206Y-59965332D01*
X93769041Y-60000000D01*
X92814723Y-60000000D01*
X92800000Y-59998550D01*
X92785277Y-60000000D01*
X92785267Y-60000000D01*
X92741190Y-60004341D01*
X92684640Y-60021496D01*
X92660379Y-60034464D01*
X92632522Y-60049353D01*
X92598285Y-60077451D01*
X92586842Y-60086842D01*
X92577451Y-60098285D01*
X91198286Y-61477451D01*
X91186843Y-61486842D01*
X91177452Y-61498285D01*
X91177451Y-61498286D01*
X91149353Y-61532523D01*
X91121497Y-61584640D01*
X91104342Y-61641190D01*
X91098550Y-61700000D01*
X91100001Y-61714732D01*
X91100000Y-71775736D01*
X90692602Y-72183135D01*
X90651708Y-72175000D01*
X90548292Y-72175000D01*
X90446863Y-72195176D01*
X90351319Y-72234751D01*
X90300000Y-72269041D01*
X90300000Y-68130959D01*
X90334668Y-68107794D01*
X90407794Y-68034668D01*
X90465249Y-67948681D01*
X90504824Y-67853137D01*
X90525000Y-67751708D01*
X90525000Y-67648292D01*
X90504824Y-67546863D01*
X90465249Y-67451319D01*
X90407794Y-67365332D01*
X90334668Y-67292206D01*
X90248681Y-67234751D01*
X90153137Y-67195176D01*
X90051708Y-67175000D01*
X89948292Y-67175000D01*
X89907398Y-67183134D01*
X86822553Y-64098290D01*
X86813158Y-64086842D01*
X86767477Y-64049353D01*
X86715360Y-64021496D01*
X86658810Y-64004341D01*
X86614733Y-64000000D01*
X86614723Y-64000000D01*
X86600000Y-63998550D01*
X86585277Y-64000000D01*
X84830959Y-64000000D01*
X84865249Y-63948681D01*
X84904824Y-63853137D01*
X84925000Y-63751708D01*
X84925000Y-63648292D01*
X84904824Y-63546863D01*
X84865249Y-63451319D01*
X84807794Y-63365332D01*
X84734668Y-63292206D01*
X84648681Y-63234751D01*
X84553137Y-63195176D01*
X84451708Y-63175000D01*
X84348292Y-63175000D01*
X84246863Y-63195176D01*
X84151319Y-63234751D01*
X84065332Y-63292206D01*
X83992206Y-63365332D01*
X83934751Y-63451319D01*
X83895176Y-63546863D01*
X83875000Y-63648292D01*
X83875000Y-63751708D01*
X83895176Y-63853137D01*
X83934751Y-63948681D01*
X83969041Y-64000000D01*
X79524265Y-64000000D01*
X76572557Y-61048292D01*
X81275000Y-61048292D01*
X81275000Y-61151708D01*
X81295176Y-61253137D01*
X81334751Y-61348681D01*
X81392206Y-61434668D01*
X81465332Y-61507794D01*
X81551319Y-61565249D01*
X81646863Y-61604824D01*
X81748292Y-61625000D01*
X81851708Y-61625000D01*
X81880784Y-61619216D01*
X81875000Y-61648292D01*
X81875000Y-61751708D01*
X81895176Y-61853137D01*
X81934751Y-61948681D01*
X81992206Y-62034668D01*
X82065332Y-62107794D01*
X82151319Y-62165249D01*
X82246863Y-62204824D01*
X82348292Y-62225000D01*
X82451708Y-62225000D01*
X82553137Y-62204824D01*
X82648681Y-62165249D01*
X82734668Y-62107794D01*
X82807794Y-62034668D01*
X82830959Y-62000000D01*
X83985277Y-62000000D01*
X84000000Y-62001450D01*
X84014723Y-62000000D01*
X84014733Y-62000000D01*
X84058810Y-61995659D01*
X84115360Y-61978504D01*
X84167477Y-61950647D01*
X84213158Y-61913158D01*
X84222553Y-61901710D01*
X88897671Y-57226592D01*
X101353300Y-57226592D01*
X101353300Y-57330008D01*
X101373476Y-57431437D01*
X101413051Y-57526981D01*
X101470506Y-57612968D01*
X101543632Y-57686094D01*
X101629619Y-57743549D01*
X101725163Y-57783124D01*
X101826592Y-57803300D01*
X101930008Y-57803300D01*
X102031437Y-57783124D01*
X102126981Y-57743549D01*
X102212968Y-57686094D01*
X102286094Y-57612968D01*
X102343549Y-57526981D01*
X102383124Y-57431437D01*
X102403300Y-57330008D01*
X102403300Y-57226592D01*
X102395165Y-57185698D01*
X103001716Y-56579148D01*
X103013158Y-56569758D01*
X103025147Y-56555149D01*
X103050647Y-56524078D01*
X103078504Y-56471960D01*
X103078504Y-56471959D01*
X103095659Y-56415410D01*
X103100000Y-56371333D01*
X103100000Y-56371330D01*
X103101451Y-56356600D01*
X103100000Y-56341870D01*
X103100000Y-49530959D01*
X103134668Y-49507794D01*
X103200000Y-49442462D01*
X103265332Y-49507794D01*
X103300001Y-49530959D01*
X103300000Y-56732336D01*
X103270902Y-56761434D01*
X103230008Y-56753300D01*
X103126592Y-56753300D01*
X103025163Y-56773476D01*
X102929619Y-56813051D01*
X102843632Y-56870506D01*
X102770506Y-56943632D01*
X102713051Y-57029619D01*
X102673476Y-57125163D01*
X102653300Y-57226592D01*
X102653300Y-57330008D01*
X102673476Y-57431437D01*
X102713051Y-57526981D01*
X102770506Y-57612968D01*
X102843632Y-57686094D01*
X102929619Y-57743549D01*
X103025163Y-57783124D01*
X103126592Y-57803300D01*
X103230008Y-57803300D01*
X103331437Y-57783124D01*
X103426981Y-57743549D01*
X103512968Y-57686094D01*
X103586094Y-57612968D01*
X103643549Y-57526981D01*
X103683124Y-57431437D01*
X103703300Y-57330008D01*
X103703300Y-57226592D01*
X103695166Y-57185698D01*
X103801716Y-57079148D01*
X103813158Y-57069758D01*
X103822549Y-57058315D01*
X103850647Y-57024078D01*
X103878504Y-56971961D01*
X103882497Y-56958799D01*
X103895659Y-56915410D01*
X103900000Y-56871333D01*
X103900000Y-56871330D01*
X103901451Y-56856600D01*
X103900000Y-56841870D01*
X103900000Y-52823178D01*
X111280148Y-52823178D01*
X111280148Y-54423178D01*
X111284492Y-54467286D01*
X111297358Y-54509698D01*
X111318251Y-54548786D01*
X111346368Y-54583046D01*
X111380628Y-54611163D01*
X111419716Y-54632056D01*
X111462128Y-54644922D01*
X111506236Y-54649266D01*
X113106236Y-54649266D01*
X113150344Y-54644922D01*
X113192756Y-54632056D01*
X113231844Y-54611163D01*
X113266104Y-54583046D01*
X113294221Y-54548786D01*
X113315114Y-54509698D01*
X113327980Y-54467286D01*
X113332324Y-54423178D01*
X113332324Y-54355841D01*
X115108928Y-54355841D01*
X115191705Y-54511540D01*
X115376824Y-54614359D01*
X115578445Y-54679089D01*
X115788820Y-54703240D01*
X115999864Y-54685885D01*
X116203467Y-54627690D01*
X116391805Y-54530892D01*
X116420767Y-54511540D01*
X116503544Y-54355841D01*
X115806236Y-53658533D01*
X115108928Y-54355841D01*
X113332324Y-54355841D01*
X113332324Y-53605762D01*
X114726174Y-53605762D01*
X114743529Y-53816806D01*
X114801724Y-54020409D01*
X114898522Y-54208747D01*
X114917874Y-54237709D01*
X115073573Y-54320486D01*
X115770881Y-53623178D01*
X115841591Y-53623178D01*
X116538899Y-54320486D01*
X116694598Y-54237709D01*
X116797417Y-54052590D01*
X116862147Y-53850969D01*
X116886298Y-53640594D01*
X116868943Y-53429550D01*
X116810748Y-53225947D01*
X116713950Y-53037609D01*
X116694598Y-53008647D01*
X116538899Y-52925870D01*
X115841591Y-53623178D01*
X115770881Y-53623178D01*
X115073573Y-52925870D01*
X114917874Y-53008647D01*
X114815055Y-53193766D01*
X114750325Y-53395387D01*
X114726174Y-53605762D01*
X113332324Y-53605762D01*
X113332324Y-52890515D01*
X115108928Y-52890515D01*
X115806236Y-53587823D01*
X116503544Y-52890515D01*
X116420767Y-52734816D01*
X116235648Y-52631997D01*
X116034027Y-52567267D01*
X115823652Y-52543116D01*
X115612608Y-52560471D01*
X115409005Y-52618666D01*
X115220667Y-52715464D01*
X115191705Y-52734816D01*
X115108928Y-52890515D01*
X113332324Y-52890515D01*
X113332324Y-52823178D01*
X113327980Y-52779070D01*
X113315114Y-52736658D01*
X113294221Y-52697570D01*
X113266104Y-52663310D01*
X113231844Y-52635193D01*
X113192756Y-52614300D01*
X113150344Y-52601434D01*
X113106236Y-52597090D01*
X111506236Y-52597090D01*
X111462128Y-52601434D01*
X111419716Y-52614300D01*
X111380628Y-52635193D01*
X111346368Y-52663310D01*
X111318251Y-52697570D01*
X111297358Y-52736658D01*
X111284492Y-52779070D01*
X111280148Y-52823178D01*
X103900000Y-52823178D01*
X103900000Y-49530959D01*
X103934668Y-49507794D01*
X104007794Y-49434668D01*
X104065249Y-49348681D01*
X104104824Y-49253137D01*
X104125000Y-49151708D01*
X104125000Y-49048292D01*
X104104824Y-48946863D01*
X104065249Y-48851319D01*
X104007794Y-48765332D01*
X103934668Y-48692206D01*
X103848681Y-48634751D01*
X103753137Y-48595176D01*
X103651708Y-48575000D01*
X103548292Y-48575000D01*
X103446863Y-48595176D01*
X103351319Y-48634751D01*
X103265332Y-48692206D01*
X103200000Y-48757538D01*
X103134668Y-48692206D01*
X103048681Y-48634751D01*
X102953137Y-48595176D01*
X102851708Y-48575000D01*
X102748292Y-48575000D01*
X102646863Y-48595176D01*
X102551319Y-48634751D01*
X102465332Y-48692206D01*
X102392206Y-48765332D01*
X102334751Y-48851319D01*
X102295176Y-48946863D01*
X102275000Y-49048292D01*
X102275000Y-49151708D01*
X102295176Y-49253137D01*
X102334751Y-49348681D01*
X102392206Y-49434668D01*
X102465332Y-49507794D01*
X102500001Y-49530959D01*
X102500000Y-56232336D01*
X101970902Y-56761435D01*
X101930008Y-56753300D01*
X101826592Y-56753300D01*
X101725163Y-56773476D01*
X101629619Y-56813051D01*
X101543632Y-56870506D01*
X101470506Y-56943632D01*
X101413051Y-57029619D01*
X101373476Y-57125163D01*
X101353300Y-57226592D01*
X88897671Y-57226592D01*
X92401717Y-53722547D01*
X92413158Y-53713158D01*
X92423956Y-53700001D01*
X92450647Y-53667478D01*
X92478503Y-53615361D01*
X92478504Y-53615360D01*
X92495659Y-53558810D01*
X92500000Y-53514733D01*
X92500000Y-53514724D01*
X92501450Y-53500001D01*
X92500000Y-53485278D01*
X92500000Y-50130959D01*
X92534668Y-50107794D01*
X92607794Y-50034668D01*
X92665249Y-49948681D01*
X92704824Y-49853137D01*
X92725000Y-49751708D01*
X92725000Y-49648292D01*
X92704824Y-49546863D01*
X92665249Y-49451319D01*
X92607794Y-49365332D01*
X92534668Y-49292206D01*
X92448681Y-49234751D01*
X92353137Y-49195176D01*
X92251708Y-49175000D01*
X92148292Y-49175000D01*
X92046863Y-49195176D01*
X91951319Y-49234751D01*
X91865332Y-49292206D01*
X91800000Y-49357538D01*
X91734668Y-49292206D01*
X91648681Y-49234751D01*
X91553137Y-49195176D01*
X91451708Y-49175000D01*
X91348292Y-49175000D01*
X91246863Y-49195176D01*
X91151319Y-49234751D01*
X91100000Y-49269041D01*
X91100000Y-48848292D01*
X94475000Y-48848292D01*
X94475000Y-48951708D01*
X94495176Y-49053137D01*
X94534751Y-49148681D01*
X94592206Y-49234668D01*
X94665332Y-49307794D01*
X94751319Y-49365249D01*
X94846863Y-49404824D01*
X94948292Y-49425000D01*
X95051708Y-49425000D01*
X95153137Y-49404824D01*
X95248681Y-49365249D01*
X95334668Y-49307794D01*
X95407794Y-49234668D01*
X95465249Y-49148681D01*
X95504824Y-49053137D01*
X95525000Y-48951708D01*
X95525000Y-48848292D01*
X95504824Y-48746863D01*
X95465249Y-48651319D01*
X95407794Y-48565332D01*
X95334668Y-48492206D01*
X95248681Y-48434751D01*
X95153137Y-48395176D01*
X95051708Y-48375000D01*
X94948292Y-48375000D01*
X94846863Y-48395176D01*
X94751319Y-48434751D01*
X94665332Y-48492206D01*
X94592206Y-48565332D01*
X94534751Y-48651319D01*
X94495176Y-48746863D01*
X94475000Y-48848292D01*
X91100000Y-48848292D01*
X91100000Y-48824263D01*
X92075971Y-47848292D01*
X92875000Y-47848292D01*
X92875000Y-47951708D01*
X92895176Y-48053137D01*
X92934751Y-48148681D01*
X92992206Y-48234668D01*
X93065332Y-48307794D01*
X93151319Y-48365249D01*
X93246863Y-48404824D01*
X93348292Y-48425000D01*
X93451708Y-48425000D01*
X93553137Y-48404824D01*
X93648681Y-48365249D01*
X93734668Y-48307794D01*
X93807794Y-48234668D01*
X93865249Y-48148681D01*
X93904824Y-48053137D01*
X93925000Y-47951708D01*
X93925000Y-47848292D01*
X93904824Y-47746863D01*
X93865249Y-47651319D01*
X93807794Y-47565332D01*
X93734668Y-47492206D01*
X93648681Y-47434751D01*
X93553137Y-47395176D01*
X93451708Y-47375000D01*
X96825000Y-47375000D01*
X96825000Y-48150000D01*
X96844769Y-48300715D01*
X96893561Y-48444677D01*
X96969501Y-48576354D01*
X97069671Y-48690686D01*
X97190221Y-48783279D01*
X97326519Y-48850574D01*
X97454134Y-48886150D01*
X97575000Y-48830807D01*
X97575000Y-47375000D01*
X96825000Y-47375000D01*
X93451708Y-47375000D01*
X93348292Y-47375000D01*
X93246863Y-47395176D01*
X93151319Y-47434751D01*
X93065332Y-47492206D01*
X92992206Y-47565332D01*
X92934751Y-47651319D01*
X92895176Y-47746863D01*
X92875000Y-47848292D01*
X92075971Y-47848292D01*
X93374263Y-46550000D01*
X96825000Y-46550000D01*
X96825000Y-47325000D01*
X97575000Y-47325000D01*
X97575000Y-45869193D01*
X97454134Y-45813850D01*
X97326519Y-45849426D01*
X97190221Y-45916721D01*
X97069671Y-46009314D01*
X96969501Y-46123646D01*
X96893561Y-46255323D01*
X96844769Y-46399285D01*
X96825000Y-46550000D01*
X93374263Y-46550000D01*
X94201715Y-45722549D01*
X94213158Y-45713158D01*
X94230353Y-45692206D01*
X94250647Y-45667478D01*
X94278503Y-45615361D01*
X94278504Y-45615360D01*
X94295659Y-45558810D01*
X94300000Y-45514733D01*
X94300000Y-45514724D01*
X94301450Y-45500001D01*
X94300000Y-45485278D01*
X94300000Y-44145000D01*
X96825000Y-44145000D01*
X96825000Y-44845000D01*
X96844769Y-44995715D01*
X96893561Y-45139677D01*
X96969501Y-45271354D01*
X97069671Y-45385686D01*
X97190221Y-45478279D01*
X97326519Y-45545574D01*
X97454134Y-45581150D01*
X97575000Y-45525807D01*
X97575000Y-44145000D01*
X96825000Y-44145000D01*
X94300000Y-44145000D01*
X94300000Y-44130959D01*
X94334668Y-44107794D01*
X94407794Y-44034668D01*
X94465249Y-43948681D01*
X94504824Y-43853137D01*
X94525000Y-43751708D01*
X94525000Y-43648292D01*
X94504824Y-43546863D01*
X94465249Y-43451319D01*
X94427618Y-43395000D01*
X96825000Y-43395000D01*
X96825000Y-44095000D01*
X97575000Y-44095000D01*
X97575000Y-42714193D01*
X97454134Y-42658850D01*
X97326519Y-42694426D01*
X97190221Y-42761721D01*
X97069671Y-42854314D01*
X96969501Y-42968646D01*
X96893561Y-43100323D01*
X96844769Y-43244285D01*
X96825000Y-43395000D01*
X94427618Y-43395000D01*
X94407794Y-43365332D01*
X94334668Y-43292206D01*
X94248681Y-43234751D01*
X94153137Y-43195176D01*
X94051708Y-43175000D01*
X93948292Y-43175000D01*
X93846863Y-43195176D01*
X93751319Y-43234751D01*
X93665332Y-43292206D01*
X93592206Y-43365332D01*
X93534751Y-43451319D01*
X93495176Y-43546863D01*
X93475000Y-43648292D01*
X93475000Y-43751708D01*
X93495176Y-43853137D01*
X93534751Y-43948681D01*
X93592206Y-44034668D01*
X93665332Y-44107794D01*
X93700000Y-44130959D01*
X93700001Y-45375735D01*
X90598290Y-48477447D01*
X90586842Y-48486842D01*
X90566358Y-48511802D01*
X90549353Y-48532523D01*
X90534464Y-48560380D01*
X90521496Y-48584641D01*
X90504341Y-48641191D01*
X90500000Y-48685268D01*
X90500000Y-48685277D01*
X90498550Y-48700000D01*
X90500000Y-48714723D01*
X90500001Y-53575735D01*
X83875737Y-60200000D01*
X82414722Y-60200000D01*
X82399999Y-60198550D01*
X82385276Y-60200000D01*
X82385267Y-60200000D01*
X82341190Y-60204341D01*
X82284640Y-60221496D01*
X82260379Y-60234464D01*
X82232522Y-60249353D01*
X82198285Y-60277451D01*
X82186842Y-60286842D01*
X82177451Y-60298285D01*
X81892602Y-60583135D01*
X81851708Y-60575000D01*
X81748292Y-60575000D01*
X81646863Y-60595176D01*
X81551319Y-60634751D01*
X81465332Y-60692206D01*
X81392206Y-60765332D01*
X81334751Y-60851319D01*
X81295176Y-60946863D01*
X81275000Y-61048292D01*
X76572557Y-61048292D01*
X67972556Y-52448292D01*
X69275000Y-52448292D01*
X69275000Y-52551708D01*
X69295176Y-52653137D01*
X69334751Y-52748681D01*
X69392206Y-52834668D01*
X69465332Y-52907794D01*
X69551319Y-52965249D01*
X69646863Y-53004824D01*
X69748292Y-53025000D01*
X69851708Y-53025000D01*
X69953137Y-53004824D01*
X70048681Y-52965249D01*
X70134668Y-52907794D01*
X70207794Y-52834668D01*
X70265249Y-52748681D01*
X70304824Y-52653137D01*
X70325000Y-52551708D01*
X70325000Y-52448292D01*
X70304824Y-52346863D01*
X70265249Y-52251319D01*
X70207794Y-52165332D01*
X70134668Y-52092206D01*
X70048681Y-52034751D01*
X69953137Y-51995176D01*
X69851708Y-51975000D01*
X69748292Y-51975000D01*
X69646863Y-51995176D01*
X69551319Y-52034751D01*
X69465332Y-52092206D01*
X69392206Y-52165332D01*
X69334751Y-52251319D01*
X69295176Y-52346863D01*
X69275000Y-52448292D01*
X67972556Y-52448292D01*
X67700000Y-52175737D01*
X67700000Y-50525000D01*
X71070000Y-50525000D01*
X71070000Y-51325000D01*
X71095533Y-51534242D01*
X71161397Y-51734482D01*
X71265060Y-51918025D01*
X71402538Y-52077818D01*
X71568549Y-52207720D01*
X71756713Y-52302738D01*
X71952186Y-52357567D01*
X72120000Y-52305939D01*
X72120000Y-50525000D01*
X71070000Y-50525000D01*
X67700000Y-50525000D01*
X67700000Y-49675000D01*
X71070000Y-49675000D01*
X71070000Y-50475000D01*
X72120000Y-50475000D01*
X72120000Y-48694061D01*
X71952186Y-48642433D01*
X71756713Y-48697262D01*
X71568549Y-48792280D01*
X71402538Y-48922182D01*
X71265060Y-49081975D01*
X71161397Y-49265518D01*
X71095533Y-49465758D01*
X71070000Y-49675000D01*
X67700000Y-49675000D01*
X67700000Y-44615394D01*
X67753137Y-44604824D01*
X67848681Y-44565249D01*
X67934668Y-44507794D01*
X68007794Y-44434668D01*
X68065249Y-44348681D01*
X68104824Y-44253137D01*
X68105787Y-44248292D01*
X69675000Y-44248292D01*
X69675000Y-44351708D01*
X69695176Y-44453137D01*
X69734751Y-44548681D01*
X69792206Y-44634668D01*
X69865332Y-44707794D01*
X69951319Y-44765249D01*
X70046863Y-44804824D01*
X70148292Y-44825000D01*
X70251708Y-44825000D01*
X70353137Y-44804824D01*
X70448681Y-44765249D01*
X70534668Y-44707794D01*
X70607794Y-44634668D01*
X70665249Y-44548681D01*
X70704824Y-44453137D01*
X70725000Y-44351708D01*
X70725000Y-44248292D01*
X70704824Y-44146863D01*
X70665249Y-44051319D01*
X70607794Y-43965332D01*
X70534668Y-43892206D01*
X70448681Y-43834751D01*
X70353137Y-43795176D01*
X70251708Y-43775000D01*
X70148292Y-43775000D01*
X70046863Y-43795176D01*
X69951319Y-43834751D01*
X69865332Y-43892206D01*
X69792206Y-43965332D01*
X69734751Y-44051319D01*
X69695176Y-44146863D01*
X69675000Y-44248292D01*
X68105787Y-44248292D01*
X68125000Y-44151708D01*
X68125000Y-44048292D01*
X68104824Y-43946863D01*
X68065249Y-43851319D01*
X68007794Y-43765332D01*
X67967462Y-43725000D01*
X71070000Y-43725000D01*
X71070000Y-44525000D01*
X71095533Y-44734242D01*
X71161397Y-44934482D01*
X71265060Y-45118025D01*
X71402538Y-45277818D01*
X71568549Y-45407720D01*
X71756713Y-45502738D01*
X71952186Y-45557567D01*
X72120000Y-45505939D01*
X72120000Y-43725000D01*
X71070000Y-43725000D01*
X67967462Y-43725000D01*
X67942462Y-43700000D01*
X68007794Y-43634668D01*
X68065249Y-43548681D01*
X68104824Y-43453137D01*
X68125000Y-43351708D01*
X68125000Y-43248292D01*
X68104824Y-43146863D01*
X68065249Y-43051319D01*
X68007794Y-42965332D01*
X67934668Y-42892206D01*
X67908918Y-42875000D01*
X71070000Y-42875000D01*
X71070000Y-43675000D01*
X72120000Y-43675000D01*
X72120000Y-41894061D01*
X71952186Y-41842433D01*
X71756713Y-41897262D01*
X71568549Y-41992280D01*
X71402538Y-42122182D01*
X71265060Y-42281975D01*
X71161397Y-42465518D01*
X71095533Y-42665758D01*
X71070000Y-42875000D01*
X67908918Y-42875000D01*
X67848681Y-42834751D01*
X67753137Y-42795176D01*
X67651708Y-42775000D01*
X67548292Y-42775000D01*
X67446863Y-42795176D01*
X67351319Y-42834751D01*
X67265332Y-42892206D01*
X67192206Y-42965332D01*
X67134751Y-43051319D01*
X67095176Y-43146863D01*
X67075000Y-43248292D01*
X67075000Y-43351708D01*
X67083135Y-43392602D01*
X66800000Y-43675736D01*
X66516865Y-43392602D01*
X66525000Y-43351708D01*
X66525000Y-43248292D01*
X66504824Y-43146863D01*
X66465249Y-43051319D01*
X66407794Y-42965332D01*
X66334668Y-42892206D01*
X66248681Y-42834751D01*
X66153137Y-42795176D01*
X66051708Y-42775000D01*
X65948292Y-42775000D01*
X65846863Y-42795176D01*
X65751319Y-42834751D01*
X65665332Y-42892206D01*
X65592206Y-42965332D01*
X65534751Y-43051319D01*
X65495176Y-43146863D01*
X65475000Y-43248292D01*
X62075000Y-43248292D01*
X62075000Y-41775000D01*
X72158503Y-41775000D01*
X72198909Y-41771020D01*
X72250747Y-41755296D01*
X72298521Y-41729760D01*
X72304260Y-41725050D01*
X73074950Y-41725050D01*
X73074950Y-42370522D01*
G36*
X89100001Y-79425267D02*
G01*
X89098550Y-79440000D01*
X89104342Y-79498810D01*
X89121497Y-79555360D01*
X89149353Y-79607477D01*
X89177451Y-79641714D01*
X89186843Y-79653158D01*
X89198285Y-79662549D01*
X90389503Y-80853767D01*
X90322468Y-81015603D01*
X90285000Y-81203971D01*
X90285000Y-81396029D01*
X90322468Y-81584397D01*
X90395966Y-81761836D01*
X90502668Y-81921527D01*
X90581141Y-82000000D01*
X89844264Y-82000000D01*
X89590497Y-81746233D01*
X89657532Y-81584397D01*
X89695000Y-81396029D01*
X89695000Y-81203971D01*
X89657532Y-81015603D01*
X89584034Y-80838164D01*
X89477332Y-80678473D01*
X89341527Y-80542668D01*
X89181836Y-80435966D01*
X89004397Y-80362468D01*
X88816029Y-80325000D01*
X88623971Y-80325000D01*
X88435603Y-80362468D01*
X88258164Y-80435966D01*
X88098473Y-80542668D01*
X88000000Y-80641141D01*
X88000000Y-79524263D01*
X89001715Y-78522549D01*
X89013158Y-78513158D01*
X89022549Y-78501715D01*
X89050647Y-78467478D01*
X89078503Y-78415361D01*
X89078504Y-78415360D01*
X89095659Y-78358810D01*
X89100000Y-78314733D01*
X89100000Y-78314723D01*
X89100001Y-78314714D01*
X89100001Y-79425267D01*
G37*
X89100001Y-79425267D02*
X89098550Y-79440000D01*
X89104342Y-79498810D01*
X89121497Y-79555360D01*
X89149353Y-79607477D01*
X89177451Y-79641714D01*
X89186843Y-79653158D01*
X89198285Y-79662549D01*
X90389503Y-80853767D01*
X90322468Y-81015603D01*
X90285000Y-81203971D01*
X90285000Y-81396029D01*
X90322468Y-81584397D01*
X90395966Y-81761836D01*
X90502668Y-81921527D01*
X90581141Y-82000000D01*
X89844264Y-82000000D01*
X89590497Y-81746233D01*
X89657532Y-81584397D01*
X89695000Y-81396029D01*
X89695000Y-81203971D01*
X89657532Y-81015603D01*
X89584034Y-80838164D01*
X89477332Y-80678473D01*
X89341527Y-80542668D01*
X89181836Y-80435966D01*
X89004397Y-80362468D01*
X88816029Y-80325000D01*
X88623971Y-80325000D01*
X88435603Y-80362468D01*
X88258164Y-80435966D01*
X88098473Y-80542668D01*
X88000000Y-80641141D01*
X88000000Y-79524263D01*
X89001715Y-78522549D01*
X89013158Y-78513158D01*
X89022549Y-78501715D01*
X89050647Y-78467478D01*
X89078503Y-78415361D01*
X89078504Y-78415360D01*
X89095659Y-78358810D01*
X89100000Y-78314733D01*
X89100000Y-78314723D01*
X89100001Y-78314714D01*
X89100001Y-79425267D01*
G36*
X78177450Y-66501714D02*
G01*
X78186842Y-66513158D01*
X78198285Y-66522549D01*
X78232522Y-66550647D01*
X78260379Y-66565536D01*
X78284640Y-66578504D01*
X78341190Y-66595659D01*
X78385267Y-66600000D01*
X78385276Y-66600000D01*
X78399999Y-66601450D01*
X78414722Y-66600000D01*
X83275737Y-66600000D01*
X86250736Y-69575000D01*
X86148292Y-69575000D01*
X86046863Y-69595176D01*
X85951319Y-69634751D01*
X85865332Y-69692206D01*
X85792206Y-69765332D01*
X85769041Y-69800000D01*
X77014722Y-69800000D01*
X76999999Y-69798550D01*
X76985276Y-69800000D01*
X76985267Y-69800000D01*
X76941190Y-69804341D01*
X76884640Y-69821496D01*
X76860379Y-69834464D01*
X76832522Y-69849353D01*
X76811195Y-69866856D01*
X76786842Y-69886842D01*
X76777451Y-69898285D01*
X74275737Y-72400000D01*
X73203130Y-72400000D01*
X73225608Y-72387985D01*
X73259868Y-72359868D01*
X73287985Y-72325608D01*
X73308878Y-72286520D01*
X73321744Y-72244108D01*
X73326088Y-72200000D01*
X73326088Y-71200000D01*
X73321744Y-71155892D01*
X73308878Y-71113480D01*
X73287985Y-71074392D01*
X73259868Y-71040132D01*
X73225608Y-71012015D01*
X73186520Y-70991122D01*
X73144108Y-70978256D01*
X73100000Y-70973912D01*
X73081393Y-70973912D01*
X73163144Y-70892161D01*
X73242487Y-70773416D01*
X73297139Y-70641475D01*
X73325000Y-70501406D01*
X73325000Y-70358594D01*
X73297139Y-70218525D01*
X73242487Y-70086584D01*
X73163144Y-69967839D01*
X73062161Y-69866856D01*
X72996445Y-69822946D01*
X73026042Y-69807392D01*
X73144156Y-69711836D01*
X73241358Y-69595073D01*
X73313913Y-69461590D01*
X73359033Y-69316518D01*
X73361150Y-69305866D01*
X73305807Y-69185000D01*
X72625000Y-69185000D01*
X72625000Y-69205000D01*
X72575000Y-69205000D01*
X72575000Y-69185000D01*
X72555000Y-69185000D01*
X72555000Y-69135000D01*
X72575000Y-69135000D01*
X72575000Y-67915000D01*
X72625000Y-67915000D01*
X72625000Y-69135000D01*
X73305807Y-69135000D01*
X73345509Y-69048292D01*
X79475000Y-69048292D01*
X79475000Y-69151708D01*
X79495176Y-69253137D01*
X79534751Y-69348681D01*
X79592206Y-69434668D01*
X79665332Y-69507794D01*
X79751319Y-69565249D01*
X79846863Y-69604824D01*
X79948292Y-69625000D01*
X80051708Y-69625000D01*
X80153137Y-69604824D01*
X80248681Y-69565249D01*
X80334668Y-69507794D01*
X80407794Y-69434668D01*
X80465249Y-69348681D01*
X80504824Y-69253137D01*
X80525000Y-69151708D01*
X80525000Y-69048292D01*
X80504824Y-68946863D01*
X80465249Y-68851319D01*
X80407794Y-68765332D01*
X80334668Y-68692206D01*
X80248681Y-68634751D01*
X80153137Y-68595176D01*
X80051708Y-68575000D01*
X79948292Y-68575000D01*
X79846863Y-68595176D01*
X79751319Y-68634751D01*
X79665332Y-68692206D01*
X79592206Y-68765332D01*
X79534751Y-68851319D01*
X79495176Y-68946863D01*
X79475000Y-69048292D01*
X73345509Y-69048292D01*
X73361150Y-69014134D01*
X73359033Y-69003482D01*
X73313913Y-68858410D01*
X73241358Y-68724927D01*
X73144156Y-68608164D01*
X73041359Y-68525000D01*
X73144156Y-68441836D01*
X73241358Y-68325073D01*
X73313913Y-68191590D01*
X73359033Y-68046518D01*
X73361150Y-68035866D01*
X73305807Y-67915000D01*
X72625000Y-67915000D01*
X72575000Y-67915000D01*
X72555000Y-67915000D01*
X72555000Y-67865000D01*
X72575000Y-67865000D01*
X72575000Y-67845000D01*
X72625000Y-67845000D01*
X72625000Y-67865000D01*
X73305807Y-67865000D01*
X73313457Y-67848292D01*
X83075000Y-67848292D01*
X83075000Y-67951708D01*
X83095176Y-68053137D01*
X83134751Y-68148681D01*
X83192206Y-68234668D01*
X83265332Y-68307794D01*
X83351319Y-68365249D01*
X83446863Y-68404824D01*
X83548292Y-68425000D01*
X83651708Y-68425000D01*
X83753137Y-68404824D01*
X83848681Y-68365249D01*
X83934668Y-68307794D01*
X84007794Y-68234668D01*
X84065249Y-68148681D01*
X84104824Y-68053137D01*
X84125000Y-67951708D01*
X84125000Y-67848292D01*
X84104824Y-67746863D01*
X84065249Y-67651319D01*
X84007794Y-67565332D01*
X83934668Y-67492206D01*
X83848681Y-67434751D01*
X83753137Y-67395176D01*
X83651708Y-67375000D01*
X83548292Y-67375000D01*
X83446863Y-67395176D01*
X83351319Y-67434751D01*
X83265332Y-67492206D01*
X83192206Y-67565332D01*
X83134751Y-67651319D01*
X83095176Y-67746863D01*
X83075000Y-67848292D01*
X73313457Y-67848292D01*
X73361150Y-67744134D01*
X73359033Y-67733482D01*
X73313913Y-67588410D01*
X73241358Y-67454927D01*
X73144156Y-67338164D01*
X73026042Y-67242608D01*
X72996445Y-67227054D01*
X73062161Y-67183144D01*
X73163144Y-67082161D01*
X73242487Y-66963416D01*
X73297139Y-66831475D01*
X73325000Y-66691406D01*
X73325000Y-66548594D01*
X73297139Y-66408525D01*
X73242487Y-66276584D01*
X73163144Y-66157839D01*
X73062161Y-66056856D01*
X72996445Y-66012946D01*
X73026042Y-65997392D01*
X73144156Y-65901836D01*
X73241358Y-65785073D01*
X73313913Y-65651590D01*
X73359033Y-65506518D01*
X73361150Y-65495866D01*
X73305807Y-65375000D01*
X72625000Y-65375000D01*
X72625000Y-65395000D01*
X72575000Y-65395000D01*
X72575000Y-65375000D01*
X72555000Y-65375000D01*
X72555000Y-65325000D01*
X72575000Y-65325000D01*
X72575000Y-65305000D01*
X72625000Y-65305000D01*
X72625000Y-65325000D01*
X73305807Y-65325000D01*
X73361150Y-65204134D01*
X73359033Y-65193482D01*
X73313913Y-65048410D01*
X73241358Y-64914927D01*
X73144156Y-64798164D01*
X73026042Y-64702608D01*
X72996445Y-64687054D01*
X73062161Y-64643144D01*
X73163144Y-64542161D01*
X73242487Y-64423416D01*
X73260471Y-64380000D01*
X76055737Y-64380000D01*
X78177450Y-66501714D01*
G37*
X78177450Y-66501714D02*
X78186842Y-66513158D01*
X78198285Y-66522549D01*
X78232522Y-66550647D01*
X78260379Y-66565536D01*
X78284640Y-66578504D01*
X78341190Y-66595659D01*
X78385267Y-66600000D01*
X78385276Y-66600000D01*
X78399999Y-66601450D01*
X78414722Y-66600000D01*
X83275737Y-66600000D01*
X86250736Y-69575000D01*
X86148292Y-69575000D01*
X86046863Y-69595176D01*
X85951319Y-69634751D01*
X85865332Y-69692206D01*
X85792206Y-69765332D01*
X85769041Y-69800000D01*
X77014722Y-69800000D01*
X76999999Y-69798550D01*
X76985276Y-69800000D01*
X76985267Y-69800000D01*
X76941190Y-69804341D01*
X76884640Y-69821496D01*
X76860379Y-69834464D01*
X76832522Y-69849353D01*
X76811195Y-69866856D01*
X76786842Y-69886842D01*
X76777451Y-69898285D01*
X74275737Y-72400000D01*
X73203130Y-72400000D01*
X73225608Y-72387985D01*
X73259868Y-72359868D01*
X73287985Y-72325608D01*
X73308878Y-72286520D01*
X73321744Y-72244108D01*
X73326088Y-72200000D01*
X73326088Y-71200000D01*
X73321744Y-71155892D01*
X73308878Y-71113480D01*
X73287985Y-71074392D01*
X73259868Y-71040132D01*
X73225608Y-71012015D01*
X73186520Y-70991122D01*
X73144108Y-70978256D01*
X73100000Y-70973912D01*
X73081393Y-70973912D01*
X73163144Y-70892161D01*
X73242487Y-70773416D01*
X73297139Y-70641475D01*
X73325000Y-70501406D01*
X73325000Y-70358594D01*
X73297139Y-70218525D01*
X73242487Y-70086584D01*
X73163144Y-69967839D01*
X73062161Y-69866856D01*
X72996445Y-69822946D01*
X73026042Y-69807392D01*
X73144156Y-69711836D01*
X73241358Y-69595073D01*
X73313913Y-69461590D01*
X73359033Y-69316518D01*
X73361150Y-69305866D01*
X73305807Y-69185000D01*
X72625000Y-69185000D01*
X72625000Y-69205000D01*
X72575000Y-69205000D01*
X72575000Y-69185000D01*
X72555000Y-69185000D01*
X72555000Y-69135000D01*
X72575000Y-69135000D01*
X72575000Y-67915000D01*
X72625000Y-67915000D01*
X72625000Y-69135000D01*
X73305807Y-69135000D01*
X73345509Y-69048292D01*
X79475000Y-69048292D01*
X79475000Y-69151708D01*
X79495176Y-69253137D01*
X79534751Y-69348681D01*
X79592206Y-69434668D01*
X79665332Y-69507794D01*
X79751319Y-69565249D01*
X79846863Y-69604824D01*
X79948292Y-69625000D01*
X80051708Y-69625000D01*
X80153137Y-69604824D01*
X80248681Y-69565249D01*
X80334668Y-69507794D01*
X80407794Y-69434668D01*
X80465249Y-69348681D01*
X80504824Y-69253137D01*
X80525000Y-69151708D01*
X80525000Y-69048292D01*
X80504824Y-68946863D01*
X80465249Y-68851319D01*
X80407794Y-68765332D01*
X80334668Y-68692206D01*
X80248681Y-68634751D01*
X80153137Y-68595176D01*
X80051708Y-68575000D01*
X79948292Y-68575000D01*
X79846863Y-68595176D01*
X79751319Y-68634751D01*
X79665332Y-68692206D01*
X79592206Y-68765332D01*
X79534751Y-68851319D01*
X79495176Y-68946863D01*
X79475000Y-69048292D01*
X73345509Y-69048292D01*
X73361150Y-69014134D01*
X73359033Y-69003482D01*
X73313913Y-68858410D01*
X73241358Y-68724927D01*
X73144156Y-68608164D01*
X73041359Y-68525000D01*
X73144156Y-68441836D01*
X73241358Y-68325073D01*
X73313913Y-68191590D01*
X73359033Y-68046518D01*
X73361150Y-68035866D01*
X73305807Y-67915000D01*
X72625000Y-67915000D01*
X72575000Y-67915000D01*
X72555000Y-67915000D01*
X72555000Y-67865000D01*
X72575000Y-67865000D01*
X72575000Y-67845000D01*
X72625000Y-67845000D01*
X72625000Y-67865000D01*
X73305807Y-67865000D01*
X73313457Y-67848292D01*
X83075000Y-67848292D01*
X83075000Y-67951708D01*
X83095176Y-68053137D01*
X83134751Y-68148681D01*
X83192206Y-68234668D01*
X83265332Y-68307794D01*
X83351319Y-68365249D01*
X83446863Y-68404824D01*
X83548292Y-68425000D01*
X83651708Y-68425000D01*
X83753137Y-68404824D01*
X83848681Y-68365249D01*
X83934668Y-68307794D01*
X84007794Y-68234668D01*
X84065249Y-68148681D01*
X84104824Y-68053137D01*
X84125000Y-67951708D01*
X84125000Y-67848292D01*
X84104824Y-67746863D01*
X84065249Y-67651319D01*
X84007794Y-67565332D01*
X83934668Y-67492206D01*
X83848681Y-67434751D01*
X83753137Y-67395176D01*
X83651708Y-67375000D01*
X83548292Y-67375000D01*
X83446863Y-67395176D01*
X83351319Y-67434751D01*
X83265332Y-67492206D01*
X83192206Y-67565332D01*
X83134751Y-67651319D01*
X83095176Y-67746863D01*
X83075000Y-67848292D01*
X73313457Y-67848292D01*
X73361150Y-67744134D01*
X73359033Y-67733482D01*
X73313913Y-67588410D01*
X73241358Y-67454927D01*
X73144156Y-67338164D01*
X73026042Y-67242608D01*
X72996445Y-67227054D01*
X73062161Y-67183144D01*
X73163144Y-67082161D01*
X73242487Y-66963416D01*
X73297139Y-66831475D01*
X73325000Y-66691406D01*
X73325000Y-66548594D01*
X73297139Y-66408525D01*
X73242487Y-66276584D01*
X73163144Y-66157839D01*
X73062161Y-66056856D01*
X72996445Y-66012946D01*
X73026042Y-65997392D01*
X73144156Y-65901836D01*
X73241358Y-65785073D01*
X73313913Y-65651590D01*
X73359033Y-65506518D01*
X73361150Y-65495866D01*
X73305807Y-65375000D01*
X72625000Y-65375000D01*
X72625000Y-65395000D01*
X72575000Y-65395000D01*
X72575000Y-65375000D01*
X72555000Y-65375000D01*
X72555000Y-65325000D01*
X72575000Y-65325000D01*
X72575000Y-65305000D01*
X72625000Y-65305000D01*
X72625000Y-65325000D01*
X73305807Y-65325000D01*
X73361150Y-65204134D01*
X73359033Y-65193482D01*
X73313913Y-65048410D01*
X73241358Y-64914927D01*
X73144156Y-64798164D01*
X73026042Y-64702608D01*
X72996445Y-64687054D01*
X73062161Y-64643144D01*
X73163144Y-64542161D01*
X73242487Y-64423416D01*
X73260471Y-64380000D01*
X76055737Y-64380000D01*
X78177450Y-66501714D01*
%TD*%
M02*
