M48
; DRILL file {KiCad (5.1.5)-3} date 07.05.2020 11:23:41
; FORMAT={-:-/ absolute / inch / decimal}
; #@! TF.CreationDate,2020-05-07T11:23:41+02:00
; #@! TF.GenerationSoftware,Kicad,Pcbnew,(5.1.5)-3
; #@! TF.FileFunction,Plated,1,2,PTH
FMAT,2
INCH
T1C0.0118
T2C0.0197
T3C0.0217
T4C0.0256
T5C0.0315
T6C0.0394
T7C0.0787
%
G90
G05
T1
X2.7992Y-1.9724
X2.8189Y-1.9488
X2.8406Y-1.9724
X2.8622Y-1.9488
X2.8976Y-1.9724
X3.0236Y-2.6654
X3.0256Y-2.4469
X3.0256Y-2.5217
X3.0472Y-2.8898
X3.0709Y-2.815
X3.0906Y-2.2087
X3.1654Y-2.5709
X3.1811Y-2.6339
X3.1811Y-2.6654
X3.1811Y-2.7283
X3.185Y-2.3937
X3.2323Y-2.4547
X3.2638Y-2.815
X3.2638Y-2.8898
X3.2992Y-2.0197
X3.3071Y-1.874
X3.3071Y-1.9055
X3.315Y-2.626
X3.3386Y-1.874
X3.3386Y-1.9055
X3.3386Y-2.315
X3.3701Y-1.874
X3.3701Y-1.9055
X3.3701Y-2.6575
X3.3701Y-2.7992
X3.4016Y-2.626
X3.4016Y-2.689
X3.4016Y-2.7677
X3.4016Y-2.7992
X3.4331Y-2.7205
X3.4724Y-2.3228
X3.4724Y-2.5157
X3.5512Y-2.8465
X3.5591Y-2.6732
X3.5827Y-2.815
X3.5945Y-2.6142
X3.6142Y-2.7835
X3.626Y-2.6142
X3.6457Y-2.7992
X3.6614Y-4.122
X3.6614Y-4.1535
X3.689Y-2.5
X3.689Y-2.622
X3.689Y-2.9449
X3.7008Y-2.7126
X3.7205Y-2.9449
X3.7244Y-2.7362
X3.7244Y-3.1339
X3.7559Y-2.6575
X3.7559Y-2.7362
X3.7638Y-3.1339
X3.8583Y-2.7835
X3.8583Y-2.815
X3.8583Y-2.8465
X3.9449Y-2.6575
X3.9724Y-2.7598
X3.9921Y-2.8858
X4.2874Y-2.7795
T2
X2.5591Y-1.7028
X2.5591Y-1.752
X2.5591Y-1.8012
X2.5591Y-1.8504
X2.5591Y-1.8996
X2.9291Y-2.5197
X2.9291Y-2.6181
X2.9291Y-2.6654
X2.9291Y-2.7126
X3.002Y-1.9488
X3.0079Y-2.8524
X3.0512Y-1.9488
X3.0807Y-1.9783
X3.0807Y-2.0276
X3.0906Y-2.3031
X3.0906Y-2.3524
X3.0906Y-2.4016
X3.4744Y-2.9626
X3.4744Y-3.0118
X3.5039Y-2.4311
X3.5276Y-1.7106
X3.5276Y-1.9173
X3.5433Y-4.6457
X3.5531Y-2.4311
X3.6417Y-2.4606
X3.6516Y-2.9626
X3.6516Y-3.0118
X3.6909Y-2.4606
X3.8287Y-2.5719
X3.8386Y-2.1654
X3.8386Y-2.2146
X3.8386Y-2.2638
X3.8583Y-2.9626
X3.8583Y-3.0118
X3.8878Y-2.1654
X3.8878Y-2.2146
X3.8878Y-2.2638
X3.937Y-2.1654
X3.937Y-2.2146
X3.937Y-2.2638
X4.124Y-1.6732
X4.124Y-1.7224
X4.124Y-1.7717
X4.124Y-2.6673
X4.124Y-2.7461
X4.124Y-2.8445
X4.124Y-3.0118
X4.1732Y-1.6732
X4.1732Y-1.7224
X4.1732Y-1.7717
X4.2224Y-1.6732
X4.2224Y-1.7224
X4.2224Y-1.7717
T4
X4.265Y-2.2941
X4.265Y-2.3441
X4.265Y-2.3941
X4.265Y-2.4441
X4.265Y-2.4941
X4.265Y-2.5441
X4.265Y-2.5941
X4.315Y-2.2941
X4.315Y-2.3441
X4.315Y-2.3941
X4.315Y-2.4441
X4.315Y-2.4941
X4.315Y-2.5441
X4.315Y-2.5941
T5
X2.628Y-2.1752
X2.7657Y-2.1752
T6
X4.5276Y-3.0512
X4.5256Y-2.8839
X4.5256Y-2.7146
X3.0929Y-3.2008
X3.0929Y-4.2008
X3.1929Y-3.2008
X3.1929Y-4.2008
X3.2929Y-3.2008
X3.3929Y-3.2008
X3.4929Y-3.2008
X3.5929Y-3.2008
X3.6929Y-3.2008
X3.7929Y-3.2008
X3.8929Y-3.2008
X3.8929Y-4.2008
X3.9929Y-3.2008
X3.9929Y-4.2008
T7
X4.4606Y-3.9173
X4.4606Y-4.1339
T3
G00X2.6378Y-1.7616
M15
G01X2.6378Y-1.7124
M16
G05
G00X2.6378Y-1.8937
M15
G01X2.6378Y-1.8346
M16
G05
G00X3.063Y-1.7616
M15
G01X3.063Y-1.7124
M16
G05
G00X3.063Y-1.8937
M15
G01X3.063Y-1.8346
M16
G05
T0
M30
