M48
; DRILL file {KiCad (5.1.5)-3} date 31.03.2020 18:07:00
; FORMAT={-:-/ absolute / inch / decimal}
; #@! TF.CreationDate,2020-03-31T18:07:00+02:00
; #@! TF.GenerationSoftware,Kicad,Pcbnew,(5.1.5)-3
; #@! TF.FileFunction,Plated,1,2,PTH
FMAT,2
INCH
T1C0.0118
T2C0.0197
T3C0.0217
T4C0.0256
T5C0.0394
T6C0.0787
%
G90
G05
T1
X2.6959Y-2.6368
X2.6959Y-2.6781
X2.7303Y-2.5394
X2.7972Y-1.9724
X2.8189Y-1.9488
X2.8406Y-1.9724
X2.8425Y-2.4783
X2.8425Y-2.5354
X2.8425Y-2.437
X2.8622Y-1.9488
X2.8622Y-1.9941
X2.9134Y-2.8071
X2.9429Y-2.437
X2.9587Y-2.687
X3.0472Y-2.2283
X3.0472Y-2.4173
X3.2087Y-1.8189
X3.2087Y-1.8504
X3.2402Y-1.8189
X3.2402Y-1.8504
X3.2835Y-2.7835
X3.3071Y-2.752
X3.3228Y-1.8543
X3.3425Y-2.6575
X3.3652Y-2.626
X3.3898Y-2.689
X3.4134Y-2.7205
X3.4685Y-2.3898
X3.5197Y-2.3898
X3.5512Y-2.8346
X3.5787Y-1.7677
X3.5787Y-1.8937
X3.5827Y-2.8031
X3.5945Y-2.6299
X3.6142Y-2.7717
X3.626Y-2.6299
X3.6457Y-2.7402
X3.6457Y-2.7992
X3.6772Y-2.7087
X3.689Y-2.6299
X3.7008Y-2.6772
X3.7047Y-2.5118
X3.7087Y-2.8031
X3.7205Y-2.7087
X3.7244Y-2.6299
X3.752Y-2.8031
X3.752Y-2.8543
X3.7559Y-2.6535
X3.7874Y-2.4646
X3.8583Y-2.8465
X3.8976Y-2.8346
X3.9803Y-2.7795
X4.2323Y-2.7795
X4.3976Y-2.7795
X4.3976Y-2.8661
X4.4252Y-2.5118
X4.4252Y-2.5512
T2
X2.5413Y-2.6181
X2.5413Y-2.6969
X2.6969Y-2.185
X2.6969Y-2.2343
X2.6969Y-2.2835
X2.7461Y-2.2835
X2.9035Y-2.2835
X2.935Y-2.4843
X2.9528Y-2.2835
X3.002Y-2.2835
X3.0472Y-2.8622
X3.1102Y-1.6732
X3.1594Y-1.6732
X3.1791Y-2.6476
X3.1791Y-2.6969
X3.1791Y-2.8642
X3.1791Y-2.9134
X3.1988Y-2.5098
X3.2087Y-1.6732
X3.248Y-2.3858
X3.2992Y-2.0157
X3.4449Y-2.0157
X3.4744Y-2.9626
X3.4744Y-3.0118
X3.6516Y-2.9626
X3.6516Y-3.0118
X3.75Y-2.1654
X3.7992Y-2.1654
X3.8287Y-2.5719
X3.8484Y-2.1654
X3.8583Y-2.9626
X3.8583Y-3.0118
X3.9567Y-1.7323
X3.9567Y-1.7815
X3.9567Y-1.8307
X4.0059Y-1.7323
X4.0059Y-1.7815
X4.0059Y-1.8307
X4.0551Y-1.7323
X4.0551Y-1.7815
X4.0551Y-1.8307
X4.124Y-2.6673
X4.124Y-2.8445
X4.124Y-3.0118
T4
X4.287Y-2.1303
X4.287Y-2.1803
X4.287Y-2.2303
X4.287Y-2.2803
X4.287Y-2.3303
X4.287Y-2.3803
X4.287Y-2.4303
X4.337Y-2.1303
X4.337Y-2.1803
X4.337Y-2.2303
X4.337Y-2.2803
X4.337Y-2.3303
X4.337Y-2.3803
X4.337Y-2.4303
T5
X4.5256Y-2.8839
X4.5276Y-3.0512
X4.5256Y-2.7146
X3.0929Y-3.1772
X3.0929Y-4.1772
X3.1929Y-3.1772
X3.1929Y-4.1772
X3.2929Y-3.1772
X3.3929Y-3.1772
X3.4929Y-3.1772
X3.5929Y-3.1772
X3.6929Y-3.1772
X3.7929Y-3.1772
X3.8929Y-3.1772
X3.8929Y-4.1772
X3.9929Y-3.1772
X3.9929Y-4.1772
T6
X4.4606Y-3.9173
X4.4606Y-3.7008
X4.4606Y-4.1339
T3
G00X2.6378Y-1.7616
M15
G01X2.6378Y-1.7124
M16
G05
G00X2.6378Y-1.8937
M15
G01X2.6378Y-1.8346
M16
G05
G00X3.063Y-1.7616
M15
G01X3.063Y-1.7124
M16
G05
G00X3.063Y-1.8937
M15
G01X3.063Y-1.8346
M16
G05
T0
M30
