%TF.GenerationSoftware,KiCad,Pcbnew,(5.1.9)-1*%
%TF.CreationDate,2021-04-16T14:28:35+02:00*%
%TF.ProjectId,loeti,6c6f6574-692e-46b6-9963-61645f706362,rev?*%
%TF.SameCoordinates,Original*%
%TF.FileFunction,Legend,Top*%
%TF.FilePolarity,Positive*%
%FSLAX46Y46*%
G04 Gerber Fmt 4.6, Leading zero omitted, Abs format (unit mm)*
G04 Created by KiCad (PCBNEW (5.1.9)-1) date 2021-04-16 14:28:35*
%MOMM*%
%LPD*%
G01*
G04 APERTURE LIST*
%ADD10C,0.150000*%
%ADD11C,0.120000*%
%ADD12C,0.300000*%
%ADD13C,0.015000*%
G04 APERTURE END LIST*
D10*
X74250000Y36750000D02*
X75250000Y35750000D01*
X74250000Y38000000D02*
X74250000Y36750000D01*
D11*
%TO.C,R16*%
X99022500Y26995276D02*
X99022500Y27504724D01*
X97977500Y26995276D02*
X97977500Y27504724D01*
%TO.C,R15*%
X97272500Y26995276D02*
X97272500Y27504724D01*
X96227500Y26995276D02*
X96227500Y27504724D01*
%TO.C,R14*%
X95522500Y26995276D02*
X95522500Y27504724D01*
X94477500Y26995276D02*
X94477500Y27504724D01*
%TO.C,U3*%
X94110000Y36560000D02*
X94110000Y36860000D01*
X94110000Y36860000D02*
X93810000Y36860000D01*
X94110000Y29940000D02*
X94110000Y29640000D01*
X94110000Y29640000D02*
X93810000Y29640000D01*
X86890000Y36560000D02*
X86890000Y36860000D01*
X86890000Y36860000D02*
X87190000Y36860000D01*
X86890000Y29940000D02*
X86890000Y29640000D01*
X86890000Y29640000D02*
X87190000Y29640000D01*
X87190000Y29640000D02*
X87190000Y28325000D01*
%TO.C,C17*%
X85490000Y27103733D02*
X85490000Y27396267D01*
X86510000Y27103733D02*
X86510000Y27396267D01*
%TO.C,C13*%
X87741250Y18293750D02*
X86953750Y18293750D01*
X87347500Y18687500D02*
X87347500Y17900000D01*
X83154437Y17660000D02*
X82090000Y16595563D01*
X87845563Y17660000D02*
X88910000Y16595563D01*
X87845563Y17660000D02*
X86560000Y17660000D01*
X83154437Y17660000D02*
X84440000Y17660000D01*
X82090000Y16595563D02*
X82090000Y10840000D01*
X88910000Y16595563D02*
X88910000Y10840000D01*
X88910000Y10840000D02*
X86560000Y10840000D01*
X82090000Y10840000D02*
X84440000Y10840000D01*
D12*
%TO.C,J2*%
X123720000Y24180000D02*
G75*
G03*
X123720000Y24180000I-150000J0D01*
G01*
D11*
%TO.C,U4*%
X108140000Y37900000D02*
X108140000Y35450000D01*
X111360000Y36100000D02*
X111360000Y37900000D01*
%TO.C,C16*%
X95491250Y18293750D02*
X94703750Y18293750D01*
X95097500Y18687500D02*
X95097500Y17900000D01*
X90904437Y17660000D02*
X89840000Y16595563D01*
X95595563Y17660000D02*
X96660000Y16595563D01*
X95595563Y17660000D02*
X94310000Y17660000D01*
X90904437Y17660000D02*
X92190000Y17660000D01*
X89840000Y16595563D02*
X89840000Y10840000D01*
X96660000Y16595563D02*
X96660000Y10840000D01*
X96660000Y10840000D02*
X94310000Y10840000D01*
X89840000Y10840000D02*
X92190000Y10840000D01*
%TO.C,C15*%
X109896267Y32990000D02*
X109603733Y32990000D01*
X109896267Y34010000D02*
X109603733Y34010000D01*
%TO.C,U5*%
X79390000Y27750000D02*
X79390000Y26250000D01*
X79390000Y27750000D02*
X79390000Y29250000D01*
X82610000Y27750000D02*
X82610000Y26250000D01*
X82610000Y27750000D02*
X82610000Y30675000D01*
%TO.C,U2*%
X84710000Y41685000D02*
X85185000Y41685000D01*
X85185000Y41685000D02*
X85185000Y41210000D01*
X81440000Y37465000D02*
X80965000Y37465000D01*
X80965000Y37465000D02*
X80965000Y37940000D01*
X84710000Y37465000D02*
X85185000Y37465000D01*
X85185000Y37465000D02*
X85185000Y37940000D01*
X81440000Y41685000D02*
X80965000Y41685000D01*
%TO.C,U1*%
X72300000Y36910000D02*
X73610000Y36910000D01*
X73610000Y36910000D02*
X73610000Y34190000D01*
X69120000Y33050000D02*
X69120000Y34190000D01*
X68890000Y36910000D02*
X70200000Y36910000D01*
X68890000Y34190000D02*
X68890000Y36910000D01*
X68890000Y34190000D02*
X69120000Y34190000D01*
X73610000Y34190000D02*
X73380000Y34190000D01*
%TO.C,R13*%
X77472936Y22360000D02*
X80527064Y22360000D01*
X77472936Y19640000D02*
X80527064Y19640000D01*
%TO.C,R12*%
X102082776Y25772500D02*
X102592224Y25772500D01*
X102082776Y24727500D02*
X102592224Y24727500D01*
%TO.C,R11*%
X117272500Y38004724D02*
X117272500Y37495276D01*
X116227500Y38004724D02*
X116227500Y37495276D01*
%TO.C,R10*%
X114227500Y37495276D02*
X114227500Y38004724D01*
X115272500Y37495276D02*
X115272500Y38004724D01*
%TO.C,R9*%
X99995276Y35022500D02*
X100504724Y35022500D01*
X99995276Y33977500D02*
X100504724Y33977500D01*
%TO.C,R8*%
X98022500Y35754724D02*
X98022500Y35245276D01*
X96977500Y35754724D02*
X96977500Y35245276D01*
%TO.C,R7*%
X83477500Y29082776D02*
X83477500Y29592224D01*
X84522500Y29082776D02*
X84522500Y29592224D01*
%TO.C,R6*%
X90754724Y26227500D02*
X90245276Y26227500D01*
X90754724Y27272500D02*
X90245276Y27272500D01*
%TO.C,R5*%
X77995276Y38022500D02*
X78504724Y38022500D01*
X77995276Y36977500D02*
X78504724Y36977500D01*
%TO.C,R4*%
X85477500Y45245276D02*
X85477500Y45754724D01*
X86522500Y45245276D02*
X86522500Y45754724D01*
%TO.C,R3*%
X82022500Y35004724D02*
X82022500Y34495276D01*
X80977500Y35004724D02*
X80977500Y34495276D01*
%TO.C,R2*%
X80272500Y35004724D02*
X80272500Y34495276D01*
X79227500Y35004724D02*
X79227500Y34495276D01*
%TO.C,R1*%
X86227500Y41245276D02*
X86227500Y41754724D01*
X87272500Y41245276D02*
X87272500Y41754724D01*
%TO.C,Q4*%
X102250000Y18440000D02*
X104200000Y18440000D01*
X102250000Y18440000D02*
X100300000Y18440000D01*
X102250000Y23560000D02*
X104200000Y23560000D01*
X102250000Y23560000D02*
X98800000Y23560000D01*
%TO.C,Q3*%
X103010000Y26420000D02*
X103010000Y27350000D01*
X103010000Y29580000D02*
X103010000Y28650000D01*
X103010000Y29580000D02*
X100850000Y29580000D01*
X103010000Y26420000D02*
X101550000Y26420000D01*
%TO.C,Q2*%
X103830000Y32510000D02*
X102900000Y32510000D01*
X100670000Y32510000D02*
X101600000Y32510000D01*
X100670000Y32510000D02*
X100670000Y30350000D01*
X103830000Y32510000D02*
X103830000Y31050000D01*
%TO.C,Q1*%
X99260000Y30170000D02*
X99260000Y31100000D01*
X99260000Y33330000D02*
X99260000Y32400000D01*
X99260000Y33330000D02*
X97100000Y33330000D01*
X99260000Y30170000D02*
X97800000Y30170000D01*
%TO.C,J3*%
X89130323Y42710000D02*
X89055000Y42710000D01*
X89055000Y42710000D02*
X89055000Y43830000D01*
X89055000Y43830000D02*
X98065000Y43830000D01*
X98065000Y43830000D02*
X98065000Y42710000D01*
X98065000Y42710000D02*
X97989677Y42710000D01*
X89490000Y43830000D02*
X89490000Y47830000D01*
X89490000Y47830000D02*
X90010000Y47830000D01*
X90010000Y47830000D02*
X90010000Y43830000D01*
X89550000Y43830000D02*
X89550000Y47830000D01*
X89670000Y43830000D02*
X89670000Y47830000D01*
X89790000Y43830000D02*
X89790000Y47830000D01*
X89910000Y43830000D02*
X89910000Y47830000D01*
X90385000Y42710000D02*
X90385000Y43830000D01*
X90369677Y42710000D02*
X90400323Y42710000D01*
X90760000Y43830000D02*
X90760000Y47830000D01*
X90760000Y47830000D02*
X91280000Y47830000D01*
X91280000Y47830000D02*
X91280000Y43830000D01*
X91655000Y42710000D02*
X91655000Y43830000D01*
X91639677Y42710000D02*
X91670323Y42710000D01*
X92030000Y43830000D02*
X92030000Y47830000D01*
X92030000Y47830000D02*
X92550000Y47830000D01*
X92550000Y47830000D02*
X92550000Y43830000D01*
X92925000Y42710000D02*
X92925000Y43830000D01*
X92909677Y42710000D02*
X92940323Y42710000D01*
X93300000Y43830000D02*
X93300000Y47830000D01*
X93300000Y47830000D02*
X93820000Y47830000D01*
X93820000Y47830000D02*
X93820000Y43830000D01*
X94195000Y42710000D02*
X94195000Y43830000D01*
X94179677Y42710000D02*
X94210323Y42710000D01*
X94570000Y43830000D02*
X94570000Y47830000D01*
X94570000Y47830000D02*
X95090000Y47830000D01*
X95090000Y47830000D02*
X95090000Y43830000D01*
X95465000Y42710000D02*
X95465000Y43830000D01*
X95449677Y42710000D02*
X95480323Y42710000D01*
X95840000Y43830000D02*
X95840000Y47830000D01*
X95840000Y47830000D02*
X96360000Y47830000D01*
X96360000Y47830000D02*
X96360000Y43830000D01*
X96735000Y42710000D02*
X96735000Y43830000D01*
X96719677Y42710000D02*
X96750323Y42710000D01*
X97110000Y43830000D02*
X97110000Y47830000D01*
X97110000Y47830000D02*
X97630000Y47830000D01*
X97630000Y47830000D02*
X97630000Y43830000D01*
X89750000Y40240000D02*
X88990000Y40240000D01*
X88990000Y40240000D02*
X88990000Y41000000D01*
%TO.C,J1*%
X51170000Y33270000D02*
X51170000Y24080000D01*
X60580000Y33150000D02*
X60580000Y24200000D01*
X53900000Y24080000D02*
X51170000Y24080000D01*
X53900000Y33270000D02*
X51170000Y33270000D01*
X57500000Y24080000D02*
X56600000Y24080000D01*
X57500000Y33270000D02*
X56600000Y33270000D01*
%TO.C,D5*%
X117500000Y22250000D02*
X117500000Y20250000D01*
X117500000Y20250000D02*
X121400000Y20250000D01*
X117500000Y22250000D02*
X121400000Y22250000D01*
%TO.C,D3*%
X103240000Y38580000D02*
X103240000Y37650000D01*
X103240000Y35420000D02*
X103240000Y36350000D01*
X103240000Y35420000D02*
X105400000Y35420000D01*
X103240000Y38580000D02*
X104700000Y38580000D01*
%TO.C,D2*%
X62985000Y24075000D02*
X62985000Y26535000D01*
X62985000Y26535000D02*
X61515000Y26535000D01*
X61515000Y26535000D02*
X61515000Y24075000D01*
%TO.C,D1*%
X78980000Y39325000D02*
X78980000Y38665000D01*
X78980000Y40985000D02*
X78980000Y40325000D01*
X78980000Y40985000D02*
X76950000Y40985000D01*
X77570000Y38665000D02*
X78980000Y38665000D01*
%TO.C,C14*%
X74515000Y33451248D02*
X74515000Y33973752D01*
X75985000Y33451248D02*
X75985000Y33973752D01*
%TO.C,C12*%
X112240000Y37603733D02*
X112240000Y37896267D01*
X113260000Y37603733D02*
X113260000Y37896267D01*
%TO.C,C11*%
X64015000Y35238748D02*
X64015000Y35761252D01*
X65485000Y35238748D02*
X65485000Y35761252D01*
%TO.C,C10*%
X77015000Y33488748D02*
X77015000Y34011252D01*
X78485000Y33488748D02*
X78485000Y34011252D01*
%TO.C,C9*%
X77740000Y26103733D02*
X77740000Y26396267D01*
X78760000Y26103733D02*
X78760000Y26396267D01*
%TO.C,C8*%
X99490000Y39103733D02*
X99490000Y39396267D01*
X100510000Y39103733D02*
X100510000Y39396267D01*
%TO.C,C7*%
X107260000Y37146267D02*
X107260000Y36853733D01*
X106240000Y37146267D02*
X106240000Y36853733D01*
%TO.C,C6*%
X80260000Y45646267D02*
X80260000Y45353733D01*
X79240000Y45646267D02*
X79240000Y45353733D01*
%TO.C,C5*%
X66515000Y35238748D02*
X66515000Y35761252D01*
X67985000Y35238748D02*
X67985000Y35761252D01*
%TO.C,C4*%
X76238748Y31235000D02*
X76761252Y31235000D01*
X76238748Y29765000D02*
X76761252Y29765000D01*
%TO.C,C3*%
X81015000Y44988748D02*
X81015000Y45511252D01*
X82485000Y44988748D02*
X82485000Y45511252D01*
%TO.C,C2*%
X84735000Y45511252D02*
X84735000Y44988748D01*
X83265000Y45511252D02*
X83265000Y44988748D01*
%TO.C,C1*%
X61515000Y35238748D02*
X61515000Y35761252D01*
X62985000Y35238748D02*
X62985000Y35761252D01*
%TO.C,R16*%
D10*
X98452380Y23357142D02*
X97976190Y23023809D01*
X98452380Y22785714D02*
X97452380Y22785714D01*
X97452380Y23166666D01*
X97500000Y23261904D01*
X97547619Y23309523D01*
X97642857Y23357142D01*
X97785714Y23357142D01*
X97880952Y23309523D01*
X97928571Y23261904D01*
X97976190Y23166666D01*
X97976190Y22785714D01*
X98452380Y24309523D02*
X98452380Y23738095D01*
X98452380Y24023809D02*
X97452380Y24023809D01*
X97595238Y23928571D01*
X97690476Y23833333D01*
X97738095Y23738095D01*
X97452380Y25166666D02*
X97452380Y24976190D01*
X97500000Y24880952D01*
X97547619Y24833333D01*
X97690476Y24738095D01*
X97880952Y24690476D01*
X98261904Y24690476D01*
X98357142Y24738095D01*
X98404761Y24785714D01*
X98452380Y24880952D01*
X98452380Y25071428D01*
X98404761Y25166666D01*
X98357142Y25214285D01*
X98261904Y25261904D01*
X98023809Y25261904D01*
X97928571Y25214285D01*
X97880952Y25166666D01*
X97833333Y25071428D01*
X97833333Y24880952D01*
X97880952Y24785714D01*
X97928571Y24738095D01*
X98023809Y24690476D01*
%TO.C,R15*%
X97202380Y23357142D02*
X96726190Y23023809D01*
X97202380Y22785714D02*
X96202380Y22785714D01*
X96202380Y23166666D01*
X96250000Y23261904D01*
X96297619Y23309523D01*
X96392857Y23357142D01*
X96535714Y23357142D01*
X96630952Y23309523D01*
X96678571Y23261904D01*
X96726190Y23166666D01*
X96726190Y22785714D01*
X97202380Y24309523D02*
X97202380Y23738095D01*
X97202380Y24023809D02*
X96202380Y24023809D01*
X96345238Y23928571D01*
X96440476Y23833333D01*
X96488095Y23738095D01*
X96202380Y25214285D02*
X96202380Y24738095D01*
X96678571Y24690476D01*
X96630952Y24738095D01*
X96583333Y24833333D01*
X96583333Y25071428D01*
X96630952Y25166666D01*
X96678571Y25214285D01*
X96773809Y25261904D01*
X97011904Y25261904D01*
X97107142Y25214285D01*
X97154761Y25166666D01*
X97202380Y25071428D01*
X97202380Y24833333D01*
X97154761Y24738095D01*
X97107142Y24690476D01*
%TO.C,R14*%
X94022380Y25857142D02*
X93546190Y25523809D01*
X94022380Y25285714D02*
X93022380Y25285714D01*
X93022380Y25666666D01*
X93070000Y25761904D01*
X93117619Y25809523D01*
X93212857Y25857142D01*
X93355714Y25857142D01*
X93450952Y25809523D01*
X93498571Y25761904D01*
X93546190Y25666666D01*
X93546190Y25285714D01*
X94022380Y26809523D02*
X94022380Y26238095D01*
X94022380Y26523809D02*
X93022380Y26523809D01*
X93165238Y26428571D01*
X93260476Y26333333D01*
X93308095Y26238095D01*
X93355714Y27666666D02*
X94022380Y27666666D01*
X92974761Y27428571D02*
X93689047Y27190476D01*
X93689047Y27809523D01*
%TO.C,U3*%
X89488095Y34547619D02*
X89488095Y33738095D01*
X89535714Y33642857D01*
X89583333Y33595238D01*
X89678571Y33547619D01*
X89869047Y33547619D01*
X89964285Y33595238D01*
X90011904Y33642857D01*
X90059523Y33738095D01*
X90059523Y34547619D01*
X90440476Y34547619D02*
X91059523Y34547619D01*
X90726190Y34166666D01*
X90869047Y34166666D01*
X90964285Y34119047D01*
X91011904Y34071428D01*
X91059523Y33976190D01*
X91059523Y33738095D01*
X91011904Y33642857D01*
X90964285Y33595238D01*
X90869047Y33547619D01*
X90583333Y33547619D01*
X90488095Y33595238D01*
X90440476Y33642857D01*
%TO.C,C17*%
X84857142Y24857142D02*
X84904761Y24809523D01*
X84952380Y24666666D01*
X84952380Y24571428D01*
X84904761Y24428571D01*
X84809523Y24333333D01*
X84714285Y24285714D01*
X84523809Y24238095D01*
X84380952Y24238095D01*
X84190476Y24285714D01*
X84095238Y24333333D01*
X84000000Y24428571D01*
X83952380Y24571428D01*
X83952380Y24666666D01*
X84000000Y24809523D01*
X84047619Y24857142D01*
X84952380Y25809523D02*
X84952380Y25238095D01*
X84952380Y25523809D02*
X83952380Y25523809D01*
X84095238Y25428571D01*
X84190476Y25333333D01*
X84238095Y25238095D01*
X83952380Y26142857D02*
X83952380Y26809523D01*
X84952380Y26380952D01*
%TO.C,C13*%
X87857142Y15107142D02*
X87904761Y15059523D01*
X87952380Y14916666D01*
X87952380Y14821428D01*
X87904761Y14678571D01*
X87809523Y14583333D01*
X87714285Y14535714D01*
X87523809Y14488095D01*
X87380952Y14488095D01*
X87190476Y14535714D01*
X87095238Y14583333D01*
X87000000Y14678571D01*
X86952380Y14821428D01*
X86952380Y14916666D01*
X87000000Y15059523D01*
X87047619Y15107142D01*
X87952380Y16059523D02*
X87952380Y15488095D01*
X87952380Y15773809D02*
X86952380Y15773809D01*
X87095238Y15678571D01*
X87190476Y15583333D01*
X87238095Y15488095D01*
X86952380Y16392857D02*
X86952380Y17011904D01*
X87333333Y16678571D01*
X87333333Y16821428D01*
X87380952Y16916666D01*
X87428571Y16964285D01*
X87523809Y17011904D01*
X87761904Y17011904D01*
X87857142Y16964285D01*
X87904761Y16916666D01*
X87952380Y16821428D01*
X87952380Y16535714D01*
X87904761Y16440476D01*
X87857142Y16392857D01*
%TO.C,J2*%
D13*
X116416173Y29048429D02*
X116416173Y28333086D01*
X116368483Y28190018D01*
X116273104Y28094639D01*
X116130036Y28046949D01*
X116034657Y28046949D01*
X116845379Y28953050D02*
X116893068Y29000740D01*
X116988447Y29048429D01*
X117226895Y29048429D01*
X117322274Y29000740D01*
X117369963Y28953050D01*
X117417653Y28857671D01*
X117417653Y28762292D01*
X117369963Y28619223D01*
X116797689Y28046949D01*
X117417653Y28046949D01*
%TO.C,U4*%
D10*
X108988095Y37547619D02*
X108988095Y36738095D01*
X109035714Y36642857D01*
X109083333Y36595238D01*
X109178571Y36547619D01*
X109369047Y36547619D01*
X109464285Y36595238D01*
X109511904Y36642857D01*
X109559523Y36738095D01*
X109559523Y37547619D01*
X110464285Y37214285D02*
X110464285Y36547619D01*
X110226190Y37595238D02*
X109988095Y36880952D01*
X110607142Y36880952D01*
%TO.C,C16*%
X95607142Y15107142D02*
X95654761Y15059523D01*
X95702380Y14916666D01*
X95702380Y14821428D01*
X95654761Y14678571D01*
X95559523Y14583333D01*
X95464285Y14535714D01*
X95273809Y14488095D01*
X95130952Y14488095D01*
X94940476Y14535714D01*
X94845238Y14583333D01*
X94750000Y14678571D01*
X94702380Y14821428D01*
X94702380Y14916666D01*
X94750000Y15059523D01*
X94797619Y15107142D01*
X95702380Y16059523D02*
X95702380Y15488095D01*
X95702380Y15773809D02*
X94702380Y15773809D01*
X94845238Y15678571D01*
X94940476Y15583333D01*
X94988095Y15488095D01*
X94702380Y16916666D02*
X94702380Y16726190D01*
X94750000Y16630952D01*
X94797619Y16583333D01*
X94940476Y16488095D01*
X95130952Y16440476D01*
X95511904Y16440476D01*
X95607142Y16488095D01*
X95654761Y16535714D01*
X95702380Y16630952D01*
X95702380Y16821428D01*
X95654761Y16916666D01*
X95607142Y16964285D01*
X95511904Y17011904D01*
X95273809Y17011904D01*
X95178571Y16964285D01*
X95130952Y16916666D01*
X95083333Y16821428D01*
X95083333Y16630952D01*
X95130952Y16535714D01*
X95178571Y16488095D01*
X95273809Y16440476D01*
%TO.C,C15*%
X106857142Y31392857D02*
X106809523Y31345238D01*
X106666666Y31297619D01*
X106571428Y31297619D01*
X106428571Y31345238D01*
X106333333Y31440476D01*
X106285714Y31535714D01*
X106238095Y31726190D01*
X106238095Y31869047D01*
X106285714Y32059523D01*
X106333333Y32154761D01*
X106428571Y32250000D01*
X106571428Y32297619D01*
X106666666Y32297619D01*
X106809523Y32250000D01*
X106857142Y32202380D01*
X107809523Y31297619D02*
X107238095Y31297619D01*
X107523809Y31297619D02*
X107523809Y32297619D01*
X107428571Y32154761D01*
X107333333Y32059523D01*
X107238095Y32011904D01*
X108714285Y32297619D02*
X108238095Y32297619D01*
X108190476Y31821428D01*
X108238095Y31869047D01*
X108333333Y31916666D01*
X108571428Y31916666D01*
X108666666Y31869047D01*
X108714285Y31821428D01*
X108761904Y31726190D01*
X108761904Y31488095D01*
X108714285Y31392857D01*
X108666666Y31345238D01*
X108571428Y31297619D01*
X108333333Y31297619D01*
X108238095Y31345238D01*
X108190476Y31392857D01*
%TO.C,U5*%
X80738095Y28047619D02*
X80738095Y27238095D01*
X80785714Y27142857D01*
X80833333Y27095238D01*
X80928571Y27047619D01*
X81119047Y27047619D01*
X81214285Y27095238D01*
X81261904Y27142857D01*
X81309523Y27238095D01*
X81309523Y28047619D01*
X82261904Y28047619D02*
X81785714Y28047619D01*
X81738095Y27571428D01*
X81785714Y27619047D01*
X81880952Y27666666D01*
X82119047Y27666666D01*
X82214285Y27619047D01*
X82261904Y27571428D01*
X82309523Y27476190D01*
X82309523Y27238095D01*
X82261904Y27142857D01*
X82214285Y27095238D01*
X82119047Y27047619D01*
X81880952Y27047619D01*
X81785714Y27095238D01*
X81738095Y27142857D01*
%TO.C,U2*%
X82313095Y43442619D02*
X82313095Y42633095D01*
X82360714Y42537857D01*
X82408333Y42490238D01*
X82503571Y42442619D01*
X82694047Y42442619D01*
X82789285Y42490238D01*
X82836904Y42537857D01*
X82884523Y42633095D01*
X82884523Y43442619D01*
X83313095Y43347380D02*
X83360714Y43395000D01*
X83455952Y43442619D01*
X83694047Y43442619D01*
X83789285Y43395000D01*
X83836904Y43347380D01*
X83884523Y43252142D01*
X83884523Y43156904D01*
X83836904Y43014047D01*
X83265476Y42442619D01*
X83884523Y42442619D01*
%TO.C,U1*%
X72452380Y34738095D02*
X73261904Y34738095D01*
X73357142Y34785714D01*
X73404761Y34833333D01*
X73452380Y34928571D01*
X73452380Y35119047D01*
X73404761Y35214285D01*
X73357142Y35261904D01*
X73261904Y35309523D01*
X72452380Y35309523D01*
X73452380Y36309523D02*
X73452380Y35738095D01*
X73452380Y36023809D02*
X72452380Y36023809D01*
X72595238Y35928571D01*
X72690476Y35833333D01*
X72738095Y35738095D01*
%TO.C,R13*%
X78357142Y20547619D02*
X78023809Y21023809D01*
X77785714Y20547619D02*
X77785714Y21547619D01*
X78166666Y21547619D01*
X78261904Y21500000D01*
X78309523Y21452380D01*
X78357142Y21357142D01*
X78357142Y21214285D01*
X78309523Y21119047D01*
X78261904Y21071428D01*
X78166666Y21023809D01*
X77785714Y21023809D01*
X79309523Y20547619D02*
X78738095Y20547619D01*
X79023809Y20547619D02*
X79023809Y21547619D01*
X78928571Y21404761D01*
X78833333Y21309523D01*
X78738095Y21261904D01*
X79642857Y21547619D02*
X80261904Y21547619D01*
X79928571Y21166666D01*
X80071428Y21166666D01*
X80166666Y21119047D01*
X80214285Y21071428D01*
X80261904Y20976190D01*
X80261904Y20738095D01*
X80214285Y20642857D01*
X80166666Y20595238D01*
X80071428Y20547619D01*
X79785714Y20547619D01*
X79690476Y20595238D01*
X79642857Y20642857D01*
%TO.C,R12*%
X104857142Y24797619D02*
X104523809Y25273809D01*
X104285714Y24797619D02*
X104285714Y25797619D01*
X104666666Y25797619D01*
X104761904Y25750000D01*
X104809523Y25702380D01*
X104857142Y25607142D01*
X104857142Y25464285D01*
X104809523Y25369047D01*
X104761904Y25321428D01*
X104666666Y25273809D01*
X104285714Y25273809D01*
X105809523Y24797619D02*
X105238095Y24797619D01*
X105523809Y24797619D02*
X105523809Y25797619D01*
X105428571Y25654761D01*
X105333333Y25559523D01*
X105238095Y25511904D01*
X106190476Y25702380D02*
X106238095Y25750000D01*
X106333333Y25797619D01*
X106571428Y25797619D01*
X106666666Y25750000D01*
X106714285Y25702380D01*
X106761904Y25607142D01*
X106761904Y25511904D01*
X106714285Y25369047D01*
X106142857Y24797619D01*
X106761904Y24797619D01*
%TO.C,R11*%
X118632380Y37107142D02*
X118156190Y36773809D01*
X118632380Y36535714D02*
X117632380Y36535714D01*
X117632380Y36916666D01*
X117680000Y37011904D01*
X117727619Y37059523D01*
X117822857Y37107142D01*
X117965714Y37107142D01*
X118060952Y37059523D01*
X118108571Y37011904D01*
X118156190Y36916666D01*
X118156190Y36535714D01*
X118632380Y38059523D02*
X118632380Y37488095D01*
X118632380Y37773809D02*
X117632380Y37773809D01*
X117775238Y37678571D01*
X117870476Y37583333D01*
X117918095Y37488095D01*
X118632380Y39011904D02*
X118632380Y38440476D01*
X118632380Y38726190D02*
X117632380Y38726190D01*
X117775238Y38630952D01*
X117870476Y38535714D01*
X117918095Y38440476D01*
%TO.C,R10*%
X115607142Y34797619D02*
X115273809Y35273809D01*
X115035714Y34797619D02*
X115035714Y35797619D01*
X115416666Y35797619D01*
X115511904Y35750000D01*
X115559523Y35702380D01*
X115607142Y35607142D01*
X115607142Y35464285D01*
X115559523Y35369047D01*
X115511904Y35321428D01*
X115416666Y35273809D01*
X115035714Y35273809D01*
X116559523Y34797619D02*
X115988095Y34797619D01*
X116273809Y34797619D02*
X116273809Y35797619D01*
X116178571Y35654761D01*
X116083333Y35559523D01*
X115988095Y35511904D01*
X117178571Y35797619D02*
X117273809Y35797619D01*
X117369047Y35750000D01*
X117416666Y35702380D01*
X117464285Y35607142D01*
X117511904Y35416666D01*
X117511904Y35178571D01*
X117464285Y34988095D01*
X117416666Y34892857D01*
X117369047Y34845238D01*
X117273809Y34797619D01*
X117178571Y34797619D01*
X117083333Y34845238D01*
X117035714Y34892857D01*
X116988095Y34988095D01*
X116940476Y35178571D01*
X116940476Y35416666D01*
X116988095Y35607142D01*
X117035714Y35702380D01*
X117083333Y35750000D01*
X117178571Y35797619D01*
%TO.C,R9*%
X100083333Y35477619D02*
X99750000Y35953809D01*
X99511904Y35477619D02*
X99511904Y36477619D01*
X99892857Y36477619D01*
X99988095Y36430000D01*
X100035714Y36382380D01*
X100083333Y36287142D01*
X100083333Y36144285D01*
X100035714Y36049047D01*
X99988095Y36001428D01*
X99892857Y35953809D01*
X99511904Y35953809D01*
X100559523Y35477619D02*
X100750000Y35477619D01*
X100845238Y35525238D01*
X100892857Y35572857D01*
X100988095Y35715714D01*
X101035714Y35906190D01*
X101035714Y36287142D01*
X100988095Y36382380D01*
X100940476Y36430000D01*
X100845238Y36477619D01*
X100654761Y36477619D01*
X100559523Y36430000D01*
X100511904Y36382380D01*
X100464285Y36287142D01*
X100464285Y36049047D01*
X100511904Y35953809D01*
X100559523Y35906190D01*
X100654761Y35858571D01*
X100845238Y35858571D01*
X100940476Y35906190D01*
X100988095Y35953809D01*
X101035714Y36049047D01*
%TO.C,R8*%
X97952380Y38083333D02*
X97476190Y37750000D01*
X97952380Y37511904D02*
X96952380Y37511904D01*
X96952380Y37892857D01*
X97000000Y37988095D01*
X97047619Y38035714D01*
X97142857Y38083333D01*
X97285714Y38083333D01*
X97380952Y38035714D01*
X97428571Y37988095D01*
X97476190Y37892857D01*
X97476190Y37511904D01*
X97380952Y38654761D02*
X97333333Y38559523D01*
X97285714Y38511904D01*
X97190476Y38464285D01*
X97142857Y38464285D01*
X97047619Y38511904D01*
X97000000Y38559523D01*
X96952380Y38654761D01*
X96952380Y38845238D01*
X97000000Y38940476D01*
X97047619Y38988095D01*
X97142857Y39035714D01*
X97190476Y39035714D01*
X97285714Y38988095D01*
X97333333Y38940476D01*
X97380952Y38845238D01*
X97380952Y38654761D01*
X97428571Y38559523D01*
X97476190Y38511904D01*
X97571428Y38464285D01*
X97761904Y38464285D01*
X97857142Y38511904D01*
X97904761Y38559523D01*
X97952380Y38654761D01*
X97952380Y38845238D01*
X97904761Y38940476D01*
X97857142Y38988095D01*
X97761904Y39035714D01*
X97571428Y39035714D01*
X97476190Y38988095D01*
X97428571Y38940476D01*
X97380952Y38845238D01*
%TO.C,R7*%
X84452380Y31833333D02*
X83976190Y31500000D01*
X84452380Y31261904D02*
X83452380Y31261904D01*
X83452380Y31642857D01*
X83500000Y31738095D01*
X83547619Y31785714D01*
X83642857Y31833333D01*
X83785714Y31833333D01*
X83880952Y31785714D01*
X83928571Y31738095D01*
X83976190Y31642857D01*
X83976190Y31261904D01*
X83452380Y32166666D02*
X83452380Y32833333D01*
X84452380Y32404761D01*
%TO.C,R6*%
X87583333Y26297619D02*
X87250000Y26773809D01*
X87011904Y26297619D02*
X87011904Y27297619D01*
X87392857Y27297619D01*
X87488095Y27250000D01*
X87535714Y27202380D01*
X87583333Y27107142D01*
X87583333Y26964285D01*
X87535714Y26869047D01*
X87488095Y26821428D01*
X87392857Y26773809D01*
X87011904Y26773809D01*
X88440476Y27297619D02*
X88250000Y27297619D01*
X88154761Y27250000D01*
X88107142Y27202380D01*
X88011904Y27059523D01*
X87964285Y26869047D01*
X87964285Y26488095D01*
X88011904Y26392857D01*
X88059523Y26345238D01*
X88154761Y26297619D01*
X88345238Y26297619D01*
X88440476Y26345238D01*
X88488095Y26392857D01*
X88535714Y26488095D01*
X88535714Y26726190D01*
X88488095Y26821428D01*
X88440476Y26869047D01*
X88345238Y26916666D01*
X88154761Y26916666D01*
X88059523Y26869047D01*
X88011904Y26821428D01*
X87964285Y26726190D01*
%TO.C,R5*%
X75333333Y37047619D02*
X75000000Y37523809D01*
X74761904Y37047619D02*
X74761904Y38047619D01*
X75142857Y38047619D01*
X75238095Y38000000D01*
X75285714Y37952380D01*
X75333333Y37857142D01*
X75333333Y37714285D01*
X75285714Y37619047D01*
X75238095Y37571428D01*
X75142857Y37523809D01*
X74761904Y37523809D01*
X76238095Y38047619D02*
X75761904Y38047619D01*
X75714285Y37571428D01*
X75761904Y37619047D01*
X75857142Y37666666D01*
X76095238Y37666666D01*
X76190476Y37619047D01*
X76238095Y37571428D01*
X76285714Y37476190D01*
X76285714Y37238095D01*
X76238095Y37142857D01*
X76190476Y37095238D01*
X76095238Y37047619D01*
X75857142Y37047619D01*
X75761904Y37095238D01*
X75714285Y37142857D01*
%TO.C,R4*%
X86702380Y47833333D02*
X86226190Y47500000D01*
X86702380Y47261904D02*
X85702380Y47261904D01*
X85702380Y47642857D01*
X85750000Y47738095D01*
X85797619Y47785714D01*
X85892857Y47833333D01*
X86035714Y47833333D01*
X86130952Y47785714D01*
X86178571Y47738095D01*
X86226190Y47642857D01*
X86226190Y47261904D01*
X86035714Y48690476D02*
X86702380Y48690476D01*
X85654761Y48452380D02*
X86369047Y48214285D01*
X86369047Y48833333D01*
%TO.C,R3*%
X81952380Y31833333D02*
X81476190Y31500000D01*
X81952380Y31261904D02*
X80952380Y31261904D01*
X80952380Y31642857D01*
X81000000Y31738095D01*
X81047619Y31785714D01*
X81142857Y31833333D01*
X81285714Y31833333D01*
X81380952Y31785714D01*
X81428571Y31738095D01*
X81476190Y31642857D01*
X81476190Y31261904D01*
X80952380Y32166666D02*
X80952380Y32785714D01*
X81333333Y32452380D01*
X81333333Y32595238D01*
X81380952Y32690476D01*
X81428571Y32738095D01*
X81523809Y32785714D01*
X81761904Y32785714D01*
X81857142Y32738095D01*
X81904761Y32690476D01*
X81952380Y32595238D01*
X81952380Y32309523D01*
X81904761Y32214285D01*
X81857142Y32166666D01*
%TO.C,R2*%
X80452380Y31833333D02*
X79976190Y31500000D01*
X80452380Y31261904D02*
X79452380Y31261904D01*
X79452380Y31642857D01*
X79500000Y31738095D01*
X79547619Y31785714D01*
X79642857Y31833333D01*
X79785714Y31833333D01*
X79880952Y31785714D01*
X79928571Y31738095D01*
X79976190Y31642857D01*
X79976190Y31261904D01*
X79547619Y32214285D02*
X79500000Y32261904D01*
X79452380Y32357142D01*
X79452380Y32595238D01*
X79500000Y32690476D01*
X79547619Y32738095D01*
X79642857Y32785714D01*
X79738095Y32785714D01*
X79880952Y32738095D01*
X80452380Y32166666D01*
X80452380Y32785714D01*
%TO.C,R1*%
X88702380Y41583333D02*
X88226190Y41250000D01*
X88702380Y41011904D02*
X87702380Y41011904D01*
X87702380Y41392857D01*
X87750000Y41488095D01*
X87797619Y41535714D01*
X87892857Y41583333D01*
X88035714Y41583333D01*
X88130952Y41535714D01*
X88178571Y41488095D01*
X88226190Y41392857D01*
X88226190Y41011904D01*
X88702380Y42535714D02*
X88702380Y41964285D01*
X88702380Y42250000D02*
X87702380Y42250000D01*
X87845238Y42154761D01*
X87940476Y42059523D01*
X87988095Y41964285D01*
%TO.C,Q4*%
X102154761Y20702380D02*
X102059523Y20750000D01*
X101964285Y20845238D01*
X101821428Y20988095D01*
X101726190Y21035714D01*
X101630952Y21035714D01*
X101678571Y20797619D02*
X101583333Y20845238D01*
X101488095Y20940476D01*
X101440476Y21130952D01*
X101440476Y21464285D01*
X101488095Y21654761D01*
X101583333Y21750000D01*
X101678571Y21797619D01*
X101869047Y21797619D01*
X101964285Y21750000D01*
X102059523Y21654761D01*
X102107142Y21464285D01*
X102107142Y21130952D01*
X102059523Y20940476D01*
X101964285Y20845238D01*
X101869047Y20797619D01*
X101678571Y20797619D01*
X102964285Y21464285D02*
X102964285Y20797619D01*
X102726190Y21845238D02*
X102488095Y21130952D01*
X103107142Y21130952D01*
%TO.C,Q3*%
X102797619Y28154761D02*
X102750000Y28059523D01*
X102654761Y27964285D01*
X102511904Y27821428D01*
X102464285Y27726190D01*
X102464285Y27630952D01*
X102702380Y27678571D02*
X102654761Y27583333D01*
X102559523Y27488095D01*
X102369047Y27440476D01*
X102035714Y27440476D01*
X101845238Y27488095D01*
X101750000Y27583333D01*
X101702380Y27678571D01*
X101702380Y27869047D01*
X101750000Y27964285D01*
X101845238Y28059523D01*
X102035714Y28107142D01*
X102369047Y28107142D01*
X102559523Y28059523D01*
X102654761Y27964285D01*
X102702380Y27869047D01*
X102702380Y27678571D01*
X101702380Y28440476D02*
X101702380Y29059523D01*
X102083333Y28726190D01*
X102083333Y28869047D01*
X102130952Y28964285D01*
X102178571Y29011904D01*
X102273809Y29059523D01*
X102511904Y29059523D01*
X102607142Y29011904D01*
X102654761Y28964285D01*
X102702380Y28869047D01*
X102702380Y28583333D01*
X102654761Y28488095D01*
X102607142Y28440476D01*
%TO.C,Q2*%
X102154761Y31202380D02*
X102059523Y31250000D01*
X101964285Y31345238D01*
X101821428Y31488095D01*
X101726190Y31535714D01*
X101630952Y31535714D01*
X101678571Y31297619D02*
X101583333Y31345238D01*
X101488095Y31440476D01*
X101440476Y31630952D01*
X101440476Y31964285D01*
X101488095Y32154761D01*
X101583333Y32250000D01*
X101678571Y32297619D01*
X101869047Y32297619D01*
X101964285Y32250000D01*
X102059523Y32154761D01*
X102107142Y31964285D01*
X102107142Y31630952D01*
X102059523Y31440476D01*
X101964285Y31345238D01*
X101869047Y31297619D01*
X101678571Y31297619D01*
X102488095Y32202380D02*
X102535714Y32250000D01*
X102630952Y32297619D01*
X102869047Y32297619D01*
X102964285Y32250000D01*
X103011904Y32202380D01*
X103059523Y32107142D01*
X103059523Y32011904D01*
X103011904Y31869047D01*
X102440476Y31297619D01*
X103059523Y31297619D01*
%TO.C,Q1*%
X99047619Y31654761D02*
X99000000Y31559523D01*
X98904761Y31464285D01*
X98761904Y31321428D01*
X98714285Y31226190D01*
X98714285Y31130952D01*
X98952380Y31178571D02*
X98904761Y31083333D01*
X98809523Y30988095D01*
X98619047Y30940476D01*
X98285714Y30940476D01*
X98095238Y30988095D01*
X98000000Y31083333D01*
X97952380Y31178571D01*
X97952380Y31369047D01*
X98000000Y31464285D01*
X98095238Y31559523D01*
X98285714Y31607142D01*
X98619047Y31607142D01*
X98809523Y31559523D01*
X98904761Y31464285D01*
X98952380Y31369047D01*
X98952380Y31178571D01*
X98952380Y32559523D02*
X98952380Y31988095D01*
X98952380Y32273809D02*
X97952380Y32273809D01*
X98095238Y32178571D01*
X98190476Y32083333D01*
X98238095Y31988095D01*
%TO.C,J3*%
X99166666Y48047619D02*
X99166666Y47333333D01*
X99119047Y47190476D01*
X99023809Y47095238D01*
X98880952Y47047619D01*
X98785714Y47047619D01*
X99547619Y48047619D02*
X100166666Y48047619D01*
X99833333Y47666666D01*
X99976190Y47666666D01*
X100071428Y47619047D01*
X100119047Y47571428D01*
X100166666Y47476190D01*
X100166666Y47238095D01*
X100119047Y47142857D01*
X100071428Y47095238D01*
X99976190Y47047619D01*
X99690476Y47047619D01*
X99595238Y47095238D01*
X99547619Y47142857D01*
%TO.C,J1*%
X54952380Y28416666D02*
X55666666Y28416666D01*
X55809523Y28369047D01*
X55904761Y28273809D01*
X55952380Y28130952D01*
X55952380Y28035714D01*
X55952380Y29416666D02*
X55952380Y28845238D01*
X55952380Y29130952D02*
X54952380Y29130952D01*
X55095238Y29035714D01*
X55190476Y28940476D01*
X55238095Y28845238D01*
%TO.C,D5*%
X119011904Y20797619D02*
X119011904Y21797619D01*
X119250000Y21797619D01*
X119392857Y21750000D01*
X119488095Y21654761D01*
X119535714Y21559523D01*
X119583333Y21369047D01*
X119583333Y21226190D01*
X119535714Y21035714D01*
X119488095Y20940476D01*
X119392857Y20845238D01*
X119250000Y20797619D01*
X119011904Y20797619D01*
X120488095Y21797619D02*
X120011904Y21797619D01*
X119964285Y21321428D01*
X120011904Y21369047D01*
X120107142Y21416666D01*
X120345238Y21416666D01*
X120440476Y21369047D01*
X120488095Y21321428D01*
X120535714Y21226190D01*
X120535714Y20988095D01*
X120488095Y20892857D01*
X120440476Y20845238D01*
X120345238Y20797619D01*
X120107142Y20797619D01*
X120011904Y20845238D01*
X119964285Y20892857D01*
%TO.C,D3*%
X103261904Y34047619D02*
X103261904Y35047619D01*
X103500000Y35047619D01*
X103642857Y35000000D01*
X103738095Y34904761D01*
X103785714Y34809523D01*
X103833333Y34619047D01*
X103833333Y34476190D01*
X103785714Y34285714D01*
X103738095Y34190476D01*
X103642857Y34095238D01*
X103500000Y34047619D01*
X103261904Y34047619D01*
X104166666Y35047619D02*
X104785714Y35047619D01*
X104452380Y34666666D01*
X104595238Y34666666D01*
X104690476Y34619047D01*
X104738095Y34571428D01*
X104785714Y34476190D01*
X104785714Y34238095D01*
X104738095Y34142857D01*
X104690476Y34095238D01*
X104595238Y34047619D01*
X104309523Y34047619D01*
X104214285Y34095238D01*
X104166666Y34142857D01*
%TO.C,D2*%
X64452380Y24261904D02*
X63452380Y24261904D01*
X63452380Y24500000D01*
X63500000Y24642857D01*
X63595238Y24738095D01*
X63690476Y24785714D01*
X63880952Y24833333D01*
X64023809Y24833333D01*
X64214285Y24785714D01*
X64309523Y24738095D01*
X64404761Y24642857D01*
X64452380Y24500000D01*
X64452380Y24261904D01*
X63547619Y25214285D02*
X63500000Y25261904D01*
X63452380Y25357142D01*
X63452380Y25595238D01*
X63500000Y25690476D01*
X63547619Y25738095D01*
X63642857Y25785714D01*
X63738095Y25785714D01*
X63880952Y25738095D01*
X64452380Y25166666D01*
X64452380Y25785714D01*
%TO.C,D1*%
X77461904Y41322619D02*
X77461904Y42322619D01*
X77700000Y42322619D01*
X77842857Y42275000D01*
X77938095Y42179761D01*
X77985714Y42084523D01*
X78033333Y41894047D01*
X78033333Y41751190D01*
X77985714Y41560714D01*
X77938095Y41465476D01*
X77842857Y41370238D01*
X77700000Y41322619D01*
X77461904Y41322619D01*
X78985714Y41322619D02*
X78414285Y41322619D01*
X78700000Y41322619D02*
X78700000Y42322619D01*
X78604761Y42179761D01*
X78509523Y42084523D01*
X78414285Y42036904D01*
%TO.C,C14*%
X73357142Y39107142D02*
X73404761Y39059523D01*
X73452380Y38916666D01*
X73452380Y38821428D01*
X73404761Y38678571D01*
X73309523Y38583333D01*
X73214285Y38535714D01*
X73023809Y38488095D01*
X72880952Y38488095D01*
X72690476Y38535714D01*
X72595238Y38583333D01*
X72500000Y38678571D01*
X72452380Y38821428D01*
X72452380Y38916666D01*
X72500000Y39059523D01*
X72547619Y39107142D01*
X73452380Y40059523D02*
X73452380Y39488095D01*
X73452380Y39773809D02*
X72452380Y39773809D01*
X72595238Y39678571D01*
X72690476Y39583333D01*
X72738095Y39488095D01*
X72785714Y40916666D02*
X73452380Y40916666D01*
X72404761Y40678571D02*
X73119047Y40440476D01*
X73119047Y41059523D01*
%TO.C,C12*%
X112357142Y34892857D02*
X112309523Y34845238D01*
X112166666Y34797619D01*
X112071428Y34797619D01*
X111928571Y34845238D01*
X111833333Y34940476D01*
X111785714Y35035714D01*
X111738095Y35226190D01*
X111738095Y35369047D01*
X111785714Y35559523D01*
X111833333Y35654761D01*
X111928571Y35750000D01*
X112071428Y35797619D01*
X112166666Y35797619D01*
X112309523Y35750000D01*
X112357142Y35702380D01*
X113309523Y34797619D02*
X112738095Y34797619D01*
X113023809Y34797619D02*
X113023809Y35797619D01*
X112928571Y35654761D01*
X112833333Y35559523D01*
X112738095Y35511904D01*
X113690476Y35702380D02*
X113738095Y35750000D01*
X113833333Y35797619D01*
X114071428Y35797619D01*
X114166666Y35750000D01*
X114214285Y35702380D01*
X114261904Y35607142D01*
X114261904Y35511904D01*
X114214285Y35369047D01*
X113642857Y34797619D01*
X114261904Y34797619D01*
%TO.C,C11*%
X65107142Y31357142D02*
X65154761Y31309523D01*
X65202380Y31166666D01*
X65202380Y31071428D01*
X65154761Y30928571D01*
X65059523Y30833333D01*
X64964285Y30785714D01*
X64773809Y30738095D01*
X64630952Y30738095D01*
X64440476Y30785714D01*
X64345238Y30833333D01*
X64250000Y30928571D01*
X64202380Y31071428D01*
X64202380Y31166666D01*
X64250000Y31309523D01*
X64297619Y31357142D01*
X65202380Y32309523D02*
X65202380Y31738095D01*
X65202380Y32023809D02*
X64202380Y32023809D01*
X64345238Y31928571D01*
X64440476Y31833333D01*
X64488095Y31738095D01*
X65202380Y33261904D02*
X65202380Y32690476D01*
X65202380Y32976190D02*
X64202380Y32976190D01*
X64345238Y32880952D01*
X64440476Y32785714D01*
X64488095Y32690476D01*
%TO.C,C10*%
X74857142Y39107142D02*
X74904761Y39059523D01*
X74952380Y38916666D01*
X74952380Y38821428D01*
X74904761Y38678571D01*
X74809523Y38583333D01*
X74714285Y38535714D01*
X74523809Y38488095D01*
X74380952Y38488095D01*
X74190476Y38535714D01*
X74095238Y38583333D01*
X74000000Y38678571D01*
X73952380Y38821428D01*
X73952380Y38916666D01*
X74000000Y39059523D01*
X74047619Y39107142D01*
X74952380Y40059523D02*
X74952380Y39488095D01*
X74952380Y39773809D02*
X73952380Y39773809D01*
X74095238Y39678571D01*
X74190476Y39583333D01*
X74238095Y39488095D01*
X73952380Y40678571D02*
X73952380Y40773809D01*
X74000000Y40869047D01*
X74047619Y40916666D01*
X74142857Y40964285D01*
X74333333Y41011904D01*
X74571428Y41011904D01*
X74761904Y40964285D01*
X74857142Y40916666D01*
X74904761Y40869047D01*
X74952380Y40773809D01*
X74952380Y40678571D01*
X74904761Y40583333D01*
X74857142Y40535714D01*
X74761904Y40488095D01*
X74571428Y40440476D01*
X74333333Y40440476D01*
X74142857Y40488095D01*
X74047619Y40535714D01*
X74000000Y40583333D01*
X73952380Y40678571D01*
%TO.C,C9*%
X77177142Y26083333D02*
X77224761Y26035714D01*
X77272380Y25892857D01*
X77272380Y25797619D01*
X77224761Y25654761D01*
X77129523Y25559523D01*
X77034285Y25511904D01*
X76843809Y25464285D01*
X76700952Y25464285D01*
X76510476Y25511904D01*
X76415238Y25559523D01*
X76320000Y25654761D01*
X76272380Y25797619D01*
X76272380Y25892857D01*
X76320000Y26035714D01*
X76367619Y26083333D01*
X77272380Y26559523D02*
X77272380Y26750000D01*
X77224761Y26845238D01*
X77177142Y26892857D01*
X77034285Y26988095D01*
X76843809Y27035714D01*
X76462857Y27035714D01*
X76367619Y26988095D01*
X76320000Y26940476D01*
X76272380Y26845238D01*
X76272380Y26654761D01*
X76320000Y26559523D01*
X76367619Y26511904D01*
X76462857Y26464285D01*
X76700952Y26464285D01*
X76796190Y26511904D01*
X76843809Y26559523D01*
X76891428Y26654761D01*
X76891428Y26845238D01*
X76843809Y26940476D01*
X76796190Y26988095D01*
X76700952Y27035714D01*
%TO.C,C8*%
X101857142Y40333333D02*
X101904761Y40285714D01*
X101952380Y40142857D01*
X101952380Y40047619D01*
X101904761Y39904761D01*
X101809523Y39809523D01*
X101714285Y39761904D01*
X101523809Y39714285D01*
X101380952Y39714285D01*
X101190476Y39761904D01*
X101095238Y39809523D01*
X101000000Y39904761D01*
X100952380Y40047619D01*
X100952380Y40142857D01*
X101000000Y40285714D01*
X101047619Y40333333D01*
X101380952Y40904761D02*
X101333333Y40809523D01*
X101285714Y40761904D01*
X101190476Y40714285D01*
X101142857Y40714285D01*
X101047619Y40761904D01*
X101000000Y40809523D01*
X100952380Y40904761D01*
X100952380Y41095238D01*
X101000000Y41190476D01*
X101047619Y41238095D01*
X101142857Y41285714D01*
X101190476Y41285714D01*
X101285714Y41238095D01*
X101333333Y41190476D01*
X101380952Y41095238D01*
X101380952Y40904761D01*
X101428571Y40809523D01*
X101476190Y40761904D01*
X101571428Y40714285D01*
X101761904Y40714285D01*
X101857142Y40761904D01*
X101904761Y40809523D01*
X101952380Y40904761D01*
X101952380Y41095238D01*
X101904761Y41190476D01*
X101857142Y41238095D01*
X101761904Y41285714D01*
X101571428Y41285714D01*
X101476190Y41238095D01*
X101428571Y41190476D01*
X101380952Y41095238D01*
%TO.C,C7*%
X107107142Y39583333D02*
X107154761Y39535714D01*
X107202380Y39392857D01*
X107202380Y39297619D01*
X107154761Y39154761D01*
X107059523Y39059523D01*
X106964285Y39011904D01*
X106773809Y38964285D01*
X106630952Y38964285D01*
X106440476Y39011904D01*
X106345238Y39059523D01*
X106250000Y39154761D01*
X106202380Y39297619D01*
X106202380Y39392857D01*
X106250000Y39535714D01*
X106297619Y39583333D01*
X106202380Y39916666D02*
X106202380Y40583333D01*
X107202380Y40154761D01*
%TO.C,C6*%
X78607142Y45333333D02*
X78654761Y45285714D01*
X78702380Y45142857D01*
X78702380Y45047619D01*
X78654761Y44904761D01*
X78559523Y44809523D01*
X78464285Y44761904D01*
X78273809Y44714285D01*
X78130952Y44714285D01*
X77940476Y44761904D01*
X77845238Y44809523D01*
X77750000Y44904761D01*
X77702380Y45047619D01*
X77702380Y45142857D01*
X77750000Y45285714D01*
X77797619Y45333333D01*
X77702380Y46190476D02*
X77702380Y46000000D01*
X77750000Y45904761D01*
X77797619Y45857142D01*
X77940476Y45761904D01*
X78130952Y45714285D01*
X78511904Y45714285D01*
X78607142Y45761904D01*
X78654761Y45809523D01*
X78702380Y45904761D01*
X78702380Y46095238D01*
X78654761Y46190476D01*
X78607142Y46238095D01*
X78511904Y46285714D01*
X78273809Y46285714D01*
X78178571Y46238095D01*
X78130952Y46190476D01*
X78083333Y46095238D01*
X78083333Y45904761D01*
X78130952Y45809523D01*
X78178571Y45761904D01*
X78273809Y45714285D01*
%TO.C,C5*%
X67107142Y32333333D02*
X67154761Y32285714D01*
X67202380Y32142857D01*
X67202380Y32047619D01*
X67154761Y31904761D01*
X67059523Y31809523D01*
X66964285Y31761904D01*
X66773809Y31714285D01*
X66630952Y31714285D01*
X66440476Y31761904D01*
X66345238Y31809523D01*
X66250000Y31904761D01*
X66202380Y32047619D01*
X66202380Y32142857D01*
X66250000Y32285714D01*
X66297619Y32333333D01*
X66202380Y33238095D02*
X66202380Y32761904D01*
X66678571Y32714285D01*
X66630952Y32761904D01*
X66583333Y32857142D01*
X66583333Y33095238D01*
X66630952Y33190476D01*
X66678571Y33238095D01*
X66773809Y33285714D01*
X67011904Y33285714D01*
X67107142Y33238095D01*
X67154761Y33190476D01*
X67202380Y33095238D01*
X67202380Y32857142D01*
X67154761Y32761904D01*
X67107142Y32714285D01*
%TO.C,C4*%
X76333333Y28392857D02*
X76285714Y28345238D01*
X76142857Y28297619D01*
X76047619Y28297619D01*
X75904761Y28345238D01*
X75809523Y28440476D01*
X75761904Y28535714D01*
X75714285Y28726190D01*
X75714285Y28869047D01*
X75761904Y29059523D01*
X75809523Y29154761D01*
X75904761Y29250000D01*
X76047619Y29297619D01*
X76142857Y29297619D01*
X76285714Y29250000D01*
X76333333Y29202380D01*
X77190476Y28964285D02*
X77190476Y28297619D01*
X76952380Y29345238D02*
X76714285Y28630952D01*
X77333333Y28630952D01*
%TO.C,C3*%
X82607142Y47833333D02*
X82654761Y47785714D01*
X82702380Y47642857D01*
X82702380Y47547619D01*
X82654761Y47404761D01*
X82559523Y47309523D01*
X82464285Y47261904D01*
X82273809Y47214285D01*
X82130952Y47214285D01*
X81940476Y47261904D01*
X81845238Y47309523D01*
X81750000Y47404761D01*
X81702380Y47547619D01*
X81702380Y47642857D01*
X81750000Y47785714D01*
X81797619Y47833333D01*
X81702380Y48166666D02*
X81702380Y48785714D01*
X82083333Y48452380D01*
X82083333Y48595238D01*
X82130952Y48690476D01*
X82178571Y48738095D01*
X82273809Y48785714D01*
X82511904Y48785714D01*
X82607142Y48738095D01*
X82654761Y48690476D01*
X82702380Y48595238D01*
X82702380Y48309523D01*
X82654761Y48214285D01*
X82607142Y48166666D01*
%TO.C,C2*%
X84857142Y47833333D02*
X84904761Y47785714D01*
X84952380Y47642857D01*
X84952380Y47547619D01*
X84904761Y47404761D01*
X84809523Y47309523D01*
X84714285Y47261904D01*
X84523809Y47214285D01*
X84380952Y47214285D01*
X84190476Y47261904D01*
X84095238Y47309523D01*
X84000000Y47404761D01*
X83952380Y47547619D01*
X83952380Y47642857D01*
X84000000Y47785714D01*
X84047619Y47833333D01*
X84047619Y48214285D02*
X84000000Y48261904D01*
X83952380Y48357142D01*
X83952380Y48595238D01*
X84000000Y48690476D01*
X84047619Y48738095D01*
X84142857Y48785714D01*
X84238095Y48785714D01*
X84380952Y48738095D01*
X84952380Y48166666D01*
X84952380Y48785714D01*
%TO.C,C1*%
X62607142Y32333333D02*
X62654761Y32285714D01*
X62702380Y32142857D01*
X62702380Y32047619D01*
X62654761Y31904761D01*
X62559523Y31809523D01*
X62464285Y31761904D01*
X62273809Y31714285D01*
X62130952Y31714285D01*
X61940476Y31761904D01*
X61845238Y31809523D01*
X61750000Y31904761D01*
X61702380Y32047619D01*
X61702380Y32142857D01*
X61750000Y32285714D01*
X61797619Y32333333D01*
X62702380Y33285714D02*
X62702380Y32714285D01*
X62702380Y33000000D02*
X61702380Y33000000D01*
X61845238Y32904761D01*
X61940476Y32809523D01*
X61988095Y32714285D01*
%TD*%
M02*
