%TF.GenerationSoftware,KiCad,Pcbnew,(5.1.9)-1*%
%TF.CreationDate,2021-04-16T14:28:35+02:00*%
%TF.ProjectId,loeti,6c6f6574-692e-46b6-9963-61645f706362,rev?*%
%TF.SameCoordinates,Original*%
%TF.FileFunction,Legend,Bot*%
%TF.FilePolarity,Positive*%
%FSLAX46Y46*%
G04 Gerber Fmt 4.6, Leading zero omitted, Abs format (unit mm)*
G04 Created by KiCad (PCBNEW (5.1.9)-1) date 2021-04-16 14:28:35*
%MOMM*%
%LPD*%
G01*
G04 APERTURE LIST*
%ADD10C,0.120000*%
%ADD11C,0.150000*%
G04 APERTURE END LIST*
D10*
%TO.C,SW1*%
X73750000Y23680000D02*
X67750000Y23680000D01*
X76750000Y28680000D02*
G75*
G03*
X76750000Y28680000I-6000000J0D01*
G01*
%TO.C,D7*%
X93920000Y21420000D02*
X93764000Y21420000D01*
X96236000Y21420000D02*
X96080000Y21420000D01*
X93920163Y24021130D02*
G75*
G03*
X93920000Y21939039I1079837J-1041130D01*
G01*
X96079837Y24021130D02*
G75*
G02*
X96080000Y21939039I-1079837J-1041130D01*
G01*
X93921392Y24652335D02*
G75*
G03*
X93764484Y21420000I1078608J-1672335D01*
G01*
X96078608Y24652335D02*
G75*
G02*
X96235516Y21420000I-1078608J-1672335D01*
G01*
%TO.C,D6*%
X89420000Y21420000D02*
X89264000Y21420000D01*
X91736000Y21420000D02*
X91580000Y21420000D01*
X89420163Y24021130D02*
G75*
G03*
X89420000Y21939039I1079837J-1041130D01*
G01*
X91579837Y24021130D02*
G75*
G02*
X91580000Y21939039I-1079837J-1041130D01*
G01*
X89421392Y24652335D02*
G75*
G03*
X89264484Y21420000I1078608J-1672335D01*
G01*
X91578608Y24652335D02*
G75*
G02*
X91735516Y21420000I-1078608J-1672335D01*
G01*
%TO.C,D4*%
X84920000Y21420000D02*
X84764000Y21420000D01*
X87236000Y21420000D02*
X87080000Y21420000D01*
X84920163Y24021130D02*
G75*
G03*
X84920000Y21939039I1079837J-1041130D01*
G01*
X87079837Y24021130D02*
G75*
G02*
X87080000Y21939039I-1079837J-1041130D01*
G01*
X84921392Y24652335D02*
G75*
G03*
X84764484Y21420000I1078608J-1672335D01*
G01*
X87078608Y24652335D02*
G75*
G02*
X87235516Y21420000I-1078608J-1672335D01*
G01*
%TO.C,SW1*%
D11*
X71154761Y30083333D02*
X71202380Y29940476D01*
X71202380Y29702380D01*
X71154761Y29607142D01*
X71107142Y29559523D01*
X71011904Y29511904D01*
X70916666Y29511904D01*
X70821428Y29559523D01*
X70773809Y29607142D01*
X70726190Y29702380D01*
X70678571Y29892857D01*
X70630952Y29988095D01*
X70583333Y30035714D01*
X70488095Y30083333D01*
X70392857Y30083333D01*
X70297619Y30035714D01*
X70250000Y29988095D01*
X70202380Y29892857D01*
X70202380Y29654761D01*
X70250000Y29511904D01*
X70202380Y29178571D02*
X71202380Y28940476D01*
X70488095Y28750000D01*
X71202380Y28559523D01*
X70202380Y28321428D01*
X71202380Y27416666D02*
X71202380Y27988095D01*
X71202380Y27702380D02*
X70202380Y27702380D01*
X70345238Y27797619D01*
X70440476Y27892857D01*
X70488095Y27988095D01*
%TO.C,D7*%
X95738095Y19297619D02*
X95738095Y20297619D01*
X95500000Y20297619D01*
X95357142Y20250000D01*
X95261904Y20154761D01*
X95214285Y20059523D01*
X95166666Y19869047D01*
X95166666Y19726190D01*
X95214285Y19535714D01*
X95261904Y19440476D01*
X95357142Y19345238D01*
X95500000Y19297619D01*
X95738095Y19297619D01*
X94833333Y20297619D02*
X94166666Y20297619D01*
X94595238Y19297619D01*
%TO.C,D6*%
X91238095Y19297619D02*
X91238095Y20297619D01*
X91000000Y20297619D01*
X90857142Y20250000D01*
X90761904Y20154761D01*
X90714285Y20059523D01*
X90666666Y19869047D01*
X90666666Y19726190D01*
X90714285Y19535714D01*
X90761904Y19440476D01*
X90857142Y19345238D01*
X91000000Y19297619D01*
X91238095Y19297619D01*
X89809523Y20297619D02*
X90000000Y20297619D01*
X90095238Y20250000D01*
X90142857Y20202380D01*
X90238095Y20059523D01*
X90285714Y19869047D01*
X90285714Y19488095D01*
X90238095Y19392857D01*
X90190476Y19345238D01*
X90095238Y19297619D01*
X89904761Y19297619D01*
X89809523Y19345238D01*
X89761904Y19392857D01*
X89714285Y19488095D01*
X89714285Y19726190D01*
X89761904Y19821428D01*
X89809523Y19869047D01*
X89904761Y19916666D01*
X90095238Y19916666D01*
X90190476Y19869047D01*
X90238095Y19821428D01*
X90285714Y19726190D01*
%TO.C,D4*%
X86738095Y19047619D02*
X86738095Y20047619D01*
X86500000Y20047619D01*
X86357142Y20000000D01*
X86261904Y19904761D01*
X86214285Y19809523D01*
X86166666Y19619047D01*
X86166666Y19476190D01*
X86214285Y19285714D01*
X86261904Y19190476D01*
X86357142Y19095238D01*
X86500000Y19047619D01*
X86738095Y19047619D01*
X85309523Y19714285D02*
X85309523Y19047619D01*
X85547619Y20095238D02*
X85785714Y19380952D01*
X85166666Y19380952D01*
%TD*%
M02*
