%TF.GenerationSoftware,KiCad,Pcbnew,(5.1.9)-1*%
%TF.CreationDate,2021-04-16T14:28:35+02:00*%
%TF.ProjectId,loeti,6c6f6574-692e-46b6-9963-61645f706362,rev?*%
%TF.SameCoordinates,Original*%
%TF.FileFunction,Copper,L2,Bot*%
%TF.FilePolarity,Positive*%
%FSLAX46Y46*%
G04 Gerber Fmt 4.6, Leading zero omitted, Abs format (unit mm)*
G04 Created by KiCad (PCBNEW (5.1.9)-1) date 2021-04-16 14:28:35*
%MOMM*%
%LPD*%
G01*
G04 APERTURE LIST*
%TA.AperFunction,ComponentPad*%
%ADD10C,2.200000*%
%TD*%
%TA.AperFunction,ComponentPad*%
%ADD11C,1.800000*%
%TD*%
%TA.AperFunction,ComponentPad*%
%ADD12R,1.800000X1.800000*%
%TD*%
%TA.AperFunction,ComponentPad*%
%ADD13O,3.200000X1.600000*%
%TD*%
%TA.AperFunction,ComponentPad*%
%ADD14O,1.000000X1.000000*%
%TD*%
%TA.AperFunction,ComponentPad*%
%ADD15R,1.000000X1.000000*%
%TD*%
%TA.AperFunction,ComponentPad*%
%ADD16O,1.700000X0.900000*%
%TD*%
%TA.AperFunction,ComponentPad*%
%ADD17O,2.400000X0.900000*%
%TD*%
%TA.AperFunction,ComponentPad*%
%ADD18C,0.700000*%
%TD*%
%TA.AperFunction,ViaPad*%
%ADD19C,0.600000*%
%TD*%
%TA.AperFunction,ViaPad*%
%ADD20C,1.000000*%
%TD*%
%TA.AperFunction,Conductor*%
%ADD21C,0.250000*%
%TD*%
%TA.AperFunction,Conductor*%
%ADD22C,0.200000*%
%TD*%
%TA.AperFunction,Conductor*%
%ADD23C,0.100000*%
%TD*%
G04 APERTURE END LIST*
D10*
%TO.P,SW1,4*%
%TO.N,HEATER-*%
X68250000Y31180000D03*
%TO.P,SW1,3*%
X68250000Y26180000D03*
%TO.P,SW1,2*%
%TO.N,SW*%
X73250000Y31180000D03*
%TO.P,SW1,1*%
X73250000Y26180000D03*
%TD*%
D11*
%TO.P,D7,2*%
%TO.N,Net-(D7-Pad2)*%
X95000000Y24250000D03*
D12*
%TO.P,D7,1*%
%TO.N,HEATER-*%
X95000000Y21710000D03*
%TD*%
D11*
%TO.P,D6,2*%
%TO.N,Net-(D6-Pad2)*%
X90500000Y24250000D03*
D12*
%TO.P,D6,1*%
%TO.N,HEATER-*%
X90500000Y21710000D03*
%TD*%
D11*
%TO.P,D4,2*%
%TO.N,Net-(D4-Pad2)*%
X86000000Y24250000D03*
D12*
%TO.P,D4,1*%
%TO.N,HEATER-*%
X86000000Y21710000D03*
%TD*%
D13*
%TO.P,J2,S*%
%TO.N,HEATER-*%
X120870000Y32905000D03*
X114070000Y24455000D03*
X120870000Y24455000D03*
X114070000Y32905000D03*
%TD*%
D14*
%TO.P,J3,14*%
%TO.N,VCP_TX*%
X97370000Y42270000D03*
%TO.P,J3,13*%
%TO.N,VCP_RX*%
X97370000Y41000000D03*
%TO.P,J3,12*%
%TO.N,NRST*%
X96100000Y42270000D03*
%TO.P,J3,11*%
%TO.N,HEATER-*%
X96100000Y41000000D03*
%TO.P,J3,10*%
%TO.N,N/C*%
X94830000Y42270000D03*
%TO.P,J3,9*%
X94830000Y41000000D03*
%TO.P,J3,8*%
X93560000Y42270000D03*
%TO.P,J3,7*%
%TO.N,HEATER-*%
X93560000Y41000000D03*
%TO.P,J3,6*%
%TO.N,SWCLK*%
X92290000Y42270000D03*
%TO.P,J3,5*%
%TO.N,HEATER-*%
X92290000Y41000000D03*
%TO.P,J3,4*%
%TO.N,SWDIO*%
X91020000Y42270000D03*
%TO.P,J3,3*%
%TO.N,+3V3*%
X91020000Y41000000D03*
%TO.P,J3,2*%
%TO.N,N/C*%
X89750000Y42270000D03*
D15*
%TO.P,J3,1*%
X89750000Y41000000D03*
%TD*%
D16*
%TO.P,J1,S1*%
%TO.N,HEATER-*%
X55540000Y24350000D03*
X55540000Y33000000D03*
D17*
X58920000Y24350000D03*
X58920000Y33000000D03*
D18*
%TO.P,J1,B6*%
%TO.N,N/C*%
X58550000Y28250000D03*
%TO.P,J1,B1*%
%TO.N,HEATER-*%
X58550000Y25700000D03*
%TO.P,J1,B4*%
%TO.N,SHUNT+*%
X58550000Y26550000D03*
%TO.P,J1,B5*%
%TO.N,CC2*%
X58550000Y27400000D03*
%TO.P,J1,B12*%
%TO.N,HEATER-*%
X58550000Y31650000D03*
%TO.P,J1,B8*%
%TO.N,N/C*%
X58550000Y29950000D03*
%TO.P,J1,B7*%
X58550000Y29100000D03*
%TO.P,J1,B9*%
%TO.N,SHUNT+*%
X58550000Y30800000D03*
%TO.P,J1,A12*%
%TO.N,HEATER-*%
X59900000Y25700000D03*
%TO.P,J1,A9*%
%TO.N,SHUNT+*%
X59900000Y26550000D03*
%TO.P,J1,A8*%
%TO.N,N/C*%
X59900000Y27400000D03*
%TO.P,J1,A7*%
X59900000Y28250000D03*
%TO.P,J1,A6*%
X59900000Y29100000D03*
%TO.P,J1,A5*%
%TO.N,CC1*%
X59900000Y29950000D03*
%TO.P,J1,A4*%
%TO.N,SHUNT+*%
X59900000Y30800000D03*
%TO.P,J1,A1*%
%TO.N,HEATER-*%
X59900000Y31650000D03*
%TD*%
D19*
%TO.N,+3V3*%
X94500000Y37500000D03*
X78956250Y33043750D03*
X90250000Y32500000D03*
X86750000Y45500016D03*
%TO.N,CC2*%
X76250000Y39250000D03*
%TO.N,CC1*%
X76250000Y40250000D03*
%TO.N,HEATER-*%
X84000000Y38750000D03*
X84000000Y40500000D03*
X106750000Y35250000D03*
X108000000Y33500000D03*
X79750000Y47500000D03*
X78000000Y36750000D03*
X77750000Y35750000D03*
X76250000Y33750000D03*
X84000000Y27250000D03*
X103250000Y29000000D03*
X80000000Y39500000D03*
X78250000Y28250000D03*
X80000000Y27250000D03*
X86000000Y29500000D03*
X93000000Y35500000D03*
X97500000Y31750000D03*
X101000000Y39249990D03*
D20*
X82500000Y13500000D03*
X82500000Y12250000D03*
X88500000Y13500000D03*
X88500000Y12250000D03*
X90250000Y13500000D03*
X90250000Y12250000D03*
X96250000Y13500000D03*
X96250000Y12250000D03*
X95000000Y13500000D03*
X95000000Y12250000D03*
X91500000Y13500000D03*
X91500000Y12250000D03*
X87250000Y13500000D03*
X87250000Y12250000D03*
X83750000Y13500000D03*
X83750000Y12250000D03*
X90250000Y11000000D03*
X91500000Y11000000D03*
X95000000Y11000000D03*
X96250000Y11000000D03*
X88500000Y11000000D03*
X87250000Y11000000D03*
X83750000Y11000000D03*
X82500000Y11000000D03*
D19*
X81250000Y47500000D03*
X83500024Y47500000D03*
%TO.N,I2C1_SCL*%
X87750000Y33250000D03*
X80500000Y37000000D03*
%TO.N,I2C1_SDA*%
X82325000Y36487500D03*
X88750000Y33250000D03*
%TO.N,PD_ALERT_INT*%
X89750000Y35750000D03*
X85500000Y43500000D03*
%TO.N,NRST*%
X90250000Y30750000D03*
%TO.N,ADC_IN2*%
X92750000Y30750000D03*
X102000000Y37000000D03*
%TO.N,PD_RST*%
X80000000Y38000000D03*
X93000000Y34500000D03*
%TO.N,SHUNT+*%
X80500060Y42250000D03*
X85250000Y42250000D03*
X69750000Y32500000D03*
%TO.N,CURR_ALERT*%
X81250000Y28500000D03*
X89299979Y31700021D03*
%TO.N,CURR_CS*%
X82250000Y28500000D03*
X88500000Y30750000D03*
D20*
%TO.N,SW*%
X79000000Y31250000D03*
%TD*%
D21*
%TO.N,+3V3*%
X91020000Y40292894D02*
X91020000Y41000000D01*
X92750000Y37500000D02*
X94500000Y37500000D01*
X91020000Y39230000D02*
X92750000Y37500000D01*
X91020000Y40292894D02*
X91020000Y39230000D01*
X78956250Y33043750D02*
X79500000Y32500000D01*
X79500000Y32500000D02*
X90250000Y32500000D01*
X87250000Y45000016D02*
X86750000Y45500016D01*
X87250000Y40250000D02*
X87250000Y45000016D01*
X88250000Y39250000D02*
X87250000Y40250000D01*
X91000000Y39250000D02*
X88250000Y39250000D01*
%TO.N,CC2*%
X76250000Y39250000D02*
X73000000Y36000000D01*
X73000000Y36000000D02*
X59250000Y36000000D01*
X59250000Y36000000D02*
X57250000Y34000000D01*
X57250000Y34000000D02*
X57250000Y28000000D01*
X57850000Y27400000D02*
X58550000Y27400000D01*
X57250000Y28000000D02*
X57850000Y27400000D01*
%TO.N,CC1*%
X76250000Y40250000D02*
X77000000Y39500000D01*
X77000000Y39500000D02*
X77000000Y39000000D01*
X77000000Y39000000D02*
X73500000Y35500000D01*
X73500000Y35500000D02*
X66250000Y35500000D01*
X66250000Y35500000D02*
X60700000Y29950000D01*
X60700000Y29950000D02*
X59900000Y29950000D01*
%TO.N,I2C1_SCL*%
X87750000Y33250000D02*
X84250000Y33250000D01*
X84250000Y33250000D02*
X80500000Y37000000D01*
%TO.N,I2C1_SDA*%
X88000000Y34000000D02*
X88750000Y33250000D01*
X84812500Y34000000D02*
X88000000Y34000000D01*
X82325000Y36487500D02*
X84812500Y34000000D01*
%TO.N,PD_ALERT_INT*%
X89750000Y35750000D02*
X88000000Y35750000D01*
X88000000Y35750000D02*
X86250000Y37500000D01*
X86250000Y42750000D02*
X85500000Y43500000D01*
X86250000Y37500000D02*
X86250000Y42750000D01*
%TO.N,NRST*%
X96100000Y42850000D02*
X96100000Y42270000D01*
X98000000Y43250000D02*
X96500000Y43250000D01*
X96500000Y43250000D02*
X96100000Y42850000D01*
X98500000Y42750000D02*
X98000000Y43250000D01*
X98500000Y39000000D02*
X98500000Y42750000D01*
X90250000Y30750000D02*
X98500000Y39000000D01*
%TO.N,ADC_IN2*%
X97500000Y37000000D02*
X102000000Y37000000D01*
X92750000Y32250000D02*
X97500000Y37000000D01*
X92750000Y30750000D02*
X92750000Y32250000D01*
%TO.N,PD_RST*%
X80000000Y38000000D02*
X82000000Y38000000D01*
X82000000Y38000000D02*
X85500000Y34500000D01*
X85500000Y34500000D02*
X93000000Y34500000D01*
%TO.N,SHUNT+*%
X80500060Y42250000D02*
X85250000Y42250000D01*
X80500060Y42250000D02*
X80500060Y41500060D01*
X80500060Y41500060D02*
X71500000Y32500000D01*
X71500000Y32500000D02*
X69750000Y32500000D01*
%TO.N,CURR_ALERT*%
X81250000Y28500000D02*
X84450021Y31700021D01*
X84450021Y31700021D02*
X89299979Y31700021D01*
%TO.N,CURR_CS*%
X82250000Y28500000D02*
X84250000Y30500000D01*
X84500000Y30750000D02*
X88500000Y30750000D01*
X84250000Y30500000D02*
X84500000Y30750000D01*
%TO.N,SW*%
X73320000Y31250000D02*
X73250000Y31180000D01*
X79000000Y31250000D02*
X73320000Y31250000D01*
%TD*%
D22*
%TO.N,HEATER-*%
X104014963Y49087330D02*
X104850001Y49049985D01*
X104850000Y43730354D01*
X104850068Y43729662D01*
X104850088Y43723997D01*
X104851854Y43706613D01*
X104851732Y43689142D01*
X104852277Y43683584D01*
X104924178Y42999491D01*
X104931463Y42964002D01*
X104938261Y42928366D01*
X104939876Y42923019D01*
X105143282Y42265920D01*
X105157314Y42232540D01*
X105170911Y42198885D01*
X105173533Y42193953D01*
X105500697Y41588877D01*
X105520970Y41558821D01*
X105540821Y41528486D01*
X105544351Y41524157D01*
X105982810Y40994151D01*
X106008536Y40968604D01*
X106033900Y40942703D01*
X106038203Y40939143D01*
X106571258Y40504395D01*
X106601414Y40484360D01*
X106631367Y40463850D01*
X106636280Y40461194D01*
X107243626Y40138263D01*
X107277152Y40124444D01*
X107310466Y40110166D01*
X107315801Y40108514D01*
X107974304Y39909700D01*
X108009896Y39902653D01*
X108045330Y39895121D01*
X108050884Y39894537D01*
X108735462Y39827414D01*
X108735467Y39827414D01*
X108754850Y39825505D01*
X122673929Y39825508D01*
X122670328Y33482054D01*
X122589239Y33612107D01*
X122433626Y33777855D01*
X122248668Y33910059D01*
X122041472Y34003640D01*
X121820000Y34055000D01*
X121020000Y34055000D01*
X121020000Y33055000D01*
X121040000Y33055000D01*
X121040000Y32755000D01*
X121020000Y32755000D01*
X121020000Y32735000D01*
X120720000Y32735000D01*
X120720000Y32755000D01*
X119018142Y32755000D01*
X118967328Y32578484D01*
X119030474Y32390814D01*
X119150761Y32197893D01*
X119289564Y32050050D01*
X115650436Y32050050D01*
X115789239Y32197893D01*
X115909526Y32390814D01*
X115972672Y32578484D01*
X115921858Y32755000D01*
X114220000Y32755000D01*
X114220000Y32735000D01*
X113920000Y32735000D01*
X113920000Y32755000D01*
X112218142Y32755000D01*
X112167328Y32578484D01*
X112230474Y32390814D01*
X112350761Y32197893D01*
X112489564Y32050050D01*
X110055267Y32050050D01*
X110040199Y32048566D01*
X110033250Y32048566D01*
X110029084Y32048128D01*
X109925320Y32036489D01*
X109898739Y32030839D01*
X109872042Y32025553D01*
X109868040Y32024314D01*
X109768514Y31992741D01*
X109743522Y31982030D01*
X109718377Y31971666D01*
X109714700Y31969677D01*
X109714690Y31969673D01*
X109714682Y31969667D01*
X109623194Y31919372D01*
X109600730Y31903991D01*
X109578102Y31888958D01*
X109574882Y31886294D01*
X109574875Y31886289D01*
X109574870Y31886283D01*
X109494889Y31819172D01*
X109475841Y31799721D01*
X109456564Y31780578D01*
X109453916Y31777332D01*
X109388490Y31695958D01*
X109373593Y31673193D01*
X109358392Y31650657D01*
X109356426Y31646958D01*
X109308052Y31554427D01*
X109297856Y31529193D01*
X109287326Y31504143D01*
X109286117Y31500139D01*
X109286114Y31500132D01*
X109286113Y31500125D01*
X109256634Y31399967D01*
X109251538Y31373251D01*
X109246069Y31346612D01*
X109245661Y31342443D01*
X109236198Y31238458D01*
X109236388Y31211231D01*
X109236198Y31184071D01*
X109236606Y31179913D01*
X109236606Y31179900D01*
X109236608Y31179888D01*
X109247521Y31076060D01*
X109252992Y31049406D01*
X109258085Y31022706D01*
X109259293Y31018706D01*
X109259295Y31018696D01*
X109259299Y31018687D01*
X109290172Y30918951D01*
X109300710Y30893882D01*
X109310898Y30868665D01*
X109312860Y30864976D01*
X109312864Y30864967D01*
X109312869Y30864960D01*
X109362527Y30773119D01*
X109377765Y30750528D01*
X109392625Y30727819D01*
X109395269Y30724577D01*
X109395273Y30724571D01*
X109395278Y30724566D01*
X109461829Y30644120D01*
X109481121Y30624962D01*
X109500152Y30605528D01*
X109503380Y30602858D01*
X109584295Y30536865D01*
X109606966Y30521803D01*
X109629386Y30506451D01*
X109633066Y30504462D01*
X109633070Y30504459D01*
X109633074Y30504457D01*
X109725262Y30455440D01*
X109750394Y30445081D01*
X109769951Y30436699D01*
X109769950Y26923197D01*
X109768514Y26922741D01*
X109743522Y26912030D01*
X109718377Y26901666D01*
X109714700Y26899677D01*
X109714690Y26899673D01*
X109714682Y26899667D01*
X109623194Y26849372D01*
X109600730Y26833991D01*
X109578102Y26818958D01*
X109574882Y26816294D01*
X109574875Y26816289D01*
X109574870Y26816283D01*
X109494889Y26749172D01*
X109475841Y26729721D01*
X109456564Y26710578D01*
X109453916Y26707332D01*
X109388490Y26625958D01*
X109373593Y26603193D01*
X109358392Y26580657D01*
X109356426Y26576958D01*
X109308052Y26484427D01*
X109297856Y26459193D01*
X109287326Y26434143D01*
X109286117Y26430139D01*
X109286114Y26430132D01*
X109286113Y26430125D01*
X109256634Y26329967D01*
X109251538Y26303251D01*
X109246069Y26276612D01*
X109245661Y26272443D01*
X109236198Y26168458D01*
X109236388Y26141231D01*
X109236198Y26114071D01*
X109236606Y26109913D01*
X109236606Y26109900D01*
X109236608Y26109888D01*
X109247521Y26006060D01*
X109252992Y25979406D01*
X109258085Y25952706D01*
X109259293Y25948706D01*
X109259295Y25948696D01*
X109259299Y25948687D01*
X109290172Y25848951D01*
X109300710Y25823882D01*
X109310898Y25798665D01*
X109312860Y25794976D01*
X109312864Y25794967D01*
X109312869Y25794960D01*
X109362527Y25703119D01*
X109377765Y25680528D01*
X109392625Y25657819D01*
X109395269Y25654577D01*
X109395273Y25654571D01*
X109395278Y25654566D01*
X109461829Y25574120D01*
X109481121Y25554962D01*
X109500152Y25535528D01*
X109503380Y25532858D01*
X109584295Y25466865D01*
X109606966Y25451803D01*
X109629386Y25436451D01*
X109633066Y25434462D01*
X109633070Y25434459D01*
X109633074Y25434457D01*
X109725262Y25385440D01*
X109750394Y25375081D01*
X109775401Y25364363D01*
X109779403Y25363124D01*
X109879361Y25332945D01*
X109906051Y25327660D01*
X109932639Y25322009D01*
X109936805Y25321571D01*
X110040720Y25311382D01*
X110040727Y25311382D01*
X110055267Y25309950D01*
X112489564Y25309950D01*
X112350761Y25162107D01*
X112230474Y24969186D01*
X112167328Y24781516D01*
X112218142Y24605000D01*
X113920000Y24605000D01*
X113920000Y24625000D01*
X114220000Y24625000D01*
X114220000Y24605000D01*
X115921858Y24605000D01*
X115972672Y24781516D01*
X115909526Y24969186D01*
X115789239Y25162107D01*
X115650436Y25309950D01*
X119289564Y25309950D01*
X119150761Y25162107D01*
X119030474Y24969186D01*
X118967328Y24781516D01*
X119018142Y24605000D01*
X120720000Y24605000D01*
X120720000Y24625000D01*
X121020000Y24625000D01*
X121020000Y24605000D01*
X121040000Y24605000D01*
X121040000Y24305000D01*
X121020000Y24305000D01*
X121020000Y23305000D01*
X121820000Y23305000D01*
X122041472Y23356360D01*
X122248668Y23449941D01*
X122433626Y23582145D01*
X122589239Y23747893D01*
X122670328Y23877946D01*
X122673931Y17534252D01*
X108728222Y17534252D01*
X108727532Y17534184D01*
X108722351Y17534166D01*
X108704965Y17532400D01*
X108687491Y17532522D01*
X108681933Y17531977D01*
X108011200Y17461480D01*
X107975705Y17454194D01*
X107940075Y17447397D01*
X107934731Y17445783D01*
X107934725Y17445781D01*
X107290464Y17246349D01*
X107257075Y17232314D01*
X107223428Y17218719D01*
X107218497Y17216097D01*
X106625238Y16895323D01*
X106595182Y16875050D01*
X106564847Y16855199D01*
X106560518Y16851669D01*
X106040863Y16421773D01*
X106015315Y16396047D01*
X105989415Y16370683D01*
X105985860Y16366385D01*
X105985855Y16366380D01*
X105985851Y16366375D01*
X105559598Y15843737D01*
X105539528Y15813529D01*
X105519054Y15783627D01*
X105516397Y15778714D01*
X105199772Y15183230D01*
X105185954Y15149706D01*
X105171675Y15116389D01*
X105170023Y15111054D01*
X104975093Y14465411D01*
X104968051Y14429848D01*
X104960514Y14394387D01*
X104959930Y14388833D01*
X104894117Y13717624D01*
X104894117Y13717619D01*
X104892208Y13698236D01*
X104892210Y8318719D01*
X99967639Y8150286D01*
X94659320Y8117034D01*
X89352141Y8232013D01*
X84050263Y8495131D01*
X78757781Y8906185D01*
X73476692Y9465080D01*
X72576995Y9576045D01*
X72576995Y13866790D01*
X74337118Y13866790D01*
X74337118Y13490404D01*
X74410548Y13121250D01*
X74554584Y12773515D01*
X74763693Y12460562D01*
X75029838Y12194417D01*
X75342791Y11985308D01*
X75690526Y11841272D01*
X76059680Y11767842D01*
X76436066Y11767842D01*
X76805220Y11841272D01*
X77152955Y11985308D01*
X77465908Y12194417D01*
X77732053Y12460562D01*
X77941162Y12773515D01*
X78085198Y13121250D01*
X78158628Y13490404D01*
X78158628Y13866790D01*
X99337118Y13866790D01*
X99337118Y13490404D01*
X99410548Y13121250D01*
X99554584Y12773515D01*
X99763693Y12460562D01*
X100029838Y12194417D01*
X100342791Y11985308D01*
X100690526Y11841272D01*
X101059680Y11767842D01*
X101436066Y11767842D01*
X101805220Y11841272D01*
X102152955Y11985308D01*
X102465908Y12194417D01*
X102732053Y12460562D01*
X102941162Y12773515D01*
X103085198Y13121250D01*
X103158628Y13490404D01*
X103158628Y13866790D01*
X103085198Y14235944D01*
X102941162Y14583679D01*
X102732053Y14896632D01*
X102465908Y15162777D01*
X102152955Y15371886D01*
X101805220Y15515922D01*
X101436066Y15589352D01*
X101059680Y15589352D01*
X100690526Y15515922D01*
X100342791Y15371886D01*
X100029838Y15162777D01*
X99763693Y14896632D01*
X99554584Y14583679D01*
X99410548Y14235944D01*
X99337118Y13866790D01*
X78158628Y13866790D01*
X78085198Y14235944D01*
X77941162Y14583679D01*
X77732053Y14896632D01*
X77465908Y15162777D01*
X77152955Y15371886D01*
X76805220Y15515922D01*
X76436066Y15589352D01*
X76059680Y15589352D01*
X75690526Y15515922D01*
X75342791Y15371886D01*
X75029838Y15162777D01*
X74763693Y14896632D01*
X74554584Y14583679D01*
X74410548Y14235944D01*
X74337118Y13866790D01*
X72576995Y13866790D01*
X72576995Y16134905D01*
X72576927Y16135600D01*
X72576909Y16140599D01*
X72575143Y16157980D01*
X72575265Y16175448D01*
X72574720Y16181006D01*
X72504773Y16846507D01*
X72497488Y16881996D01*
X72490690Y16917632D01*
X72489075Y16922979D01*
X72291197Y17562221D01*
X72277151Y17595634D01*
X72263567Y17629256D01*
X72260945Y17634188D01*
X71942673Y18222820D01*
X71922400Y18252876D01*
X71902549Y18283211D01*
X71899019Y18287540D01*
X71472475Y18803142D01*
X71446749Y18828689D01*
X71421385Y18854590D01*
X71417082Y18858150D01*
X70898515Y19281083D01*
X70868318Y19301146D01*
X70838405Y19321628D01*
X70833492Y19324285D01*
X70242652Y19638440D01*
X70209125Y19652259D01*
X70175812Y19666537D01*
X70170476Y19668189D01*
X69529869Y19861600D01*
X69494284Y19868646D01*
X69458844Y19876179D01*
X69453289Y19876763D01*
X68787315Y19942062D01*
X68787301Y19942062D01*
X68767929Y19943970D01*
X54210555Y19943970D01*
X54210555Y20810000D01*
X84748306Y20810000D01*
X84755064Y20741388D01*
X84775077Y20675413D01*
X84807577Y20614609D01*
X84851315Y20561315D01*
X84904609Y20517577D01*
X84965413Y20485077D01*
X85031388Y20465064D01*
X85100000Y20458306D01*
X85762500Y20460000D01*
X85850000Y20547500D01*
X85850000Y21560000D01*
X86150000Y21560000D01*
X86150000Y20547500D01*
X86237500Y20460000D01*
X86900000Y20458306D01*
X86968612Y20465064D01*
X87034587Y20485077D01*
X87095391Y20517577D01*
X87148685Y20561315D01*
X87192423Y20614609D01*
X87224923Y20675413D01*
X87244936Y20741388D01*
X87251694Y20810000D01*
X89248306Y20810000D01*
X89255064Y20741388D01*
X89275077Y20675413D01*
X89307577Y20614609D01*
X89351315Y20561315D01*
X89404609Y20517577D01*
X89465413Y20485077D01*
X89531388Y20465064D01*
X89600000Y20458306D01*
X90262500Y20460000D01*
X90350000Y20547500D01*
X90350000Y21560000D01*
X90650000Y21560000D01*
X90650000Y20547500D01*
X90737500Y20460000D01*
X91400000Y20458306D01*
X91468612Y20465064D01*
X91534587Y20485077D01*
X91595391Y20517577D01*
X91648685Y20561315D01*
X91692423Y20614609D01*
X91724923Y20675413D01*
X91744936Y20741388D01*
X91751694Y20810000D01*
X93748306Y20810000D01*
X93755064Y20741388D01*
X93775077Y20675413D01*
X93807577Y20614609D01*
X93851315Y20561315D01*
X93904609Y20517577D01*
X93965413Y20485077D01*
X94031388Y20465064D01*
X94100000Y20458306D01*
X94762500Y20460000D01*
X94850000Y20547500D01*
X94850000Y21560000D01*
X95150000Y21560000D01*
X95150000Y20547500D01*
X95237500Y20460000D01*
X95900000Y20458306D01*
X95968612Y20465064D01*
X96034587Y20485077D01*
X96095391Y20517577D01*
X96148685Y20561315D01*
X96192423Y20614609D01*
X96224923Y20675413D01*
X96244936Y20741388D01*
X96251694Y20810000D01*
X96250000Y21472500D01*
X96162500Y21560000D01*
X95150000Y21560000D01*
X94850000Y21560000D01*
X93837500Y21560000D01*
X93750000Y21472500D01*
X93748306Y20810000D01*
X91751694Y20810000D01*
X91750000Y21472500D01*
X91662500Y21560000D01*
X90650000Y21560000D01*
X90350000Y21560000D01*
X89337500Y21560000D01*
X89250000Y21472500D01*
X89248306Y20810000D01*
X87251694Y20810000D01*
X87250000Y21472500D01*
X87162500Y21560000D01*
X86150000Y21560000D01*
X85850000Y21560000D01*
X84837500Y21560000D01*
X84750000Y21472500D01*
X84748306Y20810000D01*
X54210555Y20810000D01*
X54210555Y22610000D01*
X84748306Y22610000D01*
X84750000Y21947500D01*
X84837500Y21860000D01*
X85850000Y21860000D01*
X85850000Y22872500D01*
X86150000Y22872500D01*
X86150000Y21860000D01*
X87162500Y21860000D01*
X87250000Y21947500D01*
X87251694Y22610000D01*
X89248306Y22610000D01*
X89250000Y21947500D01*
X89337500Y21860000D01*
X90350000Y21860000D01*
X90350000Y22872500D01*
X90650000Y22872500D01*
X90650000Y21860000D01*
X91662500Y21860000D01*
X91750000Y21947500D01*
X91751694Y22610000D01*
X93748306Y22610000D01*
X93750000Y21947500D01*
X93837500Y21860000D01*
X94850000Y21860000D01*
X94850000Y22872500D01*
X95150000Y22872500D01*
X95150000Y21860000D01*
X96162500Y21860000D01*
X96250000Y21947500D01*
X96251694Y22610000D01*
X96244936Y22678612D01*
X96224923Y22744587D01*
X96192423Y22805391D01*
X96148685Y22858685D01*
X96095391Y22902423D01*
X96034587Y22934923D01*
X95968612Y22954936D01*
X95900000Y22961694D01*
X95237500Y22960000D01*
X95150000Y22872500D01*
X94850000Y22872500D01*
X94762500Y22960000D01*
X94100000Y22961694D01*
X94031388Y22954936D01*
X93965413Y22934923D01*
X93904609Y22902423D01*
X93851315Y22858685D01*
X93807577Y22805391D01*
X93775077Y22744587D01*
X93755064Y22678612D01*
X93748306Y22610000D01*
X91751694Y22610000D01*
X91744936Y22678612D01*
X91724923Y22744587D01*
X91692423Y22805391D01*
X91648685Y22858685D01*
X91595391Y22902423D01*
X91534587Y22934923D01*
X91468612Y22954936D01*
X91400000Y22961694D01*
X90737500Y22960000D01*
X90650000Y22872500D01*
X90350000Y22872500D01*
X90262500Y22960000D01*
X89600000Y22961694D01*
X89531388Y22954936D01*
X89465413Y22934923D01*
X89404609Y22902423D01*
X89351315Y22858685D01*
X89307577Y22805391D01*
X89275077Y22744587D01*
X89255064Y22678612D01*
X89248306Y22610000D01*
X87251694Y22610000D01*
X87244936Y22678612D01*
X87224923Y22744587D01*
X87192423Y22805391D01*
X87148685Y22858685D01*
X87095391Y22902423D01*
X87034587Y22934923D01*
X86968612Y22954936D01*
X86900000Y22961694D01*
X86237500Y22960000D01*
X86150000Y22872500D01*
X85850000Y22872500D01*
X85762500Y22960000D01*
X85100000Y22961694D01*
X85031388Y22954936D01*
X84965413Y22934923D01*
X84904609Y22902423D01*
X84851315Y22858685D01*
X84807577Y22805391D01*
X84775077Y22744587D01*
X84755064Y22678612D01*
X84748306Y22610000D01*
X54210555Y22610000D01*
X54210555Y24078919D01*
X54387328Y24078919D01*
X54391488Y24030265D01*
X54468248Y23890381D01*
X54570823Y23768160D01*
X54695271Y23668299D01*
X54836810Y23594635D01*
X54990000Y23550000D01*
X55390000Y23550000D01*
X55390000Y24200000D01*
X55690000Y24200000D01*
X55690000Y23550000D01*
X56090000Y23550000D01*
X56243190Y23594635D01*
X56384729Y23668299D01*
X56509177Y23768160D01*
X56611752Y23890381D01*
X56688512Y24030265D01*
X56692672Y24078919D01*
X57417328Y24078919D01*
X57421488Y24030265D01*
X57498248Y23890381D01*
X57600823Y23768160D01*
X57725271Y23668299D01*
X57866810Y23594635D01*
X58020000Y23550000D01*
X58770000Y23550000D01*
X58770000Y24200000D01*
X59070000Y24200000D01*
X59070000Y23550000D01*
X59820000Y23550000D01*
X59973190Y23594635D01*
X60114729Y23668299D01*
X60239177Y23768160D01*
X60341752Y23890381D01*
X60418512Y24030265D01*
X60422672Y24078919D01*
X60366532Y24200000D01*
X59070000Y24200000D01*
X58770000Y24200000D01*
X57473468Y24200000D01*
X57417328Y24078919D01*
X56692672Y24078919D01*
X56636532Y24200000D01*
X55690000Y24200000D01*
X55390000Y24200000D01*
X54443468Y24200000D01*
X54387328Y24078919D01*
X54210555Y24078919D01*
X54210555Y24368190D01*
X84800000Y24368190D01*
X84800000Y24131810D01*
X84846116Y23899973D01*
X84936574Y23681587D01*
X85067899Y23485045D01*
X85235045Y23317899D01*
X85431587Y23186574D01*
X85649973Y23096116D01*
X85881810Y23050000D01*
X86118190Y23050000D01*
X86350027Y23096116D01*
X86568413Y23186574D01*
X86764955Y23317899D01*
X86932101Y23485045D01*
X87063426Y23681587D01*
X87153884Y23899973D01*
X87200000Y24131810D01*
X87200000Y24368190D01*
X89300000Y24368190D01*
X89300000Y24131810D01*
X89346116Y23899973D01*
X89436574Y23681587D01*
X89567899Y23485045D01*
X89735045Y23317899D01*
X89931587Y23186574D01*
X90149973Y23096116D01*
X90381810Y23050000D01*
X90618190Y23050000D01*
X90850027Y23096116D01*
X91068413Y23186574D01*
X91264955Y23317899D01*
X91432101Y23485045D01*
X91563426Y23681587D01*
X91653884Y23899973D01*
X91700000Y24131810D01*
X91700000Y24368190D01*
X93800000Y24368190D01*
X93800000Y24131810D01*
X93846116Y23899973D01*
X93936574Y23681587D01*
X94067899Y23485045D01*
X94235045Y23317899D01*
X94431587Y23186574D01*
X94649973Y23096116D01*
X94881810Y23050000D01*
X95118190Y23050000D01*
X95350027Y23096116D01*
X95568413Y23186574D01*
X95764955Y23317899D01*
X95932101Y23485045D01*
X96063426Y23681587D01*
X96153884Y23899973D01*
X96199338Y24128484D01*
X112167328Y24128484D01*
X112230474Y23940814D01*
X112350761Y23747893D01*
X112506374Y23582145D01*
X112691332Y23449941D01*
X112898528Y23356360D01*
X113120000Y23305000D01*
X113920000Y23305000D01*
X113920000Y24305000D01*
X114220000Y24305000D01*
X114220000Y23305000D01*
X115020000Y23305000D01*
X115241472Y23356360D01*
X115448668Y23449941D01*
X115633626Y23582145D01*
X115789239Y23747893D01*
X115909526Y23940814D01*
X115972672Y24128484D01*
X118967328Y24128484D01*
X119030474Y23940814D01*
X119150761Y23747893D01*
X119306374Y23582145D01*
X119491332Y23449941D01*
X119698528Y23356360D01*
X119920000Y23305000D01*
X120720000Y23305000D01*
X120720000Y24305000D01*
X119018142Y24305000D01*
X118967328Y24128484D01*
X115972672Y24128484D01*
X115921858Y24305000D01*
X114220000Y24305000D01*
X113920000Y24305000D01*
X112218142Y24305000D01*
X112167328Y24128484D01*
X96199338Y24128484D01*
X96200000Y24131810D01*
X96200000Y24368190D01*
X96153884Y24600027D01*
X96063426Y24818413D01*
X95932101Y25014955D01*
X95764955Y25182101D01*
X95568413Y25313426D01*
X95350027Y25403884D01*
X95118190Y25450000D01*
X94881810Y25450000D01*
X94649973Y25403884D01*
X94431587Y25313426D01*
X94235045Y25182101D01*
X94067899Y25014955D01*
X93936574Y24818413D01*
X93846116Y24600027D01*
X93800000Y24368190D01*
X91700000Y24368190D01*
X91653884Y24600027D01*
X91563426Y24818413D01*
X91432101Y25014955D01*
X91264955Y25182101D01*
X91068413Y25313426D01*
X90850027Y25403884D01*
X90618190Y25450000D01*
X90381810Y25450000D01*
X90149973Y25403884D01*
X89931587Y25313426D01*
X89735045Y25182101D01*
X89567899Y25014955D01*
X89436574Y24818413D01*
X89346116Y24600027D01*
X89300000Y24368190D01*
X87200000Y24368190D01*
X87153884Y24600027D01*
X87063426Y24818413D01*
X86932101Y25014955D01*
X86764955Y25182101D01*
X86568413Y25313426D01*
X86350027Y25403884D01*
X86118190Y25450000D01*
X85881810Y25450000D01*
X85649973Y25403884D01*
X85431587Y25313426D01*
X85235045Y25182101D01*
X85067899Y25014955D01*
X84936574Y24818413D01*
X84846116Y24600027D01*
X84800000Y24368190D01*
X54210555Y24368190D01*
X54210555Y24621081D01*
X54387328Y24621081D01*
X54443468Y24500000D01*
X55390000Y24500000D01*
X55390000Y25150000D01*
X55690000Y25150000D01*
X55690000Y24500000D01*
X56636532Y24500000D01*
X56692672Y24621081D01*
X57417328Y24621081D01*
X57473468Y24500000D01*
X58770000Y24500000D01*
X58770000Y25034704D01*
X58805657Y25044719D01*
X58832578Y25055870D01*
X58860032Y25150000D01*
X59070000Y25150000D01*
X59070000Y24500000D01*
X60366532Y24500000D01*
X60422672Y24621081D01*
X60418512Y24669735D01*
X60341752Y24809619D01*
X60239177Y24931840D01*
X60114729Y25031701D01*
X60112829Y25032690D01*
X60155657Y25044719D01*
X60182578Y25055870D01*
X60198764Y25111366D01*
X67393498Y25111366D01*
X67519491Y24919345D01*
X67779469Y24801052D01*
X68057529Y24735752D01*
X68342986Y24725954D01*
X68624870Y24772033D01*
X68892347Y24872220D01*
X68980509Y24919345D01*
X69106502Y25111366D01*
X68250000Y25967868D01*
X67393498Y25111366D01*
X60198764Y25111366D01*
X60216318Y25171550D01*
X59900000Y25487868D01*
X59583682Y25171550D01*
X59589967Y25150000D01*
X59070000Y25150000D01*
X58860032Y25150000D01*
X58866318Y25171550D01*
X58550000Y25487868D01*
X58233682Y25171550D01*
X58239967Y25150000D01*
X58020000Y25150000D01*
X57866810Y25105365D01*
X57725271Y25031701D01*
X57600823Y24931840D01*
X57498248Y24809619D01*
X57421488Y24669735D01*
X57417328Y24621081D01*
X56692672Y24621081D01*
X56688512Y24669735D01*
X56611752Y24809619D01*
X56509177Y24931840D01*
X56384729Y25031701D01*
X56243190Y25105365D01*
X56090000Y25150000D01*
X55690000Y25150000D01*
X55390000Y25150000D01*
X54990000Y25150000D01*
X54836810Y25105365D01*
X54695271Y25031701D01*
X54570823Y24931840D01*
X54468248Y24809619D01*
X54391488Y24669735D01*
X54387328Y24621081D01*
X54210555Y24621081D01*
X54210555Y32728919D01*
X54387328Y32728919D01*
X54391488Y32680265D01*
X54468248Y32540381D01*
X54570823Y32418160D01*
X54695271Y32318299D01*
X54836810Y32244635D01*
X54990000Y32200000D01*
X55390000Y32200000D01*
X55390000Y32850000D01*
X55690000Y32850000D01*
X55690000Y32200000D01*
X56090000Y32200000D01*
X56243190Y32244635D01*
X56384729Y32318299D01*
X56509177Y32418160D01*
X56611752Y32540381D01*
X56688512Y32680265D01*
X56692672Y32728919D01*
X56636532Y32850000D01*
X55690000Y32850000D01*
X55390000Y32850000D01*
X54443468Y32850000D01*
X54387328Y32728919D01*
X54210555Y32728919D01*
X54210555Y33271081D01*
X54387328Y33271081D01*
X54443468Y33150000D01*
X55390000Y33150000D01*
X55390000Y33800000D01*
X55690000Y33800000D01*
X55690000Y33150000D01*
X56636532Y33150000D01*
X56692672Y33271081D01*
X56688512Y33319735D01*
X56611752Y33459619D01*
X56509177Y33581840D01*
X56384729Y33681701D01*
X56243190Y33755365D01*
X56090000Y33800000D01*
X55690000Y33800000D01*
X55390000Y33800000D01*
X54990000Y33800000D01*
X54836810Y33755365D01*
X54695271Y33681701D01*
X54570823Y33581840D01*
X54468248Y33459619D01*
X54391488Y33319735D01*
X54387328Y33271081D01*
X54210555Y33271081D01*
X54210555Y34000000D01*
X56822945Y34000000D01*
X56825000Y33979133D01*
X56825001Y28020877D01*
X56822945Y28000000D01*
X56831150Y27916686D01*
X56855453Y27836573D01*
X56894917Y27762740D01*
X56948027Y27698026D01*
X56964239Y27684721D01*
X57534721Y27114238D01*
X57548026Y27098026D01*
X57612740Y27044916D01*
X57686573Y27005452D01*
X57742383Y26988522D01*
X57766685Y26981150D01*
X57775098Y26980321D01*
X57829126Y26975000D01*
X57829132Y26975000D01*
X57849999Y26972945D01*
X57870866Y26975000D01*
X58055761Y26975000D01*
X58045112Y26964351D01*
X57973978Y26857890D01*
X57924979Y26739598D01*
X57900000Y26614019D01*
X57900000Y26485981D01*
X57924979Y26360402D01*
X57973978Y26242110D01*
X58023676Y26167731D01*
X57946905Y26090960D01*
X58021548Y26016317D01*
X57905870Y25982578D01*
X57863119Y25851484D01*
X57846764Y25714569D01*
X57857434Y25577095D01*
X57894719Y25444343D01*
X57905870Y25417422D01*
X58021550Y25383682D01*
X58337868Y25700000D01*
X58323726Y25714143D01*
X58509583Y25900000D01*
X58590417Y25900000D01*
X58776275Y25714143D01*
X58762132Y25700000D01*
X59078450Y25383682D01*
X59194130Y25417422D01*
X59225372Y25513226D01*
X59244719Y25444343D01*
X59255870Y25417422D01*
X59371550Y25383682D01*
X59687868Y25700000D01*
X59673726Y25714143D01*
X59859583Y25900000D01*
X59940417Y25900000D01*
X60126275Y25714143D01*
X60112132Y25700000D01*
X60428450Y25383682D01*
X60544130Y25417422D01*
X60586881Y25548516D01*
X60603236Y25685431D01*
X60592566Y25822905D01*
X60555281Y25955657D01*
X60544130Y25982578D01*
X60428452Y26016317D01*
X60499149Y26087014D01*
X66795954Y26087014D01*
X66842033Y25805130D01*
X66942220Y25537653D01*
X66989345Y25449491D01*
X67181366Y25323498D01*
X68037868Y26180000D01*
X68462132Y26180000D01*
X69318634Y25323498D01*
X69510655Y25449491D01*
X69628948Y25709469D01*
X69694248Y25987529D01*
X69704046Y26272986D01*
X69696706Y26317888D01*
X71850000Y26317888D01*
X71850000Y26042112D01*
X71903801Y25771635D01*
X72009336Y25516851D01*
X72162549Y25287552D01*
X72357552Y25092549D01*
X72586851Y24939336D01*
X72841635Y24833801D01*
X73112112Y24780000D01*
X73387888Y24780000D01*
X73658365Y24833801D01*
X73913149Y24939336D01*
X74142448Y25092549D01*
X74337451Y25287552D01*
X74490664Y25516851D01*
X74596199Y25771635D01*
X74650000Y26042112D01*
X74650000Y26317888D01*
X74596199Y26588365D01*
X74490664Y26843149D01*
X74337451Y27072448D01*
X74142448Y27267451D01*
X73913149Y27420664D01*
X73658365Y27526199D01*
X73387888Y27580000D01*
X73112112Y27580000D01*
X72841635Y27526199D01*
X72586851Y27420664D01*
X72357552Y27267451D01*
X72162549Y27072448D01*
X72009336Y26843149D01*
X71903801Y26588365D01*
X71850000Y26317888D01*
X69696706Y26317888D01*
X69657967Y26554870D01*
X69557780Y26822347D01*
X69510655Y26910509D01*
X69318634Y27036502D01*
X68462132Y26180000D01*
X68037868Y26180000D01*
X67181366Y27036502D01*
X66989345Y26910509D01*
X66871052Y26650531D01*
X66805752Y26372471D01*
X66795954Y26087014D01*
X60499149Y26087014D01*
X60503095Y26090960D01*
X60426324Y26167731D01*
X60476022Y26242110D01*
X60525021Y26360402D01*
X60550000Y26485981D01*
X60550000Y26614019D01*
X60525021Y26739598D01*
X60476022Y26857890D01*
X60404888Y26964351D01*
X60394239Y26975000D01*
X60404888Y26985649D01*
X60476022Y27092110D01*
X60525021Y27210402D01*
X60532625Y27248634D01*
X67393498Y27248634D01*
X68250000Y26392132D01*
X69106502Y27248634D01*
X68980509Y27440655D01*
X68720531Y27558948D01*
X68442471Y27624248D01*
X68157014Y27634046D01*
X67875130Y27587967D01*
X67607653Y27487780D01*
X67519491Y27440655D01*
X67393498Y27248634D01*
X60532625Y27248634D01*
X60550000Y27335981D01*
X60550000Y27464019D01*
X60525021Y27589598D01*
X60476022Y27707890D01*
X60404888Y27814351D01*
X60394239Y27825000D01*
X60404888Y27835649D01*
X60476022Y27942110D01*
X60525021Y28060402D01*
X60550000Y28185981D01*
X60550000Y28314019D01*
X60525021Y28439598D01*
X60476022Y28557890D01*
X60404888Y28664351D01*
X60394239Y28675000D01*
X60404888Y28685649D01*
X60476022Y28792110D01*
X60525021Y28910402D01*
X60550000Y29035981D01*
X60550000Y29164019D01*
X60525021Y29289598D01*
X60476022Y29407890D01*
X60404888Y29514351D01*
X60394239Y29525000D01*
X60679133Y29525000D01*
X60700000Y29522945D01*
X60720867Y29525000D01*
X60720874Y29525000D01*
X60783314Y29531150D01*
X60863427Y29555452D01*
X60937260Y29594916D01*
X61001974Y29648026D01*
X61015284Y29664244D01*
X61462406Y30111366D01*
X67393498Y30111366D01*
X67519491Y29919345D01*
X67779469Y29801052D01*
X68057529Y29735752D01*
X68342986Y29725954D01*
X68624870Y29772033D01*
X68892347Y29872220D01*
X68980509Y29919345D01*
X69106502Y30111366D01*
X68250000Y30967868D01*
X67393498Y30111366D01*
X61462406Y30111366D01*
X62438054Y31087014D01*
X66795954Y31087014D01*
X66842033Y30805130D01*
X66942220Y30537653D01*
X66989345Y30449491D01*
X67181366Y30323498D01*
X68037868Y31180000D01*
X67181366Y32036502D01*
X66989345Y31910509D01*
X66871052Y31650531D01*
X66805752Y31372471D01*
X66795954Y31087014D01*
X62438054Y31087014D01*
X66426041Y35075000D01*
X73473960Y35075000D01*
X71323960Y32925000D01*
X70173528Y32925000D01*
X70132478Y32966050D01*
X70034207Y33031713D01*
X69925014Y33076942D01*
X69809095Y33100000D01*
X69690905Y33100000D01*
X69574986Y33076942D01*
X69465793Y33031713D01*
X69367522Y32966050D01*
X69283950Y32882478D01*
X69218287Y32784207D01*
X69173058Y32675014D01*
X69150000Y32559095D01*
X69150000Y32440905D01*
X69173058Y32324986D01*
X69178854Y32310993D01*
X69173856Y32315991D01*
X69106501Y32248636D01*
X68980509Y32440655D01*
X68720531Y32558948D01*
X68442471Y32624248D01*
X68157014Y32634046D01*
X67875130Y32587967D01*
X67607653Y32487780D01*
X67519491Y32440655D01*
X67393498Y32248634D01*
X68250000Y31392132D01*
X68264143Y31406275D01*
X68476275Y31194143D01*
X68462132Y31180000D01*
X69318634Y30323498D01*
X69510655Y30449491D01*
X69628948Y30709469D01*
X69694248Y30987529D01*
X69704046Y31272986D01*
X69696706Y31317888D01*
X71850000Y31317888D01*
X71850000Y31042112D01*
X71903801Y30771635D01*
X72009336Y30516851D01*
X72162549Y30287552D01*
X72357552Y30092549D01*
X72586851Y29939336D01*
X72841635Y29833801D01*
X73112112Y29780000D01*
X73387888Y29780000D01*
X73658365Y29833801D01*
X73913149Y29939336D01*
X74142448Y30092549D01*
X74337451Y30287552D01*
X74490664Y30516851D01*
X74596199Y30771635D01*
X74606814Y30825000D01*
X78321824Y30825000D01*
X78378599Y30740030D01*
X78490030Y30628599D01*
X78621058Y30541049D01*
X78766649Y30480743D01*
X78921207Y30450000D01*
X79078793Y30450000D01*
X79233351Y30480743D01*
X79378942Y30541049D01*
X79509970Y30628599D01*
X79621401Y30740030D01*
X79708951Y30871058D01*
X79769257Y31016649D01*
X79800000Y31171207D01*
X79800000Y31328793D01*
X79769257Y31483351D01*
X79708951Y31628942D01*
X79621401Y31759970D01*
X79509970Y31871401D01*
X79378942Y31958951D01*
X79233351Y32019257D01*
X79078793Y32050000D01*
X78921207Y32050000D01*
X78766649Y32019257D01*
X78621058Y31958951D01*
X78490030Y31871401D01*
X78378599Y31759970D01*
X78321824Y31675000D01*
X74560314Y31675000D01*
X74490664Y31843149D01*
X74337451Y32072448D01*
X74142448Y32267451D01*
X73913149Y32420664D01*
X73658365Y32526199D01*
X73387888Y32580000D01*
X73112112Y32580000D01*
X72841635Y32526199D01*
X72586851Y32420664D01*
X72357552Y32267451D01*
X72162549Y32072448D01*
X72009336Y31843149D01*
X71903801Y31588365D01*
X71850000Y31317888D01*
X69696706Y31317888D01*
X69657967Y31554870D01*
X69557780Y31822347D01*
X69510655Y31910509D01*
X69318636Y32036501D01*
X69341804Y32059669D01*
X69367522Y32033950D01*
X69465793Y31968287D01*
X69574986Y31923058D01*
X69690905Y31900000D01*
X69809095Y31900000D01*
X69925014Y31923058D01*
X70034207Y31968287D01*
X70132478Y32033950D01*
X70173528Y32075000D01*
X71479133Y32075000D01*
X71500000Y32072945D01*
X71520867Y32075000D01*
X71520874Y32075000D01*
X71583314Y32081150D01*
X71663427Y32105452D01*
X71737260Y32144916D01*
X71801974Y32198026D01*
X71815284Y32214244D01*
X72703885Y33102845D01*
X78356250Y33102845D01*
X78356250Y32984655D01*
X78379308Y32868736D01*
X78424537Y32759543D01*
X78490200Y32661272D01*
X78573772Y32577700D01*
X78672043Y32512037D01*
X78781236Y32466808D01*
X78897155Y32443750D01*
X78955210Y32443750D01*
X79184716Y32214244D01*
X79198026Y32198026D01*
X79262740Y32144916D01*
X79336573Y32105452D01*
X79416686Y32081150D01*
X79479126Y32075000D01*
X79479133Y32075000D01*
X79500000Y32072945D01*
X79520867Y32075000D01*
X84249982Y32075000D01*
X84212761Y32055105D01*
X84171876Y32021551D01*
X84169081Y32019257D01*
X84148047Y32001995D01*
X84134742Y31985783D01*
X81248960Y29100000D01*
X81190905Y29100000D01*
X81074986Y29076942D01*
X80965793Y29031713D01*
X80867522Y28966050D01*
X80783950Y28882478D01*
X80718287Y28784207D01*
X80673058Y28675014D01*
X80650000Y28559095D01*
X80650000Y28440905D01*
X80673058Y28324986D01*
X80718287Y28215793D01*
X80783950Y28117522D01*
X80867522Y28033950D01*
X80965793Y27968287D01*
X81074986Y27923058D01*
X81190905Y27900000D01*
X81309095Y27900000D01*
X81425014Y27923058D01*
X81534207Y27968287D01*
X81632478Y28033950D01*
X81716050Y28117522D01*
X81750000Y28168331D01*
X81783950Y28117522D01*
X81867522Y28033950D01*
X81965793Y27968287D01*
X82074986Y27923058D01*
X82190905Y27900000D01*
X82309095Y27900000D01*
X82425014Y27923058D01*
X82534207Y27968287D01*
X82632478Y28033950D01*
X82716050Y28117522D01*
X82781713Y28215793D01*
X82826942Y28324986D01*
X82850000Y28440905D01*
X82850000Y28498960D01*
X84565280Y30214239D01*
X84565285Y30214245D01*
X84676040Y30325000D01*
X88076472Y30325000D01*
X88117522Y30283950D01*
X88215793Y30218287D01*
X88324986Y30173058D01*
X88440905Y30150000D01*
X88559095Y30150000D01*
X88675014Y30173058D01*
X88784207Y30218287D01*
X88882478Y30283950D01*
X88966050Y30367522D01*
X89031713Y30465793D01*
X89076942Y30574986D01*
X89100000Y30690905D01*
X89100000Y30809095D01*
X89076942Y30925014D01*
X89031713Y31034207D01*
X88966050Y31132478D01*
X88882478Y31216050D01*
X88794222Y31275021D01*
X88876451Y31275021D01*
X88917501Y31233971D01*
X89015772Y31168308D01*
X89124965Y31123079D01*
X89240884Y31100021D01*
X89359074Y31100021D01*
X89474993Y31123079D01*
X89584186Y31168308D01*
X89682457Y31233971D01*
X89766029Y31317543D01*
X89831692Y31415814D01*
X89876921Y31525007D01*
X89899979Y31640926D01*
X89899979Y31759116D01*
X89876921Y31875035D01*
X89831692Y31984228D01*
X89771040Y32075000D01*
X89826472Y32075000D01*
X89867522Y32033950D01*
X89965793Y31968287D01*
X90074986Y31923058D01*
X90190905Y31900000D01*
X90309095Y31900000D01*
X90425014Y31923058D01*
X90534207Y31968287D01*
X90632478Y32033950D01*
X90716050Y32117522D01*
X90781713Y32215793D01*
X90826942Y32324986D01*
X90850000Y32440905D01*
X90850000Y32559095D01*
X90826942Y32675014D01*
X90781713Y32784207D01*
X90716050Y32882478D01*
X90632478Y32966050D01*
X90534207Y33031713D01*
X90425014Y33076942D01*
X90309095Y33100000D01*
X90190905Y33100000D01*
X90074986Y33076942D01*
X89965793Y33031713D01*
X89867522Y32966050D01*
X89826472Y32925000D01*
X89254456Y32925000D01*
X89281713Y32965793D01*
X89326942Y33074986D01*
X89350000Y33190905D01*
X89350000Y33309095D01*
X89326942Y33425014D01*
X89281713Y33534207D01*
X89216050Y33632478D01*
X89132478Y33716050D01*
X89034207Y33781713D01*
X88925014Y33826942D01*
X88809095Y33850000D01*
X88751041Y33850000D01*
X88526040Y34075000D01*
X92576472Y34075000D01*
X92617522Y34033950D01*
X92715793Y33968287D01*
X92822887Y33923927D01*
X90248960Y31350000D01*
X90190905Y31350000D01*
X90074986Y31326942D01*
X89965793Y31281713D01*
X89867522Y31216050D01*
X89783950Y31132478D01*
X89718287Y31034207D01*
X89673058Y30925014D01*
X89650000Y30809095D01*
X89650000Y30690905D01*
X89673058Y30574986D01*
X89718287Y30465793D01*
X89783950Y30367522D01*
X89867522Y30283950D01*
X89965793Y30218287D01*
X90074986Y30173058D01*
X90190905Y30150000D01*
X90309095Y30150000D01*
X90425014Y30173058D01*
X90534207Y30218287D01*
X90632478Y30283950D01*
X90716050Y30367522D01*
X90781713Y30465793D01*
X90826942Y30574986D01*
X90850000Y30690905D01*
X90850000Y30748960D01*
X92325001Y32223961D01*
X92325000Y31173528D01*
X92283950Y31132478D01*
X92218287Y31034207D01*
X92173058Y30925014D01*
X92150000Y30809095D01*
X92150000Y30690905D01*
X92173058Y30574986D01*
X92218287Y30465793D01*
X92283950Y30367522D01*
X92367522Y30283950D01*
X92465793Y30218287D01*
X92574986Y30173058D01*
X92690905Y30150000D01*
X92809095Y30150000D01*
X92925014Y30173058D01*
X93034207Y30218287D01*
X93132478Y30283950D01*
X93216050Y30367522D01*
X93281713Y30465793D01*
X93326942Y30574986D01*
X93350000Y30690905D01*
X93350000Y30809095D01*
X93326942Y30925014D01*
X93281713Y31034207D01*
X93216050Y31132478D01*
X93175000Y31173528D01*
X93175000Y32073960D01*
X94332556Y33231516D01*
X112167328Y33231516D01*
X112218142Y33055000D01*
X113920000Y33055000D01*
X113920000Y34055000D01*
X114220000Y34055000D01*
X114220000Y33055000D01*
X115921858Y33055000D01*
X115972672Y33231516D01*
X118967328Y33231516D01*
X119018142Y33055000D01*
X120720000Y33055000D01*
X120720000Y34055000D01*
X119920000Y34055000D01*
X119698528Y34003640D01*
X119491332Y33910059D01*
X119306374Y33777855D01*
X119150761Y33612107D01*
X119030474Y33419186D01*
X118967328Y33231516D01*
X115972672Y33231516D01*
X115909526Y33419186D01*
X115789239Y33612107D01*
X115633626Y33777855D01*
X115448668Y33910059D01*
X115241472Y34003640D01*
X115020000Y34055000D01*
X114220000Y34055000D01*
X113920000Y34055000D01*
X113120000Y34055000D01*
X112898528Y34003640D01*
X112691332Y33910059D01*
X112506374Y33777855D01*
X112350761Y33612107D01*
X112230474Y33419186D01*
X112167328Y33231516D01*
X94332556Y33231516D01*
X97676041Y36575000D01*
X101576472Y36575000D01*
X101617522Y36533950D01*
X101715793Y36468287D01*
X101824986Y36423058D01*
X101940905Y36400000D01*
X102059095Y36400000D01*
X102175014Y36423058D01*
X102284207Y36468287D01*
X102382478Y36533950D01*
X102466050Y36617522D01*
X102531713Y36715793D01*
X102576942Y36824986D01*
X102600000Y36940905D01*
X102600000Y37059095D01*
X102576942Y37175014D01*
X102531713Y37284207D01*
X102466050Y37382478D01*
X102382478Y37466050D01*
X102284207Y37531713D01*
X102175014Y37576942D01*
X102059095Y37600000D01*
X101940905Y37600000D01*
X101824986Y37576942D01*
X101715793Y37531713D01*
X101617522Y37466050D01*
X101576472Y37425000D01*
X97526041Y37425000D01*
X98785763Y38684722D01*
X98801974Y38698026D01*
X98855084Y38762740D01*
X98894548Y38836573D01*
X98918850Y38916686D01*
X98925000Y38979126D01*
X98925000Y38979133D01*
X98927055Y39000000D01*
X98925000Y39020867D01*
X98925000Y42729133D01*
X98927055Y42750000D01*
X98925000Y42770867D01*
X98925000Y42770874D01*
X98918850Y42833314D01*
X98894548Y42913427D01*
X98894548Y42913428D01*
X98876055Y42948026D01*
X98855084Y42987260D01*
X98801974Y43051974D01*
X98785762Y43065279D01*
X98315283Y43535757D01*
X98301974Y43551974D01*
X98237260Y43605084D01*
X98163427Y43644548D01*
X98083314Y43668850D01*
X98020874Y43675000D01*
X98020867Y43675000D01*
X98000000Y43677055D01*
X97979133Y43675000D01*
X96520866Y43675000D01*
X96499999Y43677055D01*
X96479132Y43675000D01*
X96479126Y43675000D01*
X96425098Y43669679D01*
X96416685Y43668850D01*
X96392383Y43661478D01*
X96336573Y43644548D01*
X96262740Y43605084D01*
X96198026Y43551974D01*
X96184721Y43535762D01*
X95814243Y43165283D01*
X95798026Y43151974D01*
X95744916Y43087259D01*
X95705452Y43013426D01*
X95688368Y42957108D01*
X95590030Y42891401D01*
X95478599Y42779970D01*
X95465000Y42759618D01*
X95451401Y42779970D01*
X95339970Y42891401D01*
X95208942Y42978951D01*
X95063351Y43039257D01*
X94908793Y43070000D01*
X94751207Y43070000D01*
X94596649Y43039257D01*
X94451058Y42978951D01*
X94320030Y42891401D01*
X94208599Y42779970D01*
X94195000Y42759618D01*
X94181401Y42779970D01*
X94069970Y42891401D01*
X93938942Y42978951D01*
X93793351Y43039257D01*
X93638793Y43070000D01*
X93481207Y43070000D01*
X93326649Y43039257D01*
X93181058Y42978951D01*
X93050030Y42891401D01*
X92938599Y42779970D01*
X92925000Y42759618D01*
X92911401Y42779970D01*
X92799970Y42891401D01*
X92668942Y42978951D01*
X92523351Y43039257D01*
X92368793Y43070000D01*
X92211207Y43070000D01*
X92056649Y43039257D01*
X91911058Y42978951D01*
X91780030Y42891401D01*
X91668599Y42779970D01*
X91655000Y42759618D01*
X91641401Y42779970D01*
X91529970Y42891401D01*
X91398942Y42978951D01*
X91253351Y43039257D01*
X91098793Y43070000D01*
X90941207Y43070000D01*
X90786649Y43039257D01*
X90641058Y42978951D01*
X90510030Y42891401D01*
X90398599Y42779970D01*
X90385000Y42759618D01*
X90371401Y42779970D01*
X90259970Y42891401D01*
X90128942Y42978951D01*
X89983351Y43039257D01*
X89828793Y43070000D01*
X89671207Y43070000D01*
X89516649Y43039257D01*
X89371058Y42978951D01*
X89240030Y42891401D01*
X89128599Y42779970D01*
X89041049Y42648942D01*
X88980743Y42503351D01*
X88950000Y42348793D01*
X88950000Y42191207D01*
X88980743Y42036649D01*
X89041049Y41891058D01*
X89121093Y41771263D01*
X89082523Y41750647D01*
X89036842Y41713158D01*
X88999353Y41667477D01*
X88971496Y41615360D01*
X88954341Y41558810D01*
X88948549Y41500000D01*
X88948549Y40500000D01*
X88954341Y40441190D01*
X88971496Y40384640D01*
X88999353Y40332523D01*
X89036842Y40286842D01*
X89082523Y40249353D01*
X89134640Y40221496D01*
X89191190Y40204341D01*
X89250000Y40198549D01*
X90250000Y40198549D01*
X90308810Y40204341D01*
X90365360Y40221496D01*
X90417477Y40249353D01*
X90463158Y40286842D01*
X90500647Y40332523D01*
X90521263Y40371093D01*
X90595000Y40321824D01*
X90595000Y40313767D01*
X90595001Y39675000D01*
X88426040Y39675000D01*
X87675000Y40426040D01*
X87675000Y43866790D01*
X99337118Y43866790D01*
X99337118Y43490404D01*
X99410548Y43121250D01*
X99554584Y42773515D01*
X99763693Y42460562D01*
X100029838Y42194417D01*
X100342791Y41985308D01*
X100690526Y41841272D01*
X101059680Y41767842D01*
X101436066Y41767842D01*
X101805220Y41841272D01*
X102152955Y41985308D01*
X102465908Y42194417D01*
X102732053Y42460562D01*
X102941162Y42773515D01*
X103085198Y43121250D01*
X103158628Y43490404D01*
X103158628Y43866790D01*
X103085198Y44235944D01*
X102941162Y44583679D01*
X102732053Y44896632D01*
X102465908Y45162777D01*
X102152955Y45371886D01*
X101805220Y45515922D01*
X101436066Y45589352D01*
X101059680Y45589352D01*
X100690526Y45515922D01*
X100342791Y45371886D01*
X100029838Y45162777D01*
X99763693Y44896632D01*
X99554584Y44583679D01*
X99410548Y44235944D01*
X99337118Y43866790D01*
X87675000Y43866790D01*
X87675000Y44979149D01*
X87677055Y45000016D01*
X87675000Y45020883D01*
X87675000Y45020890D01*
X87668850Y45083330D01*
X87644548Y45163443D01*
X87644548Y45163444D01*
X87616558Y45215809D01*
X87605084Y45237276D01*
X87551974Y45301990D01*
X87535762Y45315295D01*
X87350000Y45501057D01*
X87350000Y45559111D01*
X87326942Y45675030D01*
X87281713Y45784223D01*
X87216050Y45882494D01*
X87132478Y45966066D01*
X87034207Y46031729D01*
X86925014Y46076958D01*
X86809095Y46100016D01*
X86690905Y46100016D01*
X86574986Y46076958D01*
X86465793Y46031729D01*
X86367522Y45966066D01*
X86283950Y45882494D01*
X86218287Y45784223D01*
X86173058Y45675030D01*
X86150000Y45559111D01*
X86150000Y45440921D01*
X86173058Y45325002D01*
X86218287Y45215809D01*
X86283950Y45117538D01*
X86367522Y45033966D01*
X86465793Y44968303D01*
X86574986Y44923074D01*
X86690905Y44900016D01*
X86748959Y44900016D01*
X86825001Y44823974D01*
X86825000Y40270867D01*
X86822945Y40250000D01*
X86825000Y40229133D01*
X86825000Y40229127D01*
X86831150Y40166687D01*
X86855452Y40086574D01*
X86894916Y40012741D01*
X86948026Y39948026D01*
X86964244Y39934716D01*
X87934716Y38964244D01*
X87948026Y38948026D01*
X88012740Y38894916D01*
X88086573Y38855452D01*
X88166686Y38831150D01*
X88250000Y38822944D01*
X88270874Y38825000D01*
X90823960Y38825000D01*
X92434719Y37214240D01*
X92448026Y37198026D01*
X92512740Y37144916D01*
X92586573Y37105452D01*
X92642383Y37088522D01*
X92666685Y37081150D01*
X92675098Y37080321D01*
X92729126Y37075000D01*
X92729132Y37075000D01*
X92749999Y37072945D01*
X92770866Y37075000D01*
X94076472Y37075000D01*
X94117522Y37033950D01*
X94215793Y36968287D01*
X94324986Y36923058D01*
X94440905Y36900000D01*
X94559095Y36900000D01*
X94675014Y36923058D01*
X94784207Y36968287D01*
X94882478Y37033950D01*
X94966050Y37117522D01*
X95031713Y37215793D01*
X95076942Y37324986D01*
X95100000Y37440905D01*
X95100000Y37559095D01*
X95076942Y37675014D01*
X95031713Y37784207D01*
X94966050Y37882478D01*
X94882478Y37966050D01*
X94784207Y38031713D01*
X94675014Y38076942D01*
X94559095Y38100000D01*
X94440905Y38100000D01*
X94324986Y38076942D01*
X94215793Y38031713D01*
X94117522Y37966050D01*
X94076472Y37925000D01*
X92926041Y37925000D01*
X91445000Y39406040D01*
X91445000Y40321824D01*
X91529970Y40378599D01*
X91626071Y40474700D01*
X91654996Y40434946D01*
X91777434Y40321920D01*
X91919570Y40234952D01*
X92010964Y40197106D01*
X92140000Y40252400D01*
X92140000Y40850000D01*
X92440000Y40850000D01*
X92440000Y40252400D01*
X92569036Y40197106D01*
X92660430Y40234952D01*
X92802566Y40321920D01*
X92925000Y40434942D01*
X93047434Y40321920D01*
X93189570Y40234952D01*
X93280964Y40197106D01*
X93410000Y40252400D01*
X93410000Y40850000D01*
X92440000Y40850000D01*
X92140000Y40850000D01*
X92120000Y40850000D01*
X92120000Y41150000D01*
X92140000Y41150000D01*
X92140000Y41170000D01*
X92440000Y41170000D01*
X92440000Y41150000D01*
X93410000Y41150000D01*
X93410000Y41170000D01*
X93710000Y41170000D01*
X93710000Y41150000D01*
X93730000Y41150000D01*
X93730000Y40850000D01*
X93710000Y40850000D01*
X93710000Y40252400D01*
X93839036Y40197106D01*
X93930430Y40234952D01*
X94072566Y40321920D01*
X94195004Y40434946D01*
X94223929Y40474700D01*
X94320030Y40378599D01*
X94451058Y40291049D01*
X94596649Y40230743D01*
X94751207Y40200000D01*
X94908793Y40200000D01*
X95063351Y40230743D01*
X95208942Y40291049D01*
X95339970Y40378599D01*
X95436071Y40474700D01*
X95464996Y40434946D01*
X95587434Y40321920D01*
X95729570Y40234952D01*
X95820964Y40197106D01*
X95950000Y40252400D01*
X95950000Y40850000D01*
X95930000Y40850000D01*
X95930000Y41150000D01*
X95950000Y41150000D01*
X95950000Y41170000D01*
X96250000Y41170000D01*
X96250000Y41150000D01*
X96270000Y41150000D01*
X96270000Y40850000D01*
X96250000Y40850000D01*
X96250000Y40252400D01*
X96379036Y40197106D01*
X96470430Y40234952D01*
X96612566Y40321920D01*
X96735004Y40434946D01*
X96763929Y40474700D01*
X96860030Y40378599D01*
X96991058Y40291049D01*
X97136649Y40230743D01*
X97291207Y40200000D01*
X97448793Y40200000D01*
X97603351Y40230743D01*
X97748942Y40291049D01*
X97879970Y40378599D01*
X97991401Y40490030D01*
X98075000Y40615146D01*
X98075000Y39176041D01*
X93576073Y34677113D01*
X93531713Y34784207D01*
X93466050Y34882478D01*
X93382478Y34966050D01*
X93284207Y35031713D01*
X93175014Y35076942D01*
X93059095Y35100000D01*
X92940905Y35100000D01*
X92824986Y35076942D01*
X92715793Y35031713D01*
X92617522Y34966050D01*
X92576472Y34925000D01*
X85676041Y34925000D01*
X82315283Y38285757D01*
X82301974Y38301974D01*
X82237260Y38355084D01*
X82163427Y38394548D01*
X82083314Y38418850D01*
X82020874Y38425000D01*
X82020867Y38425000D01*
X82000000Y38427055D01*
X81979133Y38425000D01*
X80423528Y38425000D01*
X80382478Y38466050D01*
X80284207Y38531713D01*
X80175014Y38576942D01*
X80059095Y38600000D01*
X79940905Y38600000D01*
X79824986Y38576942D01*
X79715793Y38531713D01*
X79617522Y38466050D01*
X79533950Y38382478D01*
X79468287Y38284207D01*
X79423058Y38175014D01*
X79400000Y38059095D01*
X79400000Y37940905D01*
X79423058Y37824986D01*
X79468287Y37715793D01*
X79533950Y37617522D01*
X79617522Y37533950D01*
X79715793Y37468287D01*
X79824986Y37423058D01*
X79940905Y37400000D01*
X80051472Y37400000D01*
X80033950Y37382478D01*
X79968287Y37284207D01*
X79923058Y37175014D01*
X79900000Y37059095D01*
X79900000Y36940905D01*
X79923058Y36824986D01*
X79968287Y36715793D01*
X80033950Y36617522D01*
X80117522Y36533950D01*
X80215793Y36468287D01*
X80324986Y36423058D01*
X80440905Y36400000D01*
X80498960Y36400000D01*
X83934721Y32964238D01*
X83948026Y32948026D01*
X83976083Y32925000D01*
X79676040Y32925000D01*
X79556250Y33044790D01*
X79556250Y33102845D01*
X79533192Y33218764D01*
X79487963Y33327957D01*
X79422300Y33426228D01*
X79338728Y33509800D01*
X79240457Y33575463D01*
X79131264Y33620692D01*
X79015345Y33643750D01*
X78897155Y33643750D01*
X78781236Y33620692D01*
X78672043Y33575463D01*
X78573772Y33509800D01*
X78490200Y33426228D01*
X78424537Y33327957D01*
X78379308Y33218764D01*
X78356250Y33102845D01*
X72703885Y33102845D01*
X80785822Y41184781D01*
X80802034Y41198086D01*
X80855144Y41262800D01*
X80894608Y41336633D01*
X80918910Y41416746D01*
X80925060Y41479186D01*
X80925060Y41479193D01*
X80927115Y41500060D01*
X80925060Y41520927D01*
X80925060Y41825000D01*
X84826472Y41825000D01*
X84867522Y41783950D01*
X84965793Y41718287D01*
X85074986Y41673058D01*
X85190905Y41650000D01*
X85309095Y41650000D01*
X85425014Y41673058D01*
X85534207Y41718287D01*
X85632478Y41783950D01*
X85716050Y41867522D01*
X85781713Y41965793D01*
X85825001Y42070300D01*
X85825000Y37520867D01*
X85822945Y37500000D01*
X85825000Y37479133D01*
X85825000Y37479127D01*
X85826068Y37468287D01*
X85831150Y37416686D01*
X85831422Y37415791D01*
X85855452Y37336574D01*
X85894916Y37262741D01*
X85948026Y37198026D01*
X85964243Y37184717D01*
X87684721Y35464238D01*
X87698026Y35448026D01*
X87762740Y35394916D01*
X87810855Y35369199D01*
X87836572Y35355452D01*
X87898809Y35336573D01*
X87916686Y35331150D01*
X87979126Y35325000D01*
X87979133Y35325000D01*
X88000000Y35322945D01*
X88020867Y35325000D01*
X89326472Y35325000D01*
X89367522Y35283950D01*
X89465793Y35218287D01*
X89574986Y35173058D01*
X89690905Y35150000D01*
X89809095Y35150000D01*
X89925014Y35173058D01*
X90034207Y35218287D01*
X90132478Y35283950D01*
X90216050Y35367522D01*
X90281713Y35465793D01*
X90326942Y35574986D01*
X90350000Y35690905D01*
X90350000Y35809095D01*
X90326942Y35925014D01*
X90281713Y36034207D01*
X90216050Y36132478D01*
X90132478Y36216050D01*
X90034207Y36281713D01*
X89925014Y36326942D01*
X89809095Y36350000D01*
X89690905Y36350000D01*
X89574986Y36326942D01*
X89465793Y36281713D01*
X89367522Y36216050D01*
X89326472Y36175000D01*
X88176041Y36175000D01*
X86675000Y37676040D01*
X86675000Y42729134D01*
X86677055Y42750001D01*
X86675000Y42770868D01*
X86675000Y42770874D01*
X86668850Y42833314D01*
X86644548Y42913427D01*
X86605084Y42987260D01*
X86551974Y43051974D01*
X86535762Y43065279D01*
X86100000Y43501040D01*
X86100000Y43559095D01*
X86076942Y43675014D01*
X86031713Y43784207D01*
X85966050Y43882478D01*
X85882478Y43966050D01*
X85784207Y44031713D01*
X85675014Y44076942D01*
X85559095Y44100000D01*
X85440905Y44100000D01*
X85324986Y44076942D01*
X85215793Y44031713D01*
X85117522Y43966050D01*
X85033950Y43882478D01*
X84968287Y43784207D01*
X84923058Y43675014D01*
X84900000Y43559095D01*
X84900000Y43440905D01*
X84923058Y43324986D01*
X84968287Y43215793D01*
X85033950Y43117522D01*
X85117522Y43033950D01*
X85215793Y42968287D01*
X85324986Y42923058D01*
X85440905Y42900000D01*
X85498960Y42900000D01*
X85825001Y42573958D01*
X85825001Y42429700D01*
X85781713Y42534207D01*
X85716050Y42632478D01*
X85632478Y42716050D01*
X85534207Y42781713D01*
X85425014Y42826942D01*
X85309095Y42850000D01*
X85190905Y42850000D01*
X85074986Y42826942D01*
X84965793Y42781713D01*
X84867522Y42716050D01*
X84826472Y42675000D01*
X80923588Y42675000D01*
X80882538Y42716050D01*
X80784267Y42781713D01*
X80675074Y42826942D01*
X80559155Y42850000D01*
X80440965Y42850000D01*
X80325046Y42826942D01*
X80215853Y42781713D01*
X80117582Y42716050D01*
X80034010Y42632478D01*
X79968347Y42534207D01*
X79923118Y42425014D01*
X79900060Y42309095D01*
X79900060Y42190905D01*
X79923118Y42074986D01*
X79968347Y41965793D01*
X80034010Y41867522D01*
X80075061Y41826471D01*
X80075061Y41676102D01*
X77425000Y39026041D01*
X77425000Y39479134D01*
X77427055Y39500001D01*
X77425000Y39520868D01*
X77425000Y39520874D01*
X77418850Y39583314D01*
X77418314Y39585083D01*
X77400275Y39644547D01*
X77394548Y39663427D01*
X77355084Y39737260D01*
X77301974Y39801974D01*
X77285763Y39815278D01*
X76850000Y40251040D01*
X76850000Y40309095D01*
X76826942Y40425014D01*
X76781713Y40534207D01*
X76716050Y40632478D01*
X76632478Y40716050D01*
X76534207Y40781713D01*
X76425014Y40826942D01*
X76309095Y40850000D01*
X76190905Y40850000D01*
X76074986Y40826942D01*
X75965793Y40781713D01*
X75867522Y40716050D01*
X75783950Y40632478D01*
X75718287Y40534207D01*
X75673058Y40425014D01*
X75650000Y40309095D01*
X75650000Y40190905D01*
X75673058Y40074986D01*
X75718287Y39965793D01*
X75783950Y39867522D01*
X75867522Y39783950D01*
X75918331Y39750000D01*
X75867522Y39716050D01*
X75783950Y39632478D01*
X75718287Y39534207D01*
X75673058Y39425014D01*
X75650000Y39309095D01*
X75650000Y39251041D01*
X72823960Y36425000D01*
X59270866Y36425000D01*
X59249999Y36427055D01*
X59229132Y36425000D01*
X59229126Y36425000D01*
X59175098Y36419679D01*
X59166685Y36418850D01*
X59142383Y36411478D01*
X59086573Y36394548D01*
X59012740Y36355084D01*
X58948026Y36301974D01*
X58934721Y36285762D01*
X56964243Y34315283D01*
X56948026Y34301974D01*
X56894916Y34237259D01*
X56855452Y34163426D01*
X56841527Y34117522D01*
X56831151Y34083315D01*
X56831150Y34083313D01*
X56825000Y34020873D01*
X56825000Y34020867D01*
X56822945Y34000000D01*
X54210555Y34000000D01*
X54210555Y37415789D01*
X68767929Y37415789D01*
X68768624Y37415857D01*
X68773620Y37415875D01*
X68791001Y37417641D01*
X68808468Y37417519D01*
X68814027Y37418064D01*
X69479461Y37488003D01*
X69514950Y37495288D01*
X69550586Y37502086D01*
X69555933Y37503701D01*
X70195109Y37701559D01*
X70228522Y37715605D01*
X70262144Y37729189D01*
X70267076Y37731811D01*
X70855648Y38050051D01*
X70885704Y38070324D01*
X70916039Y38090175D01*
X70920368Y38093705D01*
X71435917Y38520204D01*
X71461482Y38545948D01*
X71487366Y38571295D01*
X71490926Y38575598D01*
X71913816Y39094113D01*
X71933863Y39124287D01*
X71954361Y39154223D01*
X71957017Y39159136D01*
X72271140Y39749916D01*
X72284947Y39783414D01*
X72299237Y39816756D01*
X72300889Y39822091D01*
X72494280Y40462633D01*
X72501326Y40498218D01*
X72508859Y40533658D01*
X72509443Y40539213D01*
X72574736Y41205118D01*
X72574736Y41205122D01*
X72576645Y41224505D01*
X72576645Y43866790D01*
X74337118Y43866790D01*
X74337118Y43490404D01*
X74410548Y43121250D01*
X74554584Y42773515D01*
X74763693Y42460562D01*
X75029838Y42194417D01*
X75342791Y41985308D01*
X75690526Y41841272D01*
X76059680Y41767842D01*
X76436066Y41767842D01*
X76805220Y41841272D01*
X77152955Y41985308D01*
X77465908Y42194417D01*
X77732053Y42460562D01*
X77941162Y42773515D01*
X78085198Y43121250D01*
X78158628Y43490404D01*
X78158628Y43866790D01*
X78085198Y44235944D01*
X77941162Y44583679D01*
X77732053Y44896632D01*
X77465908Y45162777D01*
X77152955Y45371886D01*
X76805220Y45515922D01*
X76436066Y45589352D01*
X76059680Y45589352D01*
X75690526Y45515922D01*
X75342791Y45371886D01*
X75029838Y45162777D01*
X74763693Y44896632D01*
X74554584Y44583679D01*
X74410548Y44235944D01*
X74337118Y43866790D01*
X72576645Y43866790D01*
X72576645Y47781741D01*
X77502022Y48336214D01*
X82791688Y48782540D01*
X88091661Y49080991D01*
X93397995Y49231344D01*
X98706382Y49233478D01*
X104014963Y49087330D01*
%TA.AperFunction,Conductor*%
D23*
G36*
X104014963Y49087330D02*
G01*
X104850001Y49049985D01*
X104850000Y43730354D01*
X104850068Y43729662D01*
X104850088Y43723997D01*
X104851854Y43706613D01*
X104851732Y43689142D01*
X104852277Y43683584D01*
X104924178Y42999491D01*
X104931463Y42964002D01*
X104938261Y42928366D01*
X104939876Y42923019D01*
X105143282Y42265920D01*
X105157314Y42232540D01*
X105170911Y42198885D01*
X105173533Y42193953D01*
X105500697Y41588877D01*
X105520970Y41558821D01*
X105540821Y41528486D01*
X105544351Y41524157D01*
X105982810Y40994151D01*
X106008536Y40968604D01*
X106033900Y40942703D01*
X106038203Y40939143D01*
X106571258Y40504395D01*
X106601414Y40484360D01*
X106631367Y40463850D01*
X106636280Y40461194D01*
X107243626Y40138263D01*
X107277152Y40124444D01*
X107310466Y40110166D01*
X107315801Y40108514D01*
X107974304Y39909700D01*
X108009896Y39902653D01*
X108045330Y39895121D01*
X108050884Y39894537D01*
X108735462Y39827414D01*
X108735467Y39827414D01*
X108754850Y39825505D01*
X122673929Y39825508D01*
X122670328Y33482054D01*
X122589239Y33612107D01*
X122433626Y33777855D01*
X122248668Y33910059D01*
X122041472Y34003640D01*
X121820000Y34055000D01*
X121020000Y34055000D01*
X121020000Y33055000D01*
X121040000Y33055000D01*
X121040000Y32755000D01*
X121020000Y32755000D01*
X121020000Y32735000D01*
X120720000Y32735000D01*
X120720000Y32755000D01*
X119018142Y32755000D01*
X118967328Y32578484D01*
X119030474Y32390814D01*
X119150761Y32197893D01*
X119289564Y32050050D01*
X115650436Y32050050D01*
X115789239Y32197893D01*
X115909526Y32390814D01*
X115972672Y32578484D01*
X115921858Y32755000D01*
X114220000Y32755000D01*
X114220000Y32735000D01*
X113920000Y32735000D01*
X113920000Y32755000D01*
X112218142Y32755000D01*
X112167328Y32578484D01*
X112230474Y32390814D01*
X112350761Y32197893D01*
X112489564Y32050050D01*
X110055267Y32050050D01*
X110040199Y32048566D01*
X110033250Y32048566D01*
X110029084Y32048128D01*
X109925320Y32036489D01*
X109898739Y32030839D01*
X109872042Y32025553D01*
X109868040Y32024314D01*
X109768514Y31992741D01*
X109743522Y31982030D01*
X109718377Y31971666D01*
X109714700Y31969677D01*
X109714690Y31969673D01*
X109714682Y31969667D01*
X109623194Y31919372D01*
X109600730Y31903991D01*
X109578102Y31888958D01*
X109574882Y31886294D01*
X109574875Y31886289D01*
X109574870Y31886283D01*
X109494889Y31819172D01*
X109475841Y31799721D01*
X109456564Y31780578D01*
X109453916Y31777332D01*
X109388490Y31695958D01*
X109373593Y31673193D01*
X109358392Y31650657D01*
X109356426Y31646958D01*
X109308052Y31554427D01*
X109297856Y31529193D01*
X109287326Y31504143D01*
X109286117Y31500139D01*
X109286114Y31500132D01*
X109286113Y31500125D01*
X109256634Y31399967D01*
X109251538Y31373251D01*
X109246069Y31346612D01*
X109245661Y31342443D01*
X109236198Y31238458D01*
X109236388Y31211231D01*
X109236198Y31184071D01*
X109236606Y31179913D01*
X109236606Y31179900D01*
X109236608Y31179888D01*
X109247521Y31076060D01*
X109252992Y31049406D01*
X109258085Y31022706D01*
X109259293Y31018706D01*
X109259295Y31018696D01*
X109259299Y31018687D01*
X109290172Y30918951D01*
X109300710Y30893882D01*
X109310898Y30868665D01*
X109312860Y30864976D01*
X109312864Y30864967D01*
X109312869Y30864960D01*
X109362527Y30773119D01*
X109377765Y30750528D01*
X109392625Y30727819D01*
X109395269Y30724577D01*
X109395273Y30724571D01*
X109395278Y30724566D01*
X109461829Y30644120D01*
X109481121Y30624962D01*
X109500152Y30605528D01*
X109503380Y30602858D01*
X109584295Y30536865D01*
X109606966Y30521803D01*
X109629386Y30506451D01*
X109633066Y30504462D01*
X109633070Y30504459D01*
X109633074Y30504457D01*
X109725262Y30455440D01*
X109750394Y30445081D01*
X109769951Y30436699D01*
X109769950Y26923197D01*
X109768514Y26922741D01*
X109743522Y26912030D01*
X109718377Y26901666D01*
X109714700Y26899677D01*
X109714690Y26899673D01*
X109714682Y26899667D01*
X109623194Y26849372D01*
X109600730Y26833991D01*
X109578102Y26818958D01*
X109574882Y26816294D01*
X109574875Y26816289D01*
X109574870Y26816283D01*
X109494889Y26749172D01*
X109475841Y26729721D01*
X109456564Y26710578D01*
X109453916Y26707332D01*
X109388490Y26625958D01*
X109373593Y26603193D01*
X109358392Y26580657D01*
X109356426Y26576958D01*
X109308052Y26484427D01*
X109297856Y26459193D01*
X109287326Y26434143D01*
X109286117Y26430139D01*
X109286114Y26430132D01*
X109286113Y26430125D01*
X109256634Y26329967D01*
X109251538Y26303251D01*
X109246069Y26276612D01*
X109245661Y26272443D01*
X109236198Y26168458D01*
X109236388Y26141231D01*
X109236198Y26114071D01*
X109236606Y26109913D01*
X109236606Y26109900D01*
X109236608Y26109888D01*
X109247521Y26006060D01*
X109252992Y25979406D01*
X109258085Y25952706D01*
X109259293Y25948706D01*
X109259295Y25948696D01*
X109259299Y25948687D01*
X109290172Y25848951D01*
X109300710Y25823882D01*
X109310898Y25798665D01*
X109312860Y25794976D01*
X109312864Y25794967D01*
X109312869Y25794960D01*
X109362527Y25703119D01*
X109377765Y25680528D01*
X109392625Y25657819D01*
X109395269Y25654577D01*
X109395273Y25654571D01*
X109395278Y25654566D01*
X109461829Y25574120D01*
X109481121Y25554962D01*
X109500152Y25535528D01*
X109503380Y25532858D01*
X109584295Y25466865D01*
X109606966Y25451803D01*
X109629386Y25436451D01*
X109633066Y25434462D01*
X109633070Y25434459D01*
X109633074Y25434457D01*
X109725262Y25385440D01*
X109750394Y25375081D01*
X109775401Y25364363D01*
X109779403Y25363124D01*
X109879361Y25332945D01*
X109906051Y25327660D01*
X109932639Y25322009D01*
X109936805Y25321571D01*
X110040720Y25311382D01*
X110040727Y25311382D01*
X110055267Y25309950D01*
X112489564Y25309950D01*
X112350761Y25162107D01*
X112230474Y24969186D01*
X112167328Y24781516D01*
X112218142Y24605000D01*
X113920000Y24605000D01*
X113920000Y24625000D01*
X114220000Y24625000D01*
X114220000Y24605000D01*
X115921858Y24605000D01*
X115972672Y24781516D01*
X115909526Y24969186D01*
X115789239Y25162107D01*
X115650436Y25309950D01*
X119289564Y25309950D01*
X119150761Y25162107D01*
X119030474Y24969186D01*
X118967328Y24781516D01*
X119018142Y24605000D01*
X120720000Y24605000D01*
X120720000Y24625000D01*
X121020000Y24625000D01*
X121020000Y24605000D01*
X121040000Y24605000D01*
X121040000Y24305000D01*
X121020000Y24305000D01*
X121020000Y23305000D01*
X121820000Y23305000D01*
X122041472Y23356360D01*
X122248668Y23449941D01*
X122433626Y23582145D01*
X122589239Y23747893D01*
X122670328Y23877946D01*
X122673931Y17534252D01*
X108728222Y17534252D01*
X108727532Y17534184D01*
X108722351Y17534166D01*
X108704965Y17532400D01*
X108687491Y17532522D01*
X108681933Y17531977D01*
X108011200Y17461480D01*
X107975705Y17454194D01*
X107940075Y17447397D01*
X107934731Y17445783D01*
X107934725Y17445781D01*
X107290464Y17246349D01*
X107257075Y17232314D01*
X107223428Y17218719D01*
X107218497Y17216097D01*
X106625238Y16895323D01*
X106595182Y16875050D01*
X106564847Y16855199D01*
X106560518Y16851669D01*
X106040863Y16421773D01*
X106015315Y16396047D01*
X105989415Y16370683D01*
X105985860Y16366385D01*
X105985855Y16366380D01*
X105985851Y16366375D01*
X105559598Y15843737D01*
X105539528Y15813529D01*
X105519054Y15783627D01*
X105516397Y15778714D01*
X105199772Y15183230D01*
X105185954Y15149706D01*
X105171675Y15116389D01*
X105170023Y15111054D01*
X104975093Y14465411D01*
X104968051Y14429848D01*
X104960514Y14394387D01*
X104959930Y14388833D01*
X104894117Y13717624D01*
X104894117Y13717619D01*
X104892208Y13698236D01*
X104892210Y8318719D01*
X99967639Y8150286D01*
X94659320Y8117034D01*
X89352141Y8232013D01*
X84050263Y8495131D01*
X78757781Y8906185D01*
X73476692Y9465080D01*
X72576995Y9576045D01*
X72576995Y13866790D01*
X74337118Y13866790D01*
X74337118Y13490404D01*
X74410548Y13121250D01*
X74554584Y12773515D01*
X74763693Y12460562D01*
X75029838Y12194417D01*
X75342791Y11985308D01*
X75690526Y11841272D01*
X76059680Y11767842D01*
X76436066Y11767842D01*
X76805220Y11841272D01*
X77152955Y11985308D01*
X77465908Y12194417D01*
X77732053Y12460562D01*
X77941162Y12773515D01*
X78085198Y13121250D01*
X78158628Y13490404D01*
X78158628Y13866790D01*
X99337118Y13866790D01*
X99337118Y13490404D01*
X99410548Y13121250D01*
X99554584Y12773515D01*
X99763693Y12460562D01*
X100029838Y12194417D01*
X100342791Y11985308D01*
X100690526Y11841272D01*
X101059680Y11767842D01*
X101436066Y11767842D01*
X101805220Y11841272D01*
X102152955Y11985308D01*
X102465908Y12194417D01*
X102732053Y12460562D01*
X102941162Y12773515D01*
X103085198Y13121250D01*
X103158628Y13490404D01*
X103158628Y13866790D01*
X103085198Y14235944D01*
X102941162Y14583679D01*
X102732053Y14896632D01*
X102465908Y15162777D01*
X102152955Y15371886D01*
X101805220Y15515922D01*
X101436066Y15589352D01*
X101059680Y15589352D01*
X100690526Y15515922D01*
X100342791Y15371886D01*
X100029838Y15162777D01*
X99763693Y14896632D01*
X99554584Y14583679D01*
X99410548Y14235944D01*
X99337118Y13866790D01*
X78158628Y13866790D01*
X78085198Y14235944D01*
X77941162Y14583679D01*
X77732053Y14896632D01*
X77465908Y15162777D01*
X77152955Y15371886D01*
X76805220Y15515922D01*
X76436066Y15589352D01*
X76059680Y15589352D01*
X75690526Y15515922D01*
X75342791Y15371886D01*
X75029838Y15162777D01*
X74763693Y14896632D01*
X74554584Y14583679D01*
X74410548Y14235944D01*
X74337118Y13866790D01*
X72576995Y13866790D01*
X72576995Y16134905D01*
X72576927Y16135600D01*
X72576909Y16140599D01*
X72575143Y16157980D01*
X72575265Y16175448D01*
X72574720Y16181006D01*
X72504773Y16846507D01*
X72497488Y16881996D01*
X72490690Y16917632D01*
X72489075Y16922979D01*
X72291197Y17562221D01*
X72277151Y17595634D01*
X72263567Y17629256D01*
X72260945Y17634188D01*
X71942673Y18222820D01*
X71922400Y18252876D01*
X71902549Y18283211D01*
X71899019Y18287540D01*
X71472475Y18803142D01*
X71446749Y18828689D01*
X71421385Y18854590D01*
X71417082Y18858150D01*
X70898515Y19281083D01*
X70868318Y19301146D01*
X70838405Y19321628D01*
X70833492Y19324285D01*
X70242652Y19638440D01*
X70209125Y19652259D01*
X70175812Y19666537D01*
X70170476Y19668189D01*
X69529869Y19861600D01*
X69494284Y19868646D01*
X69458844Y19876179D01*
X69453289Y19876763D01*
X68787315Y19942062D01*
X68787301Y19942062D01*
X68767929Y19943970D01*
X54210555Y19943970D01*
X54210555Y20810000D01*
X84748306Y20810000D01*
X84755064Y20741388D01*
X84775077Y20675413D01*
X84807577Y20614609D01*
X84851315Y20561315D01*
X84904609Y20517577D01*
X84965413Y20485077D01*
X85031388Y20465064D01*
X85100000Y20458306D01*
X85762500Y20460000D01*
X85850000Y20547500D01*
X85850000Y21560000D01*
X86150000Y21560000D01*
X86150000Y20547500D01*
X86237500Y20460000D01*
X86900000Y20458306D01*
X86968612Y20465064D01*
X87034587Y20485077D01*
X87095391Y20517577D01*
X87148685Y20561315D01*
X87192423Y20614609D01*
X87224923Y20675413D01*
X87244936Y20741388D01*
X87251694Y20810000D01*
X89248306Y20810000D01*
X89255064Y20741388D01*
X89275077Y20675413D01*
X89307577Y20614609D01*
X89351315Y20561315D01*
X89404609Y20517577D01*
X89465413Y20485077D01*
X89531388Y20465064D01*
X89600000Y20458306D01*
X90262500Y20460000D01*
X90350000Y20547500D01*
X90350000Y21560000D01*
X90650000Y21560000D01*
X90650000Y20547500D01*
X90737500Y20460000D01*
X91400000Y20458306D01*
X91468612Y20465064D01*
X91534587Y20485077D01*
X91595391Y20517577D01*
X91648685Y20561315D01*
X91692423Y20614609D01*
X91724923Y20675413D01*
X91744936Y20741388D01*
X91751694Y20810000D01*
X93748306Y20810000D01*
X93755064Y20741388D01*
X93775077Y20675413D01*
X93807577Y20614609D01*
X93851315Y20561315D01*
X93904609Y20517577D01*
X93965413Y20485077D01*
X94031388Y20465064D01*
X94100000Y20458306D01*
X94762500Y20460000D01*
X94850000Y20547500D01*
X94850000Y21560000D01*
X95150000Y21560000D01*
X95150000Y20547500D01*
X95237500Y20460000D01*
X95900000Y20458306D01*
X95968612Y20465064D01*
X96034587Y20485077D01*
X96095391Y20517577D01*
X96148685Y20561315D01*
X96192423Y20614609D01*
X96224923Y20675413D01*
X96244936Y20741388D01*
X96251694Y20810000D01*
X96250000Y21472500D01*
X96162500Y21560000D01*
X95150000Y21560000D01*
X94850000Y21560000D01*
X93837500Y21560000D01*
X93750000Y21472500D01*
X93748306Y20810000D01*
X91751694Y20810000D01*
X91750000Y21472500D01*
X91662500Y21560000D01*
X90650000Y21560000D01*
X90350000Y21560000D01*
X89337500Y21560000D01*
X89250000Y21472500D01*
X89248306Y20810000D01*
X87251694Y20810000D01*
X87250000Y21472500D01*
X87162500Y21560000D01*
X86150000Y21560000D01*
X85850000Y21560000D01*
X84837500Y21560000D01*
X84750000Y21472500D01*
X84748306Y20810000D01*
X54210555Y20810000D01*
X54210555Y22610000D01*
X84748306Y22610000D01*
X84750000Y21947500D01*
X84837500Y21860000D01*
X85850000Y21860000D01*
X85850000Y22872500D01*
X86150000Y22872500D01*
X86150000Y21860000D01*
X87162500Y21860000D01*
X87250000Y21947500D01*
X87251694Y22610000D01*
X89248306Y22610000D01*
X89250000Y21947500D01*
X89337500Y21860000D01*
X90350000Y21860000D01*
X90350000Y22872500D01*
X90650000Y22872500D01*
X90650000Y21860000D01*
X91662500Y21860000D01*
X91750000Y21947500D01*
X91751694Y22610000D01*
X93748306Y22610000D01*
X93750000Y21947500D01*
X93837500Y21860000D01*
X94850000Y21860000D01*
X94850000Y22872500D01*
X95150000Y22872500D01*
X95150000Y21860000D01*
X96162500Y21860000D01*
X96250000Y21947500D01*
X96251694Y22610000D01*
X96244936Y22678612D01*
X96224923Y22744587D01*
X96192423Y22805391D01*
X96148685Y22858685D01*
X96095391Y22902423D01*
X96034587Y22934923D01*
X95968612Y22954936D01*
X95900000Y22961694D01*
X95237500Y22960000D01*
X95150000Y22872500D01*
X94850000Y22872500D01*
X94762500Y22960000D01*
X94100000Y22961694D01*
X94031388Y22954936D01*
X93965413Y22934923D01*
X93904609Y22902423D01*
X93851315Y22858685D01*
X93807577Y22805391D01*
X93775077Y22744587D01*
X93755064Y22678612D01*
X93748306Y22610000D01*
X91751694Y22610000D01*
X91744936Y22678612D01*
X91724923Y22744587D01*
X91692423Y22805391D01*
X91648685Y22858685D01*
X91595391Y22902423D01*
X91534587Y22934923D01*
X91468612Y22954936D01*
X91400000Y22961694D01*
X90737500Y22960000D01*
X90650000Y22872500D01*
X90350000Y22872500D01*
X90262500Y22960000D01*
X89600000Y22961694D01*
X89531388Y22954936D01*
X89465413Y22934923D01*
X89404609Y22902423D01*
X89351315Y22858685D01*
X89307577Y22805391D01*
X89275077Y22744587D01*
X89255064Y22678612D01*
X89248306Y22610000D01*
X87251694Y22610000D01*
X87244936Y22678612D01*
X87224923Y22744587D01*
X87192423Y22805391D01*
X87148685Y22858685D01*
X87095391Y22902423D01*
X87034587Y22934923D01*
X86968612Y22954936D01*
X86900000Y22961694D01*
X86237500Y22960000D01*
X86150000Y22872500D01*
X85850000Y22872500D01*
X85762500Y22960000D01*
X85100000Y22961694D01*
X85031388Y22954936D01*
X84965413Y22934923D01*
X84904609Y22902423D01*
X84851315Y22858685D01*
X84807577Y22805391D01*
X84775077Y22744587D01*
X84755064Y22678612D01*
X84748306Y22610000D01*
X54210555Y22610000D01*
X54210555Y24078919D01*
X54387328Y24078919D01*
X54391488Y24030265D01*
X54468248Y23890381D01*
X54570823Y23768160D01*
X54695271Y23668299D01*
X54836810Y23594635D01*
X54990000Y23550000D01*
X55390000Y23550000D01*
X55390000Y24200000D01*
X55690000Y24200000D01*
X55690000Y23550000D01*
X56090000Y23550000D01*
X56243190Y23594635D01*
X56384729Y23668299D01*
X56509177Y23768160D01*
X56611752Y23890381D01*
X56688512Y24030265D01*
X56692672Y24078919D01*
X57417328Y24078919D01*
X57421488Y24030265D01*
X57498248Y23890381D01*
X57600823Y23768160D01*
X57725271Y23668299D01*
X57866810Y23594635D01*
X58020000Y23550000D01*
X58770000Y23550000D01*
X58770000Y24200000D01*
X59070000Y24200000D01*
X59070000Y23550000D01*
X59820000Y23550000D01*
X59973190Y23594635D01*
X60114729Y23668299D01*
X60239177Y23768160D01*
X60341752Y23890381D01*
X60418512Y24030265D01*
X60422672Y24078919D01*
X60366532Y24200000D01*
X59070000Y24200000D01*
X58770000Y24200000D01*
X57473468Y24200000D01*
X57417328Y24078919D01*
X56692672Y24078919D01*
X56636532Y24200000D01*
X55690000Y24200000D01*
X55390000Y24200000D01*
X54443468Y24200000D01*
X54387328Y24078919D01*
X54210555Y24078919D01*
X54210555Y24368190D01*
X84800000Y24368190D01*
X84800000Y24131810D01*
X84846116Y23899973D01*
X84936574Y23681587D01*
X85067899Y23485045D01*
X85235045Y23317899D01*
X85431587Y23186574D01*
X85649973Y23096116D01*
X85881810Y23050000D01*
X86118190Y23050000D01*
X86350027Y23096116D01*
X86568413Y23186574D01*
X86764955Y23317899D01*
X86932101Y23485045D01*
X87063426Y23681587D01*
X87153884Y23899973D01*
X87200000Y24131810D01*
X87200000Y24368190D01*
X89300000Y24368190D01*
X89300000Y24131810D01*
X89346116Y23899973D01*
X89436574Y23681587D01*
X89567899Y23485045D01*
X89735045Y23317899D01*
X89931587Y23186574D01*
X90149973Y23096116D01*
X90381810Y23050000D01*
X90618190Y23050000D01*
X90850027Y23096116D01*
X91068413Y23186574D01*
X91264955Y23317899D01*
X91432101Y23485045D01*
X91563426Y23681587D01*
X91653884Y23899973D01*
X91700000Y24131810D01*
X91700000Y24368190D01*
X93800000Y24368190D01*
X93800000Y24131810D01*
X93846116Y23899973D01*
X93936574Y23681587D01*
X94067899Y23485045D01*
X94235045Y23317899D01*
X94431587Y23186574D01*
X94649973Y23096116D01*
X94881810Y23050000D01*
X95118190Y23050000D01*
X95350027Y23096116D01*
X95568413Y23186574D01*
X95764955Y23317899D01*
X95932101Y23485045D01*
X96063426Y23681587D01*
X96153884Y23899973D01*
X96199338Y24128484D01*
X112167328Y24128484D01*
X112230474Y23940814D01*
X112350761Y23747893D01*
X112506374Y23582145D01*
X112691332Y23449941D01*
X112898528Y23356360D01*
X113120000Y23305000D01*
X113920000Y23305000D01*
X113920000Y24305000D01*
X114220000Y24305000D01*
X114220000Y23305000D01*
X115020000Y23305000D01*
X115241472Y23356360D01*
X115448668Y23449941D01*
X115633626Y23582145D01*
X115789239Y23747893D01*
X115909526Y23940814D01*
X115972672Y24128484D01*
X118967328Y24128484D01*
X119030474Y23940814D01*
X119150761Y23747893D01*
X119306374Y23582145D01*
X119491332Y23449941D01*
X119698528Y23356360D01*
X119920000Y23305000D01*
X120720000Y23305000D01*
X120720000Y24305000D01*
X119018142Y24305000D01*
X118967328Y24128484D01*
X115972672Y24128484D01*
X115921858Y24305000D01*
X114220000Y24305000D01*
X113920000Y24305000D01*
X112218142Y24305000D01*
X112167328Y24128484D01*
X96199338Y24128484D01*
X96200000Y24131810D01*
X96200000Y24368190D01*
X96153884Y24600027D01*
X96063426Y24818413D01*
X95932101Y25014955D01*
X95764955Y25182101D01*
X95568413Y25313426D01*
X95350027Y25403884D01*
X95118190Y25450000D01*
X94881810Y25450000D01*
X94649973Y25403884D01*
X94431587Y25313426D01*
X94235045Y25182101D01*
X94067899Y25014955D01*
X93936574Y24818413D01*
X93846116Y24600027D01*
X93800000Y24368190D01*
X91700000Y24368190D01*
X91653884Y24600027D01*
X91563426Y24818413D01*
X91432101Y25014955D01*
X91264955Y25182101D01*
X91068413Y25313426D01*
X90850027Y25403884D01*
X90618190Y25450000D01*
X90381810Y25450000D01*
X90149973Y25403884D01*
X89931587Y25313426D01*
X89735045Y25182101D01*
X89567899Y25014955D01*
X89436574Y24818413D01*
X89346116Y24600027D01*
X89300000Y24368190D01*
X87200000Y24368190D01*
X87153884Y24600027D01*
X87063426Y24818413D01*
X86932101Y25014955D01*
X86764955Y25182101D01*
X86568413Y25313426D01*
X86350027Y25403884D01*
X86118190Y25450000D01*
X85881810Y25450000D01*
X85649973Y25403884D01*
X85431587Y25313426D01*
X85235045Y25182101D01*
X85067899Y25014955D01*
X84936574Y24818413D01*
X84846116Y24600027D01*
X84800000Y24368190D01*
X54210555Y24368190D01*
X54210555Y24621081D01*
X54387328Y24621081D01*
X54443468Y24500000D01*
X55390000Y24500000D01*
X55390000Y25150000D01*
X55690000Y25150000D01*
X55690000Y24500000D01*
X56636532Y24500000D01*
X56692672Y24621081D01*
X57417328Y24621081D01*
X57473468Y24500000D01*
X58770000Y24500000D01*
X58770000Y25034704D01*
X58805657Y25044719D01*
X58832578Y25055870D01*
X58860032Y25150000D01*
X59070000Y25150000D01*
X59070000Y24500000D01*
X60366532Y24500000D01*
X60422672Y24621081D01*
X60418512Y24669735D01*
X60341752Y24809619D01*
X60239177Y24931840D01*
X60114729Y25031701D01*
X60112829Y25032690D01*
X60155657Y25044719D01*
X60182578Y25055870D01*
X60198764Y25111366D01*
X67393498Y25111366D01*
X67519491Y24919345D01*
X67779469Y24801052D01*
X68057529Y24735752D01*
X68342986Y24725954D01*
X68624870Y24772033D01*
X68892347Y24872220D01*
X68980509Y24919345D01*
X69106502Y25111366D01*
X68250000Y25967868D01*
X67393498Y25111366D01*
X60198764Y25111366D01*
X60216318Y25171550D01*
X59900000Y25487868D01*
X59583682Y25171550D01*
X59589967Y25150000D01*
X59070000Y25150000D01*
X58860032Y25150000D01*
X58866318Y25171550D01*
X58550000Y25487868D01*
X58233682Y25171550D01*
X58239967Y25150000D01*
X58020000Y25150000D01*
X57866810Y25105365D01*
X57725271Y25031701D01*
X57600823Y24931840D01*
X57498248Y24809619D01*
X57421488Y24669735D01*
X57417328Y24621081D01*
X56692672Y24621081D01*
X56688512Y24669735D01*
X56611752Y24809619D01*
X56509177Y24931840D01*
X56384729Y25031701D01*
X56243190Y25105365D01*
X56090000Y25150000D01*
X55690000Y25150000D01*
X55390000Y25150000D01*
X54990000Y25150000D01*
X54836810Y25105365D01*
X54695271Y25031701D01*
X54570823Y24931840D01*
X54468248Y24809619D01*
X54391488Y24669735D01*
X54387328Y24621081D01*
X54210555Y24621081D01*
X54210555Y32728919D01*
X54387328Y32728919D01*
X54391488Y32680265D01*
X54468248Y32540381D01*
X54570823Y32418160D01*
X54695271Y32318299D01*
X54836810Y32244635D01*
X54990000Y32200000D01*
X55390000Y32200000D01*
X55390000Y32850000D01*
X55690000Y32850000D01*
X55690000Y32200000D01*
X56090000Y32200000D01*
X56243190Y32244635D01*
X56384729Y32318299D01*
X56509177Y32418160D01*
X56611752Y32540381D01*
X56688512Y32680265D01*
X56692672Y32728919D01*
X56636532Y32850000D01*
X55690000Y32850000D01*
X55390000Y32850000D01*
X54443468Y32850000D01*
X54387328Y32728919D01*
X54210555Y32728919D01*
X54210555Y33271081D01*
X54387328Y33271081D01*
X54443468Y33150000D01*
X55390000Y33150000D01*
X55390000Y33800000D01*
X55690000Y33800000D01*
X55690000Y33150000D01*
X56636532Y33150000D01*
X56692672Y33271081D01*
X56688512Y33319735D01*
X56611752Y33459619D01*
X56509177Y33581840D01*
X56384729Y33681701D01*
X56243190Y33755365D01*
X56090000Y33800000D01*
X55690000Y33800000D01*
X55390000Y33800000D01*
X54990000Y33800000D01*
X54836810Y33755365D01*
X54695271Y33681701D01*
X54570823Y33581840D01*
X54468248Y33459619D01*
X54391488Y33319735D01*
X54387328Y33271081D01*
X54210555Y33271081D01*
X54210555Y34000000D01*
X56822945Y34000000D01*
X56825000Y33979133D01*
X56825001Y28020877D01*
X56822945Y28000000D01*
X56831150Y27916686D01*
X56855453Y27836573D01*
X56894917Y27762740D01*
X56948027Y27698026D01*
X56964239Y27684721D01*
X57534721Y27114238D01*
X57548026Y27098026D01*
X57612740Y27044916D01*
X57686573Y27005452D01*
X57742383Y26988522D01*
X57766685Y26981150D01*
X57775098Y26980321D01*
X57829126Y26975000D01*
X57829132Y26975000D01*
X57849999Y26972945D01*
X57870866Y26975000D01*
X58055761Y26975000D01*
X58045112Y26964351D01*
X57973978Y26857890D01*
X57924979Y26739598D01*
X57900000Y26614019D01*
X57900000Y26485981D01*
X57924979Y26360402D01*
X57973978Y26242110D01*
X58023676Y26167731D01*
X57946905Y26090960D01*
X58021548Y26016317D01*
X57905870Y25982578D01*
X57863119Y25851484D01*
X57846764Y25714569D01*
X57857434Y25577095D01*
X57894719Y25444343D01*
X57905870Y25417422D01*
X58021550Y25383682D01*
X58337868Y25700000D01*
X58323726Y25714143D01*
X58509583Y25900000D01*
X58590417Y25900000D01*
X58776275Y25714143D01*
X58762132Y25700000D01*
X59078450Y25383682D01*
X59194130Y25417422D01*
X59225372Y25513226D01*
X59244719Y25444343D01*
X59255870Y25417422D01*
X59371550Y25383682D01*
X59687868Y25700000D01*
X59673726Y25714143D01*
X59859583Y25900000D01*
X59940417Y25900000D01*
X60126275Y25714143D01*
X60112132Y25700000D01*
X60428450Y25383682D01*
X60544130Y25417422D01*
X60586881Y25548516D01*
X60603236Y25685431D01*
X60592566Y25822905D01*
X60555281Y25955657D01*
X60544130Y25982578D01*
X60428452Y26016317D01*
X60499149Y26087014D01*
X66795954Y26087014D01*
X66842033Y25805130D01*
X66942220Y25537653D01*
X66989345Y25449491D01*
X67181366Y25323498D01*
X68037868Y26180000D01*
X68462132Y26180000D01*
X69318634Y25323498D01*
X69510655Y25449491D01*
X69628948Y25709469D01*
X69694248Y25987529D01*
X69704046Y26272986D01*
X69696706Y26317888D01*
X71850000Y26317888D01*
X71850000Y26042112D01*
X71903801Y25771635D01*
X72009336Y25516851D01*
X72162549Y25287552D01*
X72357552Y25092549D01*
X72586851Y24939336D01*
X72841635Y24833801D01*
X73112112Y24780000D01*
X73387888Y24780000D01*
X73658365Y24833801D01*
X73913149Y24939336D01*
X74142448Y25092549D01*
X74337451Y25287552D01*
X74490664Y25516851D01*
X74596199Y25771635D01*
X74650000Y26042112D01*
X74650000Y26317888D01*
X74596199Y26588365D01*
X74490664Y26843149D01*
X74337451Y27072448D01*
X74142448Y27267451D01*
X73913149Y27420664D01*
X73658365Y27526199D01*
X73387888Y27580000D01*
X73112112Y27580000D01*
X72841635Y27526199D01*
X72586851Y27420664D01*
X72357552Y27267451D01*
X72162549Y27072448D01*
X72009336Y26843149D01*
X71903801Y26588365D01*
X71850000Y26317888D01*
X69696706Y26317888D01*
X69657967Y26554870D01*
X69557780Y26822347D01*
X69510655Y26910509D01*
X69318634Y27036502D01*
X68462132Y26180000D01*
X68037868Y26180000D01*
X67181366Y27036502D01*
X66989345Y26910509D01*
X66871052Y26650531D01*
X66805752Y26372471D01*
X66795954Y26087014D01*
X60499149Y26087014D01*
X60503095Y26090960D01*
X60426324Y26167731D01*
X60476022Y26242110D01*
X60525021Y26360402D01*
X60550000Y26485981D01*
X60550000Y26614019D01*
X60525021Y26739598D01*
X60476022Y26857890D01*
X60404888Y26964351D01*
X60394239Y26975000D01*
X60404888Y26985649D01*
X60476022Y27092110D01*
X60525021Y27210402D01*
X60532625Y27248634D01*
X67393498Y27248634D01*
X68250000Y26392132D01*
X69106502Y27248634D01*
X68980509Y27440655D01*
X68720531Y27558948D01*
X68442471Y27624248D01*
X68157014Y27634046D01*
X67875130Y27587967D01*
X67607653Y27487780D01*
X67519491Y27440655D01*
X67393498Y27248634D01*
X60532625Y27248634D01*
X60550000Y27335981D01*
X60550000Y27464019D01*
X60525021Y27589598D01*
X60476022Y27707890D01*
X60404888Y27814351D01*
X60394239Y27825000D01*
X60404888Y27835649D01*
X60476022Y27942110D01*
X60525021Y28060402D01*
X60550000Y28185981D01*
X60550000Y28314019D01*
X60525021Y28439598D01*
X60476022Y28557890D01*
X60404888Y28664351D01*
X60394239Y28675000D01*
X60404888Y28685649D01*
X60476022Y28792110D01*
X60525021Y28910402D01*
X60550000Y29035981D01*
X60550000Y29164019D01*
X60525021Y29289598D01*
X60476022Y29407890D01*
X60404888Y29514351D01*
X60394239Y29525000D01*
X60679133Y29525000D01*
X60700000Y29522945D01*
X60720867Y29525000D01*
X60720874Y29525000D01*
X60783314Y29531150D01*
X60863427Y29555452D01*
X60937260Y29594916D01*
X61001974Y29648026D01*
X61015284Y29664244D01*
X61462406Y30111366D01*
X67393498Y30111366D01*
X67519491Y29919345D01*
X67779469Y29801052D01*
X68057529Y29735752D01*
X68342986Y29725954D01*
X68624870Y29772033D01*
X68892347Y29872220D01*
X68980509Y29919345D01*
X69106502Y30111366D01*
X68250000Y30967868D01*
X67393498Y30111366D01*
X61462406Y30111366D01*
X62438054Y31087014D01*
X66795954Y31087014D01*
X66842033Y30805130D01*
X66942220Y30537653D01*
X66989345Y30449491D01*
X67181366Y30323498D01*
X68037868Y31180000D01*
X67181366Y32036502D01*
X66989345Y31910509D01*
X66871052Y31650531D01*
X66805752Y31372471D01*
X66795954Y31087014D01*
X62438054Y31087014D01*
X66426041Y35075000D01*
X73473960Y35075000D01*
X71323960Y32925000D01*
X70173528Y32925000D01*
X70132478Y32966050D01*
X70034207Y33031713D01*
X69925014Y33076942D01*
X69809095Y33100000D01*
X69690905Y33100000D01*
X69574986Y33076942D01*
X69465793Y33031713D01*
X69367522Y32966050D01*
X69283950Y32882478D01*
X69218287Y32784207D01*
X69173058Y32675014D01*
X69150000Y32559095D01*
X69150000Y32440905D01*
X69173058Y32324986D01*
X69178854Y32310993D01*
X69173856Y32315991D01*
X69106501Y32248636D01*
X68980509Y32440655D01*
X68720531Y32558948D01*
X68442471Y32624248D01*
X68157014Y32634046D01*
X67875130Y32587967D01*
X67607653Y32487780D01*
X67519491Y32440655D01*
X67393498Y32248634D01*
X68250000Y31392132D01*
X68264143Y31406275D01*
X68476275Y31194143D01*
X68462132Y31180000D01*
X69318634Y30323498D01*
X69510655Y30449491D01*
X69628948Y30709469D01*
X69694248Y30987529D01*
X69704046Y31272986D01*
X69696706Y31317888D01*
X71850000Y31317888D01*
X71850000Y31042112D01*
X71903801Y30771635D01*
X72009336Y30516851D01*
X72162549Y30287552D01*
X72357552Y30092549D01*
X72586851Y29939336D01*
X72841635Y29833801D01*
X73112112Y29780000D01*
X73387888Y29780000D01*
X73658365Y29833801D01*
X73913149Y29939336D01*
X74142448Y30092549D01*
X74337451Y30287552D01*
X74490664Y30516851D01*
X74596199Y30771635D01*
X74606814Y30825000D01*
X78321824Y30825000D01*
X78378599Y30740030D01*
X78490030Y30628599D01*
X78621058Y30541049D01*
X78766649Y30480743D01*
X78921207Y30450000D01*
X79078793Y30450000D01*
X79233351Y30480743D01*
X79378942Y30541049D01*
X79509970Y30628599D01*
X79621401Y30740030D01*
X79708951Y30871058D01*
X79769257Y31016649D01*
X79800000Y31171207D01*
X79800000Y31328793D01*
X79769257Y31483351D01*
X79708951Y31628942D01*
X79621401Y31759970D01*
X79509970Y31871401D01*
X79378942Y31958951D01*
X79233351Y32019257D01*
X79078793Y32050000D01*
X78921207Y32050000D01*
X78766649Y32019257D01*
X78621058Y31958951D01*
X78490030Y31871401D01*
X78378599Y31759970D01*
X78321824Y31675000D01*
X74560314Y31675000D01*
X74490664Y31843149D01*
X74337451Y32072448D01*
X74142448Y32267451D01*
X73913149Y32420664D01*
X73658365Y32526199D01*
X73387888Y32580000D01*
X73112112Y32580000D01*
X72841635Y32526199D01*
X72586851Y32420664D01*
X72357552Y32267451D01*
X72162549Y32072448D01*
X72009336Y31843149D01*
X71903801Y31588365D01*
X71850000Y31317888D01*
X69696706Y31317888D01*
X69657967Y31554870D01*
X69557780Y31822347D01*
X69510655Y31910509D01*
X69318636Y32036501D01*
X69341804Y32059669D01*
X69367522Y32033950D01*
X69465793Y31968287D01*
X69574986Y31923058D01*
X69690905Y31900000D01*
X69809095Y31900000D01*
X69925014Y31923058D01*
X70034207Y31968287D01*
X70132478Y32033950D01*
X70173528Y32075000D01*
X71479133Y32075000D01*
X71500000Y32072945D01*
X71520867Y32075000D01*
X71520874Y32075000D01*
X71583314Y32081150D01*
X71663427Y32105452D01*
X71737260Y32144916D01*
X71801974Y32198026D01*
X71815284Y32214244D01*
X72703885Y33102845D01*
X78356250Y33102845D01*
X78356250Y32984655D01*
X78379308Y32868736D01*
X78424537Y32759543D01*
X78490200Y32661272D01*
X78573772Y32577700D01*
X78672043Y32512037D01*
X78781236Y32466808D01*
X78897155Y32443750D01*
X78955210Y32443750D01*
X79184716Y32214244D01*
X79198026Y32198026D01*
X79262740Y32144916D01*
X79336573Y32105452D01*
X79416686Y32081150D01*
X79479126Y32075000D01*
X79479133Y32075000D01*
X79500000Y32072945D01*
X79520867Y32075000D01*
X84249982Y32075000D01*
X84212761Y32055105D01*
X84171876Y32021551D01*
X84169081Y32019257D01*
X84148047Y32001995D01*
X84134742Y31985783D01*
X81248960Y29100000D01*
X81190905Y29100000D01*
X81074986Y29076942D01*
X80965793Y29031713D01*
X80867522Y28966050D01*
X80783950Y28882478D01*
X80718287Y28784207D01*
X80673058Y28675014D01*
X80650000Y28559095D01*
X80650000Y28440905D01*
X80673058Y28324986D01*
X80718287Y28215793D01*
X80783950Y28117522D01*
X80867522Y28033950D01*
X80965793Y27968287D01*
X81074986Y27923058D01*
X81190905Y27900000D01*
X81309095Y27900000D01*
X81425014Y27923058D01*
X81534207Y27968287D01*
X81632478Y28033950D01*
X81716050Y28117522D01*
X81750000Y28168331D01*
X81783950Y28117522D01*
X81867522Y28033950D01*
X81965793Y27968287D01*
X82074986Y27923058D01*
X82190905Y27900000D01*
X82309095Y27900000D01*
X82425014Y27923058D01*
X82534207Y27968287D01*
X82632478Y28033950D01*
X82716050Y28117522D01*
X82781713Y28215793D01*
X82826942Y28324986D01*
X82850000Y28440905D01*
X82850000Y28498960D01*
X84565280Y30214239D01*
X84565285Y30214245D01*
X84676040Y30325000D01*
X88076472Y30325000D01*
X88117522Y30283950D01*
X88215793Y30218287D01*
X88324986Y30173058D01*
X88440905Y30150000D01*
X88559095Y30150000D01*
X88675014Y30173058D01*
X88784207Y30218287D01*
X88882478Y30283950D01*
X88966050Y30367522D01*
X89031713Y30465793D01*
X89076942Y30574986D01*
X89100000Y30690905D01*
X89100000Y30809095D01*
X89076942Y30925014D01*
X89031713Y31034207D01*
X88966050Y31132478D01*
X88882478Y31216050D01*
X88794222Y31275021D01*
X88876451Y31275021D01*
X88917501Y31233971D01*
X89015772Y31168308D01*
X89124965Y31123079D01*
X89240884Y31100021D01*
X89359074Y31100021D01*
X89474993Y31123079D01*
X89584186Y31168308D01*
X89682457Y31233971D01*
X89766029Y31317543D01*
X89831692Y31415814D01*
X89876921Y31525007D01*
X89899979Y31640926D01*
X89899979Y31759116D01*
X89876921Y31875035D01*
X89831692Y31984228D01*
X89771040Y32075000D01*
X89826472Y32075000D01*
X89867522Y32033950D01*
X89965793Y31968287D01*
X90074986Y31923058D01*
X90190905Y31900000D01*
X90309095Y31900000D01*
X90425014Y31923058D01*
X90534207Y31968287D01*
X90632478Y32033950D01*
X90716050Y32117522D01*
X90781713Y32215793D01*
X90826942Y32324986D01*
X90850000Y32440905D01*
X90850000Y32559095D01*
X90826942Y32675014D01*
X90781713Y32784207D01*
X90716050Y32882478D01*
X90632478Y32966050D01*
X90534207Y33031713D01*
X90425014Y33076942D01*
X90309095Y33100000D01*
X90190905Y33100000D01*
X90074986Y33076942D01*
X89965793Y33031713D01*
X89867522Y32966050D01*
X89826472Y32925000D01*
X89254456Y32925000D01*
X89281713Y32965793D01*
X89326942Y33074986D01*
X89350000Y33190905D01*
X89350000Y33309095D01*
X89326942Y33425014D01*
X89281713Y33534207D01*
X89216050Y33632478D01*
X89132478Y33716050D01*
X89034207Y33781713D01*
X88925014Y33826942D01*
X88809095Y33850000D01*
X88751041Y33850000D01*
X88526040Y34075000D01*
X92576472Y34075000D01*
X92617522Y34033950D01*
X92715793Y33968287D01*
X92822887Y33923927D01*
X90248960Y31350000D01*
X90190905Y31350000D01*
X90074986Y31326942D01*
X89965793Y31281713D01*
X89867522Y31216050D01*
X89783950Y31132478D01*
X89718287Y31034207D01*
X89673058Y30925014D01*
X89650000Y30809095D01*
X89650000Y30690905D01*
X89673058Y30574986D01*
X89718287Y30465793D01*
X89783950Y30367522D01*
X89867522Y30283950D01*
X89965793Y30218287D01*
X90074986Y30173058D01*
X90190905Y30150000D01*
X90309095Y30150000D01*
X90425014Y30173058D01*
X90534207Y30218287D01*
X90632478Y30283950D01*
X90716050Y30367522D01*
X90781713Y30465793D01*
X90826942Y30574986D01*
X90850000Y30690905D01*
X90850000Y30748960D01*
X92325001Y32223961D01*
X92325000Y31173528D01*
X92283950Y31132478D01*
X92218287Y31034207D01*
X92173058Y30925014D01*
X92150000Y30809095D01*
X92150000Y30690905D01*
X92173058Y30574986D01*
X92218287Y30465793D01*
X92283950Y30367522D01*
X92367522Y30283950D01*
X92465793Y30218287D01*
X92574986Y30173058D01*
X92690905Y30150000D01*
X92809095Y30150000D01*
X92925014Y30173058D01*
X93034207Y30218287D01*
X93132478Y30283950D01*
X93216050Y30367522D01*
X93281713Y30465793D01*
X93326942Y30574986D01*
X93350000Y30690905D01*
X93350000Y30809095D01*
X93326942Y30925014D01*
X93281713Y31034207D01*
X93216050Y31132478D01*
X93175000Y31173528D01*
X93175000Y32073960D01*
X94332556Y33231516D01*
X112167328Y33231516D01*
X112218142Y33055000D01*
X113920000Y33055000D01*
X113920000Y34055000D01*
X114220000Y34055000D01*
X114220000Y33055000D01*
X115921858Y33055000D01*
X115972672Y33231516D01*
X118967328Y33231516D01*
X119018142Y33055000D01*
X120720000Y33055000D01*
X120720000Y34055000D01*
X119920000Y34055000D01*
X119698528Y34003640D01*
X119491332Y33910059D01*
X119306374Y33777855D01*
X119150761Y33612107D01*
X119030474Y33419186D01*
X118967328Y33231516D01*
X115972672Y33231516D01*
X115909526Y33419186D01*
X115789239Y33612107D01*
X115633626Y33777855D01*
X115448668Y33910059D01*
X115241472Y34003640D01*
X115020000Y34055000D01*
X114220000Y34055000D01*
X113920000Y34055000D01*
X113120000Y34055000D01*
X112898528Y34003640D01*
X112691332Y33910059D01*
X112506374Y33777855D01*
X112350761Y33612107D01*
X112230474Y33419186D01*
X112167328Y33231516D01*
X94332556Y33231516D01*
X97676041Y36575000D01*
X101576472Y36575000D01*
X101617522Y36533950D01*
X101715793Y36468287D01*
X101824986Y36423058D01*
X101940905Y36400000D01*
X102059095Y36400000D01*
X102175014Y36423058D01*
X102284207Y36468287D01*
X102382478Y36533950D01*
X102466050Y36617522D01*
X102531713Y36715793D01*
X102576942Y36824986D01*
X102600000Y36940905D01*
X102600000Y37059095D01*
X102576942Y37175014D01*
X102531713Y37284207D01*
X102466050Y37382478D01*
X102382478Y37466050D01*
X102284207Y37531713D01*
X102175014Y37576942D01*
X102059095Y37600000D01*
X101940905Y37600000D01*
X101824986Y37576942D01*
X101715793Y37531713D01*
X101617522Y37466050D01*
X101576472Y37425000D01*
X97526041Y37425000D01*
X98785763Y38684722D01*
X98801974Y38698026D01*
X98855084Y38762740D01*
X98894548Y38836573D01*
X98918850Y38916686D01*
X98925000Y38979126D01*
X98925000Y38979133D01*
X98927055Y39000000D01*
X98925000Y39020867D01*
X98925000Y42729133D01*
X98927055Y42750000D01*
X98925000Y42770867D01*
X98925000Y42770874D01*
X98918850Y42833314D01*
X98894548Y42913427D01*
X98894548Y42913428D01*
X98876055Y42948026D01*
X98855084Y42987260D01*
X98801974Y43051974D01*
X98785762Y43065279D01*
X98315283Y43535757D01*
X98301974Y43551974D01*
X98237260Y43605084D01*
X98163427Y43644548D01*
X98083314Y43668850D01*
X98020874Y43675000D01*
X98020867Y43675000D01*
X98000000Y43677055D01*
X97979133Y43675000D01*
X96520866Y43675000D01*
X96499999Y43677055D01*
X96479132Y43675000D01*
X96479126Y43675000D01*
X96425098Y43669679D01*
X96416685Y43668850D01*
X96392383Y43661478D01*
X96336573Y43644548D01*
X96262740Y43605084D01*
X96198026Y43551974D01*
X96184721Y43535762D01*
X95814243Y43165283D01*
X95798026Y43151974D01*
X95744916Y43087259D01*
X95705452Y43013426D01*
X95688368Y42957108D01*
X95590030Y42891401D01*
X95478599Y42779970D01*
X95465000Y42759618D01*
X95451401Y42779970D01*
X95339970Y42891401D01*
X95208942Y42978951D01*
X95063351Y43039257D01*
X94908793Y43070000D01*
X94751207Y43070000D01*
X94596649Y43039257D01*
X94451058Y42978951D01*
X94320030Y42891401D01*
X94208599Y42779970D01*
X94195000Y42759618D01*
X94181401Y42779970D01*
X94069970Y42891401D01*
X93938942Y42978951D01*
X93793351Y43039257D01*
X93638793Y43070000D01*
X93481207Y43070000D01*
X93326649Y43039257D01*
X93181058Y42978951D01*
X93050030Y42891401D01*
X92938599Y42779970D01*
X92925000Y42759618D01*
X92911401Y42779970D01*
X92799970Y42891401D01*
X92668942Y42978951D01*
X92523351Y43039257D01*
X92368793Y43070000D01*
X92211207Y43070000D01*
X92056649Y43039257D01*
X91911058Y42978951D01*
X91780030Y42891401D01*
X91668599Y42779970D01*
X91655000Y42759618D01*
X91641401Y42779970D01*
X91529970Y42891401D01*
X91398942Y42978951D01*
X91253351Y43039257D01*
X91098793Y43070000D01*
X90941207Y43070000D01*
X90786649Y43039257D01*
X90641058Y42978951D01*
X90510030Y42891401D01*
X90398599Y42779970D01*
X90385000Y42759618D01*
X90371401Y42779970D01*
X90259970Y42891401D01*
X90128942Y42978951D01*
X89983351Y43039257D01*
X89828793Y43070000D01*
X89671207Y43070000D01*
X89516649Y43039257D01*
X89371058Y42978951D01*
X89240030Y42891401D01*
X89128599Y42779970D01*
X89041049Y42648942D01*
X88980743Y42503351D01*
X88950000Y42348793D01*
X88950000Y42191207D01*
X88980743Y42036649D01*
X89041049Y41891058D01*
X89121093Y41771263D01*
X89082523Y41750647D01*
X89036842Y41713158D01*
X88999353Y41667477D01*
X88971496Y41615360D01*
X88954341Y41558810D01*
X88948549Y41500000D01*
X88948549Y40500000D01*
X88954341Y40441190D01*
X88971496Y40384640D01*
X88999353Y40332523D01*
X89036842Y40286842D01*
X89082523Y40249353D01*
X89134640Y40221496D01*
X89191190Y40204341D01*
X89250000Y40198549D01*
X90250000Y40198549D01*
X90308810Y40204341D01*
X90365360Y40221496D01*
X90417477Y40249353D01*
X90463158Y40286842D01*
X90500647Y40332523D01*
X90521263Y40371093D01*
X90595000Y40321824D01*
X90595000Y40313767D01*
X90595001Y39675000D01*
X88426040Y39675000D01*
X87675000Y40426040D01*
X87675000Y43866790D01*
X99337118Y43866790D01*
X99337118Y43490404D01*
X99410548Y43121250D01*
X99554584Y42773515D01*
X99763693Y42460562D01*
X100029838Y42194417D01*
X100342791Y41985308D01*
X100690526Y41841272D01*
X101059680Y41767842D01*
X101436066Y41767842D01*
X101805220Y41841272D01*
X102152955Y41985308D01*
X102465908Y42194417D01*
X102732053Y42460562D01*
X102941162Y42773515D01*
X103085198Y43121250D01*
X103158628Y43490404D01*
X103158628Y43866790D01*
X103085198Y44235944D01*
X102941162Y44583679D01*
X102732053Y44896632D01*
X102465908Y45162777D01*
X102152955Y45371886D01*
X101805220Y45515922D01*
X101436066Y45589352D01*
X101059680Y45589352D01*
X100690526Y45515922D01*
X100342791Y45371886D01*
X100029838Y45162777D01*
X99763693Y44896632D01*
X99554584Y44583679D01*
X99410548Y44235944D01*
X99337118Y43866790D01*
X87675000Y43866790D01*
X87675000Y44979149D01*
X87677055Y45000016D01*
X87675000Y45020883D01*
X87675000Y45020890D01*
X87668850Y45083330D01*
X87644548Y45163443D01*
X87644548Y45163444D01*
X87616558Y45215809D01*
X87605084Y45237276D01*
X87551974Y45301990D01*
X87535762Y45315295D01*
X87350000Y45501057D01*
X87350000Y45559111D01*
X87326942Y45675030D01*
X87281713Y45784223D01*
X87216050Y45882494D01*
X87132478Y45966066D01*
X87034207Y46031729D01*
X86925014Y46076958D01*
X86809095Y46100016D01*
X86690905Y46100016D01*
X86574986Y46076958D01*
X86465793Y46031729D01*
X86367522Y45966066D01*
X86283950Y45882494D01*
X86218287Y45784223D01*
X86173058Y45675030D01*
X86150000Y45559111D01*
X86150000Y45440921D01*
X86173058Y45325002D01*
X86218287Y45215809D01*
X86283950Y45117538D01*
X86367522Y45033966D01*
X86465793Y44968303D01*
X86574986Y44923074D01*
X86690905Y44900016D01*
X86748959Y44900016D01*
X86825001Y44823974D01*
X86825000Y40270867D01*
X86822945Y40250000D01*
X86825000Y40229133D01*
X86825000Y40229127D01*
X86831150Y40166687D01*
X86855452Y40086574D01*
X86894916Y40012741D01*
X86948026Y39948026D01*
X86964244Y39934716D01*
X87934716Y38964244D01*
X87948026Y38948026D01*
X88012740Y38894916D01*
X88086573Y38855452D01*
X88166686Y38831150D01*
X88250000Y38822944D01*
X88270874Y38825000D01*
X90823960Y38825000D01*
X92434719Y37214240D01*
X92448026Y37198026D01*
X92512740Y37144916D01*
X92586573Y37105452D01*
X92642383Y37088522D01*
X92666685Y37081150D01*
X92675098Y37080321D01*
X92729126Y37075000D01*
X92729132Y37075000D01*
X92749999Y37072945D01*
X92770866Y37075000D01*
X94076472Y37075000D01*
X94117522Y37033950D01*
X94215793Y36968287D01*
X94324986Y36923058D01*
X94440905Y36900000D01*
X94559095Y36900000D01*
X94675014Y36923058D01*
X94784207Y36968287D01*
X94882478Y37033950D01*
X94966050Y37117522D01*
X95031713Y37215793D01*
X95076942Y37324986D01*
X95100000Y37440905D01*
X95100000Y37559095D01*
X95076942Y37675014D01*
X95031713Y37784207D01*
X94966050Y37882478D01*
X94882478Y37966050D01*
X94784207Y38031713D01*
X94675014Y38076942D01*
X94559095Y38100000D01*
X94440905Y38100000D01*
X94324986Y38076942D01*
X94215793Y38031713D01*
X94117522Y37966050D01*
X94076472Y37925000D01*
X92926041Y37925000D01*
X91445000Y39406040D01*
X91445000Y40321824D01*
X91529970Y40378599D01*
X91626071Y40474700D01*
X91654996Y40434946D01*
X91777434Y40321920D01*
X91919570Y40234952D01*
X92010964Y40197106D01*
X92140000Y40252400D01*
X92140000Y40850000D01*
X92440000Y40850000D01*
X92440000Y40252400D01*
X92569036Y40197106D01*
X92660430Y40234952D01*
X92802566Y40321920D01*
X92925000Y40434942D01*
X93047434Y40321920D01*
X93189570Y40234952D01*
X93280964Y40197106D01*
X93410000Y40252400D01*
X93410000Y40850000D01*
X92440000Y40850000D01*
X92140000Y40850000D01*
X92120000Y40850000D01*
X92120000Y41150000D01*
X92140000Y41150000D01*
X92140000Y41170000D01*
X92440000Y41170000D01*
X92440000Y41150000D01*
X93410000Y41150000D01*
X93410000Y41170000D01*
X93710000Y41170000D01*
X93710000Y41150000D01*
X93730000Y41150000D01*
X93730000Y40850000D01*
X93710000Y40850000D01*
X93710000Y40252400D01*
X93839036Y40197106D01*
X93930430Y40234952D01*
X94072566Y40321920D01*
X94195004Y40434946D01*
X94223929Y40474700D01*
X94320030Y40378599D01*
X94451058Y40291049D01*
X94596649Y40230743D01*
X94751207Y40200000D01*
X94908793Y40200000D01*
X95063351Y40230743D01*
X95208942Y40291049D01*
X95339970Y40378599D01*
X95436071Y40474700D01*
X95464996Y40434946D01*
X95587434Y40321920D01*
X95729570Y40234952D01*
X95820964Y40197106D01*
X95950000Y40252400D01*
X95950000Y40850000D01*
X95930000Y40850000D01*
X95930000Y41150000D01*
X95950000Y41150000D01*
X95950000Y41170000D01*
X96250000Y41170000D01*
X96250000Y41150000D01*
X96270000Y41150000D01*
X96270000Y40850000D01*
X96250000Y40850000D01*
X96250000Y40252400D01*
X96379036Y40197106D01*
X96470430Y40234952D01*
X96612566Y40321920D01*
X96735004Y40434946D01*
X96763929Y40474700D01*
X96860030Y40378599D01*
X96991058Y40291049D01*
X97136649Y40230743D01*
X97291207Y40200000D01*
X97448793Y40200000D01*
X97603351Y40230743D01*
X97748942Y40291049D01*
X97879970Y40378599D01*
X97991401Y40490030D01*
X98075000Y40615146D01*
X98075000Y39176041D01*
X93576073Y34677113D01*
X93531713Y34784207D01*
X93466050Y34882478D01*
X93382478Y34966050D01*
X93284207Y35031713D01*
X93175014Y35076942D01*
X93059095Y35100000D01*
X92940905Y35100000D01*
X92824986Y35076942D01*
X92715793Y35031713D01*
X92617522Y34966050D01*
X92576472Y34925000D01*
X85676041Y34925000D01*
X82315283Y38285757D01*
X82301974Y38301974D01*
X82237260Y38355084D01*
X82163427Y38394548D01*
X82083314Y38418850D01*
X82020874Y38425000D01*
X82020867Y38425000D01*
X82000000Y38427055D01*
X81979133Y38425000D01*
X80423528Y38425000D01*
X80382478Y38466050D01*
X80284207Y38531713D01*
X80175014Y38576942D01*
X80059095Y38600000D01*
X79940905Y38600000D01*
X79824986Y38576942D01*
X79715793Y38531713D01*
X79617522Y38466050D01*
X79533950Y38382478D01*
X79468287Y38284207D01*
X79423058Y38175014D01*
X79400000Y38059095D01*
X79400000Y37940905D01*
X79423058Y37824986D01*
X79468287Y37715793D01*
X79533950Y37617522D01*
X79617522Y37533950D01*
X79715793Y37468287D01*
X79824986Y37423058D01*
X79940905Y37400000D01*
X80051472Y37400000D01*
X80033950Y37382478D01*
X79968287Y37284207D01*
X79923058Y37175014D01*
X79900000Y37059095D01*
X79900000Y36940905D01*
X79923058Y36824986D01*
X79968287Y36715793D01*
X80033950Y36617522D01*
X80117522Y36533950D01*
X80215793Y36468287D01*
X80324986Y36423058D01*
X80440905Y36400000D01*
X80498960Y36400000D01*
X83934721Y32964238D01*
X83948026Y32948026D01*
X83976083Y32925000D01*
X79676040Y32925000D01*
X79556250Y33044790D01*
X79556250Y33102845D01*
X79533192Y33218764D01*
X79487963Y33327957D01*
X79422300Y33426228D01*
X79338728Y33509800D01*
X79240457Y33575463D01*
X79131264Y33620692D01*
X79015345Y33643750D01*
X78897155Y33643750D01*
X78781236Y33620692D01*
X78672043Y33575463D01*
X78573772Y33509800D01*
X78490200Y33426228D01*
X78424537Y33327957D01*
X78379308Y33218764D01*
X78356250Y33102845D01*
X72703885Y33102845D01*
X80785822Y41184781D01*
X80802034Y41198086D01*
X80855144Y41262800D01*
X80894608Y41336633D01*
X80918910Y41416746D01*
X80925060Y41479186D01*
X80925060Y41479193D01*
X80927115Y41500060D01*
X80925060Y41520927D01*
X80925060Y41825000D01*
X84826472Y41825000D01*
X84867522Y41783950D01*
X84965793Y41718287D01*
X85074986Y41673058D01*
X85190905Y41650000D01*
X85309095Y41650000D01*
X85425014Y41673058D01*
X85534207Y41718287D01*
X85632478Y41783950D01*
X85716050Y41867522D01*
X85781713Y41965793D01*
X85825001Y42070300D01*
X85825000Y37520867D01*
X85822945Y37500000D01*
X85825000Y37479133D01*
X85825000Y37479127D01*
X85826068Y37468287D01*
X85831150Y37416686D01*
X85831422Y37415791D01*
X85855452Y37336574D01*
X85894916Y37262741D01*
X85948026Y37198026D01*
X85964243Y37184717D01*
X87684721Y35464238D01*
X87698026Y35448026D01*
X87762740Y35394916D01*
X87810855Y35369199D01*
X87836572Y35355452D01*
X87898809Y35336573D01*
X87916686Y35331150D01*
X87979126Y35325000D01*
X87979133Y35325000D01*
X88000000Y35322945D01*
X88020867Y35325000D01*
X89326472Y35325000D01*
X89367522Y35283950D01*
X89465793Y35218287D01*
X89574986Y35173058D01*
X89690905Y35150000D01*
X89809095Y35150000D01*
X89925014Y35173058D01*
X90034207Y35218287D01*
X90132478Y35283950D01*
X90216050Y35367522D01*
X90281713Y35465793D01*
X90326942Y35574986D01*
X90350000Y35690905D01*
X90350000Y35809095D01*
X90326942Y35925014D01*
X90281713Y36034207D01*
X90216050Y36132478D01*
X90132478Y36216050D01*
X90034207Y36281713D01*
X89925014Y36326942D01*
X89809095Y36350000D01*
X89690905Y36350000D01*
X89574986Y36326942D01*
X89465793Y36281713D01*
X89367522Y36216050D01*
X89326472Y36175000D01*
X88176041Y36175000D01*
X86675000Y37676040D01*
X86675000Y42729134D01*
X86677055Y42750001D01*
X86675000Y42770868D01*
X86675000Y42770874D01*
X86668850Y42833314D01*
X86644548Y42913427D01*
X86605084Y42987260D01*
X86551974Y43051974D01*
X86535762Y43065279D01*
X86100000Y43501040D01*
X86100000Y43559095D01*
X86076942Y43675014D01*
X86031713Y43784207D01*
X85966050Y43882478D01*
X85882478Y43966050D01*
X85784207Y44031713D01*
X85675014Y44076942D01*
X85559095Y44100000D01*
X85440905Y44100000D01*
X85324986Y44076942D01*
X85215793Y44031713D01*
X85117522Y43966050D01*
X85033950Y43882478D01*
X84968287Y43784207D01*
X84923058Y43675014D01*
X84900000Y43559095D01*
X84900000Y43440905D01*
X84923058Y43324986D01*
X84968287Y43215793D01*
X85033950Y43117522D01*
X85117522Y43033950D01*
X85215793Y42968287D01*
X85324986Y42923058D01*
X85440905Y42900000D01*
X85498960Y42900000D01*
X85825001Y42573958D01*
X85825001Y42429700D01*
X85781713Y42534207D01*
X85716050Y42632478D01*
X85632478Y42716050D01*
X85534207Y42781713D01*
X85425014Y42826942D01*
X85309095Y42850000D01*
X85190905Y42850000D01*
X85074986Y42826942D01*
X84965793Y42781713D01*
X84867522Y42716050D01*
X84826472Y42675000D01*
X80923588Y42675000D01*
X80882538Y42716050D01*
X80784267Y42781713D01*
X80675074Y42826942D01*
X80559155Y42850000D01*
X80440965Y42850000D01*
X80325046Y42826942D01*
X80215853Y42781713D01*
X80117582Y42716050D01*
X80034010Y42632478D01*
X79968347Y42534207D01*
X79923118Y42425014D01*
X79900060Y42309095D01*
X79900060Y42190905D01*
X79923118Y42074986D01*
X79968347Y41965793D01*
X80034010Y41867522D01*
X80075061Y41826471D01*
X80075061Y41676102D01*
X77425000Y39026041D01*
X77425000Y39479134D01*
X77427055Y39500001D01*
X77425000Y39520868D01*
X77425000Y39520874D01*
X77418850Y39583314D01*
X77418314Y39585083D01*
X77400275Y39644547D01*
X77394548Y39663427D01*
X77355084Y39737260D01*
X77301974Y39801974D01*
X77285763Y39815278D01*
X76850000Y40251040D01*
X76850000Y40309095D01*
X76826942Y40425014D01*
X76781713Y40534207D01*
X76716050Y40632478D01*
X76632478Y40716050D01*
X76534207Y40781713D01*
X76425014Y40826942D01*
X76309095Y40850000D01*
X76190905Y40850000D01*
X76074986Y40826942D01*
X75965793Y40781713D01*
X75867522Y40716050D01*
X75783950Y40632478D01*
X75718287Y40534207D01*
X75673058Y40425014D01*
X75650000Y40309095D01*
X75650000Y40190905D01*
X75673058Y40074986D01*
X75718287Y39965793D01*
X75783950Y39867522D01*
X75867522Y39783950D01*
X75918331Y39750000D01*
X75867522Y39716050D01*
X75783950Y39632478D01*
X75718287Y39534207D01*
X75673058Y39425014D01*
X75650000Y39309095D01*
X75650000Y39251041D01*
X72823960Y36425000D01*
X59270866Y36425000D01*
X59249999Y36427055D01*
X59229132Y36425000D01*
X59229126Y36425000D01*
X59175098Y36419679D01*
X59166685Y36418850D01*
X59142383Y36411478D01*
X59086573Y36394548D01*
X59012740Y36355084D01*
X58948026Y36301974D01*
X58934721Y36285762D01*
X56964243Y34315283D01*
X56948026Y34301974D01*
X56894916Y34237259D01*
X56855452Y34163426D01*
X56841527Y34117522D01*
X56831151Y34083315D01*
X56831150Y34083313D01*
X56825000Y34020873D01*
X56825000Y34020867D01*
X56822945Y34000000D01*
X54210555Y34000000D01*
X54210555Y37415789D01*
X68767929Y37415789D01*
X68768624Y37415857D01*
X68773620Y37415875D01*
X68791001Y37417641D01*
X68808468Y37417519D01*
X68814027Y37418064D01*
X69479461Y37488003D01*
X69514950Y37495288D01*
X69550586Y37502086D01*
X69555933Y37503701D01*
X70195109Y37701559D01*
X70228522Y37715605D01*
X70262144Y37729189D01*
X70267076Y37731811D01*
X70855648Y38050051D01*
X70885704Y38070324D01*
X70916039Y38090175D01*
X70920368Y38093705D01*
X71435917Y38520204D01*
X71461482Y38545948D01*
X71487366Y38571295D01*
X71490926Y38575598D01*
X71913816Y39094113D01*
X71933863Y39124287D01*
X71954361Y39154223D01*
X71957017Y39159136D01*
X72271140Y39749916D01*
X72284947Y39783414D01*
X72299237Y39816756D01*
X72300889Y39822091D01*
X72494280Y40462633D01*
X72501326Y40498218D01*
X72508859Y40533658D01*
X72509443Y40539213D01*
X72574736Y41205118D01*
X72574736Y41205122D01*
X72576645Y41224505D01*
X72576645Y43866790D01*
X74337118Y43866790D01*
X74337118Y43490404D01*
X74410548Y43121250D01*
X74554584Y42773515D01*
X74763693Y42460562D01*
X75029838Y42194417D01*
X75342791Y41985308D01*
X75690526Y41841272D01*
X76059680Y41767842D01*
X76436066Y41767842D01*
X76805220Y41841272D01*
X77152955Y41985308D01*
X77465908Y42194417D01*
X77732053Y42460562D01*
X77941162Y42773515D01*
X78085198Y43121250D01*
X78158628Y43490404D01*
X78158628Y43866790D01*
X78085198Y44235944D01*
X77941162Y44583679D01*
X77732053Y44896632D01*
X77465908Y45162777D01*
X77152955Y45371886D01*
X76805220Y45515922D01*
X76436066Y45589352D01*
X76059680Y45589352D01*
X75690526Y45515922D01*
X75342791Y45371886D01*
X75029838Y45162777D01*
X74763693Y44896632D01*
X74554584Y44583679D01*
X74410548Y44235944D01*
X74337118Y43866790D01*
X72576645Y43866790D01*
X72576645Y47781741D01*
X77502022Y48336214D01*
X82791688Y48782540D01*
X88091661Y49080991D01*
X93397995Y49231344D01*
X98706382Y49233478D01*
X104014963Y49087330D01*
G37*
%TD.AperFunction*%
D22*
X60523960Y30375000D02*
X60394239Y30375000D01*
X60404888Y30385649D01*
X60476022Y30492110D01*
X60525021Y30610402D01*
X60550000Y30735981D01*
X60550000Y30864019D01*
X60525021Y30989598D01*
X60476022Y31107890D01*
X60426324Y31182269D01*
X60503095Y31259040D01*
X60428452Y31333683D01*
X60544130Y31367422D01*
X60586881Y31498516D01*
X60603236Y31635431D01*
X60592566Y31772905D01*
X60555281Y31905657D01*
X60544130Y31932578D01*
X60428450Y31966318D01*
X60112132Y31650000D01*
X60126275Y31635858D01*
X59940417Y31450000D01*
X59859583Y31450000D01*
X59673726Y31635858D01*
X59687868Y31650000D01*
X59371550Y31966318D01*
X59255870Y31932578D01*
X59224628Y31836774D01*
X59205281Y31905657D01*
X59194130Y31932578D01*
X59078450Y31966318D01*
X58762132Y31650000D01*
X58776275Y31635858D01*
X58590417Y31450000D01*
X58509583Y31450000D01*
X58323726Y31635858D01*
X58337868Y31650000D01*
X58021550Y31966318D01*
X57905870Y31932578D01*
X57863119Y31801484D01*
X57846764Y31664569D01*
X57857434Y31527095D01*
X57894719Y31394343D01*
X57905870Y31367422D01*
X58021548Y31333683D01*
X57946905Y31259040D01*
X58023676Y31182269D01*
X57973978Y31107890D01*
X57924979Y30989598D01*
X57900000Y30864019D01*
X57900000Y30735981D01*
X57924979Y30610402D01*
X57973978Y30492110D01*
X58045112Y30385649D01*
X58055761Y30375000D01*
X58045112Y30364351D01*
X57973978Y30257890D01*
X57924979Y30139598D01*
X57900000Y30014019D01*
X57900000Y29885981D01*
X57924979Y29760402D01*
X57973978Y29642110D01*
X58045112Y29535649D01*
X58055761Y29525000D01*
X58045112Y29514351D01*
X57973978Y29407890D01*
X57924979Y29289598D01*
X57900000Y29164019D01*
X57900000Y29035981D01*
X57924979Y28910402D01*
X57973978Y28792110D01*
X58045112Y28685649D01*
X58055761Y28675000D01*
X58045112Y28664351D01*
X57973978Y28557890D01*
X57924979Y28439598D01*
X57900000Y28314019D01*
X57900000Y28185981D01*
X57924979Y28060402D01*
X57973978Y27942110D01*
X58045112Y27835649D01*
X58055761Y27825000D01*
X58026041Y27825000D01*
X57675000Y28176040D01*
X57675000Y32358638D01*
X57725271Y32318299D01*
X57866810Y32244635D01*
X58020000Y32200000D01*
X58239967Y32200000D01*
X58233682Y32178450D01*
X58550000Y31862132D01*
X58866318Y32178450D01*
X58832578Y32294130D01*
X58770000Y32314537D01*
X58770000Y32850000D01*
X59070000Y32850000D01*
X59070000Y32200000D01*
X59589967Y32200000D01*
X59583682Y32178450D01*
X59900000Y31862132D01*
X60216318Y32178450D01*
X60182578Y32294130D01*
X60112316Y32317043D01*
X60114729Y32318299D01*
X60239177Y32418160D01*
X60341752Y32540381D01*
X60418512Y32680265D01*
X60422672Y32728919D01*
X60366532Y32850000D01*
X59070000Y32850000D01*
X58770000Y32850000D01*
X58750000Y32850000D01*
X58750000Y33150000D01*
X58770000Y33150000D01*
X58770000Y33800000D01*
X59070000Y33800000D01*
X59070000Y33150000D01*
X60366532Y33150000D01*
X60422672Y33271081D01*
X60418512Y33319735D01*
X60341752Y33459619D01*
X60239177Y33581840D01*
X60114729Y33681701D01*
X59973190Y33755365D01*
X59820000Y33800000D01*
X59070000Y33800000D01*
X58770000Y33800000D01*
X58020000Y33800000D01*
X57866810Y33755365D01*
X57725271Y33681701D01*
X57675000Y33641362D01*
X57675000Y33823960D01*
X59426041Y35575000D01*
X65723959Y35575000D01*
X60523960Y30375000D01*
%TA.AperFunction,Conductor*%
D23*
G36*
X60523960Y30375000D02*
G01*
X60394239Y30375000D01*
X60404888Y30385649D01*
X60476022Y30492110D01*
X60525021Y30610402D01*
X60550000Y30735981D01*
X60550000Y30864019D01*
X60525021Y30989598D01*
X60476022Y31107890D01*
X60426324Y31182269D01*
X60503095Y31259040D01*
X60428452Y31333683D01*
X60544130Y31367422D01*
X60586881Y31498516D01*
X60603236Y31635431D01*
X60592566Y31772905D01*
X60555281Y31905657D01*
X60544130Y31932578D01*
X60428450Y31966318D01*
X60112132Y31650000D01*
X60126275Y31635858D01*
X59940417Y31450000D01*
X59859583Y31450000D01*
X59673726Y31635858D01*
X59687868Y31650000D01*
X59371550Y31966318D01*
X59255870Y31932578D01*
X59224628Y31836774D01*
X59205281Y31905657D01*
X59194130Y31932578D01*
X59078450Y31966318D01*
X58762132Y31650000D01*
X58776275Y31635858D01*
X58590417Y31450000D01*
X58509583Y31450000D01*
X58323726Y31635858D01*
X58337868Y31650000D01*
X58021550Y31966318D01*
X57905870Y31932578D01*
X57863119Y31801484D01*
X57846764Y31664569D01*
X57857434Y31527095D01*
X57894719Y31394343D01*
X57905870Y31367422D01*
X58021548Y31333683D01*
X57946905Y31259040D01*
X58023676Y31182269D01*
X57973978Y31107890D01*
X57924979Y30989598D01*
X57900000Y30864019D01*
X57900000Y30735981D01*
X57924979Y30610402D01*
X57973978Y30492110D01*
X58045112Y30385649D01*
X58055761Y30375000D01*
X58045112Y30364351D01*
X57973978Y30257890D01*
X57924979Y30139598D01*
X57900000Y30014019D01*
X57900000Y29885981D01*
X57924979Y29760402D01*
X57973978Y29642110D01*
X58045112Y29535649D01*
X58055761Y29525000D01*
X58045112Y29514351D01*
X57973978Y29407890D01*
X57924979Y29289598D01*
X57900000Y29164019D01*
X57900000Y29035981D01*
X57924979Y28910402D01*
X57973978Y28792110D01*
X58045112Y28685649D01*
X58055761Y28675000D01*
X58045112Y28664351D01*
X57973978Y28557890D01*
X57924979Y28439598D01*
X57900000Y28314019D01*
X57900000Y28185981D01*
X57924979Y28060402D01*
X57973978Y27942110D01*
X58045112Y27835649D01*
X58055761Y27825000D01*
X58026041Y27825000D01*
X57675000Y28176040D01*
X57675000Y32358638D01*
X57725271Y32318299D01*
X57866810Y32244635D01*
X58020000Y32200000D01*
X58239967Y32200000D01*
X58233682Y32178450D01*
X58550000Y31862132D01*
X58866318Y32178450D01*
X58832578Y32294130D01*
X58770000Y32314537D01*
X58770000Y32850000D01*
X59070000Y32850000D01*
X59070000Y32200000D01*
X59589967Y32200000D01*
X59583682Y32178450D01*
X59900000Y31862132D01*
X60216318Y32178450D01*
X60182578Y32294130D01*
X60112316Y32317043D01*
X60114729Y32318299D01*
X60239177Y32418160D01*
X60341752Y32540381D01*
X60418512Y32680265D01*
X60422672Y32728919D01*
X60366532Y32850000D01*
X59070000Y32850000D01*
X58770000Y32850000D01*
X58750000Y32850000D01*
X58750000Y33150000D01*
X58770000Y33150000D01*
X58770000Y33800000D01*
X59070000Y33800000D01*
X59070000Y33150000D01*
X60366532Y33150000D01*
X60422672Y33271081D01*
X60418512Y33319735D01*
X60341752Y33459619D01*
X60239177Y33581840D01*
X60114729Y33681701D01*
X59973190Y33755365D01*
X59820000Y33800000D01*
X59070000Y33800000D01*
X58770000Y33800000D01*
X58020000Y33800000D01*
X57866810Y33755365D01*
X57725271Y33681701D01*
X57675000Y33641362D01*
X57675000Y33823960D01*
X59426041Y35575000D01*
X65723959Y35575000D01*
X60523960Y30375000D01*
G37*
%TD.AperFunction*%
%TD*%
M02*
