M48
; DRILL file {KiCad (5.1.5)-3} date 04.06.2020 21:45:25
; FORMAT={-:-/ absolute / inch / decimal}
; #@! TF.CreationDate,2020-06-04T21:45:25+02:00
; #@! TF.GenerationSoftware,Kicad,Pcbnew,(5.1.5)-3
; #@! TF.FileFunction,Plated,1,4,PTH
FMAT,2
INCH
T1C0.0118
T2C0.0197
T3C0.0217
T4C0.0236
T5C0.0256
T6C0.0315
T7C0.0394
T8C0.0787
%
G90
G05
T1
X2.4961Y-1.7441
X2.5433Y-1.815
X2.5827Y-1.8858
X2.5984Y-1.7047
X2.5984Y-1.7362
X2.6614Y-1.7047
X2.6614Y-1.7362
X2.7087Y-2.9409
X2.748Y-2.0669
X2.748Y-2.7756
X2.7638Y-1.7441
X2.7638Y-2.3425
X2.8976Y-3.0197
X2.9764Y-3.122
X3.0157Y-2.9409
X3.1496Y-2.7205
X3.1496Y-2.8543
X3.1496Y-2.9331
X3.2205Y-2.4055
X3.2441Y-2.4291
X3.2441Y-2.8071
X3.2441Y-4.5945
X3.2677Y-2.4055
X3.2756Y-2.3425
X3.2835Y-2.8071
X3.2913Y-2.6732
X3.315Y-3.122
X3.3228Y-2.5079
X3.3543Y-2.4213
X3.3937Y-2.7598
X3.4016Y-2.8858
X3.4173Y-2.7835
X3.4252Y-2.4213
X3.4252Y-2.8622
X3.4488Y-2.8386
X3.4724Y-2.7362
X3.4724Y-2.8071
X3.4803Y-3.1378
X3.4961Y-2.7126
X3.5197Y-2.689
X3.5433Y-2.6654
X3.5669Y-2.8622
X3.5748Y-1.8386
X3.5748Y-3.1378
X3.5827Y-2.8937
X3.5984Y-1.9567
X3.622Y-2.437
X3.622Y-2.8622
X3.6299Y-1.9567
X3.6378Y-1.7205
X3.6457Y-2.5394
X3.6457Y-2.5866
X3.6772Y-1.8858
X3.7008Y-1.7205
X3.7008Y-2.9488
X3.7008Y-3.0197
X3.7087Y-2.374
X3.7087Y-2.4449
X3.7165Y-2.7362
X3.7165Y-2.8937
X3.7402Y-1.9252
X3.7559Y-2.6654
X3.7638Y-2.7677
X3.8504Y-2.3425
X3.8504Y-2.4055
X3.8504Y-2.4685
X3.8504Y-2.9488
X3.8504Y-3.0197
X3.8504Y-4.5945
X3.9134Y-2.6654
X3.9291Y-2.2717
X3.9528Y-2.3661
X3.9921Y-2.4055
X4.011Y-2.2551
X4.0374Y-2.2756
X4.0472Y-1.9331
X4.0621Y-2.2551
X4.0787Y-1.9331
X4.1654Y-2.5787
X4.2441Y-2.5787
X4.2756Y-2.3268
X4.2756Y-2.3976
X4.2756Y-2.4685
T2
X3.2913Y-1.7283
X3.3858Y-2.2559
X3.4803Y-2.5236
X4.4409Y-1.6654
X4.4882Y-1.6654
X4.5984Y-1.8307
X4.5984Y-1.878
X4.5984Y-1.9488
X4.5984Y-2.0197
T5
X2.8083Y-2.5228
X2.8083Y-2.5728
X2.8083Y-2.6228
X2.8083Y-2.6728
X2.8083Y-2.7228
X2.8083Y-2.7728
X2.8083Y-2.8228
X2.8583Y-2.5228
X2.8583Y-2.5728
X2.8583Y-2.6228
X2.8583Y-2.6728
X2.8583Y-2.7228
X2.8583Y-2.7728
X2.8583Y-2.8228
T6
X4.4215Y-2.1111
X4.5593Y-2.1111
T7
X3.0929Y-3.2008
X3.0929Y-4.2008
X3.1929Y-3.2008
X3.1929Y-4.2008
X3.2929Y-3.2008
X3.3929Y-3.2008
X3.4929Y-3.2008
X3.5929Y-3.2008
X3.6929Y-3.2008
X3.7929Y-3.2008
X3.8929Y-3.2008
X3.8929Y-4.2008
X3.9929Y-3.2008
X3.9929Y-4.2008
T8
X4.4606Y-3.9173
X4.4606Y-4.1339
T3
G00X3.8425Y-1.7616
M15
G01X3.8425Y-1.7124
M16
G05
G00X3.8425Y-1.8937
M15
G01X3.8425Y-1.8346
M16
G05
G00X4.2677Y-1.7616
M15
G01X4.2677Y-1.7124
M16
G05
G00X4.2677Y-1.8937
M15
G01X4.2677Y-1.8346
M16
G05
T4
G00X2.8404Y-1.6831
M15
G01X2.8404Y-1.7579
M16
G05
G00X2.8404Y-1.9508
M15
G01X2.8404Y-2.0256
M16
G05
G00X3.173Y-1.6831
M15
G01X3.173Y-1.7579
M16
G05
G00X3.173Y-1.9508
M15
G01X3.173Y-2.0256
M16
G05
T0
M30
