%TF.GenerationSoftware,KiCad,Pcbnew,(5.1.5)-3*%
%TF.CreationDate,2020-03-31T18:07:01+02:00*%
%TF.ProjectId,loeti,6c6f6574-692e-46b6-9963-61645f706362,rev?*%
%TF.SameCoordinates,Original*%
%TF.FileFunction,Legend,Bot*%
%TF.FilePolarity,Positive*%
%FSLAX46Y46*%
G04 Gerber Fmt 4.6, Leading zero omitted, Abs format (unit mm)*
G04 Created by KiCad (PCBNEW (5.1.5)-3) date 2020-03-31 18:07:01*
%MOMM*%
%LPD*%
G04 APERTURE LIST*
%ADD10C,0.120000*%
%ADD11C,0.150000*%
G04 APERTURE END LIST*
D10*
%TO.C,U4*%
X105420000Y-103100000D02*
X75640000Y-103100000D01*
X75640000Y-103100000D02*
X75640000Y-92710000D01*
X75640000Y-92710000D02*
X105420000Y-92710000D01*
X105420000Y-92710000D02*
X105420000Y-103100000D01*
X102670000Y-107350000D02*
X102670000Y-106100000D01*
X102670000Y-107350000D02*
X100420000Y-107350000D01*
X76920000Y-80700000D02*
X71870000Y-80700000D01*
X76920000Y-106100000D02*
X71870000Y-106100000D01*
X97420000Y-106100000D02*
X82420000Y-106100000D01*
X108110000Y-106100000D02*
X108110000Y-80700000D01*
X108110000Y-80700000D02*
X103420000Y-80700000D01*
X71870000Y-80700000D02*
X71870000Y-106100000D01*
X103420000Y-106100000D02*
X108110000Y-106100000D01*
D11*
X108602380Y-103118095D02*
X109411904Y-103118095D01*
X109507142Y-103165714D01*
X109554761Y-103213333D01*
X109602380Y-103308571D01*
X109602380Y-103499047D01*
X109554761Y-103594285D01*
X109507142Y-103641904D01*
X109411904Y-103689523D01*
X108602380Y-103689523D01*
X108935714Y-104594285D02*
X109602380Y-104594285D01*
X108554761Y-104356190D02*
X109269047Y-104118095D01*
X109269047Y-104737142D01*
%TD*%
M02*
