%TF.GenerationSoftware,KiCad,Pcbnew,(5.1.5)-3*%
%TF.CreationDate,2020-05-07T11:23:43+02:00*%
%TF.ProjectId,loeti,6c6f6574-692e-46b6-9963-61645f706362,rev?*%
%TF.SameCoordinates,Original*%
%TF.FileFunction,Legend,Top*%
%TF.FilePolarity,Positive*%
%FSLAX46Y46*%
G04 Gerber Fmt 4.6, Leading zero omitted, Abs format (unit mm)*
G04 Created by KiCad (PCBNEW (5.1.5)-3) date 2020-05-07 11:23:43*
%MOMM*%
%LPD*%
G04 APERTURE LIST*
%ADD10C,0.150000*%
%ADD11C,0.120000*%
%ADD12C,0.127000*%
%ADD13C,0.200000*%
G04 APERTURE END LIST*
D10*
X80400000Y-66100000D02*
X80200000Y-65900000D01*
X117600000Y-60100000D02*
X116200000Y-60100000D01*
X117600000Y-54300000D02*
X117600000Y-60100000D01*
X109600000Y-54300000D02*
X117600000Y-54300000D01*
X109600000Y-56700000D02*
X109600000Y-54300000D01*
X88000000Y-63900000D02*
X86000000Y-63900000D01*
X79200000Y-56900000D02*
X79200000Y-60900000D01*
X88000000Y-56900000D02*
X79200000Y-56900000D01*
X88000000Y-56900000D02*
X88000000Y-63900000D01*
X111400000Y-60900000D02*
X111400000Y-56900000D01*
X115800000Y-60900000D02*
X111400000Y-60900000D01*
X115800000Y-56900000D02*
X115800000Y-60900000D01*
X111400000Y-56900000D02*
X115800000Y-56900000D01*
X108100000Y-51400000D02*
X105100000Y-51400000D01*
X105100000Y-51400000D02*
X105100000Y-54200000D01*
X105100000Y-54200000D02*
X108100000Y-54200000D01*
X108100000Y-54200000D02*
X108100000Y-51400000D01*
X108100000Y-47000000D02*
X105100000Y-47000000D01*
X105100000Y-47000000D02*
X105100000Y-49800000D01*
X105100000Y-49800000D02*
X108100000Y-49800000D01*
X108100000Y-49800000D02*
X108100000Y-47000000D01*
X111400000Y-48700000D02*
X108400000Y-48700000D01*
X111400000Y-51500000D02*
X111400000Y-48700000D01*
X108400000Y-51500000D02*
X111400000Y-51500000D01*
X108400000Y-48700000D02*
X108400000Y-51500000D01*
X111350000Y-62100000D02*
G75*
G03X111350000Y-62100000I-600000J0D01*
G01*
D11*
%TO.C,R15*%
X78797936Y-55560000D02*
X81602064Y-55560000D01*
X78797936Y-52840000D02*
X81602064Y-52840000D01*
%TO.C,U6*%
X83640000Y-48000000D02*
X83640000Y-50925000D01*
X83640000Y-48000000D02*
X83640000Y-46500000D01*
X86860000Y-48000000D02*
X86860000Y-49500000D01*
X86860000Y-48000000D02*
X86860000Y-46500000D01*
%TO.C,U8*%
X81900000Y-43690000D02*
X79450000Y-43690000D01*
X80100000Y-46910000D02*
X81900000Y-46910000D01*
%TO.C,C16*%
X85028733Y-44410000D02*
X85371267Y-44410000D01*
X85028733Y-43390000D02*
X85371267Y-43390000D01*
%TO.C,C19*%
X80828733Y-43210000D02*
X81171267Y-43210000D01*
X80828733Y-42190000D02*
X81171267Y-42190000D01*
%TO.C,R3*%
X78771267Y-67990000D02*
X78428733Y-67990000D01*
X78771267Y-69010000D02*
X78428733Y-69010000D01*
%TO.C,R19*%
X82290000Y-68728733D02*
X82290000Y-69071267D01*
X83310000Y-68728733D02*
X83310000Y-69071267D01*
%TO.C,C18*%
X84910000Y-69071267D02*
X84910000Y-68728733D01*
X83890000Y-69071267D02*
X83890000Y-68728733D01*
%TO.C,R18*%
X90071267Y-62690000D02*
X89728733Y-62690000D01*
X90071267Y-63710000D02*
X89728733Y-63710000D01*
%TO.C,R17*%
X87910000Y-62471267D02*
X87910000Y-62128733D01*
X86890000Y-62471267D02*
X86890000Y-62128733D01*
%TO.C,Q3*%
X89640000Y-59070000D02*
X91100000Y-59070000D01*
X89640000Y-62230000D02*
X91800000Y-62230000D01*
X89640000Y-62230000D02*
X89640000Y-61300000D01*
X89640000Y-59070000D02*
X89640000Y-60000000D01*
%TO.C,C1*%
X69221267Y-50740000D02*
X68878733Y-50740000D01*
X69221267Y-51760000D02*
X68878733Y-51760000D01*
%TO.C,R16*%
X80828733Y-48510000D02*
X81171267Y-48510000D01*
X80828733Y-47490000D02*
X81171267Y-47490000D01*
%TO.C,U7*%
X81900000Y-48990000D02*
X79450000Y-48990000D01*
X80100000Y-52210000D02*
X81900000Y-52210000D01*
%TO.C,J2*%
X110730000Y-66650000D02*
X109600000Y-66650000D01*
X110730000Y-65890000D02*
X110730000Y-66650000D01*
X108022470Y-66585000D02*
X107200000Y-66585000D01*
X108840000Y-66585000D02*
X108637530Y-66585000D01*
X108840000Y-66453471D02*
X108840000Y-66585000D01*
X108840000Y-65183471D02*
X108840000Y-65326529D01*
X109036529Y-65130000D02*
X108893471Y-65130000D01*
X110730000Y-65130000D02*
X110163471Y-65130000D01*
X107200000Y-66585000D02*
X107200000Y-57575000D01*
X110730000Y-65130000D02*
X110730000Y-57575000D01*
X109292470Y-57575000D02*
X108637530Y-57575000D01*
X108022470Y-57575000D02*
X107200000Y-57575000D01*
X110730000Y-57575000D02*
X109907530Y-57575000D01*
%TO.C,D2*%
X74845926Y-53293521D02*
X76585409Y-51554038D01*
X73806479Y-52254074D02*
X74845926Y-53293521D01*
X75545962Y-50514591D02*
X73806479Y-52254074D01*
%TO.C,Q4*%
X87500000Y-51490000D02*
X84050000Y-51490000D01*
X87500000Y-51490000D02*
X89450000Y-51490000D01*
X87500000Y-56610000D02*
X85550000Y-56610000D01*
X87500000Y-56610000D02*
X89450000Y-56610000D01*
%TO.C,Q1*%
X98140000Y-59120000D02*
X99600000Y-59120000D01*
X98140000Y-62280000D02*
X100300000Y-62280000D01*
X98140000Y-62280000D02*
X98140000Y-61350000D01*
X98140000Y-59120000D02*
X98140000Y-60050000D01*
%TO.C,C6*%
X79390000Y-58678733D02*
X79390000Y-59021267D01*
X80410000Y-58678733D02*
X80410000Y-59021267D01*
D12*
%TO.C,J3*%
X101850000Y-41500000D02*
X101350000Y-41500000D01*
X101350000Y-41500000D02*
X96350000Y-41500000D01*
X96350000Y-41500000D02*
X95700000Y-41500000D01*
X95700000Y-41500000D02*
X95700000Y-43250000D01*
X101350000Y-41500000D02*
X101350000Y-39600000D01*
X101350000Y-39600000D02*
X96350000Y-39600000D01*
X96350000Y-39600000D02*
X96350000Y-41500000D01*
X102000000Y-50600000D02*
X102000000Y-48550000D01*
X102000000Y-52750000D02*
X102000000Y-53900000D01*
X102000000Y-53900000D02*
X95700000Y-53900000D01*
X95700000Y-53900000D02*
X95700000Y-52800000D01*
X95700000Y-48650000D02*
X95700000Y-50550000D01*
X95700000Y-45550000D02*
X95700000Y-46400000D01*
X102000000Y-45700000D02*
X102000000Y-46400000D01*
D13*
X102950000Y-41000000D02*
G75*
G03X102950000Y-41000000I-100000J0D01*
G01*
D11*
%TO.C,C14*%
X89090000Y-45878733D02*
X89090000Y-46221267D01*
X90110000Y-45878733D02*
X90110000Y-46221267D01*
%TO.C,C17*%
X72109698Y-55265000D02*
X71309698Y-55265000D01*
X71709698Y-55665000D02*
X71709698Y-54865000D01*
%TO.C,U5*%
X96110000Y-66190000D02*
X96110000Y-65890000D01*
X96110000Y-65890000D02*
X95810000Y-65890000D01*
X96110000Y-72810000D02*
X96110000Y-73110000D01*
X96110000Y-73110000D02*
X95810000Y-73110000D01*
X88890000Y-66190000D02*
X88890000Y-65890000D01*
X88890000Y-65890000D02*
X89190000Y-65890000D01*
X88890000Y-72810000D02*
X88890000Y-73110000D01*
X88890000Y-73110000D02*
X89190000Y-73110000D01*
X89190000Y-73110000D02*
X89190000Y-74425000D01*
%TO.C,R5*%
X78428733Y-65810000D02*
X78771267Y-65810000D01*
X78428733Y-64790000D02*
X78771267Y-64790000D01*
%TO.C,C3*%
X83340000Y-58678733D02*
X83340000Y-59021267D01*
X84360000Y-58678733D02*
X84360000Y-59021267D01*
%TO.C,U1*%
X78450000Y-60296500D02*
X77250000Y-60296500D01*
X78450000Y-56296500D02*
X78450000Y-60296500D01*
X73650000Y-60296500D02*
X73650000Y-57596500D01*
X74850000Y-60296500D02*
X73650000Y-60296500D01*
%TO.C,R14*%
X90571267Y-57340000D02*
X90228733Y-57340000D01*
X90571267Y-58360000D02*
X90228733Y-58360000D01*
%TO.C,R13*%
X96910000Y-60771267D02*
X96910000Y-60428733D01*
X95890000Y-60771267D02*
X95890000Y-60428733D01*
%TO.C,R12*%
X95828733Y-63760000D02*
X96171267Y-63760000D01*
X95828733Y-62740000D02*
X96171267Y-62740000D01*
%TO.C,R11*%
X92271267Y-44690000D02*
X91928733Y-44690000D01*
X92271267Y-45710000D02*
X91928733Y-45710000D01*
%TO.C,R10*%
X92271267Y-46440000D02*
X91928733Y-46440000D01*
X92271267Y-47460000D02*
X91928733Y-47460000D01*
%TO.C,R9*%
X92271267Y-42940000D02*
X91928733Y-42940000D01*
X92271267Y-43960000D02*
X91928733Y-43960000D01*
%TO.C,R8*%
X92271267Y-48190000D02*
X91928733Y-48190000D01*
X92271267Y-49210000D02*
X91928733Y-49210000D01*
%TO.C,R7*%
X84628733Y-72610000D02*
X84971267Y-72610000D01*
X84628733Y-71590000D02*
X84971267Y-71590000D01*
%TO.C,R6*%
X98890000Y-68228733D02*
X98890000Y-68571267D01*
X99910000Y-68228733D02*
X99910000Y-68571267D01*
%TO.C,R4*%
X86160000Y-59021267D02*
X86160000Y-58678733D01*
X85140000Y-59021267D02*
X85140000Y-58678733D01*
%TO.C,R2*%
X78771267Y-66390000D02*
X78428733Y-66390000D01*
X78771267Y-67410000D02*
X78428733Y-67410000D01*
%TO.C,R1*%
X87910000Y-59021267D02*
X87910000Y-58678733D01*
X86890000Y-59021267D02*
X86890000Y-58678733D01*
%TO.C,Q2*%
X93140000Y-59070000D02*
X94600000Y-59070000D01*
X93140000Y-62230000D02*
X95300000Y-62230000D01*
X93140000Y-62230000D02*
X93140000Y-61300000D01*
X93140000Y-59070000D02*
X93140000Y-60000000D01*
%TO.C,D1*%
X77970000Y-64260000D02*
X79380000Y-64260000D01*
X79380000Y-61940000D02*
X77350000Y-61940000D01*
X79380000Y-61940000D02*
X79380000Y-62600000D01*
X79380000Y-63600000D02*
X79380000Y-64260000D01*
%TO.C,U3*%
X79950000Y-74060000D02*
X82400000Y-74060000D01*
X81750000Y-70840000D02*
X79950000Y-70840000D01*
%TO.C,SW1*%
X107300000Y-73400000D02*
X111700000Y-73400000D01*
X111700000Y-73400000D02*
X111700000Y-73280000D01*
X111700000Y-72270000D02*
X111700000Y-71130000D01*
X111700000Y-70120000D02*
X111700000Y-70000000D01*
X111700000Y-70000000D02*
X107300000Y-70000000D01*
X107300000Y-70000000D02*
X107300000Y-70120000D01*
X107300000Y-71130000D02*
X107300000Y-72270000D01*
X107300000Y-73280000D02*
X107300000Y-73400000D01*
%TO.C,C2*%
X69161252Y-52340000D02*
X68638748Y-52340000D01*
X69161252Y-53760000D02*
X68638748Y-53760000D01*
%TO.C,TP6*%
X116150000Y-67750000D02*
X116150000Y-70150000D01*
X113750000Y-67750000D02*
X116150000Y-67750000D01*
X113750000Y-70150000D02*
X113750000Y-67750000D01*
X116150000Y-70150000D02*
X113750000Y-70150000D01*
%TO.C,TP5*%
X116150000Y-72050000D02*
X116150000Y-74450000D01*
X113750000Y-72050000D02*
X116150000Y-72050000D01*
X113750000Y-74450000D02*
X113750000Y-72050000D01*
X116150000Y-74450000D02*
X113750000Y-74450000D01*
%TO.C,TP4*%
X116200000Y-76300000D02*
X116200000Y-78700000D01*
X113800000Y-76300000D02*
X116200000Y-76300000D01*
X113800000Y-78700000D02*
X113800000Y-76300000D01*
X116200000Y-78700000D02*
X113800000Y-78700000D01*
%TO.C,TP3*%
X111100000Y-102800000D02*
X115500000Y-102800000D01*
X111100000Y-107200000D02*
X111100000Y-102800000D01*
X115500000Y-107200000D02*
X111100000Y-107200000D01*
X115500000Y-102800000D02*
X115500000Y-107200000D01*
%TO.C,TP2*%
X111100000Y-97300000D02*
X115500000Y-97300000D01*
X111100000Y-101700000D02*
X111100000Y-97300000D01*
X115500000Y-101700000D02*
X111100000Y-101700000D01*
X115500000Y-97300000D02*
X115500000Y-101700000D01*
%TO.C,C13*%
X88360000Y-48121267D02*
X88360000Y-47778733D01*
X87340000Y-48121267D02*
X87340000Y-47778733D01*
%TO.C,C15*%
X88360000Y-44371267D02*
X88360000Y-44028733D01*
X87340000Y-44371267D02*
X87340000Y-44028733D01*
%TO.C,U2*%
X84735000Y-61240000D02*
X85210000Y-61240000D01*
X85210000Y-61240000D02*
X85210000Y-61715000D01*
X81465000Y-65460000D02*
X80990000Y-65460000D01*
X80990000Y-65460000D02*
X80990000Y-64985000D01*
X84735000Y-65460000D02*
X85210000Y-65460000D01*
X85210000Y-65460000D02*
X85210000Y-64985000D01*
X81465000Y-61240000D02*
X80990000Y-61240000D01*
%TO.C,C12*%
X82028733Y-79810000D02*
X82371267Y-79810000D01*
X82028733Y-78790000D02*
X82371267Y-78790000D01*
%TO.C,C10*%
X77771267Y-78790000D02*
X77428733Y-78790000D01*
X77771267Y-79810000D02*
X77428733Y-79810000D01*
%TO.C,C11*%
X100078733Y-65760000D02*
X100421267Y-65760000D01*
X100078733Y-64740000D02*
X100421267Y-64740000D01*
%TO.C,C5*%
X75028733Y-65810000D02*
X75371267Y-65810000D01*
X75028733Y-64790000D02*
X75371267Y-64790000D01*
%TO.C,C9*%
X84971267Y-76290000D02*
X84628733Y-76290000D01*
X84971267Y-77310000D02*
X84628733Y-77310000D01*
%TO.C,C4*%
X82360000Y-59021267D02*
X82360000Y-58678733D01*
X81340000Y-59021267D02*
X81340000Y-58678733D01*
%TO.C,C8*%
X84971267Y-74390000D02*
X84628733Y-74390000D01*
X84971267Y-75410000D02*
X84628733Y-75410000D01*
%TO.C,C7*%
X98128733Y-74410000D02*
X98471267Y-74410000D01*
X98128733Y-73390000D02*
X98471267Y-73390000D01*
%TO.C,R15*%
D10*
X79557142Y-54752380D02*
X79223809Y-54276190D01*
X78985714Y-54752380D02*
X78985714Y-53752380D01*
X79366666Y-53752380D01*
X79461904Y-53800000D01*
X79509523Y-53847619D01*
X79557142Y-53942857D01*
X79557142Y-54085714D01*
X79509523Y-54180952D01*
X79461904Y-54228571D01*
X79366666Y-54276190D01*
X78985714Y-54276190D01*
X80509523Y-54752380D02*
X79938095Y-54752380D01*
X80223809Y-54752380D02*
X80223809Y-53752380D01*
X80128571Y-53895238D01*
X80033333Y-53990476D01*
X79938095Y-54038095D01*
X81414285Y-53752380D02*
X80938095Y-53752380D01*
X80890476Y-54228571D01*
X80938095Y-54180952D01*
X81033333Y-54133333D01*
X81271428Y-54133333D01*
X81366666Y-54180952D01*
X81414285Y-54228571D01*
X81461904Y-54323809D01*
X81461904Y-54561904D01*
X81414285Y-54657142D01*
X81366666Y-54704761D01*
X81271428Y-54752380D01*
X81033333Y-54752380D01*
X80938095Y-54704761D01*
X80890476Y-54657142D01*
%TO.C,U6*%
X109138095Y-49552380D02*
X109138095Y-50361904D01*
X109185714Y-50457142D01*
X109233333Y-50504761D01*
X109328571Y-50552380D01*
X109519047Y-50552380D01*
X109614285Y-50504761D01*
X109661904Y-50457142D01*
X109709523Y-50361904D01*
X109709523Y-49552380D01*
X110614285Y-49552380D02*
X110423809Y-49552380D01*
X110328571Y-49600000D01*
X110280952Y-49647619D01*
X110185714Y-49790476D01*
X110138095Y-49980952D01*
X110138095Y-50361904D01*
X110185714Y-50457142D01*
X110233333Y-50504761D01*
X110328571Y-50552380D01*
X110519047Y-50552380D01*
X110614285Y-50504761D01*
X110661904Y-50457142D01*
X110709523Y-50361904D01*
X110709523Y-50123809D01*
X110661904Y-50028571D01*
X110614285Y-49980952D01*
X110519047Y-49933333D01*
X110328571Y-49933333D01*
X110233333Y-49980952D01*
X110185714Y-50028571D01*
X110138095Y-50123809D01*
%TO.C,U8*%
X105838095Y-47852380D02*
X105838095Y-48661904D01*
X105885714Y-48757142D01*
X105933333Y-48804761D01*
X106028571Y-48852380D01*
X106219047Y-48852380D01*
X106314285Y-48804761D01*
X106361904Y-48757142D01*
X106409523Y-48661904D01*
X106409523Y-47852380D01*
X107028571Y-48280952D02*
X106933333Y-48233333D01*
X106885714Y-48185714D01*
X106838095Y-48090476D01*
X106838095Y-48042857D01*
X106885714Y-47947619D01*
X106933333Y-47900000D01*
X107028571Y-47852380D01*
X107219047Y-47852380D01*
X107314285Y-47900000D01*
X107361904Y-47947619D01*
X107409523Y-48042857D01*
X107409523Y-48090476D01*
X107361904Y-48185714D01*
X107314285Y-48233333D01*
X107219047Y-48280952D01*
X107028571Y-48280952D01*
X106933333Y-48328571D01*
X106885714Y-48376190D01*
X106838095Y-48471428D01*
X106838095Y-48661904D01*
X106885714Y-48757142D01*
X106933333Y-48804761D01*
X107028571Y-48852380D01*
X107219047Y-48852380D01*
X107314285Y-48804761D01*
X107361904Y-48757142D01*
X107409523Y-48661904D01*
X107409523Y-48471428D01*
X107361904Y-48376190D01*
X107314285Y-48328571D01*
X107219047Y-48280952D01*
%TO.C,C16*%
X109257142Y-48157142D02*
X109209523Y-48204761D01*
X109066666Y-48252380D01*
X108971428Y-48252380D01*
X108828571Y-48204761D01*
X108733333Y-48109523D01*
X108685714Y-48014285D01*
X108638095Y-47823809D01*
X108638095Y-47680952D01*
X108685714Y-47490476D01*
X108733333Y-47395238D01*
X108828571Y-47300000D01*
X108971428Y-47252380D01*
X109066666Y-47252380D01*
X109209523Y-47300000D01*
X109257142Y-47347619D01*
X110209523Y-48252380D02*
X109638095Y-48252380D01*
X109923809Y-48252380D02*
X109923809Y-47252380D01*
X109828571Y-47395238D01*
X109733333Y-47490476D01*
X109638095Y-47538095D01*
X111066666Y-47252380D02*
X110876190Y-47252380D01*
X110780952Y-47300000D01*
X110733333Y-47347619D01*
X110638095Y-47490476D01*
X110590476Y-47680952D01*
X110590476Y-48061904D01*
X110638095Y-48157142D01*
X110685714Y-48204761D01*
X110780952Y-48252380D01*
X110971428Y-48252380D01*
X111066666Y-48204761D01*
X111114285Y-48157142D01*
X111161904Y-48061904D01*
X111161904Y-47823809D01*
X111114285Y-47728571D01*
X111066666Y-47680952D01*
X110971428Y-47633333D01*
X110780952Y-47633333D01*
X110685714Y-47680952D01*
X110638095Y-47728571D01*
X110590476Y-47823809D01*
%TO.C,C19*%
X105957142Y-46557142D02*
X105909523Y-46604761D01*
X105766666Y-46652380D01*
X105671428Y-46652380D01*
X105528571Y-46604761D01*
X105433333Y-46509523D01*
X105385714Y-46414285D01*
X105338095Y-46223809D01*
X105338095Y-46080952D01*
X105385714Y-45890476D01*
X105433333Y-45795238D01*
X105528571Y-45700000D01*
X105671428Y-45652380D01*
X105766666Y-45652380D01*
X105909523Y-45700000D01*
X105957142Y-45747619D01*
X106909523Y-46652380D02*
X106338095Y-46652380D01*
X106623809Y-46652380D02*
X106623809Y-45652380D01*
X106528571Y-45795238D01*
X106433333Y-45890476D01*
X106338095Y-45938095D01*
X107385714Y-46652380D02*
X107576190Y-46652380D01*
X107671428Y-46604761D01*
X107719047Y-46557142D01*
X107814285Y-46414285D01*
X107861904Y-46223809D01*
X107861904Y-45842857D01*
X107814285Y-45747619D01*
X107766666Y-45700000D01*
X107671428Y-45652380D01*
X107480952Y-45652380D01*
X107385714Y-45700000D01*
X107338095Y-45747619D01*
X107290476Y-45842857D01*
X107290476Y-46080952D01*
X107338095Y-46176190D01*
X107385714Y-46223809D01*
X107480952Y-46271428D01*
X107671428Y-46271428D01*
X107766666Y-46223809D01*
X107814285Y-46176190D01*
X107861904Y-46080952D01*
%TO.C,R3*%
X75833333Y-68952380D02*
X75500000Y-68476190D01*
X75261904Y-68952380D02*
X75261904Y-67952380D01*
X75642857Y-67952380D01*
X75738095Y-68000000D01*
X75785714Y-68047619D01*
X75833333Y-68142857D01*
X75833333Y-68285714D01*
X75785714Y-68380952D01*
X75738095Y-68428571D01*
X75642857Y-68476190D01*
X75261904Y-68476190D01*
X76166666Y-67952380D02*
X76785714Y-67952380D01*
X76452380Y-68333333D01*
X76595238Y-68333333D01*
X76690476Y-68380952D01*
X76738095Y-68428571D01*
X76785714Y-68523809D01*
X76785714Y-68761904D01*
X76738095Y-68857142D01*
X76690476Y-68904761D01*
X76595238Y-68952380D01*
X76309523Y-68952380D01*
X76214285Y-68904761D01*
X76166666Y-68857142D01*
%TO.C,R19*%
X81852380Y-69542857D02*
X81376190Y-69876190D01*
X81852380Y-70114285D02*
X80852380Y-70114285D01*
X80852380Y-69733333D01*
X80900000Y-69638095D01*
X80947619Y-69590476D01*
X81042857Y-69542857D01*
X81185714Y-69542857D01*
X81280952Y-69590476D01*
X81328571Y-69638095D01*
X81376190Y-69733333D01*
X81376190Y-70114285D01*
X81852380Y-68590476D02*
X81852380Y-69161904D01*
X81852380Y-68876190D02*
X80852380Y-68876190D01*
X80995238Y-68971428D01*
X81090476Y-69066666D01*
X81138095Y-69161904D01*
X81852380Y-68114285D02*
X81852380Y-67923809D01*
X81804761Y-67828571D01*
X81757142Y-67780952D01*
X81614285Y-67685714D01*
X81423809Y-67638095D01*
X81042857Y-67638095D01*
X80947619Y-67685714D01*
X80900000Y-67733333D01*
X80852380Y-67828571D01*
X80852380Y-68019047D01*
X80900000Y-68114285D01*
X80947619Y-68161904D01*
X81042857Y-68209523D01*
X81280952Y-68209523D01*
X81376190Y-68161904D01*
X81423809Y-68114285D01*
X81471428Y-68019047D01*
X81471428Y-67828571D01*
X81423809Y-67733333D01*
X81376190Y-67685714D01*
X81280952Y-67638095D01*
%TO.C,C18*%
X86157142Y-69542857D02*
X86204761Y-69590476D01*
X86252380Y-69733333D01*
X86252380Y-69828571D01*
X86204761Y-69971428D01*
X86109523Y-70066666D01*
X86014285Y-70114285D01*
X85823809Y-70161904D01*
X85680952Y-70161904D01*
X85490476Y-70114285D01*
X85395238Y-70066666D01*
X85300000Y-69971428D01*
X85252380Y-69828571D01*
X85252380Y-69733333D01*
X85300000Y-69590476D01*
X85347619Y-69542857D01*
X86252380Y-68590476D02*
X86252380Y-69161904D01*
X86252380Y-68876190D02*
X85252380Y-68876190D01*
X85395238Y-68971428D01*
X85490476Y-69066666D01*
X85538095Y-69161904D01*
X85680952Y-68019047D02*
X85633333Y-68114285D01*
X85585714Y-68161904D01*
X85490476Y-68209523D01*
X85442857Y-68209523D01*
X85347619Y-68161904D01*
X85300000Y-68114285D01*
X85252380Y-68019047D01*
X85252380Y-67828571D01*
X85300000Y-67733333D01*
X85347619Y-67685714D01*
X85442857Y-67638095D01*
X85490476Y-67638095D01*
X85585714Y-67685714D01*
X85633333Y-67733333D01*
X85680952Y-67828571D01*
X85680952Y-68019047D01*
X85728571Y-68114285D01*
X85776190Y-68161904D01*
X85871428Y-68209523D01*
X86061904Y-68209523D01*
X86157142Y-68161904D01*
X86204761Y-68114285D01*
X86252380Y-68019047D01*
X86252380Y-67828571D01*
X86204761Y-67733333D01*
X86157142Y-67685714D01*
X86061904Y-67638095D01*
X85871428Y-67638095D01*
X85776190Y-67685714D01*
X85728571Y-67733333D01*
X85680952Y-67828571D01*
%TO.C,R18*%
X92357142Y-63652380D02*
X92023809Y-63176190D01*
X91785714Y-63652380D02*
X91785714Y-62652380D01*
X92166666Y-62652380D01*
X92261904Y-62700000D01*
X92309523Y-62747619D01*
X92357142Y-62842857D01*
X92357142Y-62985714D01*
X92309523Y-63080952D01*
X92261904Y-63128571D01*
X92166666Y-63176190D01*
X91785714Y-63176190D01*
X93309523Y-63652380D02*
X92738095Y-63652380D01*
X93023809Y-63652380D02*
X93023809Y-62652380D01*
X92928571Y-62795238D01*
X92833333Y-62890476D01*
X92738095Y-62938095D01*
X93880952Y-63080952D02*
X93785714Y-63033333D01*
X93738095Y-62985714D01*
X93690476Y-62890476D01*
X93690476Y-62842857D01*
X93738095Y-62747619D01*
X93785714Y-62700000D01*
X93880952Y-62652380D01*
X94071428Y-62652380D01*
X94166666Y-62700000D01*
X94214285Y-62747619D01*
X94261904Y-62842857D01*
X94261904Y-62890476D01*
X94214285Y-62985714D01*
X94166666Y-63033333D01*
X94071428Y-63080952D01*
X93880952Y-63080952D01*
X93785714Y-63128571D01*
X93738095Y-63176190D01*
X93690476Y-63271428D01*
X93690476Y-63461904D01*
X93738095Y-63557142D01*
X93785714Y-63604761D01*
X93880952Y-63652380D01*
X94071428Y-63652380D01*
X94166666Y-63604761D01*
X94214285Y-63557142D01*
X94261904Y-63461904D01*
X94261904Y-63271428D01*
X94214285Y-63176190D01*
X94166666Y-63128571D01*
X94071428Y-63080952D01*
%TO.C,R17*%
X117252380Y-58942857D02*
X116776190Y-59276190D01*
X117252380Y-59514285D02*
X116252380Y-59514285D01*
X116252380Y-59133333D01*
X116300000Y-59038095D01*
X116347619Y-58990476D01*
X116442857Y-58942857D01*
X116585714Y-58942857D01*
X116680952Y-58990476D01*
X116728571Y-59038095D01*
X116776190Y-59133333D01*
X116776190Y-59514285D01*
X117252380Y-57990476D02*
X117252380Y-58561904D01*
X117252380Y-58276190D02*
X116252380Y-58276190D01*
X116395238Y-58371428D01*
X116490476Y-58466666D01*
X116538095Y-58561904D01*
X116252380Y-57657142D02*
X116252380Y-56990476D01*
X117252380Y-57419047D01*
%TO.C,Q3*%
X91047619Y-60695238D02*
X91000000Y-60790476D01*
X90904761Y-60885714D01*
X90761904Y-61028571D01*
X90714285Y-61123809D01*
X90714285Y-61219047D01*
X90952380Y-61171428D02*
X90904761Y-61266666D01*
X90809523Y-61361904D01*
X90619047Y-61409523D01*
X90285714Y-61409523D01*
X90095238Y-61361904D01*
X90000000Y-61266666D01*
X89952380Y-61171428D01*
X89952380Y-60980952D01*
X90000000Y-60885714D01*
X90095238Y-60790476D01*
X90285714Y-60742857D01*
X90619047Y-60742857D01*
X90809523Y-60790476D01*
X90904761Y-60885714D01*
X90952380Y-60980952D01*
X90952380Y-61171428D01*
X89952380Y-60409523D02*
X89952380Y-59790476D01*
X90333333Y-60123809D01*
X90333333Y-59980952D01*
X90380952Y-59885714D01*
X90428571Y-59838095D01*
X90523809Y-59790476D01*
X90761904Y-59790476D01*
X90857142Y-59838095D01*
X90904761Y-59885714D01*
X90952380Y-59980952D01*
X90952380Y-60266666D01*
X90904761Y-60361904D01*
X90857142Y-60409523D01*
%TO.C,C1*%
X66283333Y-51607142D02*
X66235714Y-51654761D01*
X66092857Y-51702380D01*
X65997619Y-51702380D01*
X65854761Y-51654761D01*
X65759523Y-51559523D01*
X65711904Y-51464285D01*
X65664285Y-51273809D01*
X65664285Y-51130952D01*
X65711904Y-50940476D01*
X65759523Y-50845238D01*
X65854761Y-50750000D01*
X65997619Y-50702380D01*
X66092857Y-50702380D01*
X66235714Y-50750000D01*
X66283333Y-50797619D01*
X67235714Y-51702380D02*
X66664285Y-51702380D01*
X66950000Y-51702380D02*
X66950000Y-50702380D01*
X66854761Y-50845238D01*
X66759523Y-50940476D01*
X66664285Y-50988095D01*
%TO.C,R16*%
X106057142Y-51052380D02*
X105723809Y-50576190D01*
X105485714Y-51052380D02*
X105485714Y-50052380D01*
X105866666Y-50052380D01*
X105961904Y-50100000D01*
X106009523Y-50147619D01*
X106057142Y-50242857D01*
X106057142Y-50385714D01*
X106009523Y-50480952D01*
X105961904Y-50528571D01*
X105866666Y-50576190D01*
X105485714Y-50576190D01*
X107009523Y-51052380D02*
X106438095Y-51052380D01*
X106723809Y-51052380D02*
X106723809Y-50052380D01*
X106628571Y-50195238D01*
X106533333Y-50290476D01*
X106438095Y-50338095D01*
X107866666Y-50052380D02*
X107676190Y-50052380D01*
X107580952Y-50100000D01*
X107533333Y-50147619D01*
X107438095Y-50290476D01*
X107390476Y-50480952D01*
X107390476Y-50861904D01*
X107438095Y-50957142D01*
X107485714Y-51004761D01*
X107580952Y-51052380D01*
X107771428Y-51052380D01*
X107866666Y-51004761D01*
X107914285Y-50957142D01*
X107961904Y-50861904D01*
X107961904Y-50623809D01*
X107914285Y-50528571D01*
X107866666Y-50480952D01*
X107771428Y-50433333D01*
X107580952Y-50433333D01*
X107485714Y-50480952D01*
X107438095Y-50528571D01*
X107390476Y-50623809D01*
%TO.C,U7*%
X105838095Y-52252380D02*
X105838095Y-53061904D01*
X105885714Y-53157142D01*
X105933333Y-53204761D01*
X106028571Y-53252380D01*
X106219047Y-53252380D01*
X106314285Y-53204761D01*
X106361904Y-53157142D01*
X106409523Y-53061904D01*
X106409523Y-52252380D01*
X106790476Y-52252380D02*
X107457142Y-52252380D01*
X107028571Y-53252380D01*
%TO.C,J2*%
X108616666Y-66952380D02*
X108616666Y-67666666D01*
X108569047Y-67809523D01*
X108473809Y-67904761D01*
X108330952Y-67952380D01*
X108235714Y-67952380D01*
X109045238Y-67047619D02*
X109092857Y-67000000D01*
X109188095Y-66952380D01*
X109426190Y-66952380D01*
X109521428Y-67000000D01*
X109569047Y-67047619D01*
X109616666Y-67142857D01*
X109616666Y-67238095D01*
X109569047Y-67380952D01*
X108997619Y-67952380D01*
X109616666Y-67952380D01*
%TO.C,D2*%
X73318070Y-54421692D02*
X72610963Y-53714586D01*
X72779322Y-53546227D01*
X72914009Y-53478883D01*
X73048696Y-53478883D01*
X73149711Y-53512555D01*
X73318070Y-53613570D01*
X73419085Y-53714586D01*
X73520101Y-53882944D01*
X73553772Y-53983960D01*
X73553772Y-54118647D01*
X73486429Y-54253334D01*
X73318070Y-54421692D01*
X73351742Y-53108494D02*
X73351742Y-53041150D01*
X73385413Y-52940135D01*
X73553772Y-52771776D01*
X73654788Y-52738105D01*
X73722131Y-52738105D01*
X73823146Y-52771776D01*
X73890490Y-52839120D01*
X73957833Y-52973807D01*
X73957833Y-53781929D01*
X74395566Y-53344196D01*
%TO.C,Q4*%
X87304761Y-54447619D02*
X87209523Y-54400000D01*
X87114285Y-54304761D01*
X86971428Y-54161904D01*
X86876190Y-54114285D01*
X86780952Y-54114285D01*
X86828571Y-54352380D02*
X86733333Y-54304761D01*
X86638095Y-54209523D01*
X86590476Y-54019047D01*
X86590476Y-53685714D01*
X86638095Y-53495238D01*
X86733333Y-53400000D01*
X86828571Y-53352380D01*
X87019047Y-53352380D01*
X87114285Y-53400000D01*
X87209523Y-53495238D01*
X87257142Y-53685714D01*
X87257142Y-54019047D01*
X87209523Y-54209523D01*
X87114285Y-54304761D01*
X87019047Y-54352380D01*
X86828571Y-54352380D01*
X88114285Y-53685714D02*
X88114285Y-54352380D01*
X87876190Y-53304761D02*
X87638095Y-54019047D01*
X88257142Y-54019047D01*
%TO.C,Q1*%
X99447619Y-60795238D02*
X99400000Y-60890476D01*
X99304761Y-60985714D01*
X99161904Y-61128571D01*
X99114285Y-61223809D01*
X99114285Y-61319047D01*
X99352380Y-61271428D02*
X99304761Y-61366666D01*
X99209523Y-61461904D01*
X99019047Y-61509523D01*
X98685714Y-61509523D01*
X98495238Y-61461904D01*
X98400000Y-61366666D01*
X98352380Y-61271428D01*
X98352380Y-61080952D01*
X98400000Y-60985714D01*
X98495238Y-60890476D01*
X98685714Y-60842857D01*
X99019047Y-60842857D01*
X99209523Y-60890476D01*
X99304761Y-60985714D01*
X99352380Y-61080952D01*
X99352380Y-61271428D01*
X99352380Y-59890476D02*
X99352380Y-60461904D01*
X99352380Y-60176190D02*
X98352380Y-60176190D01*
X98495238Y-60271428D01*
X98590476Y-60366666D01*
X98638095Y-60461904D01*
%TO.C,C6*%
X110957142Y-55666666D02*
X111004761Y-55714285D01*
X111052380Y-55857142D01*
X111052380Y-55952380D01*
X111004761Y-56095238D01*
X110909523Y-56190476D01*
X110814285Y-56238095D01*
X110623809Y-56285714D01*
X110480952Y-56285714D01*
X110290476Y-56238095D01*
X110195238Y-56190476D01*
X110100000Y-56095238D01*
X110052380Y-55952380D01*
X110052380Y-55857142D01*
X110100000Y-55714285D01*
X110147619Y-55666666D01*
X110052380Y-54809523D02*
X110052380Y-55000000D01*
X110100000Y-55095238D01*
X110147619Y-55142857D01*
X110290476Y-55238095D01*
X110480952Y-55285714D01*
X110861904Y-55285714D01*
X110957142Y-55238095D01*
X111004761Y-55190476D01*
X111052380Y-55095238D01*
X111052380Y-54904761D01*
X111004761Y-54809523D01*
X110957142Y-54761904D01*
X110861904Y-54714285D01*
X110623809Y-54714285D01*
X110528571Y-54761904D01*
X110480952Y-54809523D01*
X110433333Y-54904761D01*
X110433333Y-55095238D01*
X110480952Y-55190476D01*
X110528571Y-55238095D01*
X110623809Y-55285714D01*
%TO.C,J3*%
X102666590Y-51352256D02*
X102666590Y-52066704D01*
X102618960Y-52209594D01*
X102523700Y-52304854D01*
X102380811Y-52352484D01*
X102285551Y-52352484D01*
X103047629Y-51352256D02*
X103666818Y-51352256D01*
X103333409Y-51733295D01*
X103476299Y-51733295D01*
X103571558Y-51780925D01*
X103619188Y-51828555D01*
X103666818Y-51923814D01*
X103666818Y-52161964D01*
X103619188Y-52257224D01*
X103571558Y-52304854D01*
X103476299Y-52352484D01*
X103190519Y-52352484D01*
X103095259Y-52304854D01*
X103047629Y-52257224D01*
%TO.C,C14*%
X114057142Y-50742857D02*
X114104761Y-50790476D01*
X114152380Y-50933333D01*
X114152380Y-51028571D01*
X114104761Y-51171428D01*
X114009523Y-51266666D01*
X113914285Y-51314285D01*
X113723809Y-51361904D01*
X113580952Y-51361904D01*
X113390476Y-51314285D01*
X113295238Y-51266666D01*
X113200000Y-51171428D01*
X113152380Y-51028571D01*
X113152380Y-50933333D01*
X113200000Y-50790476D01*
X113247619Y-50742857D01*
X114152380Y-49790476D02*
X114152380Y-50361904D01*
X114152380Y-50076190D02*
X113152380Y-50076190D01*
X113295238Y-50171428D01*
X113390476Y-50266666D01*
X113438095Y-50361904D01*
X113485714Y-48933333D02*
X114152380Y-48933333D01*
X113104761Y-49171428D02*
X113819047Y-49409523D01*
X113819047Y-48790476D01*
%TO.C,C17*%
X63607142Y-55607142D02*
X63559523Y-55654761D01*
X63416666Y-55702380D01*
X63321428Y-55702380D01*
X63178571Y-55654761D01*
X63083333Y-55559523D01*
X63035714Y-55464285D01*
X62988095Y-55273809D01*
X62988095Y-55130952D01*
X63035714Y-54940476D01*
X63083333Y-54845238D01*
X63178571Y-54750000D01*
X63321428Y-54702380D01*
X63416666Y-54702380D01*
X63559523Y-54750000D01*
X63607142Y-54797619D01*
X64559523Y-55702380D02*
X63988095Y-55702380D01*
X64273809Y-55702380D02*
X64273809Y-54702380D01*
X64178571Y-54845238D01*
X64083333Y-54940476D01*
X63988095Y-54988095D01*
X64892857Y-54702380D02*
X65559523Y-54702380D01*
X65130952Y-55702380D01*
%TO.C,U5*%
X91638095Y-68952380D02*
X91638095Y-69761904D01*
X91685714Y-69857142D01*
X91733333Y-69904761D01*
X91828571Y-69952380D01*
X92019047Y-69952380D01*
X92114285Y-69904761D01*
X92161904Y-69857142D01*
X92209523Y-69761904D01*
X92209523Y-68952380D01*
X93161904Y-68952380D02*
X92685714Y-68952380D01*
X92638095Y-69428571D01*
X92685714Y-69380952D01*
X92780952Y-69333333D01*
X93019047Y-69333333D01*
X93114285Y-69380952D01*
X93161904Y-69428571D01*
X93209523Y-69523809D01*
X93209523Y-69761904D01*
X93161904Y-69857142D01*
X93114285Y-69904761D01*
X93019047Y-69952380D01*
X92780952Y-69952380D01*
X92685714Y-69904761D01*
X92638095Y-69857142D01*
%TO.C,R5*%
X81233333Y-67152380D02*
X80900000Y-66676190D01*
X80661904Y-67152380D02*
X80661904Y-66152380D01*
X81042857Y-66152380D01*
X81138095Y-66200000D01*
X81185714Y-66247619D01*
X81233333Y-66342857D01*
X81233333Y-66485714D01*
X81185714Y-66580952D01*
X81138095Y-66628571D01*
X81042857Y-66676190D01*
X80661904Y-66676190D01*
X82138095Y-66152380D02*
X81661904Y-66152380D01*
X81614285Y-66628571D01*
X81661904Y-66580952D01*
X81757142Y-66533333D01*
X81995238Y-66533333D01*
X82090476Y-66580952D01*
X82138095Y-66628571D01*
X82185714Y-66723809D01*
X82185714Y-66961904D01*
X82138095Y-67057142D01*
X82090476Y-67104761D01*
X81995238Y-67152380D01*
X81757142Y-67152380D01*
X81661904Y-67104761D01*
X81614285Y-67057142D01*
%TO.C,C3*%
X113957142Y-55666666D02*
X114004761Y-55714285D01*
X114052380Y-55857142D01*
X114052380Y-55952380D01*
X114004761Y-56095238D01*
X113909523Y-56190476D01*
X113814285Y-56238095D01*
X113623809Y-56285714D01*
X113480952Y-56285714D01*
X113290476Y-56238095D01*
X113195238Y-56190476D01*
X113100000Y-56095238D01*
X113052380Y-55952380D01*
X113052380Y-55857142D01*
X113100000Y-55714285D01*
X113147619Y-55666666D01*
X113052380Y-55333333D02*
X113052380Y-54714285D01*
X113433333Y-55047619D01*
X113433333Y-54904761D01*
X113480952Y-54809523D01*
X113528571Y-54761904D01*
X113623809Y-54714285D01*
X113861904Y-54714285D01*
X113957142Y-54761904D01*
X114004761Y-54809523D01*
X114052380Y-54904761D01*
X114052380Y-55190476D01*
X114004761Y-55285714D01*
X113957142Y-55333333D01*
%TO.C,U1*%
X73838095Y-54752380D02*
X73838095Y-55561904D01*
X73885714Y-55657142D01*
X73933333Y-55704761D01*
X74028571Y-55752380D01*
X74219047Y-55752380D01*
X74314285Y-55704761D01*
X74361904Y-55657142D01*
X74409523Y-55561904D01*
X74409523Y-54752380D01*
X75409523Y-55752380D02*
X74838095Y-55752380D01*
X75123809Y-55752380D02*
X75123809Y-54752380D01*
X75028571Y-54895238D01*
X74933333Y-54990476D01*
X74838095Y-55038095D01*
%TO.C,R14*%
X92857142Y-58352380D02*
X92523809Y-57876190D01*
X92285714Y-58352380D02*
X92285714Y-57352380D01*
X92666666Y-57352380D01*
X92761904Y-57400000D01*
X92809523Y-57447619D01*
X92857142Y-57542857D01*
X92857142Y-57685714D01*
X92809523Y-57780952D01*
X92761904Y-57828571D01*
X92666666Y-57876190D01*
X92285714Y-57876190D01*
X93809523Y-58352380D02*
X93238095Y-58352380D01*
X93523809Y-58352380D02*
X93523809Y-57352380D01*
X93428571Y-57495238D01*
X93333333Y-57590476D01*
X93238095Y-57638095D01*
X94666666Y-57685714D02*
X94666666Y-58352380D01*
X94428571Y-57304761D02*
X94190476Y-58019047D01*
X94809523Y-58019047D01*
%TO.C,R13*%
X96952380Y-58142857D02*
X96476190Y-58476190D01*
X96952380Y-58714285D02*
X95952380Y-58714285D01*
X95952380Y-58333333D01*
X96000000Y-58238095D01*
X96047619Y-58190476D01*
X96142857Y-58142857D01*
X96285714Y-58142857D01*
X96380952Y-58190476D01*
X96428571Y-58238095D01*
X96476190Y-58333333D01*
X96476190Y-58714285D01*
X96952380Y-57190476D02*
X96952380Y-57761904D01*
X96952380Y-57476190D02*
X95952380Y-57476190D01*
X96095238Y-57571428D01*
X96190476Y-57666666D01*
X96238095Y-57761904D01*
X95952380Y-56857142D02*
X95952380Y-56238095D01*
X96333333Y-56571428D01*
X96333333Y-56428571D01*
X96380952Y-56333333D01*
X96428571Y-56285714D01*
X96523809Y-56238095D01*
X96761904Y-56238095D01*
X96857142Y-56285714D01*
X96904761Y-56333333D01*
X96952380Y-56428571D01*
X96952380Y-56714285D01*
X96904761Y-56809523D01*
X96857142Y-56857142D01*
%TO.C,R12*%
X98357142Y-63702380D02*
X98023809Y-63226190D01*
X97785714Y-63702380D02*
X97785714Y-62702380D01*
X98166666Y-62702380D01*
X98261904Y-62750000D01*
X98309523Y-62797619D01*
X98357142Y-62892857D01*
X98357142Y-63035714D01*
X98309523Y-63130952D01*
X98261904Y-63178571D01*
X98166666Y-63226190D01*
X97785714Y-63226190D01*
X99309523Y-63702380D02*
X98738095Y-63702380D01*
X99023809Y-63702380D02*
X99023809Y-62702380D01*
X98928571Y-62845238D01*
X98833333Y-62940476D01*
X98738095Y-62988095D01*
X99690476Y-62797619D02*
X99738095Y-62750000D01*
X99833333Y-62702380D01*
X100071428Y-62702380D01*
X100166666Y-62750000D01*
X100214285Y-62797619D01*
X100261904Y-62892857D01*
X100261904Y-62988095D01*
X100214285Y-63130952D01*
X99642857Y-63702380D01*
X100261904Y-63702380D01*
%TO.C,R11*%
X115207142Y-49752380D02*
X114873809Y-49276190D01*
X114635714Y-49752380D02*
X114635714Y-48752380D01*
X115016666Y-48752380D01*
X115111904Y-48800000D01*
X115159523Y-48847619D01*
X115207142Y-48942857D01*
X115207142Y-49085714D01*
X115159523Y-49180952D01*
X115111904Y-49228571D01*
X115016666Y-49276190D01*
X114635714Y-49276190D01*
X116159523Y-49752380D02*
X115588095Y-49752380D01*
X115873809Y-49752380D02*
X115873809Y-48752380D01*
X115778571Y-48895238D01*
X115683333Y-48990476D01*
X115588095Y-49038095D01*
X117111904Y-49752380D02*
X116540476Y-49752380D01*
X116826190Y-49752380D02*
X116826190Y-48752380D01*
X116730952Y-48895238D01*
X116635714Y-48990476D01*
X116540476Y-49038095D01*
%TO.C,R10*%
X115207142Y-51252380D02*
X114873809Y-50776190D01*
X114635714Y-51252380D02*
X114635714Y-50252380D01*
X115016666Y-50252380D01*
X115111904Y-50300000D01*
X115159523Y-50347619D01*
X115207142Y-50442857D01*
X115207142Y-50585714D01*
X115159523Y-50680952D01*
X115111904Y-50728571D01*
X115016666Y-50776190D01*
X114635714Y-50776190D01*
X116159523Y-51252380D02*
X115588095Y-51252380D01*
X115873809Y-51252380D02*
X115873809Y-50252380D01*
X115778571Y-50395238D01*
X115683333Y-50490476D01*
X115588095Y-50538095D01*
X116778571Y-50252380D02*
X116873809Y-50252380D01*
X116969047Y-50300000D01*
X117016666Y-50347619D01*
X117064285Y-50442857D01*
X117111904Y-50633333D01*
X117111904Y-50871428D01*
X117064285Y-51061904D01*
X117016666Y-51157142D01*
X116969047Y-51204761D01*
X116873809Y-51252380D01*
X116778571Y-51252380D01*
X116683333Y-51204761D01*
X116635714Y-51157142D01*
X116588095Y-51061904D01*
X116540476Y-50871428D01*
X116540476Y-50633333D01*
X116588095Y-50442857D01*
X116635714Y-50347619D01*
X116683333Y-50300000D01*
X116778571Y-50252380D01*
%TO.C,R9*%
X115233333Y-48352380D02*
X114900000Y-47876190D01*
X114661904Y-48352380D02*
X114661904Y-47352380D01*
X115042857Y-47352380D01*
X115138095Y-47400000D01*
X115185714Y-47447619D01*
X115233333Y-47542857D01*
X115233333Y-47685714D01*
X115185714Y-47780952D01*
X115138095Y-47828571D01*
X115042857Y-47876190D01*
X114661904Y-47876190D01*
X115709523Y-48352380D02*
X115900000Y-48352380D01*
X115995238Y-48304761D01*
X116042857Y-48257142D01*
X116138095Y-48114285D01*
X116185714Y-47923809D01*
X116185714Y-47542857D01*
X116138095Y-47447619D01*
X116090476Y-47400000D01*
X115995238Y-47352380D01*
X115804761Y-47352380D01*
X115709523Y-47400000D01*
X115661904Y-47447619D01*
X115614285Y-47542857D01*
X115614285Y-47780952D01*
X115661904Y-47876190D01*
X115709523Y-47923809D01*
X115804761Y-47971428D01*
X115995238Y-47971428D01*
X116090476Y-47923809D01*
X116138095Y-47876190D01*
X116185714Y-47780952D01*
%TO.C,R8*%
X115183333Y-52752380D02*
X114850000Y-52276190D01*
X114611904Y-52752380D02*
X114611904Y-51752380D01*
X114992857Y-51752380D01*
X115088095Y-51800000D01*
X115135714Y-51847619D01*
X115183333Y-51942857D01*
X115183333Y-52085714D01*
X115135714Y-52180952D01*
X115088095Y-52228571D01*
X114992857Y-52276190D01*
X114611904Y-52276190D01*
X115754761Y-52180952D02*
X115659523Y-52133333D01*
X115611904Y-52085714D01*
X115564285Y-51990476D01*
X115564285Y-51942857D01*
X115611904Y-51847619D01*
X115659523Y-51800000D01*
X115754761Y-51752380D01*
X115945238Y-51752380D01*
X116040476Y-51800000D01*
X116088095Y-51847619D01*
X116135714Y-51942857D01*
X116135714Y-51990476D01*
X116088095Y-52085714D01*
X116040476Y-52133333D01*
X115945238Y-52180952D01*
X115754761Y-52180952D01*
X115659523Y-52228571D01*
X115611904Y-52276190D01*
X115564285Y-52371428D01*
X115564285Y-52561904D01*
X115611904Y-52657142D01*
X115659523Y-52704761D01*
X115754761Y-52752380D01*
X115945238Y-52752380D01*
X116040476Y-52704761D01*
X116088095Y-52657142D01*
X116135714Y-52561904D01*
X116135714Y-52371428D01*
X116088095Y-52276190D01*
X116040476Y-52228571D01*
X115945238Y-52180952D01*
%TO.C,R7*%
X84633333Y-73952380D02*
X84300000Y-73476190D01*
X84061904Y-73952380D02*
X84061904Y-72952380D01*
X84442857Y-72952380D01*
X84538095Y-73000000D01*
X84585714Y-73047619D01*
X84633333Y-73142857D01*
X84633333Y-73285714D01*
X84585714Y-73380952D01*
X84538095Y-73428571D01*
X84442857Y-73476190D01*
X84061904Y-73476190D01*
X84966666Y-72952380D02*
X85633333Y-72952380D01*
X85204761Y-73952380D01*
%TO.C,R6*%
X101352380Y-68566666D02*
X100876190Y-68900000D01*
X101352380Y-69138095D02*
X100352380Y-69138095D01*
X100352380Y-68757142D01*
X100400000Y-68661904D01*
X100447619Y-68614285D01*
X100542857Y-68566666D01*
X100685714Y-68566666D01*
X100780952Y-68614285D01*
X100828571Y-68661904D01*
X100876190Y-68757142D01*
X100876190Y-69138095D01*
X100352380Y-67709523D02*
X100352380Y-67900000D01*
X100400000Y-67995238D01*
X100447619Y-68042857D01*
X100590476Y-68138095D01*
X100780952Y-68185714D01*
X101161904Y-68185714D01*
X101257142Y-68138095D01*
X101304761Y-68090476D01*
X101352380Y-67995238D01*
X101352380Y-67804761D01*
X101304761Y-67709523D01*
X101257142Y-67661904D01*
X101161904Y-67614285D01*
X100923809Y-67614285D01*
X100828571Y-67661904D01*
X100780952Y-67709523D01*
X100733333Y-67804761D01*
X100733333Y-67995238D01*
X100780952Y-68090476D01*
X100828571Y-68138095D01*
X100923809Y-68185714D01*
%TO.C,R4*%
X115652380Y-55666666D02*
X115176190Y-56000000D01*
X115652380Y-56238095D02*
X114652380Y-56238095D01*
X114652380Y-55857142D01*
X114700000Y-55761904D01*
X114747619Y-55714285D01*
X114842857Y-55666666D01*
X114985714Y-55666666D01*
X115080952Y-55714285D01*
X115128571Y-55761904D01*
X115176190Y-55857142D01*
X115176190Y-56238095D01*
X114985714Y-54809523D02*
X115652380Y-54809523D01*
X114604761Y-55047619D02*
X115319047Y-55285714D01*
X115319047Y-54666666D01*
%TO.C,R2*%
X75833333Y-67352380D02*
X75500000Y-66876190D01*
X75261904Y-67352380D02*
X75261904Y-66352380D01*
X75642857Y-66352380D01*
X75738095Y-66400000D01*
X75785714Y-66447619D01*
X75833333Y-66542857D01*
X75833333Y-66685714D01*
X75785714Y-66780952D01*
X75738095Y-66828571D01*
X75642857Y-66876190D01*
X75261904Y-66876190D01*
X76214285Y-66447619D02*
X76261904Y-66400000D01*
X76357142Y-66352380D01*
X76595238Y-66352380D01*
X76690476Y-66400000D01*
X76738095Y-66447619D01*
X76785714Y-66542857D01*
X76785714Y-66638095D01*
X76738095Y-66780952D01*
X76166666Y-67352380D01*
X76785714Y-67352380D01*
%TO.C,R1*%
X117252380Y-55666666D02*
X116776190Y-56000000D01*
X117252380Y-56238095D02*
X116252380Y-56238095D01*
X116252380Y-55857142D01*
X116300000Y-55761904D01*
X116347619Y-55714285D01*
X116442857Y-55666666D01*
X116585714Y-55666666D01*
X116680952Y-55714285D01*
X116728571Y-55761904D01*
X116776190Y-55857142D01*
X116776190Y-56238095D01*
X117252380Y-54714285D02*
X117252380Y-55285714D01*
X117252380Y-55000000D02*
X116252380Y-55000000D01*
X116395238Y-55095238D01*
X116490476Y-55190476D01*
X116538095Y-55285714D01*
%TO.C,Q2*%
X94447619Y-60795238D02*
X94400000Y-60890476D01*
X94304761Y-60985714D01*
X94161904Y-61128571D01*
X94114285Y-61223809D01*
X94114285Y-61319047D01*
X94352380Y-61271428D02*
X94304761Y-61366666D01*
X94209523Y-61461904D01*
X94019047Y-61509523D01*
X93685714Y-61509523D01*
X93495238Y-61461904D01*
X93400000Y-61366666D01*
X93352380Y-61271428D01*
X93352380Y-61080952D01*
X93400000Y-60985714D01*
X93495238Y-60890476D01*
X93685714Y-60842857D01*
X94019047Y-60842857D01*
X94209523Y-60890476D01*
X94304761Y-60985714D01*
X94352380Y-61080952D01*
X94352380Y-61271428D01*
X93447619Y-60461904D02*
X93400000Y-60414285D01*
X93352380Y-60319047D01*
X93352380Y-60080952D01*
X93400000Y-59985714D01*
X93447619Y-59938095D01*
X93542857Y-59890476D01*
X93638095Y-59890476D01*
X93780952Y-59938095D01*
X94352380Y-60509523D01*
X94352380Y-59890476D01*
%TO.C,D1*%
X79052380Y-63838095D02*
X78052380Y-63838095D01*
X78052380Y-63600000D01*
X78100000Y-63457142D01*
X78195238Y-63361904D01*
X78290476Y-63314285D01*
X78480952Y-63266666D01*
X78623809Y-63266666D01*
X78814285Y-63314285D01*
X78909523Y-63361904D01*
X79004761Y-63457142D01*
X79052380Y-63600000D01*
X79052380Y-63838095D01*
X79052380Y-62314285D02*
X79052380Y-62885714D01*
X79052380Y-62600000D02*
X78052380Y-62600000D01*
X78195238Y-62695238D01*
X78290476Y-62790476D01*
X78338095Y-62885714D01*
%TO.C,U3*%
X80038095Y-74352380D02*
X80038095Y-75161904D01*
X80085714Y-75257142D01*
X80133333Y-75304761D01*
X80228571Y-75352380D01*
X80419047Y-75352380D01*
X80514285Y-75304761D01*
X80561904Y-75257142D01*
X80609523Y-75161904D01*
X80609523Y-74352380D01*
X80990476Y-74352380D02*
X81609523Y-74352380D01*
X81276190Y-74733333D01*
X81419047Y-74733333D01*
X81514285Y-74780952D01*
X81561904Y-74828571D01*
X81609523Y-74923809D01*
X81609523Y-75161904D01*
X81561904Y-75257142D01*
X81514285Y-75304761D01*
X81419047Y-75352380D01*
X81133333Y-75352380D01*
X81038095Y-75304761D01*
X80990476Y-75257142D01*
%TO.C,SW1*%
X108166666Y-72104761D02*
X108309523Y-72152380D01*
X108547619Y-72152380D01*
X108642857Y-72104761D01*
X108690476Y-72057142D01*
X108738095Y-71961904D01*
X108738095Y-71866666D01*
X108690476Y-71771428D01*
X108642857Y-71723809D01*
X108547619Y-71676190D01*
X108357142Y-71628571D01*
X108261904Y-71580952D01*
X108214285Y-71533333D01*
X108166666Y-71438095D01*
X108166666Y-71342857D01*
X108214285Y-71247619D01*
X108261904Y-71200000D01*
X108357142Y-71152380D01*
X108595238Y-71152380D01*
X108738095Y-71200000D01*
X109071428Y-71152380D02*
X109309523Y-72152380D01*
X109500000Y-71438095D01*
X109690476Y-72152380D01*
X109928571Y-71152380D01*
X110833333Y-72152380D02*
X110261904Y-72152380D01*
X110547619Y-72152380D02*
X110547619Y-71152380D01*
X110452380Y-71295238D01*
X110357142Y-71390476D01*
X110261904Y-71438095D01*
%TO.C,C2*%
X65733333Y-53407142D02*
X65685714Y-53454761D01*
X65542857Y-53502380D01*
X65447619Y-53502380D01*
X65304761Y-53454761D01*
X65209523Y-53359523D01*
X65161904Y-53264285D01*
X65114285Y-53073809D01*
X65114285Y-52930952D01*
X65161904Y-52740476D01*
X65209523Y-52645238D01*
X65304761Y-52550000D01*
X65447619Y-52502380D01*
X65542857Y-52502380D01*
X65685714Y-52550000D01*
X65733333Y-52597619D01*
X66114285Y-52597619D02*
X66161904Y-52550000D01*
X66257142Y-52502380D01*
X66495238Y-52502380D01*
X66590476Y-52550000D01*
X66638095Y-52597619D01*
X66685714Y-52692857D01*
X66685714Y-52788095D01*
X66638095Y-52930952D01*
X66066666Y-53502380D01*
X66685714Y-53502380D01*
%TO.C,TP6*%
X113783333Y-67352380D02*
X113783333Y-66352380D01*
X114164285Y-66352380D01*
X114259523Y-66400000D01*
X114307142Y-66447619D01*
X114354761Y-66542857D01*
X114354761Y-66685714D01*
X114307142Y-66780952D01*
X114259523Y-66828571D01*
X114164285Y-66876190D01*
X113783333Y-66876190D01*
X114735714Y-67066666D02*
X115211904Y-67066666D01*
X114640476Y-67352380D02*
X114973809Y-66352380D01*
X115307142Y-67352380D01*
X116116666Y-66352380D02*
X115640476Y-66352380D01*
X115592857Y-66828571D01*
X115640476Y-66780952D01*
X115735714Y-66733333D01*
X115973809Y-66733333D01*
X116069047Y-66780952D01*
X116116666Y-66828571D01*
X116164285Y-66923809D01*
X116164285Y-67161904D01*
X116116666Y-67257142D01*
X116069047Y-67304761D01*
X115973809Y-67352380D01*
X115735714Y-67352380D01*
X115640476Y-67304761D01*
X115592857Y-67257142D01*
%TO.C,TP5*%
X113783333Y-71652380D02*
X113783333Y-70652380D01*
X114164285Y-70652380D01*
X114259523Y-70700000D01*
X114307142Y-70747619D01*
X114354761Y-70842857D01*
X114354761Y-70985714D01*
X114307142Y-71080952D01*
X114259523Y-71128571D01*
X114164285Y-71176190D01*
X113783333Y-71176190D01*
X114735714Y-71366666D02*
X115211904Y-71366666D01*
X114640476Y-71652380D02*
X114973809Y-70652380D01*
X115307142Y-71652380D01*
X116069047Y-70985714D02*
X116069047Y-71652380D01*
X115830952Y-70604761D02*
X115592857Y-71319047D01*
X116211904Y-71319047D01*
%TO.C,TP4*%
X113833333Y-75902380D02*
X113833333Y-74902380D01*
X114214285Y-74902380D01*
X114309523Y-74950000D01*
X114357142Y-74997619D01*
X114404761Y-75092857D01*
X114404761Y-75235714D01*
X114357142Y-75330952D01*
X114309523Y-75378571D01*
X114214285Y-75426190D01*
X113833333Y-75426190D01*
X114785714Y-75616666D02*
X115261904Y-75616666D01*
X114690476Y-75902380D02*
X115023809Y-74902380D01*
X115357142Y-75902380D01*
X115595238Y-74902380D02*
X116214285Y-74902380D01*
X115880952Y-75283333D01*
X116023809Y-75283333D01*
X116119047Y-75330952D01*
X116166666Y-75378571D01*
X116214285Y-75473809D01*
X116214285Y-75711904D01*
X116166666Y-75807142D01*
X116119047Y-75854761D01*
X116023809Y-75902380D01*
X115738095Y-75902380D01*
X115642857Y-75854761D01*
X115595238Y-75807142D01*
%TO.C,TP3*%
X109652380Y-106238095D02*
X109652380Y-105619047D01*
X110033333Y-105952380D01*
X110033333Y-105809523D01*
X110080952Y-105714285D01*
X110128571Y-105666666D01*
X110223809Y-105619047D01*
X110461904Y-105619047D01*
X110557142Y-105666666D01*
X110604761Y-105714285D01*
X110652380Y-105809523D01*
X110652380Y-106095238D01*
X110604761Y-106190476D01*
X110557142Y-106238095D01*
X109652380Y-105333333D02*
X110652380Y-105000000D01*
X109652380Y-104666666D01*
X109652380Y-104428571D02*
X109652380Y-103809523D01*
X110033333Y-104142857D01*
X110033333Y-104000000D01*
X110080952Y-103904761D01*
X110128571Y-103857142D01*
X110223809Y-103809523D01*
X110461904Y-103809523D01*
X110557142Y-103857142D01*
X110604761Y-103904761D01*
X110652380Y-104000000D01*
X110652380Y-104285714D01*
X110604761Y-104380952D01*
X110557142Y-104428571D01*
%TO.C,TP2*%
X109700000Y-100261904D02*
X109652380Y-100357142D01*
X109652380Y-100500000D01*
X109700000Y-100642857D01*
X109795238Y-100738095D01*
X109890476Y-100785714D01*
X110080952Y-100833333D01*
X110223809Y-100833333D01*
X110414285Y-100785714D01*
X110509523Y-100738095D01*
X110604761Y-100642857D01*
X110652380Y-100500000D01*
X110652380Y-100404761D01*
X110604761Y-100261904D01*
X110557142Y-100214285D01*
X110223809Y-100214285D01*
X110223809Y-100404761D01*
X110652380Y-99785714D02*
X109652380Y-99785714D01*
X110652380Y-99214285D01*
X109652380Y-99214285D01*
X110652380Y-98738095D02*
X109652380Y-98738095D01*
X109652380Y-98500000D01*
X109700000Y-98357142D01*
X109795238Y-98261904D01*
X109890476Y-98214285D01*
X110080952Y-98166666D01*
X110223809Y-98166666D01*
X110414285Y-98214285D01*
X110509523Y-98261904D01*
X110604761Y-98357142D01*
X110652380Y-98500000D01*
X110652380Y-98738095D01*
%TO.C,J1*%
X69066666Y-48752380D02*
X69066666Y-49466666D01*
X69019047Y-49609523D01*
X68923809Y-49704761D01*
X68780952Y-49752380D01*
X68685714Y-49752380D01*
X70066666Y-49752380D02*
X69495238Y-49752380D01*
X69780952Y-49752380D02*
X69780952Y-48752380D01*
X69685714Y-48895238D01*
X69590476Y-48990476D01*
X69495238Y-49038095D01*
%TO.C,C13*%
X112557142Y-52742857D02*
X112604761Y-52790476D01*
X112652380Y-52933333D01*
X112652380Y-53028571D01*
X112604761Y-53171428D01*
X112509523Y-53266666D01*
X112414285Y-53314285D01*
X112223809Y-53361904D01*
X112080952Y-53361904D01*
X111890476Y-53314285D01*
X111795238Y-53266666D01*
X111700000Y-53171428D01*
X111652380Y-53028571D01*
X111652380Y-52933333D01*
X111700000Y-52790476D01*
X111747619Y-52742857D01*
X112652380Y-51790476D02*
X112652380Y-52361904D01*
X112652380Y-52076190D02*
X111652380Y-52076190D01*
X111795238Y-52171428D01*
X111890476Y-52266666D01*
X111938095Y-52361904D01*
X111652380Y-51457142D02*
X111652380Y-50838095D01*
X112033333Y-51171428D01*
X112033333Y-51028571D01*
X112080952Y-50933333D01*
X112128571Y-50885714D01*
X112223809Y-50838095D01*
X112461904Y-50838095D01*
X112557142Y-50885714D01*
X112604761Y-50933333D01*
X112652380Y-51028571D01*
X112652380Y-51314285D01*
X112604761Y-51409523D01*
X112557142Y-51457142D01*
%TO.C,C15*%
X112557142Y-49142857D02*
X112604761Y-49190476D01*
X112652380Y-49333333D01*
X112652380Y-49428571D01*
X112604761Y-49571428D01*
X112509523Y-49666666D01*
X112414285Y-49714285D01*
X112223809Y-49761904D01*
X112080952Y-49761904D01*
X111890476Y-49714285D01*
X111795238Y-49666666D01*
X111700000Y-49571428D01*
X111652380Y-49428571D01*
X111652380Y-49333333D01*
X111700000Y-49190476D01*
X111747619Y-49142857D01*
X112652380Y-48190476D02*
X112652380Y-48761904D01*
X112652380Y-48476190D02*
X111652380Y-48476190D01*
X111795238Y-48571428D01*
X111890476Y-48666666D01*
X111938095Y-48761904D01*
X111652380Y-47285714D02*
X111652380Y-47761904D01*
X112128571Y-47809523D01*
X112080952Y-47761904D01*
X112033333Y-47666666D01*
X112033333Y-47428571D01*
X112080952Y-47333333D01*
X112128571Y-47285714D01*
X112223809Y-47238095D01*
X112461904Y-47238095D01*
X112557142Y-47285714D01*
X112604761Y-47333333D01*
X112652380Y-47428571D01*
X112652380Y-47666666D01*
X112604761Y-47761904D01*
X112557142Y-47809523D01*
%TO.C,U2*%
X112838095Y-58552380D02*
X112838095Y-59361904D01*
X112885714Y-59457142D01*
X112933333Y-59504761D01*
X113028571Y-59552380D01*
X113219047Y-59552380D01*
X113314285Y-59504761D01*
X113361904Y-59457142D01*
X113409523Y-59361904D01*
X113409523Y-58552380D01*
X113838095Y-58647619D02*
X113885714Y-58600000D01*
X113980952Y-58552380D01*
X114219047Y-58552380D01*
X114314285Y-58600000D01*
X114361904Y-58647619D01*
X114409523Y-58742857D01*
X114409523Y-58838095D01*
X114361904Y-58980952D01*
X113790476Y-59552380D01*
X114409523Y-59552380D01*
%TO.C,C12*%
X81557142Y-78257142D02*
X81509523Y-78304761D01*
X81366666Y-78352380D01*
X81271428Y-78352380D01*
X81128571Y-78304761D01*
X81033333Y-78209523D01*
X80985714Y-78114285D01*
X80938095Y-77923809D01*
X80938095Y-77780952D01*
X80985714Y-77590476D01*
X81033333Y-77495238D01*
X81128571Y-77400000D01*
X81271428Y-77352380D01*
X81366666Y-77352380D01*
X81509523Y-77400000D01*
X81557142Y-77447619D01*
X82509523Y-78352380D02*
X81938095Y-78352380D01*
X82223809Y-78352380D02*
X82223809Y-77352380D01*
X82128571Y-77495238D01*
X82033333Y-77590476D01*
X81938095Y-77638095D01*
X82890476Y-77447619D02*
X82938095Y-77400000D01*
X83033333Y-77352380D01*
X83271428Y-77352380D01*
X83366666Y-77400000D01*
X83414285Y-77447619D01*
X83461904Y-77542857D01*
X83461904Y-77638095D01*
X83414285Y-77780952D01*
X82842857Y-78352380D01*
X83461904Y-78352380D01*
%TO.C,C10*%
X76957142Y-78257142D02*
X76909523Y-78304761D01*
X76766666Y-78352380D01*
X76671428Y-78352380D01*
X76528571Y-78304761D01*
X76433333Y-78209523D01*
X76385714Y-78114285D01*
X76338095Y-77923809D01*
X76338095Y-77780952D01*
X76385714Y-77590476D01*
X76433333Y-77495238D01*
X76528571Y-77400000D01*
X76671428Y-77352380D01*
X76766666Y-77352380D01*
X76909523Y-77400000D01*
X76957142Y-77447619D01*
X77909523Y-78352380D02*
X77338095Y-78352380D01*
X77623809Y-78352380D02*
X77623809Y-77352380D01*
X77528571Y-77495238D01*
X77433333Y-77590476D01*
X77338095Y-77638095D01*
X78528571Y-77352380D02*
X78623809Y-77352380D01*
X78719047Y-77400000D01*
X78766666Y-77447619D01*
X78814285Y-77542857D01*
X78861904Y-77733333D01*
X78861904Y-77971428D01*
X78814285Y-78161904D01*
X78766666Y-78257142D01*
X78719047Y-78304761D01*
X78623809Y-78352380D01*
X78528571Y-78352380D01*
X78433333Y-78304761D01*
X78385714Y-78257142D01*
X78338095Y-78161904D01*
X78290476Y-77971428D01*
X78290476Y-77733333D01*
X78338095Y-77542857D01*
X78385714Y-77447619D01*
X78433333Y-77400000D01*
X78528571Y-77352380D01*
%TO.C,C11*%
X102807142Y-65607142D02*
X102759523Y-65654761D01*
X102616666Y-65702380D01*
X102521428Y-65702380D01*
X102378571Y-65654761D01*
X102283333Y-65559523D01*
X102235714Y-65464285D01*
X102188095Y-65273809D01*
X102188095Y-65130952D01*
X102235714Y-64940476D01*
X102283333Y-64845238D01*
X102378571Y-64750000D01*
X102521428Y-64702380D01*
X102616666Y-64702380D01*
X102759523Y-64750000D01*
X102807142Y-64797619D01*
X103759523Y-65702380D02*
X103188095Y-65702380D01*
X103473809Y-65702380D02*
X103473809Y-64702380D01*
X103378571Y-64845238D01*
X103283333Y-64940476D01*
X103188095Y-64988095D01*
X104711904Y-65702380D02*
X104140476Y-65702380D01*
X104426190Y-65702380D02*
X104426190Y-64702380D01*
X104330952Y-64845238D01*
X104235714Y-64940476D01*
X104140476Y-64988095D01*
%TO.C,C5*%
X75433333Y-64257142D02*
X75385714Y-64304761D01*
X75242857Y-64352380D01*
X75147619Y-64352380D01*
X75004761Y-64304761D01*
X74909523Y-64209523D01*
X74861904Y-64114285D01*
X74814285Y-63923809D01*
X74814285Y-63780952D01*
X74861904Y-63590476D01*
X74909523Y-63495238D01*
X75004761Y-63400000D01*
X75147619Y-63352380D01*
X75242857Y-63352380D01*
X75385714Y-63400000D01*
X75433333Y-63447619D01*
X76338095Y-63352380D02*
X75861904Y-63352380D01*
X75814285Y-63828571D01*
X75861904Y-63780952D01*
X75957142Y-63733333D01*
X76195238Y-63733333D01*
X76290476Y-63780952D01*
X76338095Y-63828571D01*
X76385714Y-63923809D01*
X76385714Y-64161904D01*
X76338095Y-64257142D01*
X76290476Y-64304761D01*
X76195238Y-64352380D01*
X75957142Y-64352380D01*
X75861904Y-64304761D01*
X75814285Y-64257142D01*
%TO.C,C9*%
X87233333Y-77257142D02*
X87185714Y-77304761D01*
X87042857Y-77352380D01*
X86947619Y-77352380D01*
X86804761Y-77304761D01*
X86709523Y-77209523D01*
X86661904Y-77114285D01*
X86614285Y-76923809D01*
X86614285Y-76780952D01*
X86661904Y-76590476D01*
X86709523Y-76495238D01*
X86804761Y-76400000D01*
X86947619Y-76352380D01*
X87042857Y-76352380D01*
X87185714Y-76400000D01*
X87233333Y-76447619D01*
X87709523Y-77352380D02*
X87900000Y-77352380D01*
X87995238Y-77304761D01*
X88042857Y-77257142D01*
X88138095Y-77114285D01*
X88185714Y-76923809D01*
X88185714Y-76542857D01*
X88138095Y-76447619D01*
X88090476Y-76400000D01*
X87995238Y-76352380D01*
X87804761Y-76352380D01*
X87709523Y-76400000D01*
X87661904Y-76447619D01*
X87614285Y-76542857D01*
X87614285Y-76780952D01*
X87661904Y-76876190D01*
X87709523Y-76923809D01*
X87804761Y-76971428D01*
X87995238Y-76971428D01*
X88090476Y-76923809D01*
X88138095Y-76876190D01*
X88185714Y-76780952D01*
%TO.C,C4*%
X112457142Y-55666666D02*
X112504761Y-55714285D01*
X112552380Y-55857142D01*
X112552380Y-55952380D01*
X112504761Y-56095238D01*
X112409523Y-56190476D01*
X112314285Y-56238095D01*
X112123809Y-56285714D01*
X111980952Y-56285714D01*
X111790476Y-56238095D01*
X111695238Y-56190476D01*
X111600000Y-56095238D01*
X111552380Y-55952380D01*
X111552380Y-55857142D01*
X111600000Y-55714285D01*
X111647619Y-55666666D01*
X111885714Y-54809523D02*
X112552380Y-54809523D01*
X111504761Y-55047619D02*
X112219047Y-55285714D01*
X112219047Y-54666666D01*
%TO.C,C8*%
X87233333Y-75257142D02*
X87185714Y-75304761D01*
X87042857Y-75352380D01*
X86947619Y-75352380D01*
X86804761Y-75304761D01*
X86709523Y-75209523D01*
X86661904Y-75114285D01*
X86614285Y-74923809D01*
X86614285Y-74780952D01*
X86661904Y-74590476D01*
X86709523Y-74495238D01*
X86804761Y-74400000D01*
X86947619Y-74352380D01*
X87042857Y-74352380D01*
X87185714Y-74400000D01*
X87233333Y-74447619D01*
X87804761Y-74780952D02*
X87709523Y-74733333D01*
X87661904Y-74685714D01*
X87614285Y-74590476D01*
X87614285Y-74542857D01*
X87661904Y-74447619D01*
X87709523Y-74400000D01*
X87804761Y-74352380D01*
X87995238Y-74352380D01*
X88090476Y-74400000D01*
X88138095Y-74447619D01*
X88185714Y-74542857D01*
X88185714Y-74590476D01*
X88138095Y-74685714D01*
X88090476Y-74733333D01*
X87995238Y-74780952D01*
X87804761Y-74780952D01*
X87709523Y-74828571D01*
X87661904Y-74876190D01*
X87614285Y-74971428D01*
X87614285Y-75161904D01*
X87661904Y-75257142D01*
X87709523Y-75304761D01*
X87804761Y-75352380D01*
X87995238Y-75352380D01*
X88090476Y-75304761D01*
X88138095Y-75257142D01*
X88185714Y-75161904D01*
X88185714Y-74971428D01*
X88138095Y-74876190D01*
X88090476Y-74828571D01*
X87995238Y-74780952D01*
%TO.C,C7*%
X100733333Y-74257142D02*
X100685714Y-74304761D01*
X100542857Y-74352380D01*
X100447619Y-74352380D01*
X100304761Y-74304761D01*
X100209523Y-74209523D01*
X100161904Y-74114285D01*
X100114285Y-73923809D01*
X100114285Y-73780952D01*
X100161904Y-73590476D01*
X100209523Y-73495238D01*
X100304761Y-73400000D01*
X100447619Y-73352380D01*
X100542857Y-73352380D01*
X100685714Y-73400000D01*
X100733333Y-73447619D01*
X101066666Y-73352380D02*
X101733333Y-73352380D01*
X101304761Y-74352380D01*
%TD*%
M02*
