%TF.GenerationSoftware,KiCad,Pcbnew,(5.1.5)-3*%
%TF.CreationDate,2020-06-04T21:45:27+02:00*%
%TF.ProjectId,loeti,6c6f6574-692e-46b6-9963-61645f706362,rev?*%
%TF.SameCoordinates,Original*%
%TF.FileFunction,Legend,Top*%
%TF.FilePolarity,Positive*%
%FSLAX46Y46*%
G04 Gerber Fmt 4.6, Leading zero omitted, Abs format (unit mm)*
G04 Created by KiCad (PCBNEW (5.1.5)-3) date 2020-06-04 21:45:27*
%MOMM*%
%LPD*%
G04 APERTURE LIST*
%ADD10C,0.150000*%
%ADD11C,0.120000*%
%ADD12C,0.300000*%
%ADD13C,0.015000*%
G04 APERTURE END LIST*
D10*
X108000000Y-70900000D02*
X108000000Y-65900000D01*
X66400000Y-48300000D02*
X66400000Y-53500000D01*
X60400000Y-48300000D02*
X66400000Y-48300000D01*
X97200000Y-56900000D02*
X93800000Y-56900000D01*
X88800000Y-44700000D02*
X88800000Y-46700000D01*
X86600000Y-44700000D02*
X88800000Y-44700000D01*
D11*
%TO.C,U5*%
X85390000Y-67390000D02*
X84075000Y-67390000D01*
X85390000Y-67090000D02*
X85390000Y-67390000D01*
X85690000Y-67090000D02*
X85390000Y-67090000D01*
X92610000Y-67090000D02*
X92610000Y-67390000D01*
X92310000Y-67090000D02*
X92610000Y-67090000D01*
X85390000Y-74310000D02*
X85390000Y-74010000D01*
X85690000Y-74310000D02*
X85390000Y-74310000D01*
X92610000Y-74310000D02*
X92610000Y-74010000D01*
X92310000Y-74310000D02*
X92610000Y-74310000D01*
%TO.C,R22*%
X81971267Y-68590000D02*
X81628733Y-68590000D01*
X81971267Y-69610000D02*
X81628733Y-69610000D01*
%TO.C,SW1*%
X71400000Y-77400000D02*
X75800000Y-77400000D01*
X75800000Y-77400000D02*
X75800000Y-77280000D01*
X75800000Y-76270000D02*
X75800000Y-75130000D01*
X75800000Y-74120000D02*
X75800000Y-74000000D01*
X75800000Y-74000000D02*
X71400000Y-74000000D01*
X71400000Y-74000000D02*
X71400000Y-74120000D01*
X71400000Y-75130000D02*
X71400000Y-76270000D01*
X71400000Y-77280000D02*
X71400000Y-77400000D01*
%TO.C,U7*%
X94020000Y-48900000D02*
X94020000Y-45900000D01*
X90780000Y-49900000D02*
X90780000Y-47900000D01*
%TO.C,U6*%
X66800000Y-42690000D02*
X63875000Y-42690000D01*
X66800000Y-42690000D02*
X68300000Y-42690000D01*
X66800000Y-45910000D02*
X65300000Y-45910000D01*
X66800000Y-45910000D02*
X68300000Y-45910000D01*
D12*
%TO.C,J3*%
X81020000Y-41000000D02*
G75*
G03X81020000Y-41000000I-150000J0D01*
G01*
D11*
%TO.C,R16*%
X91090000Y-43528733D02*
X91090000Y-43871267D01*
X92110000Y-43528733D02*
X92110000Y-43871267D01*
%TO.C,D5*%
X90980000Y-76940000D02*
X90980000Y-78400000D01*
X87820000Y-76940000D02*
X87820000Y-79100000D01*
X87820000Y-76940000D02*
X88750000Y-76940000D01*
X90980000Y-76940000D02*
X90050000Y-76940000D01*
%TO.C,D4*%
X82760000Y-75080000D02*
X81300000Y-75080000D01*
X82760000Y-71920000D02*
X80600000Y-71920000D01*
X82760000Y-71920000D02*
X82760000Y-72850000D01*
X82760000Y-75080000D02*
X82760000Y-74150000D01*
%TO.C,D3*%
X82600000Y-46550000D02*
X82600000Y-42650000D01*
X84600000Y-46550000D02*
X84600000Y-42650000D01*
X82600000Y-46550000D02*
X84600000Y-46550000D01*
%TO.C,U9*%
X85100000Y-54150000D02*
X84750000Y-54150000D01*
X85100000Y-58850000D02*
X85100000Y-54150000D01*
X84750000Y-58850000D02*
X85100000Y-58850000D01*
X80850000Y-58850000D02*
X80850000Y-60100000D01*
X80500000Y-54150000D02*
X80850000Y-54150000D01*
X80500000Y-58850000D02*
X80500000Y-54150000D01*
X80850000Y-58850000D02*
X80500000Y-58850000D01*
X83420000Y-58850000D02*
X82180000Y-58850000D01*
X83420000Y-54150000D02*
X82180000Y-54150000D01*
%TO.C,R20*%
X72890000Y-58528733D02*
X72890000Y-58871267D01*
X73910000Y-58528733D02*
X73910000Y-58871267D01*
%TO.C,U8*%
X72300000Y-54150000D02*
X71950000Y-54150000D01*
X72300000Y-58850000D02*
X72300000Y-54150000D01*
X71950000Y-58850000D02*
X72300000Y-58850000D01*
X68050000Y-58850000D02*
X68050000Y-60100000D01*
X67700000Y-54150000D02*
X68050000Y-54150000D01*
X67700000Y-58850000D02*
X67700000Y-54150000D01*
X68050000Y-58850000D02*
X67700000Y-58850000D01*
X70620000Y-58850000D02*
X69380000Y-58850000D01*
X70620000Y-54150000D02*
X69380000Y-54150000D01*
%TO.C,J2*%
X73360000Y-72460000D02*
X72600000Y-72460000D01*
X73360000Y-71700000D02*
X73360000Y-72460000D01*
X65770000Y-63820000D02*
X69770000Y-63820000D01*
X65770000Y-64340000D02*
X65770000Y-63820000D01*
X69770000Y-64340000D02*
X65770000Y-64340000D01*
X70890000Y-64730323D02*
X70890000Y-64699677D01*
X70890000Y-64715000D02*
X69770000Y-64715000D01*
X65770000Y-65090000D02*
X69770000Y-65090000D01*
X65770000Y-65610000D02*
X65770000Y-65090000D01*
X69770000Y-65610000D02*
X65770000Y-65610000D01*
X70890000Y-66000323D02*
X70890000Y-65969677D01*
X70890000Y-65985000D02*
X69770000Y-65985000D01*
X65770000Y-66360000D02*
X69770000Y-66360000D01*
X65770000Y-66880000D02*
X65770000Y-66360000D01*
X69770000Y-66880000D02*
X65770000Y-66880000D01*
X70890000Y-67270323D02*
X70890000Y-67239677D01*
X70890000Y-67255000D02*
X69770000Y-67255000D01*
X65770000Y-67630000D02*
X69770000Y-67630000D01*
X65770000Y-68150000D02*
X65770000Y-67630000D01*
X69770000Y-68150000D02*
X65770000Y-68150000D01*
X70890000Y-68540323D02*
X70890000Y-68509677D01*
X70890000Y-68525000D02*
X69770000Y-68525000D01*
X65770000Y-68900000D02*
X69770000Y-68900000D01*
X65770000Y-69420000D02*
X65770000Y-68900000D01*
X69770000Y-69420000D02*
X65770000Y-69420000D01*
X70890000Y-69810323D02*
X70890000Y-69779677D01*
X70890000Y-69795000D02*
X69770000Y-69795000D01*
X65770000Y-70170000D02*
X69770000Y-70170000D01*
X65770000Y-70690000D02*
X65770000Y-70170000D01*
X69770000Y-70690000D02*
X65770000Y-70690000D01*
X70890000Y-71080323D02*
X70890000Y-71049677D01*
X70890000Y-71065000D02*
X69770000Y-71065000D01*
X69770000Y-71540000D02*
X65770000Y-71540000D01*
X69770000Y-71660000D02*
X65770000Y-71660000D01*
X69770000Y-71780000D02*
X65770000Y-71780000D01*
X69770000Y-71900000D02*
X65770000Y-71900000D01*
X65770000Y-71440000D02*
X69770000Y-71440000D01*
X65770000Y-71960000D02*
X65770000Y-71440000D01*
X69770000Y-71960000D02*
X65770000Y-71960000D01*
X70890000Y-63385000D02*
X70890000Y-63460323D01*
X69770000Y-63385000D02*
X70890000Y-63385000D01*
X69770000Y-72395000D02*
X69770000Y-63385000D01*
X70890000Y-72395000D02*
X69770000Y-72395000D01*
X70890000Y-72319677D02*
X70890000Y-72395000D01*
%TO.C,R15*%
X92602064Y-53340000D02*
X89797936Y-53340000D01*
X92602064Y-56060000D02*
X89797936Y-56060000D01*
%TO.C,C16*%
X64628733Y-47410000D02*
X64971267Y-47410000D01*
X64628733Y-46390000D02*
X64971267Y-46390000D01*
%TO.C,C19*%
X94490000Y-46928733D02*
X94490000Y-47271267D01*
X95510000Y-46928733D02*
X95510000Y-47271267D01*
%TO.C,R3*%
X97971267Y-61390000D02*
X97628733Y-61390000D01*
X97971267Y-62410000D02*
X97628733Y-62410000D01*
%TO.C,R19*%
X93710000Y-43871267D02*
X93710000Y-43528733D01*
X92690000Y-43871267D02*
X92690000Y-43528733D01*
%TO.C,C18*%
X94290000Y-43528733D02*
X94290000Y-43871267D01*
X95310000Y-43528733D02*
X95310000Y-43871267D01*
%TO.C,R18*%
X95510000Y-62271267D02*
X95510000Y-61928733D01*
X94490000Y-62271267D02*
X94490000Y-61928733D01*
%TO.C,R17*%
X95510000Y-58671267D02*
X95510000Y-58328733D01*
X94490000Y-58671267D02*
X94490000Y-58328733D01*
%TO.C,Q3*%
X86240000Y-56920000D02*
X87700000Y-56920000D01*
X86240000Y-60080000D02*
X88400000Y-60080000D01*
X86240000Y-60080000D02*
X86240000Y-59150000D01*
X86240000Y-56920000D02*
X86240000Y-57850000D01*
%TO.C,C1*%
X114028733Y-50010000D02*
X114371267Y-50010000D01*
X114028733Y-48990000D02*
X114371267Y-48990000D01*
%TO.C,D2*%
X98093521Y-52154074D02*
X96354038Y-50414591D01*
X97054074Y-53193521D02*
X98093521Y-52154074D01*
X95314591Y-51454038D02*
X97054074Y-53193521D01*
%TO.C,Q4*%
X86800000Y-52260000D02*
X90250000Y-52260000D01*
X86800000Y-52260000D02*
X84850000Y-52260000D01*
X86800000Y-47140000D02*
X88750000Y-47140000D01*
X86800000Y-47140000D02*
X84850000Y-47140000D01*
%TO.C,Q1*%
X92180000Y-61340000D02*
X92180000Y-62800000D01*
X89020000Y-61340000D02*
X89020000Y-63500000D01*
X89020000Y-61340000D02*
X89950000Y-61340000D01*
X92180000Y-61340000D02*
X91250000Y-61340000D01*
%TO.C,C6*%
X106971267Y-58590000D02*
X106628733Y-58590000D01*
X106971267Y-59610000D02*
X106628733Y-59610000D01*
%TO.C,C14*%
X68028733Y-49010000D02*
X68371267Y-49010000D01*
X68028733Y-47990000D02*
X68371267Y-47990000D01*
%TO.C,C17*%
X110446538Y-53608178D02*
X111246538Y-53608178D01*
X110846538Y-53208178D02*
X110846538Y-54008178D01*
%TO.C,R5*%
X99890000Y-57528733D02*
X99890000Y-57871267D01*
X100910000Y-57528733D02*
X100910000Y-57871267D01*
%TO.C,C3*%
X106971267Y-62190000D02*
X106628733Y-62190000D01*
X106971267Y-63210000D02*
X106628733Y-63210000D01*
%TO.C,U1*%
X111620000Y-47500000D02*
X111620000Y-46300000D01*
X115620000Y-47500000D02*
X111620000Y-47500000D01*
X111620000Y-42700000D02*
X114320000Y-42700000D01*
X111620000Y-43900000D02*
X111620000Y-42700000D01*
%TO.C,R14*%
X86510000Y-54871267D02*
X86510000Y-54528733D01*
X85490000Y-54871267D02*
X85490000Y-54528733D01*
%TO.C,R13*%
X93710000Y-58671267D02*
X93710000Y-58328733D01*
X92690000Y-58671267D02*
X92690000Y-58328733D01*
%TO.C,R12*%
X93710000Y-62271267D02*
X93710000Y-61928733D01*
X92690000Y-62271267D02*
X92690000Y-61928733D01*
%TO.C,R10*%
X68028733Y-50610000D02*
X68371267Y-50610000D01*
X68028733Y-49590000D02*
X68371267Y-49590000D01*
%TO.C,R8*%
X68028733Y-52210000D02*
X68371267Y-52210000D01*
X68028733Y-51190000D02*
X68371267Y-51190000D01*
%TO.C,R7*%
X86490000Y-63328733D02*
X86490000Y-63671267D01*
X87510000Y-63328733D02*
X87510000Y-63671267D01*
%TO.C,R6*%
X69290000Y-75528733D02*
X69290000Y-75871267D01*
X70310000Y-75528733D02*
X70310000Y-75871267D01*
%TO.C,R4*%
X106607033Y-65010000D02*
X106949567Y-65010000D01*
X106607033Y-63990000D02*
X106949567Y-63990000D01*
%TO.C,R2*%
X97971267Y-59790000D02*
X97628733Y-59790000D01*
X97971267Y-60810000D02*
X97628733Y-60810000D01*
%TO.C,R1*%
X103090000Y-66328733D02*
X103090000Y-66671267D01*
X104110000Y-66328733D02*
X104110000Y-66671267D01*
%TO.C,Q2*%
X89840000Y-56920000D02*
X91300000Y-56920000D01*
X89840000Y-60080000D02*
X92000000Y-60080000D01*
X89840000Y-60080000D02*
X89840000Y-59150000D01*
X89840000Y-56920000D02*
X89840000Y-57850000D01*
%TO.C,D1*%
X101368300Y-56920800D02*
X101368300Y-58330800D01*
X103688300Y-58330800D02*
X103688300Y-56300800D01*
X103688300Y-58330800D02*
X103028300Y-58330800D01*
X102028300Y-58330800D02*
X101368300Y-58330800D01*
%TO.C,C2*%
X113873411Y-52070436D02*
X114395915Y-52070436D01*
X113873411Y-50650436D02*
X114395915Y-50650436D01*
%TO.C,TP3*%
X111100000Y-102800000D02*
X115500000Y-102800000D01*
X111100000Y-107200000D02*
X111100000Y-102800000D01*
X115500000Y-107200000D02*
X111100000Y-107200000D01*
X115500000Y-102800000D02*
X115500000Y-107200000D01*
%TO.C,TP2*%
X111100000Y-97300000D02*
X115500000Y-97300000D01*
X111100000Y-101700000D02*
X111100000Y-97300000D01*
X115500000Y-101700000D02*
X111100000Y-101700000D01*
X115500000Y-97300000D02*
X115500000Y-101700000D01*
%TO.C,C13*%
X68028733Y-47410000D02*
X68371267Y-47410000D01*
X68028733Y-46390000D02*
X68371267Y-46390000D01*
%TO.C,U2*%
X104388300Y-63685800D02*
X104388300Y-64160800D01*
X104388300Y-64160800D02*
X103913300Y-64160800D01*
X100168300Y-60415800D02*
X100168300Y-59940800D01*
X100168300Y-59940800D02*
X100643300Y-59940800D01*
X100168300Y-63685800D02*
X100168300Y-64160800D01*
X100168300Y-64160800D02*
X100643300Y-64160800D01*
X104388300Y-60415800D02*
X104388300Y-59940800D01*
%TO.C,C12*%
X82028733Y-79810000D02*
X82371267Y-79810000D01*
X82028733Y-78790000D02*
X82371267Y-78790000D01*
%TO.C,C10*%
X77771267Y-78790000D02*
X77428733Y-78790000D01*
X77771267Y-79810000D02*
X77428733Y-79810000D01*
%TO.C,C11*%
X85710000Y-63671267D02*
X85710000Y-63328733D01*
X84690000Y-63671267D02*
X84690000Y-63328733D01*
%TO.C,C5*%
X116290000Y-44128733D02*
X116290000Y-44471267D01*
X117310000Y-44128733D02*
X117310000Y-44471267D01*
%TO.C,C9*%
X95777933Y-75410000D02*
X96120467Y-75410000D01*
X95777933Y-74390000D02*
X96120467Y-74390000D01*
%TO.C,C4*%
X106628733Y-61410000D02*
X106971267Y-61410000D01*
X106628733Y-60390000D02*
X106971267Y-60390000D01*
%TO.C,C8*%
X95777933Y-77138300D02*
X96120467Y-77138300D01*
X95777933Y-76118300D02*
X96120467Y-76118300D01*
%TO.C,C7*%
X97228733Y-68210000D02*
X97571267Y-68210000D01*
X97228733Y-67190000D02*
X97571267Y-67190000D01*
%TO.C,U5*%
D10*
X88838095Y-70152380D02*
X88838095Y-70961904D01*
X88885714Y-71057142D01*
X88933333Y-71104761D01*
X89028571Y-71152380D01*
X89219047Y-71152380D01*
X89314285Y-71104761D01*
X89361904Y-71057142D01*
X89409523Y-70961904D01*
X89409523Y-70152380D01*
X90361904Y-70152380D02*
X89885714Y-70152380D01*
X89838095Y-70628571D01*
X89885714Y-70580952D01*
X89980952Y-70533333D01*
X90219047Y-70533333D01*
X90314285Y-70580952D01*
X90361904Y-70628571D01*
X90409523Y-70723809D01*
X90409523Y-70961904D01*
X90361904Y-71057142D01*
X90314285Y-71104761D01*
X90219047Y-71152380D01*
X89980952Y-71152380D01*
X89885714Y-71104761D01*
X89838095Y-71057142D01*
%TO.C,R22*%
X81157142Y-70982380D02*
X80823809Y-70506190D01*
X80585714Y-70982380D02*
X80585714Y-69982380D01*
X80966666Y-69982380D01*
X81061904Y-70030000D01*
X81109523Y-70077619D01*
X81157142Y-70172857D01*
X81157142Y-70315714D01*
X81109523Y-70410952D01*
X81061904Y-70458571D01*
X80966666Y-70506190D01*
X80585714Y-70506190D01*
X81538095Y-70077619D02*
X81585714Y-70030000D01*
X81680952Y-69982380D01*
X81919047Y-69982380D01*
X82014285Y-70030000D01*
X82061904Y-70077619D01*
X82109523Y-70172857D01*
X82109523Y-70268095D01*
X82061904Y-70410952D01*
X81490476Y-70982380D01*
X82109523Y-70982380D01*
X82490476Y-70077619D02*
X82538095Y-70030000D01*
X82633333Y-69982380D01*
X82871428Y-69982380D01*
X82966666Y-70030000D01*
X83014285Y-70077619D01*
X83061904Y-70172857D01*
X83061904Y-70268095D01*
X83014285Y-70410952D01*
X82442857Y-70982380D01*
X83061904Y-70982380D01*
%TO.C,J1*%
X99666666Y-48752380D02*
X99666666Y-49466666D01*
X99619047Y-49609523D01*
X99523809Y-49704761D01*
X99380952Y-49752380D01*
X99285714Y-49752380D01*
X100666666Y-49752380D02*
X100095238Y-49752380D01*
X100380952Y-49752380D02*
X100380952Y-48752380D01*
X100285714Y-48895238D01*
X100190476Y-48990476D01*
X100095238Y-49038095D01*
%TO.C,SW1*%
X72266666Y-76104761D02*
X72409523Y-76152380D01*
X72647619Y-76152380D01*
X72742857Y-76104761D01*
X72790476Y-76057142D01*
X72838095Y-75961904D01*
X72838095Y-75866666D01*
X72790476Y-75771428D01*
X72742857Y-75723809D01*
X72647619Y-75676190D01*
X72457142Y-75628571D01*
X72361904Y-75580952D01*
X72314285Y-75533333D01*
X72266666Y-75438095D01*
X72266666Y-75342857D01*
X72314285Y-75247619D01*
X72361904Y-75200000D01*
X72457142Y-75152380D01*
X72695238Y-75152380D01*
X72838095Y-75200000D01*
X73171428Y-75152380D02*
X73409523Y-76152380D01*
X73600000Y-75438095D01*
X73790476Y-76152380D01*
X74028571Y-75152380D01*
X74933333Y-76152380D02*
X74361904Y-76152380D01*
X74647619Y-76152380D02*
X74647619Y-75152380D01*
X74552380Y-75295238D01*
X74457142Y-75390476D01*
X74361904Y-75438095D01*
%TO.C,U7*%
X91238095Y-47952380D02*
X91238095Y-48761904D01*
X91285714Y-48857142D01*
X91333333Y-48904761D01*
X91428571Y-48952380D01*
X91619047Y-48952380D01*
X91714285Y-48904761D01*
X91761904Y-48857142D01*
X91809523Y-48761904D01*
X91809523Y-47952380D01*
X92190476Y-47952380D02*
X92857142Y-47952380D01*
X92428571Y-48952380D01*
%TO.C,U6*%
X66038095Y-44552380D02*
X66038095Y-45361904D01*
X66085714Y-45457142D01*
X66133333Y-45504761D01*
X66228571Y-45552380D01*
X66419047Y-45552380D01*
X66514285Y-45504761D01*
X66561904Y-45457142D01*
X66609523Y-45361904D01*
X66609523Y-44552380D01*
X67514285Y-44552380D02*
X67323809Y-44552380D01*
X67228571Y-44600000D01*
X67180952Y-44647619D01*
X67085714Y-44790476D01*
X67038095Y-44980952D01*
X67038095Y-45361904D01*
X67085714Y-45457142D01*
X67133333Y-45504761D01*
X67228571Y-45552380D01*
X67419047Y-45552380D01*
X67514285Y-45504761D01*
X67561904Y-45457142D01*
X67609523Y-45361904D01*
X67609523Y-45123809D01*
X67561904Y-45028571D01*
X67514285Y-44980952D01*
X67419047Y-44933333D01*
X67228571Y-44933333D01*
X67133333Y-44980952D01*
X67085714Y-45028571D01*
X67038095Y-45123809D01*
%TO.C,J3*%
D13*
X82466400Y-45504856D02*
X83181743Y-45504856D01*
X83324811Y-45552546D01*
X83420190Y-45647925D01*
X83467880Y-45790993D01*
X83467880Y-45886372D01*
X82466400Y-45123340D02*
X82466400Y-44503376D01*
X82847916Y-44837203D01*
X82847916Y-44694134D01*
X82895606Y-44598755D01*
X82943295Y-44551066D01*
X83038674Y-44503376D01*
X83277122Y-44503376D01*
X83372501Y-44551066D01*
X83420190Y-44598755D01*
X83467880Y-44694134D01*
X83467880Y-44980271D01*
X83420190Y-45075650D01*
X83372501Y-45123340D01*
%TO.C,R16*%
D10*
X87852380Y-43742857D02*
X87376190Y-44076190D01*
X87852380Y-44314285D02*
X86852380Y-44314285D01*
X86852380Y-43933333D01*
X86900000Y-43838095D01*
X86947619Y-43790476D01*
X87042857Y-43742857D01*
X87185714Y-43742857D01*
X87280952Y-43790476D01*
X87328571Y-43838095D01*
X87376190Y-43933333D01*
X87376190Y-44314285D01*
X87852380Y-42790476D02*
X87852380Y-43361904D01*
X87852380Y-43076190D02*
X86852380Y-43076190D01*
X86995238Y-43171428D01*
X87090476Y-43266666D01*
X87138095Y-43361904D01*
X86852380Y-41933333D02*
X86852380Y-42123809D01*
X86900000Y-42219047D01*
X86947619Y-42266666D01*
X87090476Y-42361904D01*
X87280952Y-42409523D01*
X87661904Y-42409523D01*
X87757142Y-42361904D01*
X87804761Y-42314285D01*
X87852380Y-42219047D01*
X87852380Y-42028571D01*
X87804761Y-41933333D01*
X87757142Y-41885714D01*
X87661904Y-41838095D01*
X87423809Y-41838095D01*
X87328571Y-41885714D01*
X87280952Y-41933333D01*
X87233333Y-42028571D01*
X87233333Y-42219047D01*
X87280952Y-42314285D01*
X87328571Y-42361904D01*
X87423809Y-42409523D01*
%TO.C,D5*%
X88661904Y-78352380D02*
X88661904Y-77352380D01*
X88900000Y-77352380D01*
X89042857Y-77400000D01*
X89138095Y-77495238D01*
X89185714Y-77590476D01*
X89233333Y-77780952D01*
X89233333Y-77923809D01*
X89185714Y-78114285D01*
X89138095Y-78209523D01*
X89042857Y-78304761D01*
X88900000Y-78352380D01*
X88661904Y-78352380D01*
X90138095Y-77352380D02*
X89661904Y-77352380D01*
X89614285Y-77828571D01*
X89661904Y-77780952D01*
X89757142Y-77733333D01*
X89995238Y-77733333D01*
X90090476Y-77780952D01*
X90138095Y-77828571D01*
X90185714Y-77923809D01*
X90185714Y-78161904D01*
X90138095Y-78257142D01*
X90090476Y-78304761D01*
X89995238Y-78352380D01*
X89757142Y-78352380D01*
X89661904Y-78304761D01*
X89614285Y-78257142D01*
%TO.C,D4*%
X82452380Y-74238095D02*
X81452380Y-74238095D01*
X81452380Y-74000000D01*
X81500000Y-73857142D01*
X81595238Y-73761904D01*
X81690476Y-73714285D01*
X81880952Y-73666666D01*
X82023809Y-73666666D01*
X82214285Y-73714285D01*
X82309523Y-73761904D01*
X82404761Y-73857142D01*
X82452380Y-74000000D01*
X82452380Y-74238095D01*
X81785714Y-72809523D02*
X82452380Y-72809523D01*
X81404761Y-73047619D02*
X82119047Y-73285714D01*
X82119047Y-72666666D01*
%TO.C,D3*%
X86052380Y-45238095D02*
X85052380Y-45238095D01*
X85052380Y-45000000D01*
X85100000Y-44857142D01*
X85195238Y-44761904D01*
X85290476Y-44714285D01*
X85480952Y-44666666D01*
X85623809Y-44666666D01*
X85814285Y-44714285D01*
X85909523Y-44761904D01*
X86004761Y-44857142D01*
X86052380Y-45000000D01*
X86052380Y-45238095D01*
X85052380Y-44333333D02*
X85052380Y-43714285D01*
X85433333Y-44047619D01*
X85433333Y-43904761D01*
X85480952Y-43809523D01*
X85528571Y-43761904D01*
X85623809Y-43714285D01*
X85861904Y-43714285D01*
X85957142Y-43761904D01*
X86004761Y-43809523D01*
X86052380Y-43904761D01*
X86052380Y-44190476D01*
X86004761Y-44285714D01*
X85957142Y-44333333D01*
%TO.C,U9*%
X82252380Y-57143704D02*
X83061904Y-57143704D01*
X83157142Y-57096085D01*
X83204761Y-57048466D01*
X83252380Y-56953228D01*
X83252380Y-56762752D01*
X83204761Y-56667514D01*
X83157142Y-56619895D01*
X83061904Y-56572276D01*
X82252380Y-56572276D01*
X83252380Y-56048466D02*
X83252380Y-55857990D01*
X83204761Y-55762752D01*
X83157142Y-55715133D01*
X83014285Y-55619895D01*
X82823809Y-55572276D01*
X82442857Y-55572276D01*
X82347619Y-55619895D01*
X82300000Y-55667514D01*
X82252380Y-55762752D01*
X82252380Y-55953228D01*
X82300000Y-56048466D01*
X82347619Y-56096085D01*
X82442857Y-56143704D01*
X82680952Y-56143704D01*
X82776190Y-56096085D01*
X82823809Y-56048466D01*
X82871428Y-55953228D01*
X82871428Y-55762752D01*
X82823809Y-55667514D01*
X82776190Y-55619895D01*
X82680952Y-55572276D01*
%TO.C,R20*%
X75282380Y-59342857D02*
X74806190Y-59676190D01*
X75282380Y-59914285D02*
X74282380Y-59914285D01*
X74282380Y-59533333D01*
X74330000Y-59438095D01*
X74377619Y-59390476D01*
X74472857Y-59342857D01*
X74615714Y-59342857D01*
X74710952Y-59390476D01*
X74758571Y-59438095D01*
X74806190Y-59533333D01*
X74806190Y-59914285D01*
X74377619Y-58961904D02*
X74330000Y-58914285D01*
X74282380Y-58819047D01*
X74282380Y-58580952D01*
X74330000Y-58485714D01*
X74377619Y-58438095D01*
X74472857Y-58390476D01*
X74568095Y-58390476D01*
X74710952Y-58438095D01*
X75282380Y-59009523D01*
X75282380Y-58390476D01*
X74282380Y-57771428D02*
X74282380Y-57676190D01*
X74330000Y-57580952D01*
X74377619Y-57533333D01*
X74472857Y-57485714D01*
X74663333Y-57438095D01*
X74901428Y-57438095D01*
X75091904Y-57485714D01*
X75187142Y-57533333D01*
X75234761Y-57580952D01*
X75282380Y-57676190D01*
X75282380Y-57771428D01*
X75234761Y-57866666D01*
X75187142Y-57914285D01*
X75091904Y-57961904D01*
X74901428Y-58009523D01*
X74663333Y-58009523D01*
X74472857Y-57961904D01*
X74377619Y-57914285D01*
X74330000Y-57866666D01*
X74282380Y-57771428D01*
%TO.C,U8*%
X69238095Y-55952380D02*
X69238095Y-56761904D01*
X69285714Y-56857142D01*
X69333333Y-56904761D01*
X69428571Y-56952380D01*
X69619047Y-56952380D01*
X69714285Y-56904761D01*
X69761904Y-56857142D01*
X69809523Y-56761904D01*
X69809523Y-55952380D01*
X70428571Y-56380952D02*
X70333333Y-56333333D01*
X70285714Y-56285714D01*
X70238095Y-56190476D01*
X70238095Y-56142857D01*
X70285714Y-56047619D01*
X70333333Y-56000000D01*
X70428571Y-55952380D01*
X70619047Y-55952380D01*
X70714285Y-56000000D01*
X70761904Y-56047619D01*
X70809523Y-56142857D01*
X70809523Y-56190476D01*
X70761904Y-56285714D01*
X70714285Y-56333333D01*
X70619047Y-56380952D01*
X70428571Y-56380952D01*
X70333333Y-56428571D01*
X70285714Y-56476190D01*
X70238095Y-56571428D01*
X70238095Y-56761904D01*
X70285714Y-56857142D01*
X70333333Y-56904761D01*
X70428571Y-56952380D01*
X70619047Y-56952380D01*
X70714285Y-56904761D01*
X70761904Y-56857142D01*
X70809523Y-56761904D01*
X70809523Y-56571428D01*
X70761904Y-56476190D01*
X70714285Y-56428571D01*
X70619047Y-56380952D01*
%TO.C,J2*%
X74266666Y-71152380D02*
X74266666Y-71866666D01*
X74219047Y-72009523D01*
X74123809Y-72104761D01*
X73980952Y-72152380D01*
X73885714Y-72152380D01*
X74695238Y-71247619D02*
X74742857Y-71200000D01*
X74838095Y-71152380D01*
X75076190Y-71152380D01*
X75171428Y-71200000D01*
X75219047Y-71247619D01*
X75266666Y-71342857D01*
X75266666Y-71438095D01*
X75219047Y-71580952D01*
X74647619Y-72152380D01*
X75266666Y-72152380D01*
%TO.C,R15*%
X90557142Y-55052380D02*
X90223809Y-54576190D01*
X89985714Y-55052380D02*
X89985714Y-54052380D01*
X90366666Y-54052380D01*
X90461904Y-54100000D01*
X90509523Y-54147619D01*
X90557142Y-54242857D01*
X90557142Y-54385714D01*
X90509523Y-54480952D01*
X90461904Y-54528571D01*
X90366666Y-54576190D01*
X89985714Y-54576190D01*
X91509523Y-55052380D02*
X90938095Y-55052380D01*
X91223809Y-55052380D02*
X91223809Y-54052380D01*
X91128571Y-54195238D01*
X91033333Y-54290476D01*
X90938095Y-54338095D01*
X92414285Y-54052380D02*
X91938095Y-54052380D01*
X91890476Y-54528571D01*
X91938095Y-54480952D01*
X92033333Y-54433333D01*
X92271428Y-54433333D01*
X92366666Y-54480952D01*
X92414285Y-54528571D01*
X92461904Y-54623809D01*
X92461904Y-54861904D01*
X92414285Y-54957142D01*
X92366666Y-55004761D01*
X92271428Y-55052380D01*
X92033333Y-55052380D01*
X91938095Y-55004761D01*
X91890476Y-54957142D01*
%TO.C,C16*%
X60957142Y-49657142D02*
X60909523Y-49704761D01*
X60766666Y-49752380D01*
X60671428Y-49752380D01*
X60528571Y-49704761D01*
X60433333Y-49609523D01*
X60385714Y-49514285D01*
X60338095Y-49323809D01*
X60338095Y-49180952D01*
X60385714Y-48990476D01*
X60433333Y-48895238D01*
X60528571Y-48800000D01*
X60671428Y-48752380D01*
X60766666Y-48752380D01*
X60909523Y-48800000D01*
X60957142Y-48847619D01*
X61909523Y-49752380D02*
X61338095Y-49752380D01*
X61623809Y-49752380D02*
X61623809Y-48752380D01*
X61528571Y-48895238D01*
X61433333Y-48990476D01*
X61338095Y-49038095D01*
X62766666Y-48752380D02*
X62576190Y-48752380D01*
X62480952Y-48800000D01*
X62433333Y-48847619D01*
X62338095Y-48990476D01*
X62290476Y-49180952D01*
X62290476Y-49561904D01*
X62338095Y-49657142D01*
X62385714Y-49704761D01*
X62480952Y-49752380D01*
X62671428Y-49752380D01*
X62766666Y-49704761D01*
X62814285Y-49657142D01*
X62861904Y-49561904D01*
X62861904Y-49323809D01*
X62814285Y-49228571D01*
X62766666Y-49180952D01*
X62671428Y-49133333D01*
X62480952Y-49133333D01*
X62385714Y-49180952D01*
X62338095Y-49228571D01*
X62290476Y-49323809D01*
%TO.C,C19*%
X90157142Y-46542857D02*
X90204761Y-46590476D01*
X90252380Y-46733333D01*
X90252380Y-46828571D01*
X90204761Y-46971428D01*
X90109523Y-47066666D01*
X90014285Y-47114285D01*
X89823809Y-47161904D01*
X89680952Y-47161904D01*
X89490476Y-47114285D01*
X89395238Y-47066666D01*
X89300000Y-46971428D01*
X89252380Y-46828571D01*
X89252380Y-46733333D01*
X89300000Y-46590476D01*
X89347619Y-46542857D01*
X90252380Y-45590476D02*
X90252380Y-46161904D01*
X90252380Y-45876190D02*
X89252380Y-45876190D01*
X89395238Y-45971428D01*
X89490476Y-46066666D01*
X89538095Y-46161904D01*
X90252380Y-45114285D02*
X90252380Y-44923809D01*
X90204761Y-44828571D01*
X90157142Y-44780952D01*
X90014285Y-44685714D01*
X89823809Y-44638095D01*
X89442857Y-44638095D01*
X89347619Y-44685714D01*
X89300000Y-44733333D01*
X89252380Y-44828571D01*
X89252380Y-45019047D01*
X89300000Y-45114285D01*
X89347619Y-45161904D01*
X89442857Y-45209523D01*
X89680952Y-45209523D01*
X89776190Y-45161904D01*
X89823809Y-45114285D01*
X89871428Y-45019047D01*
X89871428Y-44828571D01*
X89823809Y-44733333D01*
X89776190Y-44685714D01*
X89680952Y-44638095D01*
%TO.C,R3*%
X98433333Y-64152380D02*
X98100000Y-63676190D01*
X97861904Y-64152380D02*
X97861904Y-63152380D01*
X98242857Y-63152380D01*
X98338095Y-63200000D01*
X98385714Y-63247619D01*
X98433333Y-63342857D01*
X98433333Y-63485714D01*
X98385714Y-63580952D01*
X98338095Y-63628571D01*
X98242857Y-63676190D01*
X97861904Y-63676190D01*
X98766666Y-63152380D02*
X99385714Y-63152380D01*
X99052380Y-63533333D01*
X99195238Y-63533333D01*
X99290476Y-63580952D01*
X99338095Y-63628571D01*
X99385714Y-63723809D01*
X99385714Y-63961904D01*
X99338095Y-64057142D01*
X99290476Y-64104761D01*
X99195238Y-64152380D01*
X98909523Y-64152380D01*
X98814285Y-64104761D01*
X98766666Y-64057142D01*
%TO.C,R19*%
X89052380Y-43742857D02*
X88576190Y-44076190D01*
X89052380Y-44314285D02*
X88052380Y-44314285D01*
X88052380Y-43933333D01*
X88100000Y-43838095D01*
X88147619Y-43790476D01*
X88242857Y-43742857D01*
X88385714Y-43742857D01*
X88480952Y-43790476D01*
X88528571Y-43838095D01*
X88576190Y-43933333D01*
X88576190Y-44314285D01*
X89052380Y-42790476D02*
X89052380Y-43361904D01*
X89052380Y-43076190D02*
X88052380Y-43076190D01*
X88195238Y-43171428D01*
X88290476Y-43266666D01*
X88338095Y-43361904D01*
X89052380Y-42314285D02*
X89052380Y-42123809D01*
X89004761Y-42028571D01*
X88957142Y-41980952D01*
X88814285Y-41885714D01*
X88623809Y-41838095D01*
X88242857Y-41838095D01*
X88147619Y-41885714D01*
X88100000Y-41933333D01*
X88052380Y-42028571D01*
X88052380Y-42219047D01*
X88100000Y-42314285D01*
X88147619Y-42361904D01*
X88242857Y-42409523D01*
X88480952Y-42409523D01*
X88576190Y-42361904D01*
X88623809Y-42314285D01*
X88671428Y-42219047D01*
X88671428Y-42028571D01*
X88623809Y-41933333D01*
X88576190Y-41885714D01*
X88480952Y-41838095D01*
%TO.C,C18*%
X90157142Y-43742857D02*
X90204761Y-43790476D01*
X90252380Y-43933333D01*
X90252380Y-44028571D01*
X90204761Y-44171428D01*
X90109523Y-44266666D01*
X90014285Y-44314285D01*
X89823809Y-44361904D01*
X89680952Y-44361904D01*
X89490476Y-44314285D01*
X89395238Y-44266666D01*
X89300000Y-44171428D01*
X89252380Y-44028571D01*
X89252380Y-43933333D01*
X89300000Y-43790476D01*
X89347619Y-43742857D01*
X90252380Y-42790476D02*
X90252380Y-43361904D01*
X90252380Y-43076190D02*
X89252380Y-43076190D01*
X89395238Y-43171428D01*
X89490476Y-43266666D01*
X89538095Y-43361904D01*
X89680952Y-42219047D02*
X89633333Y-42314285D01*
X89585714Y-42361904D01*
X89490476Y-42409523D01*
X89442857Y-42409523D01*
X89347619Y-42361904D01*
X89300000Y-42314285D01*
X89252380Y-42219047D01*
X89252380Y-42028571D01*
X89300000Y-41933333D01*
X89347619Y-41885714D01*
X89442857Y-41838095D01*
X89490476Y-41838095D01*
X89585714Y-41885714D01*
X89633333Y-41933333D01*
X89680952Y-42028571D01*
X89680952Y-42219047D01*
X89728571Y-42314285D01*
X89776190Y-42361904D01*
X89871428Y-42409523D01*
X90061904Y-42409523D01*
X90157142Y-42361904D01*
X90204761Y-42314285D01*
X90252380Y-42219047D01*
X90252380Y-42028571D01*
X90204761Y-41933333D01*
X90157142Y-41885714D01*
X90061904Y-41838095D01*
X89871428Y-41838095D01*
X89776190Y-41885714D01*
X89728571Y-41933333D01*
X89680952Y-42028571D01*
%TO.C,R18*%
X95452380Y-65742857D02*
X94976190Y-66076190D01*
X95452380Y-66314285D02*
X94452380Y-66314285D01*
X94452380Y-65933333D01*
X94500000Y-65838095D01*
X94547619Y-65790476D01*
X94642857Y-65742857D01*
X94785714Y-65742857D01*
X94880952Y-65790476D01*
X94928571Y-65838095D01*
X94976190Y-65933333D01*
X94976190Y-66314285D01*
X95452380Y-64790476D02*
X95452380Y-65361904D01*
X95452380Y-65076190D02*
X94452380Y-65076190D01*
X94595238Y-65171428D01*
X94690476Y-65266666D01*
X94738095Y-65361904D01*
X94880952Y-64219047D02*
X94833333Y-64314285D01*
X94785714Y-64361904D01*
X94690476Y-64409523D01*
X94642857Y-64409523D01*
X94547619Y-64361904D01*
X94500000Y-64314285D01*
X94452380Y-64219047D01*
X94452380Y-64028571D01*
X94500000Y-63933333D01*
X94547619Y-63885714D01*
X94642857Y-63838095D01*
X94690476Y-63838095D01*
X94785714Y-63885714D01*
X94833333Y-63933333D01*
X94880952Y-64028571D01*
X94880952Y-64219047D01*
X94928571Y-64314285D01*
X94976190Y-64361904D01*
X95071428Y-64409523D01*
X95261904Y-64409523D01*
X95357142Y-64361904D01*
X95404761Y-64314285D01*
X95452380Y-64219047D01*
X95452380Y-64028571D01*
X95404761Y-63933333D01*
X95357142Y-63885714D01*
X95261904Y-63838095D01*
X95071428Y-63838095D01*
X94976190Y-63885714D01*
X94928571Y-63933333D01*
X94880952Y-64028571D01*
%TO.C,R17*%
X97252380Y-55942857D02*
X96776190Y-56276190D01*
X97252380Y-56514285D02*
X96252380Y-56514285D01*
X96252380Y-56133333D01*
X96300000Y-56038095D01*
X96347619Y-55990476D01*
X96442857Y-55942857D01*
X96585714Y-55942857D01*
X96680952Y-55990476D01*
X96728571Y-56038095D01*
X96776190Y-56133333D01*
X96776190Y-56514285D01*
X97252380Y-54990476D02*
X97252380Y-55561904D01*
X97252380Y-55276190D02*
X96252380Y-55276190D01*
X96395238Y-55371428D01*
X96490476Y-55466666D01*
X96538095Y-55561904D01*
X96252380Y-54657142D02*
X96252380Y-53990476D01*
X97252380Y-54419047D01*
%TO.C,Q3*%
X87647619Y-58545238D02*
X87600000Y-58640476D01*
X87504761Y-58735714D01*
X87361904Y-58878571D01*
X87314285Y-58973809D01*
X87314285Y-59069047D01*
X87552380Y-59021428D02*
X87504761Y-59116666D01*
X87409523Y-59211904D01*
X87219047Y-59259523D01*
X86885714Y-59259523D01*
X86695238Y-59211904D01*
X86600000Y-59116666D01*
X86552380Y-59021428D01*
X86552380Y-58830952D01*
X86600000Y-58735714D01*
X86695238Y-58640476D01*
X86885714Y-58592857D01*
X87219047Y-58592857D01*
X87409523Y-58640476D01*
X87504761Y-58735714D01*
X87552380Y-58830952D01*
X87552380Y-59021428D01*
X86552380Y-58259523D02*
X86552380Y-57640476D01*
X86933333Y-57973809D01*
X86933333Y-57830952D01*
X86980952Y-57735714D01*
X87028571Y-57688095D01*
X87123809Y-57640476D01*
X87361904Y-57640476D01*
X87457142Y-57688095D01*
X87504761Y-57735714D01*
X87552380Y-57830952D01*
X87552380Y-58116666D01*
X87504761Y-58211904D01*
X87457142Y-58259523D01*
%TO.C,C1*%
X111433333Y-49857142D02*
X111385714Y-49904761D01*
X111242857Y-49952380D01*
X111147619Y-49952380D01*
X111004761Y-49904761D01*
X110909523Y-49809523D01*
X110861904Y-49714285D01*
X110814285Y-49523809D01*
X110814285Y-49380952D01*
X110861904Y-49190476D01*
X110909523Y-49095238D01*
X111004761Y-49000000D01*
X111147619Y-48952380D01*
X111242857Y-48952380D01*
X111385714Y-49000000D01*
X111433333Y-49047619D01*
X112385714Y-49952380D02*
X111814285Y-49952380D01*
X112100000Y-49952380D02*
X112100000Y-48952380D01*
X112004761Y-49095238D01*
X111909523Y-49190476D01*
X111814285Y-49238095D01*
%TO.C,D2*%
X97538105Y-53277868D02*
X98245211Y-52570761D01*
X98413570Y-52739120D01*
X98480914Y-52873807D01*
X98480914Y-53008494D01*
X98447242Y-53109509D01*
X98346227Y-53277868D01*
X98245211Y-53378883D01*
X98076853Y-53479899D01*
X97975837Y-53513570D01*
X97841150Y-53513570D01*
X97706463Y-53446227D01*
X97538105Y-53277868D01*
X98851303Y-53311540D02*
X98918647Y-53311540D01*
X99019662Y-53345211D01*
X99188021Y-53513570D01*
X99221692Y-53614586D01*
X99221692Y-53681929D01*
X99188021Y-53782944D01*
X99120677Y-53850288D01*
X98985990Y-53917631D01*
X98177868Y-53917631D01*
X98615601Y-54355364D01*
%TO.C,Q4*%
X86804761Y-50397619D02*
X86709523Y-50350000D01*
X86614285Y-50254761D01*
X86471428Y-50111904D01*
X86376190Y-50064285D01*
X86280952Y-50064285D01*
X86328571Y-50302380D02*
X86233333Y-50254761D01*
X86138095Y-50159523D01*
X86090476Y-49969047D01*
X86090476Y-49635714D01*
X86138095Y-49445238D01*
X86233333Y-49350000D01*
X86328571Y-49302380D01*
X86519047Y-49302380D01*
X86614285Y-49350000D01*
X86709523Y-49445238D01*
X86757142Y-49635714D01*
X86757142Y-49969047D01*
X86709523Y-50159523D01*
X86614285Y-50254761D01*
X86519047Y-50302380D01*
X86328571Y-50302380D01*
X87614285Y-49635714D02*
X87614285Y-50302380D01*
X87376190Y-49254761D02*
X87138095Y-49969047D01*
X87757142Y-49969047D01*
%TO.C,Q1*%
X90504761Y-62647619D02*
X90409523Y-62600000D01*
X90314285Y-62504761D01*
X90171428Y-62361904D01*
X90076190Y-62314285D01*
X89980952Y-62314285D01*
X90028571Y-62552380D02*
X89933333Y-62504761D01*
X89838095Y-62409523D01*
X89790476Y-62219047D01*
X89790476Y-61885714D01*
X89838095Y-61695238D01*
X89933333Y-61600000D01*
X90028571Y-61552380D01*
X90219047Y-61552380D01*
X90314285Y-61600000D01*
X90409523Y-61695238D01*
X90457142Y-61885714D01*
X90457142Y-62219047D01*
X90409523Y-62409523D01*
X90314285Y-62504761D01*
X90219047Y-62552380D01*
X90028571Y-62552380D01*
X91409523Y-62552380D02*
X90838095Y-62552380D01*
X91123809Y-62552380D02*
X91123809Y-61552380D01*
X91028571Y-61695238D01*
X90933333Y-61790476D01*
X90838095Y-61838095D01*
%TO.C,C6*%
X106633333Y-67057142D02*
X106585714Y-67104761D01*
X106442857Y-67152380D01*
X106347619Y-67152380D01*
X106204761Y-67104761D01*
X106109523Y-67009523D01*
X106061904Y-66914285D01*
X106014285Y-66723809D01*
X106014285Y-66580952D01*
X106061904Y-66390476D01*
X106109523Y-66295238D01*
X106204761Y-66200000D01*
X106347619Y-66152380D01*
X106442857Y-66152380D01*
X106585714Y-66200000D01*
X106633333Y-66247619D01*
X107490476Y-66152380D02*
X107300000Y-66152380D01*
X107204761Y-66200000D01*
X107157142Y-66247619D01*
X107061904Y-66390476D01*
X107014285Y-66580952D01*
X107014285Y-66961904D01*
X107061904Y-67057142D01*
X107109523Y-67104761D01*
X107204761Y-67152380D01*
X107395238Y-67152380D01*
X107490476Y-67104761D01*
X107538095Y-67057142D01*
X107585714Y-66961904D01*
X107585714Y-66723809D01*
X107538095Y-66628571D01*
X107490476Y-66580952D01*
X107395238Y-66533333D01*
X107204761Y-66533333D01*
X107109523Y-66580952D01*
X107061904Y-66628571D01*
X107014285Y-66723809D01*
%TO.C,C14*%
X64157142Y-50857142D02*
X64109523Y-50904761D01*
X63966666Y-50952380D01*
X63871428Y-50952380D01*
X63728571Y-50904761D01*
X63633333Y-50809523D01*
X63585714Y-50714285D01*
X63538095Y-50523809D01*
X63538095Y-50380952D01*
X63585714Y-50190476D01*
X63633333Y-50095238D01*
X63728571Y-50000000D01*
X63871428Y-49952380D01*
X63966666Y-49952380D01*
X64109523Y-50000000D01*
X64157142Y-50047619D01*
X65109523Y-50952380D02*
X64538095Y-50952380D01*
X64823809Y-50952380D02*
X64823809Y-49952380D01*
X64728571Y-50095238D01*
X64633333Y-50190476D01*
X64538095Y-50238095D01*
X65966666Y-50285714D02*
X65966666Y-50952380D01*
X65728571Y-49904761D02*
X65490476Y-50619047D01*
X66109523Y-50619047D01*
%TO.C,C17*%
X108357142Y-53857142D02*
X108309523Y-53904761D01*
X108166666Y-53952380D01*
X108071428Y-53952380D01*
X107928571Y-53904761D01*
X107833333Y-53809523D01*
X107785714Y-53714285D01*
X107738095Y-53523809D01*
X107738095Y-53380952D01*
X107785714Y-53190476D01*
X107833333Y-53095238D01*
X107928571Y-53000000D01*
X108071428Y-52952380D01*
X108166666Y-52952380D01*
X108309523Y-53000000D01*
X108357142Y-53047619D01*
X109309523Y-53952380D02*
X108738095Y-53952380D01*
X109023809Y-53952380D02*
X109023809Y-52952380D01*
X108928571Y-53095238D01*
X108833333Y-53190476D01*
X108738095Y-53238095D01*
X109642857Y-52952380D02*
X110309523Y-52952380D01*
X109880952Y-53952380D01*
%TO.C,R5*%
X100852380Y-55266666D02*
X100376190Y-55600000D01*
X100852380Y-55838095D02*
X99852380Y-55838095D01*
X99852380Y-55457142D01*
X99900000Y-55361904D01*
X99947619Y-55314285D01*
X100042857Y-55266666D01*
X100185714Y-55266666D01*
X100280952Y-55314285D01*
X100328571Y-55361904D01*
X100376190Y-55457142D01*
X100376190Y-55838095D01*
X99852380Y-54361904D02*
X99852380Y-54838095D01*
X100328571Y-54885714D01*
X100280952Y-54838095D01*
X100233333Y-54742857D01*
X100233333Y-54504761D01*
X100280952Y-54409523D01*
X100328571Y-54361904D01*
X100423809Y-54314285D01*
X100661904Y-54314285D01*
X100757142Y-54361904D01*
X100804761Y-54409523D01*
X100852380Y-54504761D01*
X100852380Y-54742857D01*
X100804761Y-54838095D01*
X100757142Y-54885714D01*
%TO.C,C3*%
X106583333Y-69457142D02*
X106535714Y-69504761D01*
X106392857Y-69552380D01*
X106297619Y-69552380D01*
X106154761Y-69504761D01*
X106059523Y-69409523D01*
X106011904Y-69314285D01*
X105964285Y-69123809D01*
X105964285Y-68980952D01*
X106011904Y-68790476D01*
X106059523Y-68695238D01*
X106154761Y-68600000D01*
X106297619Y-68552380D01*
X106392857Y-68552380D01*
X106535714Y-68600000D01*
X106583333Y-68647619D01*
X106916666Y-68552380D02*
X107535714Y-68552380D01*
X107202380Y-68933333D01*
X107345238Y-68933333D01*
X107440476Y-68980952D01*
X107488095Y-69028571D01*
X107535714Y-69123809D01*
X107535714Y-69361904D01*
X107488095Y-69457142D01*
X107440476Y-69504761D01*
X107345238Y-69552380D01*
X107059523Y-69552380D01*
X106964285Y-69504761D01*
X106916666Y-69457142D01*
%TO.C,U1*%
X110252380Y-43461904D02*
X111061904Y-43461904D01*
X111157142Y-43414285D01*
X111204761Y-43366666D01*
X111252380Y-43271428D01*
X111252380Y-43080952D01*
X111204761Y-42985714D01*
X111157142Y-42938095D01*
X111061904Y-42890476D01*
X110252380Y-42890476D01*
X111252380Y-41890476D02*
X111252380Y-42461904D01*
X111252380Y-42176190D02*
X110252380Y-42176190D01*
X110395238Y-42271428D01*
X110490476Y-42366666D01*
X110538095Y-42461904D01*
%TO.C,R14*%
X87852380Y-55342857D02*
X87376190Y-55676190D01*
X87852380Y-55914285D02*
X86852380Y-55914285D01*
X86852380Y-55533333D01*
X86900000Y-55438095D01*
X86947619Y-55390476D01*
X87042857Y-55342857D01*
X87185714Y-55342857D01*
X87280952Y-55390476D01*
X87328571Y-55438095D01*
X87376190Y-55533333D01*
X87376190Y-55914285D01*
X87852380Y-54390476D02*
X87852380Y-54961904D01*
X87852380Y-54676190D02*
X86852380Y-54676190D01*
X86995238Y-54771428D01*
X87090476Y-54866666D01*
X87138095Y-54961904D01*
X87185714Y-53533333D02*
X87852380Y-53533333D01*
X86804761Y-53771428D02*
X87519047Y-54009523D01*
X87519047Y-53390476D01*
%TO.C,R13*%
X95852380Y-55942857D02*
X95376190Y-56276190D01*
X95852380Y-56514285D02*
X94852380Y-56514285D01*
X94852380Y-56133333D01*
X94900000Y-56038095D01*
X94947619Y-55990476D01*
X95042857Y-55942857D01*
X95185714Y-55942857D01*
X95280952Y-55990476D01*
X95328571Y-56038095D01*
X95376190Y-56133333D01*
X95376190Y-56514285D01*
X95852380Y-54990476D02*
X95852380Y-55561904D01*
X95852380Y-55276190D02*
X94852380Y-55276190D01*
X94995238Y-55371428D01*
X95090476Y-55466666D01*
X95138095Y-55561904D01*
X94852380Y-54657142D02*
X94852380Y-54038095D01*
X95233333Y-54371428D01*
X95233333Y-54228571D01*
X95280952Y-54133333D01*
X95328571Y-54085714D01*
X95423809Y-54038095D01*
X95661904Y-54038095D01*
X95757142Y-54085714D01*
X95804761Y-54133333D01*
X95852380Y-54228571D01*
X95852380Y-54514285D01*
X95804761Y-54609523D01*
X95757142Y-54657142D01*
%TO.C,R12*%
X93652380Y-65742857D02*
X93176190Y-66076190D01*
X93652380Y-66314285D02*
X92652380Y-66314285D01*
X92652380Y-65933333D01*
X92700000Y-65838095D01*
X92747619Y-65790476D01*
X92842857Y-65742857D01*
X92985714Y-65742857D01*
X93080952Y-65790476D01*
X93128571Y-65838095D01*
X93176190Y-65933333D01*
X93176190Y-66314285D01*
X93652380Y-64790476D02*
X93652380Y-65361904D01*
X93652380Y-65076190D02*
X92652380Y-65076190D01*
X92795238Y-65171428D01*
X92890476Y-65266666D01*
X92938095Y-65361904D01*
X92747619Y-64409523D02*
X92700000Y-64361904D01*
X92652380Y-64266666D01*
X92652380Y-64028571D01*
X92700000Y-63933333D01*
X92747619Y-63885714D01*
X92842857Y-63838095D01*
X92938095Y-63838095D01*
X93080952Y-63885714D01*
X93652380Y-64457142D01*
X93652380Y-63838095D01*
%TO.C,R10*%
X64157142Y-52152380D02*
X63823809Y-51676190D01*
X63585714Y-52152380D02*
X63585714Y-51152380D01*
X63966666Y-51152380D01*
X64061904Y-51200000D01*
X64109523Y-51247619D01*
X64157142Y-51342857D01*
X64157142Y-51485714D01*
X64109523Y-51580952D01*
X64061904Y-51628571D01*
X63966666Y-51676190D01*
X63585714Y-51676190D01*
X65109523Y-52152380D02*
X64538095Y-52152380D01*
X64823809Y-52152380D02*
X64823809Y-51152380D01*
X64728571Y-51295238D01*
X64633333Y-51390476D01*
X64538095Y-51438095D01*
X65728571Y-51152380D02*
X65823809Y-51152380D01*
X65919047Y-51200000D01*
X65966666Y-51247619D01*
X66014285Y-51342857D01*
X66061904Y-51533333D01*
X66061904Y-51771428D01*
X66014285Y-51961904D01*
X65966666Y-52057142D01*
X65919047Y-52104761D01*
X65823809Y-52152380D01*
X65728571Y-52152380D01*
X65633333Y-52104761D01*
X65585714Y-52057142D01*
X65538095Y-51961904D01*
X65490476Y-51771428D01*
X65490476Y-51533333D01*
X65538095Y-51342857D01*
X65585714Y-51247619D01*
X65633333Y-51200000D01*
X65728571Y-51152380D01*
%TO.C,R8*%
X64233333Y-53352380D02*
X63900000Y-52876190D01*
X63661904Y-53352380D02*
X63661904Y-52352380D01*
X64042857Y-52352380D01*
X64138095Y-52400000D01*
X64185714Y-52447619D01*
X64233333Y-52542857D01*
X64233333Y-52685714D01*
X64185714Y-52780952D01*
X64138095Y-52828571D01*
X64042857Y-52876190D01*
X63661904Y-52876190D01*
X64804761Y-52780952D02*
X64709523Y-52733333D01*
X64661904Y-52685714D01*
X64614285Y-52590476D01*
X64614285Y-52542857D01*
X64661904Y-52447619D01*
X64709523Y-52400000D01*
X64804761Y-52352380D01*
X64995238Y-52352380D01*
X65090476Y-52400000D01*
X65138095Y-52447619D01*
X65185714Y-52542857D01*
X65185714Y-52590476D01*
X65138095Y-52685714D01*
X65090476Y-52733333D01*
X64995238Y-52780952D01*
X64804761Y-52780952D01*
X64709523Y-52828571D01*
X64661904Y-52876190D01*
X64614285Y-52971428D01*
X64614285Y-53161904D01*
X64661904Y-53257142D01*
X64709523Y-53304761D01*
X64804761Y-53352380D01*
X64995238Y-53352380D01*
X65090476Y-53304761D01*
X65138095Y-53257142D01*
X65185714Y-53161904D01*
X65185714Y-52971428D01*
X65138095Y-52876190D01*
X65090476Y-52828571D01*
X64995238Y-52780952D01*
%TO.C,R7*%
X87033333Y-61552380D02*
X86700000Y-61076190D01*
X86461904Y-61552380D02*
X86461904Y-60552380D01*
X86842857Y-60552380D01*
X86938095Y-60600000D01*
X86985714Y-60647619D01*
X87033333Y-60742857D01*
X87033333Y-60885714D01*
X86985714Y-60980952D01*
X86938095Y-61028571D01*
X86842857Y-61076190D01*
X86461904Y-61076190D01*
X87366666Y-60552380D02*
X88033333Y-60552380D01*
X87604761Y-61552380D01*
%TO.C,R6*%
X68852380Y-76066666D02*
X68376190Y-76400000D01*
X68852380Y-76638095D02*
X67852380Y-76638095D01*
X67852380Y-76257142D01*
X67900000Y-76161904D01*
X67947619Y-76114285D01*
X68042857Y-76066666D01*
X68185714Y-76066666D01*
X68280952Y-76114285D01*
X68328571Y-76161904D01*
X68376190Y-76257142D01*
X68376190Y-76638095D01*
X67852380Y-75209523D02*
X67852380Y-75400000D01*
X67900000Y-75495238D01*
X67947619Y-75542857D01*
X68090476Y-75638095D01*
X68280952Y-75685714D01*
X68661904Y-75685714D01*
X68757142Y-75638095D01*
X68804761Y-75590476D01*
X68852380Y-75495238D01*
X68852380Y-75304761D01*
X68804761Y-75209523D01*
X68757142Y-75161904D01*
X68661904Y-75114285D01*
X68423809Y-75114285D01*
X68328571Y-75161904D01*
X68280952Y-75209523D01*
X68233333Y-75304761D01*
X68233333Y-75495238D01*
X68280952Y-75590476D01*
X68328571Y-75638095D01*
X68423809Y-75685714D01*
%TO.C,R4*%
X106633333Y-70752380D02*
X106300000Y-70276190D01*
X106061904Y-70752380D02*
X106061904Y-69752380D01*
X106442857Y-69752380D01*
X106538095Y-69800000D01*
X106585714Y-69847619D01*
X106633333Y-69942857D01*
X106633333Y-70085714D01*
X106585714Y-70180952D01*
X106538095Y-70228571D01*
X106442857Y-70276190D01*
X106061904Y-70276190D01*
X107490476Y-70085714D02*
X107490476Y-70752380D01*
X107252380Y-69704761D02*
X107014285Y-70419047D01*
X107633333Y-70419047D01*
%TO.C,R2*%
X98433333Y-59152380D02*
X98100000Y-58676190D01*
X97861904Y-59152380D02*
X97861904Y-58152380D01*
X98242857Y-58152380D01*
X98338095Y-58200000D01*
X98385714Y-58247619D01*
X98433333Y-58342857D01*
X98433333Y-58485714D01*
X98385714Y-58580952D01*
X98338095Y-58628571D01*
X98242857Y-58676190D01*
X97861904Y-58676190D01*
X98814285Y-58247619D02*
X98861904Y-58200000D01*
X98957142Y-58152380D01*
X99195238Y-58152380D01*
X99290476Y-58200000D01*
X99338095Y-58247619D01*
X99385714Y-58342857D01*
X99385714Y-58438095D01*
X99338095Y-58580952D01*
X98766666Y-59152380D01*
X99385714Y-59152380D01*
%TO.C,R1*%
X104052380Y-69266666D02*
X103576190Y-69600000D01*
X104052380Y-69838095D02*
X103052380Y-69838095D01*
X103052380Y-69457142D01*
X103100000Y-69361904D01*
X103147619Y-69314285D01*
X103242857Y-69266666D01*
X103385714Y-69266666D01*
X103480952Y-69314285D01*
X103528571Y-69361904D01*
X103576190Y-69457142D01*
X103576190Y-69838095D01*
X104052380Y-68314285D02*
X104052380Y-68885714D01*
X104052380Y-68600000D02*
X103052380Y-68600000D01*
X103195238Y-68695238D01*
X103290476Y-68790476D01*
X103338095Y-68885714D01*
%TO.C,Q2*%
X91147619Y-58645238D02*
X91100000Y-58740476D01*
X91004761Y-58835714D01*
X90861904Y-58978571D01*
X90814285Y-59073809D01*
X90814285Y-59169047D01*
X91052380Y-59121428D02*
X91004761Y-59216666D01*
X90909523Y-59311904D01*
X90719047Y-59359523D01*
X90385714Y-59359523D01*
X90195238Y-59311904D01*
X90100000Y-59216666D01*
X90052380Y-59121428D01*
X90052380Y-58930952D01*
X90100000Y-58835714D01*
X90195238Y-58740476D01*
X90385714Y-58692857D01*
X90719047Y-58692857D01*
X90909523Y-58740476D01*
X91004761Y-58835714D01*
X91052380Y-58930952D01*
X91052380Y-59121428D01*
X90147619Y-58311904D02*
X90100000Y-58264285D01*
X90052380Y-58169047D01*
X90052380Y-57930952D01*
X90100000Y-57835714D01*
X90147619Y-57788095D01*
X90242857Y-57740476D01*
X90338095Y-57740476D01*
X90480952Y-57788095D01*
X91052380Y-58359523D01*
X91052380Y-57740476D01*
%TO.C,D1*%
X101790204Y-58003180D02*
X101790204Y-57003180D01*
X102028300Y-57003180D01*
X102171157Y-57050800D01*
X102266395Y-57146038D01*
X102314014Y-57241276D01*
X102361633Y-57431752D01*
X102361633Y-57574609D01*
X102314014Y-57765085D01*
X102266395Y-57860323D01*
X102171157Y-57955561D01*
X102028300Y-58003180D01*
X101790204Y-58003180D01*
X103314014Y-58003180D02*
X102742585Y-58003180D01*
X103028300Y-58003180D02*
X103028300Y-57003180D01*
X102933061Y-57146038D01*
X102837823Y-57241276D01*
X102742585Y-57288895D01*
%TO.C,C2*%
X111033333Y-51657142D02*
X110985714Y-51704761D01*
X110842857Y-51752380D01*
X110747619Y-51752380D01*
X110604761Y-51704761D01*
X110509523Y-51609523D01*
X110461904Y-51514285D01*
X110414285Y-51323809D01*
X110414285Y-51180952D01*
X110461904Y-50990476D01*
X110509523Y-50895238D01*
X110604761Y-50800000D01*
X110747619Y-50752380D01*
X110842857Y-50752380D01*
X110985714Y-50800000D01*
X111033333Y-50847619D01*
X111414285Y-50847619D02*
X111461904Y-50800000D01*
X111557142Y-50752380D01*
X111795238Y-50752380D01*
X111890476Y-50800000D01*
X111938095Y-50847619D01*
X111985714Y-50942857D01*
X111985714Y-51038095D01*
X111938095Y-51180952D01*
X111366666Y-51752380D01*
X111985714Y-51752380D01*
%TO.C,TP3*%
X109652380Y-106238095D02*
X109652380Y-105619047D01*
X110033333Y-105952380D01*
X110033333Y-105809523D01*
X110080952Y-105714285D01*
X110128571Y-105666666D01*
X110223809Y-105619047D01*
X110461904Y-105619047D01*
X110557142Y-105666666D01*
X110604761Y-105714285D01*
X110652380Y-105809523D01*
X110652380Y-106095238D01*
X110604761Y-106190476D01*
X110557142Y-106238095D01*
X109652380Y-105333333D02*
X110652380Y-105000000D01*
X109652380Y-104666666D01*
X109652380Y-104428571D02*
X109652380Y-103809523D01*
X110033333Y-104142857D01*
X110033333Y-104000000D01*
X110080952Y-103904761D01*
X110128571Y-103857142D01*
X110223809Y-103809523D01*
X110461904Y-103809523D01*
X110557142Y-103857142D01*
X110604761Y-103904761D01*
X110652380Y-104000000D01*
X110652380Y-104285714D01*
X110604761Y-104380952D01*
X110557142Y-104428571D01*
%TO.C,TP2*%
X109700000Y-100261904D02*
X109652380Y-100357142D01*
X109652380Y-100500000D01*
X109700000Y-100642857D01*
X109795238Y-100738095D01*
X109890476Y-100785714D01*
X110080952Y-100833333D01*
X110223809Y-100833333D01*
X110414285Y-100785714D01*
X110509523Y-100738095D01*
X110604761Y-100642857D01*
X110652380Y-100500000D01*
X110652380Y-100404761D01*
X110604761Y-100261904D01*
X110557142Y-100214285D01*
X110223809Y-100214285D01*
X110223809Y-100404761D01*
X110652380Y-99785714D02*
X109652380Y-99785714D01*
X110652380Y-99214285D01*
X109652380Y-99214285D01*
X110652380Y-98738095D02*
X109652380Y-98738095D01*
X109652380Y-98500000D01*
X109700000Y-98357142D01*
X109795238Y-98261904D01*
X109890476Y-98214285D01*
X110080952Y-98166666D01*
X110223809Y-98166666D01*
X110414285Y-98214285D01*
X110509523Y-98261904D01*
X110604761Y-98357142D01*
X110652380Y-98500000D01*
X110652380Y-98738095D01*
%TO.C,C13*%
X64157142Y-49657142D02*
X64109523Y-49704761D01*
X63966666Y-49752380D01*
X63871428Y-49752380D01*
X63728571Y-49704761D01*
X63633333Y-49609523D01*
X63585714Y-49514285D01*
X63538095Y-49323809D01*
X63538095Y-49180952D01*
X63585714Y-48990476D01*
X63633333Y-48895238D01*
X63728571Y-48800000D01*
X63871428Y-48752380D01*
X63966666Y-48752380D01*
X64109523Y-48800000D01*
X64157142Y-48847619D01*
X65109523Y-49752380D02*
X64538095Y-49752380D01*
X64823809Y-49752380D02*
X64823809Y-48752380D01*
X64728571Y-48895238D01*
X64633333Y-48990476D01*
X64538095Y-49038095D01*
X65442857Y-48752380D02*
X66061904Y-48752380D01*
X65728571Y-49133333D01*
X65871428Y-49133333D01*
X65966666Y-49180952D01*
X66014285Y-49228571D01*
X66061904Y-49323809D01*
X66061904Y-49561904D01*
X66014285Y-49657142D01*
X65966666Y-49704761D01*
X65871428Y-49752380D01*
X65585714Y-49752380D01*
X65490476Y-49704761D01*
X65442857Y-49657142D01*
%TO.C,U2*%
X99638095Y-64952380D02*
X99638095Y-65761904D01*
X99685714Y-65857142D01*
X99733333Y-65904761D01*
X99828571Y-65952380D01*
X100019047Y-65952380D01*
X100114285Y-65904761D01*
X100161904Y-65857142D01*
X100209523Y-65761904D01*
X100209523Y-64952380D01*
X100638095Y-65047619D02*
X100685714Y-65000000D01*
X100780952Y-64952380D01*
X101019047Y-64952380D01*
X101114285Y-65000000D01*
X101161904Y-65047619D01*
X101209523Y-65142857D01*
X101209523Y-65238095D01*
X101161904Y-65380952D01*
X100590476Y-65952380D01*
X101209523Y-65952380D01*
%TO.C,C12*%
X81557142Y-78257142D02*
X81509523Y-78304761D01*
X81366666Y-78352380D01*
X81271428Y-78352380D01*
X81128571Y-78304761D01*
X81033333Y-78209523D01*
X80985714Y-78114285D01*
X80938095Y-77923809D01*
X80938095Y-77780952D01*
X80985714Y-77590476D01*
X81033333Y-77495238D01*
X81128571Y-77400000D01*
X81271428Y-77352380D01*
X81366666Y-77352380D01*
X81509523Y-77400000D01*
X81557142Y-77447619D01*
X82509523Y-78352380D02*
X81938095Y-78352380D01*
X82223809Y-78352380D02*
X82223809Y-77352380D01*
X82128571Y-77495238D01*
X82033333Y-77590476D01*
X81938095Y-77638095D01*
X82890476Y-77447619D02*
X82938095Y-77400000D01*
X83033333Y-77352380D01*
X83271428Y-77352380D01*
X83366666Y-77400000D01*
X83414285Y-77447619D01*
X83461904Y-77542857D01*
X83461904Y-77638095D01*
X83414285Y-77780952D01*
X82842857Y-78352380D01*
X83461904Y-78352380D01*
%TO.C,C10*%
X76957142Y-78257142D02*
X76909523Y-78304761D01*
X76766666Y-78352380D01*
X76671428Y-78352380D01*
X76528571Y-78304761D01*
X76433333Y-78209523D01*
X76385714Y-78114285D01*
X76338095Y-77923809D01*
X76338095Y-77780952D01*
X76385714Y-77590476D01*
X76433333Y-77495238D01*
X76528571Y-77400000D01*
X76671428Y-77352380D01*
X76766666Y-77352380D01*
X76909523Y-77400000D01*
X76957142Y-77447619D01*
X77909523Y-78352380D02*
X77338095Y-78352380D01*
X77623809Y-78352380D02*
X77623809Y-77352380D01*
X77528571Y-77495238D01*
X77433333Y-77590476D01*
X77338095Y-77638095D01*
X78528571Y-77352380D02*
X78623809Y-77352380D01*
X78719047Y-77400000D01*
X78766666Y-77447619D01*
X78814285Y-77542857D01*
X78861904Y-77733333D01*
X78861904Y-77971428D01*
X78814285Y-78161904D01*
X78766666Y-78257142D01*
X78719047Y-78304761D01*
X78623809Y-78352380D01*
X78528571Y-78352380D01*
X78433333Y-78304761D01*
X78385714Y-78257142D01*
X78338095Y-78161904D01*
X78290476Y-77971428D01*
X78290476Y-77733333D01*
X78338095Y-77542857D01*
X78385714Y-77447619D01*
X78433333Y-77400000D01*
X78528571Y-77352380D01*
%TO.C,C11*%
X84157142Y-61457142D02*
X84109523Y-61504761D01*
X83966666Y-61552380D01*
X83871428Y-61552380D01*
X83728571Y-61504761D01*
X83633333Y-61409523D01*
X83585714Y-61314285D01*
X83538095Y-61123809D01*
X83538095Y-60980952D01*
X83585714Y-60790476D01*
X83633333Y-60695238D01*
X83728571Y-60600000D01*
X83871428Y-60552380D01*
X83966666Y-60552380D01*
X84109523Y-60600000D01*
X84157142Y-60647619D01*
X85109523Y-61552380D02*
X84538095Y-61552380D01*
X84823809Y-61552380D02*
X84823809Y-60552380D01*
X84728571Y-60695238D01*
X84633333Y-60790476D01*
X84538095Y-60838095D01*
X86061904Y-61552380D02*
X85490476Y-61552380D01*
X85776190Y-61552380D02*
X85776190Y-60552380D01*
X85680952Y-60695238D01*
X85585714Y-60790476D01*
X85490476Y-60838095D01*
%TO.C,C5*%
X118557142Y-44866666D02*
X118604761Y-44914285D01*
X118652380Y-45057142D01*
X118652380Y-45152380D01*
X118604761Y-45295238D01*
X118509523Y-45390476D01*
X118414285Y-45438095D01*
X118223809Y-45485714D01*
X118080952Y-45485714D01*
X117890476Y-45438095D01*
X117795238Y-45390476D01*
X117700000Y-45295238D01*
X117652380Y-45152380D01*
X117652380Y-45057142D01*
X117700000Y-44914285D01*
X117747619Y-44866666D01*
X117652380Y-43961904D02*
X117652380Y-44438095D01*
X118128571Y-44485714D01*
X118080952Y-44438095D01*
X118033333Y-44342857D01*
X118033333Y-44104761D01*
X118080952Y-44009523D01*
X118128571Y-43961904D01*
X118223809Y-43914285D01*
X118461904Y-43914285D01*
X118557142Y-43961904D01*
X118604761Y-44009523D01*
X118652380Y-44104761D01*
X118652380Y-44342857D01*
X118604761Y-44438095D01*
X118557142Y-44485714D01*
%TO.C,C9*%
X98833333Y-75157142D02*
X98785714Y-75204761D01*
X98642857Y-75252380D01*
X98547619Y-75252380D01*
X98404761Y-75204761D01*
X98309523Y-75109523D01*
X98261904Y-75014285D01*
X98214285Y-74823809D01*
X98214285Y-74680952D01*
X98261904Y-74490476D01*
X98309523Y-74395238D01*
X98404761Y-74300000D01*
X98547619Y-74252380D01*
X98642857Y-74252380D01*
X98785714Y-74300000D01*
X98833333Y-74347619D01*
X99309523Y-75252380D02*
X99500000Y-75252380D01*
X99595238Y-75204761D01*
X99642857Y-75157142D01*
X99738095Y-75014285D01*
X99785714Y-74823809D01*
X99785714Y-74442857D01*
X99738095Y-74347619D01*
X99690476Y-74300000D01*
X99595238Y-74252380D01*
X99404761Y-74252380D01*
X99309523Y-74300000D01*
X99261904Y-74347619D01*
X99214285Y-74442857D01*
X99214285Y-74680952D01*
X99261904Y-74776190D01*
X99309523Y-74823809D01*
X99404761Y-74871428D01*
X99595238Y-74871428D01*
X99690476Y-74823809D01*
X99738095Y-74776190D01*
X99785714Y-74680952D01*
%TO.C,C4*%
X106583333Y-68257142D02*
X106535714Y-68304761D01*
X106392857Y-68352380D01*
X106297619Y-68352380D01*
X106154761Y-68304761D01*
X106059523Y-68209523D01*
X106011904Y-68114285D01*
X105964285Y-67923809D01*
X105964285Y-67780952D01*
X106011904Y-67590476D01*
X106059523Y-67495238D01*
X106154761Y-67400000D01*
X106297619Y-67352380D01*
X106392857Y-67352380D01*
X106535714Y-67400000D01*
X106583333Y-67447619D01*
X107440476Y-67685714D02*
X107440476Y-68352380D01*
X107202380Y-67304761D02*
X106964285Y-68019047D01*
X107583333Y-68019047D01*
%TO.C,C8*%
X98833333Y-76985442D02*
X98785714Y-77033061D01*
X98642857Y-77080680D01*
X98547619Y-77080680D01*
X98404761Y-77033061D01*
X98309523Y-76937823D01*
X98261904Y-76842585D01*
X98214285Y-76652109D01*
X98214285Y-76509252D01*
X98261904Y-76318776D01*
X98309523Y-76223538D01*
X98404761Y-76128300D01*
X98547619Y-76080680D01*
X98642857Y-76080680D01*
X98785714Y-76128300D01*
X98833333Y-76175919D01*
X99404761Y-76509252D02*
X99309523Y-76461633D01*
X99261904Y-76414014D01*
X99214285Y-76318776D01*
X99214285Y-76271157D01*
X99261904Y-76175919D01*
X99309523Y-76128300D01*
X99404761Y-76080680D01*
X99595238Y-76080680D01*
X99690476Y-76128300D01*
X99738095Y-76175919D01*
X99785714Y-76271157D01*
X99785714Y-76318776D01*
X99738095Y-76414014D01*
X99690476Y-76461633D01*
X99595238Y-76509252D01*
X99404761Y-76509252D01*
X99309523Y-76556871D01*
X99261904Y-76604490D01*
X99214285Y-76699728D01*
X99214285Y-76890204D01*
X99261904Y-76985442D01*
X99309523Y-77033061D01*
X99404761Y-77080680D01*
X99595238Y-77080680D01*
X99690476Y-77033061D01*
X99738095Y-76985442D01*
X99785714Y-76890204D01*
X99785714Y-76699728D01*
X99738095Y-76604490D01*
X99690476Y-76556871D01*
X99595238Y-76509252D01*
%TO.C,C7*%
X97233333Y-69657142D02*
X97185714Y-69704761D01*
X97042857Y-69752380D01*
X96947619Y-69752380D01*
X96804761Y-69704761D01*
X96709523Y-69609523D01*
X96661904Y-69514285D01*
X96614285Y-69323809D01*
X96614285Y-69180952D01*
X96661904Y-68990476D01*
X96709523Y-68895238D01*
X96804761Y-68800000D01*
X96947619Y-68752380D01*
X97042857Y-68752380D01*
X97185714Y-68800000D01*
X97233333Y-68847619D01*
X97566666Y-68752380D02*
X98233333Y-68752380D01*
X97804761Y-69752380D01*
%TD*%
M02*
