G04 #@! TF.GenerationSoftware,KiCad,Pcbnew,(5.1.9)-1*
G04 #@! TF.CreationDate,2021-04-20T09:49:11+02:00*
G04 #@! TF.ProjectId,loeti,6c6f6574-692e-46b6-9963-61645f706362,rev?*
G04 #@! TF.SameCoordinates,Original*
G04 #@! TF.FileFunction,Soldermask,Top*
G04 #@! TF.FilePolarity,Negative*
%FSLAX46Y46*%
G04 Gerber Fmt 4.6, Leading zero omitted, Abs format (unit mm)*
G04 Created by KiCad (PCBNEW (5.1.9)-1) date 2021-04-20 09:49:11*
%MOMM*%
%LPD*%
G01*
G04 APERTURE LIST*
%ADD10C,0.150000*%
%ADD11C,0.500000*%
%ADD12R,1.450000X0.600000*%
%ADD13R,1.450000X0.300000*%
%ADD14O,2.100000X1.000000*%
%ADD15C,0.650000*%
%ADD16O,1.600000X1.000000*%
%ADD17R,2.000000X0.650000*%
%ADD18R,0.450000X1.500000*%
%ADD19C,2.200000*%
%ADD20R,1.900000X0.800000*%
%ADD21O,3.200000X1.600000*%
%ADD22R,2.500000X2.430000*%
%ADD23R,0.650000X1.560000*%
%ADD24C,0.100000*%
%ADD25R,0.900000X2.300000*%
%ADD26R,1.500000X0.450000*%
%ADD27C,1.800000*%
%ADD28R,1.800000X1.800000*%
%ADD29R,1.500000X0.400000*%
%ADD30R,1.450000X0.450000*%
%ADD31R,2.700000X2.700000*%
%ADD32R,1.000000X1.000000*%
%ADD33O,1.000000X1.000000*%
%ADD34R,0.900000X1.200000*%
G04 APERTURE END LIST*
D10*
X56249998Y36500000D02*
G75*
G02*
X54750000Y36000000I-999999J499999D01*
G01*
X56000000Y37000000D02*
G75*
G03*
X56000000Y37000000I-250000J0D01*
G01*
X55000000Y37000000D02*
G75*
G03*
X55000000Y37000000I-250000J0D01*
G01*
D11*
X63874553Y26892857D02*
X63606696Y27035714D01*
X63499553Y27321428D01*
X63820982Y29892857D01*
X65445982Y26892857D02*
X65178125Y27035714D01*
X65053125Y27178571D01*
X64945982Y27464285D01*
X65053125Y28321428D01*
X65231696Y28607142D01*
X65392410Y28750000D01*
X65695982Y28892857D01*
X66124553Y28892857D01*
X66392410Y28750000D01*
X66517410Y28607142D01*
X66624553Y28321428D01*
X66517410Y27464285D01*
X66338839Y27178571D01*
X66178125Y27035714D01*
X65874553Y26892857D01*
X65445982Y26892857D01*
X65535267Y29892857D02*
X65660267Y29750000D01*
X65499553Y29607142D01*
X65374553Y29750000D01*
X65535267Y29892857D01*
X65499553Y29607142D01*
X66678125Y29892857D02*
X66803125Y29750000D01*
X66642410Y29607142D01*
X66517410Y29750000D01*
X66678125Y29892857D01*
X66642410Y29607142D01*
X67553125Y28892857D02*
X68695982Y28892857D01*
X68106696Y29892857D02*
X67785267Y27321428D01*
X67892410Y27035714D01*
X68160267Y26892857D01*
X68445982Y26892857D01*
X69445982Y26892857D02*
X69695982Y28892857D01*
X69820982Y29892857D02*
X69660267Y29750000D01*
X69785267Y29607142D01*
X69945982Y29750000D01*
X69820982Y29892857D01*
X69785267Y29607142D01*
D10*
X54982142Y22048214D02*
X54982142Y22441071D01*
X54946428Y22512500D01*
X54875000Y22548214D01*
X54732142Y22548214D01*
X54660714Y22512500D01*
X54982142Y22083928D02*
X54910714Y22048214D01*
X54732142Y22048214D01*
X54660714Y22083928D01*
X54625000Y22155357D01*
X54625000Y22226785D01*
X54660714Y22298214D01*
X54732142Y22333928D01*
X54910714Y22333928D01*
X54982142Y22369642D01*
X55232142Y22548214D02*
X55517857Y22548214D01*
X55339285Y22048214D02*
X55339285Y22691071D01*
X55375000Y22762500D01*
X55446428Y22798214D01*
X55517857Y22798214D01*
X56303571Y22726785D02*
X56339285Y22762500D01*
X56410714Y22798214D01*
X56589285Y22798214D01*
X56660714Y22762500D01*
X56696428Y22726785D01*
X56732142Y22655357D01*
X56732142Y22583928D01*
X56696428Y22476785D01*
X56267857Y22048214D01*
X56732142Y22048214D01*
X57196428Y22798214D02*
X57267857Y22798214D01*
X57339285Y22762500D01*
X57375000Y22726785D01*
X57410714Y22655357D01*
X57446428Y22512500D01*
X57446428Y22333928D01*
X57410714Y22191071D01*
X57375000Y22119642D01*
X57339285Y22083928D01*
X57267857Y22048214D01*
X57196428Y22048214D01*
X57125000Y22083928D01*
X57089285Y22119642D01*
X57053571Y22191071D01*
X57017857Y22333928D01*
X57017857Y22512500D01*
X57053571Y22655357D01*
X57089285Y22726785D01*
X57125000Y22762500D01*
X57196428Y22798214D01*
X57732142Y22726785D02*
X57767857Y22762500D01*
X57839285Y22798214D01*
X58017857Y22798214D01*
X58089285Y22762500D01*
X58125000Y22726785D01*
X58160714Y22655357D01*
X58160714Y22583928D01*
X58125000Y22476785D01*
X57696428Y22048214D01*
X58160714Y22048214D01*
X58875000Y22048214D02*
X58446428Y22048214D01*
X58660714Y22048214D02*
X58660714Y22798214D01*
X58589285Y22691071D01*
X58517857Y22619642D01*
X58446428Y22583928D01*
X56214285Y21273214D02*
X56392857Y20773214D01*
X56571428Y21273214D01*
X57214285Y21523214D02*
X56857142Y21523214D01*
X56821428Y21166071D01*
X56857142Y21201785D01*
X56928571Y21237500D01*
X57107142Y21237500D01*
X57178571Y21201785D01*
X57214285Y21166071D01*
X57250000Y21094642D01*
X57250000Y20916071D01*
X57214285Y20844642D01*
X57178571Y20808928D01*
X57107142Y20773214D01*
X56928571Y20773214D01*
X56857142Y20808928D01*
X56821428Y20844642D01*
D12*
X60295000Y25430000D03*
X60295000Y26230000D03*
X60295000Y31130000D03*
X60295000Y31930000D03*
X60295000Y31930000D03*
X60295000Y31130000D03*
X60295000Y26230000D03*
X60295000Y25430000D03*
D13*
X60295000Y30430000D03*
X60295000Y29930000D03*
X60295000Y29430000D03*
X60295000Y28430000D03*
X60295000Y27930000D03*
X60295000Y27430000D03*
X60295000Y26930000D03*
X60295000Y28930000D03*
D14*
X59380000Y24360000D03*
X59380000Y33000000D03*
D15*
X58850000Y31570000D03*
D16*
X55200000Y33000000D03*
D15*
X58850000Y25790000D03*
D16*
X55200000Y24360000D03*
D17*
X102960000Y38000000D03*
X99540000Y37050000D03*
X99540000Y38950000D03*
G36*
G01*
X91325000Y22487500D02*
X91325000Y22012500D01*
G75*
G02*
X91087500Y21775000I-237500J0D01*
G01*
X90587500Y21775000D01*
G75*
G02*
X90350000Y22012500I0J237500D01*
G01*
X90350000Y22487500D01*
G75*
G02*
X90587500Y22725000I237500J0D01*
G01*
X91087500Y22725000D01*
G75*
G02*
X91325000Y22487500I0J-237500D01*
G01*
G37*
G36*
G01*
X93150000Y22487500D02*
X93150000Y22012500D01*
G75*
G02*
X92912500Y21775000I-237500J0D01*
G01*
X92412500Y21775000D01*
G75*
G02*
X92175000Y22012500I0J237500D01*
G01*
X92175000Y22487500D01*
G75*
G02*
X92412500Y22725000I237500J0D01*
G01*
X92912500Y22725000D01*
G75*
G02*
X93150000Y22487500I0J-237500D01*
G01*
G37*
G36*
G01*
X89012500Y20825000D02*
X89487500Y20825000D01*
G75*
G02*
X89725000Y20587500I0J-237500D01*
G01*
X89725000Y20087500D01*
G75*
G02*
X89487500Y19850000I-237500J0D01*
G01*
X89012500Y19850000D01*
G75*
G02*
X88775000Y20087500I0J237500D01*
G01*
X88775000Y20587500D01*
G75*
G02*
X89012500Y20825000I237500J0D01*
G01*
G37*
G36*
G01*
X89012500Y22650000D02*
X89487500Y22650000D01*
G75*
G02*
X89725000Y22412500I0J-237500D01*
G01*
X89725000Y21912500D01*
G75*
G02*
X89487500Y21675000I-237500J0D01*
G01*
X89012500Y21675000D01*
G75*
G02*
X88775000Y21912500I0J237500D01*
G01*
X88775000Y22412500D01*
G75*
G02*
X89012500Y22650000I237500J0D01*
G01*
G37*
D18*
X83500000Y24170000D03*
X82850000Y26830000D03*
X84150000Y26830000D03*
X86500000Y26830000D03*
X87150000Y24170000D03*
X85850000Y24170000D03*
D19*
X76113939Y20518179D03*
X72018179Y23386061D03*
X78981821Y24613939D03*
X74886061Y27481821D03*
D20*
X105500000Y26250000D03*
X102500000Y25300000D03*
X102500000Y27200000D03*
D21*
X120870000Y32905000D03*
X114070000Y24455000D03*
X120870000Y24455000D03*
X114070000Y32905000D03*
D22*
X117470000Y32965000D03*
X117470000Y24395000D03*
D20*
X100000000Y26250000D03*
X97000000Y25300000D03*
X97000000Y27200000D03*
X103000000Y29750000D03*
X106000000Y30700000D03*
X106000000Y28800000D03*
D23*
X84500000Y35600000D03*
X83550000Y35600000D03*
X85450000Y35600000D03*
X85450000Y32900000D03*
X84500000Y32900000D03*
X83550000Y32900000D03*
D24*
G36*
X66866500Y37550000D02*
G01*
X66866500Y33425000D01*
X66450000Y33425000D01*
X66450000Y30950000D01*
X65550000Y30950000D01*
X65550000Y33425000D01*
X65133500Y33425000D01*
X65133500Y37550000D01*
X66866500Y37550000D01*
G37*
D25*
X67500000Y32100000D03*
X64500000Y32100000D03*
D18*
X121500000Y38830000D03*
X122150000Y36170000D03*
X120850000Y36170000D03*
X115000000Y36170000D03*
X114350000Y38830000D03*
X115650000Y38830000D03*
D26*
X76920000Y31250000D03*
X79580000Y31900000D03*
X79580000Y30600000D03*
G36*
G01*
X100425000Y30262500D02*
X100425000Y30737500D01*
G75*
G02*
X100662500Y30975000I237500J0D01*
G01*
X101162500Y30975000D01*
G75*
G02*
X101400000Y30737500I0J-237500D01*
G01*
X101400000Y30262500D01*
G75*
G02*
X101162500Y30025000I-237500J0D01*
G01*
X100662500Y30025000D01*
G75*
G02*
X100425000Y30262500I0J237500D01*
G01*
G37*
G36*
G01*
X98600000Y30262500D02*
X98600000Y30737500D01*
G75*
G02*
X98837500Y30975000I237500J0D01*
G01*
X99337500Y30975000D01*
G75*
G02*
X99575000Y30737500I0J-237500D01*
G01*
X99575000Y30262500D01*
G75*
G02*
X99337500Y30025000I-237500J0D01*
G01*
X98837500Y30025000D01*
G75*
G02*
X98600000Y30262500I0J237500D01*
G01*
G37*
G36*
G01*
X100325000Y28512500D02*
X100325000Y28987500D01*
G75*
G02*
X100562500Y29225000I237500J0D01*
G01*
X101162500Y29225000D01*
G75*
G02*
X101400000Y28987500I0J-237500D01*
G01*
X101400000Y28512500D01*
G75*
G02*
X101162500Y28275000I-237500J0D01*
G01*
X100562500Y28275000D01*
G75*
G02*
X100325000Y28512500I0J237500D01*
G01*
G37*
G36*
G01*
X98600000Y28512500D02*
X98600000Y28987500D01*
G75*
G02*
X98837500Y29225000I237500J0D01*
G01*
X99437500Y29225000D01*
G75*
G02*
X99675000Y28987500I0J-237500D01*
G01*
X99675000Y28512500D01*
G75*
G02*
X99437500Y28275000I-237500J0D01*
G01*
X98837500Y28275000D01*
G75*
G02*
X98600000Y28512500I0J237500D01*
G01*
G37*
D27*
X80500000Y44960000D03*
D28*
X80500000Y47500000D03*
D27*
X83750000Y44960000D03*
D28*
X83750000Y47500000D03*
D27*
X87000000Y44960000D03*
D28*
X87000000Y47500000D03*
G36*
G01*
X90325000Y29325000D02*
X90075000Y29325000D01*
G75*
G02*
X89950000Y29450000I0J125000D01*
G01*
X89950000Y30700000D01*
G75*
G02*
X90075000Y30825000I125000J0D01*
G01*
X90325000Y30825000D01*
G75*
G02*
X90450000Y30700000I0J-125000D01*
G01*
X90450000Y29450000D01*
G75*
G02*
X90325000Y29325000I-125000J0D01*
G01*
G37*
G36*
G01*
X91125000Y29325000D02*
X90875000Y29325000D01*
G75*
G02*
X90750000Y29450000I0J125000D01*
G01*
X90750000Y30700000D01*
G75*
G02*
X90875000Y30825000I125000J0D01*
G01*
X91125000Y30825000D01*
G75*
G02*
X91250000Y30700000I0J-125000D01*
G01*
X91250000Y29450000D01*
G75*
G02*
X91125000Y29325000I-125000J0D01*
G01*
G37*
G36*
G01*
X91925000Y29325000D02*
X91675000Y29325000D01*
G75*
G02*
X91550000Y29450000I0J125000D01*
G01*
X91550000Y30700000D01*
G75*
G02*
X91675000Y30825000I125000J0D01*
G01*
X91925000Y30825000D01*
G75*
G02*
X92050000Y30700000I0J-125000D01*
G01*
X92050000Y29450000D01*
G75*
G02*
X91925000Y29325000I-125000J0D01*
G01*
G37*
G36*
G01*
X92725000Y29325000D02*
X92475000Y29325000D01*
G75*
G02*
X92350000Y29450000I0J125000D01*
G01*
X92350000Y30700000D01*
G75*
G02*
X92475000Y30825000I125000J0D01*
G01*
X92725000Y30825000D01*
G75*
G02*
X92850000Y30700000I0J-125000D01*
G01*
X92850000Y29450000D01*
G75*
G02*
X92725000Y29325000I-125000J0D01*
G01*
G37*
G36*
G01*
X93525000Y29325000D02*
X93275000Y29325000D01*
G75*
G02*
X93150000Y29450000I0J125000D01*
G01*
X93150000Y30700000D01*
G75*
G02*
X93275000Y30825000I125000J0D01*
G01*
X93525000Y30825000D01*
G75*
G02*
X93650000Y30700000I0J-125000D01*
G01*
X93650000Y29450000D01*
G75*
G02*
X93525000Y29325000I-125000J0D01*
G01*
G37*
G36*
G01*
X94325000Y29325000D02*
X94075000Y29325000D01*
G75*
G02*
X93950000Y29450000I0J125000D01*
G01*
X93950000Y30700000D01*
G75*
G02*
X94075000Y30825000I125000J0D01*
G01*
X94325000Y30825000D01*
G75*
G02*
X94450000Y30700000I0J-125000D01*
G01*
X94450000Y29450000D01*
G75*
G02*
X94325000Y29325000I-125000J0D01*
G01*
G37*
G36*
G01*
X95125000Y29325000D02*
X94875000Y29325000D01*
G75*
G02*
X94750000Y29450000I0J125000D01*
G01*
X94750000Y30700000D01*
G75*
G02*
X94875000Y30825000I125000J0D01*
G01*
X95125000Y30825000D01*
G75*
G02*
X95250000Y30700000I0J-125000D01*
G01*
X95250000Y29450000D01*
G75*
G02*
X95125000Y29325000I-125000J0D01*
G01*
G37*
G36*
G01*
X95925000Y29325000D02*
X95675000Y29325000D01*
G75*
G02*
X95550000Y29450000I0J125000D01*
G01*
X95550000Y30700000D01*
G75*
G02*
X95675000Y30825000I125000J0D01*
G01*
X95925000Y30825000D01*
G75*
G02*
X96050000Y30700000I0J-125000D01*
G01*
X96050000Y29450000D01*
G75*
G02*
X95925000Y29325000I-125000J0D01*
G01*
G37*
G36*
G01*
X97800000Y31200000D02*
X96550000Y31200000D01*
G75*
G02*
X96425000Y31325000I0J125000D01*
G01*
X96425000Y31575000D01*
G75*
G02*
X96550000Y31700000I125000J0D01*
G01*
X97800000Y31700000D01*
G75*
G02*
X97925000Y31575000I0J-125000D01*
G01*
X97925000Y31325000D01*
G75*
G02*
X97800000Y31200000I-125000J0D01*
G01*
G37*
G36*
G01*
X97800000Y32000000D02*
X96550000Y32000000D01*
G75*
G02*
X96425000Y32125000I0J125000D01*
G01*
X96425000Y32375000D01*
G75*
G02*
X96550000Y32500000I125000J0D01*
G01*
X97800000Y32500000D01*
G75*
G02*
X97925000Y32375000I0J-125000D01*
G01*
X97925000Y32125000D01*
G75*
G02*
X97800000Y32000000I-125000J0D01*
G01*
G37*
G36*
G01*
X97800000Y32800000D02*
X96550000Y32800000D01*
G75*
G02*
X96425000Y32925000I0J125000D01*
G01*
X96425000Y33175000D01*
G75*
G02*
X96550000Y33300000I125000J0D01*
G01*
X97800000Y33300000D01*
G75*
G02*
X97925000Y33175000I0J-125000D01*
G01*
X97925000Y32925000D01*
G75*
G02*
X97800000Y32800000I-125000J0D01*
G01*
G37*
G36*
G01*
X97800000Y33600000D02*
X96550000Y33600000D01*
G75*
G02*
X96425000Y33725000I0J125000D01*
G01*
X96425000Y33975000D01*
G75*
G02*
X96550000Y34100000I125000J0D01*
G01*
X97800000Y34100000D01*
G75*
G02*
X97925000Y33975000I0J-125000D01*
G01*
X97925000Y33725000D01*
G75*
G02*
X97800000Y33600000I-125000J0D01*
G01*
G37*
G36*
G01*
X97800000Y34400000D02*
X96550000Y34400000D01*
G75*
G02*
X96425000Y34525000I0J125000D01*
G01*
X96425000Y34775000D01*
G75*
G02*
X96550000Y34900000I125000J0D01*
G01*
X97800000Y34900000D01*
G75*
G02*
X97925000Y34775000I0J-125000D01*
G01*
X97925000Y34525000D01*
G75*
G02*
X97800000Y34400000I-125000J0D01*
G01*
G37*
G36*
G01*
X97800000Y35200000D02*
X96550000Y35200000D01*
G75*
G02*
X96425000Y35325000I0J125000D01*
G01*
X96425000Y35575000D01*
G75*
G02*
X96550000Y35700000I125000J0D01*
G01*
X97800000Y35700000D01*
G75*
G02*
X97925000Y35575000I0J-125000D01*
G01*
X97925000Y35325000D01*
G75*
G02*
X97800000Y35200000I-125000J0D01*
G01*
G37*
G36*
G01*
X97800000Y36000000D02*
X96550000Y36000000D01*
G75*
G02*
X96425000Y36125000I0J125000D01*
G01*
X96425000Y36375000D01*
G75*
G02*
X96550000Y36500000I125000J0D01*
G01*
X97800000Y36500000D01*
G75*
G02*
X97925000Y36375000I0J-125000D01*
G01*
X97925000Y36125000D01*
G75*
G02*
X97800000Y36000000I-125000J0D01*
G01*
G37*
G36*
G01*
X97800000Y36800000D02*
X96550000Y36800000D01*
G75*
G02*
X96425000Y36925000I0J125000D01*
G01*
X96425000Y37175000D01*
G75*
G02*
X96550000Y37300000I125000J0D01*
G01*
X97800000Y37300000D01*
G75*
G02*
X97925000Y37175000I0J-125000D01*
G01*
X97925000Y36925000D01*
G75*
G02*
X97800000Y36800000I-125000J0D01*
G01*
G37*
G36*
G01*
X95925000Y37675000D02*
X95675000Y37675000D01*
G75*
G02*
X95550000Y37800000I0J125000D01*
G01*
X95550000Y39050000D01*
G75*
G02*
X95675000Y39175000I125000J0D01*
G01*
X95925000Y39175000D01*
G75*
G02*
X96050000Y39050000I0J-125000D01*
G01*
X96050000Y37800000D01*
G75*
G02*
X95925000Y37675000I-125000J0D01*
G01*
G37*
G36*
G01*
X95125000Y37675000D02*
X94875000Y37675000D01*
G75*
G02*
X94750000Y37800000I0J125000D01*
G01*
X94750000Y39050000D01*
G75*
G02*
X94875000Y39175000I125000J0D01*
G01*
X95125000Y39175000D01*
G75*
G02*
X95250000Y39050000I0J-125000D01*
G01*
X95250000Y37800000D01*
G75*
G02*
X95125000Y37675000I-125000J0D01*
G01*
G37*
G36*
G01*
X94325000Y37675000D02*
X94075000Y37675000D01*
G75*
G02*
X93950000Y37800000I0J125000D01*
G01*
X93950000Y39050000D01*
G75*
G02*
X94075000Y39175000I125000J0D01*
G01*
X94325000Y39175000D01*
G75*
G02*
X94450000Y39050000I0J-125000D01*
G01*
X94450000Y37800000D01*
G75*
G02*
X94325000Y37675000I-125000J0D01*
G01*
G37*
G36*
G01*
X93525000Y37675000D02*
X93275000Y37675000D01*
G75*
G02*
X93150000Y37800000I0J125000D01*
G01*
X93150000Y39050000D01*
G75*
G02*
X93275000Y39175000I125000J0D01*
G01*
X93525000Y39175000D01*
G75*
G02*
X93650000Y39050000I0J-125000D01*
G01*
X93650000Y37800000D01*
G75*
G02*
X93525000Y37675000I-125000J0D01*
G01*
G37*
G36*
G01*
X92725000Y37675000D02*
X92475000Y37675000D01*
G75*
G02*
X92350000Y37800000I0J125000D01*
G01*
X92350000Y39050000D01*
G75*
G02*
X92475000Y39175000I125000J0D01*
G01*
X92725000Y39175000D01*
G75*
G02*
X92850000Y39050000I0J-125000D01*
G01*
X92850000Y37800000D01*
G75*
G02*
X92725000Y37675000I-125000J0D01*
G01*
G37*
G36*
G01*
X91925000Y37675000D02*
X91675000Y37675000D01*
G75*
G02*
X91550000Y37800000I0J125000D01*
G01*
X91550000Y39050000D01*
G75*
G02*
X91675000Y39175000I125000J0D01*
G01*
X91925000Y39175000D01*
G75*
G02*
X92050000Y39050000I0J-125000D01*
G01*
X92050000Y37800000D01*
G75*
G02*
X91925000Y37675000I-125000J0D01*
G01*
G37*
G36*
G01*
X91125000Y37675000D02*
X90875000Y37675000D01*
G75*
G02*
X90750000Y37800000I0J125000D01*
G01*
X90750000Y39050000D01*
G75*
G02*
X90875000Y39175000I125000J0D01*
G01*
X91125000Y39175000D01*
G75*
G02*
X91250000Y39050000I0J-125000D01*
G01*
X91250000Y37800000D01*
G75*
G02*
X91125000Y37675000I-125000J0D01*
G01*
G37*
G36*
G01*
X90325000Y37675000D02*
X90075000Y37675000D01*
G75*
G02*
X89950000Y37800000I0J125000D01*
G01*
X89950000Y39050000D01*
G75*
G02*
X90075000Y39175000I125000J0D01*
G01*
X90325000Y39175000D01*
G75*
G02*
X90450000Y39050000I0J-125000D01*
G01*
X90450000Y37800000D01*
G75*
G02*
X90325000Y37675000I-125000J0D01*
G01*
G37*
G36*
G01*
X89450000Y36800000D02*
X88200000Y36800000D01*
G75*
G02*
X88075000Y36925000I0J125000D01*
G01*
X88075000Y37175000D01*
G75*
G02*
X88200000Y37300000I125000J0D01*
G01*
X89450000Y37300000D01*
G75*
G02*
X89575000Y37175000I0J-125000D01*
G01*
X89575000Y36925000D01*
G75*
G02*
X89450000Y36800000I-125000J0D01*
G01*
G37*
G36*
G01*
X89450000Y36000000D02*
X88200000Y36000000D01*
G75*
G02*
X88075000Y36125000I0J125000D01*
G01*
X88075000Y36375000D01*
G75*
G02*
X88200000Y36500000I125000J0D01*
G01*
X89450000Y36500000D01*
G75*
G02*
X89575000Y36375000I0J-125000D01*
G01*
X89575000Y36125000D01*
G75*
G02*
X89450000Y36000000I-125000J0D01*
G01*
G37*
G36*
G01*
X89450000Y35200000D02*
X88200000Y35200000D01*
G75*
G02*
X88075000Y35325000I0J125000D01*
G01*
X88075000Y35575000D01*
G75*
G02*
X88200000Y35700000I125000J0D01*
G01*
X89450000Y35700000D01*
G75*
G02*
X89575000Y35575000I0J-125000D01*
G01*
X89575000Y35325000D01*
G75*
G02*
X89450000Y35200000I-125000J0D01*
G01*
G37*
G36*
G01*
X89450000Y34400000D02*
X88200000Y34400000D01*
G75*
G02*
X88075000Y34525000I0J125000D01*
G01*
X88075000Y34775000D01*
G75*
G02*
X88200000Y34900000I125000J0D01*
G01*
X89450000Y34900000D01*
G75*
G02*
X89575000Y34775000I0J-125000D01*
G01*
X89575000Y34525000D01*
G75*
G02*
X89450000Y34400000I-125000J0D01*
G01*
G37*
G36*
G01*
X89450000Y33600000D02*
X88200000Y33600000D01*
G75*
G02*
X88075000Y33725000I0J125000D01*
G01*
X88075000Y33975000D01*
G75*
G02*
X88200000Y34100000I125000J0D01*
G01*
X89450000Y34100000D01*
G75*
G02*
X89575000Y33975000I0J-125000D01*
G01*
X89575000Y33725000D01*
G75*
G02*
X89450000Y33600000I-125000J0D01*
G01*
G37*
G36*
G01*
X89450000Y32800000D02*
X88200000Y32800000D01*
G75*
G02*
X88075000Y32925000I0J125000D01*
G01*
X88075000Y33175000D01*
G75*
G02*
X88200000Y33300000I125000J0D01*
G01*
X89450000Y33300000D01*
G75*
G02*
X89575000Y33175000I0J-125000D01*
G01*
X89575000Y32925000D01*
G75*
G02*
X89450000Y32800000I-125000J0D01*
G01*
G37*
G36*
G01*
X89450000Y32000000D02*
X88200000Y32000000D01*
G75*
G02*
X88075000Y32125000I0J125000D01*
G01*
X88075000Y32375000D01*
G75*
G02*
X88200000Y32500000I125000J0D01*
G01*
X89450000Y32500000D01*
G75*
G02*
X89575000Y32375000I0J-125000D01*
G01*
X89575000Y32125000D01*
G75*
G02*
X89450000Y32000000I-125000J0D01*
G01*
G37*
G36*
G01*
X89450000Y31200000D02*
X88200000Y31200000D01*
G75*
G02*
X88075000Y31325000I0J125000D01*
G01*
X88075000Y31575000D01*
G75*
G02*
X88200000Y31700000I125000J0D01*
G01*
X89450000Y31700000D01*
G75*
G02*
X89575000Y31575000I0J-125000D01*
G01*
X89575000Y31325000D01*
G75*
G02*
X89450000Y31200000I-125000J0D01*
G01*
G37*
D29*
X102830000Y35400000D03*
X102830000Y34100000D03*
X100170000Y34100000D03*
X100170000Y34750000D03*
X100170000Y35400000D03*
D30*
X104700000Y23475000D03*
X104700000Y22825000D03*
X104700000Y22175000D03*
X104700000Y21525000D03*
X100300000Y21525000D03*
X100300000Y22175000D03*
X100300000Y22825000D03*
X100300000Y23475000D03*
G36*
G01*
X108425000Y23512500D02*
X108425000Y23987500D01*
G75*
G02*
X108662500Y24225000I237500J0D01*
G01*
X109162500Y24225000D01*
G75*
G02*
X109400000Y23987500I0J-237500D01*
G01*
X109400000Y23512500D01*
G75*
G02*
X109162500Y23275000I-237500J0D01*
G01*
X108662500Y23275000D01*
G75*
G02*
X108425000Y23512500I0J237500D01*
G01*
G37*
G36*
G01*
X106600000Y23512500D02*
X106600000Y23987500D01*
G75*
G02*
X106837500Y24225000I237500J0D01*
G01*
X107337500Y24225000D01*
G75*
G02*
X107575000Y23987500I0J-237500D01*
G01*
X107575000Y23512500D01*
G75*
G02*
X107337500Y23275000I-237500J0D01*
G01*
X106837500Y23275000D01*
G75*
G02*
X106600000Y23512500I0J237500D01*
G01*
G37*
G36*
G01*
X98237500Y22925000D02*
X97762500Y22925000D01*
G75*
G02*
X97525000Y23162500I0J237500D01*
G01*
X97525000Y23662500D01*
G75*
G02*
X97762500Y23900000I237500J0D01*
G01*
X98237500Y23900000D01*
G75*
G02*
X98475000Y23662500I0J-237500D01*
G01*
X98475000Y23162500D01*
G75*
G02*
X98237500Y22925000I-237500J0D01*
G01*
G37*
G36*
G01*
X98237500Y21100000D02*
X97762500Y21100000D01*
G75*
G02*
X97525000Y21337500I0J237500D01*
G01*
X97525000Y21837500D01*
G75*
G02*
X97762500Y22075000I237500J0D01*
G01*
X98237500Y22075000D01*
G75*
G02*
X98475000Y21837500I0J-237500D01*
G01*
X98475000Y21337500D01*
G75*
G02*
X98237500Y21100000I-237500J0D01*
G01*
G37*
G36*
G01*
X108237500Y30262500D02*
X107762500Y30262500D01*
G75*
G02*
X107525000Y30500000I0J237500D01*
G01*
X107525000Y31000000D01*
G75*
G02*
X107762500Y31237500I237500J0D01*
G01*
X108237500Y31237500D01*
G75*
G02*
X108475000Y31000000I0J-237500D01*
G01*
X108475000Y30500000D01*
G75*
G02*
X108237500Y30262500I-237500J0D01*
G01*
G37*
G36*
G01*
X108237500Y28437500D02*
X107762500Y28437500D01*
G75*
G02*
X107525000Y28675000I0J237500D01*
G01*
X107525000Y29175000D01*
G75*
G02*
X107762500Y29412500I237500J0D01*
G01*
X108237500Y29412500D01*
G75*
G02*
X108475000Y29175000I0J-237500D01*
G01*
X108475000Y28675000D01*
G75*
G02*
X108237500Y28437500I-237500J0D01*
G01*
G37*
G36*
G01*
X112512500Y37825000D02*
X112987500Y37825000D01*
G75*
G02*
X113225000Y37587500I0J-237500D01*
G01*
X113225000Y37087500D01*
G75*
G02*
X112987500Y36850000I-237500J0D01*
G01*
X112512500Y36850000D01*
G75*
G02*
X112275000Y37087500I0J237500D01*
G01*
X112275000Y37587500D01*
G75*
G02*
X112512500Y37825000I237500J0D01*
G01*
G37*
G36*
G01*
X112512500Y39650000D02*
X112987500Y39650000D01*
G75*
G02*
X113225000Y39412500I0J-237500D01*
G01*
X113225000Y38912500D01*
G75*
G02*
X112987500Y38675000I-237500J0D01*
G01*
X112512500Y38675000D01*
G75*
G02*
X112275000Y38912500I0J237500D01*
G01*
X112275000Y39412500D01*
G75*
G02*
X112512500Y39650000I237500J0D01*
G01*
G37*
G36*
G01*
X104675000Y40512500D02*
X104675000Y40987500D01*
G75*
G02*
X104912500Y41225000I237500J0D01*
G01*
X105412500Y41225000D01*
G75*
G02*
X105650000Y40987500I0J-237500D01*
G01*
X105650000Y40512500D01*
G75*
G02*
X105412500Y40275000I-237500J0D01*
G01*
X104912500Y40275000D01*
G75*
G02*
X104675000Y40512500I0J237500D01*
G01*
G37*
G36*
G01*
X102850000Y40512500D02*
X102850000Y40987500D01*
G75*
G02*
X103087500Y41225000I237500J0D01*
G01*
X103587500Y41225000D01*
G75*
G02*
X103825000Y40987500I0J-237500D01*
G01*
X103825000Y40512500D01*
G75*
G02*
X103587500Y40275000I-237500J0D01*
G01*
X103087500Y40275000D01*
G75*
G02*
X102850000Y40512500I0J237500D01*
G01*
G37*
G36*
G01*
X118487500Y38675000D02*
X118012500Y38675000D01*
G75*
G02*
X117775000Y38912500I0J237500D01*
G01*
X117775000Y39412500D01*
G75*
G02*
X118012500Y39650000I237500J0D01*
G01*
X118487500Y39650000D01*
G75*
G02*
X118725000Y39412500I0J-237500D01*
G01*
X118725000Y38912500D01*
G75*
G02*
X118487500Y38675000I-237500J0D01*
G01*
G37*
G36*
G01*
X118487500Y36850000D02*
X118012500Y36850000D01*
G75*
G02*
X117775000Y37087500I0J237500D01*
G01*
X117775000Y37587500D01*
G75*
G02*
X118012500Y37825000I237500J0D01*
G01*
X118487500Y37825000D01*
G75*
G02*
X118725000Y37587500I0J-237500D01*
G01*
X118725000Y37087500D01*
G75*
G02*
X118487500Y36850000I-237500J0D01*
G01*
G37*
G36*
G01*
X110925000Y34012500D02*
X110925000Y34487500D01*
G75*
G02*
X111162500Y34725000I237500J0D01*
G01*
X111662500Y34725000D01*
G75*
G02*
X111900000Y34487500I0J-237500D01*
G01*
X111900000Y34012500D01*
G75*
G02*
X111662500Y33775000I-237500J0D01*
G01*
X111162500Y33775000D01*
G75*
G02*
X110925000Y34012500I0J237500D01*
G01*
G37*
G36*
G01*
X109100000Y34012500D02*
X109100000Y34487500D01*
G75*
G02*
X109337500Y34725000I237500J0D01*
G01*
X109837500Y34725000D01*
G75*
G02*
X110075000Y34487500I0J-237500D01*
G01*
X110075000Y34012500D01*
G75*
G02*
X109837500Y33775000I-237500J0D01*
G01*
X109337500Y33775000D01*
G75*
G02*
X109100000Y34012500I0J237500D01*
G01*
G37*
G36*
G01*
X83262500Y41575000D02*
X83737500Y41575000D01*
G75*
G02*
X83975000Y41337500I0J-237500D01*
G01*
X83975000Y40837500D01*
G75*
G02*
X83737500Y40600000I-237500J0D01*
G01*
X83262500Y40600000D01*
G75*
G02*
X83025000Y40837500I0J237500D01*
G01*
X83025000Y41337500D01*
G75*
G02*
X83262500Y41575000I237500J0D01*
G01*
G37*
G36*
G01*
X83262500Y43400000D02*
X83737500Y43400000D01*
G75*
G02*
X83975000Y43162500I0J-237500D01*
G01*
X83975000Y42662500D01*
G75*
G02*
X83737500Y42425000I-237500J0D01*
G01*
X83262500Y42425000D01*
G75*
G02*
X83025000Y42662500I0J237500D01*
G01*
X83025000Y43162500D01*
G75*
G02*
X83262500Y43400000I237500J0D01*
G01*
G37*
G36*
G01*
X85012500Y41575000D02*
X85487500Y41575000D01*
G75*
G02*
X85725000Y41337500I0J-237500D01*
G01*
X85725000Y40837500D01*
G75*
G02*
X85487500Y40600000I-237500J0D01*
G01*
X85012500Y40600000D01*
G75*
G02*
X84775000Y40837500I0J237500D01*
G01*
X84775000Y41337500D01*
G75*
G02*
X85012500Y41575000I237500J0D01*
G01*
G37*
G36*
G01*
X85012500Y43400000D02*
X85487500Y43400000D01*
G75*
G02*
X85725000Y43162500I0J-237500D01*
G01*
X85725000Y42662500D01*
G75*
G02*
X85487500Y42425000I-237500J0D01*
G01*
X85012500Y42425000D01*
G75*
G02*
X84775000Y42662500I0J237500D01*
G01*
X84775000Y43162500D01*
G75*
G02*
X85012500Y43400000I237500J0D01*
G01*
G37*
G36*
G01*
X86762500Y43400000D02*
X87237500Y43400000D01*
G75*
G02*
X87475000Y43162500I0J-237500D01*
G01*
X87475000Y42662500D01*
G75*
G02*
X87237500Y42425000I-237500J0D01*
G01*
X86762500Y42425000D01*
G75*
G02*
X86525000Y42662500I0J237500D01*
G01*
X86525000Y43162500D01*
G75*
G02*
X86762500Y43400000I237500J0D01*
G01*
G37*
G36*
G01*
X86762500Y41575000D02*
X87237500Y41575000D01*
G75*
G02*
X87475000Y41337500I0J-237500D01*
G01*
X87475000Y40837500D01*
G75*
G02*
X87237500Y40600000I-237500J0D01*
G01*
X86762500Y40600000D01*
G75*
G02*
X86525000Y40837500I0J237500D01*
G01*
X86525000Y41337500D01*
G75*
G02*
X86762500Y41575000I237500J0D01*
G01*
G37*
G36*
G01*
X106812500Y34487500D02*
X106812500Y34012500D01*
G75*
G02*
X106575000Y33775000I-237500J0D01*
G01*
X105975000Y33775000D01*
G75*
G02*
X105737500Y34012500I0J237500D01*
G01*
X105737500Y34487500D01*
G75*
G02*
X105975000Y34725000I237500J0D01*
G01*
X106575000Y34725000D01*
G75*
G02*
X106812500Y34487500I0J-237500D01*
G01*
G37*
G36*
G01*
X108537500Y34487500D02*
X108537500Y34012500D01*
G75*
G02*
X108300000Y33775000I-237500J0D01*
G01*
X107700000Y33775000D01*
G75*
G02*
X107462500Y34012500I0J237500D01*
G01*
X107462500Y34487500D01*
G75*
G02*
X107700000Y34725000I237500J0D01*
G01*
X108300000Y34725000D01*
G75*
G02*
X108537500Y34487500I0J-237500D01*
G01*
G37*
G36*
G01*
X84700000Y14700000D02*
X85800000Y14700000D01*
G75*
G02*
X86050000Y14450000I0J-250000D01*
G01*
X86050000Y11450000D01*
G75*
G02*
X85800000Y11200000I-250000J0D01*
G01*
X84700000Y11200000D01*
G75*
G02*
X84450000Y11450000I0J250000D01*
G01*
X84450000Y14450000D01*
G75*
G02*
X84700000Y14700000I250000J0D01*
G01*
G37*
G36*
G01*
X84700000Y20300000D02*
X85800000Y20300000D01*
G75*
G02*
X86050000Y20050000I0J-250000D01*
G01*
X86050000Y17050000D01*
G75*
G02*
X85800000Y16800000I-250000J0D01*
G01*
X84700000Y16800000D01*
G75*
G02*
X84450000Y17050000I0J250000D01*
G01*
X84450000Y20050000D01*
G75*
G02*
X84700000Y20300000I250000J0D01*
G01*
G37*
D23*
X105550000Y38850000D03*
X107450000Y38850000D03*
X107450000Y36150000D03*
X106500000Y36150000D03*
X105550000Y36150000D03*
G36*
G01*
X92450000Y14700000D02*
X93550000Y14700000D01*
G75*
G02*
X93800000Y14450000I0J-250000D01*
G01*
X93800000Y11450000D01*
G75*
G02*
X93550000Y11200000I-250000J0D01*
G01*
X92450000Y11200000D01*
G75*
G02*
X92200000Y11450000I0J250000D01*
G01*
X92200000Y14450000D01*
G75*
G02*
X92450000Y14700000I250000J0D01*
G01*
G37*
G36*
G01*
X92450000Y20300000D02*
X93550000Y20300000D01*
G75*
G02*
X93800000Y20050000I0J-250000D01*
G01*
X93800000Y17050000D01*
G75*
G02*
X93550000Y16800000I-250000J0D01*
G01*
X92450000Y16800000D01*
G75*
G02*
X92200000Y17050000I0J250000D01*
G01*
X92200000Y20050000D01*
G75*
G02*
X92450000Y20300000I250000J0D01*
G01*
G37*
G36*
G01*
X118575000Y35012500D02*
X118575000Y35487500D01*
G75*
G02*
X118812500Y35725000I237500J0D01*
G01*
X119412500Y35725000D01*
G75*
G02*
X119650000Y35487500I0J-237500D01*
G01*
X119650000Y35012500D01*
G75*
G02*
X119412500Y34775000I-237500J0D01*
G01*
X118812500Y34775000D01*
G75*
G02*
X118575000Y35012500I0J237500D01*
G01*
G37*
G36*
G01*
X116850000Y35012500D02*
X116850000Y35487500D01*
G75*
G02*
X117087500Y35725000I237500J0D01*
G01*
X117687500Y35725000D01*
G75*
G02*
X117925000Y35487500I0J-237500D01*
G01*
X117925000Y35012500D01*
G75*
G02*
X117687500Y34775000I-237500J0D01*
G01*
X117087500Y34775000D01*
G75*
G02*
X116850000Y35012500I0J237500D01*
G01*
G37*
G36*
G01*
X78562500Y33375000D02*
X78437500Y33375000D01*
G75*
G02*
X78375000Y33437500I0J62500D01*
G01*
X78375000Y34137500D01*
G75*
G02*
X78437500Y34200000I62500J0D01*
G01*
X78562500Y34200000D01*
G75*
G02*
X78625000Y34137500I0J-62500D01*
G01*
X78625000Y33437500D01*
G75*
G02*
X78562500Y33375000I-62500J0D01*
G01*
G37*
G36*
G01*
X79062500Y33375000D02*
X78937500Y33375000D01*
G75*
G02*
X78875000Y33437500I0J62500D01*
G01*
X78875000Y34137500D01*
G75*
G02*
X78937500Y34200000I62500J0D01*
G01*
X79062500Y34200000D01*
G75*
G02*
X79125000Y34137500I0J-62500D01*
G01*
X79125000Y33437500D01*
G75*
G02*
X79062500Y33375000I-62500J0D01*
G01*
G37*
G36*
G01*
X79562500Y33375000D02*
X79437500Y33375000D01*
G75*
G02*
X79375000Y33437500I0J62500D01*
G01*
X79375000Y34137500D01*
G75*
G02*
X79437500Y34200000I62500J0D01*
G01*
X79562500Y34200000D01*
G75*
G02*
X79625000Y34137500I0J-62500D01*
G01*
X79625000Y33437500D01*
G75*
G02*
X79562500Y33375000I-62500J0D01*
G01*
G37*
G36*
G01*
X80062500Y33375000D02*
X79937500Y33375000D01*
G75*
G02*
X79875000Y33437500I0J62500D01*
G01*
X79875000Y34137500D01*
G75*
G02*
X79937500Y34200000I62500J0D01*
G01*
X80062500Y34200000D01*
G75*
G02*
X80125000Y34137500I0J-62500D01*
G01*
X80125000Y33437500D01*
G75*
G02*
X80062500Y33375000I-62500J0D01*
G01*
G37*
G36*
G01*
X80562500Y33375000D02*
X80437500Y33375000D01*
G75*
G02*
X80375000Y33437500I0J62500D01*
G01*
X80375000Y34137500D01*
G75*
G02*
X80437500Y34200000I62500J0D01*
G01*
X80562500Y34200000D01*
G75*
G02*
X80625000Y34137500I0J-62500D01*
G01*
X80625000Y33437500D01*
G75*
G02*
X80562500Y33375000I-62500J0D01*
G01*
G37*
G36*
G01*
X81062500Y33375000D02*
X80937500Y33375000D01*
G75*
G02*
X80875000Y33437500I0J62500D01*
G01*
X80875000Y34137500D01*
G75*
G02*
X80937500Y34200000I62500J0D01*
G01*
X81062500Y34200000D01*
G75*
G02*
X81125000Y34137500I0J-62500D01*
G01*
X81125000Y33437500D01*
G75*
G02*
X81062500Y33375000I-62500J0D01*
G01*
G37*
G36*
G01*
X82062500Y34375000D02*
X81362500Y34375000D01*
G75*
G02*
X81300000Y34437500I0J62500D01*
G01*
X81300000Y34562500D01*
G75*
G02*
X81362500Y34625000I62500J0D01*
G01*
X82062500Y34625000D01*
G75*
G02*
X82125000Y34562500I0J-62500D01*
G01*
X82125000Y34437500D01*
G75*
G02*
X82062500Y34375000I-62500J0D01*
G01*
G37*
G36*
G01*
X82062500Y34875000D02*
X81362500Y34875000D01*
G75*
G02*
X81300000Y34937500I0J62500D01*
G01*
X81300000Y35062500D01*
G75*
G02*
X81362500Y35125000I62500J0D01*
G01*
X82062500Y35125000D01*
G75*
G02*
X82125000Y35062500I0J-62500D01*
G01*
X82125000Y34937500D01*
G75*
G02*
X82062500Y34875000I-62500J0D01*
G01*
G37*
G36*
G01*
X82062500Y35375000D02*
X81362500Y35375000D01*
G75*
G02*
X81300000Y35437500I0J62500D01*
G01*
X81300000Y35562500D01*
G75*
G02*
X81362500Y35625000I62500J0D01*
G01*
X82062500Y35625000D01*
G75*
G02*
X82125000Y35562500I0J-62500D01*
G01*
X82125000Y35437500D01*
G75*
G02*
X82062500Y35375000I-62500J0D01*
G01*
G37*
G36*
G01*
X82062500Y35875000D02*
X81362500Y35875000D01*
G75*
G02*
X81300000Y35937500I0J62500D01*
G01*
X81300000Y36062500D01*
G75*
G02*
X81362500Y36125000I62500J0D01*
G01*
X82062500Y36125000D01*
G75*
G02*
X82125000Y36062500I0J-62500D01*
G01*
X82125000Y35937500D01*
G75*
G02*
X82062500Y35875000I-62500J0D01*
G01*
G37*
G36*
G01*
X82062500Y36375000D02*
X81362500Y36375000D01*
G75*
G02*
X81300000Y36437500I0J62500D01*
G01*
X81300000Y36562500D01*
G75*
G02*
X81362500Y36625000I62500J0D01*
G01*
X82062500Y36625000D01*
G75*
G02*
X82125000Y36562500I0J-62500D01*
G01*
X82125000Y36437500D01*
G75*
G02*
X82062500Y36375000I-62500J0D01*
G01*
G37*
G36*
G01*
X82062500Y36875000D02*
X81362500Y36875000D01*
G75*
G02*
X81300000Y36937500I0J62500D01*
G01*
X81300000Y37062500D01*
G75*
G02*
X81362500Y37125000I62500J0D01*
G01*
X82062500Y37125000D01*
G75*
G02*
X82125000Y37062500I0J-62500D01*
G01*
X82125000Y36937500D01*
G75*
G02*
X82062500Y36875000I-62500J0D01*
G01*
G37*
G36*
G01*
X81062500Y37300000D02*
X80937500Y37300000D01*
G75*
G02*
X80875000Y37362500I0J62500D01*
G01*
X80875000Y38062500D01*
G75*
G02*
X80937500Y38125000I62500J0D01*
G01*
X81062500Y38125000D01*
G75*
G02*
X81125000Y38062500I0J-62500D01*
G01*
X81125000Y37362500D01*
G75*
G02*
X81062500Y37300000I-62500J0D01*
G01*
G37*
G36*
G01*
X80562500Y37300000D02*
X80437500Y37300000D01*
G75*
G02*
X80375000Y37362500I0J62500D01*
G01*
X80375000Y38062500D01*
G75*
G02*
X80437500Y38125000I62500J0D01*
G01*
X80562500Y38125000D01*
G75*
G02*
X80625000Y38062500I0J-62500D01*
G01*
X80625000Y37362500D01*
G75*
G02*
X80562500Y37300000I-62500J0D01*
G01*
G37*
G36*
G01*
X80062500Y37300000D02*
X79937500Y37300000D01*
G75*
G02*
X79875000Y37362500I0J62500D01*
G01*
X79875000Y38062500D01*
G75*
G02*
X79937500Y38125000I62500J0D01*
G01*
X80062500Y38125000D01*
G75*
G02*
X80125000Y38062500I0J-62500D01*
G01*
X80125000Y37362500D01*
G75*
G02*
X80062500Y37300000I-62500J0D01*
G01*
G37*
G36*
G01*
X79562500Y37300000D02*
X79437500Y37300000D01*
G75*
G02*
X79375000Y37362500I0J62500D01*
G01*
X79375000Y38062500D01*
G75*
G02*
X79437500Y38125000I62500J0D01*
G01*
X79562500Y38125000D01*
G75*
G02*
X79625000Y38062500I0J-62500D01*
G01*
X79625000Y37362500D01*
G75*
G02*
X79562500Y37300000I-62500J0D01*
G01*
G37*
G36*
G01*
X79062500Y37300000D02*
X78937500Y37300000D01*
G75*
G02*
X78875000Y37362500I0J62500D01*
G01*
X78875000Y38062500D01*
G75*
G02*
X78937500Y38125000I62500J0D01*
G01*
X79062500Y38125000D01*
G75*
G02*
X79125000Y38062500I0J-62500D01*
G01*
X79125000Y37362500D01*
G75*
G02*
X79062500Y37300000I-62500J0D01*
G01*
G37*
G36*
G01*
X78562500Y37300000D02*
X78437500Y37300000D01*
G75*
G02*
X78375000Y37362500I0J62500D01*
G01*
X78375000Y38062500D01*
G75*
G02*
X78437500Y38125000I62500J0D01*
G01*
X78562500Y38125000D01*
G75*
G02*
X78625000Y38062500I0J-62500D01*
G01*
X78625000Y37362500D01*
G75*
G02*
X78562500Y37300000I-62500J0D01*
G01*
G37*
G36*
G01*
X78137500Y36875000D02*
X77437500Y36875000D01*
G75*
G02*
X77375000Y36937500I0J62500D01*
G01*
X77375000Y37062500D01*
G75*
G02*
X77437500Y37125000I62500J0D01*
G01*
X78137500Y37125000D01*
G75*
G02*
X78200000Y37062500I0J-62500D01*
G01*
X78200000Y36937500D01*
G75*
G02*
X78137500Y36875000I-62500J0D01*
G01*
G37*
G36*
G01*
X78137500Y36375000D02*
X77437500Y36375000D01*
G75*
G02*
X77375000Y36437500I0J62500D01*
G01*
X77375000Y36562500D01*
G75*
G02*
X77437500Y36625000I62500J0D01*
G01*
X78137500Y36625000D01*
G75*
G02*
X78200000Y36562500I0J-62500D01*
G01*
X78200000Y36437500D01*
G75*
G02*
X78137500Y36375000I-62500J0D01*
G01*
G37*
G36*
G01*
X78137500Y35875000D02*
X77437500Y35875000D01*
G75*
G02*
X77375000Y35937500I0J62500D01*
G01*
X77375000Y36062500D01*
G75*
G02*
X77437500Y36125000I62500J0D01*
G01*
X78137500Y36125000D01*
G75*
G02*
X78200000Y36062500I0J-62500D01*
G01*
X78200000Y35937500D01*
G75*
G02*
X78137500Y35875000I-62500J0D01*
G01*
G37*
G36*
G01*
X78137500Y35375000D02*
X77437500Y35375000D01*
G75*
G02*
X77375000Y35437500I0J62500D01*
G01*
X77375000Y35562500D01*
G75*
G02*
X77437500Y35625000I62500J0D01*
G01*
X78137500Y35625000D01*
G75*
G02*
X78200000Y35562500I0J-62500D01*
G01*
X78200000Y35437500D01*
G75*
G02*
X78137500Y35375000I-62500J0D01*
G01*
G37*
G36*
G01*
X78137500Y34875000D02*
X77437500Y34875000D01*
G75*
G02*
X77375000Y34937500I0J62500D01*
G01*
X77375000Y35062500D01*
G75*
G02*
X77437500Y35125000I62500J0D01*
G01*
X78137500Y35125000D01*
G75*
G02*
X78200000Y35062500I0J-62500D01*
G01*
X78200000Y34937500D01*
G75*
G02*
X78137500Y34875000I-62500J0D01*
G01*
G37*
G36*
G01*
X78137500Y34375000D02*
X77437500Y34375000D01*
G75*
G02*
X77375000Y34437500I0J62500D01*
G01*
X77375000Y34562500D01*
G75*
G02*
X77437500Y34625000I62500J0D01*
G01*
X78137500Y34625000D01*
G75*
G02*
X78200000Y34562500I0J-62500D01*
G01*
X78200000Y34437500D01*
G75*
G02*
X78137500Y34375000I-62500J0D01*
G01*
G37*
D31*
X79750000Y35750000D03*
G36*
G01*
X104450000Y17674999D02*
X104450000Y19825001D01*
G75*
G02*
X104699999Y20075000I249999J0D01*
G01*
X105600001Y20075000D01*
G75*
G02*
X105850000Y19825001I0J-249999D01*
G01*
X105850000Y17674999D01*
G75*
G02*
X105600001Y17425000I-249999J0D01*
G01*
X104699999Y17425000D01*
G75*
G02*
X104450000Y17674999I0J249999D01*
G01*
G37*
G36*
G01*
X99650000Y17674999D02*
X99650000Y19825001D01*
G75*
G02*
X99899999Y20075000I249999J0D01*
G01*
X100800001Y20075000D01*
G75*
G02*
X101050000Y19825001I0J-249999D01*
G01*
X101050000Y17674999D01*
G75*
G02*
X100800001Y17425000I-249999J0D01*
G01*
X99899999Y17425000D01*
G75*
G02*
X99650000Y17674999I0J249999D01*
G01*
G37*
G36*
G01*
X111237500Y38675000D02*
X110762500Y38675000D01*
G75*
G02*
X110525000Y38912500I0J237500D01*
G01*
X110525000Y39412500D01*
G75*
G02*
X110762500Y39650000I237500J0D01*
G01*
X111237500Y39650000D01*
G75*
G02*
X111475000Y39412500I0J-237500D01*
G01*
X111475000Y38912500D01*
G75*
G02*
X111237500Y38675000I-237500J0D01*
G01*
G37*
G36*
G01*
X111237500Y36850000D02*
X110762500Y36850000D01*
G75*
G02*
X110525000Y37087500I0J237500D01*
G01*
X110525000Y37587500D01*
G75*
G02*
X110762500Y37825000I237500J0D01*
G01*
X111237500Y37825000D01*
G75*
G02*
X111475000Y37587500I0J-237500D01*
G01*
X111475000Y37087500D01*
G75*
G02*
X111237500Y36850000I-237500J0D01*
G01*
G37*
G36*
G01*
X94012500Y25825000D02*
X94487500Y25825000D01*
G75*
G02*
X94725000Y25587500I0J-237500D01*
G01*
X94725000Y25087500D01*
G75*
G02*
X94487500Y24850000I-237500J0D01*
G01*
X94012500Y24850000D01*
G75*
G02*
X93775000Y25087500I0J237500D01*
G01*
X93775000Y25587500D01*
G75*
G02*
X94012500Y25825000I237500J0D01*
G01*
G37*
G36*
G01*
X94012500Y27650000D02*
X94487500Y27650000D01*
G75*
G02*
X94725000Y27412500I0J-237500D01*
G01*
X94725000Y26912500D01*
G75*
G02*
X94487500Y26675000I-237500J0D01*
G01*
X94012500Y26675000D01*
G75*
G02*
X93775000Y26912500I0J237500D01*
G01*
X93775000Y27412500D01*
G75*
G02*
X94012500Y27650000I237500J0D01*
G01*
G37*
G36*
G01*
X103925000Y32262500D02*
X103925000Y32737500D01*
G75*
G02*
X104162500Y32975000I237500J0D01*
G01*
X104662500Y32975000D01*
G75*
G02*
X104900000Y32737500I0J-237500D01*
G01*
X104900000Y32262500D01*
G75*
G02*
X104662500Y32025000I-237500J0D01*
G01*
X104162500Y32025000D01*
G75*
G02*
X103925000Y32262500I0J237500D01*
G01*
G37*
G36*
G01*
X102100000Y32262500D02*
X102100000Y32737500D01*
G75*
G02*
X102337500Y32975000I237500J0D01*
G01*
X102837500Y32975000D01*
G75*
G02*
X103075000Y32737500I0J-237500D01*
G01*
X103075000Y32262500D01*
G75*
G02*
X102837500Y32025000I-237500J0D01*
G01*
X102337500Y32025000D01*
G75*
G02*
X102100000Y32262500I0J237500D01*
G01*
G37*
G36*
G01*
X85737500Y30425000D02*
X85262500Y30425000D01*
G75*
G02*
X85025000Y30662500I0J237500D01*
G01*
X85025000Y31162500D01*
G75*
G02*
X85262500Y31400000I237500J0D01*
G01*
X85737500Y31400000D01*
G75*
G02*
X85975000Y31162500I0J-237500D01*
G01*
X85975000Y30662500D01*
G75*
G02*
X85737500Y30425000I-237500J0D01*
G01*
G37*
G36*
G01*
X85737500Y28600000D02*
X85262500Y28600000D01*
G75*
G02*
X85025000Y28837500I0J237500D01*
G01*
X85025000Y29337500D01*
G75*
G02*
X85262500Y29575000I237500J0D01*
G01*
X85737500Y29575000D01*
G75*
G02*
X85975000Y29337500I0J-237500D01*
G01*
X85975000Y28837500D01*
G75*
G02*
X85737500Y28600000I-237500J0D01*
G01*
G37*
G36*
G01*
X90987500Y26675000D02*
X90512500Y26675000D01*
G75*
G02*
X90275000Y26912500I0J237500D01*
G01*
X90275000Y27412500D01*
G75*
G02*
X90512500Y27650000I237500J0D01*
G01*
X90987500Y27650000D01*
G75*
G02*
X91225000Y27412500I0J-237500D01*
G01*
X91225000Y26912500D01*
G75*
G02*
X90987500Y26675000I-237500J0D01*
G01*
G37*
G36*
G01*
X90987500Y24850000D02*
X90512500Y24850000D01*
G75*
G02*
X90275000Y25087500I0J237500D01*
G01*
X90275000Y25587500D01*
G75*
G02*
X90512500Y25825000I237500J0D01*
G01*
X90987500Y25825000D01*
G75*
G02*
X91225000Y25587500I0J-237500D01*
G01*
X91225000Y25087500D01*
G75*
G02*
X90987500Y24850000I-237500J0D01*
G01*
G37*
G36*
G01*
X81737500Y31675000D02*
X81262500Y31675000D01*
G75*
G02*
X81025000Y31912500I0J237500D01*
G01*
X81025000Y32412500D01*
G75*
G02*
X81262500Y32650000I237500J0D01*
G01*
X81737500Y32650000D01*
G75*
G02*
X81975000Y32412500I0J-237500D01*
G01*
X81975000Y31912500D01*
G75*
G02*
X81737500Y31675000I-237500J0D01*
G01*
G37*
G36*
G01*
X81737500Y29850000D02*
X81262500Y29850000D01*
G75*
G02*
X81025000Y30087500I0J237500D01*
G01*
X81025000Y30587500D01*
G75*
G02*
X81262500Y30825000I237500J0D01*
G01*
X81737500Y30825000D01*
G75*
G02*
X81975000Y30587500I0J-237500D01*
G01*
X81975000Y30087500D01*
G75*
G02*
X81737500Y29850000I-237500J0D01*
G01*
G37*
G36*
G01*
X73825000Y38737500D02*
X73825000Y38262500D01*
G75*
G02*
X73587500Y38025000I-237500J0D01*
G01*
X73087500Y38025000D01*
G75*
G02*
X72850000Y38262500I0J237500D01*
G01*
X72850000Y38737500D01*
G75*
G02*
X73087500Y38975000I237500J0D01*
G01*
X73587500Y38975000D01*
G75*
G02*
X73825000Y38737500I0J-237500D01*
G01*
G37*
G36*
G01*
X75650000Y38737500D02*
X75650000Y38262500D01*
G75*
G02*
X75412500Y38025000I-237500J0D01*
G01*
X74912500Y38025000D01*
G75*
G02*
X74675000Y38262500I0J237500D01*
G01*
X74675000Y38737500D01*
G75*
G02*
X74912500Y38975000I237500J0D01*
G01*
X75412500Y38975000D01*
G75*
G02*
X75650000Y38737500I0J-237500D01*
G01*
G37*
G36*
G01*
X83737500Y38925000D02*
X83262500Y38925000D01*
G75*
G02*
X83025000Y39162500I0J237500D01*
G01*
X83025000Y39662500D01*
G75*
G02*
X83262500Y39900000I237500J0D01*
G01*
X83737500Y39900000D01*
G75*
G02*
X83975000Y39662500I0J-237500D01*
G01*
X83975000Y39162500D01*
G75*
G02*
X83737500Y38925000I-237500J0D01*
G01*
G37*
G36*
G01*
X83737500Y37100000D02*
X83262500Y37100000D01*
G75*
G02*
X83025000Y37337500I0J237500D01*
G01*
X83025000Y37837500D01*
G75*
G02*
X83262500Y38075000I237500J0D01*
G01*
X83737500Y38075000D01*
G75*
G02*
X83975000Y37837500I0J-237500D01*
G01*
X83975000Y37337500D01*
G75*
G02*
X83737500Y37100000I-237500J0D01*
G01*
G37*
G36*
G01*
X83262500Y29575000D02*
X83737500Y29575000D01*
G75*
G02*
X83975000Y29337500I0J-237500D01*
G01*
X83975000Y28837500D01*
G75*
G02*
X83737500Y28600000I-237500J0D01*
G01*
X83262500Y28600000D01*
G75*
G02*
X83025000Y28837500I0J237500D01*
G01*
X83025000Y29337500D01*
G75*
G02*
X83262500Y29575000I237500J0D01*
G01*
G37*
G36*
G01*
X83262500Y31400000D02*
X83737500Y31400000D01*
G75*
G02*
X83975000Y31162500I0J-237500D01*
G01*
X83975000Y30662500D01*
G75*
G02*
X83737500Y30425000I-237500J0D01*
G01*
X83262500Y30425000D01*
G75*
G02*
X83025000Y30662500I0J237500D01*
G01*
X83025000Y31162500D01*
G75*
G02*
X83262500Y31400000I237500J0D01*
G01*
G37*
G36*
G01*
X80175000Y39262500D02*
X80175000Y39737500D01*
G75*
G02*
X80412500Y39975000I237500J0D01*
G01*
X80912500Y39975000D01*
G75*
G02*
X81150000Y39737500I0J-237500D01*
G01*
X81150000Y39262500D01*
G75*
G02*
X80912500Y39025000I-237500J0D01*
G01*
X80412500Y39025000D01*
G75*
G02*
X80175000Y39262500I0J237500D01*
G01*
G37*
G36*
G01*
X78350000Y39262500D02*
X78350000Y39737500D01*
G75*
G02*
X78587500Y39975000I237500J0D01*
G01*
X79087500Y39975000D01*
G75*
G02*
X79325000Y39737500I0J-237500D01*
G01*
X79325000Y39262500D01*
G75*
G02*
X79087500Y39025000I-237500J0D01*
G01*
X78587500Y39025000D01*
G75*
G02*
X78350000Y39262500I0J237500D01*
G01*
G37*
G36*
G01*
X113200000Y21755000D02*
X113200000Y22055000D01*
G75*
G02*
X113350000Y22205000I150000J0D01*
G01*
X114800000Y22205000D01*
G75*
G02*
X114950000Y22055000I0J-150000D01*
G01*
X114950000Y21755000D01*
G75*
G02*
X114800000Y21605000I-150000J0D01*
G01*
X113350000Y21605000D01*
G75*
G02*
X113200000Y21755000I0J150000D01*
G01*
G37*
G36*
G01*
X113200000Y20485000D02*
X113200000Y20785000D01*
G75*
G02*
X113350000Y20935000I150000J0D01*
G01*
X114800000Y20935000D01*
G75*
G02*
X114950000Y20785000I0J-150000D01*
G01*
X114950000Y20485000D01*
G75*
G02*
X114800000Y20335000I-150000J0D01*
G01*
X113350000Y20335000D01*
G75*
G02*
X113200000Y20485000I0J150000D01*
G01*
G37*
G36*
G01*
X113200000Y19215000D02*
X113200000Y19515000D01*
G75*
G02*
X113350000Y19665000I150000J0D01*
G01*
X114800000Y19665000D01*
G75*
G02*
X114950000Y19515000I0J-150000D01*
G01*
X114950000Y19215000D01*
G75*
G02*
X114800000Y19065000I-150000J0D01*
G01*
X113350000Y19065000D01*
G75*
G02*
X113200000Y19215000I0J150000D01*
G01*
G37*
G36*
G01*
X113200000Y17945000D02*
X113200000Y18245000D01*
G75*
G02*
X113350000Y18395000I150000J0D01*
G01*
X114800000Y18395000D01*
G75*
G02*
X114950000Y18245000I0J-150000D01*
G01*
X114950000Y17945000D01*
G75*
G02*
X114800000Y17795000I-150000J0D01*
G01*
X113350000Y17795000D01*
G75*
G02*
X113200000Y17945000I0J150000D01*
G01*
G37*
G36*
G01*
X108050000Y17945000D02*
X108050000Y18245000D01*
G75*
G02*
X108200000Y18395000I150000J0D01*
G01*
X109650000Y18395000D01*
G75*
G02*
X109800000Y18245000I0J-150000D01*
G01*
X109800000Y17945000D01*
G75*
G02*
X109650000Y17795000I-150000J0D01*
G01*
X108200000Y17795000D01*
G75*
G02*
X108050000Y17945000I0J150000D01*
G01*
G37*
G36*
G01*
X108050000Y19215000D02*
X108050000Y19515000D01*
G75*
G02*
X108200000Y19665000I150000J0D01*
G01*
X109650000Y19665000D01*
G75*
G02*
X109800000Y19515000I0J-150000D01*
G01*
X109800000Y19215000D01*
G75*
G02*
X109650000Y19065000I-150000J0D01*
G01*
X108200000Y19065000D01*
G75*
G02*
X108050000Y19215000I0J150000D01*
G01*
G37*
G36*
G01*
X108050000Y20485000D02*
X108050000Y20785000D01*
G75*
G02*
X108200000Y20935000I150000J0D01*
G01*
X109650000Y20935000D01*
G75*
G02*
X109800000Y20785000I0J-150000D01*
G01*
X109800000Y20485000D01*
G75*
G02*
X109650000Y20335000I-150000J0D01*
G01*
X108200000Y20335000D01*
G75*
G02*
X108050000Y20485000I0J150000D01*
G01*
G37*
G36*
G01*
X108050000Y21755000D02*
X108050000Y22055000D01*
G75*
G02*
X108200000Y22205000I150000J0D01*
G01*
X109650000Y22205000D01*
G75*
G02*
X109800000Y22055000I0J-150000D01*
G01*
X109800000Y21755000D01*
G75*
G02*
X109650000Y21605000I-150000J0D01*
G01*
X108200000Y21605000D01*
G75*
G02*
X108050000Y21755000I0J150000D01*
G01*
G37*
D32*
X89750000Y41750000D03*
D33*
X89750000Y43020000D03*
X91020000Y41750000D03*
X91020000Y43020000D03*
X92290000Y41750000D03*
X92290000Y43020000D03*
X93560000Y41750000D03*
X93560000Y43020000D03*
X94830000Y41750000D03*
X94830000Y43020000D03*
X96100000Y41750000D03*
X96100000Y43020000D03*
X97370000Y41750000D03*
X97370000Y43020000D03*
D34*
X121400000Y20500000D03*
X118100000Y20500000D03*
G36*
G01*
X59400000Y20987500D02*
X59400000Y20512500D01*
G75*
G02*
X59162500Y20275000I-237500J0D01*
G01*
X58587500Y20275000D01*
G75*
G02*
X58350000Y20512500I0J237500D01*
G01*
X58350000Y20987500D01*
G75*
G02*
X58587500Y21225000I237500J0D01*
G01*
X59162500Y21225000D01*
G75*
G02*
X59400000Y20987500I0J-237500D01*
G01*
G37*
G36*
G01*
X61150000Y20987500D02*
X61150000Y20512500D01*
G75*
G02*
X60912500Y20275000I-237500J0D01*
G01*
X60337500Y20275000D01*
G75*
G02*
X60100000Y20512500I0J237500D01*
G01*
X60100000Y20987500D01*
G75*
G02*
X60337500Y21225000I237500J0D01*
G01*
X60912500Y21225000D01*
G75*
G02*
X61150000Y20987500I0J-237500D01*
G01*
G37*
G36*
G01*
X109487500Y38575000D02*
X109012500Y38575000D01*
G75*
G02*
X108775000Y38812500I0J237500D01*
G01*
X108775000Y39412500D01*
G75*
G02*
X109012500Y39650000I237500J0D01*
G01*
X109487500Y39650000D01*
G75*
G02*
X109725000Y39412500I0J-237500D01*
G01*
X109725000Y38812500D01*
G75*
G02*
X109487500Y38575000I-237500J0D01*
G01*
G37*
G36*
G01*
X109487500Y36850000D02*
X109012500Y36850000D01*
G75*
G02*
X108775000Y37087500I0J237500D01*
G01*
X108775000Y37687500D01*
G75*
G02*
X109012500Y37925000I237500J0D01*
G01*
X109487500Y37925000D01*
G75*
G02*
X109725000Y37687500I0J-237500D01*
G01*
X109725000Y37087500D01*
G75*
G02*
X109487500Y36850000I-237500J0D01*
G01*
G37*
G36*
G01*
X99675000Y32737500D02*
X99675000Y32262500D01*
G75*
G02*
X99437500Y32025000I-237500J0D01*
G01*
X98837500Y32025000D01*
G75*
G02*
X98600000Y32262500I0J237500D01*
G01*
X98600000Y32737500D01*
G75*
G02*
X98837500Y32975000I237500J0D01*
G01*
X99437500Y32975000D01*
G75*
G02*
X99675000Y32737500I0J-237500D01*
G01*
G37*
G36*
G01*
X101400000Y32737500D02*
X101400000Y32262500D01*
G75*
G02*
X101162500Y32025000I-237500J0D01*
G01*
X100562500Y32025000D01*
G75*
G02*
X100325000Y32262500I0J237500D01*
G01*
X100325000Y32737500D01*
G75*
G02*
X100562500Y32975000I237500J0D01*
G01*
X101162500Y32975000D01*
G75*
G02*
X101400000Y32737500I0J-237500D01*
G01*
G37*
G36*
G01*
X92262500Y25925000D02*
X92737500Y25925000D01*
G75*
G02*
X92975000Y25687500I0J-237500D01*
G01*
X92975000Y25087500D01*
G75*
G02*
X92737500Y24850000I-237500J0D01*
G01*
X92262500Y24850000D01*
G75*
G02*
X92025000Y25087500I0J237500D01*
G01*
X92025000Y25687500D01*
G75*
G02*
X92262500Y25925000I237500J0D01*
G01*
G37*
G36*
G01*
X92262500Y27650000D02*
X92737500Y27650000D01*
G75*
G02*
X92975000Y27412500I0J-237500D01*
G01*
X92975000Y26812500D01*
G75*
G02*
X92737500Y26575000I-237500J0D01*
G01*
X92262500Y26575000D01*
G75*
G02*
X92025000Y26812500I0J237500D01*
G01*
X92025000Y27412500D01*
G75*
G02*
X92262500Y27650000I237500J0D01*
G01*
G37*
G36*
G01*
X88762500Y25925000D02*
X89237500Y25925000D01*
G75*
G02*
X89475000Y25687500I0J-237500D01*
G01*
X89475000Y25087500D01*
G75*
G02*
X89237500Y24850000I-237500J0D01*
G01*
X88762500Y24850000D01*
G75*
G02*
X88525000Y25087500I0J237500D01*
G01*
X88525000Y25687500D01*
G75*
G02*
X88762500Y25925000I237500J0D01*
G01*
G37*
G36*
G01*
X88762500Y27650000D02*
X89237500Y27650000D01*
G75*
G02*
X89475000Y27412500I0J-237500D01*
G01*
X89475000Y26812500D01*
G75*
G02*
X89237500Y26575000I-237500J0D01*
G01*
X88762500Y26575000D01*
G75*
G02*
X88525000Y26812500I0J237500D01*
G01*
X88525000Y27412500D01*
G75*
G02*
X88762500Y27650000I237500J0D01*
G01*
G37*
G36*
G01*
X74325000Y32012500D02*
X74325000Y32487500D01*
G75*
G02*
X74562500Y32725000I237500J0D01*
G01*
X75162500Y32725000D01*
G75*
G02*
X75400000Y32487500I0J-237500D01*
G01*
X75400000Y32012500D01*
G75*
G02*
X75162500Y31775000I-237500J0D01*
G01*
X74562500Y31775000D01*
G75*
G02*
X74325000Y32012500I0J237500D01*
G01*
G37*
G36*
G01*
X72600000Y32012500D02*
X72600000Y32487500D01*
G75*
G02*
X72837500Y32725000I237500J0D01*
G01*
X73437500Y32725000D01*
G75*
G02*
X73675000Y32487500I0J-237500D01*
G01*
X73675000Y32012500D01*
G75*
G02*
X73437500Y31775000I-237500J0D01*
G01*
X72837500Y31775000D01*
G75*
G02*
X72600000Y32012500I0J237500D01*
G01*
G37*
G36*
G01*
X69275000Y33800000D02*
X70225000Y33800000D01*
G75*
G02*
X70475000Y33550000I0J-250000D01*
G01*
X70475000Y32875000D01*
G75*
G02*
X70225000Y32625000I-250000J0D01*
G01*
X69275000Y32625000D01*
G75*
G02*
X69025000Y32875000I0J250000D01*
G01*
X69025000Y33550000D01*
G75*
G02*
X69275000Y33800000I250000J0D01*
G01*
G37*
G36*
G01*
X69275000Y35875000D02*
X70225000Y35875000D01*
G75*
G02*
X70475000Y35625000I0J-250000D01*
G01*
X70475000Y34950000D01*
G75*
G02*
X70225000Y34700000I-250000J0D01*
G01*
X69275000Y34700000D01*
G75*
G02*
X69025000Y34950000I0J250000D01*
G01*
X69025000Y35625000D01*
G75*
G02*
X69275000Y35875000I250000J0D01*
G01*
G37*
G36*
G01*
X73800000Y34725000D02*
X73800000Y33775000D01*
G75*
G02*
X73550000Y33525000I-250000J0D01*
G01*
X72875000Y33525000D01*
G75*
G02*
X72625000Y33775000I0J250000D01*
G01*
X72625000Y34725000D01*
G75*
G02*
X72875000Y34975000I250000J0D01*
G01*
X73550000Y34975000D01*
G75*
G02*
X73800000Y34725000I0J-250000D01*
G01*
G37*
G36*
G01*
X75875000Y34725000D02*
X75875000Y33775000D01*
G75*
G02*
X75625000Y33525000I-250000J0D01*
G01*
X74950000Y33525000D01*
G75*
G02*
X74700000Y33775000I0J250000D01*
G01*
X74700000Y34725000D01*
G75*
G02*
X74950000Y34975000I250000J0D01*
G01*
X75625000Y34975000D01*
G75*
G02*
X75875000Y34725000I0J-250000D01*
G01*
G37*
G36*
G01*
X74700000Y36025000D02*
X74700000Y36975000D01*
G75*
G02*
X74950000Y37225000I250000J0D01*
G01*
X75625000Y37225000D01*
G75*
G02*
X75875000Y36975000I0J-250000D01*
G01*
X75875000Y36025000D01*
G75*
G02*
X75625000Y35775000I-250000J0D01*
G01*
X74950000Y35775000D01*
G75*
G02*
X74700000Y36025000I0J250000D01*
G01*
G37*
G36*
G01*
X72625000Y36025000D02*
X72625000Y36975000D01*
G75*
G02*
X72875000Y37225000I250000J0D01*
G01*
X73550000Y37225000D01*
G75*
G02*
X73800000Y36975000I0J-250000D01*
G01*
X73800000Y36025000D01*
G75*
G02*
X73550000Y35775000I-250000J0D01*
G01*
X72875000Y35775000D01*
G75*
G02*
X72625000Y36025000I0J250000D01*
G01*
G37*
G36*
G01*
X62725000Y34700000D02*
X61775000Y34700000D01*
G75*
G02*
X61525000Y34950000I0J250000D01*
G01*
X61525000Y35625000D01*
G75*
G02*
X61775000Y35875000I250000J0D01*
G01*
X62725000Y35875000D01*
G75*
G02*
X62975000Y35625000I0J-250000D01*
G01*
X62975000Y34950000D01*
G75*
G02*
X62725000Y34700000I-250000J0D01*
G01*
G37*
G36*
G01*
X62725000Y32625000D02*
X61775000Y32625000D01*
G75*
G02*
X61525000Y32875000I0J250000D01*
G01*
X61525000Y33550000D01*
G75*
G02*
X61775000Y33800000I250000J0D01*
G01*
X62725000Y33800000D01*
G75*
G02*
X62975000Y33550000I0J-250000D01*
G01*
X62975000Y32875000D01*
G75*
G02*
X62725000Y32625000I-250000J0D01*
G01*
G37*
M02*
