G04 #@! TF.GenerationSoftware,KiCad,Pcbnew,(5.1.9)-1*
G04 #@! TF.CreationDate,2021-04-20T09:49:11+02:00*
G04 #@! TF.ProjectId,loeti,6c6f6574-692e-46b6-9963-61645f706362,rev?*
G04 #@! TF.SameCoordinates,Original*
G04 #@! TF.FileFunction,Legend,Top*
G04 #@! TF.FilePolarity,Positive*
%FSLAX46Y46*%
G04 Gerber Fmt 4.6, Leading zero omitted, Abs format (unit mm)*
G04 Created by KiCad (PCBNEW (5.1.9)-1) date 2021-04-20 09:49:11*
%MOMM*%
%LPD*%
G01*
G04 APERTURE LIST*
%ADD10C,0.100000*%
%ADD11C,0.150000*%
%ADD12C,0.120000*%
%ADD13C,0.300000*%
%ADD14C,0.500000*%
%ADD15R,1.450000X0.600000*%
%ADD16R,1.450000X0.300000*%
%ADD17O,2.100000X1.000000*%
%ADD18C,0.650000*%
%ADD19O,1.600000X1.000000*%
%ADD20R,2.000000X0.650000*%
%ADD21R,0.450000X1.500000*%
%ADD22C,2.200000*%
%ADD23R,1.900000X0.800000*%
%ADD24O,3.200000X1.600000*%
%ADD25R,2.500000X2.430000*%
%ADD26R,0.650000X1.560000*%
%ADD27R,0.900000X2.300000*%
%ADD28R,1.500000X0.450000*%
%ADD29C,1.800000*%
%ADD30R,1.800000X1.800000*%
%ADD31R,1.500000X0.400000*%
%ADD32R,1.450000X0.450000*%
%ADD33R,2.700000X2.700000*%
%ADD34R,1.000000X1.000000*%
%ADD35O,1.000000X1.000000*%
%ADD36R,0.900000X1.200000*%
G04 APERTURE END LIST*
D10*
X98750000Y33797619D02*
X98750000Y33559523D01*
X98988095Y33654761D02*
X98750000Y33559523D01*
X98511904Y33654761D01*
X98892857Y33369047D02*
X98750000Y33559523D01*
X98607142Y33369047D01*
X97000000Y20297619D02*
X97000000Y20059523D01*
X97238095Y20154761D02*
X97000000Y20059523D01*
X96761904Y20154761D01*
X97142857Y19869047D02*
X97000000Y20059523D01*
X96857142Y19869047D01*
D11*
X107250000Y40000000D02*
X108250000Y40000000D01*
D12*
X52350000Y33380000D02*
X52350000Y23980000D01*
X58150000Y23980000D02*
X56150000Y23980000D01*
X54250000Y23980000D02*
X52350000Y23980000D01*
X58150000Y33380000D02*
X56150000Y33380000D01*
X54250000Y33380000D02*
X52350000Y33380000D01*
X102180000Y39510000D02*
X99750000Y39510000D01*
X102200000Y39500000D02*
X102200000Y38500000D01*
X102200000Y36450000D02*
X100350000Y36450000D01*
X102200000Y37500000D02*
X102200000Y36450000D01*
X92004724Y22772500D02*
X91495276Y22772500D01*
X92004724Y21727500D02*
X91495276Y21727500D01*
X88727500Y21504724D02*
X88727500Y20995276D01*
X89772500Y21504724D02*
X89772500Y20995276D01*
X82340000Y26175000D02*
X82340000Y24765000D01*
X84660000Y24765000D02*
X84660000Y27500000D01*
X84670000Y24765000D02*
X84000000Y24765000D01*
X83000000Y24765000D02*
X82340000Y24765000D01*
X87660000Y24825000D02*
X87660000Y26235000D01*
X85340000Y26235000D02*
X85340000Y23500000D01*
X85330000Y26235000D02*
X86000000Y26235000D01*
X87000000Y26235000D02*
X87660000Y26235000D01*
X73124969Y29325338D02*
X69683510Y24410426D01*
X81500000Y24000000D02*
G75*
G03*
X81500000Y24000000I-6000000J0D01*
G01*
X104760000Y24670000D02*
X103300000Y24670000D01*
X104760000Y27830000D02*
X101600000Y27830000D01*
X104760000Y27830000D02*
X104760000Y26900000D01*
X104760000Y24670000D02*
X104760000Y25600000D01*
D13*
X123720000Y24180000D02*
G75*
G03*
X123720000Y24180000I-150000J0D01*
G01*
D12*
X99260000Y24670000D02*
X97800000Y24670000D01*
X99260000Y27830000D02*
X96100000Y27830000D01*
X99260000Y27830000D02*
X99260000Y26900000D01*
X99260000Y24670000D02*
X99260000Y25600000D01*
X103740000Y31330000D02*
X105200000Y31330000D01*
X103740000Y28170000D02*
X106900000Y28170000D01*
X103740000Y28170000D02*
X103740000Y29100000D01*
X103740000Y31330000D02*
X103740000Y30400000D01*
X82890000Y35150000D02*
X82890000Y32200000D01*
X86110000Y33350000D02*
X86110000Y35150000D01*
X68360000Y33190000D02*
X68130000Y33190000D01*
X63640000Y33190000D02*
X63870000Y33190000D01*
X63640000Y33190000D02*
X63640000Y35910000D01*
X63640000Y35910000D02*
X64950000Y35910000D01*
X63870000Y32050000D02*
X63870000Y33190000D01*
X68360000Y35910000D02*
X68360000Y33190000D01*
X67050000Y35910000D02*
X68360000Y35910000D01*
X122660000Y36825000D02*
X122660000Y38235000D01*
X120340000Y38235000D02*
X120340000Y35500000D01*
X120330000Y38235000D02*
X121000000Y38235000D01*
X122000000Y38235000D02*
X122660000Y38235000D01*
X113840000Y38175000D02*
X113840000Y36765000D01*
X116160000Y36765000D02*
X116160000Y39500000D01*
X116170000Y36765000D02*
X115500000Y36765000D01*
X114500000Y36765000D02*
X113840000Y36765000D01*
X78925000Y32410000D02*
X77515000Y32410000D01*
X77515000Y30090000D02*
X80250000Y30090000D01*
X77515000Y30080000D02*
X77515000Y30750000D01*
X77515000Y31750000D02*
X77515000Y32410000D01*
X99745276Y29977500D02*
X100254724Y29977500D01*
X99745276Y31022500D02*
X100254724Y31022500D01*
X99853733Y28240000D02*
X100146267Y28240000D01*
X99853733Y29260000D02*
X100146267Y29260000D01*
X81760000Y47940000D02*
X81760000Y44520000D01*
X79240000Y47940000D02*
X79240000Y44520000D01*
X81760000Y47940000D02*
X81580000Y47940000D01*
X79420000Y47940000D02*
X79240000Y47940000D01*
X81760000Y44520000D02*
X81595000Y44520000D01*
X79405000Y44520000D02*
X79240000Y44520000D01*
X81760000Y47820000D02*
X81580000Y47820000D01*
X79420000Y47820000D02*
X79240000Y47820000D01*
X81760000Y47700000D02*
X81580000Y47700000D01*
X79420000Y47700000D02*
X79240000Y47700000D01*
X85010000Y47940000D02*
X85010000Y44520000D01*
X82490000Y47940000D02*
X82490000Y44520000D01*
X85010000Y47940000D02*
X84830000Y47940000D01*
X82670000Y47940000D02*
X82490000Y47940000D01*
X85010000Y44520000D02*
X84845000Y44520000D01*
X82655000Y44520000D02*
X82490000Y44520000D01*
X85010000Y47820000D02*
X84830000Y47820000D01*
X82670000Y47820000D02*
X82490000Y47820000D01*
X85010000Y47700000D02*
X84830000Y47700000D01*
X82670000Y47700000D02*
X82490000Y47700000D01*
X88260000Y47940000D02*
X88260000Y44520000D01*
X85740000Y47940000D02*
X85740000Y44520000D01*
X88260000Y47940000D02*
X88080000Y47940000D01*
X85920000Y47940000D02*
X85740000Y47940000D01*
X88260000Y44520000D02*
X88095000Y44520000D01*
X85905000Y44520000D02*
X85740000Y44520000D01*
X88260000Y47820000D02*
X88080000Y47820000D01*
X85920000Y47820000D02*
X85740000Y47820000D01*
X88260000Y47700000D02*
X88080000Y47700000D01*
X85920000Y47700000D02*
X85740000Y47700000D01*
X89690000Y30640000D02*
X89690000Y29325000D01*
X89390000Y30640000D02*
X89690000Y30640000D01*
X89390000Y30940000D02*
X89390000Y30640000D01*
X89390000Y37860000D02*
X89690000Y37860000D01*
X89390000Y37560000D02*
X89390000Y37860000D01*
X96610000Y30640000D02*
X96310000Y30640000D01*
X96610000Y30940000D02*
X96610000Y30640000D01*
X96610000Y37860000D02*
X96310000Y37860000D01*
X96610000Y37560000D02*
X96610000Y37860000D01*
X100800000Y33590000D02*
X102200000Y33590000D01*
X102200000Y35910000D02*
X100300000Y35910000D01*
X102500000Y24120000D02*
X99500000Y24120000D01*
X103500000Y20880000D02*
X101500000Y20880000D01*
X107745276Y23227500D02*
X108254724Y23227500D01*
X107745276Y24272500D02*
X108254724Y24272500D01*
X98522500Y22245276D02*
X98522500Y22754724D01*
X97477500Y22245276D02*
X97477500Y22754724D01*
X108522500Y29582776D02*
X108522500Y30092224D01*
X107477500Y29582776D02*
X107477500Y30092224D01*
X113272500Y38504724D02*
X113272500Y37995276D01*
X112227500Y38504724D02*
X112227500Y37995276D01*
X103995276Y40227500D02*
X104504724Y40227500D01*
X103995276Y41272500D02*
X104504724Y41272500D01*
X118772500Y37995276D02*
X118772500Y38504724D01*
X117727500Y37995276D02*
X117727500Y38504724D01*
X110245276Y33727500D02*
X110754724Y33727500D01*
X110245276Y34772500D02*
X110754724Y34772500D01*
X82977500Y42254724D02*
X82977500Y41745276D01*
X84022500Y42254724D02*
X84022500Y41745276D01*
X84727500Y42254724D02*
X84727500Y41745276D01*
X85772500Y42254724D02*
X85772500Y41745276D01*
X87522500Y42254724D02*
X87522500Y41745276D01*
X86477500Y42254724D02*
X86477500Y41745276D01*
X107283767Y33740000D02*
X106991233Y33740000D01*
X107283767Y34760000D02*
X106991233Y34760000D01*
X87491250Y19793750D02*
X86703750Y19793750D01*
X87097500Y20187500D02*
X87097500Y19400000D01*
X82904437Y19160000D02*
X81840000Y18095563D01*
X87595563Y19160000D02*
X88660000Y18095563D01*
X87595563Y19160000D02*
X86310000Y19160000D01*
X82904437Y19160000D02*
X84190000Y19160000D01*
X81840000Y18095563D02*
X81840000Y12340000D01*
X88660000Y18095563D02*
X88660000Y12340000D01*
X88660000Y12340000D02*
X86310000Y12340000D01*
X81840000Y12340000D02*
X84190000Y12340000D01*
X104890000Y38400000D02*
X104890000Y35950000D01*
X108110000Y36600000D02*
X108110000Y38400000D01*
X95241250Y19793750D02*
X94453750Y19793750D01*
X94847500Y20187500D02*
X94847500Y19400000D01*
X90654437Y19160000D02*
X89590000Y18095563D01*
X95345563Y19160000D02*
X96410000Y18095563D01*
X95345563Y19160000D02*
X94060000Y19160000D01*
X90654437Y19160000D02*
X91940000Y19160000D01*
X89590000Y18095563D02*
X89590000Y12340000D01*
X96410000Y18095563D02*
X96410000Y12340000D01*
X96410000Y12340000D02*
X94060000Y12340000D01*
X89590000Y12340000D02*
X91940000Y12340000D01*
X118103733Y35760000D02*
X118396267Y35760000D01*
X118103733Y34740000D02*
X118396267Y34740000D01*
X77640000Y34115000D02*
X77640000Y33640000D01*
X81860000Y37860000D02*
X81385000Y37860000D01*
X81860000Y37385000D02*
X81860000Y37860000D01*
X81860000Y33640000D02*
X81385000Y33640000D01*
X81860000Y34115000D02*
X81860000Y33640000D01*
X77640000Y37860000D02*
X78115000Y37860000D01*
X77640000Y37385000D02*
X77640000Y37860000D01*
X101222936Y20110000D02*
X104277064Y20110000D01*
X101222936Y17390000D02*
X104277064Y17390000D01*
X110477500Y37995276D02*
X110477500Y38504724D01*
X111522500Y37995276D02*
X111522500Y38504724D01*
X94772500Y26504724D02*
X94772500Y25995276D01*
X93727500Y26504724D02*
X93727500Y25995276D01*
X103245276Y33022500D02*
X103754724Y33022500D01*
X103245276Y31977500D02*
X103754724Y31977500D01*
X84977500Y29745276D02*
X84977500Y30254724D01*
X86022500Y29745276D02*
X86022500Y30254724D01*
X90227500Y25995276D02*
X90227500Y26504724D01*
X91272500Y25995276D02*
X91272500Y26504724D01*
X80977500Y30995276D02*
X80977500Y31504724D01*
X82022500Y30995276D02*
X82022500Y31504724D01*
X74504724Y37977500D02*
X73995276Y37977500D01*
X74504724Y39022500D02*
X73995276Y39022500D01*
X82977500Y38245276D02*
X82977500Y38754724D01*
X84022500Y38245276D02*
X84022500Y38754724D01*
X84022500Y30254724D02*
X84022500Y29745276D01*
X82977500Y30254724D02*
X82977500Y29745276D01*
X79495276Y40022500D02*
X80004724Y40022500D01*
X79495276Y38977500D02*
X80004724Y38977500D01*
X111500000Y17440000D02*
X113450000Y17440000D01*
X111500000Y17440000D02*
X109550000Y17440000D01*
X111500000Y22560000D02*
X113450000Y22560000D01*
X111500000Y22560000D02*
X108050000Y22560000D01*
X88990000Y40990000D02*
X88990000Y41750000D01*
X89750000Y40990000D02*
X88990000Y40990000D01*
X97630000Y48580000D02*
X97630000Y44580000D01*
X97110000Y48580000D02*
X97630000Y48580000D01*
X97110000Y44580000D02*
X97110000Y48580000D01*
X96719677Y43460000D02*
X96750323Y43460000D01*
X96735000Y43460000D02*
X96735000Y44580000D01*
X96360000Y48580000D02*
X96360000Y44580000D01*
X95840000Y48580000D02*
X96360000Y48580000D01*
X95840000Y44580000D02*
X95840000Y48580000D01*
X95449677Y43460000D02*
X95480323Y43460000D01*
X95465000Y43460000D02*
X95465000Y44580000D01*
X95090000Y48580000D02*
X95090000Y44580000D01*
X94570000Y48580000D02*
X95090000Y48580000D01*
X94570000Y44580000D02*
X94570000Y48580000D01*
X94179677Y43460000D02*
X94210323Y43460000D01*
X94195000Y43460000D02*
X94195000Y44580000D01*
X93820000Y48580000D02*
X93820000Y44580000D01*
X93300000Y48580000D02*
X93820000Y48580000D01*
X93300000Y44580000D02*
X93300000Y48580000D01*
X92909677Y43460000D02*
X92940323Y43460000D01*
X92925000Y43460000D02*
X92925000Y44580000D01*
X92550000Y48580000D02*
X92550000Y44580000D01*
X92030000Y48580000D02*
X92550000Y48580000D01*
X92030000Y44580000D02*
X92030000Y48580000D01*
X91639677Y43460000D02*
X91670323Y43460000D01*
X91655000Y43460000D02*
X91655000Y44580000D01*
X91280000Y48580000D02*
X91280000Y44580000D01*
X90760000Y48580000D02*
X91280000Y48580000D01*
X90760000Y44580000D02*
X90760000Y48580000D01*
X90369677Y43460000D02*
X90400323Y43460000D01*
X90385000Y43460000D02*
X90385000Y44580000D01*
X89910000Y44580000D02*
X89910000Y48580000D01*
X89790000Y44580000D02*
X89790000Y48580000D01*
X89670000Y44580000D02*
X89670000Y48580000D01*
X89550000Y44580000D02*
X89550000Y48580000D01*
X90010000Y48580000D02*
X90010000Y44580000D01*
X89490000Y48580000D02*
X90010000Y48580000D01*
X89490000Y44580000D02*
X89490000Y48580000D01*
X98065000Y43460000D02*
X97989677Y43460000D01*
X98065000Y44580000D02*
X98065000Y43460000D01*
X89055000Y44580000D02*
X98065000Y44580000D01*
X89055000Y43460000D02*
X89055000Y44580000D01*
X89130323Y43460000D02*
X89055000Y43460000D01*
X117500000Y21500000D02*
X117500000Y19500000D01*
X117500000Y19500000D02*
X121400000Y19500000D01*
X117500000Y21500000D02*
X121400000Y21500000D01*
X58950000Y20015000D02*
X61410000Y20015000D01*
X61410000Y20015000D02*
X61410000Y21485000D01*
X61410000Y21485000D02*
X58950000Y21485000D01*
X108740000Y38103733D02*
X108740000Y38396267D01*
X109760000Y38103733D02*
X109760000Y38396267D01*
X100146267Y31990000D02*
X99853733Y31990000D01*
X100146267Y33010000D02*
X99853733Y33010000D01*
X93010000Y26396267D02*
X93010000Y26103733D01*
X91990000Y26396267D02*
X91990000Y26103733D01*
X89510000Y26396267D02*
X89510000Y26103733D01*
X88490000Y26396267D02*
X88490000Y26103733D01*
X73853733Y32760000D02*
X74146267Y32760000D01*
X73853733Y31740000D02*
X74146267Y31740000D01*
X70485000Y34511252D02*
X70485000Y33988748D01*
X69015000Y34511252D02*
X69015000Y33988748D01*
X74511252Y33515000D02*
X73988748Y33515000D01*
X74511252Y34985000D02*
X73988748Y34985000D01*
X73988748Y37235000D02*
X74511252Y37235000D01*
X73988748Y35765000D02*
X74511252Y35765000D01*
X61515000Y33988748D02*
X61515000Y34511252D01*
X62985000Y33988748D02*
X62985000Y34511252D01*
D11*
X55952380Y28346666D02*
X56666666Y28346666D01*
X56809523Y28299047D01*
X56904761Y28203809D01*
X56952380Y28060952D01*
X56952380Y27965714D01*
X56952380Y29346666D02*
X56952380Y28775238D01*
X56952380Y29060952D02*
X55952380Y29060952D01*
X56095238Y28965714D01*
X56190476Y28870476D01*
X56238095Y28775238D01*
D10*
X101589285Y37339285D02*
X100839285Y37339285D01*
X100839285Y37517857D01*
X100875000Y37625000D01*
X100946428Y37696428D01*
X101017857Y37732142D01*
X101160714Y37767857D01*
X101267857Y37767857D01*
X101410714Y37732142D01*
X101482142Y37696428D01*
X101553571Y37625000D01*
X101589285Y37517857D01*
X101589285Y37339285D01*
X101589285Y38482142D02*
X101589285Y38053571D01*
X101589285Y38267857D02*
X100839285Y38267857D01*
X100946428Y38196428D01*
X101017857Y38125000D01*
X101053571Y38053571D01*
X101589285Y39196428D02*
X101589285Y38767857D01*
X101589285Y38982142D02*
X100839285Y38982142D01*
X100946428Y38910714D01*
X101017857Y38839285D01*
X101053571Y38767857D01*
X94125000Y21910714D02*
X93875000Y22267857D01*
X93696428Y21910714D02*
X93696428Y22660714D01*
X93982142Y22660714D01*
X94053571Y22625000D01*
X94089285Y22589285D01*
X94125000Y22517857D01*
X94125000Y22410714D01*
X94089285Y22339285D01*
X94053571Y22303571D01*
X93982142Y22267857D01*
X93696428Y22267857D01*
X94375000Y22660714D02*
X94875000Y22660714D01*
X94553571Y21910714D01*
X88339285Y21125000D02*
X87982142Y20875000D01*
X88339285Y20696428D02*
X87589285Y20696428D01*
X87589285Y20982142D01*
X87625000Y21053571D01*
X87660714Y21089285D01*
X87732142Y21125000D01*
X87839285Y21125000D01*
X87910714Y21089285D01*
X87946428Y21053571D01*
X87982142Y20982142D01*
X87982142Y20696428D01*
X87589285Y21767857D02*
X87589285Y21625000D01*
X87625000Y21553571D01*
X87660714Y21517857D01*
X87767857Y21446428D01*
X87910714Y21410714D01*
X88196428Y21410714D01*
X88267857Y21446428D01*
X88303571Y21482142D01*
X88339285Y21553571D01*
X88339285Y21696428D01*
X88303571Y21767857D01*
X88267857Y21803571D01*
X88196428Y21839285D01*
X88017857Y21839285D01*
X87946428Y21803571D01*
X87910714Y21767857D01*
X87875000Y21696428D01*
X87875000Y21553571D01*
X87910714Y21482142D01*
X87946428Y21446428D01*
X88017857Y21410714D01*
X82946428Y25160714D02*
X82946428Y25910714D01*
X83125000Y25910714D01*
X83232142Y25875000D01*
X83303571Y25803571D01*
X83339285Y25732142D01*
X83375000Y25589285D01*
X83375000Y25482142D01*
X83339285Y25339285D01*
X83303571Y25267857D01*
X83232142Y25196428D01*
X83125000Y25160714D01*
X82946428Y25160714D01*
X84017857Y25660714D02*
X84017857Y25160714D01*
X83839285Y25946428D02*
X83660714Y25410714D01*
X84125000Y25410714D01*
X85946428Y25160714D02*
X85946428Y25910714D01*
X86125000Y25910714D01*
X86232142Y25875000D01*
X86303571Y25803571D01*
X86339285Y25732142D01*
X86375000Y25589285D01*
X86375000Y25482142D01*
X86339285Y25339285D01*
X86303571Y25267857D01*
X86232142Y25196428D01*
X86125000Y25160714D01*
X85946428Y25160714D01*
X86625000Y25910714D02*
X87089285Y25910714D01*
X86839285Y25625000D01*
X86946428Y25625000D01*
X87017857Y25589285D01*
X87053571Y25553571D01*
X87089285Y25482142D01*
X87089285Y25303571D01*
X87053571Y25232142D01*
X87017857Y25196428D01*
X86946428Y25160714D01*
X86732142Y25160714D01*
X86660714Y25196428D01*
X86625000Y25232142D01*
X74564067Y24284755D02*
X74631348Y24194045D01*
X74777626Y24091620D01*
X74856621Y24079906D01*
X74906362Y24088677D01*
X74976587Y24126703D01*
X75017557Y24185213D01*
X75029271Y24264209D01*
X75020500Y24313949D01*
X74982474Y24384175D01*
X74885937Y24495370D01*
X74847911Y24565595D01*
X74839141Y24615335D01*
X74850855Y24694331D01*
X74891825Y24752842D01*
X74962050Y24790868D01*
X75011790Y24799638D01*
X75090786Y24787924D01*
X75237063Y24685500D01*
X75304345Y24594789D01*
X75529618Y24480651D02*
X75245712Y23763862D01*
X75670007Y24120754D01*
X75479756Y23599983D01*
X76056215Y24111923D01*
X76181886Y23108346D02*
X75830821Y23354165D01*
X76006354Y23231256D02*
X76436536Y23845620D01*
X76316571Y23798823D01*
X76217090Y23781282D01*
X76138094Y23792996D01*
X104910714Y29678571D02*
X104875000Y29607142D01*
X104803571Y29535714D01*
X104696428Y29428571D01*
X104660714Y29357142D01*
X104660714Y29285714D01*
X104839285Y29321428D02*
X104803571Y29250000D01*
X104732142Y29178571D01*
X104589285Y29142857D01*
X104339285Y29142857D01*
X104196428Y29178571D01*
X104125000Y29250000D01*
X104089285Y29321428D01*
X104089285Y29464285D01*
X104125000Y29535714D01*
X104196428Y29607142D01*
X104339285Y29642857D01*
X104589285Y29642857D01*
X104732142Y29607142D01*
X104803571Y29535714D01*
X104839285Y29464285D01*
X104839285Y29321428D01*
X104089285Y29892857D02*
X104089285Y30357142D01*
X104375000Y30107142D01*
X104375000Y30214285D01*
X104410714Y30285714D01*
X104446428Y30321428D01*
X104517857Y30357142D01*
X104696428Y30357142D01*
X104767857Y30321428D01*
X104803571Y30285714D01*
X104839285Y30214285D01*
X104839285Y30000000D01*
X104803571Y29928571D01*
X104767857Y29892857D01*
X110500000Y25160714D02*
X110500000Y24625000D01*
X110464285Y24517857D01*
X110392857Y24446428D01*
X110285714Y24410714D01*
X110214285Y24410714D01*
X110821428Y25089285D02*
X110857142Y25125000D01*
X110928571Y25160714D01*
X111107142Y25160714D01*
X111178571Y25125000D01*
X111214285Y25089285D01*
X111250000Y25017857D01*
X111250000Y24946428D01*
X111214285Y24839285D01*
X110785714Y24410714D01*
X111250000Y24410714D01*
X98910714Y26178571D02*
X98875000Y26107142D01*
X98803571Y26035714D01*
X98696428Y25928571D01*
X98660714Y25857142D01*
X98660714Y25785714D01*
X98839285Y25821428D02*
X98803571Y25750000D01*
X98732142Y25678571D01*
X98589285Y25642857D01*
X98339285Y25642857D01*
X98196428Y25678571D01*
X98125000Y25750000D01*
X98089285Y25821428D01*
X98089285Y25964285D01*
X98125000Y26035714D01*
X98196428Y26107142D01*
X98339285Y26142857D01*
X98589285Y26142857D01*
X98732142Y26107142D01*
X98803571Y26035714D01*
X98839285Y25964285D01*
X98839285Y25821428D01*
X98160714Y26428571D02*
X98125000Y26464285D01*
X98089285Y26535714D01*
X98089285Y26714285D01*
X98125000Y26785714D01*
X98160714Y26821428D01*
X98232142Y26857142D01*
X98303571Y26857142D01*
X98410714Y26821428D01*
X98839285Y26392857D01*
X98839285Y26857142D01*
X104410714Y26178571D02*
X104375000Y26107142D01*
X104303571Y26035714D01*
X104196428Y25928571D01*
X104160714Y25857142D01*
X104160714Y25785714D01*
X104339285Y25821428D02*
X104303571Y25750000D01*
X104232142Y25678571D01*
X104089285Y25642857D01*
X103839285Y25642857D01*
X103696428Y25678571D01*
X103625000Y25750000D01*
X103589285Y25821428D01*
X103589285Y25964285D01*
X103625000Y26035714D01*
X103696428Y26107142D01*
X103839285Y26142857D01*
X104089285Y26142857D01*
X104232142Y26107142D01*
X104303571Y26035714D01*
X104339285Y25964285D01*
X104339285Y25821428D01*
X104339285Y26857142D02*
X104339285Y26428571D01*
X104339285Y26642857D02*
X103589285Y26642857D01*
X103696428Y26571428D01*
X103767857Y26500000D01*
X103803571Y26428571D01*
X86589285Y33178571D02*
X87196428Y33178571D01*
X87267857Y33214285D01*
X87303571Y33250000D01*
X87339285Y33321428D01*
X87339285Y33464285D01*
X87303571Y33535714D01*
X87267857Y33571428D01*
X87196428Y33607142D01*
X86589285Y33607142D01*
X86589285Y34285714D02*
X86589285Y34142857D01*
X86625000Y34071428D01*
X86660714Y34035714D01*
X86767857Y33964285D01*
X86910714Y33928571D01*
X87196428Y33928571D01*
X87267857Y33964285D01*
X87303571Y34000000D01*
X87339285Y34071428D01*
X87339285Y34214285D01*
X87303571Y34285714D01*
X87267857Y34321428D01*
X87196428Y34357142D01*
X87017857Y34357142D01*
X86946428Y34321428D01*
X86910714Y34285714D01*
X86875000Y34214285D01*
X86875000Y34071428D01*
X86910714Y34000000D01*
X86946428Y33964285D01*
X87017857Y33928571D01*
X64089285Y33678571D02*
X64696428Y33678571D01*
X64767857Y33714285D01*
X64803571Y33750000D01*
X64839285Y33821428D01*
X64839285Y33964285D01*
X64803571Y34035714D01*
X64767857Y34071428D01*
X64696428Y34107142D01*
X64089285Y34107142D01*
X64160714Y34428571D02*
X64125000Y34464285D01*
X64089285Y34535714D01*
X64089285Y34714285D01*
X64125000Y34785714D01*
X64160714Y34821428D01*
X64232142Y34857142D01*
X64303571Y34857142D01*
X64410714Y34821428D01*
X64839285Y34392857D01*
X64839285Y34857142D01*
X120946428Y37160714D02*
X120946428Y37910714D01*
X121125000Y37910714D01*
X121232142Y37875000D01*
X121303571Y37803571D01*
X121339285Y37732142D01*
X121375000Y37589285D01*
X121375000Y37482142D01*
X121339285Y37339285D01*
X121303571Y37267857D01*
X121232142Y37196428D01*
X121125000Y37160714D01*
X120946428Y37160714D01*
X121732142Y37160714D02*
X121875000Y37160714D01*
X121946428Y37196428D01*
X121982142Y37232142D01*
X122053571Y37339285D01*
X122089285Y37482142D01*
X122089285Y37767857D01*
X122053571Y37839285D01*
X122017857Y37875000D01*
X121946428Y37910714D01*
X121803571Y37910714D01*
X121732142Y37875000D01*
X121696428Y37839285D01*
X121660714Y37767857D01*
X121660714Y37589285D01*
X121696428Y37517857D01*
X121732142Y37482142D01*
X121803571Y37446428D01*
X121946428Y37446428D01*
X122017857Y37482142D01*
X122053571Y37517857D01*
X122089285Y37589285D01*
X114446428Y37160714D02*
X114446428Y37910714D01*
X114625000Y37910714D01*
X114732142Y37875000D01*
X114803571Y37803571D01*
X114839285Y37732142D01*
X114875000Y37589285D01*
X114875000Y37482142D01*
X114839285Y37339285D01*
X114803571Y37267857D01*
X114732142Y37196428D01*
X114625000Y37160714D01*
X114446428Y37160714D01*
X115303571Y37589285D02*
X115232142Y37625000D01*
X115196428Y37660714D01*
X115160714Y37732142D01*
X115160714Y37767857D01*
X115196428Y37839285D01*
X115232142Y37875000D01*
X115303571Y37910714D01*
X115446428Y37910714D01*
X115517857Y37875000D01*
X115553571Y37839285D01*
X115589285Y37767857D01*
X115589285Y37732142D01*
X115553571Y37660714D01*
X115517857Y37625000D01*
X115446428Y37589285D01*
X115303571Y37589285D01*
X115232142Y37553571D01*
X115196428Y37517857D01*
X115160714Y37446428D01*
X115160714Y37303571D01*
X115196428Y37232142D01*
X115232142Y37196428D01*
X115303571Y37160714D01*
X115446428Y37160714D01*
X115517857Y37196428D01*
X115553571Y37232142D01*
X115589285Y37303571D01*
X115589285Y37446428D01*
X115553571Y37517857D01*
X115517857Y37553571D01*
X115446428Y37589285D01*
X78589285Y30696428D02*
X77839285Y30696428D01*
X77839285Y30875000D01*
X77875000Y30982142D01*
X77946428Y31053571D01*
X78017857Y31089285D01*
X78160714Y31125000D01*
X78267857Y31125000D01*
X78410714Y31089285D01*
X78482142Y31053571D01*
X78553571Y30982142D01*
X78589285Y30875000D01*
X78589285Y30696428D01*
X78589285Y31839285D02*
X78589285Y31410714D01*
X78589285Y31625000D02*
X77839285Y31625000D01*
X77946428Y31553571D01*
X78017857Y31482142D01*
X78053571Y31410714D01*
X97267857Y17660714D02*
X97017857Y18017857D01*
X96839285Y17660714D02*
X96839285Y18410714D01*
X97125000Y18410714D01*
X97196428Y18375000D01*
X97232142Y18339285D01*
X97267857Y18267857D01*
X97267857Y18160714D01*
X97232142Y18089285D01*
X97196428Y18053571D01*
X97125000Y18017857D01*
X96839285Y18017857D01*
X97982142Y17660714D02*
X97553571Y17660714D01*
X97767857Y17660714D02*
X97767857Y18410714D01*
X97696428Y18303571D01*
X97625000Y18232142D01*
X97553571Y18196428D01*
X98232142Y18410714D02*
X98696428Y18410714D01*
X98446428Y18125000D01*
X98553571Y18125000D01*
X98625000Y18089285D01*
X98660714Y18053571D01*
X98696428Y17982142D01*
X98696428Y17803571D01*
X98660714Y17732142D01*
X98625000Y17696428D01*
X98553571Y17660714D01*
X98339285Y17660714D01*
X98267857Y17696428D01*
X98232142Y17732142D01*
X97267857Y16482142D02*
X97232142Y16446428D01*
X97125000Y16410714D01*
X97053571Y16410714D01*
X96946428Y16446428D01*
X96875000Y16517857D01*
X96839285Y16589285D01*
X96803571Y16732142D01*
X96803571Y16839285D01*
X96839285Y16982142D01*
X96875000Y17053571D01*
X96946428Y17125000D01*
X97053571Y17160714D01*
X97125000Y17160714D01*
X97232142Y17125000D01*
X97267857Y17089285D01*
X97982142Y16410714D02*
X97553571Y16410714D01*
X97767857Y16410714D02*
X97767857Y17160714D01*
X97696428Y17053571D01*
X97625000Y16982142D01*
X97553571Y16946428D01*
X98696428Y16410714D02*
X98267857Y16410714D01*
X98482142Y16410714D02*
X98482142Y17160714D01*
X98410714Y17053571D01*
X98339285Y16982142D01*
X98267857Y16946428D01*
X76089285Y46446428D02*
X75339285Y46446428D01*
X75339285Y46625000D01*
X75375000Y46732142D01*
X75446428Y46803571D01*
X75517857Y46839285D01*
X75660714Y46875000D01*
X75767857Y46875000D01*
X75910714Y46839285D01*
X75982142Y46803571D01*
X76053571Y46732142D01*
X76089285Y46625000D01*
X76089285Y46446428D01*
X75339285Y47125000D02*
X75339285Y47625000D01*
X76089285Y47303571D01*
X77339285Y46446428D02*
X76589285Y46446428D01*
X76589285Y46625000D01*
X76625000Y46732142D01*
X76696428Y46803571D01*
X76767857Y46839285D01*
X76910714Y46875000D01*
X77017857Y46875000D01*
X77160714Y46839285D01*
X77232142Y46803571D01*
X77303571Y46732142D01*
X77339285Y46625000D01*
X77339285Y46446428D01*
X76589285Y47517857D02*
X76589285Y47375000D01*
X76625000Y47303571D01*
X76660714Y47267857D01*
X76767857Y47196428D01*
X76910714Y47160714D01*
X77196428Y47160714D01*
X77267857Y47196428D01*
X77303571Y47232142D01*
X77339285Y47303571D01*
X77339285Y47446428D01*
X77303571Y47517857D01*
X77267857Y47553571D01*
X77196428Y47589285D01*
X77017857Y47589285D01*
X76946428Y47553571D01*
X76910714Y47517857D01*
X76875000Y47446428D01*
X76875000Y47303571D01*
X76910714Y47232142D01*
X76946428Y47196428D01*
X77017857Y47160714D01*
X78589285Y46446428D02*
X77839285Y46446428D01*
X77839285Y46625000D01*
X77875000Y46732142D01*
X77946428Y46803571D01*
X78017857Y46839285D01*
X78160714Y46875000D01*
X78267857Y46875000D01*
X78410714Y46839285D01*
X78482142Y46803571D01*
X78553571Y46732142D01*
X78589285Y46625000D01*
X78589285Y46446428D01*
X77839285Y47553571D02*
X77839285Y47196428D01*
X78196428Y47160714D01*
X78160714Y47196428D01*
X78125000Y47267857D01*
X78125000Y47446428D01*
X78160714Y47517857D01*
X78196428Y47553571D01*
X78267857Y47589285D01*
X78446428Y47589285D01*
X78517857Y47553571D01*
X78553571Y47517857D01*
X78589285Y47446428D01*
X78589285Y47267857D01*
X78553571Y47196428D01*
X78517857Y47160714D01*
X90428571Y32660714D02*
X90428571Y32053571D01*
X90464285Y31982142D01*
X90500000Y31946428D01*
X90571428Y31910714D01*
X90714285Y31910714D01*
X90785714Y31946428D01*
X90821428Y31982142D01*
X90857142Y32053571D01*
X90857142Y32660714D01*
X91142857Y32660714D02*
X91607142Y32660714D01*
X91357142Y32375000D01*
X91464285Y32375000D01*
X91535714Y32339285D01*
X91571428Y32303571D01*
X91607142Y32232142D01*
X91607142Y32053571D01*
X91571428Y31982142D01*
X91535714Y31946428D01*
X91464285Y31910714D01*
X91250000Y31910714D01*
X91178571Y31946428D01*
X91142857Y31982142D01*
X101089285Y34178571D02*
X101696428Y34178571D01*
X101767857Y34214285D01*
X101803571Y34250000D01*
X101839285Y34321428D01*
X101839285Y34464285D01*
X101803571Y34535714D01*
X101767857Y34571428D01*
X101696428Y34607142D01*
X101089285Y34607142D01*
X101339285Y35285714D02*
X101839285Y35285714D01*
X101053571Y35107142D02*
X101589285Y34928571D01*
X101589285Y35392857D01*
X101928571Y22910714D02*
X101928571Y22303571D01*
X101964285Y22232142D01*
X102000000Y22196428D01*
X102071428Y22160714D01*
X102214285Y22160714D01*
X102285714Y22196428D01*
X102321428Y22232142D01*
X102357142Y22303571D01*
X102357142Y22910714D01*
X103071428Y22910714D02*
X102714285Y22910714D01*
X102678571Y22553571D01*
X102714285Y22589285D01*
X102785714Y22625000D01*
X102964285Y22625000D01*
X103035714Y22589285D01*
X103071428Y22553571D01*
X103107142Y22482142D01*
X103107142Y22303571D01*
X103071428Y22232142D01*
X103035714Y22196428D01*
X102964285Y22160714D01*
X102785714Y22160714D01*
X102714285Y22196428D01*
X102678571Y22232142D01*
X107517857Y24840714D02*
X107267857Y25197857D01*
X107089285Y24840714D02*
X107089285Y25590714D01*
X107375000Y25590714D01*
X107446428Y25555000D01*
X107482142Y25519285D01*
X107517857Y25447857D01*
X107517857Y25340714D01*
X107482142Y25269285D01*
X107446428Y25233571D01*
X107375000Y25197857D01*
X107089285Y25197857D01*
X107803571Y25519285D02*
X107839285Y25555000D01*
X107910714Y25590714D01*
X108089285Y25590714D01*
X108160714Y25555000D01*
X108196428Y25519285D01*
X108232142Y25447857D01*
X108232142Y25376428D01*
X108196428Y25269285D01*
X107767857Y24840714D01*
X108232142Y24840714D01*
X108696428Y25590714D02*
X108767857Y25590714D01*
X108839285Y25555000D01*
X108875000Y25519285D01*
X108910714Y25447857D01*
X108946428Y25305000D01*
X108946428Y25126428D01*
X108910714Y24983571D01*
X108875000Y24912142D01*
X108839285Y24876428D01*
X108767857Y24840714D01*
X108696428Y24840714D01*
X108625000Y24876428D01*
X108589285Y24912142D01*
X108553571Y24983571D01*
X108517857Y25126428D01*
X108517857Y25305000D01*
X108553571Y25447857D01*
X108589285Y25519285D01*
X108625000Y25555000D01*
X108696428Y25590714D01*
X96839285Y22267857D02*
X96482142Y22017857D01*
X96839285Y21839285D02*
X96089285Y21839285D01*
X96089285Y22125000D01*
X96125000Y22196428D01*
X96160714Y22232142D01*
X96232142Y22267857D01*
X96339285Y22267857D01*
X96410714Y22232142D01*
X96446428Y22196428D01*
X96482142Y22125000D01*
X96482142Y21839285D01*
X96839285Y22982142D02*
X96839285Y22553571D01*
X96839285Y22767857D02*
X96089285Y22767857D01*
X96196428Y22696428D01*
X96267857Y22625000D01*
X96303571Y22553571D01*
X96339285Y23625000D02*
X96839285Y23625000D01*
X96053571Y23446428D02*
X96589285Y23267857D01*
X96589285Y23732142D01*
X109589285Y29267857D02*
X109232142Y29017857D01*
X109589285Y28839285D02*
X108839285Y28839285D01*
X108839285Y29125000D01*
X108875000Y29196428D01*
X108910714Y29232142D01*
X108982142Y29267857D01*
X109089285Y29267857D01*
X109160714Y29232142D01*
X109196428Y29196428D01*
X109232142Y29125000D01*
X109232142Y28839285D01*
X108910714Y29553571D02*
X108875000Y29589285D01*
X108839285Y29660714D01*
X108839285Y29839285D01*
X108875000Y29910714D01*
X108910714Y29946428D01*
X108982142Y29982142D01*
X109053571Y29982142D01*
X109160714Y29946428D01*
X109589285Y29517857D01*
X109589285Y29982142D01*
X109089285Y30625000D02*
X109589285Y30625000D01*
X108803571Y30446428D02*
X109339285Y30267857D01*
X109339285Y30732142D01*
X112517857Y35660714D02*
X112267857Y36017857D01*
X112089285Y35660714D02*
X112089285Y36410714D01*
X112375000Y36410714D01*
X112446428Y36375000D01*
X112482142Y36339285D01*
X112517857Y36267857D01*
X112517857Y36160714D01*
X112482142Y36089285D01*
X112446428Y36053571D01*
X112375000Y36017857D01*
X112089285Y36017857D01*
X112803571Y36339285D02*
X112839285Y36375000D01*
X112910714Y36410714D01*
X113089285Y36410714D01*
X113160714Y36375000D01*
X113196428Y36339285D01*
X113232142Y36267857D01*
X113232142Y36196428D01*
X113196428Y36089285D01*
X112767857Y35660714D01*
X113232142Y35660714D01*
X113517857Y36339285D02*
X113553571Y36375000D01*
X113625000Y36410714D01*
X113803571Y36410714D01*
X113875000Y36375000D01*
X113910714Y36339285D01*
X113946428Y36267857D01*
X113946428Y36196428D01*
X113910714Y36089285D01*
X113482142Y35660714D01*
X113946428Y35660714D01*
X103517857Y41660714D02*
X103267857Y42017857D01*
X103089285Y41660714D02*
X103089285Y42410714D01*
X103375000Y42410714D01*
X103446428Y42375000D01*
X103482142Y42339285D01*
X103517857Y42267857D01*
X103517857Y42160714D01*
X103482142Y42089285D01*
X103446428Y42053571D01*
X103375000Y42017857D01*
X103089285Y42017857D01*
X103803571Y42339285D02*
X103839285Y42375000D01*
X103910714Y42410714D01*
X104089285Y42410714D01*
X104160714Y42375000D01*
X104196428Y42339285D01*
X104232142Y42267857D01*
X104232142Y42196428D01*
X104196428Y42089285D01*
X103767857Y41660714D01*
X104232142Y41660714D01*
X104482142Y42410714D02*
X104946428Y42410714D01*
X104696428Y42125000D01*
X104803571Y42125000D01*
X104875000Y42089285D01*
X104910714Y42053571D01*
X104946428Y41982142D01*
X104946428Y41803571D01*
X104910714Y41732142D01*
X104875000Y41696428D01*
X104803571Y41660714D01*
X104589285Y41660714D01*
X104517857Y41696428D01*
X104482142Y41732142D01*
X117339285Y37767857D02*
X116982142Y37517857D01*
X117339285Y37339285D02*
X116589285Y37339285D01*
X116589285Y37625000D01*
X116625000Y37696428D01*
X116660714Y37732142D01*
X116732142Y37767857D01*
X116839285Y37767857D01*
X116910714Y37732142D01*
X116946428Y37696428D01*
X116982142Y37625000D01*
X116982142Y37339285D01*
X117339285Y38482142D02*
X117339285Y38053571D01*
X117339285Y38267857D02*
X116589285Y38267857D01*
X116696428Y38196428D01*
X116767857Y38125000D01*
X116803571Y38053571D01*
X116589285Y38732142D02*
X116589285Y39232142D01*
X117339285Y38910714D01*
X110267857Y32660714D02*
X110017857Y33017857D01*
X109839285Y32660714D02*
X109839285Y33410714D01*
X110125000Y33410714D01*
X110196428Y33375000D01*
X110232142Y33339285D01*
X110267857Y33267857D01*
X110267857Y33160714D01*
X110232142Y33089285D01*
X110196428Y33053571D01*
X110125000Y33017857D01*
X109839285Y33017857D01*
X110982142Y32660714D02*
X110553571Y32660714D01*
X110767857Y32660714D02*
X110767857Y33410714D01*
X110696428Y33303571D01*
X110625000Y33232142D01*
X110553571Y33196428D01*
X111625000Y33410714D02*
X111482142Y33410714D01*
X111410714Y33375000D01*
X111375000Y33339285D01*
X111303571Y33232142D01*
X111267857Y33089285D01*
X111267857Y32803571D01*
X111303571Y32732142D01*
X111339285Y32696428D01*
X111410714Y32660714D01*
X111553571Y32660714D01*
X111625000Y32696428D01*
X111660714Y32732142D01*
X111696428Y32803571D01*
X111696428Y32982142D01*
X111660714Y33053571D01*
X111625000Y33089285D01*
X111553571Y33125000D01*
X111410714Y33125000D01*
X111339285Y33089285D01*
X111303571Y33053571D01*
X111267857Y32982142D01*
X85339285Y38517857D02*
X84982142Y38267857D01*
X85339285Y38089285D02*
X84589285Y38089285D01*
X84589285Y38375000D01*
X84625000Y38446428D01*
X84660714Y38482142D01*
X84732142Y38517857D01*
X84839285Y38517857D01*
X84910714Y38482142D01*
X84946428Y38446428D01*
X84982142Y38375000D01*
X84982142Y38089285D01*
X85339285Y39232142D02*
X85339285Y38803571D01*
X85339285Y39017857D02*
X84589285Y39017857D01*
X84696428Y38946428D01*
X84767857Y38875000D01*
X84803571Y38803571D01*
X84660714Y39517857D02*
X84625000Y39553571D01*
X84589285Y39625000D01*
X84589285Y39803571D01*
X84625000Y39875000D01*
X84660714Y39910714D01*
X84732142Y39946428D01*
X84803571Y39946428D01*
X84910714Y39910714D01*
X85339285Y39482142D01*
X85339285Y39946428D01*
X86589285Y38517857D02*
X86232142Y38267857D01*
X86589285Y38089285D02*
X85839285Y38089285D01*
X85839285Y38375000D01*
X85875000Y38446428D01*
X85910714Y38482142D01*
X85982142Y38517857D01*
X86089285Y38517857D01*
X86160714Y38482142D01*
X86196428Y38446428D01*
X86232142Y38375000D01*
X86232142Y38089285D01*
X86589285Y39232142D02*
X86589285Y38803571D01*
X86589285Y39017857D02*
X85839285Y39017857D01*
X85946428Y38946428D01*
X86017857Y38875000D01*
X86053571Y38803571D01*
X86589285Y39946428D02*
X86589285Y39517857D01*
X86589285Y39732142D02*
X85839285Y39732142D01*
X85946428Y39660714D01*
X86017857Y39589285D01*
X86053571Y39517857D01*
X87839285Y38517857D02*
X87482142Y38267857D01*
X87839285Y38089285D02*
X87089285Y38089285D01*
X87089285Y38375000D01*
X87125000Y38446428D01*
X87160714Y38482142D01*
X87232142Y38517857D01*
X87339285Y38517857D01*
X87410714Y38482142D01*
X87446428Y38446428D01*
X87482142Y38375000D01*
X87482142Y38089285D01*
X87839285Y39232142D02*
X87839285Y38803571D01*
X87839285Y39017857D02*
X87089285Y39017857D01*
X87196428Y38946428D01*
X87267857Y38875000D01*
X87303571Y38803571D01*
X87089285Y39696428D02*
X87089285Y39767857D01*
X87125000Y39839285D01*
X87160714Y39875000D01*
X87232142Y39910714D01*
X87375000Y39946428D01*
X87553571Y39946428D01*
X87696428Y39910714D01*
X87767857Y39875000D01*
X87803571Y39839285D01*
X87839285Y39767857D01*
X87839285Y39696428D01*
X87803571Y39625000D01*
X87767857Y39589285D01*
X87696428Y39553571D01*
X87553571Y39517857D01*
X87375000Y39517857D01*
X87232142Y39553571D01*
X87160714Y39589285D01*
X87125000Y39625000D01*
X87089285Y39696428D01*
X105017857Y33767857D02*
X105053571Y33732142D01*
X105089285Y33625000D01*
X105089285Y33553571D01*
X105053571Y33446428D01*
X104982142Y33375000D01*
X104910714Y33339285D01*
X104767857Y33303571D01*
X104660714Y33303571D01*
X104517857Y33339285D01*
X104446428Y33375000D01*
X104375000Y33446428D01*
X104339285Y33553571D01*
X104339285Y33625000D01*
X104375000Y33732142D01*
X104410714Y33767857D01*
X105089285Y34482142D02*
X105089285Y34053571D01*
X105089285Y34267857D02*
X104339285Y34267857D01*
X104446428Y34196428D01*
X104517857Y34125000D01*
X104553571Y34053571D01*
X104589285Y35125000D02*
X105089285Y35125000D01*
X104303571Y34946428D02*
X104839285Y34767857D01*
X104839285Y35232142D01*
X85375000Y15482142D02*
X85339285Y15446428D01*
X85232142Y15410714D01*
X85160714Y15410714D01*
X85053571Y15446428D01*
X84982142Y15517857D01*
X84946428Y15589285D01*
X84910714Y15732142D01*
X84910714Y15839285D01*
X84946428Y15982142D01*
X84982142Y16053571D01*
X85053571Y16125000D01*
X85160714Y16160714D01*
X85232142Y16160714D01*
X85339285Y16125000D01*
X85375000Y16089285D01*
X86089285Y15410714D02*
X85660714Y15410714D01*
X85875000Y15410714D02*
X85875000Y16160714D01*
X85803571Y16053571D01*
X85732142Y15982142D01*
X85660714Y15946428D01*
X105928571Y37910714D02*
X105928571Y37303571D01*
X105964285Y37232142D01*
X106000000Y37196428D01*
X106071428Y37160714D01*
X106214285Y37160714D01*
X106285714Y37196428D01*
X106321428Y37232142D01*
X106357142Y37303571D01*
X106357142Y37910714D01*
X106642857Y37910714D02*
X107142857Y37910714D01*
X106821428Y37160714D01*
X93125000Y15482142D02*
X93089285Y15446428D01*
X92982142Y15410714D01*
X92910714Y15410714D01*
X92803571Y15446428D01*
X92732142Y15517857D01*
X92696428Y15589285D01*
X92660714Y15732142D01*
X92660714Y15839285D01*
X92696428Y15982142D01*
X92732142Y16053571D01*
X92803571Y16125000D01*
X92910714Y16160714D01*
X92982142Y16160714D01*
X93089285Y16125000D01*
X93125000Y16089285D01*
X93410714Y16089285D02*
X93446428Y16125000D01*
X93517857Y16160714D01*
X93696428Y16160714D01*
X93767857Y16125000D01*
X93803571Y16089285D01*
X93839285Y16017857D01*
X93839285Y15946428D01*
X93803571Y15839285D01*
X93375000Y15410714D01*
X93839285Y15410714D01*
X116267857Y35017857D02*
X116303571Y34982142D01*
X116339285Y34875000D01*
X116339285Y34803571D01*
X116303571Y34696428D01*
X116232142Y34625000D01*
X116160714Y34589285D01*
X116017857Y34553571D01*
X115910714Y34553571D01*
X115767857Y34589285D01*
X115696428Y34625000D01*
X115625000Y34696428D01*
X115589285Y34803571D01*
X115589285Y34875000D01*
X115625000Y34982142D01*
X115660714Y35017857D01*
X116339285Y35732142D02*
X116339285Y35303571D01*
X116339285Y35517857D02*
X115589285Y35517857D01*
X115696428Y35446428D01*
X115767857Y35375000D01*
X115803571Y35303571D01*
X115660714Y36017857D02*
X115625000Y36053571D01*
X115589285Y36125000D01*
X115589285Y36303571D01*
X115625000Y36375000D01*
X115660714Y36410714D01*
X115732142Y36446428D01*
X115803571Y36446428D01*
X115910714Y36410714D01*
X116339285Y35982142D01*
X116339285Y36446428D01*
X76428571Y39160714D02*
X76428571Y38553571D01*
X76464285Y38482142D01*
X76500000Y38446428D01*
X76571428Y38410714D01*
X76714285Y38410714D01*
X76785714Y38446428D01*
X76821428Y38482142D01*
X76857142Y38553571D01*
X76857142Y39160714D01*
X77607142Y38410714D02*
X77178571Y38410714D01*
X77392857Y38410714D02*
X77392857Y39160714D01*
X77321428Y39053571D01*
X77250000Y38982142D01*
X77178571Y38946428D01*
X102267857Y18410714D02*
X102017857Y18767857D01*
X101839285Y18410714D02*
X101839285Y19160714D01*
X102125000Y19160714D01*
X102196428Y19125000D01*
X102232142Y19089285D01*
X102267857Y19017857D01*
X102267857Y18910714D01*
X102232142Y18839285D01*
X102196428Y18803571D01*
X102125000Y18767857D01*
X101839285Y18767857D01*
X102982142Y18410714D02*
X102553571Y18410714D01*
X102767857Y18410714D02*
X102767857Y19160714D01*
X102696428Y19053571D01*
X102625000Y18982142D01*
X102553571Y18946428D01*
X103339285Y18410714D02*
X103482142Y18410714D01*
X103553571Y18446428D01*
X103589285Y18482142D01*
X103660714Y18589285D01*
X103696428Y18732142D01*
X103696428Y19017857D01*
X103660714Y19089285D01*
X103625000Y19125000D01*
X103553571Y19160714D01*
X103410714Y19160714D01*
X103339285Y19125000D01*
X103303571Y19089285D01*
X103267857Y19017857D01*
X103267857Y18839285D01*
X103303571Y18767857D01*
X103339285Y18732142D01*
X103410714Y18696428D01*
X103553571Y18696428D01*
X103625000Y18732142D01*
X103660714Y18767857D01*
X103696428Y18839285D01*
X110517857Y35160714D02*
X110267857Y35517857D01*
X110089285Y35160714D02*
X110089285Y35910714D01*
X110375000Y35910714D01*
X110446428Y35875000D01*
X110482142Y35839285D01*
X110517857Y35767857D01*
X110517857Y35660714D01*
X110482142Y35589285D01*
X110446428Y35553571D01*
X110375000Y35517857D01*
X110089285Y35517857D01*
X110803571Y35839285D02*
X110839285Y35875000D01*
X110910714Y35910714D01*
X111089285Y35910714D01*
X111160714Y35875000D01*
X111196428Y35839285D01*
X111232142Y35767857D01*
X111232142Y35696428D01*
X111196428Y35589285D01*
X110767857Y35160714D01*
X111232142Y35160714D01*
X111946428Y35160714D02*
X111517857Y35160714D01*
X111732142Y35160714D02*
X111732142Y35910714D01*
X111660714Y35803571D01*
X111589285Y35732142D01*
X111517857Y35696428D01*
X95839285Y25767857D02*
X95482142Y25517857D01*
X95839285Y25339285D02*
X95089285Y25339285D01*
X95089285Y25625000D01*
X95125000Y25696428D01*
X95160714Y25732142D01*
X95232142Y25767857D01*
X95339285Y25767857D01*
X95410714Y25732142D01*
X95446428Y25696428D01*
X95482142Y25625000D01*
X95482142Y25339285D01*
X95839285Y26482142D02*
X95839285Y26053571D01*
X95839285Y26267857D02*
X95089285Y26267857D01*
X95196428Y26196428D01*
X95267857Y26125000D01*
X95303571Y26053571D01*
X95410714Y26910714D02*
X95375000Y26839285D01*
X95339285Y26803571D01*
X95267857Y26767857D01*
X95232142Y26767857D01*
X95160714Y26803571D01*
X95125000Y26839285D01*
X95089285Y26910714D01*
X95089285Y27053571D01*
X95125000Y27125000D01*
X95160714Y27160714D01*
X95232142Y27196428D01*
X95267857Y27196428D01*
X95339285Y27160714D01*
X95375000Y27125000D01*
X95410714Y27053571D01*
X95410714Y26910714D01*
X95446428Y26839285D01*
X95482142Y26803571D01*
X95553571Y26767857D01*
X95696428Y26767857D01*
X95767857Y26803571D01*
X95803571Y26839285D01*
X95839285Y26910714D01*
X95839285Y27053571D01*
X95803571Y27125000D01*
X95767857Y27160714D01*
X95696428Y27196428D01*
X95553571Y27196428D01*
X95482142Y27160714D01*
X95446428Y27125000D01*
X95410714Y27053571D01*
X105767857Y32160714D02*
X105517857Y32517857D01*
X105339285Y32160714D02*
X105339285Y32910714D01*
X105625000Y32910714D01*
X105696428Y32875000D01*
X105732142Y32839285D01*
X105767857Y32767857D01*
X105767857Y32660714D01*
X105732142Y32589285D01*
X105696428Y32553571D01*
X105625000Y32517857D01*
X105339285Y32517857D01*
X106482142Y32160714D02*
X106053571Y32160714D01*
X106267857Y32160714D02*
X106267857Y32910714D01*
X106196428Y32803571D01*
X106125000Y32732142D01*
X106053571Y32696428D01*
X107160714Y32910714D02*
X106803571Y32910714D01*
X106767857Y32553571D01*
X106803571Y32589285D01*
X106875000Y32625000D01*
X107053571Y32625000D01*
X107125000Y32589285D01*
X107160714Y32553571D01*
X107196428Y32482142D01*
X107196428Y32303571D01*
X107160714Y32232142D01*
X107125000Y32196428D01*
X107053571Y32160714D01*
X106875000Y32160714D01*
X106803571Y32196428D01*
X106767857Y32232142D01*
X87339285Y30375000D02*
X86982142Y30125000D01*
X87339285Y29946428D02*
X86589285Y29946428D01*
X86589285Y30232142D01*
X86625000Y30303571D01*
X86660714Y30339285D01*
X86732142Y30375000D01*
X86839285Y30375000D01*
X86910714Y30339285D01*
X86946428Y30303571D01*
X86982142Y30232142D01*
X86982142Y29946428D01*
X86910714Y30803571D02*
X86875000Y30732142D01*
X86839285Y30696428D01*
X86767857Y30660714D01*
X86732142Y30660714D01*
X86660714Y30696428D01*
X86625000Y30732142D01*
X86589285Y30803571D01*
X86589285Y30946428D01*
X86625000Y31017857D01*
X86660714Y31053571D01*
X86732142Y31089285D01*
X86767857Y31089285D01*
X86839285Y31053571D01*
X86875000Y31017857D01*
X86910714Y30946428D01*
X86910714Y30803571D01*
X86946428Y30732142D01*
X86982142Y30696428D01*
X87053571Y30660714D01*
X87196428Y30660714D01*
X87267857Y30696428D01*
X87303571Y30732142D01*
X87339285Y30803571D01*
X87339285Y30946428D01*
X87303571Y31017857D01*
X87267857Y31053571D01*
X87196428Y31089285D01*
X87053571Y31089285D01*
X86982142Y31053571D01*
X86946428Y31017857D01*
X86910714Y30946428D01*
X91089285Y23625000D02*
X90732142Y23375000D01*
X91089285Y23196428D02*
X90339285Y23196428D01*
X90339285Y23482142D01*
X90375000Y23553571D01*
X90410714Y23589285D01*
X90482142Y23625000D01*
X90589285Y23625000D01*
X90660714Y23589285D01*
X90696428Y23553571D01*
X90732142Y23482142D01*
X90732142Y23196428D01*
X91089285Y23982142D02*
X91089285Y24125000D01*
X91053571Y24196428D01*
X91017857Y24232142D01*
X90910714Y24303571D01*
X90767857Y24339285D01*
X90482142Y24339285D01*
X90410714Y24303571D01*
X90375000Y24267857D01*
X90339285Y24196428D01*
X90339285Y24053571D01*
X90375000Y23982142D01*
X90410714Y23946428D01*
X90482142Y23910714D01*
X90660714Y23910714D01*
X90732142Y23946428D01*
X90767857Y23982142D01*
X90803571Y24053571D01*
X90803571Y24196428D01*
X90767857Y24267857D01*
X90732142Y24303571D01*
X90660714Y24339285D01*
X80839285Y28875000D02*
X80482142Y28625000D01*
X80839285Y28446428D02*
X80089285Y28446428D01*
X80089285Y28732142D01*
X80125000Y28803571D01*
X80160714Y28839285D01*
X80232142Y28875000D01*
X80339285Y28875000D01*
X80410714Y28839285D01*
X80446428Y28803571D01*
X80482142Y28732142D01*
X80482142Y28446428D01*
X80089285Y29553571D02*
X80089285Y29196428D01*
X80446428Y29160714D01*
X80410714Y29196428D01*
X80375000Y29267857D01*
X80375000Y29446428D01*
X80410714Y29517857D01*
X80446428Y29553571D01*
X80517857Y29589285D01*
X80696428Y29589285D01*
X80767857Y29553571D01*
X80803571Y29517857D01*
X80839285Y29446428D01*
X80839285Y29267857D01*
X80803571Y29196428D01*
X80767857Y29160714D01*
X74125000Y39410714D02*
X73875000Y39767857D01*
X73696428Y39410714D02*
X73696428Y40160714D01*
X73982142Y40160714D01*
X74053571Y40125000D01*
X74089285Y40089285D01*
X74125000Y40017857D01*
X74125000Y39910714D01*
X74089285Y39839285D01*
X74053571Y39803571D01*
X73982142Y39767857D01*
X73696428Y39767857D01*
X74767857Y39910714D02*
X74767857Y39410714D01*
X74589285Y40196428D02*
X74410714Y39660714D01*
X74875000Y39660714D01*
X82589285Y39125000D02*
X82232142Y38875000D01*
X82589285Y38696428D02*
X81839285Y38696428D01*
X81839285Y38982142D01*
X81875000Y39053571D01*
X81910714Y39089285D01*
X81982142Y39125000D01*
X82089285Y39125000D01*
X82160714Y39089285D01*
X82196428Y39053571D01*
X82232142Y38982142D01*
X82232142Y38696428D01*
X81839285Y39375000D02*
X81839285Y39839285D01*
X82125000Y39589285D01*
X82125000Y39696428D01*
X82160714Y39767857D01*
X82196428Y39803571D01*
X82267857Y39839285D01*
X82446428Y39839285D01*
X82517857Y39803571D01*
X82553571Y39767857D01*
X82589285Y39696428D01*
X82589285Y39482142D01*
X82553571Y39410714D01*
X82517857Y39375000D01*
X82589285Y28875000D02*
X82232142Y28625000D01*
X82589285Y28446428D02*
X81839285Y28446428D01*
X81839285Y28732142D01*
X81875000Y28803571D01*
X81910714Y28839285D01*
X81982142Y28875000D01*
X82089285Y28875000D01*
X82160714Y28839285D01*
X82196428Y28803571D01*
X82232142Y28732142D01*
X82232142Y28446428D01*
X81910714Y29160714D02*
X81875000Y29196428D01*
X81839285Y29267857D01*
X81839285Y29446428D01*
X81875000Y29517857D01*
X81910714Y29553571D01*
X81982142Y29589285D01*
X82053571Y29589285D01*
X82160714Y29553571D01*
X82589285Y29125000D01*
X82589285Y29589285D01*
X79625000Y40410714D02*
X79375000Y40767857D01*
X79196428Y40410714D02*
X79196428Y41160714D01*
X79482142Y41160714D01*
X79553571Y41125000D01*
X79589285Y41089285D01*
X79625000Y41017857D01*
X79625000Y40910714D01*
X79589285Y40839285D01*
X79553571Y40803571D01*
X79482142Y40767857D01*
X79196428Y40767857D01*
X80339285Y40410714D02*
X79910714Y40410714D01*
X80125000Y40410714D02*
X80125000Y41160714D01*
X80053571Y41053571D01*
X79982142Y40982142D01*
X79910714Y40946428D01*
X111428571Y19839285D02*
X111357142Y19875000D01*
X111285714Y19946428D01*
X111178571Y20053571D01*
X111107142Y20089285D01*
X111035714Y20089285D01*
X111071428Y19910714D02*
X111000000Y19946428D01*
X110928571Y20017857D01*
X110892857Y20160714D01*
X110892857Y20410714D01*
X110928571Y20553571D01*
X111000000Y20625000D01*
X111071428Y20660714D01*
X111214285Y20660714D01*
X111285714Y20625000D01*
X111357142Y20553571D01*
X111392857Y20410714D01*
X111392857Y20160714D01*
X111357142Y20017857D01*
X111285714Y19946428D01*
X111214285Y19910714D01*
X111071428Y19910714D01*
X112035714Y20410714D02*
X112035714Y19910714D01*
X111857142Y20696428D02*
X111678571Y20160714D01*
X112142857Y20160714D01*
X98589285Y47750000D02*
X99125000Y47750000D01*
X99232142Y47714285D01*
X99303571Y47642857D01*
X99339285Y47535714D01*
X99339285Y47464285D01*
X98589285Y48035714D02*
X98589285Y48500000D01*
X98875000Y48250000D01*
X98875000Y48357142D01*
X98910714Y48428571D01*
X98946428Y48464285D01*
X99017857Y48500000D01*
X99196428Y48500000D01*
X99267857Y48464285D01*
X99303571Y48428571D01*
X99339285Y48357142D01*
X99339285Y48142857D01*
X99303571Y48071428D01*
X99267857Y48035714D01*
X118839285Y20160714D02*
X118839285Y20910714D01*
X119017857Y20910714D01*
X119125000Y20875000D01*
X119196428Y20803571D01*
X119232142Y20732142D01*
X119267857Y20589285D01*
X119267857Y20482142D01*
X119232142Y20339285D01*
X119196428Y20267857D01*
X119125000Y20196428D01*
X119017857Y20160714D01*
X118839285Y20160714D01*
X119982142Y20160714D02*
X119553571Y20160714D01*
X119767857Y20160714D02*
X119767857Y20910714D01*
X119696428Y20803571D01*
X119625000Y20732142D01*
X119553571Y20696428D01*
X120446428Y20910714D02*
X120517857Y20910714D01*
X120589285Y20875000D01*
X120625000Y20839285D01*
X120660714Y20767857D01*
X120696428Y20625000D01*
X120696428Y20446428D01*
X120660714Y20303571D01*
X120625000Y20232142D01*
X120589285Y20196428D01*
X120517857Y20160714D01*
X120446428Y20160714D01*
X120375000Y20196428D01*
X120339285Y20232142D01*
X120303571Y20303571D01*
X120267857Y20446428D01*
X120267857Y20625000D01*
X120303571Y20767857D01*
X120339285Y20839285D01*
X120375000Y20875000D01*
X120446428Y20910714D01*
X61696428Y20410714D02*
X61696428Y21160714D01*
X61875000Y21160714D01*
X61982142Y21125000D01*
X62053571Y21053571D01*
X62089285Y20982142D01*
X62125000Y20839285D01*
X62125000Y20732142D01*
X62089285Y20589285D01*
X62053571Y20517857D01*
X61982142Y20446428D01*
X61875000Y20410714D01*
X61696428Y20410714D01*
X62410714Y21089285D02*
X62446428Y21125000D01*
X62517857Y21160714D01*
X62696428Y21160714D01*
X62767857Y21125000D01*
X62803571Y21089285D01*
X62839285Y21017857D01*
X62839285Y20946428D01*
X62803571Y20839285D01*
X62375000Y20410714D01*
X62839285Y20410714D01*
X108517857Y35732142D02*
X108482142Y35696428D01*
X108375000Y35660714D01*
X108303571Y35660714D01*
X108196428Y35696428D01*
X108125000Y35767857D01*
X108089285Y35839285D01*
X108053571Y35982142D01*
X108053571Y36089285D01*
X108089285Y36232142D01*
X108125000Y36303571D01*
X108196428Y36375000D01*
X108303571Y36410714D01*
X108375000Y36410714D01*
X108482142Y36375000D01*
X108517857Y36339285D01*
X109232142Y35660714D02*
X108803571Y35660714D01*
X109017857Y35660714D02*
X109017857Y36410714D01*
X108946428Y36303571D01*
X108875000Y36232142D01*
X108803571Y36196428D01*
X109482142Y36410714D02*
X109946428Y36410714D01*
X109696428Y36125000D01*
X109803571Y36125000D01*
X109875000Y36089285D01*
X109910714Y36053571D01*
X109946428Y35982142D01*
X109946428Y35803571D01*
X109910714Y35732142D01*
X109875000Y35696428D01*
X109803571Y35660714D01*
X109589285Y35660714D01*
X109517857Y35696428D01*
X109482142Y35732142D01*
X97267857Y18982142D02*
X97232142Y18946428D01*
X97125000Y18910714D01*
X97053571Y18910714D01*
X96946428Y18946428D01*
X96875000Y19017857D01*
X96839285Y19089285D01*
X96803571Y19232142D01*
X96803571Y19339285D01*
X96839285Y19482142D01*
X96875000Y19553571D01*
X96946428Y19625000D01*
X97053571Y19660714D01*
X97125000Y19660714D01*
X97232142Y19625000D01*
X97267857Y19589285D01*
X97982142Y18910714D02*
X97553571Y18910714D01*
X97767857Y18910714D02*
X97767857Y19660714D01*
X97696428Y19553571D01*
X97625000Y19482142D01*
X97553571Y19446428D01*
X98446428Y19660714D02*
X98517857Y19660714D01*
X98589285Y19625000D01*
X98625000Y19589285D01*
X98660714Y19517857D01*
X98696428Y19375000D01*
X98696428Y19196428D01*
X98660714Y19053571D01*
X98625000Y18982142D01*
X98589285Y18946428D01*
X98517857Y18910714D01*
X98446428Y18910714D01*
X98375000Y18946428D01*
X98339285Y18982142D01*
X98303571Y19053571D01*
X98267857Y19196428D01*
X98267857Y19375000D01*
X98303571Y19517857D01*
X98339285Y19589285D01*
X98375000Y19625000D01*
X98446428Y19660714D01*
X92767857Y23625000D02*
X92803571Y23589285D01*
X92839285Y23482142D01*
X92839285Y23410714D01*
X92803571Y23303571D01*
X92732142Y23232142D01*
X92660714Y23196428D01*
X92517857Y23160714D01*
X92410714Y23160714D01*
X92267857Y23196428D01*
X92196428Y23232142D01*
X92125000Y23303571D01*
X92089285Y23410714D01*
X92089285Y23482142D01*
X92125000Y23589285D01*
X92160714Y23625000D01*
X92839285Y23982142D02*
X92839285Y24125000D01*
X92803571Y24196428D01*
X92767857Y24232142D01*
X92660714Y24303571D01*
X92517857Y24339285D01*
X92232142Y24339285D01*
X92160714Y24303571D01*
X92125000Y24267857D01*
X92089285Y24196428D01*
X92089285Y24053571D01*
X92125000Y23982142D01*
X92160714Y23946428D01*
X92232142Y23910714D01*
X92410714Y23910714D01*
X92482142Y23946428D01*
X92517857Y23982142D01*
X92553571Y24053571D01*
X92553571Y24196428D01*
X92517857Y24267857D01*
X92482142Y24303571D01*
X92410714Y24339285D01*
X89267857Y23625000D02*
X89303571Y23589285D01*
X89339285Y23482142D01*
X89339285Y23410714D01*
X89303571Y23303571D01*
X89232142Y23232142D01*
X89160714Y23196428D01*
X89017857Y23160714D01*
X88910714Y23160714D01*
X88767857Y23196428D01*
X88696428Y23232142D01*
X88625000Y23303571D01*
X88589285Y23410714D01*
X88589285Y23482142D01*
X88625000Y23589285D01*
X88660714Y23625000D01*
X88910714Y24053571D02*
X88875000Y23982142D01*
X88839285Y23946428D01*
X88767857Y23910714D01*
X88732142Y23910714D01*
X88660714Y23946428D01*
X88625000Y23982142D01*
X88589285Y24053571D01*
X88589285Y24196428D01*
X88625000Y24267857D01*
X88660714Y24303571D01*
X88732142Y24339285D01*
X88767857Y24339285D01*
X88839285Y24303571D01*
X88875000Y24267857D01*
X88910714Y24196428D01*
X88910714Y24053571D01*
X88946428Y23982142D01*
X88982142Y23946428D01*
X89053571Y23910714D01*
X89196428Y23910714D01*
X89267857Y23946428D01*
X89303571Y23982142D01*
X89339285Y24053571D01*
X89339285Y24196428D01*
X89303571Y24267857D01*
X89267857Y24303571D01*
X89196428Y24339285D01*
X89053571Y24339285D01*
X88982142Y24303571D01*
X88946428Y24267857D01*
X88910714Y24196428D01*
X71375000Y32732142D02*
X71339285Y32696428D01*
X71232142Y32660714D01*
X71160714Y32660714D01*
X71053571Y32696428D01*
X70982142Y32767857D01*
X70946428Y32839285D01*
X70910714Y32982142D01*
X70910714Y33089285D01*
X70946428Y33232142D01*
X70982142Y33303571D01*
X71053571Y33375000D01*
X71160714Y33410714D01*
X71232142Y33410714D01*
X71339285Y33375000D01*
X71375000Y33339285D01*
X72017857Y33410714D02*
X71875000Y33410714D01*
X71803571Y33375000D01*
X71767857Y33339285D01*
X71696428Y33232142D01*
X71660714Y33089285D01*
X71660714Y32803571D01*
X71696428Y32732142D01*
X71732142Y32696428D01*
X71803571Y32660714D01*
X71946428Y32660714D01*
X72017857Y32696428D01*
X72053571Y32732142D01*
X72089285Y32803571D01*
X72089285Y32982142D01*
X72053571Y33053571D01*
X72017857Y33089285D01*
X71946428Y33125000D01*
X71803571Y33125000D01*
X71732142Y33089285D01*
X71696428Y33053571D01*
X71660714Y32982142D01*
X70017857Y36875000D02*
X70053571Y36839285D01*
X70089285Y36732142D01*
X70089285Y36660714D01*
X70053571Y36553571D01*
X69982142Y36482142D01*
X69910714Y36446428D01*
X69767857Y36410714D01*
X69660714Y36410714D01*
X69517857Y36446428D01*
X69446428Y36482142D01*
X69375000Y36553571D01*
X69339285Y36660714D01*
X69339285Y36732142D01*
X69375000Y36839285D01*
X69410714Y36875000D01*
X69339285Y37125000D02*
X69339285Y37625000D01*
X70089285Y37303571D01*
X71375000Y34732142D02*
X71339285Y34696428D01*
X71232142Y34660714D01*
X71160714Y34660714D01*
X71053571Y34696428D01*
X70982142Y34767857D01*
X70946428Y34839285D01*
X70910714Y34982142D01*
X70910714Y35089285D01*
X70946428Y35232142D01*
X70982142Y35303571D01*
X71053571Y35375000D01*
X71160714Y35410714D01*
X71232142Y35410714D01*
X71339285Y35375000D01*
X71375000Y35339285D01*
X72017857Y35160714D02*
X72017857Y34660714D01*
X71839285Y35446428D02*
X71660714Y34910714D01*
X72125000Y34910714D01*
X71375000Y36982142D02*
X71339285Y36946428D01*
X71232142Y36910714D01*
X71160714Y36910714D01*
X71053571Y36946428D01*
X70982142Y37017857D01*
X70946428Y37089285D01*
X70910714Y37232142D01*
X70910714Y37339285D01*
X70946428Y37482142D01*
X70982142Y37553571D01*
X71053571Y37625000D01*
X71160714Y37660714D01*
X71232142Y37660714D01*
X71339285Y37625000D01*
X71375000Y37589285D01*
X71625000Y37660714D02*
X72089285Y37660714D01*
X71839285Y37375000D01*
X71946428Y37375000D01*
X72017857Y37339285D01*
X72053571Y37303571D01*
X72089285Y37232142D01*
X72089285Y37053571D01*
X72053571Y36982142D01*
X72017857Y36946428D01*
X71946428Y36910714D01*
X71732142Y36910714D01*
X71660714Y36946428D01*
X71625000Y36982142D01*
X62517857Y36875000D02*
X62553571Y36839285D01*
X62589285Y36732142D01*
X62589285Y36660714D01*
X62553571Y36553571D01*
X62482142Y36482142D01*
X62410714Y36446428D01*
X62267857Y36410714D01*
X62160714Y36410714D01*
X62017857Y36446428D01*
X61946428Y36482142D01*
X61875000Y36553571D01*
X61839285Y36660714D01*
X61839285Y36732142D01*
X61875000Y36839285D01*
X61910714Y36875000D01*
X61839285Y37553571D02*
X61839285Y37196428D01*
X62196428Y37160714D01*
X62160714Y37196428D01*
X62125000Y37267857D01*
X62125000Y37446428D01*
X62160714Y37517857D01*
X62196428Y37553571D01*
X62267857Y37589285D01*
X62446428Y37589285D01*
X62517857Y37553571D01*
X62553571Y37517857D01*
X62589285Y37446428D01*
X62589285Y37267857D01*
X62553571Y37196428D01*
X62517857Y37160714D01*
%LPC*%
D11*
X56249998Y36500000D02*
G75*
G02*
X54750000Y36000000I-999999J499999D01*
G01*
X56000000Y37000000D02*
G75*
G03*
X56000000Y37000000I-250000J0D01*
G01*
X55000000Y37000000D02*
G75*
G03*
X55000000Y37000000I-250000J0D01*
G01*
D14*
X63874553Y26892857D02*
X63606696Y27035714D01*
X63499553Y27321428D01*
X63820982Y29892857D01*
X65445982Y26892857D02*
X65178125Y27035714D01*
X65053125Y27178571D01*
X64945982Y27464285D01*
X65053125Y28321428D01*
X65231696Y28607142D01*
X65392410Y28750000D01*
X65695982Y28892857D01*
X66124553Y28892857D01*
X66392410Y28750000D01*
X66517410Y28607142D01*
X66624553Y28321428D01*
X66517410Y27464285D01*
X66338839Y27178571D01*
X66178125Y27035714D01*
X65874553Y26892857D01*
X65445982Y26892857D01*
X65535267Y29892857D02*
X65660267Y29750000D01*
X65499553Y29607142D01*
X65374553Y29750000D01*
X65535267Y29892857D01*
X65499553Y29607142D01*
X66678125Y29892857D02*
X66803125Y29750000D01*
X66642410Y29607142D01*
X66517410Y29750000D01*
X66678125Y29892857D01*
X66642410Y29607142D01*
X67553125Y28892857D02*
X68695982Y28892857D01*
X68106696Y29892857D02*
X67785267Y27321428D01*
X67892410Y27035714D01*
X68160267Y26892857D01*
X68445982Y26892857D01*
X69445982Y26892857D02*
X69695982Y28892857D01*
X69820982Y29892857D02*
X69660267Y29750000D01*
X69785267Y29607142D01*
X69945982Y29750000D01*
X69820982Y29892857D01*
X69785267Y29607142D01*
D11*
X54982142Y22048214D02*
X54982142Y22441071D01*
X54946428Y22512500D01*
X54875000Y22548214D01*
X54732142Y22548214D01*
X54660714Y22512500D01*
X54982142Y22083928D02*
X54910714Y22048214D01*
X54732142Y22048214D01*
X54660714Y22083928D01*
X54625000Y22155357D01*
X54625000Y22226785D01*
X54660714Y22298214D01*
X54732142Y22333928D01*
X54910714Y22333928D01*
X54982142Y22369642D01*
X55232142Y22548214D02*
X55517857Y22548214D01*
X55339285Y22048214D02*
X55339285Y22691071D01*
X55375000Y22762500D01*
X55446428Y22798214D01*
X55517857Y22798214D01*
X56303571Y22726785D02*
X56339285Y22762500D01*
X56410714Y22798214D01*
X56589285Y22798214D01*
X56660714Y22762500D01*
X56696428Y22726785D01*
X56732142Y22655357D01*
X56732142Y22583928D01*
X56696428Y22476785D01*
X56267857Y22048214D01*
X56732142Y22048214D01*
X57196428Y22798214D02*
X57267857Y22798214D01*
X57339285Y22762500D01*
X57375000Y22726785D01*
X57410714Y22655357D01*
X57446428Y22512500D01*
X57446428Y22333928D01*
X57410714Y22191071D01*
X57375000Y22119642D01*
X57339285Y22083928D01*
X57267857Y22048214D01*
X57196428Y22048214D01*
X57125000Y22083928D01*
X57089285Y22119642D01*
X57053571Y22191071D01*
X57017857Y22333928D01*
X57017857Y22512500D01*
X57053571Y22655357D01*
X57089285Y22726785D01*
X57125000Y22762500D01*
X57196428Y22798214D01*
X57732142Y22726785D02*
X57767857Y22762500D01*
X57839285Y22798214D01*
X58017857Y22798214D01*
X58089285Y22762500D01*
X58125000Y22726785D01*
X58160714Y22655357D01*
X58160714Y22583928D01*
X58125000Y22476785D01*
X57696428Y22048214D01*
X58160714Y22048214D01*
X58875000Y22048214D02*
X58446428Y22048214D01*
X58660714Y22048214D02*
X58660714Y22798214D01*
X58589285Y22691071D01*
X58517857Y22619642D01*
X58446428Y22583928D01*
X56214285Y21273214D02*
X56392857Y20773214D01*
X56571428Y21273214D01*
X57214285Y21523214D02*
X56857142Y21523214D01*
X56821428Y21166071D01*
X56857142Y21201785D01*
X56928571Y21237500D01*
X57107142Y21237500D01*
X57178571Y21201785D01*
X57214285Y21166071D01*
X57250000Y21094642D01*
X57250000Y20916071D01*
X57214285Y20844642D01*
X57178571Y20808928D01*
X57107142Y20773214D01*
X56928571Y20773214D01*
X56857142Y20808928D01*
X56821428Y20844642D01*
D15*
X60295000Y25430000D03*
X60295000Y26230000D03*
X60295000Y31130000D03*
X60295000Y31930000D03*
X60295000Y31930000D03*
X60295000Y31130000D03*
X60295000Y26230000D03*
X60295000Y25430000D03*
D16*
X60295000Y30430000D03*
X60295000Y29930000D03*
X60295000Y29430000D03*
X60295000Y28430000D03*
X60295000Y27930000D03*
X60295000Y27430000D03*
X60295000Y26930000D03*
X60295000Y28930000D03*
D17*
X59380000Y24360000D03*
X59380000Y33000000D03*
D18*
X58850000Y31570000D03*
D19*
X55200000Y33000000D03*
D18*
X58850000Y25790000D03*
D19*
X55200000Y24360000D03*
D20*
X102960000Y38000000D03*
X99540000Y37050000D03*
X99540000Y38950000D03*
G36*
G01*
X91325000Y22487500D02*
X91325000Y22012500D01*
G75*
G02*
X91087500Y21775000I-237500J0D01*
G01*
X90587500Y21775000D01*
G75*
G02*
X90350000Y22012500I0J237500D01*
G01*
X90350000Y22487500D01*
G75*
G02*
X90587500Y22725000I237500J0D01*
G01*
X91087500Y22725000D01*
G75*
G02*
X91325000Y22487500I0J-237500D01*
G01*
G37*
G36*
G01*
X93150000Y22487500D02*
X93150000Y22012500D01*
G75*
G02*
X92912500Y21775000I-237500J0D01*
G01*
X92412500Y21775000D01*
G75*
G02*
X92175000Y22012500I0J237500D01*
G01*
X92175000Y22487500D01*
G75*
G02*
X92412500Y22725000I237500J0D01*
G01*
X92912500Y22725000D01*
G75*
G02*
X93150000Y22487500I0J-237500D01*
G01*
G37*
G36*
G01*
X89012500Y20825000D02*
X89487500Y20825000D01*
G75*
G02*
X89725000Y20587500I0J-237500D01*
G01*
X89725000Y20087500D01*
G75*
G02*
X89487500Y19850000I-237500J0D01*
G01*
X89012500Y19850000D01*
G75*
G02*
X88775000Y20087500I0J237500D01*
G01*
X88775000Y20587500D01*
G75*
G02*
X89012500Y20825000I237500J0D01*
G01*
G37*
G36*
G01*
X89012500Y22650000D02*
X89487500Y22650000D01*
G75*
G02*
X89725000Y22412500I0J-237500D01*
G01*
X89725000Y21912500D01*
G75*
G02*
X89487500Y21675000I-237500J0D01*
G01*
X89012500Y21675000D01*
G75*
G02*
X88775000Y21912500I0J237500D01*
G01*
X88775000Y22412500D01*
G75*
G02*
X89012500Y22650000I237500J0D01*
G01*
G37*
D21*
X83500000Y24170000D03*
X82850000Y26830000D03*
X84150000Y26830000D03*
X86500000Y26830000D03*
X87150000Y24170000D03*
X85850000Y24170000D03*
D22*
X76113939Y20518179D03*
X72018179Y23386061D03*
X78981821Y24613939D03*
X74886061Y27481821D03*
D23*
X105500000Y26250000D03*
X102500000Y25300000D03*
X102500000Y27200000D03*
D24*
X120870000Y32905000D03*
X114070000Y24455000D03*
X120870000Y24455000D03*
X114070000Y32905000D03*
D25*
X117470000Y32965000D03*
X117470000Y24395000D03*
D23*
X100000000Y26250000D03*
X97000000Y25300000D03*
X97000000Y27200000D03*
X103000000Y29750000D03*
X106000000Y30700000D03*
X106000000Y28800000D03*
D26*
X84500000Y35600000D03*
X83550000Y35600000D03*
X85450000Y35600000D03*
X85450000Y32900000D03*
X84500000Y32900000D03*
X83550000Y32900000D03*
D10*
G36*
X66866500Y37550000D02*
G01*
X66866500Y33425000D01*
X66450000Y33425000D01*
X66450000Y30950000D01*
X65550000Y30950000D01*
X65550000Y33425000D01*
X65133500Y33425000D01*
X65133500Y37550000D01*
X66866500Y37550000D01*
G37*
D27*
X67500000Y32100000D03*
X64500000Y32100000D03*
D21*
X121500000Y38830000D03*
X122150000Y36170000D03*
X120850000Y36170000D03*
X115000000Y36170000D03*
X114350000Y38830000D03*
X115650000Y38830000D03*
D28*
X76920000Y31250000D03*
X79580000Y31900000D03*
X79580000Y30600000D03*
G36*
G01*
X100425000Y30262500D02*
X100425000Y30737500D01*
G75*
G02*
X100662500Y30975000I237500J0D01*
G01*
X101162500Y30975000D01*
G75*
G02*
X101400000Y30737500I0J-237500D01*
G01*
X101400000Y30262500D01*
G75*
G02*
X101162500Y30025000I-237500J0D01*
G01*
X100662500Y30025000D01*
G75*
G02*
X100425000Y30262500I0J237500D01*
G01*
G37*
G36*
G01*
X98600000Y30262500D02*
X98600000Y30737500D01*
G75*
G02*
X98837500Y30975000I237500J0D01*
G01*
X99337500Y30975000D01*
G75*
G02*
X99575000Y30737500I0J-237500D01*
G01*
X99575000Y30262500D01*
G75*
G02*
X99337500Y30025000I-237500J0D01*
G01*
X98837500Y30025000D01*
G75*
G02*
X98600000Y30262500I0J237500D01*
G01*
G37*
G36*
G01*
X100325000Y28512500D02*
X100325000Y28987500D01*
G75*
G02*
X100562500Y29225000I237500J0D01*
G01*
X101162500Y29225000D01*
G75*
G02*
X101400000Y28987500I0J-237500D01*
G01*
X101400000Y28512500D01*
G75*
G02*
X101162500Y28275000I-237500J0D01*
G01*
X100562500Y28275000D01*
G75*
G02*
X100325000Y28512500I0J237500D01*
G01*
G37*
G36*
G01*
X98600000Y28512500D02*
X98600000Y28987500D01*
G75*
G02*
X98837500Y29225000I237500J0D01*
G01*
X99437500Y29225000D01*
G75*
G02*
X99675000Y28987500I0J-237500D01*
G01*
X99675000Y28512500D01*
G75*
G02*
X99437500Y28275000I-237500J0D01*
G01*
X98837500Y28275000D01*
G75*
G02*
X98600000Y28512500I0J237500D01*
G01*
G37*
D29*
X80500000Y44960000D03*
D30*
X80500000Y47500000D03*
D29*
X83750000Y44960000D03*
D30*
X83750000Y47500000D03*
D29*
X87000000Y44960000D03*
D30*
X87000000Y47500000D03*
G36*
G01*
X90325000Y29325000D02*
X90075000Y29325000D01*
G75*
G02*
X89950000Y29450000I0J125000D01*
G01*
X89950000Y30700000D01*
G75*
G02*
X90075000Y30825000I125000J0D01*
G01*
X90325000Y30825000D01*
G75*
G02*
X90450000Y30700000I0J-125000D01*
G01*
X90450000Y29450000D01*
G75*
G02*
X90325000Y29325000I-125000J0D01*
G01*
G37*
G36*
G01*
X91125000Y29325000D02*
X90875000Y29325000D01*
G75*
G02*
X90750000Y29450000I0J125000D01*
G01*
X90750000Y30700000D01*
G75*
G02*
X90875000Y30825000I125000J0D01*
G01*
X91125000Y30825000D01*
G75*
G02*
X91250000Y30700000I0J-125000D01*
G01*
X91250000Y29450000D01*
G75*
G02*
X91125000Y29325000I-125000J0D01*
G01*
G37*
G36*
G01*
X91925000Y29325000D02*
X91675000Y29325000D01*
G75*
G02*
X91550000Y29450000I0J125000D01*
G01*
X91550000Y30700000D01*
G75*
G02*
X91675000Y30825000I125000J0D01*
G01*
X91925000Y30825000D01*
G75*
G02*
X92050000Y30700000I0J-125000D01*
G01*
X92050000Y29450000D01*
G75*
G02*
X91925000Y29325000I-125000J0D01*
G01*
G37*
G36*
G01*
X92725000Y29325000D02*
X92475000Y29325000D01*
G75*
G02*
X92350000Y29450000I0J125000D01*
G01*
X92350000Y30700000D01*
G75*
G02*
X92475000Y30825000I125000J0D01*
G01*
X92725000Y30825000D01*
G75*
G02*
X92850000Y30700000I0J-125000D01*
G01*
X92850000Y29450000D01*
G75*
G02*
X92725000Y29325000I-125000J0D01*
G01*
G37*
G36*
G01*
X93525000Y29325000D02*
X93275000Y29325000D01*
G75*
G02*
X93150000Y29450000I0J125000D01*
G01*
X93150000Y30700000D01*
G75*
G02*
X93275000Y30825000I125000J0D01*
G01*
X93525000Y30825000D01*
G75*
G02*
X93650000Y30700000I0J-125000D01*
G01*
X93650000Y29450000D01*
G75*
G02*
X93525000Y29325000I-125000J0D01*
G01*
G37*
G36*
G01*
X94325000Y29325000D02*
X94075000Y29325000D01*
G75*
G02*
X93950000Y29450000I0J125000D01*
G01*
X93950000Y30700000D01*
G75*
G02*
X94075000Y30825000I125000J0D01*
G01*
X94325000Y30825000D01*
G75*
G02*
X94450000Y30700000I0J-125000D01*
G01*
X94450000Y29450000D01*
G75*
G02*
X94325000Y29325000I-125000J0D01*
G01*
G37*
G36*
G01*
X95125000Y29325000D02*
X94875000Y29325000D01*
G75*
G02*
X94750000Y29450000I0J125000D01*
G01*
X94750000Y30700000D01*
G75*
G02*
X94875000Y30825000I125000J0D01*
G01*
X95125000Y30825000D01*
G75*
G02*
X95250000Y30700000I0J-125000D01*
G01*
X95250000Y29450000D01*
G75*
G02*
X95125000Y29325000I-125000J0D01*
G01*
G37*
G36*
G01*
X95925000Y29325000D02*
X95675000Y29325000D01*
G75*
G02*
X95550000Y29450000I0J125000D01*
G01*
X95550000Y30700000D01*
G75*
G02*
X95675000Y30825000I125000J0D01*
G01*
X95925000Y30825000D01*
G75*
G02*
X96050000Y30700000I0J-125000D01*
G01*
X96050000Y29450000D01*
G75*
G02*
X95925000Y29325000I-125000J0D01*
G01*
G37*
G36*
G01*
X97800000Y31200000D02*
X96550000Y31200000D01*
G75*
G02*
X96425000Y31325000I0J125000D01*
G01*
X96425000Y31575000D01*
G75*
G02*
X96550000Y31700000I125000J0D01*
G01*
X97800000Y31700000D01*
G75*
G02*
X97925000Y31575000I0J-125000D01*
G01*
X97925000Y31325000D01*
G75*
G02*
X97800000Y31200000I-125000J0D01*
G01*
G37*
G36*
G01*
X97800000Y32000000D02*
X96550000Y32000000D01*
G75*
G02*
X96425000Y32125000I0J125000D01*
G01*
X96425000Y32375000D01*
G75*
G02*
X96550000Y32500000I125000J0D01*
G01*
X97800000Y32500000D01*
G75*
G02*
X97925000Y32375000I0J-125000D01*
G01*
X97925000Y32125000D01*
G75*
G02*
X97800000Y32000000I-125000J0D01*
G01*
G37*
G36*
G01*
X97800000Y32800000D02*
X96550000Y32800000D01*
G75*
G02*
X96425000Y32925000I0J125000D01*
G01*
X96425000Y33175000D01*
G75*
G02*
X96550000Y33300000I125000J0D01*
G01*
X97800000Y33300000D01*
G75*
G02*
X97925000Y33175000I0J-125000D01*
G01*
X97925000Y32925000D01*
G75*
G02*
X97800000Y32800000I-125000J0D01*
G01*
G37*
G36*
G01*
X97800000Y33600000D02*
X96550000Y33600000D01*
G75*
G02*
X96425000Y33725000I0J125000D01*
G01*
X96425000Y33975000D01*
G75*
G02*
X96550000Y34100000I125000J0D01*
G01*
X97800000Y34100000D01*
G75*
G02*
X97925000Y33975000I0J-125000D01*
G01*
X97925000Y33725000D01*
G75*
G02*
X97800000Y33600000I-125000J0D01*
G01*
G37*
G36*
G01*
X97800000Y34400000D02*
X96550000Y34400000D01*
G75*
G02*
X96425000Y34525000I0J125000D01*
G01*
X96425000Y34775000D01*
G75*
G02*
X96550000Y34900000I125000J0D01*
G01*
X97800000Y34900000D01*
G75*
G02*
X97925000Y34775000I0J-125000D01*
G01*
X97925000Y34525000D01*
G75*
G02*
X97800000Y34400000I-125000J0D01*
G01*
G37*
G36*
G01*
X97800000Y35200000D02*
X96550000Y35200000D01*
G75*
G02*
X96425000Y35325000I0J125000D01*
G01*
X96425000Y35575000D01*
G75*
G02*
X96550000Y35700000I125000J0D01*
G01*
X97800000Y35700000D01*
G75*
G02*
X97925000Y35575000I0J-125000D01*
G01*
X97925000Y35325000D01*
G75*
G02*
X97800000Y35200000I-125000J0D01*
G01*
G37*
G36*
G01*
X97800000Y36000000D02*
X96550000Y36000000D01*
G75*
G02*
X96425000Y36125000I0J125000D01*
G01*
X96425000Y36375000D01*
G75*
G02*
X96550000Y36500000I125000J0D01*
G01*
X97800000Y36500000D01*
G75*
G02*
X97925000Y36375000I0J-125000D01*
G01*
X97925000Y36125000D01*
G75*
G02*
X97800000Y36000000I-125000J0D01*
G01*
G37*
G36*
G01*
X97800000Y36800000D02*
X96550000Y36800000D01*
G75*
G02*
X96425000Y36925000I0J125000D01*
G01*
X96425000Y37175000D01*
G75*
G02*
X96550000Y37300000I125000J0D01*
G01*
X97800000Y37300000D01*
G75*
G02*
X97925000Y37175000I0J-125000D01*
G01*
X97925000Y36925000D01*
G75*
G02*
X97800000Y36800000I-125000J0D01*
G01*
G37*
G36*
G01*
X95925000Y37675000D02*
X95675000Y37675000D01*
G75*
G02*
X95550000Y37800000I0J125000D01*
G01*
X95550000Y39050000D01*
G75*
G02*
X95675000Y39175000I125000J0D01*
G01*
X95925000Y39175000D01*
G75*
G02*
X96050000Y39050000I0J-125000D01*
G01*
X96050000Y37800000D01*
G75*
G02*
X95925000Y37675000I-125000J0D01*
G01*
G37*
G36*
G01*
X95125000Y37675000D02*
X94875000Y37675000D01*
G75*
G02*
X94750000Y37800000I0J125000D01*
G01*
X94750000Y39050000D01*
G75*
G02*
X94875000Y39175000I125000J0D01*
G01*
X95125000Y39175000D01*
G75*
G02*
X95250000Y39050000I0J-125000D01*
G01*
X95250000Y37800000D01*
G75*
G02*
X95125000Y37675000I-125000J0D01*
G01*
G37*
G36*
G01*
X94325000Y37675000D02*
X94075000Y37675000D01*
G75*
G02*
X93950000Y37800000I0J125000D01*
G01*
X93950000Y39050000D01*
G75*
G02*
X94075000Y39175000I125000J0D01*
G01*
X94325000Y39175000D01*
G75*
G02*
X94450000Y39050000I0J-125000D01*
G01*
X94450000Y37800000D01*
G75*
G02*
X94325000Y37675000I-125000J0D01*
G01*
G37*
G36*
G01*
X93525000Y37675000D02*
X93275000Y37675000D01*
G75*
G02*
X93150000Y37800000I0J125000D01*
G01*
X93150000Y39050000D01*
G75*
G02*
X93275000Y39175000I125000J0D01*
G01*
X93525000Y39175000D01*
G75*
G02*
X93650000Y39050000I0J-125000D01*
G01*
X93650000Y37800000D01*
G75*
G02*
X93525000Y37675000I-125000J0D01*
G01*
G37*
G36*
G01*
X92725000Y37675000D02*
X92475000Y37675000D01*
G75*
G02*
X92350000Y37800000I0J125000D01*
G01*
X92350000Y39050000D01*
G75*
G02*
X92475000Y39175000I125000J0D01*
G01*
X92725000Y39175000D01*
G75*
G02*
X92850000Y39050000I0J-125000D01*
G01*
X92850000Y37800000D01*
G75*
G02*
X92725000Y37675000I-125000J0D01*
G01*
G37*
G36*
G01*
X91925000Y37675000D02*
X91675000Y37675000D01*
G75*
G02*
X91550000Y37800000I0J125000D01*
G01*
X91550000Y39050000D01*
G75*
G02*
X91675000Y39175000I125000J0D01*
G01*
X91925000Y39175000D01*
G75*
G02*
X92050000Y39050000I0J-125000D01*
G01*
X92050000Y37800000D01*
G75*
G02*
X91925000Y37675000I-125000J0D01*
G01*
G37*
G36*
G01*
X91125000Y37675000D02*
X90875000Y37675000D01*
G75*
G02*
X90750000Y37800000I0J125000D01*
G01*
X90750000Y39050000D01*
G75*
G02*
X90875000Y39175000I125000J0D01*
G01*
X91125000Y39175000D01*
G75*
G02*
X91250000Y39050000I0J-125000D01*
G01*
X91250000Y37800000D01*
G75*
G02*
X91125000Y37675000I-125000J0D01*
G01*
G37*
G36*
G01*
X90325000Y37675000D02*
X90075000Y37675000D01*
G75*
G02*
X89950000Y37800000I0J125000D01*
G01*
X89950000Y39050000D01*
G75*
G02*
X90075000Y39175000I125000J0D01*
G01*
X90325000Y39175000D01*
G75*
G02*
X90450000Y39050000I0J-125000D01*
G01*
X90450000Y37800000D01*
G75*
G02*
X90325000Y37675000I-125000J0D01*
G01*
G37*
G36*
G01*
X89450000Y36800000D02*
X88200000Y36800000D01*
G75*
G02*
X88075000Y36925000I0J125000D01*
G01*
X88075000Y37175000D01*
G75*
G02*
X88200000Y37300000I125000J0D01*
G01*
X89450000Y37300000D01*
G75*
G02*
X89575000Y37175000I0J-125000D01*
G01*
X89575000Y36925000D01*
G75*
G02*
X89450000Y36800000I-125000J0D01*
G01*
G37*
G36*
G01*
X89450000Y36000000D02*
X88200000Y36000000D01*
G75*
G02*
X88075000Y36125000I0J125000D01*
G01*
X88075000Y36375000D01*
G75*
G02*
X88200000Y36500000I125000J0D01*
G01*
X89450000Y36500000D01*
G75*
G02*
X89575000Y36375000I0J-125000D01*
G01*
X89575000Y36125000D01*
G75*
G02*
X89450000Y36000000I-125000J0D01*
G01*
G37*
G36*
G01*
X89450000Y35200000D02*
X88200000Y35200000D01*
G75*
G02*
X88075000Y35325000I0J125000D01*
G01*
X88075000Y35575000D01*
G75*
G02*
X88200000Y35700000I125000J0D01*
G01*
X89450000Y35700000D01*
G75*
G02*
X89575000Y35575000I0J-125000D01*
G01*
X89575000Y35325000D01*
G75*
G02*
X89450000Y35200000I-125000J0D01*
G01*
G37*
G36*
G01*
X89450000Y34400000D02*
X88200000Y34400000D01*
G75*
G02*
X88075000Y34525000I0J125000D01*
G01*
X88075000Y34775000D01*
G75*
G02*
X88200000Y34900000I125000J0D01*
G01*
X89450000Y34900000D01*
G75*
G02*
X89575000Y34775000I0J-125000D01*
G01*
X89575000Y34525000D01*
G75*
G02*
X89450000Y34400000I-125000J0D01*
G01*
G37*
G36*
G01*
X89450000Y33600000D02*
X88200000Y33600000D01*
G75*
G02*
X88075000Y33725000I0J125000D01*
G01*
X88075000Y33975000D01*
G75*
G02*
X88200000Y34100000I125000J0D01*
G01*
X89450000Y34100000D01*
G75*
G02*
X89575000Y33975000I0J-125000D01*
G01*
X89575000Y33725000D01*
G75*
G02*
X89450000Y33600000I-125000J0D01*
G01*
G37*
G36*
G01*
X89450000Y32800000D02*
X88200000Y32800000D01*
G75*
G02*
X88075000Y32925000I0J125000D01*
G01*
X88075000Y33175000D01*
G75*
G02*
X88200000Y33300000I125000J0D01*
G01*
X89450000Y33300000D01*
G75*
G02*
X89575000Y33175000I0J-125000D01*
G01*
X89575000Y32925000D01*
G75*
G02*
X89450000Y32800000I-125000J0D01*
G01*
G37*
G36*
G01*
X89450000Y32000000D02*
X88200000Y32000000D01*
G75*
G02*
X88075000Y32125000I0J125000D01*
G01*
X88075000Y32375000D01*
G75*
G02*
X88200000Y32500000I125000J0D01*
G01*
X89450000Y32500000D01*
G75*
G02*
X89575000Y32375000I0J-125000D01*
G01*
X89575000Y32125000D01*
G75*
G02*
X89450000Y32000000I-125000J0D01*
G01*
G37*
G36*
G01*
X89450000Y31200000D02*
X88200000Y31200000D01*
G75*
G02*
X88075000Y31325000I0J125000D01*
G01*
X88075000Y31575000D01*
G75*
G02*
X88200000Y31700000I125000J0D01*
G01*
X89450000Y31700000D01*
G75*
G02*
X89575000Y31575000I0J-125000D01*
G01*
X89575000Y31325000D01*
G75*
G02*
X89450000Y31200000I-125000J0D01*
G01*
G37*
D31*
X102830000Y35400000D03*
X102830000Y34100000D03*
X100170000Y34100000D03*
X100170000Y34750000D03*
X100170000Y35400000D03*
D32*
X104700000Y23475000D03*
X104700000Y22825000D03*
X104700000Y22175000D03*
X104700000Y21525000D03*
X100300000Y21525000D03*
X100300000Y22175000D03*
X100300000Y22825000D03*
X100300000Y23475000D03*
G36*
G01*
X108425000Y23512500D02*
X108425000Y23987500D01*
G75*
G02*
X108662500Y24225000I237500J0D01*
G01*
X109162500Y24225000D01*
G75*
G02*
X109400000Y23987500I0J-237500D01*
G01*
X109400000Y23512500D01*
G75*
G02*
X109162500Y23275000I-237500J0D01*
G01*
X108662500Y23275000D01*
G75*
G02*
X108425000Y23512500I0J237500D01*
G01*
G37*
G36*
G01*
X106600000Y23512500D02*
X106600000Y23987500D01*
G75*
G02*
X106837500Y24225000I237500J0D01*
G01*
X107337500Y24225000D01*
G75*
G02*
X107575000Y23987500I0J-237500D01*
G01*
X107575000Y23512500D01*
G75*
G02*
X107337500Y23275000I-237500J0D01*
G01*
X106837500Y23275000D01*
G75*
G02*
X106600000Y23512500I0J237500D01*
G01*
G37*
G36*
G01*
X98237500Y22925000D02*
X97762500Y22925000D01*
G75*
G02*
X97525000Y23162500I0J237500D01*
G01*
X97525000Y23662500D01*
G75*
G02*
X97762500Y23900000I237500J0D01*
G01*
X98237500Y23900000D01*
G75*
G02*
X98475000Y23662500I0J-237500D01*
G01*
X98475000Y23162500D01*
G75*
G02*
X98237500Y22925000I-237500J0D01*
G01*
G37*
G36*
G01*
X98237500Y21100000D02*
X97762500Y21100000D01*
G75*
G02*
X97525000Y21337500I0J237500D01*
G01*
X97525000Y21837500D01*
G75*
G02*
X97762500Y22075000I237500J0D01*
G01*
X98237500Y22075000D01*
G75*
G02*
X98475000Y21837500I0J-237500D01*
G01*
X98475000Y21337500D01*
G75*
G02*
X98237500Y21100000I-237500J0D01*
G01*
G37*
G36*
G01*
X108237500Y30262500D02*
X107762500Y30262500D01*
G75*
G02*
X107525000Y30500000I0J237500D01*
G01*
X107525000Y31000000D01*
G75*
G02*
X107762500Y31237500I237500J0D01*
G01*
X108237500Y31237500D01*
G75*
G02*
X108475000Y31000000I0J-237500D01*
G01*
X108475000Y30500000D01*
G75*
G02*
X108237500Y30262500I-237500J0D01*
G01*
G37*
G36*
G01*
X108237500Y28437500D02*
X107762500Y28437500D01*
G75*
G02*
X107525000Y28675000I0J237500D01*
G01*
X107525000Y29175000D01*
G75*
G02*
X107762500Y29412500I237500J0D01*
G01*
X108237500Y29412500D01*
G75*
G02*
X108475000Y29175000I0J-237500D01*
G01*
X108475000Y28675000D01*
G75*
G02*
X108237500Y28437500I-237500J0D01*
G01*
G37*
G36*
G01*
X112512500Y37825000D02*
X112987500Y37825000D01*
G75*
G02*
X113225000Y37587500I0J-237500D01*
G01*
X113225000Y37087500D01*
G75*
G02*
X112987500Y36850000I-237500J0D01*
G01*
X112512500Y36850000D01*
G75*
G02*
X112275000Y37087500I0J237500D01*
G01*
X112275000Y37587500D01*
G75*
G02*
X112512500Y37825000I237500J0D01*
G01*
G37*
G36*
G01*
X112512500Y39650000D02*
X112987500Y39650000D01*
G75*
G02*
X113225000Y39412500I0J-237500D01*
G01*
X113225000Y38912500D01*
G75*
G02*
X112987500Y38675000I-237500J0D01*
G01*
X112512500Y38675000D01*
G75*
G02*
X112275000Y38912500I0J237500D01*
G01*
X112275000Y39412500D01*
G75*
G02*
X112512500Y39650000I237500J0D01*
G01*
G37*
G36*
G01*
X104675000Y40512500D02*
X104675000Y40987500D01*
G75*
G02*
X104912500Y41225000I237500J0D01*
G01*
X105412500Y41225000D01*
G75*
G02*
X105650000Y40987500I0J-237500D01*
G01*
X105650000Y40512500D01*
G75*
G02*
X105412500Y40275000I-237500J0D01*
G01*
X104912500Y40275000D01*
G75*
G02*
X104675000Y40512500I0J237500D01*
G01*
G37*
G36*
G01*
X102850000Y40512500D02*
X102850000Y40987500D01*
G75*
G02*
X103087500Y41225000I237500J0D01*
G01*
X103587500Y41225000D01*
G75*
G02*
X103825000Y40987500I0J-237500D01*
G01*
X103825000Y40512500D01*
G75*
G02*
X103587500Y40275000I-237500J0D01*
G01*
X103087500Y40275000D01*
G75*
G02*
X102850000Y40512500I0J237500D01*
G01*
G37*
G36*
G01*
X118487500Y38675000D02*
X118012500Y38675000D01*
G75*
G02*
X117775000Y38912500I0J237500D01*
G01*
X117775000Y39412500D01*
G75*
G02*
X118012500Y39650000I237500J0D01*
G01*
X118487500Y39650000D01*
G75*
G02*
X118725000Y39412500I0J-237500D01*
G01*
X118725000Y38912500D01*
G75*
G02*
X118487500Y38675000I-237500J0D01*
G01*
G37*
G36*
G01*
X118487500Y36850000D02*
X118012500Y36850000D01*
G75*
G02*
X117775000Y37087500I0J237500D01*
G01*
X117775000Y37587500D01*
G75*
G02*
X118012500Y37825000I237500J0D01*
G01*
X118487500Y37825000D01*
G75*
G02*
X118725000Y37587500I0J-237500D01*
G01*
X118725000Y37087500D01*
G75*
G02*
X118487500Y36850000I-237500J0D01*
G01*
G37*
G36*
G01*
X110925000Y34012500D02*
X110925000Y34487500D01*
G75*
G02*
X111162500Y34725000I237500J0D01*
G01*
X111662500Y34725000D01*
G75*
G02*
X111900000Y34487500I0J-237500D01*
G01*
X111900000Y34012500D01*
G75*
G02*
X111662500Y33775000I-237500J0D01*
G01*
X111162500Y33775000D01*
G75*
G02*
X110925000Y34012500I0J237500D01*
G01*
G37*
G36*
G01*
X109100000Y34012500D02*
X109100000Y34487500D01*
G75*
G02*
X109337500Y34725000I237500J0D01*
G01*
X109837500Y34725000D01*
G75*
G02*
X110075000Y34487500I0J-237500D01*
G01*
X110075000Y34012500D01*
G75*
G02*
X109837500Y33775000I-237500J0D01*
G01*
X109337500Y33775000D01*
G75*
G02*
X109100000Y34012500I0J237500D01*
G01*
G37*
G36*
G01*
X83262500Y41575000D02*
X83737500Y41575000D01*
G75*
G02*
X83975000Y41337500I0J-237500D01*
G01*
X83975000Y40837500D01*
G75*
G02*
X83737500Y40600000I-237500J0D01*
G01*
X83262500Y40600000D01*
G75*
G02*
X83025000Y40837500I0J237500D01*
G01*
X83025000Y41337500D01*
G75*
G02*
X83262500Y41575000I237500J0D01*
G01*
G37*
G36*
G01*
X83262500Y43400000D02*
X83737500Y43400000D01*
G75*
G02*
X83975000Y43162500I0J-237500D01*
G01*
X83975000Y42662500D01*
G75*
G02*
X83737500Y42425000I-237500J0D01*
G01*
X83262500Y42425000D01*
G75*
G02*
X83025000Y42662500I0J237500D01*
G01*
X83025000Y43162500D01*
G75*
G02*
X83262500Y43400000I237500J0D01*
G01*
G37*
G36*
G01*
X85012500Y41575000D02*
X85487500Y41575000D01*
G75*
G02*
X85725000Y41337500I0J-237500D01*
G01*
X85725000Y40837500D01*
G75*
G02*
X85487500Y40600000I-237500J0D01*
G01*
X85012500Y40600000D01*
G75*
G02*
X84775000Y40837500I0J237500D01*
G01*
X84775000Y41337500D01*
G75*
G02*
X85012500Y41575000I237500J0D01*
G01*
G37*
G36*
G01*
X85012500Y43400000D02*
X85487500Y43400000D01*
G75*
G02*
X85725000Y43162500I0J-237500D01*
G01*
X85725000Y42662500D01*
G75*
G02*
X85487500Y42425000I-237500J0D01*
G01*
X85012500Y42425000D01*
G75*
G02*
X84775000Y42662500I0J237500D01*
G01*
X84775000Y43162500D01*
G75*
G02*
X85012500Y43400000I237500J0D01*
G01*
G37*
G36*
G01*
X86762500Y43400000D02*
X87237500Y43400000D01*
G75*
G02*
X87475000Y43162500I0J-237500D01*
G01*
X87475000Y42662500D01*
G75*
G02*
X87237500Y42425000I-237500J0D01*
G01*
X86762500Y42425000D01*
G75*
G02*
X86525000Y42662500I0J237500D01*
G01*
X86525000Y43162500D01*
G75*
G02*
X86762500Y43400000I237500J0D01*
G01*
G37*
G36*
G01*
X86762500Y41575000D02*
X87237500Y41575000D01*
G75*
G02*
X87475000Y41337500I0J-237500D01*
G01*
X87475000Y40837500D01*
G75*
G02*
X87237500Y40600000I-237500J0D01*
G01*
X86762500Y40600000D01*
G75*
G02*
X86525000Y40837500I0J237500D01*
G01*
X86525000Y41337500D01*
G75*
G02*
X86762500Y41575000I237500J0D01*
G01*
G37*
G36*
G01*
X106812500Y34487500D02*
X106812500Y34012500D01*
G75*
G02*
X106575000Y33775000I-237500J0D01*
G01*
X105975000Y33775000D01*
G75*
G02*
X105737500Y34012500I0J237500D01*
G01*
X105737500Y34487500D01*
G75*
G02*
X105975000Y34725000I237500J0D01*
G01*
X106575000Y34725000D01*
G75*
G02*
X106812500Y34487500I0J-237500D01*
G01*
G37*
G36*
G01*
X108537500Y34487500D02*
X108537500Y34012500D01*
G75*
G02*
X108300000Y33775000I-237500J0D01*
G01*
X107700000Y33775000D01*
G75*
G02*
X107462500Y34012500I0J237500D01*
G01*
X107462500Y34487500D01*
G75*
G02*
X107700000Y34725000I237500J0D01*
G01*
X108300000Y34725000D01*
G75*
G02*
X108537500Y34487500I0J-237500D01*
G01*
G37*
G36*
G01*
X84700000Y14700000D02*
X85800000Y14700000D01*
G75*
G02*
X86050000Y14450000I0J-250000D01*
G01*
X86050000Y11450000D01*
G75*
G02*
X85800000Y11200000I-250000J0D01*
G01*
X84700000Y11200000D01*
G75*
G02*
X84450000Y11450000I0J250000D01*
G01*
X84450000Y14450000D01*
G75*
G02*
X84700000Y14700000I250000J0D01*
G01*
G37*
G36*
G01*
X84700000Y20300000D02*
X85800000Y20300000D01*
G75*
G02*
X86050000Y20050000I0J-250000D01*
G01*
X86050000Y17050000D01*
G75*
G02*
X85800000Y16800000I-250000J0D01*
G01*
X84700000Y16800000D01*
G75*
G02*
X84450000Y17050000I0J250000D01*
G01*
X84450000Y20050000D01*
G75*
G02*
X84700000Y20300000I250000J0D01*
G01*
G37*
D26*
X105550000Y38850000D03*
X107450000Y38850000D03*
X107450000Y36150000D03*
X106500000Y36150000D03*
X105550000Y36150000D03*
G36*
G01*
X92450000Y14700000D02*
X93550000Y14700000D01*
G75*
G02*
X93800000Y14450000I0J-250000D01*
G01*
X93800000Y11450000D01*
G75*
G02*
X93550000Y11200000I-250000J0D01*
G01*
X92450000Y11200000D01*
G75*
G02*
X92200000Y11450000I0J250000D01*
G01*
X92200000Y14450000D01*
G75*
G02*
X92450000Y14700000I250000J0D01*
G01*
G37*
G36*
G01*
X92450000Y20300000D02*
X93550000Y20300000D01*
G75*
G02*
X93800000Y20050000I0J-250000D01*
G01*
X93800000Y17050000D01*
G75*
G02*
X93550000Y16800000I-250000J0D01*
G01*
X92450000Y16800000D01*
G75*
G02*
X92200000Y17050000I0J250000D01*
G01*
X92200000Y20050000D01*
G75*
G02*
X92450000Y20300000I250000J0D01*
G01*
G37*
G36*
G01*
X118575000Y35012500D02*
X118575000Y35487500D01*
G75*
G02*
X118812500Y35725000I237500J0D01*
G01*
X119412500Y35725000D01*
G75*
G02*
X119650000Y35487500I0J-237500D01*
G01*
X119650000Y35012500D01*
G75*
G02*
X119412500Y34775000I-237500J0D01*
G01*
X118812500Y34775000D01*
G75*
G02*
X118575000Y35012500I0J237500D01*
G01*
G37*
G36*
G01*
X116850000Y35012500D02*
X116850000Y35487500D01*
G75*
G02*
X117087500Y35725000I237500J0D01*
G01*
X117687500Y35725000D01*
G75*
G02*
X117925000Y35487500I0J-237500D01*
G01*
X117925000Y35012500D01*
G75*
G02*
X117687500Y34775000I-237500J0D01*
G01*
X117087500Y34775000D01*
G75*
G02*
X116850000Y35012500I0J237500D01*
G01*
G37*
G36*
G01*
X78562500Y33375000D02*
X78437500Y33375000D01*
G75*
G02*
X78375000Y33437500I0J62500D01*
G01*
X78375000Y34137500D01*
G75*
G02*
X78437500Y34200000I62500J0D01*
G01*
X78562500Y34200000D01*
G75*
G02*
X78625000Y34137500I0J-62500D01*
G01*
X78625000Y33437500D01*
G75*
G02*
X78562500Y33375000I-62500J0D01*
G01*
G37*
G36*
G01*
X79062500Y33375000D02*
X78937500Y33375000D01*
G75*
G02*
X78875000Y33437500I0J62500D01*
G01*
X78875000Y34137500D01*
G75*
G02*
X78937500Y34200000I62500J0D01*
G01*
X79062500Y34200000D01*
G75*
G02*
X79125000Y34137500I0J-62500D01*
G01*
X79125000Y33437500D01*
G75*
G02*
X79062500Y33375000I-62500J0D01*
G01*
G37*
G36*
G01*
X79562500Y33375000D02*
X79437500Y33375000D01*
G75*
G02*
X79375000Y33437500I0J62500D01*
G01*
X79375000Y34137500D01*
G75*
G02*
X79437500Y34200000I62500J0D01*
G01*
X79562500Y34200000D01*
G75*
G02*
X79625000Y34137500I0J-62500D01*
G01*
X79625000Y33437500D01*
G75*
G02*
X79562500Y33375000I-62500J0D01*
G01*
G37*
G36*
G01*
X80062500Y33375000D02*
X79937500Y33375000D01*
G75*
G02*
X79875000Y33437500I0J62500D01*
G01*
X79875000Y34137500D01*
G75*
G02*
X79937500Y34200000I62500J0D01*
G01*
X80062500Y34200000D01*
G75*
G02*
X80125000Y34137500I0J-62500D01*
G01*
X80125000Y33437500D01*
G75*
G02*
X80062500Y33375000I-62500J0D01*
G01*
G37*
G36*
G01*
X80562500Y33375000D02*
X80437500Y33375000D01*
G75*
G02*
X80375000Y33437500I0J62500D01*
G01*
X80375000Y34137500D01*
G75*
G02*
X80437500Y34200000I62500J0D01*
G01*
X80562500Y34200000D01*
G75*
G02*
X80625000Y34137500I0J-62500D01*
G01*
X80625000Y33437500D01*
G75*
G02*
X80562500Y33375000I-62500J0D01*
G01*
G37*
G36*
G01*
X81062500Y33375000D02*
X80937500Y33375000D01*
G75*
G02*
X80875000Y33437500I0J62500D01*
G01*
X80875000Y34137500D01*
G75*
G02*
X80937500Y34200000I62500J0D01*
G01*
X81062500Y34200000D01*
G75*
G02*
X81125000Y34137500I0J-62500D01*
G01*
X81125000Y33437500D01*
G75*
G02*
X81062500Y33375000I-62500J0D01*
G01*
G37*
G36*
G01*
X82062500Y34375000D02*
X81362500Y34375000D01*
G75*
G02*
X81300000Y34437500I0J62500D01*
G01*
X81300000Y34562500D01*
G75*
G02*
X81362500Y34625000I62500J0D01*
G01*
X82062500Y34625000D01*
G75*
G02*
X82125000Y34562500I0J-62500D01*
G01*
X82125000Y34437500D01*
G75*
G02*
X82062500Y34375000I-62500J0D01*
G01*
G37*
G36*
G01*
X82062500Y34875000D02*
X81362500Y34875000D01*
G75*
G02*
X81300000Y34937500I0J62500D01*
G01*
X81300000Y35062500D01*
G75*
G02*
X81362500Y35125000I62500J0D01*
G01*
X82062500Y35125000D01*
G75*
G02*
X82125000Y35062500I0J-62500D01*
G01*
X82125000Y34937500D01*
G75*
G02*
X82062500Y34875000I-62500J0D01*
G01*
G37*
G36*
G01*
X82062500Y35375000D02*
X81362500Y35375000D01*
G75*
G02*
X81300000Y35437500I0J62500D01*
G01*
X81300000Y35562500D01*
G75*
G02*
X81362500Y35625000I62500J0D01*
G01*
X82062500Y35625000D01*
G75*
G02*
X82125000Y35562500I0J-62500D01*
G01*
X82125000Y35437500D01*
G75*
G02*
X82062500Y35375000I-62500J0D01*
G01*
G37*
G36*
G01*
X82062500Y35875000D02*
X81362500Y35875000D01*
G75*
G02*
X81300000Y35937500I0J62500D01*
G01*
X81300000Y36062500D01*
G75*
G02*
X81362500Y36125000I62500J0D01*
G01*
X82062500Y36125000D01*
G75*
G02*
X82125000Y36062500I0J-62500D01*
G01*
X82125000Y35937500D01*
G75*
G02*
X82062500Y35875000I-62500J0D01*
G01*
G37*
G36*
G01*
X82062500Y36375000D02*
X81362500Y36375000D01*
G75*
G02*
X81300000Y36437500I0J62500D01*
G01*
X81300000Y36562500D01*
G75*
G02*
X81362500Y36625000I62500J0D01*
G01*
X82062500Y36625000D01*
G75*
G02*
X82125000Y36562500I0J-62500D01*
G01*
X82125000Y36437500D01*
G75*
G02*
X82062500Y36375000I-62500J0D01*
G01*
G37*
G36*
G01*
X82062500Y36875000D02*
X81362500Y36875000D01*
G75*
G02*
X81300000Y36937500I0J62500D01*
G01*
X81300000Y37062500D01*
G75*
G02*
X81362500Y37125000I62500J0D01*
G01*
X82062500Y37125000D01*
G75*
G02*
X82125000Y37062500I0J-62500D01*
G01*
X82125000Y36937500D01*
G75*
G02*
X82062500Y36875000I-62500J0D01*
G01*
G37*
G36*
G01*
X81062500Y37300000D02*
X80937500Y37300000D01*
G75*
G02*
X80875000Y37362500I0J62500D01*
G01*
X80875000Y38062500D01*
G75*
G02*
X80937500Y38125000I62500J0D01*
G01*
X81062500Y38125000D01*
G75*
G02*
X81125000Y38062500I0J-62500D01*
G01*
X81125000Y37362500D01*
G75*
G02*
X81062500Y37300000I-62500J0D01*
G01*
G37*
G36*
G01*
X80562500Y37300000D02*
X80437500Y37300000D01*
G75*
G02*
X80375000Y37362500I0J62500D01*
G01*
X80375000Y38062500D01*
G75*
G02*
X80437500Y38125000I62500J0D01*
G01*
X80562500Y38125000D01*
G75*
G02*
X80625000Y38062500I0J-62500D01*
G01*
X80625000Y37362500D01*
G75*
G02*
X80562500Y37300000I-62500J0D01*
G01*
G37*
G36*
G01*
X80062500Y37300000D02*
X79937500Y37300000D01*
G75*
G02*
X79875000Y37362500I0J62500D01*
G01*
X79875000Y38062500D01*
G75*
G02*
X79937500Y38125000I62500J0D01*
G01*
X80062500Y38125000D01*
G75*
G02*
X80125000Y38062500I0J-62500D01*
G01*
X80125000Y37362500D01*
G75*
G02*
X80062500Y37300000I-62500J0D01*
G01*
G37*
G36*
G01*
X79562500Y37300000D02*
X79437500Y37300000D01*
G75*
G02*
X79375000Y37362500I0J62500D01*
G01*
X79375000Y38062500D01*
G75*
G02*
X79437500Y38125000I62500J0D01*
G01*
X79562500Y38125000D01*
G75*
G02*
X79625000Y38062500I0J-62500D01*
G01*
X79625000Y37362500D01*
G75*
G02*
X79562500Y37300000I-62500J0D01*
G01*
G37*
G36*
G01*
X79062500Y37300000D02*
X78937500Y37300000D01*
G75*
G02*
X78875000Y37362500I0J62500D01*
G01*
X78875000Y38062500D01*
G75*
G02*
X78937500Y38125000I62500J0D01*
G01*
X79062500Y38125000D01*
G75*
G02*
X79125000Y38062500I0J-62500D01*
G01*
X79125000Y37362500D01*
G75*
G02*
X79062500Y37300000I-62500J0D01*
G01*
G37*
G36*
G01*
X78562500Y37300000D02*
X78437500Y37300000D01*
G75*
G02*
X78375000Y37362500I0J62500D01*
G01*
X78375000Y38062500D01*
G75*
G02*
X78437500Y38125000I62500J0D01*
G01*
X78562500Y38125000D01*
G75*
G02*
X78625000Y38062500I0J-62500D01*
G01*
X78625000Y37362500D01*
G75*
G02*
X78562500Y37300000I-62500J0D01*
G01*
G37*
G36*
G01*
X78137500Y36875000D02*
X77437500Y36875000D01*
G75*
G02*
X77375000Y36937500I0J62500D01*
G01*
X77375000Y37062500D01*
G75*
G02*
X77437500Y37125000I62500J0D01*
G01*
X78137500Y37125000D01*
G75*
G02*
X78200000Y37062500I0J-62500D01*
G01*
X78200000Y36937500D01*
G75*
G02*
X78137500Y36875000I-62500J0D01*
G01*
G37*
G36*
G01*
X78137500Y36375000D02*
X77437500Y36375000D01*
G75*
G02*
X77375000Y36437500I0J62500D01*
G01*
X77375000Y36562500D01*
G75*
G02*
X77437500Y36625000I62500J0D01*
G01*
X78137500Y36625000D01*
G75*
G02*
X78200000Y36562500I0J-62500D01*
G01*
X78200000Y36437500D01*
G75*
G02*
X78137500Y36375000I-62500J0D01*
G01*
G37*
G36*
G01*
X78137500Y35875000D02*
X77437500Y35875000D01*
G75*
G02*
X77375000Y35937500I0J62500D01*
G01*
X77375000Y36062500D01*
G75*
G02*
X77437500Y36125000I62500J0D01*
G01*
X78137500Y36125000D01*
G75*
G02*
X78200000Y36062500I0J-62500D01*
G01*
X78200000Y35937500D01*
G75*
G02*
X78137500Y35875000I-62500J0D01*
G01*
G37*
G36*
G01*
X78137500Y35375000D02*
X77437500Y35375000D01*
G75*
G02*
X77375000Y35437500I0J62500D01*
G01*
X77375000Y35562500D01*
G75*
G02*
X77437500Y35625000I62500J0D01*
G01*
X78137500Y35625000D01*
G75*
G02*
X78200000Y35562500I0J-62500D01*
G01*
X78200000Y35437500D01*
G75*
G02*
X78137500Y35375000I-62500J0D01*
G01*
G37*
G36*
G01*
X78137500Y34875000D02*
X77437500Y34875000D01*
G75*
G02*
X77375000Y34937500I0J62500D01*
G01*
X77375000Y35062500D01*
G75*
G02*
X77437500Y35125000I62500J0D01*
G01*
X78137500Y35125000D01*
G75*
G02*
X78200000Y35062500I0J-62500D01*
G01*
X78200000Y34937500D01*
G75*
G02*
X78137500Y34875000I-62500J0D01*
G01*
G37*
G36*
G01*
X78137500Y34375000D02*
X77437500Y34375000D01*
G75*
G02*
X77375000Y34437500I0J62500D01*
G01*
X77375000Y34562500D01*
G75*
G02*
X77437500Y34625000I62500J0D01*
G01*
X78137500Y34625000D01*
G75*
G02*
X78200000Y34562500I0J-62500D01*
G01*
X78200000Y34437500D01*
G75*
G02*
X78137500Y34375000I-62500J0D01*
G01*
G37*
D33*
X79750000Y35750000D03*
G36*
G01*
X104450000Y17674999D02*
X104450000Y19825001D01*
G75*
G02*
X104699999Y20075000I249999J0D01*
G01*
X105600001Y20075000D01*
G75*
G02*
X105850000Y19825001I0J-249999D01*
G01*
X105850000Y17674999D01*
G75*
G02*
X105600001Y17425000I-249999J0D01*
G01*
X104699999Y17425000D01*
G75*
G02*
X104450000Y17674999I0J249999D01*
G01*
G37*
G36*
G01*
X99650000Y17674999D02*
X99650000Y19825001D01*
G75*
G02*
X99899999Y20075000I249999J0D01*
G01*
X100800001Y20075000D01*
G75*
G02*
X101050000Y19825001I0J-249999D01*
G01*
X101050000Y17674999D01*
G75*
G02*
X100800001Y17425000I-249999J0D01*
G01*
X99899999Y17425000D01*
G75*
G02*
X99650000Y17674999I0J249999D01*
G01*
G37*
G36*
G01*
X111237500Y38675000D02*
X110762500Y38675000D01*
G75*
G02*
X110525000Y38912500I0J237500D01*
G01*
X110525000Y39412500D01*
G75*
G02*
X110762500Y39650000I237500J0D01*
G01*
X111237500Y39650000D01*
G75*
G02*
X111475000Y39412500I0J-237500D01*
G01*
X111475000Y38912500D01*
G75*
G02*
X111237500Y38675000I-237500J0D01*
G01*
G37*
G36*
G01*
X111237500Y36850000D02*
X110762500Y36850000D01*
G75*
G02*
X110525000Y37087500I0J237500D01*
G01*
X110525000Y37587500D01*
G75*
G02*
X110762500Y37825000I237500J0D01*
G01*
X111237500Y37825000D01*
G75*
G02*
X111475000Y37587500I0J-237500D01*
G01*
X111475000Y37087500D01*
G75*
G02*
X111237500Y36850000I-237500J0D01*
G01*
G37*
G36*
G01*
X94012500Y25825000D02*
X94487500Y25825000D01*
G75*
G02*
X94725000Y25587500I0J-237500D01*
G01*
X94725000Y25087500D01*
G75*
G02*
X94487500Y24850000I-237500J0D01*
G01*
X94012500Y24850000D01*
G75*
G02*
X93775000Y25087500I0J237500D01*
G01*
X93775000Y25587500D01*
G75*
G02*
X94012500Y25825000I237500J0D01*
G01*
G37*
G36*
G01*
X94012500Y27650000D02*
X94487500Y27650000D01*
G75*
G02*
X94725000Y27412500I0J-237500D01*
G01*
X94725000Y26912500D01*
G75*
G02*
X94487500Y26675000I-237500J0D01*
G01*
X94012500Y26675000D01*
G75*
G02*
X93775000Y26912500I0J237500D01*
G01*
X93775000Y27412500D01*
G75*
G02*
X94012500Y27650000I237500J0D01*
G01*
G37*
G36*
G01*
X103925000Y32262500D02*
X103925000Y32737500D01*
G75*
G02*
X104162500Y32975000I237500J0D01*
G01*
X104662500Y32975000D01*
G75*
G02*
X104900000Y32737500I0J-237500D01*
G01*
X104900000Y32262500D01*
G75*
G02*
X104662500Y32025000I-237500J0D01*
G01*
X104162500Y32025000D01*
G75*
G02*
X103925000Y32262500I0J237500D01*
G01*
G37*
G36*
G01*
X102100000Y32262500D02*
X102100000Y32737500D01*
G75*
G02*
X102337500Y32975000I237500J0D01*
G01*
X102837500Y32975000D01*
G75*
G02*
X103075000Y32737500I0J-237500D01*
G01*
X103075000Y32262500D01*
G75*
G02*
X102837500Y32025000I-237500J0D01*
G01*
X102337500Y32025000D01*
G75*
G02*
X102100000Y32262500I0J237500D01*
G01*
G37*
G36*
G01*
X85737500Y30425000D02*
X85262500Y30425000D01*
G75*
G02*
X85025000Y30662500I0J237500D01*
G01*
X85025000Y31162500D01*
G75*
G02*
X85262500Y31400000I237500J0D01*
G01*
X85737500Y31400000D01*
G75*
G02*
X85975000Y31162500I0J-237500D01*
G01*
X85975000Y30662500D01*
G75*
G02*
X85737500Y30425000I-237500J0D01*
G01*
G37*
G36*
G01*
X85737500Y28600000D02*
X85262500Y28600000D01*
G75*
G02*
X85025000Y28837500I0J237500D01*
G01*
X85025000Y29337500D01*
G75*
G02*
X85262500Y29575000I237500J0D01*
G01*
X85737500Y29575000D01*
G75*
G02*
X85975000Y29337500I0J-237500D01*
G01*
X85975000Y28837500D01*
G75*
G02*
X85737500Y28600000I-237500J0D01*
G01*
G37*
G36*
G01*
X90987500Y26675000D02*
X90512500Y26675000D01*
G75*
G02*
X90275000Y26912500I0J237500D01*
G01*
X90275000Y27412500D01*
G75*
G02*
X90512500Y27650000I237500J0D01*
G01*
X90987500Y27650000D01*
G75*
G02*
X91225000Y27412500I0J-237500D01*
G01*
X91225000Y26912500D01*
G75*
G02*
X90987500Y26675000I-237500J0D01*
G01*
G37*
G36*
G01*
X90987500Y24850000D02*
X90512500Y24850000D01*
G75*
G02*
X90275000Y25087500I0J237500D01*
G01*
X90275000Y25587500D01*
G75*
G02*
X90512500Y25825000I237500J0D01*
G01*
X90987500Y25825000D01*
G75*
G02*
X91225000Y25587500I0J-237500D01*
G01*
X91225000Y25087500D01*
G75*
G02*
X90987500Y24850000I-237500J0D01*
G01*
G37*
G36*
G01*
X81737500Y31675000D02*
X81262500Y31675000D01*
G75*
G02*
X81025000Y31912500I0J237500D01*
G01*
X81025000Y32412500D01*
G75*
G02*
X81262500Y32650000I237500J0D01*
G01*
X81737500Y32650000D01*
G75*
G02*
X81975000Y32412500I0J-237500D01*
G01*
X81975000Y31912500D01*
G75*
G02*
X81737500Y31675000I-237500J0D01*
G01*
G37*
G36*
G01*
X81737500Y29850000D02*
X81262500Y29850000D01*
G75*
G02*
X81025000Y30087500I0J237500D01*
G01*
X81025000Y30587500D01*
G75*
G02*
X81262500Y30825000I237500J0D01*
G01*
X81737500Y30825000D01*
G75*
G02*
X81975000Y30587500I0J-237500D01*
G01*
X81975000Y30087500D01*
G75*
G02*
X81737500Y29850000I-237500J0D01*
G01*
G37*
G36*
G01*
X73825000Y38737500D02*
X73825000Y38262500D01*
G75*
G02*
X73587500Y38025000I-237500J0D01*
G01*
X73087500Y38025000D01*
G75*
G02*
X72850000Y38262500I0J237500D01*
G01*
X72850000Y38737500D01*
G75*
G02*
X73087500Y38975000I237500J0D01*
G01*
X73587500Y38975000D01*
G75*
G02*
X73825000Y38737500I0J-237500D01*
G01*
G37*
G36*
G01*
X75650000Y38737500D02*
X75650000Y38262500D01*
G75*
G02*
X75412500Y38025000I-237500J0D01*
G01*
X74912500Y38025000D01*
G75*
G02*
X74675000Y38262500I0J237500D01*
G01*
X74675000Y38737500D01*
G75*
G02*
X74912500Y38975000I237500J0D01*
G01*
X75412500Y38975000D01*
G75*
G02*
X75650000Y38737500I0J-237500D01*
G01*
G37*
G36*
G01*
X83737500Y38925000D02*
X83262500Y38925000D01*
G75*
G02*
X83025000Y39162500I0J237500D01*
G01*
X83025000Y39662500D01*
G75*
G02*
X83262500Y39900000I237500J0D01*
G01*
X83737500Y39900000D01*
G75*
G02*
X83975000Y39662500I0J-237500D01*
G01*
X83975000Y39162500D01*
G75*
G02*
X83737500Y38925000I-237500J0D01*
G01*
G37*
G36*
G01*
X83737500Y37100000D02*
X83262500Y37100000D01*
G75*
G02*
X83025000Y37337500I0J237500D01*
G01*
X83025000Y37837500D01*
G75*
G02*
X83262500Y38075000I237500J0D01*
G01*
X83737500Y38075000D01*
G75*
G02*
X83975000Y37837500I0J-237500D01*
G01*
X83975000Y37337500D01*
G75*
G02*
X83737500Y37100000I-237500J0D01*
G01*
G37*
G36*
G01*
X83262500Y29575000D02*
X83737500Y29575000D01*
G75*
G02*
X83975000Y29337500I0J-237500D01*
G01*
X83975000Y28837500D01*
G75*
G02*
X83737500Y28600000I-237500J0D01*
G01*
X83262500Y28600000D01*
G75*
G02*
X83025000Y28837500I0J237500D01*
G01*
X83025000Y29337500D01*
G75*
G02*
X83262500Y29575000I237500J0D01*
G01*
G37*
G36*
G01*
X83262500Y31400000D02*
X83737500Y31400000D01*
G75*
G02*
X83975000Y31162500I0J-237500D01*
G01*
X83975000Y30662500D01*
G75*
G02*
X83737500Y30425000I-237500J0D01*
G01*
X83262500Y30425000D01*
G75*
G02*
X83025000Y30662500I0J237500D01*
G01*
X83025000Y31162500D01*
G75*
G02*
X83262500Y31400000I237500J0D01*
G01*
G37*
G36*
G01*
X80175000Y39262500D02*
X80175000Y39737500D01*
G75*
G02*
X80412500Y39975000I237500J0D01*
G01*
X80912500Y39975000D01*
G75*
G02*
X81150000Y39737500I0J-237500D01*
G01*
X81150000Y39262500D01*
G75*
G02*
X80912500Y39025000I-237500J0D01*
G01*
X80412500Y39025000D01*
G75*
G02*
X80175000Y39262500I0J237500D01*
G01*
G37*
G36*
G01*
X78350000Y39262500D02*
X78350000Y39737500D01*
G75*
G02*
X78587500Y39975000I237500J0D01*
G01*
X79087500Y39975000D01*
G75*
G02*
X79325000Y39737500I0J-237500D01*
G01*
X79325000Y39262500D01*
G75*
G02*
X79087500Y39025000I-237500J0D01*
G01*
X78587500Y39025000D01*
G75*
G02*
X78350000Y39262500I0J237500D01*
G01*
G37*
G36*
G01*
X113200000Y21755000D02*
X113200000Y22055000D01*
G75*
G02*
X113350000Y22205000I150000J0D01*
G01*
X114800000Y22205000D01*
G75*
G02*
X114950000Y22055000I0J-150000D01*
G01*
X114950000Y21755000D01*
G75*
G02*
X114800000Y21605000I-150000J0D01*
G01*
X113350000Y21605000D01*
G75*
G02*
X113200000Y21755000I0J150000D01*
G01*
G37*
G36*
G01*
X113200000Y20485000D02*
X113200000Y20785000D01*
G75*
G02*
X113350000Y20935000I150000J0D01*
G01*
X114800000Y20935000D01*
G75*
G02*
X114950000Y20785000I0J-150000D01*
G01*
X114950000Y20485000D01*
G75*
G02*
X114800000Y20335000I-150000J0D01*
G01*
X113350000Y20335000D01*
G75*
G02*
X113200000Y20485000I0J150000D01*
G01*
G37*
G36*
G01*
X113200000Y19215000D02*
X113200000Y19515000D01*
G75*
G02*
X113350000Y19665000I150000J0D01*
G01*
X114800000Y19665000D01*
G75*
G02*
X114950000Y19515000I0J-150000D01*
G01*
X114950000Y19215000D01*
G75*
G02*
X114800000Y19065000I-150000J0D01*
G01*
X113350000Y19065000D01*
G75*
G02*
X113200000Y19215000I0J150000D01*
G01*
G37*
G36*
G01*
X113200000Y17945000D02*
X113200000Y18245000D01*
G75*
G02*
X113350000Y18395000I150000J0D01*
G01*
X114800000Y18395000D01*
G75*
G02*
X114950000Y18245000I0J-150000D01*
G01*
X114950000Y17945000D01*
G75*
G02*
X114800000Y17795000I-150000J0D01*
G01*
X113350000Y17795000D01*
G75*
G02*
X113200000Y17945000I0J150000D01*
G01*
G37*
G36*
G01*
X108050000Y17945000D02*
X108050000Y18245000D01*
G75*
G02*
X108200000Y18395000I150000J0D01*
G01*
X109650000Y18395000D01*
G75*
G02*
X109800000Y18245000I0J-150000D01*
G01*
X109800000Y17945000D01*
G75*
G02*
X109650000Y17795000I-150000J0D01*
G01*
X108200000Y17795000D01*
G75*
G02*
X108050000Y17945000I0J150000D01*
G01*
G37*
G36*
G01*
X108050000Y19215000D02*
X108050000Y19515000D01*
G75*
G02*
X108200000Y19665000I150000J0D01*
G01*
X109650000Y19665000D01*
G75*
G02*
X109800000Y19515000I0J-150000D01*
G01*
X109800000Y19215000D01*
G75*
G02*
X109650000Y19065000I-150000J0D01*
G01*
X108200000Y19065000D01*
G75*
G02*
X108050000Y19215000I0J150000D01*
G01*
G37*
G36*
G01*
X108050000Y20485000D02*
X108050000Y20785000D01*
G75*
G02*
X108200000Y20935000I150000J0D01*
G01*
X109650000Y20935000D01*
G75*
G02*
X109800000Y20785000I0J-150000D01*
G01*
X109800000Y20485000D01*
G75*
G02*
X109650000Y20335000I-150000J0D01*
G01*
X108200000Y20335000D01*
G75*
G02*
X108050000Y20485000I0J150000D01*
G01*
G37*
G36*
G01*
X108050000Y21755000D02*
X108050000Y22055000D01*
G75*
G02*
X108200000Y22205000I150000J0D01*
G01*
X109650000Y22205000D01*
G75*
G02*
X109800000Y22055000I0J-150000D01*
G01*
X109800000Y21755000D01*
G75*
G02*
X109650000Y21605000I-150000J0D01*
G01*
X108200000Y21605000D01*
G75*
G02*
X108050000Y21755000I0J150000D01*
G01*
G37*
D34*
X89750000Y41750000D03*
D35*
X89750000Y43020000D03*
X91020000Y41750000D03*
X91020000Y43020000D03*
X92290000Y41750000D03*
X92290000Y43020000D03*
X93560000Y41750000D03*
X93560000Y43020000D03*
X94830000Y41750000D03*
X94830000Y43020000D03*
X96100000Y41750000D03*
X96100000Y43020000D03*
X97370000Y41750000D03*
X97370000Y43020000D03*
D36*
X121400000Y20500000D03*
X118100000Y20500000D03*
G36*
G01*
X59400000Y20987500D02*
X59400000Y20512500D01*
G75*
G02*
X59162500Y20275000I-237500J0D01*
G01*
X58587500Y20275000D01*
G75*
G02*
X58350000Y20512500I0J237500D01*
G01*
X58350000Y20987500D01*
G75*
G02*
X58587500Y21225000I237500J0D01*
G01*
X59162500Y21225000D01*
G75*
G02*
X59400000Y20987500I0J-237500D01*
G01*
G37*
G36*
G01*
X61150000Y20987500D02*
X61150000Y20512500D01*
G75*
G02*
X60912500Y20275000I-237500J0D01*
G01*
X60337500Y20275000D01*
G75*
G02*
X60100000Y20512500I0J237500D01*
G01*
X60100000Y20987500D01*
G75*
G02*
X60337500Y21225000I237500J0D01*
G01*
X60912500Y21225000D01*
G75*
G02*
X61150000Y20987500I0J-237500D01*
G01*
G37*
G36*
G01*
X109487500Y38575000D02*
X109012500Y38575000D01*
G75*
G02*
X108775000Y38812500I0J237500D01*
G01*
X108775000Y39412500D01*
G75*
G02*
X109012500Y39650000I237500J0D01*
G01*
X109487500Y39650000D01*
G75*
G02*
X109725000Y39412500I0J-237500D01*
G01*
X109725000Y38812500D01*
G75*
G02*
X109487500Y38575000I-237500J0D01*
G01*
G37*
G36*
G01*
X109487500Y36850000D02*
X109012500Y36850000D01*
G75*
G02*
X108775000Y37087500I0J237500D01*
G01*
X108775000Y37687500D01*
G75*
G02*
X109012500Y37925000I237500J0D01*
G01*
X109487500Y37925000D01*
G75*
G02*
X109725000Y37687500I0J-237500D01*
G01*
X109725000Y37087500D01*
G75*
G02*
X109487500Y36850000I-237500J0D01*
G01*
G37*
G36*
G01*
X99675000Y32737500D02*
X99675000Y32262500D01*
G75*
G02*
X99437500Y32025000I-237500J0D01*
G01*
X98837500Y32025000D01*
G75*
G02*
X98600000Y32262500I0J237500D01*
G01*
X98600000Y32737500D01*
G75*
G02*
X98837500Y32975000I237500J0D01*
G01*
X99437500Y32975000D01*
G75*
G02*
X99675000Y32737500I0J-237500D01*
G01*
G37*
G36*
G01*
X101400000Y32737500D02*
X101400000Y32262500D01*
G75*
G02*
X101162500Y32025000I-237500J0D01*
G01*
X100562500Y32025000D01*
G75*
G02*
X100325000Y32262500I0J237500D01*
G01*
X100325000Y32737500D01*
G75*
G02*
X100562500Y32975000I237500J0D01*
G01*
X101162500Y32975000D01*
G75*
G02*
X101400000Y32737500I0J-237500D01*
G01*
G37*
G36*
G01*
X92262500Y25925000D02*
X92737500Y25925000D01*
G75*
G02*
X92975000Y25687500I0J-237500D01*
G01*
X92975000Y25087500D01*
G75*
G02*
X92737500Y24850000I-237500J0D01*
G01*
X92262500Y24850000D01*
G75*
G02*
X92025000Y25087500I0J237500D01*
G01*
X92025000Y25687500D01*
G75*
G02*
X92262500Y25925000I237500J0D01*
G01*
G37*
G36*
G01*
X92262500Y27650000D02*
X92737500Y27650000D01*
G75*
G02*
X92975000Y27412500I0J-237500D01*
G01*
X92975000Y26812500D01*
G75*
G02*
X92737500Y26575000I-237500J0D01*
G01*
X92262500Y26575000D01*
G75*
G02*
X92025000Y26812500I0J237500D01*
G01*
X92025000Y27412500D01*
G75*
G02*
X92262500Y27650000I237500J0D01*
G01*
G37*
G36*
G01*
X88762500Y25925000D02*
X89237500Y25925000D01*
G75*
G02*
X89475000Y25687500I0J-237500D01*
G01*
X89475000Y25087500D01*
G75*
G02*
X89237500Y24850000I-237500J0D01*
G01*
X88762500Y24850000D01*
G75*
G02*
X88525000Y25087500I0J237500D01*
G01*
X88525000Y25687500D01*
G75*
G02*
X88762500Y25925000I237500J0D01*
G01*
G37*
G36*
G01*
X88762500Y27650000D02*
X89237500Y27650000D01*
G75*
G02*
X89475000Y27412500I0J-237500D01*
G01*
X89475000Y26812500D01*
G75*
G02*
X89237500Y26575000I-237500J0D01*
G01*
X88762500Y26575000D01*
G75*
G02*
X88525000Y26812500I0J237500D01*
G01*
X88525000Y27412500D01*
G75*
G02*
X88762500Y27650000I237500J0D01*
G01*
G37*
G36*
G01*
X74325000Y32012500D02*
X74325000Y32487500D01*
G75*
G02*
X74562500Y32725000I237500J0D01*
G01*
X75162500Y32725000D01*
G75*
G02*
X75400000Y32487500I0J-237500D01*
G01*
X75400000Y32012500D01*
G75*
G02*
X75162500Y31775000I-237500J0D01*
G01*
X74562500Y31775000D01*
G75*
G02*
X74325000Y32012500I0J237500D01*
G01*
G37*
G36*
G01*
X72600000Y32012500D02*
X72600000Y32487500D01*
G75*
G02*
X72837500Y32725000I237500J0D01*
G01*
X73437500Y32725000D01*
G75*
G02*
X73675000Y32487500I0J-237500D01*
G01*
X73675000Y32012500D01*
G75*
G02*
X73437500Y31775000I-237500J0D01*
G01*
X72837500Y31775000D01*
G75*
G02*
X72600000Y32012500I0J237500D01*
G01*
G37*
G36*
G01*
X69275000Y33800000D02*
X70225000Y33800000D01*
G75*
G02*
X70475000Y33550000I0J-250000D01*
G01*
X70475000Y32875000D01*
G75*
G02*
X70225000Y32625000I-250000J0D01*
G01*
X69275000Y32625000D01*
G75*
G02*
X69025000Y32875000I0J250000D01*
G01*
X69025000Y33550000D01*
G75*
G02*
X69275000Y33800000I250000J0D01*
G01*
G37*
G36*
G01*
X69275000Y35875000D02*
X70225000Y35875000D01*
G75*
G02*
X70475000Y35625000I0J-250000D01*
G01*
X70475000Y34950000D01*
G75*
G02*
X70225000Y34700000I-250000J0D01*
G01*
X69275000Y34700000D01*
G75*
G02*
X69025000Y34950000I0J250000D01*
G01*
X69025000Y35625000D01*
G75*
G02*
X69275000Y35875000I250000J0D01*
G01*
G37*
G36*
G01*
X73800000Y34725000D02*
X73800000Y33775000D01*
G75*
G02*
X73550000Y33525000I-250000J0D01*
G01*
X72875000Y33525000D01*
G75*
G02*
X72625000Y33775000I0J250000D01*
G01*
X72625000Y34725000D01*
G75*
G02*
X72875000Y34975000I250000J0D01*
G01*
X73550000Y34975000D01*
G75*
G02*
X73800000Y34725000I0J-250000D01*
G01*
G37*
G36*
G01*
X75875000Y34725000D02*
X75875000Y33775000D01*
G75*
G02*
X75625000Y33525000I-250000J0D01*
G01*
X74950000Y33525000D01*
G75*
G02*
X74700000Y33775000I0J250000D01*
G01*
X74700000Y34725000D01*
G75*
G02*
X74950000Y34975000I250000J0D01*
G01*
X75625000Y34975000D01*
G75*
G02*
X75875000Y34725000I0J-250000D01*
G01*
G37*
G36*
G01*
X74700000Y36025000D02*
X74700000Y36975000D01*
G75*
G02*
X74950000Y37225000I250000J0D01*
G01*
X75625000Y37225000D01*
G75*
G02*
X75875000Y36975000I0J-250000D01*
G01*
X75875000Y36025000D01*
G75*
G02*
X75625000Y35775000I-250000J0D01*
G01*
X74950000Y35775000D01*
G75*
G02*
X74700000Y36025000I0J250000D01*
G01*
G37*
G36*
G01*
X72625000Y36025000D02*
X72625000Y36975000D01*
G75*
G02*
X72875000Y37225000I250000J0D01*
G01*
X73550000Y37225000D01*
G75*
G02*
X73800000Y36975000I0J-250000D01*
G01*
X73800000Y36025000D01*
G75*
G02*
X73550000Y35775000I-250000J0D01*
G01*
X72875000Y35775000D01*
G75*
G02*
X72625000Y36025000I0J250000D01*
G01*
G37*
G36*
G01*
X62725000Y34700000D02*
X61775000Y34700000D01*
G75*
G02*
X61525000Y34950000I0J250000D01*
G01*
X61525000Y35625000D01*
G75*
G02*
X61775000Y35875000I250000J0D01*
G01*
X62725000Y35875000D01*
G75*
G02*
X62975000Y35625000I0J-250000D01*
G01*
X62975000Y34950000D01*
G75*
G02*
X62725000Y34700000I-250000J0D01*
G01*
G37*
G36*
G01*
X62725000Y32625000D02*
X61775000Y32625000D01*
G75*
G02*
X61525000Y32875000I0J250000D01*
G01*
X61525000Y33550000D01*
G75*
G02*
X61775000Y33800000I250000J0D01*
G01*
X62725000Y33800000D01*
G75*
G02*
X62975000Y33550000I0J-250000D01*
G01*
X62975000Y32875000D01*
G75*
G02*
X62725000Y32625000I-250000J0D01*
G01*
G37*
M02*
