%TF.GenerationSoftware,KiCad,Pcbnew,(5.1.5)-3*%
%TF.CreationDate,2020-03-31T18:07:01+02:00*%
%TF.ProjectId,loeti,6c6f6574-692e-46b6-9963-61645f706362,rev?*%
%TF.SameCoordinates,Original*%
%TF.FileFunction,Legend,Top*%
%TF.FilePolarity,Positive*%
%FSLAX46Y46*%
G04 Gerber Fmt 4.6, Leading zero omitted, Abs format (unit mm)*
G04 Created by KiCad (PCBNEW (5.1.5)-3) date 2020-03-31 18:07:01*
%MOMM*%
%LPD*%
G04 APERTURE LIST*
%ADD10C,0.150000*%
%ADD11C,1.000000*%
%ADD12C,0.120000*%
%ADD13C,0.127000*%
%ADD14C,0.200000*%
G04 APERTURE END LIST*
D10*
X85385714Y-95229761D02*
X85385714Y-94182142D01*
X85290476Y-93991666D01*
X85100000Y-93896428D01*
X84719047Y-93896428D01*
X84528571Y-93991666D01*
X85385714Y-95134523D02*
X85195238Y-95229761D01*
X84719047Y-95229761D01*
X84528571Y-95134523D01*
X84433333Y-94944047D01*
X84433333Y-94753571D01*
X84528571Y-94563095D01*
X84719047Y-94467857D01*
X85195238Y-94467857D01*
X85385714Y-94372619D01*
X86052380Y-93896428D02*
X86814285Y-93896428D01*
X86338095Y-95229761D02*
X86338095Y-93515476D01*
X86433333Y-93325000D01*
X86623809Y-93229761D01*
X86814285Y-93229761D01*
X88909523Y-93420238D02*
X89004761Y-93325000D01*
X89195238Y-93229761D01*
X89671428Y-93229761D01*
X89861904Y-93325000D01*
X89957142Y-93420238D01*
X90052380Y-93610714D01*
X90052380Y-93801190D01*
X89957142Y-94086904D01*
X88814285Y-95229761D01*
X90052380Y-95229761D01*
X91290476Y-93229761D02*
X91480952Y-93229761D01*
X91671428Y-93325000D01*
X91766666Y-93420238D01*
X91861904Y-93610714D01*
X91957142Y-93991666D01*
X91957142Y-94467857D01*
X91861904Y-94848809D01*
X91766666Y-95039285D01*
X91671428Y-95134523D01*
X91480952Y-95229761D01*
X91290476Y-95229761D01*
X91100000Y-95134523D01*
X91004761Y-95039285D01*
X90909523Y-94848809D01*
X90814285Y-94467857D01*
X90814285Y-93991666D01*
X90909523Y-93610714D01*
X91004761Y-93420238D01*
X91100000Y-93325000D01*
X91290476Y-93229761D01*
X92719047Y-93420238D02*
X92814285Y-93325000D01*
X93004761Y-93229761D01*
X93480952Y-93229761D01*
X93671428Y-93325000D01*
X93766666Y-93420238D01*
X93861904Y-93610714D01*
X93861904Y-93801190D01*
X93766666Y-94086904D01*
X92623809Y-95229761D01*
X93861904Y-95229761D01*
X95100000Y-93229761D02*
X95290476Y-93229761D01*
X95480952Y-93325000D01*
X95576190Y-93420238D01*
X95671428Y-93610714D01*
X95766666Y-93991666D01*
X95766666Y-94467857D01*
X95671428Y-94848809D01*
X95576190Y-95039285D01*
X95480952Y-95134523D01*
X95290476Y-95229761D01*
X95100000Y-95229761D01*
X94909523Y-95134523D01*
X94814285Y-95039285D01*
X94719047Y-94848809D01*
X94623809Y-94467857D01*
X94623809Y-93991666D01*
X94719047Y-93610714D01*
X94814285Y-93420238D01*
X94909523Y-93325000D01*
X95100000Y-93229761D01*
X88671428Y-97046428D02*
X89147619Y-98379761D01*
X89623809Y-97046428D01*
X91433333Y-98379761D02*
X90290476Y-98379761D01*
X90861904Y-98379761D02*
X90861904Y-96379761D01*
X90671428Y-96665476D01*
X90480952Y-96855952D01*
X90290476Y-96951190D01*
D11*
X86966666Y-91361904D02*
X84585714Y-91361904D01*
X84585714Y-86361904D01*
X89347619Y-91361904D02*
X88871428Y-91123809D01*
X88633333Y-90885714D01*
X88395238Y-90409523D01*
X88395238Y-88980952D01*
X88633333Y-88504761D01*
X88871428Y-88266666D01*
X89347619Y-88028571D01*
X90061904Y-88028571D01*
X90538095Y-88266666D01*
X90776190Y-88504761D01*
X91014285Y-88980952D01*
X91014285Y-90409523D01*
X90776190Y-90885714D01*
X90538095Y-91123809D01*
X90061904Y-91361904D01*
X89347619Y-91361904D01*
X88871428Y-86361904D02*
X89109523Y-86600000D01*
X88871428Y-86838095D01*
X88633333Y-86600000D01*
X88871428Y-86361904D01*
X88871428Y-86838095D01*
X90776190Y-86361904D02*
X91014285Y-86600000D01*
X90776190Y-86838095D01*
X90538095Y-86600000D01*
X90776190Y-86361904D01*
X90776190Y-86838095D01*
X92442857Y-88028571D02*
X94347619Y-88028571D01*
X93157142Y-86361904D02*
X93157142Y-90647619D01*
X93395238Y-91123809D01*
X93871428Y-91361904D01*
X94347619Y-91361904D01*
X96014285Y-91361904D02*
X96014285Y-88028571D01*
X96014285Y-86361904D02*
X95776190Y-86600000D01*
X96014285Y-86838095D01*
X96252380Y-86600000D01*
X96014285Y-86361904D01*
X96014285Y-86838095D01*
D10*
X106040000Y-56620000D02*
X107310000Y-56620000D01*
X106040000Y-59160000D02*
X107310000Y-59160000D01*
X106040000Y-59160000D02*
X106040000Y-56620000D01*
D12*
%TO.C,C16*%
X69661252Y-51790000D02*
X69138748Y-51790000D01*
X69661252Y-53210000D02*
X69138748Y-53210000D01*
%TO.C,TP6*%
X116150000Y-67750000D02*
X116150000Y-70150000D01*
X113750000Y-67750000D02*
X116150000Y-67750000D01*
X113750000Y-70150000D02*
X113750000Y-67750000D01*
X116150000Y-70150000D02*
X113750000Y-70150000D01*
%TO.C,TP5*%
X116150000Y-72050000D02*
X116150000Y-74450000D01*
X113750000Y-72050000D02*
X116150000Y-72050000D01*
X113750000Y-74450000D02*
X113750000Y-72050000D01*
X116150000Y-74450000D02*
X113750000Y-74450000D01*
%TO.C,TP4*%
X116200000Y-76300000D02*
X116200000Y-78700000D01*
X113800000Y-76300000D02*
X116200000Y-76300000D01*
X113800000Y-78700000D02*
X113800000Y-76300000D01*
X116200000Y-78700000D02*
X113800000Y-78700000D01*
%TO.C,J1*%
X107760000Y-53350000D02*
X108890000Y-53350000D01*
X107760000Y-54110000D02*
X107760000Y-53350000D01*
X110467530Y-53415000D02*
X111290000Y-53415000D01*
X109650000Y-53415000D02*
X109852470Y-53415000D01*
X109650000Y-53546529D02*
X109650000Y-53415000D01*
X109650000Y-54816529D02*
X109650000Y-54673471D01*
X109453471Y-54870000D02*
X109596529Y-54870000D01*
X107760000Y-54870000D02*
X108326529Y-54870000D01*
X111290000Y-53415000D02*
X111290000Y-62425000D01*
X107760000Y-54870000D02*
X107760000Y-62425000D01*
X109197530Y-62425000D02*
X109852470Y-62425000D01*
X110467530Y-62425000D02*
X111290000Y-62425000D01*
X107760000Y-62425000D02*
X108582470Y-62425000D01*
%TO.C,SW0*%
X106400000Y-73400000D02*
X110800000Y-73400000D01*
X110800000Y-73400000D02*
X110800000Y-73280000D01*
X110800000Y-72270000D02*
X110800000Y-71130000D01*
X110800000Y-70120000D02*
X110800000Y-70000000D01*
X110800000Y-70000000D02*
X106400000Y-70000000D01*
X106400000Y-70000000D02*
X106400000Y-70120000D01*
X106400000Y-71130000D02*
X106400000Y-72270000D01*
X106400000Y-73280000D02*
X106400000Y-73400000D01*
%TO.C,TP3*%
X111100000Y-102800000D02*
X115500000Y-102800000D01*
X111100000Y-107200000D02*
X111100000Y-102800000D01*
X115500000Y-107200000D02*
X111100000Y-107200000D01*
X115500000Y-102800000D02*
X115500000Y-107200000D01*
%TO.C,TP2*%
X111100000Y-97300000D02*
X115500000Y-97300000D01*
X111100000Y-101700000D02*
X111100000Y-97300000D01*
X115500000Y-101700000D02*
X111100000Y-101700000D01*
X115500000Y-97300000D02*
X115500000Y-101700000D01*
%TO.C,TP1*%
X111100000Y-91800000D02*
X115500000Y-91800000D01*
X111100000Y-96200000D02*
X111100000Y-91800000D01*
X115500000Y-96200000D02*
X111100000Y-96200000D01*
X115500000Y-91800000D02*
X115500000Y-96200000D01*
%TO.C,C10*%
X95240000Y-58678733D02*
X95240000Y-59021267D01*
X96260000Y-58678733D02*
X96260000Y-59021267D01*
D13*
%TO.C,J2*%
X99600000Y-41500000D02*
X99100000Y-41500000D01*
X99100000Y-41500000D02*
X94100000Y-41500000D01*
X94100000Y-41500000D02*
X93450000Y-41500000D01*
X93450000Y-41500000D02*
X93450000Y-43250000D01*
X99100000Y-41500000D02*
X99100000Y-39600000D01*
X99100000Y-39600000D02*
X94100000Y-39600000D01*
X94100000Y-39600000D02*
X94100000Y-41500000D01*
X99750000Y-50600000D02*
X99750000Y-48550000D01*
X99750000Y-52750000D02*
X99750000Y-53900000D01*
X99750000Y-53900000D02*
X93450000Y-53900000D01*
X93450000Y-53900000D02*
X93450000Y-52800000D01*
X93450000Y-48650000D02*
X93450000Y-50550000D01*
X93450000Y-45550000D02*
X93450000Y-46400000D01*
X99750000Y-45700000D02*
X99750000Y-46400000D01*
D14*
X100700000Y-41000000D02*
G75*
G03X100700000Y-41000000I-100000J0D01*
G01*
D12*
%TO.C,C15*%
X81571267Y-49390000D02*
X81228733Y-49390000D01*
X81571267Y-50410000D02*
X81228733Y-50410000D01*
%TO.C,C13*%
X85490000Y-47028733D02*
X85490000Y-47371267D01*
X86510000Y-47028733D02*
X86510000Y-47371267D01*
%TO.C,C12*%
X84928733Y-50410000D02*
X85271267Y-50410000D01*
X84928733Y-49390000D02*
X85271267Y-49390000D01*
%TO.C,R12*%
X88871267Y-45790000D02*
X88528733Y-45790000D01*
X88871267Y-46810000D02*
X88528733Y-46810000D01*
%TO.C,R10*%
X88871267Y-43990000D02*
X88528733Y-43990000D01*
X88871267Y-45010000D02*
X88528733Y-45010000D01*
%TO.C,U6*%
X80025000Y-45580000D02*
X83400000Y-45580000D01*
X80400000Y-48820000D02*
X83400000Y-48820000D01*
%TO.C,R11*%
X88871267Y-47590000D02*
X88528733Y-47590000D01*
X88871267Y-48610000D02*
X88528733Y-48610000D01*
%TO.C,C14*%
X85271267Y-43990000D02*
X84928733Y-43990000D01*
X85271267Y-45010000D02*
X84928733Y-45010000D01*
%TO.C,R9*%
X88871267Y-49390000D02*
X88528733Y-49390000D01*
X88871267Y-50410000D02*
X88528733Y-50410000D01*
%TO.C,R7*%
X96940000Y-58678733D02*
X96940000Y-59021267D01*
X97960000Y-58678733D02*
X97960000Y-59021267D01*
%TO.C,C1*%
X76621267Y-68890000D02*
X76278733Y-68890000D01*
X76621267Y-69910000D02*
X76278733Y-69910000D01*
%TO.C,U2*%
X73100000Y-61840000D02*
X70650000Y-61840000D01*
X71300000Y-65060000D02*
X73100000Y-65060000D01*
%TO.C,R6*%
X84628733Y-72610000D02*
X84971267Y-72610000D01*
X84628733Y-71590000D02*
X84971267Y-71590000D01*
%TO.C,R5*%
X100590000Y-68328733D02*
X100590000Y-68671267D01*
X101610000Y-68328733D02*
X101610000Y-68671267D01*
%TO.C,U5*%
X87440000Y-56800000D02*
X87440000Y-60250000D01*
X87440000Y-56800000D02*
X87440000Y-54850000D01*
X92560000Y-56800000D02*
X92560000Y-58750000D01*
X92560000Y-56800000D02*
X92560000Y-54850000D01*
%TO.C,R8*%
X93540000Y-58678733D02*
X93540000Y-59021267D01*
X94560000Y-58678733D02*
X94560000Y-59021267D01*
%TO.C,U1*%
X74060000Y-70135000D02*
X74060000Y-70610000D01*
X74060000Y-70610000D02*
X73585000Y-70610000D01*
X69840000Y-66865000D02*
X69840000Y-66390000D01*
X69840000Y-66390000D02*
X70315000Y-66390000D01*
X69840000Y-70135000D02*
X69840000Y-70610000D01*
X69840000Y-70610000D02*
X70315000Y-70610000D01*
X74060000Y-66865000D02*
X74060000Y-66390000D01*
%TO.C,U3*%
X96110000Y-66190000D02*
X96110000Y-65890000D01*
X96110000Y-65890000D02*
X95810000Y-65890000D01*
X96110000Y-72810000D02*
X96110000Y-73110000D01*
X96110000Y-73110000D02*
X95810000Y-73110000D01*
X88890000Y-66190000D02*
X88890000Y-65890000D01*
X88890000Y-65890000D02*
X89190000Y-65890000D01*
X88890000Y-72810000D02*
X88890000Y-73110000D01*
X88890000Y-73110000D02*
X89190000Y-73110000D01*
X89190000Y-73110000D02*
X89190000Y-74425000D01*
%TO.C,U0*%
X86400000Y-65613500D02*
X85200000Y-65613500D01*
X86400000Y-61613500D02*
X86400000Y-65613500D01*
X81600000Y-65613500D02*
X81600000Y-62913500D01*
X82800000Y-65613500D02*
X81600000Y-65613500D01*
%TO.C,R4*%
X66378733Y-65010000D02*
X66721267Y-65010000D01*
X66378733Y-63990000D02*
X66721267Y-63990000D01*
%TO.C,R3*%
X76278733Y-71810000D02*
X76621267Y-71810000D01*
X76278733Y-70790000D02*
X76621267Y-70790000D01*
%TO.C,R2*%
X66721267Y-67990000D02*
X66378733Y-67990000D01*
X66721267Y-69010000D02*
X66378733Y-69010000D01*
%TO.C,R1*%
X66721267Y-65990000D02*
X66378733Y-65990000D01*
X66721267Y-67010000D02*
X66378733Y-67010000D01*
%TO.C,R0*%
X77910000Y-63371267D02*
X77910000Y-63028733D01*
X76890000Y-63371267D02*
X76890000Y-63028733D01*
%TO.C,C11*%
X81610000Y-77871267D02*
X81610000Y-77528733D01*
X80590000Y-77871267D02*
X80590000Y-77528733D01*
%TO.C,C9*%
X79110000Y-77871267D02*
X79110000Y-77528733D01*
X78090000Y-77871267D02*
X78090000Y-77528733D01*
%TO.C,C8*%
X100078733Y-65760000D02*
X100421267Y-65760000D01*
X100078733Y-64740000D02*
X100421267Y-64740000D01*
%TO.C,C3*%
X81671267Y-58790000D02*
X81328733Y-58790000D01*
X81671267Y-59810000D02*
X81328733Y-59810000D01*
%TO.C,C4*%
X76328733Y-61010000D02*
X76671267Y-61010000D01*
X76328733Y-59990000D02*
X76671267Y-59990000D01*
%TO.C,C0*%
X85171267Y-57290000D02*
X84828733Y-57290000D01*
X85171267Y-58310000D02*
X84828733Y-58310000D01*
%TO.C,C7*%
X84971267Y-76290000D02*
X84628733Y-76290000D01*
X84971267Y-77310000D02*
X84628733Y-77310000D01*
%TO.C,C2*%
X76278733Y-67510000D02*
X76621267Y-67510000D01*
X76278733Y-66490000D02*
X76621267Y-66490000D01*
%TO.C,C6*%
X84971267Y-74390000D02*
X84628733Y-74390000D01*
X84971267Y-75410000D02*
X84628733Y-75410000D01*
%TO.C,C5*%
X98128733Y-74410000D02*
X98471267Y-74410000D01*
X98128733Y-73390000D02*
X98471267Y-73390000D01*
%TO.C,C16*%
D10*
X68757142Y-54507142D02*
X68709523Y-54554761D01*
X68566666Y-54602380D01*
X68471428Y-54602380D01*
X68328571Y-54554761D01*
X68233333Y-54459523D01*
X68185714Y-54364285D01*
X68138095Y-54173809D01*
X68138095Y-54030952D01*
X68185714Y-53840476D01*
X68233333Y-53745238D01*
X68328571Y-53650000D01*
X68471428Y-53602380D01*
X68566666Y-53602380D01*
X68709523Y-53650000D01*
X68757142Y-53697619D01*
X69709523Y-54602380D02*
X69138095Y-54602380D01*
X69423809Y-54602380D02*
X69423809Y-53602380D01*
X69328571Y-53745238D01*
X69233333Y-53840476D01*
X69138095Y-53888095D01*
X70566666Y-53602380D02*
X70376190Y-53602380D01*
X70280952Y-53650000D01*
X70233333Y-53697619D01*
X70138095Y-53840476D01*
X70090476Y-54030952D01*
X70090476Y-54411904D01*
X70138095Y-54507142D01*
X70185714Y-54554761D01*
X70280952Y-54602380D01*
X70471428Y-54602380D01*
X70566666Y-54554761D01*
X70614285Y-54507142D01*
X70661904Y-54411904D01*
X70661904Y-54173809D01*
X70614285Y-54078571D01*
X70566666Y-54030952D01*
X70471428Y-53983333D01*
X70280952Y-53983333D01*
X70185714Y-54030952D01*
X70138095Y-54078571D01*
X70090476Y-54173809D01*
%TO.C,TP6*%
X113783333Y-67352380D02*
X113783333Y-66352380D01*
X114164285Y-66352380D01*
X114259523Y-66400000D01*
X114307142Y-66447619D01*
X114354761Y-66542857D01*
X114354761Y-66685714D01*
X114307142Y-66780952D01*
X114259523Y-66828571D01*
X114164285Y-66876190D01*
X113783333Y-66876190D01*
X114735714Y-67066666D02*
X115211904Y-67066666D01*
X114640476Y-67352380D02*
X114973809Y-66352380D01*
X115307142Y-67352380D01*
X116116666Y-66352380D02*
X115640476Y-66352380D01*
X115592857Y-66828571D01*
X115640476Y-66780952D01*
X115735714Y-66733333D01*
X115973809Y-66733333D01*
X116069047Y-66780952D01*
X116116666Y-66828571D01*
X116164285Y-66923809D01*
X116164285Y-67161904D01*
X116116666Y-67257142D01*
X116069047Y-67304761D01*
X115973809Y-67352380D01*
X115735714Y-67352380D01*
X115640476Y-67304761D01*
X115592857Y-67257142D01*
%TO.C,TP5*%
X113783333Y-71652380D02*
X113783333Y-70652380D01*
X114164285Y-70652380D01*
X114259523Y-70700000D01*
X114307142Y-70747619D01*
X114354761Y-70842857D01*
X114354761Y-70985714D01*
X114307142Y-71080952D01*
X114259523Y-71128571D01*
X114164285Y-71176190D01*
X113783333Y-71176190D01*
X114735714Y-71366666D02*
X115211904Y-71366666D01*
X114640476Y-71652380D02*
X114973809Y-70652380D01*
X115307142Y-71652380D01*
X116069047Y-70985714D02*
X116069047Y-71652380D01*
X115830952Y-70604761D02*
X115592857Y-71319047D01*
X116211904Y-71319047D01*
%TO.C,TP4*%
X113833333Y-75902380D02*
X113833333Y-74902380D01*
X114214285Y-74902380D01*
X114309523Y-74950000D01*
X114357142Y-74997619D01*
X114404761Y-75092857D01*
X114404761Y-75235714D01*
X114357142Y-75330952D01*
X114309523Y-75378571D01*
X114214285Y-75426190D01*
X113833333Y-75426190D01*
X114785714Y-75616666D02*
X115261904Y-75616666D01*
X114690476Y-75902380D02*
X115023809Y-74902380D01*
X115357142Y-75902380D01*
X115595238Y-74902380D02*
X116214285Y-74902380D01*
X115880952Y-75283333D01*
X116023809Y-75283333D01*
X116119047Y-75330952D01*
X116166666Y-75378571D01*
X116214285Y-75473809D01*
X116214285Y-75711904D01*
X116166666Y-75807142D01*
X116119047Y-75854761D01*
X116023809Y-75902380D01*
X115738095Y-75902380D01*
X115642857Y-75854761D01*
X115595238Y-75807142D01*
%TO.C,J1*%
X109191666Y-51867380D02*
X109191666Y-52581666D01*
X109144047Y-52724523D01*
X109048809Y-52819761D01*
X108905952Y-52867380D01*
X108810714Y-52867380D01*
X110191666Y-52867380D02*
X109620238Y-52867380D01*
X109905952Y-52867380D02*
X109905952Y-51867380D01*
X109810714Y-52010238D01*
X109715476Y-52105476D01*
X109620238Y-52153095D01*
%TO.C,SW0*%
X107266666Y-72104761D02*
X107409523Y-72152380D01*
X107647619Y-72152380D01*
X107742857Y-72104761D01*
X107790476Y-72057142D01*
X107838095Y-71961904D01*
X107838095Y-71866666D01*
X107790476Y-71771428D01*
X107742857Y-71723809D01*
X107647619Y-71676190D01*
X107457142Y-71628571D01*
X107361904Y-71580952D01*
X107314285Y-71533333D01*
X107266666Y-71438095D01*
X107266666Y-71342857D01*
X107314285Y-71247619D01*
X107361904Y-71200000D01*
X107457142Y-71152380D01*
X107695238Y-71152380D01*
X107838095Y-71200000D01*
X108171428Y-71152380D02*
X108409523Y-72152380D01*
X108600000Y-71438095D01*
X108790476Y-72152380D01*
X109028571Y-71152380D01*
X109600000Y-71152380D02*
X109695238Y-71152380D01*
X109790476Y-71200000D01*
X109838095Y-71247619D01*
X109885714Y-71342857D01*
X109933333Y-71533333D01*
X109933333Y-71771428D01*
X109885714Y-71961904D01*
X109838095Y-72057142D01*
X109790476Y-72104761D01*
X109695238Y-72152380D01*
X109600000Y-72152380D01*
X109504761Y-72104761D01*
X109457142Y-72057142D01*
X109409523Y-71961904D01*
X109361904Y-71771428D01*
X109361904Y-71533333D01*
X109409523Y-71342857D01*
X109457142Y-71247619D01*
X109504761Y-71200000D01*
X109600000Y-71152380D01*
%TO.C,TP3*%
X109652380Y-106238095D02*
X109652380Y-105619047D01*
X110033333Y-105952380D01*
X110033333Y-105809523D01*
X110080952Y-105714285D01*
X110128571Y-105666666D01*
X110223809Y-105619047D01*
X110461904Y-105619047D01*
X110557142Y-105666666D01*
X110604761Y-105714285D01*
X110652380Y-105809523D01*
X110652380Y-106095238D01*
X110604761Y-106190476D01*
X110557142Y-106238095D01*
X109652380Y-105333333D02*
X110652380Y-105000000D01*
X109652380Y-104666666D01*
X109652380Y-104428571D02*
X109652380Y-103809523D01*
X110033333Y-104142857D01*
X110033333Y-104000000D01*
X110080952Y-103904761D01*
X110128571Y-103857142D01*
X110223809Y-103809523D01*
X110461904Y-103809523D01*
X110557142Y-103857142D01*
X110604761Y-103904761D01*
X110652380Y-104000000D01*
X110652380Y-104285714D01*
X110604761Y-104380952D01*
X110557142Y-104428571D01*
%TO.C,TP2*%
X109700000Y-100261904D02*
X109652380Y-100357142D01*
X109652380Y-100500000D01*
X109700000Y-100642857D01*
X109795238Y-100738095D01*
X109890476Y-100785714D01*
X110080952Y-100833333D01*
X110223809Y-100833333D01*
X110414285Y-100785714D01*
X110509523Y-100738095D01*
X110604761Y-100642857D01*
X110652380Y-100500000D01*
X110652380Y-100404761D01*
X110604761Y-100261904D01*
X110557142Y-100214285D01*
X110223809Y-100214285D01*
X110223809Y-100404761D01*
X110652380Y-99785714D02*
X109652380Y-99785714D01*
X110652380Y-99214285D01*
X109652380Y-99214285D01*
X110652380Y-98738095D02*
X109652380Y-98738095D01*
X109652380Y-98500000D01*
X109700000Y-98357142D01*
X109795238Y-98261904D01*
X109890476Y-98214285D01*
X110080952Y-98166666D01*
X110223809Y-98166666D01*
X110414285Y-98214285D01*
X110509523Y-98261904D01*
X110604761Y-98357142D01*
X110652380Y-98500000D01*
X110652380Y-98738095D01*
%TO.C,TP1*%
X109652380Y-95619047D02*
X110652380Y-95380952D01*
X109938095Y-95190476D01*
X110652380Y-95000000D01*
X109652380Y-94761904D01*
X110652380Y-94380952D02*
X109652380Y-94380952D01*
X110652380Y-93904761D02*
X109652380Y-93904761D01*
X109652380Y-93523809D01*
X109700000Y-93428571D01*
X109747619Y-93380952D01*
X109842857Y-93333333D01*
X109985714Y-93333333D01*
X110080952Y-93380952D01*
X110128571Y-93428571D01*
X110176190Y-93523809D01*
X110176190Y-93904761D01*
X110128571Y-92904761D02*
X110128571Y-92571428D01*
X110652380Y-92428571D02*
X110652380Y-92904761D01*
X109652380Y-92904761D01*
X109652380Y-92428571D01*
%TO.C,C10*%
X96107142Y-56392857D02*
X96154761Y-56440476D01*
X96202380Y-56583333D01*
X96202380Y-56678571D01*
X96154761Y-56821428D01*
X96059523Y-56916666D01*
X95964285Y-56964285D01*
X95773809Y-57011904D01*
X95630952Y-57011904D01*
X95440476Y-56964285D01*
X95345238Y-56916666D01*
X95250000Y-56821428D01*
X95202380Y-56678571D01*
X95202380Y-56583333D01*
X95250000Y-56440476D01*
X95297619Y-56392857D01*
X96202380Y-55440476D02*
X96202380Y-56011904D01*
X96202380Y-55726190D02*
X95202380Y-55726190D01*
X95345238Y-55821428D01*
X95440476Y-55916666D01*
X95488095Y-56011904D01*
X95202380Y-54821428D02*
X95202380Y-54726190D01*
X95250000Y-54630952D01*
X95297619Y-54583333D01*
X95392857Y-54535714D01*
X95583333Y-54488095D01*
X95821428Y-54488095D01*
X96011904Y-54535714D01*
X96107142Y-54583333D01*
X96154761Y-54630952D01*
X96202380Y-54726190D01*
X96202380Y-54821428D01*
X96154761Y-54916666D01*
X96107142Y-54964285D01*
X96011904Y-55011904D01*
X95821428Y-55059523D01*
X95583333Y-55059523D01*
X95392857Y-55011904D01*
X95297619Y-54964285D01*
X95250000Y-54916666D01*
X95202380Y-54821428D01*
%TO.C,J2*%
X100252256Y-51633409D02*
X100966704Y-51633409D01*
X101109594Y-51681039D01*
X101204854Y-51776299D01*
X101252484Y-51919188D01*
X101252484Y-52014448D01*
X100347515Y-51204740D02*
X100299886Y-51157110D01*
X100252256Y-51061850D01*
X100252256Y-50823700D01*
X100299886Y-50728441D01*
X100347515Y-50680811D01*
X100442775Y-50633181D01*
X100538035Y-50633181D01*
X100680925Y-50680811D01*
X101252484Y-51252370D01*
X101252484Y-50633181D01*
%TO.C,J0*%
X64766666Y-42152380D02*
X64766666Y-42866666D01*
X64719047Y-43009523D01*
X64623809Y-43104761D01*
X64480952Y-43152380D01*
X64385714Y-43152380D01*
X65433333Y-42152380D02*
X65528571Y-42152380D01*
X65623809Y-42200000D01*
X65671428Y-42247619D01*
X65719047Y-42342857D01*
X65766666Y-42533333D01*
X65766666Y-42771428D01*
X65719047Y-42961904D01*
X65671428Y-43057142D01*
X65623809Y-43104761D01*
X65528571Y-43152380D01*
X65433333Y-43152380D01*
X65338095Y-43104761D01*
X65290476Y-43057142D01*
X65242857Y-42961904D01*
X65195238Y-42771428D01*
X65195238Y-42533333D01*
X65242857Y-42342857D01*
X65290476Y-42247619D01*
X65338095Y-42200000D01*
X65433333Y-42152380D01*
%TO.C,C15*%
X80657142Y-51757142D02*
X80609523Y-51804761D01*
X80466666Y-51852380D01*
X80371428Y-51852380D01*
X80228571Y-51804761D01*
X80133333Y-51709523D01*
X80085714Y-51614285D01*
X80038095Y-51423809D01*
X80038095Y-51280952D01*
X80085714Y-51090476D01*
X80133333Y-50995238D01*
X80228571Y-50900000D01*
X80371428Y-50852380D01*
X80466666Y-50852380D01*
X80609523Y-50900000D01*
X80657142Y-50947619D01*
X81609523Y-51852380D02*
X81038095Y-51852380D01*
X81323809Y-51852380D02*
X81323809Y-50852380D01*
X81228571Y-50995238D01*
X81133333Y-51090476D01*
X81038095Y-51138095D01*
X82514285Y-50852380D02*
X82038095Y-50852380D01*
X81990476Y-51328571D01*
X82038095Y-51280952D01*
X82133333Y-51233333D01*
X82371428Y-51233333D01*
X82466666Y-51280952D01*
X82514285Y-51328571D01*
X82561904Y-51423809D01*
X82561904Y-51661904D01*
X82514285Y-51757142D01*
X82466666Y-51804761D01*
X82371428Y-51852380D01*
X82133333Y-51852380D01*
X82038095Y-51804761D01*
X81990476Y-51757142D01*
%TO.C,C13*%
X84957142Y-48142857D02*
X85004761Y-48190476D01*
X85052380Y-48333333D01*
X85052380Y-48428571D01*
X85004761Y-48571428D01*
X84909523Y-48666666D01*
X84814285Y-48714285D01*
X84623809Y-48761904D01*
X84480952Y-48761904D01*
X84290476Y-48714285D01*
X84195238Y-48666666D01*
X84100000Y-48571428D01*
X84052380Y-48428571D01*
X84052380Y-48333333D01*
X84100000Y-48190476D01*
X84147619Y-48142857D01*
X85052380Y-47190476D02*
X85052380Y-47761904D01*
X85052380Y-47476190D02*
X84052380Y-47476190D01*
X84195238Y-47571428D01*
X84290476Y-47666666D01*
X84338095Y-47761904D01*
X84052380Y-46857142D02*
X84052380Y-46238095D01*
X84433333Y-46571428D01*
X84433333Y-46428571D01*
X84480952Y-46333333D01*
X84528571Y-46285714D01*
X84623809Y-46238095D01*
X84861904Y-46238095D01*
X84957142Y-46285714D01*
X85004761Y-46333333D01*
X85052380Y-46428571D01*
X85052380Y-46714285D01*
X85004761Y-46809523D01*
X84957142Y-46857142D01*
%TO.C,C12*%
X84957142Y-51757142D02*
X84909523Y-51804761D01*
X84766666Y-51852380D01*
X84671428Y-51852380D01*
X84528571Y-51804761D01*
X84433333Y-51709523D01*
X84385714Y-51614285D01*
X84338095Y-51423809D01*
X84338095Y-51280952D01*
X84385714Y-51090476D01*
X84433333Y-50995238D01*
X84528571Y-50900000D01*
X84671428Y-50852380D01*
X84766666Y-50852380D01*
X84909523Y-50900000D01*
X84957142Y-50947619D01*
X85909523Y-51852380D02*
X85338095Y-51852380D01*
X85623809Y-51852380D02*
X85623809Y-50852380D01*
X85528571Y-50995238D01*
X85433333Y-51090476D01*
X85338095Y-51138095D01*
X86290476Y-50947619D02*
X86338095Y-50900000D01*
X86433333Y-50852380D01*
X86671428Y-50852380D01*
X86766666Y-50900000D01*
X86814285Y-50947619D01*
X86861904Y-51042857D01*
X86861904Y-51138095D01*
X86814285Y-51280952D01*
X86242857Y-51852380D01*
X86861904Y-51852380D01*
%TO.C,R12*%
X91352380Y-46042857D02*
X90876190Y-46376190D01*
X91352380Y-46614285D02*
X90352380Y-46614285D01*
X90352380Y-46233333D01*
X90400000Y-46138095D01*
X90447619Y-46090476D01*
X90542857Y-46042857D01*
X90685714Y-46042857D01*
X90780952Y-46090476D01*
X90828571Y-46138095D01*
X90876190Y-46233333D01*
X90876190Y-46614285D01*
X91352380Y-45090476D02*
X91352380Y-45661904D01*
X91352380Y-45376190D02*
X90352380Y-45376190D01*
X90495238Y-45471428D01*
X90590476Y-45566666D01*
X90638095Y-45661904D01*
X90447619Y-44709523D02*
X90400000Y-44661904D01*
X90352380Y-44566666D01*
X90352380Y-44328571D01*
X90400000Y-44233333D01*
X90447619Y-44185714D01*
X90542857Y-44138095D01*
X90638095Y-44138095D01*
X90780952Y-44185714D01*
X91352380Y-44757142D01*
X91352380Y-44138095D01*
%TO.C,R10*%
X88057142Y-43552380D02*
X87723809Y-43076190D01*
X87485714Y-43552380D02*
X87485714Y-42552380D01*
X87866666Y-42552380D01*
X87961904Y-42600000D01*
X88009523Y-42647619D01*
X88057142Y-42742857D01*
X88057142Y-42885714D01*
X88009523Y-42980952D01*
X87961904Y-43028571D01*
X87866666Y-43076190D01*
X87485714Y-43076190D01*
X89009523Y-43552380D02*
X88438095Y-43552380D01*
X88723809Y-43552380D02*
X88723809Y-42552380D01*
X88628571Y-42695238D01*
X88533333Y-42790476D01*
X88438095Y-42838095D01*
X89628571Y-42552380D02*
X89723809Y-42552380D01*
X89819047Y-42600000D01*
X89866666Y-42647619D01*
X89914285Y-42742857D01*
X89961904Y-42933333D01*
X89961904Y-43171428D01*
X89914285Y-43361904D01*
X89866666Y-43457142D01*
X89819047Y-43504761D01*
X89723809Y-43552380D01*
X89628571Y-43552380D01*
X89533333Y-43504761D01*
X89485714Y-43457142D01*
X89438095Y-43361904D01*
X89390476Y-43171428D01*
X89390476Y-42933333D01*
X89438095Y-42742857D01*
X89485714Y-42647619D01*
X89533333Y-42600000D01*
X89628571Y-42552380D01*
%TO.C,U6*%
X81138095Y-47552380D02*
X81138095Y-48361904D01*
X81185714Y-48457142D01*
X81233333Y-48504761D01*
X81328571Y-48552380D01*
X81519047Y-48552380D01*
X81614285Y-48504761D01*
X81661904Y-48457142D01*
X81709523Y-48361904D01*
X81709523Y-47552380D01*
X82614285Y-47552380D02*
X82423809Y-47552380D01*
X82328571Y-47600000D01*
X82280952Y-47647619D01*
X82185714Y-47790476D01*
X82138095Y-47980952D01*
X82138095Y-48361904D01*
X82185714Y-48457142D01*
X82233333Y-48504761D01*
X82328571Y-48552380D01*
X82519047Y-48552380D01*
X82614285Y-48504761D01*
X82661904Y-48457142D01*
X82709523Y-48361904D01*
X82709523Y-48123809D01*
X82661904Y-48028571D01*
X82614285Y-47980952D01*
X82519047Y-47933333D01*
X82328571Y-47933333D01*
X82233333Y-47980952D01*
X82185714Y-48028571D01*
X82138095Y-48123809D01*
%TO.C,R11*%
X91352380Y-49242857D02*
X90876190Y-49576190D01*
X91352380Y-49814285D02*
X90352380Y-49814285D01*
X90352380Y-49433333D01*
X90400000Y-49338095D01*
X90447619Y-49290476D01*
X90542857Y-49242857D01*
X90685714Y-49242857D01*
X90780952Y-49290476D01*
X90828571Y-49338095D01*
X90876190Y-49433333D01*
X90876190Y-49814285D01*
X91352380Y-48290476D02*
X91352380Y-48861904D01*
X91352380Y-48576190D02*
X90352380Y-48576190D01*
X90495238Y-48671428D01*
X90590476Y-48766666D01*
X90638095Y-48861904D01*
X91352380Y-47338095D02*
X91352380Y-47909523D01*
X91352380Y-47623809D02*
X90352380Y-47623809D01*
X90495238Y-47719047D01*
X90590476Y-47814285D01*
X90638095Y-47909523D01*
%TO.C,C14*%
X81257142Y-44857142D02*
X81209523Y-44904761D01*
X81066666Y-44952380D01*
X80971428Y-44952380D01*
X80828571Y-44904761D01*
X80733333Y-44809523D01*
X80685714Y-44714285D01*
X80638095Y-44523809D01*
X80638095Y-44380952D01*
X80685714Y-44190476D01*
X80733333Y-44095238D01*
X80828571Y-44000000D01*
X80971428Y-43952380D01*
X81066666Y-43952380D01*
X81209523Y-44000000D01*
X81257142Y-44047619D01*
X82209523Y-44952380D02*
X81638095Y-44952380D01*
X81923809Y-44952380D02*
X81923809Y-43952380D01*
X81828571Y-44095238D01*
X81733333Y-44190476D01*
X81638095Y-44238095D01*
X83066666Y-44285714D02*
X83066666Y-44952380D01*
X82828571Y-43904761D02*
X82590476Y-44619047D01*
X83209523Y-44619047D01*
%TO.C,R9*%
X88833333Y-51852380D02*
X88500000Y-51376190D01*
X88261904Y-51852380D02*
X88261904Y-50852380D01*
X88642857Y-50852380D01*
X88738095Y-50900000D01*
X88785714Y-50947619D01*
X88833333Y-51042857D01*
X88833333Y-51185714D01*
X88785714Y-51280952D01*
X88738095Y-51328571D01*
X88642857Y-51376190D01*
X88261904Y-51376190D01*
X89309523Y-51852380D02*
X89500000Y-51852380D01*
X89595238Y-51804761D01*
X89642857Y-51757142D01*
X89738095Y-51614285D01*
X89785714Y-51423809D01*
X89785714Y-51042857D01*
X89738095Y-50947619D01*
X89690476Y-50900000D01*
X89595238Y-50852380D01*
X89404761Y-50852380D01*
X89309523Y-50900000D01*
X89261904Y-50947619D01*
X89214285Y-51042857D01*
X89214285Y-51280952D01*
X89261904Y-51376190D01*
X89309523Y-51423809D01*
X89404761Y-51471428D01*
X89595238Y-51471428D01*
X89690476Y-51423809D01*
X89738095Y-51376190D01*
X89785714Y-51280952D01*
%TO.C,R7*%
X97902380Y-56416666D02*
X97426190Y-56750000D01*
X97902380Y-56988095D02*
X96902380Y-56988095D01*
X96902380Y-56607142D01*
X96950000Y-56511904D01*
X96997619Y-56464285D01*
X97092857Y-56416666D01*
X97235714Y-56416666D01*
X97330952Y-56464285D01*
X97378571Y-56511904D01*
X97426190Y-56607142D01*
X97426190Y-56988095D01*
X96902380Y-56083333D02*
X96902380Y-55416666D01*
X97902380Y-55845238D01*
%TO.C,C1*%
X78883333Y-69757142D02*
X78835714Y-69804761D01*
X78692857Y-69852380D01*
X78597619Y-69852380D01*
X78454761Y-69804761D01*
X78359523Y-69709523D01*
X78311904Y-69614285D01*
X78264285Y-69423809D01*
X78264285Y-69280952D01*
X78311904Y-69090476D01*
X78359523Y-68995238D01*
X78454761Y-68900000D01*
X78597619Y-68852380D01*
X78692857Y-68852380D01*
X78835714Y-68900000D01*
X78883333Y-68947619D01*
X79835714Y-69852380D02*
X79264285Y-69852380D01*
X79550000Y-69852380D02*
X79550000Y-68852380D01*
X79454761Y-68995238D01*
X79359523Y-69090476D01*
X79264285Y-69138095D01*
%TO.C,U2*%
X70388095Y-60352380D02*
X70388095Y-61161904D01*
X70435714Y-61257142D01*
X70483333Y-61304761D01*
X70578571Y-61352380D01*
X70769047Y-61352380D01*
X70864285Y-61304761D01*
X70911904Y-61257142D01*
X70959523Y-61161904D01*
X70959523Y-60352380D01*
X71388095Y-60447619D02*
X71435714Y-60400000D01*
X71530952Y-60352380D01*
X71769047Y-60352380D01*
X71864285Y-60400000D01*
X71911904Y-60447619D01*
X71959523Y-60542857D01*
X71959523Y-60638095D01*
X71911904Y-60780952D01*
X71340476Y-61352380D01*
X71959523Y-61352380D01*
%TO.C,R6*%
X84933333Y-71152380D02*
X84600000Y-70676190D01*
X84361904Y-71152380D02*
X84361904Y-70152380D01*
X84742857Y-70152380D01*
X84838095Y-70200000D01*
X84885714Y-70247619D01*
X84933333Y-70342857D01*
X84933333Y-70485714D01*
X84885714Y-70580952D01*
X84838095Y-70628571D01*
X84742857Y-70676190D01*
X84361904Y-70676190D01*
X85790476Y-70152380D02*
X85600000Y-70152380D01*
X85504761Y-70200000D01*
X85457142Y-70247619D01*
X85361904Y-70390476D01*
X85314285Y-70580952D01*
X85314285Y-70961904D01*
X85361904Y-71057142D01*
X85409523Y-71104761D01*
X85504761Y-71152380D01*
X85695238Y-71152380D01*
X85790476Y-71104761D01*
X85838095Y-71057142D01*
X85885714Y-70961904D01*
X85885714Y-70723809D01*
X85838095Y-70628571D01*
X85790476Y-70580952D01*
X85695238Y-70533333D01*
X85504761Y-70533333D01*
X85409523Y-70580952D01*
X85361904Y-70628571D01*
X85314285Y-70723809D01*
%TO.C,R5*%
X100152380Y-68666666D02*
X99676190Y-69000000D01*
X100152380Y-69238095D02*
X99152380Y-69238095D01*
X99152380Y-68857142D01*
X99200000Y-68761904D01*
X99247619Y-68714285D01*
X99342857Y-68666666D01*
X99485714Y-68666666D01*
X99580952Y-68714285D01*
X99628571Y-68761904D01*
X99676190Y-68857142D01*
X99676190Y-69238095D01*
X99152380Y-67761904D02*
X99152380Y-68238095D01*
X99628571Y-68285714D01*
X99580952Y-68238095D01*
X99533333Y-68142857D01*
X99533333Y-67904761D01*
X99580952Y-67809523D01*
X99628571Y-67761904D01*
X99723809Y-67714285D01*
X99961904Y-67714285D01*
X100057142Y-67761904D01*
X100104761Y-67809523D01*
X100152380Y-67904761D01*
X100152380Y-68142857D01*
X100104761Y-68238095D01*
X100057142Y-68285714D01*
%TO.C,U5*%
X89238095Y-56352380D02*
X89238095Y-57161904D01*
X89285714Y-57257142D01*
X89333333Y-57304761D01*
X89428571Y-57352380D01*
X89619047Y-57352380D01*
X89714285Y-57304761D01*
X89761904Y-57257142D01*
X89809523Y-57161904D01*
X89809523Y-56352380D01*
X90761904Y-56352380D02*
X90285714Y-56352380D01*
X90238095Y-56828571D01*
X90285714Y-56780952D01*
X90380952Y-56733333D01*
X90619047Y-56733333D01*
X90714285Y-56780952D01*
X90761904Y-56828571D01*
X90809523Y-56923809D01*
X90809523Y-57161904D01*
X90761904Y-57257142D01*
X90714285Y-57304761D01*
X90619047Y-57352380D01*
X90380952Y-57352380D01*
X90285714Y-57304761D01*
X90238095Y-57257142D01*
%TO.C,R8*%
X94502380Y-56416666D02*
X94026190Y-56750000D01*
X94502380Y-56988095D02*
X93502380Y-56988095D01*
X93502380Y-56607142D01*
X93550000Y-56511904D01*
X93597619Y-56464285D01*
X93692857Y-56416666D01*
X93835714Y-56416666D01*
X93930952Y-56464285D01*
X93978571Y-56511904D01*
X94026190Y-56607142D01*
X94026190Y-56988095D01*
X93930952Y-55845238D02*
X93883333Y-55940476D01*
X93835714Y-55988095D01*
X93740476Y-56035714D01*
X93692857Y-56035714D01*
X93597619Y-55988095D01*
X93550000Y-55940476D01*
X93502380Y-55845238D01*
X93502380Y-55654761D01*
X93550000Y-55559523D01*
X93597619Y-55511904D01*
X93692857Y-55464285D01*
X93740476Y-55464285D01*
X93835714Y-55511904D01*
X93883333Y-55559523D01*
X93930952Y-55654761D01*
X93930952Y-55845238D01*
X93978571Y-55940476D01*
X94026190Y-55988095D01*
X94121428Y-56035714D01*
X94311904Y-56035714D01*
X94407142Y-55988095D01*
X94454761Y-55940476D01*
X94502380Y-55845238D01*
X94502380Y-55654761D01*
X94454761Y-55559523D01*
X94407142Y-55511904D01*
X94311904Y-55464285D01*
X94121428Y-55464285D01*
X94026190Y-55511904D01*
X93978571Y-55559523D01*
X93930952Y-55654761D01*
%TO.C,U1*%
X69838095Y-71452380D02*
X69838095Y-72261904D01*
X69885714Y-72357142D01*
X69933333Y-72404761D01*
X70028571Y-72452380D01*
X70219047Y-72452380D01*
X70314285Y-72404761D01*
X70361904Y-72357142D01*
X70409523Y-72261904D01*
X70409523Y-71452380D01*
X71409523Y-72452380D02*
X70838095Y-72452380D01*
X71123809Y-72452380D02*
X71123809Y-71452380D01*
X71028571Y-71595238D01*
X70933333Y-71690476D01*
X70838095Y-71738095D01*
%TO.C,U3*%
X90038095Y-67752380D02*
X90038095Y-68561904D01*
X90085714Y-68657142D01*
X90133333Y-68704761D01*
X90228571Y-68752380D01*
X90419047Y-68752380D01*
X90514285Y-68704761D01*
X90561904Y-68657142D01*
X90609523Y-68561904D01*
X90609523Y-67752380D01*
X90990476Y-67752380D02*
X91609523Y-67752380D01*
X91276190Y-68133333D01*
X91419047Y-68133333D01*
X91514285Y-68180952D01*
X91561904Y-68228571D01*
X91609523Y-68323809D01*
X91609523Y-68561904D01*
X91561904Y-68657142D01*
X91514285Y-68704761D01*
X91419047Y-68752380D01*
X91133333Y-68752380D01*
X91038095Y-68704761D01*
X90990476Y-68657142D01*
%TO.C,U0*%
X86738095Y-62952380D02*
X86738095Y-63761904D01*
X86785714Y-63857142D01*
X86833333Y-63904761D01*
X86928571Y-63952380D01*
X87119047Y-63952380D01*
X87214285Y-63904761D01*
X87261904Y-63857142D01*
X87309523Y-63761904D01*
X87309523Y-62952380D01*
X87976190Y-62952380D02*
X88071428Y-62952380D01*
X88166666Y-63000000D01*
X88214285Y-63047619D01*
X88261904Y-63142857D01*
X88309523Y-63333333D01*
X88309523Y-63571428D01*
X88261904Y-63761904D01*
X88214285Y-63857142D01*
X88166666Y-63904761D01*
X88071428Y-63952380D01*
X87976190Y-63952380D01*
X87880952Y-63904761D01*
X87833333Y-63857142D01*
X87785714Y-63761904D01*
X87738095Y-63571428D01*
X87738095Y-63333333D01*
X87785714Y-63142857D01*
X87833333Y-63047619D01*
X87880952Y-63000000D01*
X87976190Y-62952380D01*
%TO.C,R4*%
X62783333Y-64952380D02*
X62450000Y-64476190D01*
X62211904Y-64952380D02*
X62211904Y-63952380D01*
X62592857Y-63952380D01*
X62688095Y-64000000D01*
X62735714Y-64047619D01*
X62783333Y-64142857D01*
X62783333Y-64285714D01*
X62735714Y-64380952D01*
X62688095Y-64428571D01*
X62592857Y-64476190D01*
X62211904Y-64476190D01*
X63640476Y-64285714D02*
X63640476Y-64952380D01*
X63402380Y-63904761D02*
X63164285Y-64619047D01*
X63783333Y-64619047D01*
%TO.C,R3*%
X78883333Y-71752380D02*
X78550000Y-71276190D01*
X78311904Y-71752380D02*
X78311904Y-70752380D01*
X78692857Y-70752380D01*
X78788095Y-70800000D01*
X78835714Y-70847619D01*
X78883333Y-70942857D01*
X78883333Y-71085714D01*
X78835714Y-71180952D01*
X78788095Y-71228571D01*
X78692857Y-71276190D01*
X78311904Y-71276190D01*
X79216666Y-70752380D02*
X79835714Y-70752380D01*
X79502380Y-71133333D01*
X79645238Y-71133333D01*
X79740476Y-71180952D01*
X79788095Y-71228571D01*
X79835714Y-71323809D01*
X79835714Y-71561904D01*
X79788095Y-71657142D01*
X79740476Y-71704761D01*
X79645238Y-71752380D01*
X79359523Y-71752380D01*
X79264285Y-71704761D01*
X79216666Y-71657142D01*
%TO.C,R2*%
X62783333Y-68952380D02*
X62450000Y-68476190D01*
X62211904Y-68952380D02*
X62211904Y-67952380D01*
X62592857Y-67952380D01*
X62688095Y-68000000D01*
X62735714Y-68047619D01*
X62783333Y-68142857D01*
X62783333Y-68285714D01*
X62735714Y-68380952D01*
X62688095Y-68428571D01*
X62592857Y-68476190D01*
X62211904Y-68476190D01*
X63164285Y-68047619D02*
X63211904Y-68000000D01*
X63307142Y-67952380D01*
X63545238Y-67952380D01*
X63640476Y-68000000D01*
X63688095Y-68047619D01*
X63735714Y-68142857D01*
X63735714Y-68238095D01*
X63688095Y-68380952D01*
X63116666Y-68952380D01*
X63735714Y-68952380D01*
%TO.C,R1*%
X62783333Y-66952380D02*
X62450000Y-66476190D01*
X62211904Y-66952380D02*
X62211904Y-65952380D01*
X62592857Y-65952380D01*
X62688095Y-66000000D01*
X62735714Y-66047619D01*
X62783333Y-66142857D01*
X62783333Y-66285714D01*
X62735714Y-66380952D01*
X62688095Y-66428571D01*
X62592857Y-66476190D01*
X62211904Y-66476190D01*
X63735714Y-66952380D02*
X63164285Y-66952380D01*
X63450000Y-66952380D02*
X63450000Y-65952380D01*
X63354761Y-66095238D01*
X63259523Y-66190476D01*
X63164285Y-66238095D01*
%TO.C,R0*%
X79352380Y-63166666D02*
X78876190Y-63500000D01*
X79352380Y-63738095D02*
X78352380Y-63738095D01*
X78352380Y-63357142D01*
X78400000Y-63261904D01*
X78447619Y-63214285D01*
X78542857Y-63166666D01*
X78685714Y-63166666D01*
X78780952Y-63214285D01*
X78828571Y-63261904D01*
X78876190Y-63357142D01*
X78876190Y-63738095D01*
X78352380Y-62547619D02*
X78352380Y-62452380D01*
X78400000Y-62357142D01*
X78447619Y-62309523D01*
X78542857Y-62261904D01*
X78733333Y-62214285D01*
X78971428Y-62214285D01*
X79161904Y-62261904D01*
X79257142Y-62309523D01*
X79304761Y-62357142D01*
X79352380Y-62452380D01*
X79352380Y-62547619D01*
X79304761Y-62642857D01*
X79257142Y-62690476D01*
X79161904Y-62738095D01*
X78971428Y-62785714D01*
X78733333Y-62785714D01*
X78542857Y-62738095D01*
X78447619Y-62690476D01*
X78400000Y-62642857D01*
X78352380Y-62547619D01*
%TO.C,C11*%
X82857142Y-78342857D02*
X82904761Y-78390476D01*
X82952380Y-78533333D01*
X82952380Y-78628571D01*
X82904761Y-78771428D01*
X82809523Y-78866666D01*
X82714285Y-78914285D01*
X82523809Y-78961904D01*
X82380952Y-78961904D01*
X82190476Y-78914285D01*
X82095238Y-78866666D01*
X82000000Y-78771428D01*
X81952380Y-78628571D01*
X81952380Y-78533333D01*
X82000000Y-78390476D01*
X82047619Y-78342857D01*
X82952380Y-77390476D02*
X82952380Y-77961904D01*
X82952380Y-77676190D02*
X81952380Y-77676190D01*
X82095238Y-77771428D01*
X82190476Y-77866666D01*
X82238095Y-77961904D01*
X82952380Y-76438095D02*
X82952380Y-77009523D01*
X82952380Y-76723809D02*
X81952380Y-76723809D01*
X82095238Y-76819047D01*
X82190476Y-76914285D01*
X82238095Y-77009523D01*
%TO.C,C9*%
X77557142Y-77866666D02*
X77604761Y-77914285D01*
X77652380Y-78057142D01*
X77652380Y-78152380D01*
X77604761Y-78295238D01*
X77509523Y-78390476D01*
X77414285Y-78438095D01*
X77223809Y-78485714D01*
X77080952Y-78485714D01*
X76890476Y-78438095D01*
X76795238Y-78390476D01*
X76700000Y-78295238D01*
X76652380Y-78152380D01*
X76652380Y-78057142D01*
X76700000Y-77914285D01*
X76747619Y-77866666D01*
X77652380Y-77390476D02*
X77652380Y-77200000D01*
X77604761Y-77104761D01*
X77557142Y-77057142D01*
X77414285Y-76961904D01*
X77223809Y-76914285D01*
X76842857Y-76914285D01*
X76747619Y-76961904D01*
X76700000Y-77009523D01*
X76652380Y-77104761D01*
X76652380Y-77295238D01*
X76700000Y-77390476D01*
X76747619Y-77438095D01*
X76842857Y-77485714D01*
X77080952Y-77485714D01*
X77176190Y-77438095D01*
X77223809Y-77390476D01*
X77271428Y-77295238D01*
X77271428Y-77104761D01*
X77223809Y-77009523D01*
X77176190Y-76961904D01*
X77080952Y-76914285D01*
%TO.C,C8*%
X100083333Y-64177142D02*
X100035714Y-64224761D01*
X99892857Y-64272380D01*
X99797619Y-64272380D01*
X99654761Y-64224761D01*
X99559523Y-64129523D01*
X99511904Y-64034285D01*
X99464285Y-63843809D01*
X99464285Y-63700952D01*
X99511904Y-63510476D01*
X99559523Y-63415238D01*
X99654761Y-63320000D01*
X99797619Y-63272380D01*
X99892857Y-63272380D01*
X100035714Y-63320000D01*
X100083333Y-63367619D01*
X100654761Y-63700952D02*
X100559523Y-63653333D01*
X100511904Y-63605714D01*
X100464285Y-63510476D01*
X100464285Y-63462857D01*
X100511904Y-63367619D01*
X100559523Y-63320000D01*
X100654761Y-63272380D01*
X100845238Y-63272380D01*
X100940476Y-63320000D01*
X100988095Y-63367619D01*
X101035714Y-63462857D01*
X101035714Y-63510476D01*
X100988095Y-63605714D01*
X100940476Y-63653333D01*
X100845238Y-63700952D01*
X100654761Y-63700952D01*
X100559523Y-63748571D01*
X100511904Y-63796190D01*
X100464285Y-63891428D01*
X100464285Y-64081904D01*
X100511904Y-64177142D01*
X100559523Y-64224761D01*
X100654761Y-64272380D01*
X100845238Y-64272380D01*
X100940476Y-64224761D01*
X100988095Y-64177142D01*
X101035714Y-64081904D01*
X101035714Y-63891428D01*
X100988095Y-63796190D01*
X100940476Y-63748571D01*
X100845238Y-63700952D01*
%TO.C,C3*%
X81333333Y-58357142D02*
X81285714Y-58404761D01*
X81142857Y-58452380D01*
X81047619Y-58452380D01*
X80904761Y-58404761D01*
X80809523Y-58309523D01*
X80761904Y-58214285D01*
X80714285Y-58023809D01*
X80714285Y-57880952D01*
X80761904Y-57690476D01*
X80809523Y-57595238D01*
X80904761Y-57500000D01*
X81047619Y-57452380D01*
X81142857Y-57452380D01*
X81285714Y-57500000D01*
X81333333Y-57547619D01*
X81666666Y-57452380D02*
X82285714Y-57452380D01*
X81952380Y-57833333D01*
X82095238Y-57833333D01*
X82190476Y-57880952D01*
X82238095Y-57928571D01*
X82285714Y-58023809D01*
X82285714Y-58261904D01*
X82238095Y-58357142D01*
X82190476Y-58404761D01*
X82095238Y-58452380D01*
X81809523Y-58452380D01*
X81714285Y-58404761D01*
X81666666Y-58357142D01*
%TO.C,C4*%
X78833333Y-60857142D02*
X78785714Y-60904761D01*
X78642857Y-60952380D01*
X78547619Y-60952380D01*
X78404761Y-60904761D01*
X78309523Y-60809523D01*
X78261904Y-60714285D01*
X78214285Y-60523809D01*
X78214285Y-60380952D01*
X78261904Y-60190476D01*
X78309523Y-60095238D01*
X78404761Y-60000000D01*
X78547619Y-59952380D01*
X78642857Y-59952380D01*
X78785714Y-60000000D01*
X78833333Y-60047619D01*
X79690476Y-60285714D02*
X79690476Y-60952380D01*
X79452380Y-59904761D02*
X79214285Y-60619047D01*
X79833333Y-60619047D01*
%TO.C,C0*%
X84833333Y-56857142D02*
X84785714Y-56904761D01*
X84642857Y-56952380D01*
X84547619Y-56952380D01*
X84404761Y-56904761D01*
X84309523Y-56809523D01*
X84261904Y-56714285D01*
X84214285Y-56523809D01*
X84214285Y-56380952D01*
X84261904Y-56190476D01*
X84309523Y-56095238D01*
X84404761Y-56000000D01*
X84547619Y-55952380D01*
X84642857Y-55952380D01*
X84785714Y-56000000D01*
X84833333Y-56047619D01*
X85452380Y-55952380D02*
X85547619Y-55952380D01*
X85642857Y-56000000D01*
X85690476Y-56047619D01*
X85738095Y-56142857D01*
X85785714Y-56333333D01*
X85785714Y-56571428D01*
X85738095Y-56761904D01*
X85690476Y-56857142D01*
X85642857Y-56904761D01*
X85547619Y-56952380D01*
X85452380Y-56952380D01*
X85357142Y-56904761D01*
X85309523Y-56857142D01*
X85261904Y-56761904D01*
X85214285Y-56571428D01*
X85214285Y-56333333D01*
X85261904Y-56142857D01*
X85309523Y-56047619D01*
X85357142Y-56000000D01*
X85452380Y-55952380D01*
%TO.C,C7*%
X84633333Y-78587142D02*
X84585714Y-78634761D01*
X84442857Y-78682380D01*
X84347619Y-78682380D01*
X84204761Y-78634761D01*
X84109523Y-78539523D01*
X84061904Y-78444285D01*
X84014285Y-78253809D01*
X84014285Y-78110952D01*
X84061904Y-77920476D01*
X84109523Y-77825238D01*
X84204761Y-77730000D01*
X84347619Y-77682380D01*
X84442857Y-77682380D01*
X84585714Y-77730000D01*
X84633333Y-77777619D01*
X84966666Y-77682380D02*
X85633333Y-77682380D01*
X85204761Y-78682380D01*
%TO.C,C2*%
X78883333Y-67857142D02*
X78835714Y-67904761D01*
X78692857Y-67952380D01*
X78597619Y-67952380D01*
X78454761Y-67904761D01*
X78359523Y-67809523D01*
X78311904Y-67714285D01*
X78264285Y-67523809D01*
X78264285Y-67380952D01*
X78311904Y-67190476D01*
X78359523Y-67095238D01*
X78454761Y-67000000D01*
X78597619Y-66952380D01*
X78692857Y-66952380D01*
X78835714Y-67000000D01*
X78883333Y-67047619D01*
X79264285Y-67047619D02*
X79311904Y-67000000D01*
X79407142Y-66952380D01*
X79645238Y-66952380D01*
X79740476Y-67000000D01*
X79788095Y-67047619D01*
X79835714Y-67142857D01*
X79835714Y-67238095D01*
X79788095Y-67380952D01*
X79216666Y-67952380D01*
X79835714Y-67952380D01*
%TO.C,C6*%
X84633333Y-73957142D02*
X84585714Y-74004761D01*
X84442857Y-74052380D01*
X84347619Y-74052380D01*
X84204761Y-74004761D01*
X84109523Y-73909523D01*
X84061904Y-73814285D01*
X84014285Y-73623809D01*
X84014285Y-73480952D01*
X84061904Y-73290476D01*
X84109523Y-73195238D01*
X84204761Y-73100000D01*
X84347619Y-73052380D01*
X84442857Y-73052380D01*
X84585714Y-73100000D01*
X84633333Y-73147619D01*
X85490476Y-73052380D02*
X85300000Y-73052380D01*
X85204761Y-73100000D01*
X85157142Y-73147619D01*
X85061904Y-73290476D01*
X85014285Y-73480952D01*
X85014285Y-73861904D01*
X85061904Y-73957142D01*
X85109523Y-74004761D01*
X85204761Y-74052380D01*
X85395238Y-74052380D01*
X85490476Y-74004761D01*
X85538095Y-73957142D01*
X85585714Y-73861904D01*
X85585714Y-73623809D01*
X85538095Y-73528571D01*
X85490476Y-73480952D01*
X85395238Y-73433333D01*
X85204761Y-73433333D01*
X85109523Y-73480952D01*
X85061904Y-73528571D01*
X85014285Y-73623809D01*
%TO.C,C5*%
X100733333Y-74257142D02*
X100685714Y-74304761D01*
X100542857Y-74352380D01*
X100447619Y-74352380D01*
X100304761Y-74304761D01*
X100209523Y-74209523D01*
X100161904Y-74114285D01*
X100114285Y-73923809D01*
X100114285Y-73780952D01*
X100161904Y-73590476D01*
X100209523Y-73495238D01*
X100304761Y-73400000D01*
X100447619Y-73352380D01*
X100542857Y-73352380D01*
X100685714Y-73400000D01*
X100733333Y-73447619D01*
X101638095Y-73352380D02*
X101161904Y-73352380D01*
X101114285Y-73828571D01*
X101161904Y-73780952D01*
X101257142Y-73733333D01*
X101495238Y-73733333D01*
X101590476Y-73780952D01*
X101638095Y-73828571D01*
X101685714Y-73923809D01*
X101685714Y-74161904D01*
X101638095Y-74257142D01*
X101590476Y-74304761D01*
X101495238Y-74352380D01*
X101257142Y-74352380D01*
X101161904Y-74304761D01*
X101114285Y-74257142D01*
%TD*%
M02*
