M48
; DRILL file {KiCad (5.1.9)-1} date 04/20/21 09:49:59
; FORMAT={-:-/ absolute / metric / decimal}
; #@! TF.CreationDate,2021-04-20T09:49:59+02:00
; #@! TF.GenerationSoftware,Kicad,Pcbnew,(5.1.9)-1
; #@! TF.FileFunction,Plated,1,2,PTH
FMAT,2
METRIC
T1C0.300
T2C0.600
T3C0.650
T4C0.900
T5C1.100
%
G90
G05
T1
X62.0Y29.95
X62.0Y27.0
X64.5Y37.0
X64.5Y36.25
X64.5Y35.5
X67.5Y37.0
X67.5Y36.25
X67.5Y35.5
X68.5Y31.25
X69.857Y32.143
X72.25Y36.5
X72.25Y34.25
X72.25Y32.25
X76.5Y33.25
X76.662Y37.0
X78.0Y29.25
X78.5Y32.75
X78.75Y36.75
X80.0Y32.75
X80.75Y34.75
X81.5Y39.5
X81.5Y33.25
X81.5Y29.25
X82.25Y13.75
X82.25Y13.0
X82.25Y12.25
X83.0Y13.75
X83.0Y13.0
X83.0Y12.25
X83.5Y31.75
X83.55Y36.8
X83.75Y13.75
X83.75Y13.0
X83.75Y12.25
X84.5Y34.25
X85.0Y27.0
X86.5Y29.0
X86.587Y22.162
X86.75Y13.75
X86.75Y13.0
X86.75Y12.25
X87.5Y13.75
X87.5Y13.0
X87.5Y12.25
X88.25Y13.75
X88.25Y13.0
X88.25Y12.25
X88.25Y26.0
X88.75Y30.75
X90.0Y13.75
X90.0Y13.0
X90.0Y12.25
X90.25Y35.5
X90.25Y34.0
X90.75Y13.75
X90.75Y13.0
X90.75Y12.25
X91.0Y31.25
X91.5Y13.75
X91.5Y13.0
X91.5Y12.25
X91.75Y26.0
X92.5Y37.25
X93.25Y23.0
X94.25Y28.25
X94.25Y24.25
X94.25Y20.75
X94.5Y13.75
X94.5Y13.0
X94.5Y12.25
X94.75Y34.0
X94.75Y36.25
X95.0Y31.75
X95.25Y13.75
X95.25Y13.0
X95.25Y12.25
X96.0Y13.75
X96.0Y13.0
X96.0Y12.25
X96.75Y39.0
X97.175Y38.0
X97.25Y30.5
X97.25Y22.25
X98.25Y40.25
X99.535Y33.465
X100.0Y29.5
X100.25Y39.75
X101.5Y35.0
X102.0Y24.25
X102.0Y31.0
X102.5Y40.75
X105.5Y27.0
X106.0Y31.5
X106.5Y35.0
X106.5Y22.0
X108.0Y27.75
X112.125Y38.125
T3
X89.75Y43.02
X89.75Y41.75
X91.02Y43.02
X91.02Y41.75
X92.29Y43.02
X92.29Y41.75
X93.56Y43.02
X93.56Y41.75
X94.83Y43.02
X94.83Y41.75
X96.1Y43.02
X96.1Y41.75
X97.37Y43.02
X97.37Y41.75
T4
X80.5Y47.5
X80.5Y44.96
X83.75Y47.5
X83.75Y44.96
X87.0Y47.5
X87.0Y44.96
T5
X72.018Y23.386
X74.886Y27.482
X76.114Y20.518
X78.982Y24.614
T2
X55.5Y33.0G85X54.9Y33.0
G05
X55.5Y24.36G85X54.9Y24.36
G05
X59.93Y33.0G85X58.83Y33.0
G05
X59.93Y24.36G85X58.83Y24.36
G05
X115.02Y32.905G85X113.12Y32.905
G05
X115.02Y24.455G85X113.12Y24.455
G05
X121.82Y32.905G85X119.92Y32.905
G05
X121.82Y24.455G85X119.92Y24.455
G05
T0
M30
