%TF.GenerationSoftware,KiCad,Pcbnew,(5.1.5)-3*%
%TF.CreationDate,2020-03-31T18:07:01+02:00*%
%TF.ProjectId,loeti,6c6f6574-692e-46b6-9963-61645f706362,rev?*%
%TF.SameCoordinates,Original*%
%TF.FileFunction,Profile,NP*%
%FSLAX46Y46*%
G04 Gerber Fmt 4.6, Leading zero omitted, Abs format (unit mm)*
G04 Created by KiCad (PCBNEW (5.1.5)-3) date 2020-03-31 18:07:01*
%MOMM*%
%LPD*%
G04 APERTURE LIST*
%TA.AperFunction,Profile*%
%ADD10C,0.150000*%
%TD*%
%TA.AperFunction,Profile*%
%ADD11C,0.100000*%
%TD*%
%TA.AperFunction,Profile*%
%ADD12C,0.000100*%
%TD*%
%TA.AperFunction,Profile*%
%ADD13C,0.120000*%
%TD*%
G04 APERTURE END LIST*
D10*
X75000000Y-120500000D02*
X60000000Y-120500000D01*
X119500000Y-120500000D02*
X105000000Y-120500000D01*
X75000000Y-120500000D02*
G75*
G02X105000000Y-120500000I15000000J0D01*
G01*
X119500000Y-41500000D02*
X119500000Y-120500000D01*
X106600000Y-41500000D02*
X119500000Y-41500000D01*
X86600000Y-41500000D02*
X79400000Y-41500000D01*
D11*
X60000000Y-41500000D02*
X65400000Y-41500000D01*
X60000000Y-41500000D02*
X60000000Y-120500000D01*
D12*
%TO.C,J2*%
X99750000Y-41500000D02*
X99750000Y-49000000D01*
X99750000Y-50200000D02*
X99750000Y-53900000D01*
X98750000Y-53900000D02*
X94450000Y-53900000D01*
X93450000Y-53900000D02*
X93450000Y-50200000D01*
X93450000Y-41500000D02*
X93450000Y-49000000D01*
X99750000Y-41500000D02*
X106600000Y-41500000D01*
X93450000Y-41500000D02*
X86600000Y-41500000D01*
X99750000Y-53900000D02*
G75*
G02X99250000Y-54400000I-500000J0D01*
G01*
X99250000Y-54400000D02*
G75*
G02X98750000Y-53900000I0J500000D01*
G01*
X94450000Y-53900000D02*
G75*
G02X93950000Y-54400000I-500000J0D01*
G01*
X93950000Y-54400000D02*
G75*
G02X93450000Y-53900000I0J500000D01*
G01*
X99750000Y-49000000D02*
X100200000Y-49000000D01*
X99750000Y-50200000D02*
X100200000Y-50200000D01*
X100200000Y-49000000D02*
G75*
G02X100800000Y-49600000I0J-600000D01*
G01*
X100800000Y-49600000D02*
G75*
G02X100200000Y-50200000I-600000J0D01*
G01*
X93450000Y-49000000D02*
X93000000Y-49000000D01*
X93450000Y-50200000D02*
X93000000Y-50200000D01*
X93000000Y-50200000D02*
G75*
G02X92400000Y-49600000I0J600000D01*
G01*
X92400000Y-49600000D02*
G75*
G02X93000000Y-49000000I600000J0D01*
G01*
D13*
%TO.C,J0*%
X79400000Y-41500000D02*
X77075000Y-41500000D01*
X67725000Y-41500000D02*
X65400000Y-41500000D01*
X67725000Y-47220000D02*
X77075000Y-47220000D01*
X67725000Y-47220000D02*
X67725000Y-41500000D01*
X77075000Y-47220000D02*
X77075000Y-41500000D01*
%TD*%
M02*
