M48
; DRILL file {KiCad (5.1.9)-1} date 04/16/21 14:28:37
; FORMAT={-:-/ absolute / inch / decimal}
; #@! TF.CreationDate,2021-04-16T14:28:37+02:00
; #@! TF.GenerationSoftware,Kicad,Pcbnew,(5.1.9)-1
; #@! TF.FileFunction,Plated,1,2,PTH
FMAT,2
INCH
T1C0.0118
T2C0.0157
T3C0.0197
T4C0.0236
T5C0.0256
T6C0.0354
T7C0.0433
%
G90
G05
T1
X2.7461Y1.2795
X3.002Y1.5846
X3.002Y1.5453
X3.002Y1.3287
X3.061Y1.4075
X3.0709Y1.4469
X3.0807Y1.1122
X3.1085Y1.3009
X3.1398Y1.8701
X3.1496Y1.5551
X3.1496Y1.4961
X3.1496Y1.0728
X3.1693Y1.4567
X3.1693Y1.6634
X3.1988Y1.8701
X3.1988Y1.122
X3.2382Y1.122
X3.2411Y1.4365
X3.2874Y1.8701
X3.3071Y1.5945
X3.3071Y1.5256
X3.3071Y1.0728
X3.3563Y1.6634
X3.3661Y1.7126
X3.3858Y1.1614
X3.4154Y1.7913
X3.4547Y1.3091
X3.4843Y1.2106
X3.4941Y1.3091
X3.5157Y1.248
X3.5335Y1.4075
X3.5531Y1.2795
X3.5531Y1.2106
X3.6516Y1.2106
X3.6614Y1.3976
X3.6614Y1.3583
X3.7205Y1.4764
X3.8386Y1.25
X3.9764Y1.5453
X4.0157Y1.4567
X4.065Y1.1417
X4.2028Y1.3878
X4.252Y1.3189
T2
X2.3051Y1.2461
X2.3051Y1.2126
X2.3051Y1.1791
X2.3051Y1.1457
X2.3051Y1.1122
X2.3051Y1.0787
X2.3051Y1.0453
X2.3051Y1.0118
X2.3583Y1.2461
X2.3583Y1.2126
X2.3583Y1.1791
X2.3583Y1.1457
X2.3583Y1.1122
X2.3583Y1.0787
X2.3583Y1.0453
X2.3583Y1.0118
T3
X3.1102Y1.2303
X3.248Y0.5315
X3.248Y0.4823
X3.248Y0.4331
X3.2972Y0.5315
X3.2972Y0.4823
X3.2972Y0.4331
X3.435Y0.5315
X3.435Y0.4823
X3.435Y0.4331
X3.4843Y0.5315
X3.4843Y0.4823
X3.4843Y0.4331
X3.5531Y0.5315
X3.5531Y0.4823
X3.5531Y0.4331
X3.6024Y0.5315
X3.6024Y0.4823
X3.6024Y0.4331
X3.7402Y0.5315
X3.7402Y0.4823
X3.7402Y0.4331
X3.7894Y0.5315
X3.7894Y0.4823
X3.7894Y0.4331
T5
X3.5335Y1.6642
X3.5335Y1.6142
X3.5835Y1.6642
X3.5835Y1.6142
X3.6335Y1.6642
X3.6335Y1.6142
X3.6835Y1.6642
X3.6835Y1.6142
X3.7335Y1.6642
X3.7335Y1.6142
X3.7835Y1.6642
X3.7835Y1.6142
X3.8335Y1.6642
X3.8335Y1.6142
T6
X3.3858Y0.9547
X3.3858Y0.8547
X3.563Y0.9547
X3.563Y0.8547
X3.7402Y0.9547
X3.7402Y0.8547
T7
X2.687Y1.2276
X2.687Y1.0307
X2.8839Y1.2276
X2.8839Y1.0307
T4
G00X2.2024Y1.2992
M15
G01X2.1709Y1.2992
M16
G05
G00X2.2024Y0.9587
M15
G01X2.1709Y0.9587
M16
G05
G00X2.3492Y1.2992
M15
G01X2.2902Y1.2992
M16
G05
G00X2.3492Y0.9587
M15
G01X2.2902Y0.9587
M16
G05
G00X4.5283Y1.2955
M15
G01X4.4535Y1.2955
M16
G05
G00X4.5283Y0.9628
M15
G01X4.4535Y0.9628
M16
G05
G00X4.7961Y1.2955
M15
G01X4.7213Y1.2955
M16
G05
G00X4.7961Y0.9628
M15
G01X4.7213Y0.9628
M16
G05
T0
M30
